<svg xmlns="http://www.w3.org/2000/svg" width="146.984" height="140" viewBox="0 0 146.984 140">
  <g id="_10-coin" data-name="10-coin" transform="translate(-4 -12)">
    <g id="linear_color" data-name="linear color" transform="translate(4 12)">
      <path id="Trazado_140164" data-name="Trazado 140164" d="M55.954,0A55.954,55.954,0,1,1,0,55.954,55.954,55.954,0,0,1,55.954,0Z" transform="translate(3.694 3.78)" fill="#fff5a2"/>
      <path id="Trazado_140162" data-name="Trazado 140162" d="M41.514,0C64.441,0,83.028,18.856,83.028,42.116S64.441,84.231,41.514,84.231,0,65.375,0,42.116,18.586,0,41.514,0Z" transform="translate(18.134 17.016)" fill="#fed947"/>
      <path id="Trazado_140163" data-name="Trazado 140163" d="M55.954,0A55.954,55.954,0,1,1,0,55.954,55.954,55.954,0,0,1,55.954,0Z" transform="translate(31.37 3.78)" fill="#fff5a2"/>
      <path id="Trazado_140161" data-name="Trazado 140161" d="M41.514,0C64.441,0,83.028,18.856,83.028,42.116S64.441,84.231,41.514,84.231,0,65.375,0,42.116,18.586,0,41.514,0Z" transform="translate(45.81 17.016)" fill="#fed947"/>
      <ellipse id="Elipse_4579" data-name="Elipse 4579" cx="22.863" cy="23.464" rx="22.863" ry="23.464" transform="translate(97.552 89.214)" fill="#2a94ee"/>
      <path id="Trazado_140158" data-name="Trazado 140158" d="M256.5,157.49v-5.249h.875a16.623,16.623,0,1,0,0-33.246h-8.749a9.624,9.624,0,1,1,0-19.247h13.123A5.255,5.255,0,0,1,267,105a3.5,3.5,0,0,0,7,0,12.262,12.262,0,0,0-12.248-12.248H256.5V87.5a3.5,3.5,0,0,0-7,0v5.249h-.875a16.623,16.623,0,1,0,0,33.246h8.749a9.624,9.624,0,0,1,0,19.248H244.248A5.255,5.255,0,0,1,239,139.993a3.5,3.5,0,0,0-7,0,12.262,12.262,0,0,0,12.248,12.248H249.5v5.249a3.5,3.5,0,1,0,7,0Z" transform="translate(-165.509 -63.003)"/>
      <path id="Trazado_140159" data-name="Trazado 140159" d="M141.084,104.357a58.914,58.914,0,0,0,9.9-32.864A59.5,59.5,0,0,0,77.5,13.667a59.492,59.492,0,1,0-.006,115.653,59.418,59.418,0,0,0,14,1.665,60.193,60.193,0,0,0,6.4-.343,26.83,26.83,0,1,0,43.2-26.285ZM63.492,123.985A52.493,52.493,0,0,1,63.492,19h.024a59.786,59.786,0,0,0-12.194,8.647,45.507,45.507,0,0,0,0,87.693,59.787,59.787,0,0,0,12.194,8.646ZM40.808,40.368a59.376,59.376,0,0,0,0,62.249,38.541,38.541,0,0,1,0-62.249ZM39,71.492a52.493,52.493,0,1,1,104.986,0,51.975,51.975,0,0,1-8.855,29.179,26.6,26.6,0,0,0-7.113-2.071A45.483,45.483,0,0,0,91.489,26C67,25.829,45.884,46.208,45.995,71.492c-.272,27.992,25.967,49.6,52.793,44.911a26.668,26.668,0,0,0-1.424,7.255,53.116,53.116,0,0,1-5.875.327A52.553,52.553,0,0,1,39,71.492Zm64.465,36.6a38.542,38.542,0,1,1,15.03-9.164,26.862,26.862,0,0,0-15.03,9.164Zm20.69,36.893a19.831,19.831,0,1,1,19.831-19.831,19.831,19.831,0,0,1-19.831,19.831Z" transform="translate(-4 -12)"/>
      <path id="Trazado_140160" data-name="Trazado 140160" d="M394.164,364.624h-5.833V358.5a3.5,3.5,0,1,0-7,0v6.124H375.5a3.5,3.5,0,1,0,0,7h5.833v5.833a3.5,3.5,0,0,0,7,0v-5.833h5.833a3.5,3.5,0,0,0,0-7Z" transform="translate(-264.681 -254.971)"/>
    </g>
  </g>
</svg>
