<svg xmlns="http://www.w3.org/2000/svg" width="161.811" height="166.157" viewBox="0 0 161.811 166.157">
  <g id="bancarrota" transform="translate(0 0)">
    <path id="Trazado_140266" data-name="Trazado 140266" d="M32.633,153.148h-19.3A5.834,5.834,0,0,0,7.5,158.982V261.341a5.835,5.835,0,0,0,5.835,5.835h19.3a5.835,5.835,0,0,0,5.835-5.835V158.982A5.834,5.834,0,0,0,32.633,153.148Zm0,0" transform="translate(-5.066 -103.448)" fill="#2a94ee"/>
    <path id="Trazado_140268" data-name="Trazado 140268" d="M162.027,214.285h-19.3a5.835,5.835,0,0,0-5.835,5.835v82.517a5.835,5.835,0,0,0,5.835,5.835h19.3a5.834,5.834,0,0,0,5.834-5.835V220.12A5.833,5.833,0,0,0,162.027,214.285Zm0,0" transform="translate(-92.469 -144.745)" fill="#dff7f9"/>
    <path id="Trazado_140269" data-name="Trazado 140269" d="M148.031,315.315" transform="translate(-93.869 -157.423)" fill="#fab659"/>
    <path id="Trazado_140270" data-name="Trazado 140270" d="M291.425,275.426h-19.3a5.833,5.833,0,0,0-5.834,5.834v62.676a5.834,5.834,0,0,0,5.834,5.835h19.3a5.835,5.835,0,0,0,5.835-5.835V281.26A5.834,5.834,0,0,0,291.425,275.426Zm0,0" transform="translate(-179.874 -186.044)" fill="#fed947"/>
    <path id="Trazado_140272" data-name="Trazado 140272" d="M420.819,336.563h-19.3a5.834,5.834,0,0,0-5.834,5.835v42.835a5.834,5.834,0,0,0,5.834,5.835h19.3a5.835,5.835,0,0,0,5.835-5.835V342.4A5.835,5.835,0,0,0,420.819,336.563Zm0,0" transform="translate(-267.277 -227.34)" fill="#fff5a2"/>
    <path id="Trazado_140274" data-name="Trazado 140274" d="M188.475,63.6l-11.727-27.91a3.02,3.02,0,0,0-3.954-1.615l-7.344,3.086a3.02,3.02,0,0,0-1.614,3.954L169,53.414,57.426,7.73a3.261,3.261,0,0,0-4.254,1.782l-2.836,6.924A3.261,3.261,0,0,0,52.12,20.69l111.621,45.7L151.4,71.579a3.019,3.019,0,0,0-1.614,3.954l3.086,7.345a3.018,3.018,0,0,0,3.953,1.614l27.912-11.726a7,7,0,0,0,3.743-9.169Zm0,0" transform="translate(-33.836 -5.056)" fill="#d64626"/>
    <path id="Trazado_140275" data-name="Trazado 140275" d="M8.269,264.525h19.3a8.279,8.279,0,0,0,8.269-8.269V186.3a2.435,2.435,0,0,0-4.869,0v69.96a3.4,3.4,0,0,1-3.4,3.4H8.269a3.406,3.406,0,0,1-3.4-3.4V153.9a3.4,3.4,0,0,1,3.4-3.4h19.3a3.4,3.4,0,0,1,3.4,3.4v22.661a2.435,2.435,0,1,0,4.869,0V153.9a8.28,8.28,0,0,0-8.269-8.269H8.269A8.279,8.279,0,0,0,0,153.9V256.256A8.278,8.278,0,0,0,8.269,264.525Zm0,0" transform="translate(0 -98.369)"/>
    <path id="Trazado_140276" data-name="Trazado 140276" d="M137.664,206.77a8.278,8.278,0,0,0-8.269,8.269v82.517a8.278,8.278,0,0,0,8.269,8.269h19.3a8.279,8.279,0,0,0,8.269-8.269V215.039a8.279,8.279,0,0,0-8.269-8.269Zm22.7,8.269v82.517a3.4,3.4,0,0,1-3.4,3.4h-19.3a3.4,3.4,0,0,1-3.4-3.4V215.039a3.406,3.406,0,0,1,3.4-3.4h19.3A3.4,3.4,0,0,1,160.361,215.039Zm0,0" transform="translate(-87.403 -139.668)"/>
    <path id="Trazado_140277" data-name="Trazado 140277" d="M292.191,319.035a2.434,2.434,0,0,0,2.434-2.434V276.178a8.278,8.278,0,0,0-8.269-8.268h-19.3a8.278,8.278,0,0,0-8.269,8.268v62.676a8.278,8.278,0,0,0,8.269,8.269h19.3a8.278,8.278,0,0,0,8.269-8.269V326.339a2.434,2.434,0,1,0-4.868,0v12.516a3.4,3.4,0,0,1-3.4,3.4h-19.3a3.4,3.4,0,0,1-3.4-3.4V276.178a3.4,3.4,0,0,1,3.4-3.4h19.3a3.4,3.4,0,0,1,3.4,3.4V316.6A2.433,2.433,0,0,0,292.191,319.035Zm0,0" transform="translate(-174.806 -180.967)"/>
    <path id="Trazado_140278" data-name="Trazado 140278" d="M415.75,329.047h-19.3a8.278,8.278,0,0,0-8.269,8.269v42.835a8.278,8.278,0,0,0,8.269,8.269h19.3a8.278,8.278,0,0,0,8.269-8.269V337.316A8.278,8.278,0,0,0,415.75,329.047Zm3.4,51.1a3.4,3.4,0,0,1-3.4,3.4h-19.3a3.4,3.4,0,0,1-3.4-3.4V337.316a3.4,3.4,0,0,1,3.4-3.4h19.3a3.406,3.406,0,0,1,3.4,3.4Zm0,0" transform="translate(-262.209 -222.263)"/>
    <path id="Trazado_140279" data-name="Trazado 140279" d="M51.147,0a5.75,5.75,0,0,0-5.272,3.529l-2.836,6.924a5.749,5.749,0,0,0,3.113,7.429L152.343,61.36l-6.935,2.913a5.508,5.508,0,0,0-2.916,7.141s3.083,7.336,3.086,7.344a5.521,5.521,0,0,0,7.141,2.916l27.91-11.726a9.525,9.525,0,0,0,5.045-12.355L173.948,29.681a5.515,5.515,0,0,0-7.141-2.914l-7.345,3.086a5.46,5.46,0,0,0-2.914,7.14l2.889,6.878L53.305.416A5.586,5.586,0,0,0,51.147,0ZM163.039,50.605a2.454,2.454,0,0,0,3.165-3.2l-5.168-12.3a.586.586,0,0,1,.313-.767l7.344-3.086a.563.563,0,0,1,.226-.047.586.586,0,0,1,.54.36s11.722,27.9,11.727,27.91a4.619,4.619,0,0,1-2.443,5.982l-27.91,11.726a.588.588,0,0,1-.767-.313s-3.085-7.345-3.087-7.345a.59.59,0,0,1,.313-.766l12.346-5.187a2.456,2.456,0,0,0-.02-4.5L48,13.377a.833.833,0,0,1-.453-1.08l2.836-6.924a.832.832,0,0,1,1.079-.453Zm0,0" transform="translate(-28.792 0)"/>
  </g>
</svg>
