<svg xmlns="http://www.w3.org/2000/svg" width="93" height="83.681" viewBox="0 0 93 83.681">
  <g id="barra-grafica" transform="translate(0 -24.055)">
    <path id="Trazado_140013" data-name="Trazado 140013" d="M91.53,139.979H1.648a1.55,1.55,0,1,1,0-3.1H89.98V65.594a1.55,1.55,0,1,1,3.1,0v72.835A1.55,1.55,0,0,1,91.53,139.979Z" transform="translate(-0.079 -32.243)" fill="#5a6470"/>
    <path id="Trazado_140014" data-name="Trazado 140014" d="M48.1,240.044h18.6v34.093H48.1Z" transform="translate(-38.781 -174.15)" fill="#fed947"/>
    <path id="Trazado_140015" data-name="Trazado 140015" d="M192.1,144.044h18.6v52.689H192.1Z" transform="translate(-154.887 -96.746)" fill="#d64626"/>
    <path id="Trazado_140016" data-name="Trazado 140016" d="M336.1,64.044h18.6V132.23H336.1Z" transform="translate(-270.992 -32.243)" fill="#2a94ee"/>
    <path id="Trazado_140017" data-name="Trazado 140017" d="M32.562,33.594l5.1,5.1L24.814,51.548,21.26,47.995a1.55,1.55,0,0,0-2.191,0l-18.6,18.6a1.55,1.55,0,1,0,2.153,2.229l.038-.038,17.5-17.5,3.553,3.553a1.55,1.55,0,0,0,2.191,0L39.857,40.888l5.1,5.1,1.55-13.947Z" transform="translate(0 -6.441)" fill="#2a94ee"/>
    <g id="Grupo_82029" data-name="Grupo 82029" transform="translate(13.966 51.947)">
      <path id="Trazado_140018" data-name="Trazado 140018" d="M73.648,366.243a1.55,1.55,0,0,1-1.55-1.55v-3.1a1.55,1.55,0,0,1,3.1,0v3.1A1.55,1.55,0,0,1,73.648,366.243Z" transform="translate(-72.098 -322.851)" fill="#fff"/>
      <path id="Trazado_140019" data-name="Trazado 140019" d="M73.648,305.342a1.55,1.55,0,0,1-1.55-1.55v-6.2a1.55,1.55,0,0,1,3.1,0v6.2A1.55,1.55,0,0,1,73.648,305.342Z" transform="translate(-72.098 -271.249)" fill="#fff"/>
      <path id="Trazado_140020" data-name="Trazado 140020" d="M217.648,366.243a1.55,1.55,0,0,1-1.55-1.55v-3.1a1.55,1.55,0,0,1,3.1,0v3.1A1.55,1.55,0,0,1,217.648,366.243Z" transform="translate(-188.204 -322.851)" fill="#fff"/>
      <path id="Trazado_140021" data-name="Trazado 140021" d="M217.648,266.64a1.55,1.55,0,0,1-1.55-1.55v-15.5a1.55,1.55,0,1,1,3.1,0v15.5A1.55,1.55,0,0,1,217.648,266.64Z" transform="translate(-188.204 -232.547)" fill="#fff"/>
      <path id="Trazado_140022" data-name="Trazado 140022" d="M361.648,366.243a1.55,1.55,0,0,1-1.55-1.55v-3.1a1.55,1.55,0,0,1,3.1,0v3.1A1.55,1.55,0,0,1,361.648,366.243Z" transform="translate(-304.309 -322.851)" fill="#fff"/>
      <path id="Trazado_140023" data-name="Trazado 140023" d="M361.648,202.137a1.55,1.55,0,0,1-1.55-1.55V169.594a1.55,1.55,0,0,1,3.1,0v30.994A1.55,1.55,0,0,1,361.648,202.137Z" transform="translate(-304.309 -168.044)" fill="#fff"/>
    </g>
    <path id="Trazado_140024" data-name="Trazado 140024" d="M91.53,64.044a1.55,1.55,0,0,0-1.55,1.55v71.286H1.648a1.55,1.55,0,1,0,0,3.1H91.53a1.55,1.55,0,0,0,1.55-1.55V65.594A1.55,1.55,0,0,0,91.53,64.044Z" transform="translate(-0.079 -32.243)"/>
    <path id="Trazado_140025" data-name="Trazado 140025" d="M41.648,232.044a1.55,1.55,0,0,0-1.55,1.55v34.093a1.55,1.55,0,0,0,1.55,1.55h18.6a1.55,1.55,0,0,0,1.55-1.55V233.594a1.55,1.55,0,0,0-1.55-1.55Zm17.047,34.093H43.2V235.143h15.5Z" transform="translate(-32.331 -167.699)"/>
    <path id="Trazado_140026" data-name="Trazado 140026" d="M185.648,136.044a1.55,1.55,0,0,0-1.55,1.55v52.689a1.55,1.55,0,0,0,1.55,1.55h18.6a1.55,1.55,0,0,0,1.55-1.55V137.594a1.55,1.55,0,0,0-1.55-1.55Zm17.047,52.689H187.2v-49.59h15.5Z" transform="translate(-148.436 -90.296)"/>
    <path id="Trazado_140027" data-name="Trazado 140027" d="M329.648,127.33h18.6a1.55,1.55,0,0,0,1.55-1.55V57.594a1.55,1.55,0,0,0-1.55-1.55h-18.6a1.55,1.55,0,0,0-1.55,1.55V125.78A1.55,1.55,0,0,0,329.648,127.33Zm1.55-68.186h15.5V124.23H331.2Z" transform="translate(-264.542 -25.792)"/>
    <path id="Trazado_140028" data-name="Trazado 140028" d="M.553,62.341a1.55,1.55,0,0,0,2.191,0l17.5-17.5L23.8,48.394a1.55,1.55,0,0,0,2.191,0L38.842,35.542l5.1,5.1a1.55,1.55,0,0,0,2.634-.93l1.55-13.947a1.55,1.55,0,0,0-1.7-1.7l-13.947,1.55a1.55,1.55,0,0,0-.93,2.634l5.1,5.1L24.894,45.107l-3.553-3.553a1.55,1.55,0,0,0-2.191,0L.553,60.15a1.55,1.55,0,0,0,0,2.191ZM44.836,27.357l-.979,8.816L36.02,28.336Z" transform="translate(-0.081 0)"/>
    <path id="Trazado_140029" data-name="Trazado 140029" d="M73.648,366.243a1.55,1.55,0,0,0,1.55-1.55v-3.1a1.55,1.55,0,0,0-3.1,0v3.1A1.55,1.55,0,0,0,73.648,366.243Z" transform="translate(-58.132 -270.904)"/>
    <path id="Trazado_140030" data-name="Trazado 140030" d="M73.648,305.342a1.55,1.55,0,0,0,1.55-1.55v-6.2a1.55,1.55,0,0,0-3.1,0v6.2A1.55,1.55,0,0,0,73.648,305.342Z" transform="translate(-58.132 -219.302)"/>
    <path id="Trazado_140031" data-name="Trazado 140031" d="M217.648,366.243a1.55,1.55,0,0,0,1.55-1.55v-3.1a1.55,1.55,0,0,0-3.1,0v3.1A1.55,1.55,0,0,0,217.648,366.243Z" transform="translate(-174.238 -270.904)"/>
    <path id="Trazado_140032" data-name="Trazado 140032" d="M217.648,266.64a1.55,1.55,0,0,0,1.55-1.55v-15.5a1.55,1.55,0,1,0-3.1,0v15.5A1.55,1.55,0,0,0,217.648,266.64Z" transform="translate(-174.238 -180.6)"/>
    <path id="Trazado_140033" data-name="Trazado 140033" d="M361.648,360.044a1.55,1.55,0,0,0-1.55,1.55v3.1a1.55,1.55,0,1,0,3.1,0v-3.1A1.55,1.55,0,0,0,361.648,360.044Z" transform="translate(-290.343 -270.904)"/>
    <path id="Trazado_140034" data-name="Trazado 140034" d="M361.648,168.044a1.55,1.55,0,0,0-1.55,1.55v30.994a1.55,1.55,0,1,0,3.1,0V169.594A1.549,1.549,0,0,0,361.648,168.044Z" transform="translate(-290.343 -116.097)"/>
  </g>
</svg>
