<svg xmlns="http://www.w3.org/2000/svg" width="140.055" height="140.055" viewBox="0 0 140.055 140.055">
  <g id="benchmark" transform="translate(-1 -1)">
    <path id="Trazado_140381" data-name="Trazado 140381" d="M13.295,59.179v9.036H11.036A9.033,9.033,0,0,1,2,59.179V36.589A22.6,22.6,0,0,1,24.589,14h4.518a22.38,22.38,0,0,1,9.668,2.169,38.4,38.4,0,0,0-1.581,43.01h-23.9Z" transform="translate(1.259 16.366)" fill="#fff5a2"/>
    <path id="Trazado_140382" data-name="Trazado 140382" d="M71.2,59.179H48.611l-1.039-.429A38.415,38.415,0,0,0,45.72,16.169,22.38,22.38,0,0,1,55.388,14h4.518A22.6,22.6,0,0,1,82.5,36.589V59.179a9.033,9.033,0,0,1-9.036,9.036H71.2Z" transform="translate(56.3 16.366)" fill="#2a94ee"/>
    <circle id="Elipse_4586" data-name="Elipse 4586" cx="13.537" cy="13.537" r="13.537" transform="translate(15.038 3.679)" fill="#f0d0b4"/>
    <circle id="Elipse_4587" data-name="Elipse 4587" cx="13.537" cy="13.537" r="13.537" transform="translate(100.271 3.679)" fill="#f0d0b4"/>
    <g id="Grupo_82131" data-name="Grupo 82131" transform="translate(14.554 75.116)">
      <path id="Trazado_140383" data-name="Trazado 140383" d="M26.689,38.563l-.136.113v51.8a6.777,6.777,0,0,1-13.554,0V34H23.346A36.959,36.959,0,0,0,26.689,38.563Z" transform="translate(0.554 -33.571)" fill="#838f9b"/>
      <path id="Trazado_140384" data-name="Trazado 140384" d="M20.554,34V90.474A6.777,6.777,0,0,1,7,90.474V34Z" transform="translate(-7 -33.571)" fill="#838f9b"/>
      <path id="Trazado_140385" data-name="Trazado 140385" d="M58.554,34.239V90.713a6.777,6.777,0,0,1-13.554,0V38.644a36.958,36.958,0,0,0,3.479-4.834l1.039.429Z" transform="translate(40.84 -33.81)" fill="#838f9b"/>
      <path id="Trazado_140386" data-name="Trazado 140386" d="M64.554,43.036V90.474a6.777,6.777,0,0,1-13.554,0V34H64.554Z" transform="translate(48.394 -33.571)" fill="#838f9b"/>
    </g>
    <path id="Trazado_140387" data-name="Trazado 140387" d="M82.768,71.138a38.237,38.237,0,0,1-24.848,13.4,37.786,37.786,0,0,1-9.036,0A38.289,38.289,0,0,1,24.171,71.3a36.959,36.959,0,0,1-3.343-4.563,38.4,38.4,0,0,1,63.567-43.01A38.415,38.415,0,0,1,86.247,66.3a36.957,36.957,0,0,1-3.479,4.834Z" transform="translate(17.625 8.813)" fill="#e6e9ed"/>
    <path id="Trazado_140395" data-name="Trazado 140395" d="M29.079,0A29.333,29.333,0,0,1,58.159,29.581,29.333,29.333,0,0,1,29.079,59.162,29.333,29.333,0,0,1,0,29.581,29.333,29.333,0,0,1,29.079,0Z" transform="translate(42.112 25.74)" fill="#dff7f9"/>
    <path id="Trazado_140388" data-name="Trazado 140388" d="M46.072,46V73.107a9.036,9.036,0,1,1-18.072,0V46H46.072Z" transform="translate(33.992 56.653)" fill="#fed947"/>
    <path id="Trazado_140389" data-name="Trazado 140389" d="M39.036,41.88v9.307H30V41.88a37.786,37.786,0,0,0,9.036,0Z" transform="translate(36.509 51.466)" fill="#aab2bd"/>
    <path id="Trazado_140390" data-name="Trazado 140390" d="M123.67,29.257a15.814,15.814,0,1,0-19.427.011c-.513.16-1.017.346-1.518.54a40.557,40.557,0,0,0-63.4,0c-.5-.194-1.007-.38-1.518-.54a15.812,15.812,0,1,0-19.427-.014A24.889,24.889,0,0,0,1,52.956V75.545A11.308,11.308,0,0,0,12.295,86.84v45.179a9,9,0,0,0,15.813,5.914,9,9,0,0,0,15.813-5.914V85.435a40.506,40.506,0,0,0,20.331,9.829v5.13H59.733V129.76a11.295,11.295,0,0,0,22.589,0V100.394H77.8v-5.13a40.506,40.506,0,0,0,20.331-9.829v46.584a9,9,0,0,0,15.813,5.914,9,9,0,0,0,15.813-5.914V86.84a11.308,11.308,0,0,0,11.295-11.295V52.956A24.889,24.889,0,0,0,123.67,29.257ZM102.653,16.813a11.295,11.295,0,1,1,11.295,11.295A11.308,11.308,0,0,1,102.653,16.813Zm-85.84,0A11.295,11.295,0,1,1,28.107,28.107,11.308,11.308,0,0,1,16.813,16.813ZM5.518,75.545V52.956A20.354,20.354,0,0,1,25.848,32.625h4.518a20.147,20.147,0,0,1,6.266,1,40.272,40.272,0,0,0-1.977,39.66H16.813V48.438H12.295V82.322A6.785,6.785,0,0,1,5.518,75.545Zm15.813,60.992a4.522,4.522,0,0,1-4.518-4.518V77.8h9.036v54.215A4.522,4.522,0,0,1,21.331,136.537Zm13.554,0a4.522,4.522,0,0,1-4.518-4.518V77.8h6.876c.675,1.005,1.4,1.972,2.16,2.912v51.3A4.522,4.522,0,0,1,34.884,136.537ZM77.8,129.76a6.777,6.777,0,1,1-13.554,0V104.912H77.8Zm-4.518-29.366H68.768V95.761c.752.043,1.5.115,2.259.115s1.507-.072,2.259-.115Zm-2.259-9.036a36.143,36.143,0,1,1,36.143-36.143A36.185,36.185,0,0,1,71.027,91.358Zm36.143,45.179a4.522,4.522,0,0,1-4.518-4.518v-51.3q1.2-1.484,2.259-3.074V77.8h6.777v54.215A4.522,4.522,0,0,1,107.171,136.537Zm13.554,0a4.522,4.522,0,0,1-4.518-4.518V77.8h9.036v54.215A4.522,4.522,0,0,1,120.724,136.537Zm15.813-60.992a6.785,6.785,0,0,1-6.777,6.777V48.438h-4.518V73.286H107.4a40.265,40.265,0,0,0-1.979-39.66,20.172,20.172,0,0,1,6.269-1h4.518a20.354,20.354,0,0,1,20.331,20.331Z" transform="translate(0 0)"/>
    <path id="Trazado_140391" data-name="Trazado 140391" d="M28.442,22.193,24.564,19.88a22.6,22.6,0,0,0-2.074,4.559l4.292,1.4a18.072,18.072,0,0,1,1.66-3.648Z" transform="translate(27.055 23.769)"/>
    <path id="Trazado_140392" data-name="Trazado 140392" d="M31.089,20.439l-2.51-3.754a22.456,22.456,0,0,0-3.829,3.23l3.275,3.106A18.012,18.012,0,0,1,31.089,20.439Z" transform="translate(29.9 19.747)"/>
    <path id="Trazado_140393" data-name="Trazado 140393" d="M49.625,11A31.625,31.625,0,1,0,81.251,42.625,31.66,31.66,0,0,0,49.625,11Zm0,58.733A27.107,27.107,0,1,1,76.733,42.625,27.138,27.138,0,0,1,49.625,69.733Z" transform="translate(21.402 12.589)"/>
    <path id="Trazado_140394" data-name="Trazado 140394" d="M59.143,42.589V20H54.625V42.589H50.107V33.554H45.589v9.036H41.072V24.518H36.554V42.589H32.036V29.036H27.518V42.589H23v4.518H63.661V42.589Z" transform="translate(27.697 23.92)"/>
  </g>
</svg>
