<svg xmlns="http://www.w3.org/2000/svg" width="107.9" height="107.9" viewBox="0 0 107.9 107.9">
  <g id="big-data" transform="translate(-16 -16)">
    <path id="Trazado_141975" data-name="Trazado 141975" d="M240,384h17.983v16.185H240Z" transform="translate(-173.646 -285.276)" fill="#cad8ed"/>
    <path id="Trazado_141976" data-name="Trazado 141976" d="M187.53,192v39.563a3.6,3.6,0,0,1-3.6,3.6H115.6a3.6,3.6,0,0,1-3.6-3.6V192Z" transform="translate(-74.42 -136.437)" fill="#2a94ee"/>
    <path id="Trazado_141977" data-name="Trazado 141977" d="M112,154.79V147.6a3.6,3.6,0,0,1,3.6-3.6h68.337a3.6,3.6,0,0,1,3.6,3.6v7.193Z" transform="translate(-74.42 -99.227)" fill="#20287a"/>
    <path id="Trazado_141978" data-name="Trazado 141978" d="M348.351,40.185a3.267,3.267,0,0,1-2.31-5.576l2.271-2.271-5.086-5.086-2.271,2.271a3.267,3.267,0,0,1-5.576-2.31V24h-7.193v3.212a3.267,3.267,0,0,1-5.576,2.31l-2.271-2.271-5.086,5.086,2.271,2.271a3.267,3.267,0,0,1-2.31,5.576H312v7.193h3.212a3.267,3.267,0,0,1,3.018,2.016h0a3.267,3.267,0,0,1-.708,3.56l-2.271,2.271,5.086,5.086,2.271-2.271a3.267,3.267,0,0,1,5.576,2.31v3.212h7.193V60.351a3.267,3.267,0,0,1,5.576-2.31l2.271,2.271,5.086-5.086-2.271-2.271a3.267,3.267,0,0,1-.708-3.56h0a3.267,3.267,0,0,1,3.018-2.016h3.212V40.185Zm-16.569,8.992a5.4,5.4,0,1,1,5.4-5.4A5.4,5.4,0,0,1,331.782,49.177Z" transform="translate(-229.461 -6.202)" fill="#dff7f9"/>
    <path id="Trazado_141979" data-name="Trazado 141979" d="M24,344H56.37v32.37H24Z" transform="translate(-6.202 -254.268)" fill="#afafaf"/>
    <path id="Trazado_141980" data-name="Trazado 141980" d="M200,456h35.967v7.193H200Z" transform="translate(-142.638 -341.091)" fill="#e4e9f2"/>
    <path id="Trazado_141981" data-name="Trazado 141981" d="M280,272h8.992v17.983H280Z" transform="translate(-204.655 -198.453)" fill="#97181a"/>
    <path id="Trazado_141982" data-name="Trazado 141982" d="M240,288h8.992v14.387H240Z" transform="translate(-173.646 -210.856)" fill="#b52426"/>
    <path id="Trazado_141983" data-name="Trazado 141983" d="M200,304h8.992v10.79H200Z" transform="translate(-142.638 -223.26)" fill="#d64626"/>
    <path id="Trazado_141984" data-name="Trazado 141984" d="M320,256h8.992v21.58H320Z" transform="translate(-235.663 -186.05)" fill="#d64626"/>
    <path id="Trazado_141985" data-name="Trazado 141985" d="M360,240h8.992v25.177H360Z" transform="translate(-266.671 -173.646)" fill="#97181a"/>
    <path id="Trazado_141986" data-name="Trazado 141986" d="M345.362,32.185H342.15a1.468,1.468,0,0,1-1.038-2.507l2.271-2.272a1.8,1.8,0,0,0,0-2.543L338.3,19.777a1.8,1.8,0,0,0-2.543,0l-2.272,2.272a1.468,1.468,0,0,1-2.506-1.038V17.8a1.8,1.8,0,0,0-1.8-1.8h-7.193a1.8,1.8,0,0,0-1.8,1.8v3.212a1.468,1.468,0,0,1-2.507,1.038l-2.272-2.271a1.8,1.8,0,0,0-2.543,0l-5.086,5.086a1.8,1.8,0,0,0,0,2.543l2.271,2.272h0a1.468,1.468,0,0,1-1.038,2.506H305.8a1.8,1.8,0,0,0-1.8,1.8v7.193a1.8,1.8,0,0,0,1.8,1.8h3.212a1.468,1.468,0,0,1,1.038,2.507l-2.271,2.272a1.8,1.8,0,0,0,0,2.543l5.086,5.086a1.8,1.8,0,0,0,2.543,0l2.272-2.272a1.468,1.468,0,0,1,2.506,1.038v3.212a1.8,1.8,0,0,0,1.8,1.8h7.193a1.8,1.8,0,0,0,1.8-1.8V54.15a1.468,1.468,0,0,1,2.507-1.038l2.272,2.271a1.8,1.8,0,0,0,2.543,0l5.086-5.086a1.8,1.8,0,0,0,0-2.543l-2.272-2.272a1.468,1.468,0,0,1,1.038-2.506h3.212a1.8,1.8,0,0,0,1.8-1.8V33.983a1.8,1.8,0,0,0-1.8-1.8Zm-1.8,7.193H342.15a5.065,5.065,0,0,0-3.582,8.646l1,1-2.543,2.543-1-1a5.065,5.065,0,0,0-8.646,3.581v1.414h-3.6V54.15a5.065,5.065,0,0,0-8.646-3.582l-1,1-2.543-2.543,1-1a5.065,5.065,0,0,0-3.581-8.646H307.6v-3.6h1.414a5.065,5.065,0,0,0,3.581-8.646l-1-1,2.543-2.543,1,1a5.065,5.065,0,0,0,8.646-3.581V19.6h3.6v1.414a5.065,5.065,0,0,0,8.646,3.582l1-1,2.543,2.543-1,1a5.065,5.065,0,0,0,3.581,8.646h1.414Z" transform="translate(-223.26 0)"/>
    <path id="Trazado_141987" data-name="Trazado 141987" d="M375.193,80a7.193,7.193,0,1,0,7.193,7.193A7.193,7.193,0,0,0,375.193,80Zm0,10.79a3.6,3.6,0,1,1,3.6-3.6,3.6,3.6,0,0,1-3.6,3.6Z" transform="translate(-272.873 -49.613)"/>
    <path id="Trazado_141988" data-name="Trazado 141988" d="M245.95,249.362a5.4,5.4,0,0,0,5.4-5.4V208h-3.6v35.967a1.8,1.8,0,0,1-1.8,1.8H192v3.6h8.992V261.95H193.8a1.8,1.8,0,0,0-1.8,1.8v7.193a1.8,1.8,0,0,0,1.8,1.8h35.967a1.8,1.8,0,0,0,1.8-1.8v-7.193a1.8,1.8,0,0,0-1.8-1.8h-7.193V249.362Zm-17.983,19.782H195.6v-3.6h32.37Zm-8.992-7.193H204.588V249.362h5.4v5.4a1.8,1.8,0,1,0,3.6,0v-5.4h5.4Z" transform="translate(-136.437 -148.84)"/>
    <path id="Trazado_141989" data-name="Trazado 141989" d="M147.16,136H109.4a5.4,5.4,0,0,0-5.4,5.4v35.967h3.6V150.387h44.958v-3.6H107.6v-5.4a1.8,1.8,0,0,1,1.8-1.8H147.16Z" transform="translate(-68.218 -93.025)"/>
    <path id="Trazado_141990" data-name="Trazado 141990" d="M17.8,371.967h32.37a1.8,1.8,0,0,0,1.8-1.8V337.8a1.8,1.8,0,0,0-1.8-1.8H17.8a1.8,1.8,0,0,0-1.8,1.8v32.37a1.8,1.8,0,0,0,1.8,1.8Zm1.8-3.6v-7.193H48.37v7.193Zm0-10.79v-7.193H48.37v7.193ZM48.37,339.6v7.193H19.6V339.6Z" transform="translate(0 -248.066)"/>
    <circle id="Elipse_4795" data-name="Elipse 4795" cx="1.815" cy="1.815" r="1.815" transform="translate(21.211 93.283)"/>
    <circle id="Elipse_4796" data-name="Elipse 4796" cx="1.815" cy="1.815" r="1.815" transform="translate(21.211 104.171)"/>
    <circle id="Elipse_4797" data-name="Elipse 4797" cx="1.815" cy="1.815" r="1.815" transform="translate(21.211 115.06)"/>
    <path id="Trazado_141991" data-name="Trazado 141991" d="M112,360h3.6v3.6H112Z" transform="translate(-74.42 -266.671)"/>
    <path id="Trazado_141992" data-name="Trazado 141992" d="M136,360h3.6v3.6H136Z" transform="translate(-93.025 -266.671)"/>
    <path id="Trazado_141993" data-name="Trazado 141993" d="M112,408h3.6v3.6H112Z" transform="translate(-74.42 -303.881)"/>
    <path id="Trazado_141994" data-name="Trazado 141994" d="M136,408h3.6v3.6H136Z" transform="translate(-93.025 -303.881)"/>
    <path id="Trazado_141995" data-name="Trazado 141995" d="M112,456h3.6v3.6H112Z" transform="translate(-74.42 -341.091)"/>
    <path id="Trazado_141996" data-name="Trazado 141996" d="M136,456h3.6v3.6H136Z" transform="translate(-93.025 -341.091)"/>
    <path id="Trazado_141997" data-name="Trazado 141997" d="M238.757,232h-8.992a1.8,1.8,0,0,0-1.8,1.8v1.8h-7.193a1.8,1.8,0,0,0-1.8,1.8v1.8h-7.193a1.8,1.8,0,0,0-1.8,1.8v1.8H202.79a1.8,1.8,0,0,0-1.8,1.8v1.8H193.8a1.8,1.8,0,0,0-1.8,1.8v12.588h52.152v-3.6h-3.6V233.8a1.8,1.8,0,0,0-1.8-1.8ZM195.6,249.983h5.4v7.193h-5.4Zm8.992-3.6h5.4v10.79h-5.4Zm8.992-3.6h5.4v14.387h-5.4Zm8.992-3.6h5.4v17.983h-5.4Zm8.992,17.983V235.6h5.4v21.58Z" transform="translate(-136.437 -167.445)"/>
    <ellipse id="Elipse_4798" data-name="Elipse 4798" cx="1.556" cy="1.815" rx="1.556" ry="1.815" transform="translate(41.432 48.173)"/>
    <circle id="Elipse_4799" data-name="Elipse 4799" cx="1.815" cy="1.815" r="1.815" transform="translate(46.618 48.173)"/>
    <circle id="Elipse_4800" data-name="Elipse 4800" cx="1.815" cy="1.815" r="1.815" transform="translate(51.803 48.173)"/>
  </g>
</svg>
