<svg xmlns="http://www.w3.org/2000/svg" width="190" height="148.406" viewBox="0 0 190 148.406">
  <g id="carne" transform="translate(0 -56.043)">
    <g id="Grupo_82059" data-name="Grupo 82059" transform="translate(3.711 59.754)">
      <path id="Trazado_140109" data-name="Trazado 140109" d="M192.554,234.517q.023.645.023,1.3h0a40.885,40.885,0,0,1-40.765,40.765c-37.071,0-53.263,20.9-84.293,20.9A57.526,57.526,0,0,1,10,240.045h0V217.524h.11a57.357,57.357,0,0,0,2.3,13.009v.014c.032.106.065.21.1.315.051.167.1.335.156.5.082.26.167.519.253.778.051.154.1.308.154.462.108.319.221.636.335.951.033.091.064.183.1.272q.218.593.449,1.182c.054.138.11.275.166.412.106.263.212.525.321.787.066.158.134.315.2.472q.156.363.316.723.106.237.213.474c.117.255.236.509.356.762.063.134.125.268.19.4.182.376.366.749.556,1.119.05.1.1.2.154.294q.219.423.444.841c.077.143.156.285.235.427q.193.351.39.7.127.223.256.446c.134.23.27.459.407.688.083.139.167.279.251.417q.259.425.527.844c.049.078.1.156.146.233q.338.527.689,1.046c.079.117.16.233.239.349q.242.355.488.7.141.2.285.4.235.327.474.65c.1.132.194.262.293.393.175.233.353.462.531.692.082.106.163.212.245.316q.387.493.786.976c.062.075.124.148.186.222q.315.377.634.75c.1.118.205.235.308.352q.269.308.543.612l.329.362q.279.3.564.605c.1.111.207.221.312.331q.347.362.7.718l.188.191q.445.445.9.879l.28.264q.323.3.65.605c.118.108.238.215.357.322q.3.271.605.537.182.16.365.317c.22.19.443.377.666.563.1.086.2.173.307.257q.488.4.984.792l.153.117q.426.333.857.658c.118.088.237.176.356.263q.338.25.68.5.194.14.389.277c.23.162.461.321.692.48.123.084.246.169.369.252.278.187.558.37.839.552l.229.15q.534.341,1.076.671c.105.065.212.127.318.191q.391.235.786.465c.134.078.269.154.4.23.243.138.487.274.731.409.138.076.276.152.416.227.261.141.522.278.785.415.118.061.235.123.354.183.381.194.763.386,1.149.571l.1.049q.525.252,1.058.494c.131.059.263.117.395.176.265.118.53.235.8.348l.437.185q.4.165.795.325l.417.167c.314.122.63.241.946.36l.267.1q.608.223,1.223.431l.312.1c.309.1.62.2.931.3.144.046.289.089.433.133.276.085.553.167.831.247l.458.131q.436.122.875.236c.133.036.265.071.4.105q.636.163,1.276.312l.037.009q.62.143,1.245.271l.424.084q.441.088.885.17l.478.085q.435.076.872.145c.151.024.3.048.453.07q.508.076,1.018.143c.1.014.206.029.31.042.442.056.885.107,1.33.152l.321.03q.511.05,1.025.091l.462.033c.3.022.606.04.91.058.16.009.32.017.48.025.316.015.633.026.95.036.141,0,.282.01.424.013.455.011.911.017,1.369.017q.727,0,1.444-.015t1.423-.045q.706-.029,1.4-.073t1.383-.1q.687-.057,1.365-.128t1.347-.154q.669-.082,1.33-.178t1.314-.2h0q.653-.107,1.3-.226t1.285-.248q.639-.129,1.271-.269t1.259-.288q.626-.149,1.247-.308t1.236-.326q.615-.168,1.225-.344t1.216-.36q.606-.184,1.207-.375t1.2-.389h0q.6-.2,1.192-.4t1.186-.415q.592-.211,1.181-.427t1.176-.437q.587-.221,1.173-.446t1.169-.455q.584-.229,1.167-.463h0q.583-.233,1.166-.47t1.166-.475q.583-.238,1.166-.48t1.167-.484l1.169-.486,1.172-.489,1.175-.489,1.18-.49h0q.591-.244,1.185-.488h0l1.191-.487h0l1.2-.484h0l1.206-.48h0q.605-.239,1.215-.475h0q.61-.236,1.223-.47t1.234-.462h0q.62-.229,1.245-.455h0q.626-.225,1.257-.446h0q.631-.22,1.269-.437h0q.638-.217,1.282-.426h0q.645-.211,1.3-.415h0q.652-.2,1.312-.4t1.328-.389h0q.668-.19,1.344-.375h0q.676-.184,1.362-.36h0q.685-.176,1.38-.344h0q.7-.168,1.4-.326h0q.7-.159,1.419-.307h0q.715-.149,1.44-.288h0q.725-.139,1.462-.268h0q.736-.128,1.484-.247h0q.748-.119,1.507-.226t1.531-.2h0q.772-.1,1.556-.179h0q.784-.083,1.582-.154h0q.8-.071,1.608-.128h0q.811-.057,1.636-.1h0q.825-.043,1.664-.073h0q.839-.029,1.693-.045h0q.854-.015,1.723-.015h.023c.3,0,.6,0,.9-.012l.229-.006c.3-.009.6-.019.9-.034l.135-.008q.405-.022.808-.052l.207-.015q.439-.035.877-.078l.213-.023q.375-.039.748-.086l.187-.023q.432-.057.861-.122l.229-.036q.391-.062.78-.131l.119-.02q.43-.078.855-.165l.229-.047q.424-.088.844-.185l.138-.033q.366-.086.729-.179l.247-.063q.4-.106.8-.218l.216-.063q.326-.095.651-.194l.243-.075q.386-.122.769-.251l.261-.09q.3-.1.6-.214l.235-.085c.246-.091.49-.185.734-.281l.294-.117q.3-.121.6-.246l.33-.141q.288-.124.574-.252l.3-.137q.344-.158.685-.321l.284-.139c.16-.078.318-.158.477-.238l.317-.162c.216-.112.43-.225.643-.341l.325-.179c.139-.077.276-.154.414-.233.109-.062.219-.123.328-.186q.3-.177.6-.358l.344-.211.382-.239q.267-.17.531-.341l.355-.234.375-.254c.107-.073.213-.147.32-.222q.3-.206.586-.417l.288-.21q.19-.14.379-.283l.252-.193q.325-.25.644-.505l.22-.178q.65-.527,1.277-1.081l.142-.126q.4-.357.793-.725l.058-.053c.141-.133.282-.268.421-.4l.081-.08q.394-.384.778-.778l.07-.071q.628-.648,1.228-1.323l.053-.06q.609-.688,1.187-1.4l.014-.018a40.529,40.529,0,0,0,9.038-25.518v24.644Z" transform="translate(-9.999 -156.499)" fill="#97181a"/>
      <path id="Trazado_140110" data-name="Trazado 140110" d="M67.52,66.043c34.016,0,125.058,5.97,125.058,53.374h0a40.885,40.885,0,0,1-40.765,40.765c-37.071,0-53.263,20.9-84.293,20.9a57.52,57.52,0,1,1,0-115.04Z" transform="translate(-10 -66.043)" fill="#f6f6f6"/>
      <path id="Trazado_140111" data-name="Trazado 140111" d="M92.676,106.043a42.676,42.676,0,1,0,0,85.352c8.287,0,15.563-1.956,23.251-4.869,8.557-3.243,16.76-7.1,25.467-10.039a109.317,109.317,0,0,1,35.576-5.992,26.035,26.035,0,0,0,25.921-25.921,18.044,18.044,0,0,0-1.917-8.322c-7.472-14.77-35.588-22.056-50.357-24.952A306.775,306.775,0,0,0,92.676,106.043Z" transform="translate(-35.155 -91.199)" fill="#ff8d8d"/>
      <path id="Trazado_140112" data-name="Trazado 140112" d="M148.981,172.521c8.319,0,15.1-6,15.1-13.351s-6.785-13.351-15.1-13.351-15.1,6-15.1,13.351S140.662,172.521,148.981,172.521Z" transform="translate(-87.907 -116.215)" fill="#fff"/>
    </g>
    <path id="Trazado_140113" data-name="Trazado 140113" d="M173.845,81.888c-8.664-6.9-20.893-12.558-36.346-16.8-29.721-8.162-63.237-9.043-76.268-9.043A61.3,61.3,0,0,0,0,117.274v25.943a61.3,61.3,0,0,0,61.231,61.231c15.568,0,27.261-4.877,39.639-10.04,12.8-5.34,26.038-10.861,44.654-10.861A44.527,44.527,0,0,0,190,139.072V113.128C190,100.942,184.565,90.431,173.845,81.888Zm8.733,57.184a37.1,37.1,0,0,1-37.054,37.054c-20.1,0-34.036,5.812-47.511,11.433-11.674,4.869-22.7,9.468-36.782,9.468A53.876,53.876,0,0,1,7.536,146.677,61.28,61.28,0,0,0,61.231,178.5c15.568,0,27.261-4.877,39.639-10.04,12.8-5.34,26.038-10.861,44.654-10.861,1.383,0,2.78-.065,4.153-.194a3.711,3.711,0,1,0-.692-7.389c-1.144.107-2.308.161-3.461.161-20.1,0-34.036,5.812-47.511,11.433-11.674,4.869-22.7,9.468-36.782,9.468a53.809,53.809,0,1,1,0-107.618c12.73,0,45.452.855,74.3,8.778,31.216,8.573,47.045,22.328,47.045,40.885a37.192,37.192,0,0,1-11.7,26.954,3.711,3.711,0,0,0,5.088,5.4,44.576,44.576,0,0,0,6.612-7.853v1.438Z"/>
    <path id="Trazado_140114" data-name="Trazado 140114" d="M434.89,297.635l-.088.043a3.721,3.721,0,1,0,.088-.043Z" transform="translate(-272.159 -151.716)"/>
    <path id="Trazado_140115" data-name="Trazado 140115" d="M229.293,106.2l.19.015q.151.012.3.012a3.711,3.711,0,0,0,.292-7.41l-.191-.016a3.711,3.711,0,0,0-.59,7.4Z" transform="translate(-142.055 -26.883)"/>
    <path id="Trazado_140116" data-name="Trazado 140116" d="M200.311,138.284a21.635,21.635,0,0,0-2.317-10c-3.681-7.275-11.871-13.562-24.343-18.686a158.79,158.79,0,0,0-28.61-8.233c-4.484-.879-9.183-1.664-13.966-2.333a3.711,3.711,0,1,0-1.028,7.35c4.65.65,9.214,1.413,13.566,2.266,25.49,5,42.9,13.377,47.759,22.986a14.384,14.384,0,0,1,1.518,6.647,22.235,22.235,0,0,1-22.21,22.21,113.445,113.445,0,0,0-36.761,6.187c-5.321,1.793-10.487,3.937-15.483,6.011-3.3,1.371-6.722,2.79-10.113,4.075-8.559,3.244-15.12,4.628-21.936,4.628a38.965,38.965,0,1,1,0-77.93c4.192,0,8.447.079,12.647.236q1.069.04,2.14.086a3.711,3.711,0,0,0,.327-7.415q-1.1-.048-2.192-.089c-4.292-.16-8.64-.241-12.923-.241a46.387,46.387,0,1,0,0,92.774c7.769,0,15.116-1.528,24.566-5.11,3.5-1.326,6.971-2.767,10.328-4.16,4.881-2.025,9.928-4.12,15.009-5.833a106.143,106.143,0,0,1,34.391-5.8A29.665,29.665,0,0,0,200.311,138.284Z" transform="translate(-25.155 -25.156)"/>
    <path id="Trazado_140117" data-name="Trazado 140117" d="M142.692,135.82c-10.374,0-18.815,7.654-18.815,17.062s8.441,17.062,18.815,17.062,18.815-7.654,18.815-17.062S153.066,135.82,142.692,135.82Zm0,26.7c-6.282,0-11.393-4.324-11.393-9.64s5.111-9.64,11.393-9.64,11.393,4.324,11.393,9.64S148.974,162.521,142.692,162.521Z" transform="translate(-77.907 -50.172)"/>
  </g>
</svg>
