<svg xmlns="http://www.w3.org/2000/svg" width="85" height="85" viewBox="0 0 85 85">
  <g id="concepto" transform="translate(0 173.592)">
    <path id="Trazado_139776" data-name="Trazado 139776" d="M57.808,10H13.32A3.32,3.32,0,0,0,10,13.32V88.359a3.32,3.32,0,0,0,3.32,3.32h57.1a3.32,3.32,0,0,0,3.32-3.32V25.938Z" transform="translate(-8.34 -181.932)" fill="#fff"/>
    <path id="Trazado_139777" data-name="Trazado 139777" d="M301.3,25.94h12.617L297.975,10V22.619A3.32,3.32,0,0,0,301.3,25.94Z" transform="translate(-248.507 -181.934)" fill="#e8e8e8"/>
    <g id="Grupo_81934" data-name="Grupo 81934" transform="translate(10.955 -136.747)">
      <rect id="Rectángulo_30964" data-name="Rectángulo 30964" width="18.555" height="15.938" transform="translate(0 0.001)" fill="#d64626"/>
      <path id="Trazado_139796" data-name="Trazado 139796" d="M0,0H18.555V15.938H0Z" transform="translate(26.601 23.907)" fill="#fed947"/>
    </g>
    <path id="Trazado_139795" data-name="Trazado 139795" d="M0,0H31.873V12.617H0Z" transform="translate(10.955 -165.289)" fill="#2a94ee"/>
    <path id="Trazado_139778" data-name="Trazado 139778" d="M438,115.879V66.3a2.3,2.3,0,0,1,2.3-2.3h6.018a2.3,2.3,0,0,1,2.3,2.3v49.575Z" transform="translate(-365.286 -226.967)" fill="#fed947"/>
    <path id="Trazado_139779" data-name="Trazado 139779" d="M448.625,71.705V66.3a2.3,2.3,0,0,0-2.3-2.3H440.3a2.3,2.3,0,0,0-2.3,2.3v5.4h10.625Z" transform="translate(-365.286 -226.967)" fill="#d64626"/>
    <path id="Trazado_139780" data-name="Trazado 139780" d="M443.312,388.366,438,376.495h10.625Z" transform="translate(-365.286 -487.582)" fill="#d8d8e4"/>
    <path id="Trazado_139781" data-name="Trazado 139781" d="M102.8,164H57.647a1.66,1.66,0,0,0,0,3.32H102.8a1.66,1.66,0,0,0,0-3.32Z" transform="translate(-46.692 -310.365)"/>
    <path id="Trazado_139782" data-name="Trazado 139782" d="M236.434,259.938H217.879a1.66,1.66,0,0,0,0,3.32h18.555a1.66,1.66,0,0,0,0-3.32Z" transform="translate(-180.323 -390.375)"/>
    <path id="Trazado_139783" data-name="Trazado 139783" d="M236.434,211.938H217.879a1.66,1.66,0,0,0,0,3.32h18.555a1.66,1.66,0,0,0,0-3.32Z" transform="translate(-180.323 -350.346)"/>
    <path id="Trazado_139784" data-name="Trazado 139784" d="M236.434,307.938H217.879a1.66,1.66,0,0,0,0,3.32h18.555a1.66,1.66,0,0,0,0-3.32Z" transform="translate(-180.323 -430.408)"/>
    <path id="Trazado_139785" data-name="Trazado 139785" d="M76.2,211.938H57.647a1.66,1.66,0,0,0-1.66,1.66v15.938a1.66,1.66,0,0,0,1.66,1.66H76.2a1.66,1.66,0,0,0,1.66-1.66V213.6A1.66,1.66,0,0,0,76.2,211.938Zm-1.66,15.937H59.307V215.258H74.542Z" transform="translate(-46.692 -350.346)"/>
    <path id="Trazado_139786" data-name="Trazado 139786" d="M76.2,403.938H57.647a1.66,1.66,0,0,0,0,3.32H76.2a1.66,1.66,0,0,0,0-3.32Z" transform="translate(-46.692 -510.469)"/>
    <path id="Trazado_139787" data-name="Trazado 139787" d="M57.65,451.939a1.661,1.661,0,1,0,1.174.487A1.679,1.679,0,0,0,57.65,451.939Z" transform="translate(-46.695 -550.502)"/>
    <path id="Trazado_139788" data-name="Trazado 139788" d="M113.742,451.938H102.66a1.66,1.66,0,0,0,0,3.32h11.082a1.66,1.66,0,0,0,0-3.32Z" transform="translate(-84.232 -550.502)"/>
    <path id="Trazado_139789" data-name="Trazado 139789" d="M76.2,355.938H57.647a1.66,1.66,0,0,0,0,3.32H76.2a1.66,1.66,0,0,0,0-3.32Z" transform="translate(-46.692 -470.439)"/>
    <path id="Trazado_139790" data-name="Trazado 139790" d="M236.434,355.938H217.879a1.66,1.66,0,0,0-1.66,1.66v15.938a1.66,1.66,0,0,0,1.66,1.66h18.555a1.66,1.66,0,0,0,1.66-1.66V357.6A1.66,1.66,0,0,0,236.434,355.938Zm-1.66,15.938H219.539V359.258h15.235Z" transform="translate(-180.323 -470.439)"/>
    <path id="Trazado_139791" data-name="Trazado 139791" d="M50.642.486A1.661,1.661,0,0,0,49.468,0H4.98A4.986,4.986,0,0,0,0,4.98V80.02A4.986,4.986,0,0,0,4.98,85h57.1a4.986,4.986,0,0,0,4.98-4.98V17.6a1.66,1.66,0,0,0-.486-1.174Zm.486,5.182L61.4,15.938H52.789a1.662,1.662,0,0,1-1.66-1.66ZM62.085,81.68H4.98a1.662,1.662,0,0,1-1.66-1.66V4.98A1.662,1.662,0,0,1,4.98,3.32H47.808V14.278a4.986,4.986,0,0,0,4.98,4.98H63.746V80.02A1.662,1.662,0,0,1,62.085,81.68Z" transform="translate(0 -173.592)"/>
    <path id="Trazado_139792" data-name="Trazado 139792" d="M57.647,55.937H89.52a1.66,1.66,0,0,0,1.66-1.66V41.66A1.66,1.66,0,0,0,89.52,40H57.647a1.66,1.66,0,0,0-1.66,1.66V54.277A1.66,1.66,0,0,0,57.647,55.937Zm1.66-12.617H87.86v9.3H59.307Z" transform="translate(-46.692 -206.949)"/>
    <path id="Trazado_139793" data-name="Trazado 139793" d="M429.66,227.32a1.661,1.661,0,1,0-1.174-.486A1.673,1.673,0,0,0,429.66,227.32Z" transform="translate(-356.945 -360.402)"/>
    <path id="Trazado_139794" data-name="Trazado 139794" d="M437.981,54h-6.018A3.968,3.968,0,0,0,428,57.964v18.67a1.66,1.66,0,1,0,3.32,0V65.026h7.3v40.853h-7.3V90.557a1.66,1.66,0,1,0-3.32,0v16.983a1.658,1.658,0,0,0,.145.678l5.312,11.871a1.66,1.66,0,0,0,3.03,0l5.312-11.871a1.659,1.659,0,0,0,.145-.678V57.964A3.968,3.968,0,0,0,437.981,54Zm-6.661,7.705V57.964a.644.644,0,0,1,.643-.643h6.018a.644.644,0,0,1,.643.643v3.742Zm3.652,53.641-2.751-6.147h5.5Z" transform="translate(-356.945 -218.627)"/>
  </g>
</svg>
