<svg xmlns="http://www.w3.org/2000/svg" width="88.42" height="90" viewBox="0 0 88.42 90">
  <g id="consumidor" transform="translate(-4.494 0)">
    <g id="Grupo_82281" data-name="Grupo 82281" transform="translate(38.227 1.758)">
      <path id="Trazado_140723" data-name="Trazado 140723" d="M225.486,32.621a8.261,8.261,0,0,1-3.116,6.467,12.708,12.708,0,0,1,7.5,11.55v4.654c4.939-4.205,7.985-9.163,8.09-15.546,0-.115,0-.229,0-.344V17.389c-7.591,2.252-18.532.11-20.784-7.389-2.252,7.5-13.194,9.641-20.784,7.389V39.4c0,.115,0,.229,0,.344.1,6.383,3.151,11.34,8.09,15.546V50.639a12.708,12.708,0,0,1,7.5-11.55,8.292,8.292,0,1,1,13.493-6.467Z" transform="translate(-196.397 -10)" fill="#fed947" fill-rule="evenodd"/>
    </g>
    <g id="Grupo_82282" data-name="Grupo 82282" transform="translate(46.322 30.847)">
      <path id="Trazado_140724" data-name="Trazado 140724" d="M249.95,175.483a12.708,12.708,0,0,0-7.5,11.55v4.654a61.709,61.709,0,0,0,12.689,7.9,61.709,61.709,0,0,0,12.689-7.9v-4.654a12.708,12.708,0,0,0-7.5-11.55,8.311,8.311,0,0,1-10.377,0Z" transform="translate(-242.449 -175.483)" fill="#d64626" fill-rule="evenodd"/>
    </g>
    <g id="Grupo_82283" data-name="Grupo 82283" transform="translate(50.706 16.098)">
      <path id="Trazado_140725" data-name="Trazado 140725" d="M275.7,91.58a8.278,8.278,0,1,0,8.3,8.281A8.294,8.294,0,0,0,275.7,91.58Z" transform="translate(-267.392 -91.58)" fill="#f5c6af" fill-rule="evenodd"/>
    </g>
    <g id="Grupo_82284" data-name="Grupo 82284" transform="translate(25.283 31.504)">
      <path id="Trazado_140726" data-name="Trazado 140726" d="M122.762,179.225l6.037,31.794h53.8l6.038-31.794H177.269c-.1,6.383-3.151,11.34-8.09,15.546a61.706,61.706,0,0,1-12.689,7.9,61.708,61.708,0,0,1-12.689-7.9c-4.939-4.205-7.985-9.163-8.09-15.546Z" transform="translate(-122.762 -179.225)" fill="#2a94ee" fill-rule="evenodd"/>
    </g>
    <g id="Grupo_82285" data-name="Grupo 82285" transform="translate(40.254 73.393)">
      <path id="Trazado_140727" data-name="Trazado 140727" d="M215.372,417.529a7.424,7.424,0,1,0,7.441,7.424,7.432,7.432,0,0,0-7.441-7.424Z" transform="translate(-207.931 -417.529)" fill="#636363" fill-rule="evenodd"/>
    </g>
    <g id="Grupo_82286" data-name="Grupo 82286" transform="translate(72.943 73.393)">
      <path id="Trazado_140728" data-name="Trazado 140728" d="M401.338,417.529a7.424,7.424,0,1,0,7.441,7.424,7.432,7.432,0,0,0-7.441-7.424Z" transform="translate(-393.897 -417.529)" fill="#636363" fill-rule="evenodd"/>
    </g>
    <g id="Grupo_82287" data-name="Grupo 82287" transform="translate(4.494 0)">
      <path id="Trazado_140729" data-name="Trazado 140729" d="M66.132,61.541a1.758,1.758,0,1,0,0,3.516H85.119a1.757,1.757,0,0,0,1.727-1.43l6.037-31.794a1.758,1.758,0,0,0-1.727-2.086h-9.6V9.147a1.758,1.758,0,0,0-2.258-1.685,20.7,20.7,0,0,1-11.388-.036c-2.2-.661-6.062-2.342-7.212-6.173a1.758,1.758,0,0,0-3.367,0c-1.151,3.832-5.013,5.512-7.212,6.173a20.7,20.7,0,0,1-11.388.036,1.758,1.758,0,0,0-2.258,1.685v20.6H26.74L26.4,27.938c0-.016-.007-.033-.01-.049-1.068-4.863-3.347-6.846-7.864-6.846H6.252a1.758,1.758,0,0,0,0,3.516h12.27c2.4,0,3.616.4,4.425,4.061l.61,3.211c0,.015.005.03.009.045L29.591,63.6c0,.027.009.053.015.079l.867,4.564c.454,2.39,1.3,6.839,7.6,6.846l2.435,0a9.2,9.2,0,1,0,14.387.02l18.266.026a9.2,9.2,0,1,0,7.227-3.505h0l-42.308-.06c-3.239,0-3.67-1.443-4.153-3.987l-.481-2.533H50.307a1.758,1.758,0,1,0,0-3.516H32.777L27.407,33.262h9.164C37.7,44.849,48.07,51.518,58.233,56.529a1.758,1.758,0,0,0,1.555,0c10.163-5.012,20.537-11.68,21.662-23.267h7.582l-5.37,28.279ZM47.7,86.484a5.666,5.666,0,1,1,5.683-5.666A5.681,5.681,0,0,1,47.7,86.484Zm38.372-5.666a5.683,5.683,0,1,1-5.683-5.666,5.681,5.681,0,0,1,5.683,5.666ZM59.011,52.989a60.278,60.278,0,0,1-10.931-6.8V42.4a10.939,10.939,0,0,1,5.6-9.507,10.045,10.045,0,0,0,10.669,0,10.939,10.939,0,0,1,5.6,9.507v3.791a60.268,60.268,0,0,1-10.931,6.8Zm0-22.081a6.526,6.526,0,1,1,6.547-6.528A6.545,6.545,0,0,1,59.011,30.907ZM73.458,42.841V42.4a14.452,14.452,0,0,0-6.417-11.973,10.063,10.063,0,1,0-16.06,0A14.451,14.451,0,0,0,44.564,42.4v.444a17.054,17.054,0,0,1-4.576-11.314c0-.008,0-.015,0-.023s0-.023,0-.034c0-.1,0-.206,0-.309V11.367a24.548,24.548,0,0,0,11.142-.575,14.854,14.854,0,0,0,7.884-5.168A14.853,14.853,0,0,0,66.9,10.792a24.545,24.545,0,0,0,11.142.575V31.161c0,.1,0,.206,0,.309,0,.012,0,.023,0,.034s0,.015,0,.023A17.057,17.057,0,0,1,73.458,42.841Z" transform="translate(-4.494 0)"/>
      <path id="Trazado_140730" data-name="Trazado 140730" d="M301.865,350.1h0a1.758,1.758,0,1,0,1.763,1.758A1.756,1.756,0,0,0,301.86,350.1Z" transform="translate(-248.142 -288.56)"/>
    </g>
  </g>
</svg>
