<svg xmlns="http://www.w3.org/2000/svg" width="190" height="147.097" viewBox="0 0 190 147.097">
  <g id="crecimiento" transform="translate(-8 -64)">
    <g id="Grupo_82003" data-name="Grupo 82003" transform="translate(11.065 67.065)">
      <circle id="Elipse_4565" data-name="Elipse 4565" cx="12.189" cy="12.189" r="12.189" transform="translate(15.218 6.302)" fill="#ffdaaa"/>
      <path id="Trazado_139982" data-name="Trazado 139982" d="M71.161,177.194v32.177a4.6,4.6,0,0,1-4.6,4.6H58.9V258.4a4.6,4.6,0,0,1-4.6,4.6H32.855a4.6,4.6,0,0,1-4.6-4.6V213.968H20.6a4.6,4.6,0,0,1-4.6-4.6V177.194A9.2,9.2,0,0,1,25.194,168H61.968A9.2,9.2,0,0,1,71.161,177.194Z" transform="translate(-16 -131.226)" fill="#20287a"/>
      <path id="Trazado_139983" data-name="Trazado 139983" d="M16,416H199.871v9.194H16Z" transform="translate(-16 -284.226)" fill="#e0e0e2"/>
      <path id="Trazado_139984" data-name="Trazado 139984" d="M216,264h30.645v58.226H216Z" transform="translate(-139.387 -190.452)" fill="#d64626"/>
      <path id="Trazado_139985" data-name="Trazado 139985" d="M296,168h30.645v95H296Z" transform="translate(-188.742 -131.226)" fill="#fed947"/>
      <path id="Trazado_139986" data-name="Trazado 139986" d="M376,72h30.645V203.774H376Z" transform="translate(-238.097 -72)" fill="#2a94ee"/>
    </g>
    <g id="Grupo_82004" data-name="Grupo 82004" transform="translate(8 64)">
      <path id="Trazado_139987" data-name="Trazado 139987" d="M78.645,95.323a15.323,15.323,0,1,0-15.323,15.323A15.323,15.323,0,0,0,78.645,95.323Zm-15.323,9.194a9.194,9.194,0,1,1,9.194-9.194A9.194,9.194,0,0,1,63.323,104.516Z" transform="translate(-32.677 -73.871)"/>
      <path id="Trazado_139988" data-name="Trazado 139988" d="M194.935,195.774H182.677V67.065A3.065,3.065,0,0,0,179.613,64H148.968a3.065,3.065,0,0,0-3.065,3.065v33.71H118.323a3.065,3.065,0,0,0-3.065,3.065v33.71H87.677a3.065,3.065,0,0,0-3.065,3.065v55.161H56.879a7.757,7.757,0,0,0,.153-1.532V152.871h4.6a7.669,7.669,0,0,0,7.661-7.661V113.032a12.272,12.272,0,0,0-12.258-12.258H20.258A12.272,12.272,0,0,0,8,113.032V145.21a7.669,7.669,0,0,0,7.661,7.661h4.6v41.371a7.752,7.752,0,0,0,.153,1.53l-9.346,0A3.065,3.065,0,0,0,8,198.839v9.194a3.065,3.065,0,0,0,3.065,3.065H194.935A3.065,3.065,0,0,0,198,208.032v-9.194A3.065,3.065,0,0,0,194.935,195.774Zm-42.9-125.645h24.516V195.774H152.032ZM121.387,106.9H145.9v88.871H121.387ZM90.742,143.677h24.516v52.1H90.742ZM20.258,119.161v27.581h-4.6a1.532,1.532,0,0,1-1.532-1.532V113.032a6.137,6.137,0,0,1,6.129-6.129H57.032a6.137,6.137,0,0,1,6.129,6.129V145.21a1.532,1.532,0,0,1-1.532,1.532h-4.6V119.161a3.065,3.065,0,0,0-6.129,0v75.081a1.532,1.532,0,0,1-1.532,1.532H41.71V159a3.065,3.065,0,0,0-6.129,0v36.774H27.919a1.532,1.532,0,0,1-1.532-1.532V119.161a3.065,3.065,0,0,0-6.129,0Zm171.613,85.806H14.129V201.9H191.871Z" transform="translate(-8 -64)"/>
    </g>
  </g>
</svg>
