<svg id="cuantitativo" xmlns="http://www.w3.org/2000/svg" width="119.991" height="120" viewBox="0 0 119.991 120">
  <path id="Trazado_141209" data-name="Trazado 141209" d="M8,8h92.9V108.645H8ZM8,8" transform="translate(-6.065 -6.065)" fill="#fed947"/>
  <path id="Trazado_141210" data-name="Trazado 141210" d="M364.29,352.7a8.157,8.157,0,0,1,2.419,5.806,8.225,8.225,0,0,1-14.032,5.806l-13.065-13.083L328,339.613,339.613,328l3.871,3.871Zm0,0" transform="translate(-248.645 -248.645)" fill="#cf9e76"/>
  <path id="Trazado_141211" data-name="Trazado 141211" d="M323.493,317.617l-5.478,5.478-7.3-7.3a31.9,31.9,0,0,0,5.478-5.478Zm0,0" transform="translate(-235.545 -235.243)" fill="#aab2bd"/>
  <path id="Trazado_141212" data-name="Trazado 141212" d="M165.935,134.968A30.968,30.968,0,1,1,134.968,104,30.968,30.968,0,0,1,165.935,134.968Zm0,0" transform="translate(-78.839 -78.839)" fill="#ccd1d9"/>
  <path id="Trazado_141213" data-name="Trazado 141213" d="M182.452,159.226A23.226,23.226,0,1,1,159.226,136,23.226,23.226,0,0,1,182.452,159.226Zm0,0" transform="translate(-103.097 -103.097)" fill="#dff7f9"/>
  <g id="Grupo_82752" data-name="Grupo 82752" transform="translate(9.677 13.548)">
    <path id="Trazado_141214" data-name="Trazado 141214" d="M331.871,64a3.871,3.871,0,1,1,0,7.742,3.683,3.683,0,0,1-1.664-.387A3.864,3.864,0,0,1,331.871,64Zm0,0" transform="translate(-258.323 -62.065)" fill="#ff826e"/>
    <path id="Trazado_141215" data-name="Trazado 141215" d="M248.813,249.509A3.87,3.87,0,0,1,251.871,248a3.683,3.683,0,0,1,1.664.387A3.867,3.867,0,1,1,248,251.871,3.757,3.757,0,0,1,248.813,249.509Zm0,0" transform="translate(-197.677 -201.548)" fill="#ff826e"/>
    <path id="Trazado_141216" data-name="Trazado 141216" d="M182.929,198.233a3.864,3.864,0,1,1-4.336-6,3.556,3.556,0,0,1,1.278-.232,3.882,3.882,0,0,1,3.871,3.871A3.757,3.757,0,0,1,182.929,198.233Zm0,0" transform="translate(-143.097 -159.097)" fill="#ff826e"/>
    <path id="Trazado_141217" data-name="Trazado 141217" d="M128.735,62.135A3.82,3.82,0,0,1,128,59.871a3.871,3.871,0,1,1,5.149,3.638,3.556,3.556,0,0,1-1.278.232A3.886,3.886,0,0,1,128.735,62.135Zm0,0" transform="translate(-106.71 -56)" fill="#ff826e"/>
    <path id="Trazado_141218" data-name="Trazado 141218" d="M47.007,121.607a3.82,3.82,0,0,1,.735,2.264,3.879,3.879,0,1,1-.735-2.264Zm0,0" transform="translate(-40 -104.516)" fill="#ff826e"/>
  </g>
  <path id="Trazado_141219" data-name="Trazado 141219" d="M117.019,102.679,96.774,82.432V0H0V104.516H90.159l12.513,12.513a10.146,10.146,0,0,0,14.348-14.35Zm-7.175,13.45a6.235,6.235,0,0,1-4.438-1.837L91.762,100.645H3.871V3.871H92.9v74.69L90.96,76.618l-3.019,3.019-4.787-4.787a32.808,32.808,0,0,0-3.772-41.979L82.7,25.107c.178.017.348.054.53.054a5.827,5.827,0,1,0-4.053-1.66l-2.858,6.7a32.753,32.753,0,0,0-35.95-2.94l-1.889-5.352a5.836,5.836,0,1,0-9.179-2.85L16.831,28.122A5.755,5.755,0,0,0,13.548,27.1,5.806,5.806,0,1,0,19.355,32.9a5.728,5.728,0,0,0-.264-1.638L31.557,22.2a5.773,5.773,0,0,0,3.28,1.025L37.016,29.4a32.789,32.789,0,0,0-.633,52.986l-3,10.518H30.968V89.032H27.1V92.9H23.226V85.161H19.355V92.9H15.484V81.29H11.613V92.9H7.742v3.871H36.3l3.468-12.139a32.684,32.684,0,0,0,35.187-1.56l4.773,4.773-3.116,3.12,7.155,7.155L86.5,95.387l-4.418-4.419,8.876-8.876,23.324,23.324a6.276,6.276,0,0,1-4.44,10.713ZM82.465,85.113,78,80.646a33.387,33.387,0,0,0,2.733-2.741L85.2,82.376ZM27.1,56.129a28.97,28.97,0,0,1,11.266-22.91l1.381,3.912A25.079,25.079,0,0,0,54.057,81.187l.315-3.859A21.2,21.2,0,0,1,41.144,41.1l1.671,4.733A5.783,5.783,0,0,0,49.573,55.2l8.811,6.854a5.7,5.7,0,0,0-.319,1.815,5.806,5.806,0,1,0,9.86-4.146l6.29-14.742a21.066,21.066,0,0,1,3.2,11.146,21.388,21.388,0,0,1-19.533,21.2l.315,3.859A25.283,25.283,0,0,0,81.29,56.129,25,25,0,0,0,76,40.793l1.711-4.011A29.013,29.013,0,1,1,27.1,56.129ZM73.129,37.664A25.007,25.007,0,0,0,58.2,31.071l-.315,3.859A21.188,21.188,0,0,1,71.5,41.485L64.4,58.118c-.178-.017-.348-.054-.53-.054a5.748,5.748,0,0,0-3.122.927l-8.811-6.854a5.7,5.7,0,0,0,.319-1.815,5.813,5.813,0,0,0-5.8-5.806l-2.129-6.033a21.01,21.01,0,0,1,10.045-3.553l-.315-3.859A24.849,24.849,0,0,0,43,34.719l-1.317-3.732a28.874,28.874,0,0,1,33.066,2.892ZM63.871,61.935a1.935,1.935,0,1,1-1.935,1.935A1.938,1.938,0,0,1,63.871,61.935ZM46.452,48.387a1.935,1.935,0,1,1-1.935,1.935A1.938,1.938,0,0,1,46.452,48.387ZM81.29,19.355a1.935,1.935,0,1,1,1.935,1.935A1.938,1.938,0,0,1,81.29,19.355ZM32.9,17.419a1.935,1.935,0,1,1,1.935,1.935A1.938,1.938,0,0,1,32.9,17.419ZM15.484,32.9a1.935,1.935,0,1,1-1.935-1.935A1.938,1.938,0,0,1,15.484,32.9Zm0,0"/>
</svg>
