<svg xmlns="http://www.w3.org/2000/svg" width="140" height="140" viewBox="0 0 140 140">
  <g id="Grupo_82194" data-name="Grupo 82194" transform="translate(-285 -7685.07)">
    <circle id="Base" cx="70" cy="70" r="70" transform="translate(285 7685.07)" fill="#2a94ee"/>
    <g id="graficos" transform="translate(286.415 7685.423)">
      <path id="Trazado_140045" data-name="Trazado 140045" d="M145.1,279.532v26.862H39s19.093-1.5,36.975-17.593c10.486-8.661,21.283-22.8,43.007-22.8C130.211,266,136.063,274.957,145.1,279.532Z" transform="translate(-28.497 -194.367)" fill="#fed947"/>
      <path id="Trazado_140046" data-name="Trazado 140046" d="M245.429,87.143v58.984c-9.04-4.575-14.892-13.532-26.122-13.532-21.724,0-32.52,14.141-43.007,22.8,9.646-8.682,18.94-21.611,24.695-40.844C211.915,78.063,232.712,81.044,245.429,87.143Z" transform="translate(-128.823 -60.962)" fill="#d64626"/>
      <g id="Grupo_82035" data-name="Grupo 82035" transform="translate(0 0)">
        <path id="Trazado_140047" data-name="Trazado 140047" d="M137.091,110.123l-7.81-7.81a2.693,2.693,0,0,0-3.809,3.809l3.213,3.212H119.3V89.2a25.565,25.565,0,0,0,8.079,1.286,2.693,2.693,0,1,0,0-5.386,20.085,20.085,0,0,1-8.079-1.648v-19.9h8.079a2.693,2.693,0,1,0,0-5.386H119.3V30.687a46.909,46.909,0,0,1,6.293,4.452,2.693,2.693,0,0,0,3.573-4.03,53.71,53.71,0,0,0-11.371-7.345l-.022-.013a37.072,37.072,0,0,0-15.88-3.978h-.005a26.021,26.021,0,0,0-8.246,1.311,2.693,2.693,0,0,0,.851,5.249,2.709,2.709,0,0,0,.851-.14,20.758,20.758,0,0,1,6.564-1.034c3.324,0,8.039,1.251,12.007,2.812V80.4c-1.4-.964-2.777-2.012-4.191-3.093C104.339,73.2,98.774,68.94,90.483,68.94a46.017,46.017,0,0,0-24.953,7.149l.059-.059a97.668,97.668,0,0,0,5.975-12.477h1.953a2.692,2.692,0,0,0,.021-5.385q.634-1.88,1.213-3.806A75.175,75.175,0,0,1,79.9,41.3a2.693,2.693,0,0,0-4.777-2.488,80.572,80.572,0,0,0-5.531,14.009q-.819,2.734-1.756,5.351h-5.09a2.693,2.693,0,0,0,0,5.386h3A80.422,80.422,0,0,1,45.688,92.42l-.013.012A69.069,69.069,0,0,1,13.2,108.9V63.554h6.463a2.693,2.693,0,1,0,0-5.386H13.2V9.194l3.212,3.212A2.693,2.693,0,0,0,20.216,8.6L12.406.788A2.693,2.693,0,0,0,8.6.788L.788,8.6A2.693,2.693,0,0,0,4.6,12.406L7.809,9.194v100.14H2.692a2.693,2.693,0,1,0,0,5.386H7.809v5.117a2.693,2.693,0,0,0,5.386,0V114.72h115.49l-3.212,3.212a2.693,2.693,0,1,0,3.808,3.809l7.81-7.81A2.693,2.693,0,0,0,137.091,110.123Zm-23.179-.789H29.51a75.968,75.968,0,0,0,19.726-12.86c1.9-1.568,3.754-3.266,5.722-5.064,8.764-8.008,18.7-17.084,35.526-17.084,6.467,0,10.869,3.366,15.966,7.264a67.142,67.142,0,0,0,7.463,5.182Z" transform="translate(0.001 0.001)"/>
        <path id="Trazado_140048" data-name="Trazado 140048" d="M243.017,452a2.693,2.693,0,0,0-2.693,2.693,8.088,8.088,0,0,1-8.079,8.079H186.465a8.088,8.088,0,0,1-8.079-8.079,2.693,2.693,0,1,0-5.386,0,13.48,13.48,0,0,0,13.465,13.465h45.781a13.48,13.48,0,0,0,13.465-13.465A2.693,2.693,0,0,0,243.017,452Z" transform="translate(-126.411 -330.277)"/>
        <path id="Trazado_140049" data-name="Trazado 140049" d="M125.693,221.386h10.772a2.693,2.693,0,0,0,0-5.386H125.693a2.693,2.693,0,0,0,0,5.386Z" transform="translate(-89.876 -157.832)"/>
        <path id="Trazado_140050" data-name="Trazado 140050" d="M325.693,221.386h10.772a2.693,2.693,0,0,0,0-5.386H325.693a2.693,2.693,0,1,0,0,5.386Z" transform="translate(-236.017 -157.832)"/>
        <circle id="Elipse_4566" data-name="Elipse 4566" cx="2.693" cy="2.693" r="2.693" transform="translate(81.737 27.471)"/>
      </g>
    </g>
  </g>
</svg>
