<svg xmlns="http://www.w3.org/2000/svg" width="96.011" height="96.011" viewBox="0 0 96.011 96.011">
  <g id="demanda" transform="translate(-1 -1)">
    <g id="Grupo_81930" data-name="Grupo 81930" transform="translate(2.58 2.58)">
      <g id="Grupo_81923" data-name="Grupo 81923" transform="translate(0 49.848)">
        <path id="Trazado_139732" data-name="Trazado 139732" d="M60.473,68.309V65.149a3.17,3.17,0,0,1-3.161-3.161,3.184,3.184,0,0,1,3.161-3.161h-1.58a3.17,3.17,0,0,1-3.161-3.161,3.09,3.09,0,0,1,.932-2.228,2.768,2.768,0,0,1,.727-.553l-.079-.379a7.058,7.058,0,0,0-2.355-5.263l-3.082-2.734a24.5,24.5,0,0,1-2.465-2.5,26.117,26.117,0,0,1-4.03-6.337c-.126-.284-.253-.585-.379-.885l-5.073,5.073-9.482,9.482-4.741,4.741-4.741-3.951-4.741-3.951-4.741,4.741L2,60.408V71.47H61.011A9.549,9.549,0,0,1,60.473,68.309Z" transform="translate(-2 -34.79)" fill="#dff7f9"/>
      </g>
      <g id="Grupo_81924" data-name="Grupo 81924" transform="translate(6.321 15.224)">
        <path id="Trazado_139733" data-name="Trazado 139733" d="M27.777,27.219a2.534,2.534,0,0,1,.348,1.264,2.475,2.475,0,0,1-2.481,2.481H21.8V53.089H12.321V30.964H8.481A2.475,2.475,0,0,1,6,28.483a2.534,2.534,0,0,1,.348-1.264l8.329-13.86a2.775,2.775,0,0,1,4.773,0Z" transform="translate(-6 -12)" fill="#2a94ee"/>
      </g>
      <g id="Grupo_81925" data-name="Grupo 81925" transform="translate(27.675)">
        <path id="Trazado_139734" data-name="Trazado 139734" d="M41.777,17.219a2.534,2.534,0,0,1,.348,1.264,2.475,2.475,0,0,1-2.481,2.481H35.8V31.505a26.053,26.053,0,0,0-3.145,11.584H26.321V20.964h-3.84A2.475,2.475,0,0,1,20,18.483a2.534,2.534,0,0,1,.348-1.264l8.329-13.86a2.775,2.775,0,0,1,4.773,0Z" transform="translate(-20 -2)" fill="#d64626"/>
      </g>
      <g id="Grupo_81926" data-name="Grupo 81926" transform="translate(56.954 80.207)">
        <path id="Trazado_139735" data-name="Trazado 139735" d="M57.964,57.161a9.49,9.49,0,0,1-9.482,9.482,9.528,9.528,0,0,1-8.945-6.321A9.549,9.549,0,0,1,39,57.161V54H57.964Z" transform="translate(-39 -54)" fill="#aab2bd"/>
      </g>
      <g id="Grupo_81927" data-name="Grupo 81927" transform="translate(51.761 67.987)">
        <path id="Trazado_139736" data-name="Trazado 139736" d="M61.6,46.016a3.17,3.17,0,0,1,2.845,3.145,3.184,3.184,0,0,1-3.161,3.161H39.161A3.17,3.17,0,0,1,36,49.161a3.09,3.09,0,0,1,.932-2.228,2.768,2.768,0,0,1,.727-.553,3.205,3.205,0,0,1,1.5-.379H61.286A2.015,2.015,0,0,1,61.6,46.016Z" transform="translate(-36 -46)" fill="#ccd1d9"/>
      </g>
      <g id="Grupo_81928" data-name="Grupo 81928" transform="translate(53.744 73.886)">
        <path id="Trazado_139737" data-name="Trazado 139737" d="M59.125,50a3.17,3.17,0,0,1,3.161,3.161,3.184,3.184,0,0,1-3.161,3.161H40.161A3.17,3.17,0,0,1,37,53.161,3.184,3.184,0,0,1,40.161,50Z" transform="translate(-37 -50)" fill="#ccd1d9"/>
      </g>
      <g id="Grupo_81929" data-name="Grupo 81929" transform="translate(39.118 15.038)">
        <path id="Trazado_139738" data-name="Trazado 139738" d="M65.929,65.732H43.8a3.205,3.205,0,0,0-1.5.379l-.079-.379a7.058,7.058,0,0,0-2.355-5.263l-3.082-2.734a24.506,24.506,0,0,1-2.465-2.5,26.117,26.117,0,0,1-4.03-6.337c-.126-.284-.253-.585-.379-.885A26.378,26.378,0,0,1,28,38.171c0-.3,0-.6.016-.885A26.167,26.167,0,0,1,54.171,12h1.391A26.172,26.172,0,0,1,72.945,57.736L69.864,60.47a7.058,7.058,0,0,0-2.355,5.263l-1.264.016A2.016,2.016,0,0,0,65.929,65.732Z" transform="translate(-28 -12)" fill="#fed947"/>
      </g>
    </g>
    <g id="Grupo_81931" data-name="Grupo 81931" transform="translate(1 1)">
      <path id="Trazado_139739" data-name="Trazado 139739" d="M69.815,16.486H68.46a27.154,27.154,0,0,0-21,9.939V22.68h2.221a3.973,3.973,0,0,0,3.407-6.018L44.936,3.08a4.284,4.284,0,0,0-7.346,0L29.441,16.661a3.974,3.974,0,0,0,3.407,6.019h2.221V44.36H41.3a27.138,27.138,0,0,0,1.612,8.551L25.681,70.139,16.39,62.4,1,77.787v13.03H59.357a10.831,10.831,0,0,0,20.619-4.646V84.337A4.583,4.583,0,0,0,82.453,77.7a4.609,4.609,0,0,0,.655-7.326,5.338,5.338,0,0,1,1.762-3.686l3.014-2.677A27.2,27.2,0,0,0,69.815,16.486Zm-36.967,3.1a.876.876,0,0,1-.751-1.327L40.245,4.673a1.237,1.237,0,0,1,2.035,0l8.149,13.582a.876.876,0,0,1-.751,1.327H44.36V31.124a26.96,26.96,0,0,0-2.975,10.138H38.165V19.583ZM47.457,60.9V87.719H41.263V58.938l2.975-2.975A27.233,27.233,0,0,0,47.457,60.9ZM38.165,87.719H31.971V68.229l6.194-6.194ZM25.873,74.329l3-3V87.719H22.68V71.669Zm-9.291-7.743,3,2.5V87.719H13.388V69.778ZM4.1,79.069l6.194-6.194V87.719H4.1Zm46.457,8.65V64.153L53.4,66.687a5.351,5.351,0,0,1,1.762,3.686,4.608,4.608,0,0,0,.653,7.326A4.583,4.583,0,0,0,58.3,84.337v1.833a10.879,10.879,0,0,0,.124,1.549ZM81.525,73.782a1.549,1.549,0,0,1-1.549,1.549H58.3a1.549,1.549,0,1,1,0-3.1h21.68A1.549,1.549,0,0,1,81.525,73.782ZM69.137,93.914a7.752,7.752,0,0,1-7.743-7.743V84.622H76.879v1.549A7.752,7.752,0,0,1,69.137,93.914Zm9.291-12.388H59.845a1.549,1.549,0,1,1,0-3.1H78.428a1.549,1.549,0,0,1,0,3.1Zm7.4-19.831-3.013,2.677a8.435,8.435,0,0,0-2.685,4.779c-.051,0-.1-.014-.15-.014H58.3c-.051,0-.1.014-.15.015a8.444,8.444,0,0,0-2.685-4.779L52.448,61.7A24.1,24.1,0,0,1,68.46,19.583h1.355A24.1,24.1,0,0,1,85.825,61.694Z" transform="translate(-1 -1)"/>
      <path id="Trazado_139740" data-name="Trazado 139740" d="M57.117,28.965a18.4,18.4,0,0,1-.337,2.908l3.1.615a21.056,21.056,0,0,0,.4-3.414Z" transform="translate(29.401 14.307)"/>
      <path id="Trazado_139741" data-name="Trazado 139741" d="M55.029,39.849l-3.077,2.734a15,15,0,0,0-2.121,2.329l2.549,1.871a11.833,11.833,0,0,1,1.67-1.838l3.077-2.734a21.53,21.53,0,0,0,5.809-8.447L59.98,32.647a18.345,18.345,0,0,1-4.951,7.2Z" transform="translate(25.368 16.191)"/>
      <path id="Trazado_139742" data-name="Trazado 139742" d="M31.014,29.208l3.158.141a18.167,18.167,0,0,1,.363-2.909l-3.1-.642a21.654,21.654,0,0,0-.425,3.41Z" transform="translate(15.429 12.574)"/>
      <path id="Trazado_139743" data-name="Trazado 139743" d="M52.588,18.161V15H51.9A21.6,21.6,0,0,0,31.925,28.648L34.869,29.8A18.419,18.419,0,0,1,51.9,18.161Z" transform="translate(15.701 6.601)"/>
      <path id="Trazado_139744" data-name="Trazado 139744" d="M53.643,29.334A6.171,6.171,0,0,0,48.9,23.346V20H45.741v3.346a6.161,6.161,0,0,0-.52,11.843l3.2,1.068a3.011,3.011,0,0,1-.95,5.868h-.3a3.013,3.013,0,0,1-3.012-3.012V37.384H41v1.729A6.171,6.171,0,0,0,45.741,45.1v3.346H48.9V45.1a6.161,6.161,0,0,0,.52-11.843l-3.2-1.068a3.011,3.011,0,0,1,.95-5.868h.3a3.015,3.015,0,0,1,3.012,3.012v.149Z" transform="translate(20.754 9.175)"/>
      <path id="Trazado_139745" data-name="Trazado 139745" d="M9.055,33.125h2.266V55.25H23.964V33.125h2.266a4.054,4.054,0,0,0,3.477-6.141L21.392,13.122a4.372,4.372,0,0,0-7.5,0L5.578,26.982a4.056,4.056,0,0,0,3.477,6.143ZM8.289,28.61,16.6,14.749a1.263,1.263,0,0,1,2.077,0L27,28.61a.894.894,0,0,1-.766,1.354H20.8V52.089H14.482V29.964H9.055a.894.894,0,0,1-.766-1.354Z" transform="translate(1.321 4.224)"/>
    </g>
  </g>
</svg>
