<svg xmlns="http://www.w3.org/2000/svg" width="94.637" height="77.441" viewBox="0 0 94.637 77.441">
  <g id="efectivo" transform="translate(0 -46.508)">
    <g id="Grupo_82435" data-name="Grupo 82435" transform="translate(1.38 47.894)">
      <path id="Trazado_140979" data-name="Trazado 140979" d="M13.06,190.675a553.408,553.408,0,0,1,68.592,0,4.411,4.411,0,0,1,4.09,3.74,133.638,133.638,0,0,1,0,40,4.411,4.411,0,0,1-4.09,3.74,553.408,553.408,0,0,1-68.592,0,4.411,4.411,0,0,1-4.09-3.74,133.636,133.636,0,0,1,0-40,4.411,4.411,0,0,1,4.09-3.741Z" transform="translate(-7.465 -164.542)" fill="#78c2a4"/>
      <path id="Trazado_140980" data-name="Trazado 140980" d="M43.082,255.016a7.483,7.483,0,0,0-8.367-7.44,129.231,129.231,0,0,1,0-22.795,7.483,7.483,0,0,0,8.367-7.44c0-.135,0-.27-.011-.4,8.694-.413,17.437-.624,26.087-.624,8.354,0,16.795.195,25.194.58-.009.148-.015.3-.015.448a7.492,7.492,0,0,0,9.25,7.284,129.262,129.262,0,0,1,0,23.109,7.492,7.492,0,0,0-9.25,7.284c0,.151.006.3.015.448-8.4.385-16.84.58-25.194.58-8.65,0-17.393-.211-26.087-.624C43.078,255.286,43.082,255.151,43.082,255.016Z" transform="translate(-29.267 -186.307)" fill="#b3e59f"/>
      <ellipse id="Elipse_4697" data-name="Elipse 4697" cx="11.513" cy="15.69" rx="11.513" ry="15.69" transform="translate(28.378 34.181)" fill="#78c2a4"/>
      <g id="Grupo_82431" data-name="Grupo 82431" transform="translate(11.957 45.998)">
        <circle id="Elipse_4698" data-name="Elipse 4698" cx="3.873" cy="3.873" r="3.873" fill="#78c2a4"/>
        <circle id="Elipse_4699" data-name="Elipse 4699" cx="3.873" cy="3.873" r="3.873" transform="translate(48.122)" fill="#78c2a4"/>
      </g>
      <g id="Grupo_82434" data-name="Grupo 82434" transform="translate(12.096)">
        <path id="Trazado_140981" data-name="Trazado 140981" d="M78.491,55.067a553.406,553.406,0,0,1,68.592,0,4.411,4.411,0,0,1,4.09,3.74,133.639,133.639,0,0,1,0,40,4.411,4.411,0,0,1-4.09,3.74,553.406,553.406,0,0,1-68.592,0A4.411,4.411,0,0,1,74.4,98.8a133.636,133.636,0,0,1,0-40A4.411,4.411,0,0,1,78.491,55.067Z" transform="translate(-72.896 -54.003)" fill="#78c2a4"/>
        <path id="Trazado_140982" data-name="Trazado 140982" d="M108.513,119.409a7.483,7.483,0,0,0-8.367-7.44,129.231,129.231,0,0,1,0-22.795,7.482,7.482,0,0,0,8.367-7.44c0-.136,0-.27-.011-.4,8.694-.413,17.437-.624,26.087-.624,8.354,0,16.795.195,25.194.58-.009.148-.015.3-.015.448a7.492,7.492,0,0,0,9.25,7.284,129.262,129.262,0,0,1,0,23.109,7.492,7.492,0,0,0-9.25,7.284c0,.151.006.3.015.448-8.4.385-16.84.58-25.194.58-8.65,0-17.393-.211-26.087-.624.007-.134.011-.269.011-.4Z" transform="translate(-94.698 -75.769)" fill="#b3e59f"/>
        <g id="Grupo_82433" data-name="Grupo 82433" transform="translate(11.957 9.112)">
          <ellipse id="Elipse_4700" data-name="Elipse 4700" cx="11.513" cy="15.69" rx="11.513" ry="15.69" transform="translate(16.421)" fill="#78c2a4"/>
          <g id="Grupo_82432" data-name="Grupo 82432" transform="translate(0 11.817)">
            <circle id="Elipse_4701" data-name="Elipse 4701" cx="3.873" cy="3.873" r="3.873" fill="#78c2a4"/>
            <circle id="Elipse_4702" data-name="Elipse 4702" cx="3.873" cy="3.873" r="3.873" transform="translate(48.122)" fill="#78c2a4"/>
          </g>
        </g>
      </g>
    </g>
    <g id="Grupo_82436" data-name="Grupo 82436" transform="translate(0 46.508)">
      <path id="Trazado_140983" data-name="Trazado 140983" d="M93.124,52.492a5.823,5.823,0,0,0-5.376-4.918c-16.479-1.023-33.177-1.311-49.631-.858a1.387,1.387,0,0,0,.076,2.772c16.372-.451,32.987-.164,49.384.854a3.036,3.036,0,0,1,2.8,2.562,132.908,132.908,0,0,1,0,39.583,3.036,3.036,0,0,1-2.806,2.562,554.064,554.064,0,0,1-68.42,0,3.039,3.039,0,0,1-2.805-2.562,132.918,132.918,0,0,1,0-39.582,3.039,3.039,0,0,1,2.806-2.563c4.521-.281,9.077-.507,13.54-.673a1.386,1.386,0,0,0-.1-2.771c-4.486.167-9.065.394-13.608.676a5.826,5.826,0,0,0-5.377,4.917A135.792,135.792,0,0,0,12.1,72.345c-1.8.1-3.52.193-5.209.3a5.823,5.823,0,0,0-5.375,4.918,135.514,135.514,0,0,0,0,40.408,5.823,5.823,0,0,0,5.374,4.918c11.408.708,22.893,1.063,34.382,1.063s22.975-.354,34.381-1.062a5.824,5.824,0,0,0,5.377-4.918,136.641,136.641,0,0,0,1.52-19.856q2.6-.137,5.2-.3A5.823,5.823,0,0,0,93.124,92.9a135.706,135.706,0,0,0,0-40.408Zm-25.487,46.2a2.484,2.484,0,0,1-4.568.1Q65.354,98.753,67.637,98.694Zm-23.282,2.3a2.608,2.608,0,0,1-1.8,1.929V99l.046.014C43.839,99.379,44.48,100.1,44.355,100.99Zm-4.576,2.133a5.5,5.5,0,0,1-2.335-.769,1.387,1.387,0,1,0-1.317,2.44,8.107,8.107,0,0,0,3.652,1.107v.638a1.386,1.386,0,0,0,2.773,0V105.8a5.483,5.483,0,0,0,4.549-4.423,4.137,4.137,0,0,0-.433-2.537q2.348.028,4.7.037c-.4,7.372-4.773,13.2-10.093,13.2-5.425,0-9.866-6.057-10.115-13.634q4.307.172,8.622.277v4.411ZM18.985,97.818l.706.041A2.485,2.485,0,1,1,15.3,96.177,5.8,5.8,0,0,0,18.985,97.818Zm59.3,19.739a3.037,3.037,0,0,1-2.806,2.563,554.063,554.063,0,0,1-68.42,0,3.036,3.036,0,0,1-2.8-2.563,132.744,132.744,0,0,1,0-39.583,3.036,3.036,0,0,1,2.8-2.563c1.641-.1,3.308-.2,5.057-.29q.068,3.813.351,7.62a6.059,6.059,0,0,1-5.48,2.25,1.386,1.386,0,0,0-1.541,1.255,130.717,130.717,0,0,0,0,23.039,1.386,1.386,0,0,0,1.541,1.255A6.188,6.188,0,0,1,7.7,110.5a6.112,6.112,0,0,1,6.106,6.1c0,.109,0,.218-.007.326a1.386,1.386,0,0,0,1.318,1.462c8.724.416,17.523.626,26.152.626,4.563,0,9.226-.059,13.859-.176a1.387,1.387,0,1,0-.07-2.772c-4.61.116-9.25.175-13.789.175-8.163,0-16.479-.189-24.738-.564A8.892,8.892,0,0,0,8.1,107.734,128,128,0,0,1,8.1,87.8a8.872,8.872,0,0,0,4.672-1.586q.336,3.35.836,6.688a5.7,5.7,0,0,0,.2.859,5.257,5.257,0,1,0,8.654,4.26q2.957.165,5.919.3a20.069,20.069,0,0,0,3.631,11.363c2.442,3.329,5.731,5.162,9.259,5.162s6.817-1.833,9.259-5.162a19.918,19.918,0,0,0,3.611-10.8q3.02,0,6.04-.043a5.26,5.26,0,0,0,10.341-.218q2.155-.066,4.307-.149c-.018,3.09-.148,6.2-.389,9.272q-.248-.014-.5-.014a8.891,8.891,0,0,0-8.836,8c-1.545.067-3.066.127-4.534.178a1.387,1.387,0,0,0,.048,2.772h.05c1.887-.066,3.858-.146,5.858-.237a1.386,1.386,0,0,0,1.32-1.472c-.008-.13-.012-.248-.012-.362a6.113,6.113,0,0,1,7.538-5.936,1.387,1.387,0,0,0,1.7-1.224c.33-3.669.5-7.394.523-11.094.724-.032,1.448-.063,2.172-.1a133.829,133.829,0,0,1-1.488,19.3Z" transform="translate(0 -46.508)"/>
      <path id="Trazado_140984" data-name="Trazado 140984" d="M154.707,74.243a1.387,1.387,0,0,0-.967-.458c-8.409-.386-16.907-.581-25.258-.581-8.611,0-17.41.211-26.153.626a1.387,1.387,0,0,0-1.319,1.459c.006.109.009.219.009.33A6.1,6.1,0,0,1,94.2,81.682a1.386,1.386,0,0,0-1.541,1.255,131.008,131.008,0,0,0,0,23.039,1.386,1.386,0,0,0,1.541,1.255,6.1,6.1,0,0,1,6.821,6.063c0,.111,0,.221-.009.33a1.387,1.387,0,0,0,1.319,1.459c8.742.415,17.542.626,26.153.626,8.351,0,16.848-.2,25.258-.581a1.387,1.387,0,0,0,1.32-1.468c-.008-.137-.012-.257-.012-.366a6.1,6.1,0,0,1,7.539-5.935,1.386,1.386,0,0,0,1.705-1.224,130.96,130.96,0,0,0,0-23.356,1.386,1.386,0,0,0-1.705-1.224,6.1,6.1,0,0,1-7.539-5.935c0-.109,0-.228.012-.366A1.386,1.386,0,0,0,154.707,74.243ZM161.155,84.5q.249,0,.5-.014a128.287,128.287,0,0,1,0,19.946q-.249-.014-.5-.014a8.892,8.892,0,0,0-8.836,8c-7.944.346-15.956.521-23.836.521-8.146,0-16.461-.189-24.736-.563a8.894,8.894,0,0,0-8.434-7.949,128.332,128.332,0,0,1,0-19.935,8.894,8.894,0,0,0,8.434-7.949c8.275-.374,16.591-.563,24.736-.563,7.88,0,15.892.175,23.836.521a8.891,8.891,0,0,0,8.836,8Z" transform="translate(-75.115 -68.269)"/>
      <path id="Trazado_140985" data-name="Trazado 140985" d="M231.8,95.793c-3.528,0-6.816,1.833-9.259,5.162a21.317,21.317,0,0,0,0,23.83c2.442,3.329,5.731,5.162,9.259,5.162s6.816-1.833,9.259-5.162a21.317,21.317,0,0,0,0-23.83C238.618,97.626,235.33,95.793,231.8,95.793Zm0,31.38c-5.584,0-10.127-6.417-10.127-14.3s4.543-14.3,10.127-14.3,10.126,6.416,10.126,14.3S237.385,127.173,231.8,127.173Z" transform="translate(-178.435 -86.682)"/>
      <path id="Trazado_140986" data-name="Trazado 140986" d="M135.335,159.716a5.259,5.259,0,1,0,5.259,5.259A5.265,5.265,0,0,0,135.335,159.716Zm0,7.746a2.486,2.486,0,1,1,2.486-2.486A2.489,2.489,0,0,1,135.335,167.462Z" transform="translate(-106.029 -138.788)"/>
      <path id="Trazado_140987" data-name="Trazado 140987" d="M390.383,164.975a5.259,5.259,0,1,0,5.259-5.259A5.265,5.265,0,0,0,390.383,164.975Zm7.746,0a2.486,2.486,0,1,1-2.486-2.486A2.489,2.489,0,0,1,398.129,164.975Z" transform="translate(-318.215 -138.788)"/>
      <path id="Trazado_140988" data-name="Trazado 140988" d="M264.67,141.495c-.277-.081-.56-.165-.842-.251v-3.827a3.839,3.839,0,0,1,1.231.512,1.387,1.387,0,1,0,1.606-2.261,6.8,6.8,0,0,0-2.837-1.078v-.562a1.386,1.386,0,1,0-2.773,0v.65c-.109.023-.219.047-.33.075a4.641,4.641,0,0,0-3.554,3.648,3.656,3.656,0,0,0,1.607,3.737,11.888,11.888,0,0,0,2.278,1.1v5.11a5.574,5.574,0,0,1-2.388-.781A1.386,1.386,0,1,0,257.351,150a8.194,8.194,0,0,0,3.7,1.119v.661a1.386,1.386,0,1,0,2.773,0v-.766a5.533,5.533,0,0,0,4.6-4.462C268.753,144.24,267.277,142.254,264.67,141.495Zm-4.388-1.687a.9.9,0,0,1-.376-.952,1.763,1.763,0,0,1,1.149-1.3v2.676A6.752,6.752,0,0,1,260.282,139.808Zm5.4,6.363a2.662,2.662,0,0,1-1.856,1.971v-4l.067.02C265.159,144.525,265.811,145.259,265.684,146.171Z" transform="translate(-209.182 -116.718)"/>
    </g>
  </g>
</svg>
