<svg xmlns="http://www.w3.org/2000/svg" width="163" height="163" viewBox="0 0 163 163">
  <g id="embajada" transform="translate(0)">
    <g id="Grupo_82102" data-name="Grupo 82102" transform="translate(3.184 3.184)">
      <path id="Trazado_140183" data-name="Trazado 140183" d="M10,302H48.2v63.672H10Z" transform="translate(-10 -209.039)" fill="#8690a6"/>
      <path id="Trazado_140184" data-name="Trazado 140184" d="M382,302h38.2v63.672H382Z" transform="translate(-263.57 -209.039)" fill="#8690a6"/>
      <path id="Trazado_140185" data-name="Trazado 140185" d="M422,422h12.734v12.734H422Z" transform="translate(-290.836 -290.836)" fill="#eefaff"/>
      <path id="Trazado_140186" data-name="Trazado 140186" d="M422,342h12.734v12.734H422Z" transform="translate(-290.836 -236.305)" fill="#eefaff"/>
      <path id="Trazado_140187" data-name="Trazado 140187" d="M294.2,10,281.469,22.734,294.2,35.469H256V10Z" transform="translate(-177.684 -10)" fill="#d64626"/>
      <path id="Trazado_140188" data-name="Trazado 140188" d="M174.558,136a38.206,38.206,0,0,0-38.038,34.634H212.6A38.206,38.206,0,0,0,174.558,136Z" transform="translate(-96.241 -95.887)" fill="#fed947"/>
      <path id="Trazado_140189" data-name="Trazado 140189" d="M276,302h21.012v50.938H276Z" transform="translate(-191.316 -209.039)" fill="#fed947"/>
      <path id="Trazado_140190" data-name="Trazado 140190" d="M170,302h21.012v50.938H170Z" transform="translate(-119.063 -209.039)" fill="#fed947"/>
      <g id="Grupo_82101" data-name="Grupo 82101" transform="translate(12.734 65.582)">
        <path id="Trazado_140191" data-name="Trazado 140191" d="M195.7,243.379V228.734L142.848,216,90,228.734v14.645h12.734v50.938H90v12.734H195.7V294.316H182.961V243.379Zm-80.227,50.938V243.379H136.48v50.938Zm54.758,0H149.215V243.379h21.012Z" transform="translate(-77.266 -216)" fill="#eefaff"/>
        <path id="Trazado_140192" data-name="Trazado 140192" d="M50,422H62.734v12.734H50Z" transform="translate(-50 -356.418)" fill="#eefaff"/>
        <path id="Trazado_140193" data-name="Trazado 140193" d="M50,342H62.734v12.734H50Z" transform="translate(-50 -301.887)" fill="#eefaff"/>
      </g>
    </g>
    <g id="Grupo_82103" data-name="Grupo 82103" transform="translate(0 0)">
      <path id="Trazado_140194" data-name="Trazado 140194" d="M159.816,92.961H137.531V81.5a3.184,3.184,0,0,0-2.438-3.1l-12.664-3.051A41.385,41.385,0,0,0,84.684,40.237v-8.4H119.7a3.184,3.184,0,0,0,2.251-5.435L111.471,15.918,121.954,5.435A3.184,3.184,0,0,0,119.7,0H81.5a3.184,3.184,0,0,0-3.184,3.184V40.237A41.385,41.385,0,0,0,40.571,75.353L27.906,78.4a3.184,3.184,0,0,0-2.438,3.1V92.961H3.184A3.184,3.184,0,0,0,0,96.145v63.672A3.184,3.184,0,0,0,3.184,163h63.99a3.184,3.184,0,0,0,0-6.367H31.836v-6.367h99.328v6.367H95.826a3.184,3.184,0,0,0,0,6.367h63.99A3.184,3.184,0,0,0,163,159.816V96.145A3.184,3.184,0,0,0,159.816,92.961ZM84.684,6.367h27.334l-7.3,7.3a3.184,3.184,0,0,0,0,4.5l7.3,7.3H84.684ZM81.5,46.48a34.822,34.822,0,0,1,34.157,27.241L82.246,65.671a3.185,3.185,0,0,0-1.492,0L47.342,73.722A34.824,34.824,0,0,1,81.5,46.48ZM31.836,84.008,81.5,72.04l49.664,11.967v8.953H31.836Zm19.1,15.32V143.9H44.57V99.328Zm6.367,0H71.949V143.9H57.3Zm21.012,0h6.367V143.9H78.316Zm12.734,0H105.7V143.9H91.051Zm21.012,0h6.367V143.9h-6.367Zm-105.7,57.3v-57.3H38.2V143.9H31.836v-9.551a3.184,3.184,0,0,0-3.184-3.184H15.918a3.184,3.184,0,0,0-3.184,3.184v12.734a3.184,3.184,0,0,0,3.184,3.184h9.551v6.367Zm19.1-12.734H19.1v-6.367h6.367Zm131.164,12.734h-19.1v-6.367h9.551a3.184,3.184,0,0,0,3.184-3.184V134.348a3.184,3.184,0,0,0-3.184-3.184H134.348a3.184,3.184,0,0,0-3.184,3.184V143.9H124.8V99.328h31.836Zm-19.1-12.734v-6.367H143.9V143.9Z" transform="translate(0 0)"/>
      <path id="Trazado_140195" data-name="Trazado 140195" d="M412,335.184v12.734a3.184,3.184,0,0,0,3.184,3.184h12.734a3.184,3.184,0,0,0,3.184-3.184V335.184A3.184,3.184,0,0,0,427.918,332H415.184A3.184,3.184,0,0,0,412,335.184Zm6.367,3.184h6.367v6.367h-6.367Z" transform="translate(-280.836 -226.305)"/>
      <path id="Trazado_140196" data-name="Trazado 140196" d="M43.184,351.1H55.918a3.184,3.184,0,0,0,3.184-3.184V335.184A3.184,3.184,0,0,0,55.918,332H43.184A3.184,3.184,0,0,0,40,335.184v12.734A3.184,3.184,0,0,0,43.184,351.1Zm3.184-12.734h6.367v6.367H46.367Z" transform="translate(-27.266 -226.305)"/>
      <ellipse id="Elipse_4580" data-name="Elipse 4580" cx="4.5" cy="3" rx="4.5" ry="3" transform="translate(77 157)"/>
    </g>
  </g>
</svg>
