<svg xmlns="http://www.w3.org/2000/svg" width="472" height="320.048" viewBox="0 0 472 320.048">
  <g id="Grupo_82415" data-name="Grupo 82415" transform="translate(5891.838 -3601.135)">
    <path id="Trazado_140897" data-name="Trazado 140897" d="M-5715.3,3895.069c-50.339-79.244,8.59-153.716,100.047-220.984,139.469-102.579,185.007-73.158,239.276,3.429s79.509,177.477-6.262,229.5c-40.751,24.716-126.468-2.928-173.266.9C-5620.143,3913.208-5677.485,3954.6-5715.3,3895.069Z" transform="translate(-129.211 -5.657)" fill="#fff5a2"/>
    <g id="Grupo_82396" data-name="Grupo 82396" transform="translate(-5851.745 3817.483)">
      <rect id="Rectángulo_31527" data-name="Rectángulo 31527" width="98.028" height="100.432" transform="translate(10.468)" fill="#da8b39"/>
      <rect id="Rectángulo_31528" data-name="Rectángulo 31528" width="92.037" height="100.432" fill="#fed947"/>
    </g>
    <g id="Grupo_82397" data-name="Grupo 82397" transform="translate(-5725.329 3861.344)">
      <rect id="Rectángulo_31529" data-name="Rectángulo 31529" width="85.038" height="56.586" transform="translate(12.108)" fill="#da8b39"/>
      <rect id="Rectángulo_31530" data-name="Rectángulo 31530" width="80.718" height="56.586" fill="#fed947"/>
    </g>
    <g id="Grupo_82398" data-name="Grupo 82398" transform="translate(-5604.979 3901.175)">
      <rect id="Rectángulo_31531" data-name="Rectángulo 31531" width="76.832" height="16.672" transform="translate(11.241 0)" fill="#da8b39"/>
      <rect id="Rectángulo_31532" data-name="Rectángulo 31532" width="74.937" height="16.672" transform="translate(0 0)" fill="#fed947"/>
    </g>
    <g id="Grupo_82403" data-name="Grupo 82403" transform="translate(-5686.704 3733.725)">
      <g id="Grupo_82399" data-name="Grupo 82399" transform="translate(35.563)">
        <path id="Trazado_140898" data-name="Trazado 140898" d="M-4563.052,4358.273c8.617,8.17,17.614,18.849,21.147,29.735l1.369-.866a25.053,25.053,0,0,0-.461-4.931c.542,1.078,1.438,2.826,1.932,4l8.376-5.307-1.157-2.11a13.7,13.7,0,0,1,1.792,1.708l4.25-2.692,7.286-6.216-1.193-2.177a13.514,13.514,0,0,1,1.769,1.685l2.281-1.945,1.229-1.048.159-.135c-2.342-3.711-7.7-10.157-7.8-10.282,1.587.581,6.7,6.059,9.245,9.052l1.465-1.251c-9.236-15.391-20.938-20.851-30.288-22.6a14.063,14.063,0,0,1-3.429-1.1c-3.272-1.545-8.9-4.653-11.254-8.614-4.14-6.96-14.831-6.521-15.559-4.549,0,0-1.418,1.556-1.51,5.281C-4573.425,4334.659-4574.733,4347.2-4563.052,4358.273Z" transform="translate(4573.459 -4327.373)" fill="#20287a"/>
        <path id="Trazado_140899" data-name="Trazado 140899" d="M-4545.174,4408.963s2.728,5.067-.455,9.16c0,0,2.669,3.841,4.071,3.855,2.412.022,7.125-6.5,7.125-6.5a90.521,90.521,0,0,0-4.25-8.664Z" transform="translate(4550.71 -4392.312)" fill="#d4959a"/>
        <path id="Trazado_140900" data-name="Trazado 140900" d="M-4560.847,4362.2s8.98,1.588,9.883-4.02,2.67-9.18-3.025-10.431-7.157.709-7.914,2.507S-4563.16,4361.644-4560.847,4362.2Z" transform="translate(4564.53 -4343.708)" fill="#e5b0b4"/>
        <path id="Trazado_140901" data-name="Trazado 140901" d="M-4561.848,4336.779s11.816,9.1,10.829,15.211c-.927,5.746,4.82,4.57,6.237,4.415,5.324-.586,7.276-.611,10.106,1.077,1.061.633-4.72-5.679-6.757-8.3-5.421-6.962-7.428-12.662-8.51-13.34C-4557.315,4331.232-4561.848,4336.779-4561.848,4336.779Z" transform="translate(4563.968 -4332.8)" fill="#20287a"/>
      </g>
      <g id="Grupo_82400" data-name="Grupo 82400" transform="translate(42.138 60.665)">
        <path id="Trazado_140902" data-name="Trazado 140902" d="M-4298.356,5059.549l3.339,9-3.375,1.638-5.852-6.562Z" transform="translate(4346.819 -4986.541)" fill="#e5b0b4"/>
        <path id="Trazado_140903" data-name="Trazado 140903" d="M-4275.428,5093.045l2.569,3.128-6.464,9.661S-4282.013,5100.456-4275.428,5093.045Z" transform="translate(4326.893 -5013.921)" fill="#d25c2a"/>
        <path id="Trazado_140904" data-name="Trazado 140904" d="M-4537.443,4664.45l21.609-4.794s3.493,5.112,14.018,46.321l16.515,27.611-9.116,5.417-20.847-27.757Z" transform="translate(4537.443 -4659.656)" fill="#97181a"/>
      </g>
      <g id="Grupo_82401" data-name="Grupo 82401" transform="translate(0 21.548)">
        <path id="Trazado_140905" data-name="Trazado 140905" d="M-4762.22,4488.6l-.918-1.461a4.257,4.257,0,0,0-3.992-3.575s-1.479-.021-1.035.987.415.573,1.01,2a4,4,0,0,0,2.889,2.621l1.464,1.5Z" transform="translate(4768.249 -4476.596)" fill="#e5b0b4"/>
        <path id="Trazado_140906" data-name="Trazado 140906" d="M-4346.548,4623.9h0a1.1,1.1,0,0,1,.01-.144,25.262,25.262,0,0,0-.456-2.808l3.8.241c.051.022.559,1.139.736,1.479a.66.66,0,0,1,.069.243l.176,2.129a.566.566,0,0,1-.426.6l-.528.134a1.045,1.045,0,0,1-.186.047h0a1.037,1.037,0,0,1-.582-.076l-2-.892A1.043,1.043,0,0,1-4346.548,4623.9Z" transform="translate(4423.902 -4588.896)" fill="#e5b0b4"/>
        <path id="Trazado_140907" data-name="Trazado 140907" d="M-4748.2,4458.315a60.769,60.769,0,0,0,4.166,6.88c2.556,3.619,5.918,7.308,8.982,7.278,5.558-.055,16.318-11.331,16.342-11.291a.349.349,0,0,1,.045.16c.075.873-1.4,4,1.947,13.006,1.289,3.466,5.777,9.5,7,14.959l17.16-3.8,4.449-.989c-.2-.352-.6-1.161-1.376-2.86-1.019-2.239-2.534-5.445-2.534-8.836a72.857,72.857,0,0,1,.857-12.662s0-.009,0-.014a55.2,55.2,0,0,0,9.817,4.36s4.173,8.2,6.54,13.931c.274.665,3.969-.217,3.969-.217s-2.166-17.45-4.591-19.443c-4.416-3.627-11.571-12.144-19.526-13.2,0,0,.159-.56-7.039.317-1.154.14.3,4.61-4.835,5.161-4.759.51-3.162-3.745-3.12-3.856-.076.016-5.043,1.069-7,1.639-1.921.56-2.777.394-4.319,1.674a121.085,121.085,0,0,0-13.821,13.738,81.009,81.009,0,0,0-10.822-7.567Z" transform="translate(4751.861 -4445.398)" fill="#dde3f2"/>
        <path id="Trazado_140908" data-name="Trazado 140908" d="M-4470.688,4539.955c.416,1.665,2.953,4.92,4.925,6.911l4.449-.989c-.2-.352-.6-1.161-1.376-2.86-1.019-2.238-2.534-5.444-2.534-8.835a72.854,72.854,0,0,1,.857-12.662c-.537-.618-1.078-1.083-1.471-1.053C-4466.963,4520.552-4471.294,4537.529-4470.688,4539.955Z" transform="translate(4525.061 -4506.759)" fill="#ced4ea"/>
        <path id="Trazado_140909" data-name="Trazado 140909" d="M-4725.38,4517.284c2.555,3.619,5.918,7.307,8.982,7.278,5.558-.054,16.381-11.2,16.387-11.131.652-.854.553-3.109.33-4.173-.356-1.7-12.792,12.878-15.967,12.935S-4723.911,4516.819-4725.38,4517.284Z" transform="translate(4733.207 -4497.487)" fill="#ced4ea"/>
      </g>
      <g id="Grupo_82402" data-name="Grupo 82402" transform="translate(0.225 60.559)">
        <path id="Trazado_140910" data-name="Trazado 140910" d="M-4718.156,4957.894l-6.739,7.675-3.24-2.333,3.188-8.8Z" transform="translate(4735.233 -4900.512)" fill="#e5b0b4"/>
        <path id="Trazado_140911" data-name="Trazado 140911" d="M-4753.909,5002.512l-1.534,3.746-11.571-1.1S-4763.558,5000.233-4753.909,5002.512Z" transform="translate(4767.014 -4939.319)" fill="#d25c2a"/>
        <path id="Trazado_140912" data-name="Trazado 140912" d="M-4664.717,4675.441a24.143,24.143,0,0,0-3.8-12.342l.015-.005-3.156-4.018-19.414,4.48s3.7,3.288,1.82,4.923l-23.558,12.728-15.187,36.14,11.883,4.782,17.311-30.365S-4664.154,4686.973-4664.717,4675.441Z" transform="translate(4735.121 -4659.076)" fill="#d64626"/>
      </g>
    </g>
    <path id="Trazado_140913" data-name="Trazado 140913" d="M-5321.685,3682.613s-9.116,7.114-25.3,7.051c-13.17-.05-31.02-4.849-52.448-22.094a47.194,47.194,0,0,0-15.058-8.09c-.408-.133-.819-.261-1.229-.385q-.981-.294-1.967-.547-1.541-.4-3.087-.7-.194-.04-.388-.076c-.339-.065-.677-.128-1.017-.185-15.326-2.667-30.472.884-38.3,3.3-1.58.489-2.864.931-3.789,1.268-1.058.383-1.649.628-1.682.641l.5-.736,33.224-48.833s.665-.372,1.9-.946h0c.452-.209.979-.446,1.58-.7.866-.368,1.881-.774,3.034-1.2,11.7-4.274,37.535-10.042,64.052,8.32a89.277,89.277,0,0,1,12.492,10.536s15.591,14,43.114,3.649C-5306.051,3632.889-5327.5,3650.114-5321.685,3682.613Z" transform="translate(-348.132 -3.999)" fill="#d64626"/>
    <g id="Grupo_82404" data-name="Grupo 82404" transform="translate(-5838.088 3638.265)">
      <path id="Trazado_140914" data-name="Trazado 140914" d="M-5451.047,4114.313s47.782-1.822,53.87-10.249c0,0-22.249-10.683-17.173-33.268l-34.363-3.664S-5454.242,4106.573-5451.047,4114.313Z" transform="translate(5478.585 -4019.186)" fill="#5f0e0f"/>
      <path id="Trazado_140915" data-name="Trazado 140915" d="M-5035.345,4518.065l4.208-1.153,6.666,10.607S-5030.945,4527.8-5035.345,4518.065Z" transform="translate(5137.965 -4386.849)" fill="#20287a"/>
      <path id="Trazado_140916" data-name="Trazado 140916" d="M-5370.015,4699.716l1.924,3.916-9.165,8.542S-5378.752,4705.867-5370.015,4699.716Z" transform="translate(5417.533 -4536.278)" fill="#20287a"/>
      <path id="Trazado_140917" data-name="Trazado 140917" d="M-5218.926,3816.941l-.231-3.439a6.429,6.429,0,0,1-.826-8.052s1.287-1.826,2.124-.389.333,1.016,1.553,3.014a7.06,7.06,0,0,1,.229,5.771l.422,2.74Z" transform="translate(5289.761 -3804.51)" fill="#ad7041"/>
      <path id="Trazado_140918" data-name="Trazado 140918" d="M-5380.244,4011.951a12.736,12.736,0,0,0,1.008-5.542l7.711-5.3c.667,6.546,1.826,8.3,1.766,10.884C-5369.76,4012.06-5380.27,4012.019-5380.244,4011.951Z" transform="translate(5419.896 -3965.216)" fill="#9e5f32"/>
      <path id="Trazado_140919" data-name="Trazado 140919" d="M-5390.192,3961.388s9.124,2.241,10.432-3.462,3.367-9.255-2.4-10.927-7.4.244-8.3,2.041S-5392.532,3960.658-5390.192,3961.388Z" transform="translate(5429.151 -3920.459)" fill="#ad7041"/>
      <path id="Trazado_140920" data-name="Trazado 140920" d="M-5376.6,3939.432a9.593,9.593,0,0,0-7.922-9.626c-5.7-1.29-1.841-5.843-1.124-6.555,0,0,4.345,1.178,8.782,2.513C-5367.551,3928.565-5375.51,3938.359-5376.6,3939.432Z" transform="translate(5425.899 -3901.572)" fill="#2b295e"/>
      <path id="Trazado_140921" data-name="Trazado 140921" d="M-5484.058,4338.293s-7.865,14.377-10.541,19.339c-11.035,20.464-9.993,24.409-9.993,24.409s9.064,11.377,12.043,14.608c3.225,3.5,12.775,12.3,12.775,12.3l9.21-5.325s-6.325-10.4-8.9-13.866c-1.8-2.419-8.6-9.674-8.6-9.674s5.494-5.361,11.246-10.164c8.2-6.852,18.676-28.095,18.676-28.095Z" transform="translate(5521.563 -4240.84)" fill="#636363"/>
      <path id="Trazado_140922" data-name="Trazado 140922" d="M-5378.467,4290.064s14,53.667,20.054,56.255c10.49,4.483,46.4-9.018,46.4-9.018l-2.758-9.042s-9.273.121-16.014.237c-4.75.082-14.456,2.158-14.456,2.158s-3.183-29.761-8.337-38.359C-5361.589,4278.93-5378.467,4290.064-5378.467,4290.064Z" transform="translate(5418.443 -4197.862)" fill="#afafaf"/>
      <path id="Trazado_140923" data-name="Trazado 140923" d="M-5436.774,4096.392a1.309,1.309,0,0,0,1.235.874,157.245,157.245,0,0,0,15.84,1.263c.6,0,1.167-.012,1.689-.04a91.457,91.457,0,0,0,11.6-1.224,1.14,1.14,0,0,0,.874-1.874,39.37,39.37,0,0,1-5.555-9.792c-3.053-7.113-.874-21.151,1.207-30.736,1.261-5.809,2.484-9.981,2.484-9.981-4.238-1.538-10.044-2.126-15.683-2.368-.855.468-4.337,2.532-7.579,1.915-1.72-.328-1.82-1-1.67-1.406-7.793.237-9.037,3.515-9.037,3.515C-5450.88,4064.069-5438.6,4091.223-5436.774,4096.392Z" transform="translate(5472.783 -3999.062)" fill="#dde3f2"/>
      <path id="Trazado_140924" data-name="Trazado 140924" d="M-5313.014,3893.311s9.579-7.138,12.205-9.824l6.528-25.394,3.178-.048s1.5,24.852.9,26.619c-3.107,9.021-18.4,23.371-18.4,23.371Z" transform="translate(5364.94 -3848.271)" fill="#dde3f2"/>
      <path id="Trazado_140925" data-name="Trazado 140925" d="M-5309.022,4153.781c-.021.013-.04.024-.06.039.6,0,1.167-.012,1.689-.039a91.344,91.344,0,0,0,11.6-1.224,1.14,1.14,0,0,0,.874-1.874,39.357,39.357,0,0,1-5.555-9.792c-3.053-7.112-.874-21.151,1.207-30.736l-9.152.447s-2.527,19.784-.24,27.524S-5306.878,4152.481-5309.022,4153.781Z" transform="translate(5362.166 -4054.354)" fill="#ced4ea"/>
      <path id="Trazado_140926" data-name="Trazado 140926" d="M-5321.425,3893.854s7.74,46.873,23.835,56.7c0,0,10.136-11.119,9.215-14.252,0,0-17.7-13.672-18.25-19.792s-1.342-13.339-.955-13.772,10.3-11.661,10.5-15.219.968-25.98.968-25.98-4.455.417-5.713,0c0,0-5.456,23.636-6.557,25.044s-9.024,8.168-9.926,7.852S-5320.931,3893.237-5321.425,3893.854Z" transform="translate(5371.815 -3851.128)" fill="#97181a"/>
      <path id="Trazado_140927" data-name="Trazado 140927" d="M-5572.727,4069.581c.717-1.289-1.241,11.085-.935,16.981.011.216.023.43.037.64,0,.059.006.116.01.174a44.829,44.829,0,0,0,1.346,9.056s5.7,2.639,8.115,2.325c0,0-8.138-24.531-4.2-40.7,0,0,6.226-11.926,10.445-12.8l-10.824,2.165s-6.347,8.142-8.193,10.994c-1.54,2.38-5.348,9.933-5.348,9.933l-5.858-6.664-6.325-5.773-2.971,2.632s7.386,20.248,16.3,20.629C-5580.241,4079.213-5577.439,4078.06-5572.727,4069.581Z" transform="translate(5597.432 -4001.305)" fill="#97181a"/>
      <path id="Trazado_140928" data-name="Trazado 140928" d="M-5321.475,4038.532s4.055,6.266,4.792,6.942l-1.207,1.6,1.575.765s.819,15.517,1.557,17.744C-5314.758,4065.58-5321.8,4040.232-5321.475,4038.532Z" transform="translate(5371.865 -3995.806)" fill="#d64626"/>
      <path id="Trazado_140929" data-name="Trazado 140929" d="M-5432.741,4044.125c.165.026-10.941,9.3-11.957,18.233,0,0-1.355-2.4,1.409-8.486a42.766,42.766,0,0,0,2.027-5.775l2.026-.061-1.412-.676s5.7-3.638,6.729-3.511A3.183,3.183,0,0,1-5432.741,4044.125Z" transform="translate(5472.854 -4000.151)" fill="#d64626"/>
      <path id="Trazado_140930" data-name="Trazado 140930" d="M-5221.516,4247.176a8.689,8.689,0,0,0,3.776-3.268,20.379,20.379,0,0,0,1.577-2.505h0c-.023.047-2.646,4.585-5.434,5.541Z" transform="translate(5290.212 -4161.639)" fill="#2b295e"/>
      <path id="Trazado_140931" data-name="Trazado 140931" d="M-5467.035,4275c0,.059.006.117.01.175a7.62,7.62,0,0,0,4.008.366l-.061-.238a4.951,4.951,0,0,1-1.191.132A10.618,10.618,0,0,1-5467.035,4275Z" transform="translate(5490.841 -4189.103)" fill="#2b295e"/>
      <path id="Trazado_140932" data-name="Trazado 140932" d="M-5261.531,4371.315c.123.368,4.423,23.958,5.037,28.381l.737,3.932s-.062,1.9,1.29,1.6,15.174-1.961,18.614-2.025,14.5-.617,14.5-.617-11.508.84-12.368.84a20.929,20.929,0,0,0-2.949.123c-.491.123-13.76.968-16.054,1.712s-3.031.362-3.031,0a12.594,12.594,0,0,0-.614-2.654c-.287-.737-1.72-11.017-2.027-12.03S-5261.531,4371.315-5261.531,4371.315Z" transform="translate(5322.856 -4267.834)" fill="#2b295e"/>
      <path id="Trazado_140933" data-name="Trazado 140933" d="M-5306.522,4361.16c.329,0,.52-.016.529-.017l-.034-.367a11.264,11.264,0,0,1-8.333-2.505h0A11.993,11.993,0,0,0-5306.522,4361.16Z" transform="translate(5366.04 -4257.171)" fill="#2b295e"/>
    </g>
    <g id="Grupo_82405" data-name="Grupo 82405" transform="translate(-5857.713 3601.135)">
      <path id="Trazado_140934" data-name="Trazado 140934" d="M-5623.177,3604.27l-2.488,4.011h0l-30.157,48.606-.93,1.5-22.908,36.921-3.391,5.464-16.82,27.11-5.051-3.134,19.082-30.757,3.955-6.375,18.47-29.769,35.186-56.712Z" transform="translate(5704.923 -3601.136)" fill="#edcb76"/>
      <path id="Trazado_140935" data-name="Trazado 140935" d="M-5602.483,4073.4s-2.038-1.443-4.415,1.443a3.225,3.225,0,0,0,.414,4.9S-5603.163,4080.11-5602.483,4073.4Z" transform="translate(5625.579 -3986.887)" fill="#ad7041"/>
    </g>
    <g id="Grupo_82414" data-name="Grupo 82414" transform="translate(-5532.037 3739.061)">
      <g id="Grupo_82406" data-name="Grupo 82406" transform="translate(0 79.298)">
        <path id="Trazado_140936" data-name="Trazado 140936" d="M-3903.674,5214.184l-2.392,4.592-15.011-2.711S-3916.052,5210.2-3903.674,5214.184Z" transform="translate(3921.077 -5135.778)" fill="#221e50"/>
        <path id="Trazado_140937" data-name="Trazado 140937" d="M-3853.1,4790.943l-25.188,29.178-13.343,47.429,12.947,3.7,17.049-38.966s14.917-13.568,18.032-16.249c5.056-4.35,15.43-23.393,15.43-23.393Z" transform="translate(3897.006 -4790.943)" fill="#636363"/>
      </g>
      <g id="Grupo_82407" data-name="Grupo 82407" transform="translate(16.321 26.918)">
        <path id="Trazado_140938" data-name="Trazado 140938" d="M-3824.141,4794.362l-2.261,1.718a7,7,0,0,0-5.279,7.063s.18,2.428,1.768,1.553.879-.763,3.139-1.948,3.9-3.285,3.877-5.114l2.246-2.617Z" transform="translate(3831.681 -4741.358)" fill="#e5b0b4"/>
        <path id="Trazado_140939" data-name="Trazado 140939" d="M-3774.885,4504.042l-3.609,15.946-4.934,21.793-8.721,11.935-4.666,6.385-4.36-2.377,8.984-19.421c.826-8.456,5.354-29.53,7.134-30.783C-3781.931,4505.318-3774.885,4504.042-3774.885,4504.042Z" transform="translate(3806.745 -4504.042)" fill="#2a94ee"/>
        <path id="Trazado_140940" data-name="Trazado 140940" d="M-3738.083,4563.622l-4.934,21.794-8.721,11.935c1.029-4.78,6.274-10.931,7.356-12.375,1.189-1.585-1.718-23.12,1.586-26.687s4.624,5.021,4.624,5.021Z" transform="translate(3766.333 -4547.676)" fill="#dc8d39" opacity="0.2"/>
      </g>
      <g id="Grupo_82408" data-name="Grupo 82408" transform="translate(45.818)">
        <path id="Trazado_140941" data-name="Trazado 140941" d="M-3653.218,4445.142a80.541,80.541,0,0,1,1.656,9.184s4.82,4.167,6.825,3.787c1.742-.329,3.771-5.859,3.771-5.859s-1.92-2.728-3.816-10.485Z" transform="translate(3656.303 -4426.219)" fill="#d4959a"/>
        <path id="Trazado_140942" data-name="Trazado 140942" d="M-3667.143,4405.787s9.62,2.021,10.785-3.99,3.193-9.8-2.9-11.341-7.734.518-8.611,2.429S-3669.616,4405.107-3667.143,4405.787Z" transform="translate(3669.009 -4383.833)" fill="#e5b0b4"/>
        <path id="Trazado_140943" data-name="Trazado 140943" d="M-3657.462,4374.565s.587-8.177-8.094-9.293-3.617-8.674,4-8.67c0,0-1.243,2.751,3.351,3.965C-3648.567,4363.116-3656.384,4373.429-3657.462,4374.565Z" transform="translate(3670.114 -4356.602)" fill="#555ca3"/>
      </g>
      <g id="Grupo_82412" data-name="Grupo 82412" transform="translate(45.671 79.323)">
        <path id="Trazado_140944" data-name="Trazado 140944" d="M-3550.786,5306.994l-1.537,4.944h-15.254S-3563.675,5305.269-3550.786,5306.994Z" transform="translate(3586.445 -5212.571)" fill="#221e50"/>
        <path id="Trazado_140945" data-name="Trazado 140945" d="M-3633.886,4886.115s-6.187-78.828-13.872-93.361l-23.164-1.673.44,14.268a8.927,8.927,0,0,1,3.77,3.6l19.769,77.013Z" transform="translate(3670.922 -4791.081)" fill="#afafaf"/>
        <g id="Grupo_82409" data-name="Grupo 82409" transform="translate(13.236 6.796)">
          <path id="Trazado_140946" data-name="Trazado 140946" d="M-3588.794,4833.394a11.344,11.344,0,0,1-9.632-4.906l.309-.181a19.042,19.042,0,0,0,4.489,3.773A11.88,11.88,0,0,0-3588.794,4833.394Z" transform="translate(3598.426 -4828.307)" fill="#221e50"/>
        </g>
        <g id="Grupo_82411" data-name="Grupo 82411" transform="translate(22.367 16.881)">
          <g id="Grupo_82410" data-name="Grupo 82410">
            <path id="Trazado_140947" data-name="Trazado 140947" d="M-3538.2,4954.917c-.127-7.151-.658-15.572-1.643-24.286-.151-1.332-.314-2.7-.485-4.069-.189-1.509-.389-3.036-.595-4.538a6.936,6.936,0,0,0-.547-1.637,6.679,6.679,0,0,1-.507-1.486c-.824-5.705-1.824-10.889-2.707-15.461q-.348-1.8-.676-3.526c-1.965-10.4-3.043-16.308-3.05-16.366h0c.007.059.747,5.988,2.715,16.408q.327,1.729.676,3.526c.882,4.569,1.881,9.748,2.7,15.443a6.941,6.941,0,0,0,.535,1.588,6.671,6.671,0,0,1,.518,1.532c.206,1.5.406,3.026.594,4.534.17,1.366.333,2.734.484,4.064.984,8.7,1.761,17.157,1.888,24.295Z" transform="translate(3548.41 -4883.547)" fill="#2b295e"/>
          </g>
        </g>
      </g>
      <g id="Grupo_82413" data-name="Grupo 82413" transform="translate(38.001 26.034)">
        <path id="Trazado_140948" data-name="Trazado 140948" d="M-3681.086,4556.806c-.153.055-3.369,2.246-18.1.264-3.267-.439-6.853-.634-8.323-4.712-3.036-9.782-5.578-48.728-5.417-48.794a45.261,45.261,0,0,1,12.32-3.9,4.256,4.256,0,0,0,3.577,2.223c2.229.063,5.5-1.659,7.249-2.688a48.856,48.856,0,0,1,6.976,1.06c.224.05,1.074,8.934,1.649,19.558.17,3.156.317,6.466.415,9.744C-3680.358,4542.285-3678.633,4555.917-3681.086,4556.806Z" transform="translate(3712.933 -4499.201)" fill="#2a94ee"/>
        <path id="Trazado_140949" data-name="Trazado 140949" d="M-3568.678,4612.034c-2.358,1.077-6.955,2.75-7.15-.434-.264-4.294,3.237-11.23,4.624-11.494.808-.155,1.6,1.106,2.111,2.185C-3568.923,4605.446-3568.776,4608.756-3568.678,4612.034Z" transform="translate(3600.871 -4581.672)" fill="#dc8d39" opacity="0.2"/>
        <rect id="Rectángulo_31533" data-name="Rectángulo 31533" width="21.48" height="28.587" transform="matrix(0.914, -0.405, 0.405, 0.914, 11.352, 34.151)" fill="#d25c2a"/>
        <path id="Trazado_140950" data-name="Trazado 140950" d="M-3626.778,4737.27l-.7.875a7.048,7.048,0,0,0-8.632,2.05s-1.426,1.991.364,2.339,1.172-.022,3.68.521,5.126-.025,6.292-1.45l1.285-1.591Z" transform="translate(3650.578 -4693.806)" fill="#e5b0b4"/>
        <path id="Trazado_140951" data-name="Trazado 140951" d="M-3586.588,4499.2s10.019.081,11.358,1.072,14.729,23.185,14.952,31.706c0,0-8.308,8.775-23.483,13.928l-3.039-3.072s11.441-11.571,16.9-13.685c0,0-9.026-9.16-11.01-14.092S-3586.588,4499.2-3586.588,4499.2Z" transform="translate(3609.828 -4499.201)" fill="#2a94ee"/>
      </g>
    </g>
    <path id="Trazado_140952" data-name="Trazado 140952" d="M-5421.118,5336.14h-175.046c-.61-.023-1.237-.038-1.891-.038h-277.236a1.126,1.126,0,0,0-.127-.026h-15.122a1.3,1.3,0,0,0-1.29,1.266s-.008.008-.008.012v.078c0,.008.014.016.015.023a1.3,1.3,0,0,0,1.283,1.228h292.485c.416,0,.815-.009,1.214-.019h175.723a1.257,1.257,0,0,0,1.28-1.224v-.076A1.257,1.257,0,0,0-5421.118,5336.14Z" transform="translate(0 -1418.192)" fill="#b7bed4"/>
  </g>
</svg>
