<svg xmlns="http://www.w3.org/2000/svg" width="725.617" height="57.063" viewBox="0 0 725.617 57.063">
  <g id="Grupo_82930" data-name="Grupo 82930" transform="translate(-517.02 -9331.07)">
    <path id="Trazado_141832" data-name="Trazado 141832" d="M4.2-4.834,3.359,0H.02L2.48-14.219l5.107.01a5.148,5.148,0,0,1,3.735,1.317,4.058,4.058,0,0,1,1.2,3.414A4.642,4.642,0,0,1,11.6-6.99,5.084,5.084,0,0,1,9.487-5.38a7.484,7.484,0,0,1-2.944.556Zm.459-2.637,2.012.02a2.482,2.482,0,0,0,1.943-.827,2.463,2.463,0,0,0,.537-1.963,1.5,1.5,0,0,0-.454-.945,1.556,1.556,0,0,0-.991-.387l-2.334-.01Zm15.566-.117a9.192,9.192,0,0,0-1-.1,2.481,2.481,0,0,0-2.207,1L15.83,0H12.617l1.836-10.566,3-.01-.244,1.387a2.933,2.933,0,0,1,2.441-1.6,4.6,4.6,0,0,1,1,.137ZM25.3.2a4.912,4.912,0,0,1-2.524-.669A4.215,4.215,0,0,1,21.1-2.31,4.933,4.933,0,0,1,20.654-4.9l.029-.273A6.477,6.477,0,0,1,22.5-9.3a5.011,5.011,0,0,1,3.794-1.46,4.086,4.086,0,0,1,2.324.689,3.853,3.853,0,0,1,1.416,1.848,5.662,5.662,0,0,1,.293,2.646l-.186,1.34H23.848a2.06,2.06,0,0,0,.469,1.348,1.722,1.722,0,0,0,1.309.547,3.325,3.325,0,0,0,2.51-1.074l1.348,1.782A3.976,3.976,0,0,1,27.817-.306a5.848,5.848,0,0,1-2.339.5Zm.781-8.418A1.653,1.653,0,0,0,24.9-7.8a3.588,3.588,0,0,0-.874,1.5h3.213l.059-.282a2.143,2.143,0,0,0,.02-.641A1.131,1.131,0,0,0,26.084-8.223Zm9.521,5.879a1.382,1.382,0,0,0,1.084-.383,1.907,1.907,0,0,0,.5-1.043l3.008-.01a3.954,3.954,0,0,1-.688,2.08,4.161,4.161,0,0,1-1.7,1.421A5.023,5.023,0,0,1,35.518.2a3.967,3.967,0,0,1-3.252-1.519,5.251,5.251,0,0,1-.928-3.823l.029-.234a7.079,7.079,0,0,1,.9-2.837,5.14,5.14,0,0,1,1.9-1.909,4.926,4.926,0,0,1,2.632-.635,3.929,3.929,0,0,1,2.915,1.177,4.173,4.173,0,0,1,1.03,3.071l-3.008-.01q.049-1.67-1.2-1.7-1.7-.059-1.953,2.852l-.088.993-.01.37Q34.482-2.373,35.605-2.344ZM44.277,0H41.055l1.836-10.566h3.223Zm-1.1-13.232a1.49,1.49,0,0,1,.5-1.191,1.806,1.806,0,0,1,1.265-.479,1.864,1.864,0,0,1,1.255.43,1.464,1.464,0,0,1,.522,1.123,1.493,1.493,0,0,1-.5,1.2,1.811,1.811,0,0,1-1.27.474,1.887,1.887,0,0,1-1.245-.425A1.447,1.447,0,0,1,43.174-13.232Zm9.307,2.471a4.438,4.438,0,0,1,2.451.708A3.989,3.989,0,0,1,56.45-8.135,5.922,5.922,0,0,1,56.8-5.4l-.02.215A6.262,6.262,0,0,1,54.971-1.26,5.083,5.083,0,0,1,51.182.2,4.419,4.419,0,0,1,48.75-.5a4.014,4.014,0,0,1-1.519-1.9,5.755,5.755,0,0,1-.356-2.715,6.514,6.514,0,0,1,1.782-4.141A5.052,5.052,0,0,1,52.48-10.762ZM50.088-5.113l-.029.575q-.137,2.174,1.328,2.213,1.895.059,2.2-3.071l.039-.887a2.394,2.394,0,0,0-.327-1.4,1.192,1.192,0,0,0-1.021-.541,1.68,1.68,0,0,0-1.46.726A4.753,4.753,0,0,0,50.088-5.113ZM67.5.2a4.912,4.912,0,0,1-2.524-.669A4.215,4.215,0,0,1,63.3-2.31,4.933,4.933,0,0,1,62.852-4.9l.029-.273A6.477,6.477,0,0,1,64.692-9.3a5.011,5.011,0,0,1,3.794-1.46,4.086,4.086,0,0,1,2.324.689,3.853,3.853,0,0,1,1.416,1.848,5.662,5.662,0,0,1,.293,2.646l-.186,1.34H66.045a2.06,2.06,0,0,0,.469,1.348,1.722,1.722,0,0,0,1.309.547,3.325,3.325,0,0,0,2.51-1.074L71.68-1.636A3.976,3.976,0,0,1,70.015-.306a5.848,5.848,0,0,1-2.339.5Zm.781-8.418a1.653,1.653,0,0,0-1.187.427,3.588,3.588,0,0,0-.874,1.5h3.213l.059-.282a2.143,2.143,0,0,0,.02-.641A1.131,1.131,0,0,0,68.281-8.223ZM76.3,0H73.076l2.6-15H78.9Zm8,0a2.865,2.865,0,0,1-.137-.957A3.259,3.259,0,0,1,81.572.2a3.184,3.184,0,0,1-2.285-.918,2.759,2.759,0,0,1-.85-2.178,3.1,3.1,0,0,1,1.436-2.642,6.768,6.768,0,0,1,3.789-.923l1.074.02.117-.6.039-.518A.839.839,0,0,0,84-8.477a1.235,1.235,0,0,0-1.3,1.162l-3.223.01a3.061,3.061,0,0,1,.693-1.851,4.109,4.109,0,0,1,1.753-1.211,6.125,6.125,0,0,1,2.358-.4,4.723,4.723,0,0,1,2.1.5A3.133,3.133,0,0,1,87.744-8.94a3.368,3.368,0,0,1,.342,1.948l-.791,4.971-.049.605a2.669,2.669,0,0,0,.186,1.23L87.422,0ZM82.461-2.129A2.072,2.072,0,0,0,84.189-3l.322-1.7-.83-.01a2.188,2.188,0,0,0-1.328.454A1.722,1.722,0,0,0,81.7-3.066a.865.865,0,0,0,.151.659A.773.773,0,0,0,82.461-2.129Zm12.227-.9q.127-.645-1-.967L93-4.17a5.34,5.34,0,0,1-2.49-1.26,2.494,2.494,0,0,1-.742-1.924,3.065,3.065,0,0,1,1.353-2.476,5.148,5.148,0,0,1,3.179-.933,4.769,4.769,0,0,1,3.022.947,3.09,3.09,0,0,1,1.177,2.5l-3.2-.01q.039-1.25-1.1-1.25a1.574,1.574,0,0,0-.908.288,1.119,1.119,0,0,0-.5.767q-.166.791,1.4,1.084a8.116,8.116,0,0,1,2.1.747,3.135,3.135,0,0,1,1.133,1.05,2.611,2.611,0,0,1,.361,1.5,2.824,2.824,0,0,1-.625,1.709,4.047,4.047,0,0,1-1.724,1.2A6.174,6.174,0,0,1,92.979.2a4.965,4.965,0,0,1-2.124-.479,3.787,3.787,0,0,1-1.533-1.274,3.31,3.31,0,0,1-.571-1.851l2.988.02A1.234,1.234,0,0,0,93.145-2a1.846,1.846,0,0,0,1.016-.269A1.161,1.161,0,0,0,94.688-3.027Zm10.107-10.166-.459,2.627h1.689l-.4,2.285h-1.689l-.82,4.854a1.294,1.294,0,0,0,.063.752q.132.254.659.273a7.637,7.637,0,0,0,.84-.049l-.234,2.383a5.192,5.192,0,0,1-1.729.244A2.847,2.847,0,0,1,100.479-.7a3,3,0,0,1-.605-2.334l.859-5.244H99.424l.391-2.285h1.309l.459-2.627ZM108.916,0h-3.223l1.836-10.566h3.223Zm-1.1-13.232a1.49,1.49,0,0,1,.5-1.191,1.806,1.806,0,0,1,1.265-.479,1.864,1.864,0,0,1,1.255.43,1.464,1.464,0,0,1,.522,1.123,1.493,1.493,0,0,1-.5,1.2,1.811,1.811,0,0,1-1.27.474,1.887,1.887,0,0,1-1.245-.425A1.447,1.447,0,0,1,107.813-13.232ZM115.85-2.344a1.382,1.382,0,0,0,1.084-.383,1.907,1.907,0,0,0,.5-1.043l3.008-.01a3.954,3.954,0,0,1-.688,2.08,4.161,4.161,0,0,1-1.7,1.421,5.023,5.023,0,0,1-2.29.474,3.967,3.967,0,0,1-3.252-1.519,5.251,5.251,0,0,1-.928-3.823l.029-.234a7.079,7.079,0,0,1,.9-2.837,5.14,5.14,0,0,1,1.9-1.909,4.926,4.926,0,0,1,2.632-.635,3.929,3.929,0,0,1,2.915,1.177,4.173,4.173,0,0,1,1.03,3.071l-3.008-.01q.049-1.67-1.2-1.7-1.7-.059-1.953,2.852l-.088.993-.01.37Q114.727-2.373,115.85-2.344ZM124.521,0H121.3l1.836-10.566h3.223Zm-1.1-13.232a1.49,1.49,0,0,1,.5-1.191,1.806,1.806,0,0,1,1.265-.479,1.864,1.864,0,0,1,1.255.43,1.464,1.464,0,0,1,.522,1.123,1.493,1.493,0,0,1-.5,1.2,1.811,1.811,0,0,1-1.27.474,1.887,1.887,0,0,1-1.245-.425A1.447,1.447,0,0,1,123.418-13.232ZM127.09-5.3a7.685,7.685,0,0,1,1.523-4,3.775,3.775,0,0,1,3.184-1.455,2.88,2.88,0,0,1,2.236,1.133L135.059-15h3.223l-2.6,15h-2.861l.137-1.143A3.3,3.3,0,0,1,130.332.205a2.911,2.911,0,0,1-2.388-1.128,4.974,4.974,0,0,1-.923-2.974,9.146,9.146,0,0,1,.039-1.2Zm3.2.225a7.669,7.669,0,0,0-.068,1.094q0,1.621,1.094,1.65a2.049,2.049,0,0,0,1.689-.908l.723-4.053a1.3,1.3,0,0,0-1.289-.928,1.643,1.643,0,0,0-1.45.776A5.007,5.007,0,0,0,130.293-5.078ZM143.525,0a2.865,2.865,0,0,1-.137-.957A3.259,3.259,0,0,1,140.8.2a3.184,3.184,0,0,1-2.285-.918,2.759,2.759,0,0,1-.85-2.178A3.1,3.1,0,0,1,139.1-5.542a6.768,6.768,0,0,1,3.789-.923l1.074.02.117-.6.039-.518a.839.839,0,0,0-.889-.918,1.235,1.235,0,0,0-1.3,1.162l-3.223.01a3.06,3.06,0,0,1,.693-1.851,4.109,4.109,0,0,1,1.753-1.211,6.125,6.125,0,0,1,2.358-.4,4.723,4.723,0,0,1,2.1.5,3.133,3.133,0,0,1,1.353,1.318,3.368,3.368,0,0,1,.342,1.948l-.791,4.971-.049.605a2.669,2.669,0,0,0,.186,1.23L146.65,0Zm-1.836-2.129A2.072,2.072,0,0,0,143.418-3l.322-1.7-.83-.01a2.188,2.188,0,0,0-1.328.454,1.722,1.722,0,0,0-.654,1.187.865.865,0,0,0,.151.659A.773.773,0,0,0,141.689-2.129Zm6.8-3.174a7.685,7.685,0,0,1,1.523-4,3.775,3.775,0,0,1,3.184-1.455,2.88,2.88,0,0,1,2.236,1.133L156.455-15h3.223l-2.6,15h-2.861l.137-1.143A3.3,3.3,0,0,1,151.729.205a2.911,2.911,0,0,1-2.388-1.128,4.974,4.974,0,0,1-.923-2.974,9.147,9.147,0,0,1,.039-1.2Zm3.2.225a7.669,7.669,0,0,0-.068,1.094q0,1.621,1.094,1.65a2.049,2.049,0,0,0,1.689-.908l.723-4.053a1.3,1.3,0,0,0-1.289-.928,1.643,1.643,0,0,0-1.45.776A5.007,5.007,0,0,0,151.689-5.078ZM164.424-5.3a7.685,7.685,0,0,1,1.523-4,3.775,3.775,0,0,1,3.184-1.455,2.88,2.88,0,0,1,2.236,1.133L172.393-15h3.223l-2.6,15h-2.861l.137-1.143A3.3,3.3,0,0,1,167.666.205a2.911,2.911,0,0,1-2.388-1.128,4.974,4.974,0,0,1-.923-2.974,9.147,9.147,0,0,1,.039-1.2Zm3.2.225a7.669,7.669,0,0,0-.068,1.094q0,1.621,1.094,1.65a2.049,2.049,0,0,0,1.689-.908l.723-4.053a1.3,1.3,0,0,0-1.289-.928,1.643,1.643,0,0,0-1.45.776A5.007,5.007,0,0,0,167.627-5.078ZM180.156.2a4.912,4.912,0,0,1-2.524-.669,4.215,4.215,0,0,1-1.675-1.836,4.933,4.933,0,0,1-.449-2.593l.029-.273A6.477,6.477,0,0,1,177.349-9.3a5.011,5.011,0,0,1,3.794-1.46,4.086,4.086,0,0,1,2.324.689,3.853,3.853,0,0,1,1.416,1.848,5.661,5.661,0,0,1,.293,2.646l-.186,1.34H178.7a2.06,2.06,0,0,0,.469,1.348,1.722,1.722,0,0,0,1.309.547,3.325,3.325,0,0,0,2.51-1.074l1.348,1.782a3.976,3.976,0,0,1-1.665,1.329,5.848,5.848,0,0,1-2.339.5Zm.781-8.418a1.653,1.653,0,0,0-1.187.427,3.588,3.588,0,0,0-.874,1.5h3.213l.059-.282a2.143,2.143,0,0,0,.02-.641A1.131,1.131,0,0,0,180.938-8.223ZM193.887,0h-3.223l2.6-15h3.223Zm8,0a2.865,2.865,0,0,1-.137-.957A3.259,3.259,0,0,1,199.16.2a3.184,3.184,0,0,1-2.285-.918,2.759,2.759,0,0,1-.85-2.178,3.1,3.1,0,0,1,1.436-2.642,6.768,6.768,0,0,1,3.789-.923l1.074.02.117-.6.039-.518a.839.839,0,0,0-.889-.918,1.235,1.235,0,0,0-1.3,1.162l-3.223.01a3.06,3.06,0,0,1,.693-1.851,4.109,4.109,0,0,1,1.753-1.211,6.125,6.125,0,0,1,2.358-.4,4.723,4.723,0,0,1,2.1.5,3.133,3.133,0,0,1,1.353,1.318,3.368,3.368,0,0,1,.342,1.948l-.791,4.971-.049.605a2.669,2.669,0,0,0,.186,1.23L205.01,0Zm-1.836-2.129A2.072,2.072,0,0,0,201.777-3l.322-1.7-.83-.01a2.188,2.188,0,0,0-1.328.454,1.722,1.722,0,0,0-.654,1.187.865.865,0,0,0,.151.659A.773.773,0,0,0,200.049-2.129ZM211.777-5.3a7.685,7.685,0,0,1,1.523-4,3.775,3.775,0,0,1,3.184-1.455,2.88,2.88,0,0,1,2.236,1.133L219.746-15h3.223l-2.6,15H217.51l.137-1.143A3.3,3.3,0,0,1,215.02.205a2.911,2.911,0,0,1-2.388-1.128,4.974,4.974,0,0,1-.923-2.974,9.147,9.147,0,0,1,.039-1.2Zm3.2.225a7.669,7.669,0,0,0-.068,1.094q0,1.621,1.094,1.65a2.049,2.049,0,0,0,1.689-.908l.723-4.053a1.3,1.3,0,0,0-1.289-.928,1.643,1.643,0,0,0-1.45.776A5.007,5.007,0,0,0,214.98-5.078ZM227.51.2a4.912,4.912,0,0,1-2.524-.669,4.215,4.215,0,0,1-1.675-1.836,4.933,4.933,0,0,1-.449-2.593l.029-.273A6.477,6.477,0,0,1,224.7-9.3a5.011,5.011,0,0,1,3.794-1.46,4.086,4.086,0,0,1,2.324.689,3.853,3.853,0,0,1,1.416,1.848,5.661,5.661,0,0,1,.293,2.646l-.186,1.34h-6.289a2.06,2.06,0,0,0,.469,1.348,1.722,1.722,0,0,0,1.309.547,3.325,3.325,0,0,0,2.51-1.074l1.348,1.782a3.976,3.976,0,0,1-1.665,1.329,5.848,5.848,0,0,1-2.339.5Zm.781-8.418A1.653,1.653,0,0,0,227.1-7.8a3.588,3.588,0,0,0-.874,1.5h3.213l.059-.282a2.143,2.143,0,0,0,.02-.641A1.131,1.131,0,0,0,228.291-8.223Zm9.473-2.354-.215,1.27a3.793,3.793,0,0,1,3.086-1.455,2.788,2.788,0,0,1,1.572.449,2.047,2.047,0,0,1,.82,1.143,4.022,4.022,0,0,1,3.213-1.592,2.49,2.49,0,0,1,2.173,1.1,4.575,4.575,0,0,1,.513,3.013L247.822,0H244.6l1.123-6.652.039-.576q0-.966-.908-.995a2.08,2.08,0,0,0-1.582.868L241.992,0H238.77l1.113-6.633.039-.585q0-1-.908-1a2.066,2.066,0,0,0-1.562.868L236.152,0h-3.213l1.836-10.566ZM255.684,0a2.865,2.865,0,0,1-.137-.957A3.259,3.259,0,0,1,252.959.2a3.184,3.184,0,0,1-2.285-.918,2.759,2.759,0,0,1-.85-2.178,3.1,3.1,0,0,1,1.436-2.642,6.768,6.768,0,0,1,3.789-.923l1.074.02.117-.6.039-.518a.839.839,0,0,0-.889-.918,1.235,1.235,0,0,0-1.3,1.162l-3.223.01a3.06,3.06,0,0,1,.693-1.851,4.109,4.109,0,0,1,1.753-1.211,6.125,6.125,0,0,1,2.358-.4,4.723,4.723,0,0,1,2.1.5,3.133,3.133,0,0,1,1.353,1.318,3.368,3.368,0,0,1,.342,1.948l-.791,4.971-.049.605a2.669,2.669,0,0,0,.186,1.23l-.01.186Zm-1.836-2.129A2.072,2.072,0,0,0,255.576-3l.322-1.7-.83-.01a2.188,2.188,0,0,0-1.328.454,1.722,1.722,0,0,0-.654,1.187.865.865,0,0,0,.151.659A.773.773,0,0,0,253.848-2.129Zm11.035-8.447-.225,1.27a3.756,3.756,0,0,1,3.057-1.465A2.523,2.523,0,0,1,269.9-9.683a4.557,4.557,0,0,1,.522,3.032L269.307,0h-3.223l1.123-6.678a3.454,3.454,0,0,0,.02-.626q-.068-.929-1.094-.929a2.008,2.008,0,0,0-1.553.753L263.262,0h-3.213l1.836-10.566Zm6.8,5.273a7.685,7.685,0,0,1,1.523-4,3.775,3.775,0,0,1,3.184-1.455,2.88,2.88,0,0,1,2.236,1.133L279.648-15h3.223l-2.6,15h-2.861l.137-1.143A3.3,3.3,0,0,1,274.922.205a2.911,2.911,0,0,1-2.388-1.128,4.974,4.974,0,0,1-.923-2.974,9.144,9.144,0,0,1,.039-1.2Zm3.2.225a7.669,7.669,0,0,0-.068,1.094q0,1.621,1.094,1.65a2.049,2.049,0,0,0,1.689-.908l.723-4.053a1.3,1.3,0,0,0-1.289-.928,1.643,1.643,0,0,0-1.45.776A5.008,5.008,0,0,0,274.883-5.078ZM288.115,0a2.865,2.865,0,0,1-.137-.957A3.259,3.259,0,0,1,285.391.2a3.184,3.184,0,0,1-2.285-.918,2.759,2.759,0,0,1-.85-2.178,3.1,3.1,0,0,1,1.436-2.642,6.768,6.768,0,0,1,3.789-.923l1.074.02.117-.6.039-.518a.839.839,0,0,0-.889-.918,1.235,1.235,0,0,0-1.3,1.162L283.3-7.3a3.061,3.061,0,0,1,.693-1.851,4.11,4.11,0,0,1,1.753-1.211,6.125,6.125,0,0,1,2.358-.4,4.723,4.723,0,0,1,2.1.5,3.133,3.133,0,0,1,1.353,1.318,3.368,3.368,0,0,1,.342,1.948l-.791,4.971-.049.605a2.669,2.669,0,0,0,.186,1.23L291.24,0Zm-1.836-2.129A2.072,2.072,0,0,0,288.008-3l.322-1.7-.83-.01a2.188,2.188,0,0,0-1.328.454,1.722,1.722,0,0,0-.654,1.187.865.865,0,0,0,.151.659A.773.773,0,0,0,286.279-2.129Zm21.533-4.922h-8.8l.449-2.539h8.789Zm-.742,4.287h-8.8l.449-2.539h8.789Zm21.021-2.881H314.732l.719-2.578H328.81Zm14.7,0H329.43l.719-2.578h13.359Zm14.7,0H344.127l.719-2.578H358.2Zm14.7,0H358.824l.719-2.578H372.9Zm14.7,0H373.521l.719-2.578H387.6Zm14.7,0H388.219l.719-2.578H402.3Zm14.7,0H402.916l.719-2.578h13.359Zm14.7,0H417.613l.719-2.578h13.359Zm14.7,0H432.31l.719-2.578h13.359Zm14.7,0H447.008l.719-2.578h13.359Zm14.7,0H461.705l.719-2.578h13.359Zm14.7,0H476.4l.719-2.578H490.48Zm14.7,0H491.1l.719-2.578h13.359Zm14.7,0H505.8l.719-2.578h13.359Zm14.7,0H520.494l.719-2.578h13.359Zm14.7,0H535.191l.719-2.578h13.359Zm14.7,0H549.889l.719-2.578h13.359Zm14.7,0H564.586l.719-2.578h13.359Zm14.7,0H579.283L580-8.223h13.359Zm14.7,0H593.98l.719-2.578h13.359Zm14.7,0H608.678l.719-2.578h13.359Zm14.7,0H623.375l.719-2.578h13.359Zm14.7,0H638.072l.719-2.578H652.15Zm14.7,0H652.769l.719-2.578h13.359Zm14.7,0H667.467l.719-2.578h13.359Zm14.7,0H682.164l.719-2.578h13.359Zm14.7,0H696.861l.719-2.578h13.359Zm14.7,0H711.559l.719-2.578h13.359Z" transform="translate(517 9365.07)" fill="#12263f"/>
    <path id="Trazado_141833" data-name="Trazado 141833" d="M11.934-4.844a5.127,5.127,0,0,1-.981,2.656A5.551,5.551,0,0,1,8.706-.4,6.954,6.954,0,0,1,5.693.2,4.683,4.683,0,0,1,2.188-1.24,5.77,5.77,0,0,1,.791-5a12.245,12.245,0,0,1,.347-3.447,9.112,9.112,0,0,1,1.416-3.247,6.506,6.506,0,0,1,2.314-2.07,6.008,6.008,0,0,1,2.915-.659,5.086,5.086,0,0,1,3.677,1.4,5.467,5.467,0,0,1,1.47,3.74L9.6-9.3a2.739,2.739,0,0,0-.469-1.855,2.058,2.058,0,0,0-1.543-.6q-2.637-.088-3.213,4.1a22.537,22.537,0,0,0-.264,2.705q-.049,2.4,1.777,2.471a2.609,2.609,0,0,0,1.885-.581,2.906,2.906,0,0,0,.9-1.753ZM18.662,0a2.865,2.865,0,0,1-.137-.957A3.259,3.259,0,0,1,15.938.2a3.184,3.184,0,0,1-2.285-.918A2.759,2.759,0,0,1,12.8-2.9a3.1,3.1,0,0,1,1.436-2.642,6.768,6.768,0,0,1,3.789-.923l1.074.02.117-.6.039-.518a.839.839,0,0,0-.889-.918,1.235,1.235,0,0,0-1.3,1.162l-3.223.01a3.06,3.06,0,0,1,.693-1.851,4.109,4.109,0,0,1,1.753-1.211,6.125,6.125,0,0,1,2.358-.4,4.723,4.723,0,0,1,2.1.5A3.133,3.133,0,0,1,22.109-8.94a3.368,3.368,0,0,1,.342,1.948L21.66-2.021l-.049.605A2.669,2.669,0,0,0,21.8-.186L21.787,0ZM16.826-2.129A2.072,2.072,0,0,0,18.555-3l.322-1.7-.83-.01a2.188,2.188,0,0,0-1.328.454,1.722,1.722,0,0,0-.654,1.187.865.865,0,0,0,.151.659A.773.773,0,0,0,16.826-2.129Zm11.113-8.447-.215,1.27a3.793,3.793,0,0,1,3.086-1.455,2.788,2.788,0,0,1,1.572.449A2.047,2.047,0,0,1,33.2-9.17a4.022,4.022,0,0,1,3.213-1.592,2.49,2.49,0,0,1,2.173,1.1A4.575,4.575,0,0,1,39.1-6.65L38,0H34.775L35.9-6.652l.039-.576q0-.966-.908-.995a2.08,2.08,0,0,0-1.582.868L32.168,0H28.945l1.113-6.633.039-.585q0-1-.908-1a2.066,2.066,0,0,0-1.562.868L26.328,0H23.115l1.836-10.566ZM50.332-5.264a7.657,7.657,0,0,1-1.514,4.043A3.788,3.788,0,0,1,45.635.205a2.8,2.8,0,0,1-2.4-1.309l-.4,1.1h-2.91l2.607-15h3.213L44.7-9.7a3.189,3.189,0,0,1,2.373-1.064,2.977,2.977,0,0,1,2.422,1.108,4.834,4.834,0,0,1,.918,2.964,10.748,10.748,0,0,1-.049,1.221Zm-3.193-.19a10.115,10.115,0,0,0,.088-1.131q0-1.57-1.123-1.638a1.924,1.924,0,0,0-1.67.848l-.762,4.212A1.292,1.292,0,0,0,45-2.334q1.572.049,1.982-2.047l.137-.868ZM54.307,0H51.084L52.92-10.566h3.223ZM53.2-13.232a1.49,1.49,0,0,1,.5-1.191,1.806,1.806,0,0,1,1.265-.479,1.864,1.864,0,0,1,1.255.43,1.464,1.464,0,0,1,.522,1.123,1.493,1.493,0,0,1-.5,1.2,1.811,1.811,0,0,1-1.27.474,1.887,1.887,0,0,1-1.245-.425A1.447,1.447,0,0,1,53.2-13.232Zm9.307,2.471a4.438,4.438,0,0,1,2.451.708,3.989,3.989,0,0,1,1.519,1.919A5.922,5.922,0,0,1,66.826-5.4l-.02.215A6.262,6.262,0,0,1,65-1.26,5.083,5.083,0,0,1,61.211.2a4.419,4.419,0,0,1-2.432-.7,4.014,4.014,0,0,1-1.519-1.9A5.755,5.755,0,0,1,56.9-5.117a6.514,6.514,0,0,1,1.782-4.141A5.052,5.052,0,0,1,62.51-10.762ZM60.117-5.113l-.029.575q-.137,2.174,1.328,2.213,1.895.059,2.2-3.071l.039-.887a2.394,2.394,0,0,0-.327-1.4A1.192,1.192,0,0,0,62.3-8.223a1.68,1.68,0,0,0-1.46.726A4.753,4.753,0,0,0,60.117-5.113Zm22.6-.161a8.777,8.777,0,0,1-.869,2.954A4.831,4.831,0,0,1,80.2-.4a3.8,3.8,0,0,1-2.192.6A2.871,2.871,0,0,1,75.762-.889L74.8,4.063H71.592l2.539-14.629,2.969-.01L76.934-9.57a3.106,3.106,0,0,1,2.51-1.191,2.958,2.958,0,0,1,2.407,1.1A4.876,4.876,0,0,1,82.773-6.7,11.415,11.415,0,0,1,82.715-5.273ZM79.59-6.582Q79.541-8.193,78.5-8.223a1.894,1.894,0,0,0-1.689.83L76.055-3.2a1.3,1.3,0,0,0,1.348.869q1.709.029,2.1-2.939Q79.59-6.211,79.59-6.582Zm9.863-4.18a4.438,4.438,0,0,1,2.451.708,3.989,3.989,0,0,1,1.519,1.919A5.922,5.922,0,0,1,93.77-5.4l-.02.215A6.262,6.262,0,0,1,91.943-1.26,5.083,5.083,0,0,1,88.154.2a4.419,4.419,0,0,1-2.432-.7A4.014,4.014,0,0,1,84.2-2.4a5.755,5.755,0,0,1-.356-2.715A6.514,6.514,0,0,1,85.63-9.258,5.052,5.052,0,0,1,89.453-10.762ZM87.061-5.113l-.029.575q-.137,2.174,1.328,2.213,1.895.059,2.2-3.071l.039-.887a2.394,2.394,0,0,0-.327-1.4,1.192,1.192,0,0,0-1.021-.541,1.68,1.68,0,0,0-1.46.726A4.753,4.753,0,0,0,87.061-5.113Zm14.854-2.475a9.192,9.192,0,0,0-1-.1,2.481,2.481,0,0,0-2.207,1L97.52,0H94.307l1.836-10.566,3-.01L98.9-9.189a2.933,2.933,0,0,1,2.441-1.6,4.6,4.6,0,0,1,1,.137Zm4.531,5.244a1.382,1.382,0,0,0,1.084-.383,1.907,1.907,0,0,0,.5-1.043l3.008-.01a3.954,3.954,0,0,1-.688,2.08,4.161,4.161,0,0,1-1.7,1.421,5.023,5.023,0,0,1-2.29.474,3.967,3.967,0,0,1-3.252-1.519,5.251,5.251,0,0,1-.928-3.823l.029-.234a7.079,7.079,0,0,1,.9-2.837,5.14,5.14,0,0,1,1.9-1.909,4.926,4.926,0,0,1,2.632-.635,3.929,3.929,0,0,1,2.915,1.177,4.173,4.173,0,0,1,1.03,3.071l-3.008-.01q.049-1.67-1.2-1.7-1.7-.059-1.953,2.852l-.088.993-.01.37Q105.322-2.373,106.445-2.344ZM116.982.2a4.912,4.912,0,0,1-2.524-.669,4.215,4.215,0,0,1-1.675-1.836,4.933,4.933,0,0,1-.449-2.593l.029-.273A6.477,6.477,0,0,1,114.175-9.3a5.011,5.011,0,0,1,3.794-1.46,4.086,4.086,0,0,1,2.324.689,3.853,3.853,0,0,1,1.416,1.848A5.662,5.662,0,0,1,122-5.578l-.186,1.34h-6.289A2.06,2.06,0,0,0,116-2.891a1.722,1.722,0,0,0,1.309.547,3.325,3.325,0,0,0,2.51-1.074l1.348,1.782A3.976,3.976,0,0,1,119.5-.306a5.848,5.848,0,0,1-2.339.5Zm.781-8.418a1.653,1.653,0,0,0-1.187.427,3.588,3.588,0,0,0-.874,1.5h3.213l.059-.282a2.143,2.143,0,0,0,.02-.641A1.131,1.131,0,0,0,117.764-8.223Zm9.395-2.354-.225,1.27a3.756,3.756,0,0,1,3.057-1.465,2.523,2.523,0,0,1,2.183,1.089A4.557,4.557,0,0,1,132.7-6.65L131.582,0h-3.223l1.123-6.678a3.454,3.454,0,0,0,.02-.626q-.068-.929-1.094-.929a2.008,2.008,0,0,0-1.553.753L125.537,0h-3.213l1.836-10.566Zm12.295-2.617-.459,2.627h1.689l-.4,2.285h-1.689l-.82,4.854a1.294,1.294,0,0,0,.063.752q.132.254.659.273a7.637,7.637,0,0,0,.84-.049L139.1-.068a5.192,5.192,0,0,1-1.729.244A2.847,2.847,0,0,1,135.137-.7a3,3,0,0,1-.605-2.334l.859-5.244h-1.309l.391-2.285h1.309l.459-2.627Zm7.266,12.041A3.5,3.5,0,0,1,143.867.205a2.769,2.769,0,0,1-2.339-1.084,4,4,0,0,1-.61-2.852l1.143-6.836h3.213l-1.162,6.883a2.294,2.294,0,0,0,0,.518.851.851,0,0,0,.947.831,2.076,2.076,0,0,0,1.729-.8l1.309-7.431h3.232L149.492,0H146.5ZM157.178,0a2.865,2.865,0,0,1-.137-.957A3.259,3.259,0,0,1,154.453.2a3.184,3.184,0,0,1-2.285-.918,2.759,2.759,0,0,1-.85-2.178,3.1,3.1,0,0,1,1.436-2.642,6.768,6.768,0,0,1,3.789-.923l1.074.02.117-.6.039-.518a.839.839,0,0,0-.889-.918,1.235,1.235,0,0,0-1.3,1.162l-3.223.01a3.06,3.06,0,0,1,.693-1.851,4.109,4.109,0,0,1,1.753-1.211,6.125,6.125,0,0,1,2.358-.4,4.723,4.723,0,0,1,2.1.5,3.133,3.133,0,0,1,1.353,1.318,3.368,3.368,0,0,1,.342,1.948l-.791,4.971-.049.605a2.669,2.669,0,0,0,.186,1.23L160.3,0Zm-1.836-2.129A2.072,2.072,0,0,0,157.07-3l.322-1.7-.83-.01a2.188,2.188,0,0,0-1.328.454,1.722,1.722,0,0,0-.654,1.187.865.865,0,0,0,.151.659A.773.773,0,0,0,155.342-2.129ZM165,0h-3.223l2.6-15H167.6Zm12.227.2A4.912,4.912,0,0,1,174.7-.474a4.215,4.215,0,0,1-1.675-1.836,4.933,4.933,0,0,1-.449-2.593l.029-.273A6.477,6.477,0,0,1,174.419-9.3a5.011,5.011,0,0,1,3.794-1.46,4.086,4.086,0,0,1,2.324.689,3.853,3.853,0,0,1,1.416,1.848,5.661,5.661,0,0,1,.293,2.646l-.186,1.34h-6.289a2.06,2.06,0,0,0,.469,1.348,1.722,1.722,0,0,0,1.309.547,3.325,3.325,0,0,0,2.51-1.074l1.348,1.782a3.976,3.976,0,0,1-1.665,1.329A5.848,5.848,0,0,1,177.4.2Zm.781-8.418a1.653,1.653,0,0,0-1.187.427,3.588,3.588,0,0,0-.874,1.5h3.213l.059-.282a2.143,2.143,0,0,0,.02-.641A1.131,1.131,0,0,0,178.008-8.223Zm9.395-2.354-.225,1.27a3.756,3.756,0,0,1,3.057-1.465,2.523,2.523,0,0,1,2.183,1.089,4.557,4.557,0,0,1,.522,3.032L191.826,0H188.6l1.123-6.678a3.454,3.454,0,0,0,.02-.626q-.068-.929-1.094-.929a2.008,2.008,0,0,0-1.553.753L185.781,0h-3.213L184.4-10.566ZM203.857.2a4.912,4.912,0,0,1-2.524-.669,4.215,4.215,0,0,1-1.675-1.836,4.933,4.933,0,0,1-.449-2.593l.029-.273A6.477,6.477,0,0,1,201.05-9.3a5.011,5.011,0,0,1,3.794-1.46,4.086,4.086,0,0,1,2.324.689,3.853,3.853,0,0,1,1.416,1.848,5.661,5.661,0,0,1,.293,2.646l-.186,1.34H202.4a2.06,2.06,0,0,0,.469,1.348,1.722,1.722,0,0,0,1.309.547,3.325,3.325,0,0,0,2.51-1.074l1.348,1.782a3.976,3.976,0,0,1-1.665,1.329,5.848,5.848,0,0,1-2.339.5Zm.781-8.418a1.653,1.653,0,0,0-1.187.427,3.588,3.588,0,0,0-.874,1.5h3.213l.059-.282a2.143,2.143,0,0,0,.02-.641A1.131,1.131,0,0,0,204.639-8.223ZM212.656,0h-3.223l2.6-15h3.223Zm17.412-5.273a8.777,8.777,0,0,1-.869,2.954A4.831,4.831,0,0,1,227.554-.4a3.8,3.8,0,0,1-2.192.6,2.871,2.871,0,0,1-2.246-1.094l-.957,4.951h-3.213l2.539-14.629,2.969-.01-.166,1.006a3.106,3.106,0,0,1,2.51-1.191,2.958,2.958,0,0,1,2.407,1.1,4.876,4.876,0,0,1,.923,2.959A11.418,11.418,0,0,1,230.068-5.273Zm-3.125-1.309q-.049-1.611-1.094-1.641a1.894,1.894,0,0,0-1.689.83L223.408-3.2a1.3,1.3,0,0,0,1.348.869q1.709.029,2.1-2.939Q226.943-6.211,226.943-6.582Zm11.328-1.006a9.192,9.192,0,0,0-1-.1,2.481,2.481,0,0,0-2.207,1L233.877,0h-3.213L232.5-10.566l3-.01-.244,1.387a2.933,2.933,0,0,1,2.441-1.6,4.6,4.6,0,0,1,1,.137ZM243.35.2a4.912,4.912,0,0,1-2.524-.669A4.215,4.215,0,0,1,239.15-2.31,4.933,4.933,0,0,1,238.7-4.9l.029-.273A6.477,6.477,0,0,1,240.542-9.3a5.011,5.011,0,0,1,3.794-1.46,4.086,4.086,0,0,1,2.324.689,3.853,3.853,0,0,1,1.416,1.848,5.661,5.661,0,0,1,.293,2.646l-.186,1.34h-6.289a2.06,2.06,0,0,0,.469,1.348,1.722,1.722,0,0,0,1.309.547,3.325,3.325,0,0,0,2.51-1.074l1.348,1.782a3.976,3.976,0,0,1-1.665,1.329,5.848,5.848,0,0,1-2.339.5Zm.781-8.418a1.653,1.653,0,0,0-1.187.427,3.588,3.588,0,0,0-.874,1.5h3.213l.059-.282a2.143,2.143,0,0,0,.02-.641A1.131,1.131,0,0,0,244.131-8.223Zm9.521,5.879a1.382,1.382,0,0,0,1.084-.383,1.907,1.907,0,0,0,.5-1.043l3.008-.01a3.954,3.954,0,0,1-.688,2.08,4.161,4.161,0,0,1-1.7,1.421,5.023,5.023,0,0,1-2.29.474,3.967,3.967,0,0,1-3.252-1.519,5.251,5.251,0,0,1-.928-3.823l.029-.234a7.079,7.079,0,0,1,.9-2.837,5.14,5.14,0,0,1,1.9-1.909,4.926,4.926,0,0,1,2.632-.635,3.929,3.929,0,0,1,2.915,1.177,4.173,4.173,0,0,1,1.03,3.071l-3.008-.01q.049-1.67-1.2-1.7-1.7-.059-1.953,2.852l-.088.993-.01.37Q252.529-2.373,253.652-2.344ZM262.324,0H259.1l1.836-10.566h3.223Zm-1.1-13.232a1.49,1.49,0,0,1,.5-1.191,1.806,1.806,0,0,1,1.265-.479,1.864,1.864,0,0,1,1.255.43,1.464,1.464,0,0,1,.522,1.123,1.493,1.493,0,0,1-.5,1.2,1.811,1.811,0,0,1-1.27.474,1.887,1.887,0,0,1-1.245-.425A1.447,1.447,0,0,1,261.221-13.232Zm9.307,2.471a4.438,4.438,0,0,1,2.451.708A3.989,3.989,0,0,1,274.5-8.135a5.922,5.922,0,0,1,.347,2.734l-.02.215a6.262,6.262,0,0,1-1.807,3.926A5.083,5.083,0,0,1,269.229.2,4.419,4.419,0,0,1,266.8-.5a4.014,4.014,0,0,1-1.519-1.9,5.755,5.755,0,0,1-.356-2.715A6.514,6.514,0,0,1,266.7-9.258,5.052,5.052,0,0,1,270.527-10.762Zm-2.393,5.649-.029.575q-.137,2.174,1.328,2.213,1.895.059,2.2-3.071l.039-.887a2.394,2.394,0,0,0-.327-1.4,1.192,1.192,0,0,0-1.021-.541,1.68,1.68,0,0,0-1.46.726A4.753,4.753,0,0,0,268.135-5.113Z" transform="translate(896 9384.07)" fill="#12263f"/>
    <path id="Trazado_141834" data-name="Trazado 141834" d="M11.934-4.844a5.127,5.127,0,0,1-.981,2.656A5.551,5.551,0,0,1,8.706-.4,6.954,6.954,0,0,1,5.693.2,4.683,4.683,0,0,1,2.188-1.24,5.77,5.77,0,0,1,.791-5a12.245,12.245,0,0,1,.347-3.447,9.112,9.112,0,0,1,1.416-3.247,6.506,6.506,0,0,1,2.314-2.07,6.008,6.008,0,0,1,2.915-.659,5.086,5.086,0,0,1,3.677,1.4,5.467,5.467,0,0,1,1.47,3.74L9.6-9.3a2.739,2.739,0,0,0-.469-1.855,2.058,2.058,0,0,0-1.543-.6q-2.637-.088-3.213,4.1a22.537,22.537,0,0,0-.264,2.705q-.049,2.4,1.777,2.471a2.609,2.609,0,0,0,1.885-.581,2.906,2.906,0,0,0,.9-1.753ZM18.662,0a2.865,2.865,0,0,1-.137-.957A3.259,3.259,0,0,1,15.938.2a3.184,3.184,0,0,1-2.285-.918A2.759,2.759,0,0,1,12.8-2.9a3.1,3.1,0,0,1,1.436-2.642,6.768,6.768,0,0,1,3.789-.923l1.074.02.117-.6.039-.518a.839.839,0,0,0-.889-.918,1.235,1.235,0,0,0-1.3,1.162l-3.223.01a3.06,3.06,0,0,1,.693-1.851,4.109,4.109,0,0,1,1.753-1.211,6.125,6.125,0,0,1,2.358-.4,4.723,4.723,0,0,1,2.1.5A3.133,3.133,0,0,1,22.109-8.94a3.368,3.368,0,0,1,.342,1.948L21.66-2.021l-.049.605A2.669,2.669,0,0,0,21.8-.186L21.787,0ZM16.826-2.129A2.072,2.072,0,0,0,18.555-3l.322-1.7-.83-.01a2.188,2.188,0,0,0-1.328.454,1.722,1.722,0,0,0-.654,1.187.865.865,0,0,0,.151.659A.773.773,0,0,0,16.826-2.129Zm11.113-8.447-.215,1.27a3.793,3.793,0,0,1,3.086-1.455,2.788,2.788,0,0,1,1.572.449A2.047,2.047,0,0,1,33.2-9.17a4.022,4.022,0,0,1,3.213-1.592,2.49,2.49,0,0,1,2.173,1.1A4.575,4.575,0,0,1,39.1-6.65L38,0H34.775L35.9-6.652l.039-.576q0-.966-.908-.995a2.08,2.08,0,0,0-1.582.868L32.168,0H28.945l1.113-6.633.039-.585q0-1-.908-1a2.066,2.066,0,0,0-1.562.868L26.328,0H23.115l1.836-10.566ZM50.332-5.264a7.657,7.657,0,0,1-1.514,4.043A3.788,3.788,0,0,1,45.635.205a2.8,2.8,0,0,1-2.4-1.309l-.4,1.1h-2.91l2.607-15h3.213L44.7-9.7a3.189,3.189,0,0,1,2.373-1.064,2.977,2.977,0,0,1,2.422,1.108,4.834,4.834,0,0,1,.918,2.964,10.748,10.748,0,0,1-.049,1.221Zm-3.193-.19a10.115,10.115,0,0,0,.088-1.131q0-1.57-1.123-1.638a1.924,1.924,0,0,0-1.67.848l-.762,4.212A1.292,1.292,0,0,0,45-2.334q1.572.049,1.982-2.047l.137-.868ZM54.307,0H51.084L52.92-10.566h3.223ZM53.2-13.232a1.49,1.49,0,0,1,.5-1.191,1.806,1.806,0,0,1,1.265-.479,1.864,1.864,0,0,1,1.255.43,1.464,1.464,0,0,1,.522,1.123,1.493,1.493,0,0,1-.5,1.2,1.811,1.811,0,0,1-1.27.474,1.887,1.887,0,0,1-1.245-.425A1.447,1.447,0,0,1,53.2-13.232Zm9.307,2.471a4.438,4.438,0,0,1,2.451.708,3.989,3.989,0,0,1,1.519,1.919A5.922,5.922,0,0,1,66.826-5.4l-.02.215A6.262,6.262,0,0,1,65-1.26,5.083,5.083,0,0,1,61.211.2a4.419,4.419,0,0,1-2.432-.7,4.014,4.014,0,0,1-1.519-1.9A5.755,5.755,0,0,1,56.9-5.117a6.514,6.514,0,0,1,1.782-4.141A5.052,5.052,0,0,1,62.51-10.762ZM60.117-5.113l-.029.575q-.137,2.174,1.328,2.213,1.895.059,2.2-3.071l.039-.887a2.394,2.394,0,0,0-.327-1.4A1.192,1.192,0,0,0,62.3-8.223a1.68,1.68,0,0,0-1.46.726A4.753,4.753,0,0,0,60.117-5.113Zm22.6-.161a8.777,8.777,0,0,1-.869,2.954A4.831,4.831,0,0,1,80.2-.4a3.8,3.8,0,0,1-2.192.6A2.871,2.871,0,0,1,75.762-.889L74.8,4.063H71.592l2.539-14.629,2.969-.01L76.934-9.57a3.106,3.106,0,0,1,2.51-1.191,2.958,2.958,0,0,1,2.407,1.1A4.876,4.876,0,0,1,82.773-6.7,11.415,11.415,0,0,1,82.715-5.273ZM79.59-6.582Q79.541-8.193,78.5-8.223a1.894,1.894,0,0,0-1.689.83L76.055-3.2a1.3,1.3,0,0,0,1.348.869q1.709.029,2.1-2.939Q79.59-6.211,79.59-6.582Zm9.863-4.18a4.438,4.438,0,0,1,2.451.708,3.989,3.989,0,0,1,1.519,1.919A5.922,5.922,0,0,1,93.77-5.4l-.02.215A6.262,6.262,0,0,1,91.943-1.26,5.083,5.083,0,0,1,88.154.2a4.419,4.419,0,0,1-2.432-.7A4.014,4.014,0,0,1,84.2-2.4a5.755,5.755,0,0,1-.356-2.715A6.514,6.514,0,0,1,85.63-9.258,5.052,5.052,0,0,1,89.453-10.762ZM87.061-5.113l-.029.575q-.137,2.174,1.328,2.213,1.895.059,2.2-3.071l.039-.887a2.394,2.394,0,0,0-.327-1.4,1.192,1.192,0,0,0-1.021-.541,1.68,1.68,0,0,0-1.46.726A4.753,4.753,0,0,0,87.061-5.113Zm14.854-2.475a9.192,9.192,0,0,0-1-.1,2.481,2.481,0,0,0-2.207,1L97.52,0H94.307l1.836-10.566,3-.01L98.9-9.189a2.933,2.933,0,0,1,2.441-1.6,4.6,4.6,0,0,1,1,.137Zm4.531,5.244a1.382,1.382,0,0,0,1.084-.383,1.907,1.907,0,0,0,.5-1.043l3.008-.01a3.954,3.954,0,0,1-.688,2.08,4.161,4.161,0,0,1-1.7,1.421,5.023,5.023,0,0,1-2.29.474,3.967,3.967,0,0,1-3.252-1.519,5.251,5.251,0,0,1-.928-3.823l.029-.234a7.079,7.079,0,0,1,.9-2.837,5.14,5.14,0,0,1,1.9-1.909,4.926,4.926,0,0,1,2.632-.635,3.929,3.929,0,0,1,2.915,1.177,4.173,4.173,0,0,1,1.03,3.071l-3.008-.01q.049-1.67-1.2-1.7-1.7-.059-1.953,2.852l-.088.993-.01.37Q105.322-2.373,106.445-2.344ZM116.982.2a4.912,4.912,0,0,1-2.524-.669,4.215,4.215,0,0,1-1.675-1.836,4.933,4.933,0,0,1-.449-2.593l.029-.273A6.477,6.477,0,0,1,114.175-9.3a5.011,5.011,0,0,1,3.794-1.46,4.086,4.086,0,0,1,2.324.689,3.853,3.853,0,0,1,1.416,1.848A5.662,5.662,0,0,1,122-5.578l-.186,1.34h-6.289A2.06,2.06,0,0,0,116-2.891a1.722,1.722,0,0,0,1.309.547,3.325,3.325,0,0,0,2.51-1.074l1.348,1.782A3.976,3.976,0,0,1,119.5-.306a5.848,5.848,0,0,1-2.339.5Zm.781-8.418a1.653,1.653,0,0,0-1.187.427,3.588,3.588,0,0,0-.874,1.5h3.213l.059-.282a2.143,2.143,0,0,0,.02-.641A1.131,1.131,0,0,0,117.764-8.223Zm9.395-2.354-.225,1.27a3.756,3.756,0,0,1,3.057-1.465,2.523,2.523,0,0,1,2.183,1.089A4.557,4.557,0,0,1,132.7-6.65L131.582,0h-3.223l1.123-6.678a3.454,3.454,0,0,0,.02-.626q-.068-.929-1.094-.929a2.008,2.008,0,0,0-1.553.753L125.537,0h-3.213l1.836-10.566Zm12.295-2.617-.459,2.627h1.689l-.4,2.285h-1.689l-.82,4.854a1.294,1.294,0,0,0,.063.752q.132.254.659.273a7.637,7.637,0,0,0,.84-.049L139.1-.068a5.192,5.192,0,0,1-1.729.244A2.847,2.847,0,0,1,135.137-.7a3,3,0,0,1-.605-2.334l.859-5.244h-1.309l.391-2.285h1.309l.459-2.627Zm7.266,12.041A3.5,3.5,0,0,1,143.867.205a2.769,2.769,0,0,1-2.339-1.084,4,4,0,0,1-.61-2.852l1.143-6.836h3.213l-1.162,6.883a2.294,2.294,0,0,0,0,.518.851.851,0,0,0,.947.831,2.076,2.076,0,0,0,1.729-.8l1.309-7.431h3.232L149.492,0H146.5ZM157.178,0a2.865,2.865,0,0,1-.137-.957A3.259,3.259,0,0,1,154.453.2a3.184,3.184,0,0,1-2.285-.918,2.759,2.759,0,0,1-.85-2.178,3.1,3.1,0,0,1,1.436-2.642,6.768,6.768,0,0,1,3.789-.923l1.074.02.117-.6.039-.518a.839.839,0,0,0-.889-.918,1.235,1.235,0,0,0-1.3,1.162l-3.223.01a3.06,3.06,0,0,1,.693-1.851,4.109,4.109,0,0,1,1.753-1.211,6.125,6.125,0,0,1,2.358-.4,4.723,4.723,0,0,1,2.1.5,3.133,3.133,0,0,1,1.353,1.318,3.368,3.368,0,0,1,.342,1.948l-.791,4.971-.049.605a2.669,2.669,0,0,0,.186,1.23L160.3,0Zm-1.836-2.129A2.072,2.072,0,0,0,157.07-3l.322-1.7-.83-.01a2.188,2.188,0,0,0-1.328.454,1.722,1.722,0,0,0-.654,1.187.865.865,0,0,0,.151.659A.773.773,0,0,0,155.342-2.129ZM165,0h-3.223l2.6-15H167.6Zm12.227.2A4.912,4.912,0,0,1,174.7-.474a4.215,4.215,0,0,1-1.675-1.836,4.933,4.933,0,0,1-.449-2.593l.029-.273A6.477,6.477,0,0,1,174.419-9.3a5.011,5.011,0,0,1,3.794-1.46,4.086,4.086,0,0,1,2.324.689,3.853,3.853,0,0,1,1.416,1.848,5.661,5.661,0,0,1,.293,2.646l-.186,1.34h-6.289a2.06,2.06,0,0,0,.469,1.348,1.722,1.722,0,0,0,1.309.547,3.325,3.325,0,0,0,2.51-1.074l1.348,1.782a3.976,3.976,0,0,1-1.665,1.329A5.848,5.848,0,0,1,177.4.2Zm.781-8.418a1.653,1.653,0,0,0-1.187.427,3.588,3.588,0,0,0-.874,1.5h3.213l.059-.282a2.143,2.143,0,0,0,.02-.641A1.131,1.131,0,0,0,178.008-8.223Zm9.395-2.354-.225,1.27a3.756,3.756,0,0,1,3.057-1.465,2.523,2.523,0,0,1,2.183,1.089,4.557,4.557,0,0,1,.522,3.032L191.826,0H188.6l1.123-6.678a3.454,3.454,0,0,0,.02-.626q-.068-.929-1.094-.929a2.008,2.008,0,0,0-1.553.753L185.781,0h-3.213L184.4-10.566ZM201.992,0H198.77l2.6-15h3.223Zm8,0a2.865,2.865,0,0,1-.137-.957A3.259,3.259,0,0,1,207.266.2a3.184,3.184,0,0,1-2.285-.918,2.759,2.759,0,0,1-.85-2.178,3.1,3.1,0,0,1,1.436-2.642,6.768,6.768,0,0,1,3.789-.923l1.074.02.117-.6.039-.518a.839.839,0,0,0-.889-.918,1.235,1.235,0,0,0-1.3,1.162l-3.223.01a3.06,3.06,0,0,1,.693-1.851,4.109,4.109,0,0,1,1.753-1.211,6.125,6.125,0,0,1,2.358-.4,4.723,4.723,0,0,1,2.1.5,3.133,3.133,0,0,1,1.353,1.318,3.368,3.368,0,0,1,.342,1.948l-.791,4.971-.049.605a2.669,2.669,0,0,0,.186,1.23l-.01.186Zm-1.836-2.129A2.072,2.072,0,0,0,209.883-3l.322-1.7-.83-.01a2.188,2.188,0,0,0-1.328.454,1.722,1.722,0,0,0-.654,1.187.865.865,0,0,0,.151.659A.773.773,0,0,0,208.154-2.129Zm16.094-.215a1.382,1.382,0,0,0,1.084-.383,1.907,1.907,0,0,0,.5-1.043l3.008-.01a3.954,3.954,0,0,1-.688,2.08,4.161,4.161,0,0,1-1.7,1.421A5.023,5.023,0,0,1,224.16.2a3.967,3.967,0,0,1-3.252-1.519,5.251,5.251,0,0,1-.928-3.823l.029-.234a7.079,7.079,0,0,1,.9-2.837,5.14,5.14,0,0,1,1.9-1.909,4.926,4.926,0,0,1,2.632-.635,3.929,3.929,0,0,1,2.915,1.177,4.173,4.173,0,0,1,1.03,3.071l-3.008-.01q.049-1.67-1.2-1.7-1.7-.059-1.953,2.852l-.088.993-.01.37Q223.125-2.373,224.248-2.344ZM235.488,0a2.865,2.865,0,0,1-.137-.957A3.259,3.259,0,0,1,232.764.2a3.184,3.184,0,0,1-2.285-.918,2.759,2.759,0,0,1-.85-2.178,3.1,3.1,0,0,1,1.436-2.642,6.768,6.768,0,0,1,3.789-.923l1.074.02.117-.6.039-.518a.839.839,0,0,0-.889-.918,1.235,1.235,0,0,0-1.3,1.162l-3.223.01a3.06,3.06,0,0,1,.693-1.851,4.109,4.109,0,0,1,1.753-1.211,6.125,6.125,0,0,1,2.358-.4,4.723,4.723,0,0,1,2.1.5,3.133,3.133,0,0,1,1.353,1.318,3.368,3.368,0,0,1,.342,1.948l-.791,4.971-.049.605a2.669,2.669,0,0,0,.186,1.23l-.01.186Zm-1.836-2.129A2.072,2.072,0,0,0,235.381-3l.322-1.7-.83-.01a2.188,2.188,0,0,0-1.328.454,1.722,1.722,0,0,0-.654,1.187.865.865,0,0,0,.151.659A.773.773,0,0,0,233.652-2.129Zm11.035-8.447-.225,1.27a3.756,3.756,0,0,1,3.057-1.465A2.523,2.523,0,0,1,249.7-9.683a4.557,4.557,0,0,1,.522,3.032L249.111,0h-3.223l1.123-6.678a3.454,3.454,0,0,0,.02-.626q-.068-.929-1.094-.929a2.008,2.008,0,0,0-1.553.753L243.066,0h-3.213l1.836-10.566Zm12.295-2.617-.459,2.627h1.689l-.4,2.285h-1.689l-.82,4.854a1.294,1.294,0,0,0,.063.752q.132.254.659.273a7.637,7.637,0,0,0,.84-.049l-.234,2.383A5.192,5.192,0,0,1,254.9.176,2.847,2.847,0,0,1,252.666-.7a3,3,0,0,1-.605-2.334l.859-5.244h-1.309L252-10.566h1.309l.459-2.627ZM261.1,0h-3.223l1.836-10.566h3.223ZM260-13.232a1.49,1.49,0,0,1,.5-1.191,1.806,1.806,0,0,1,1.265-.479,1.864,1.864,0,0,1,1.255.43,1.464,1.464,0,0,1,.522,1.123,1.493,1.493,0,0,1-.5,1.2,1.811,1.811,0,0,1-1.27.474,1.887,1.887,0,0,1-1.245-.425A1.447,1.447,0,0,1,260-13.232Zm3.672,7.93a7.685,7.685,0,0,1,1.523-4,3.775,3.775,0,0,1,3.184-1.455,2.88,2.88,0,0,1,2.236,1.133L271.641-15h3.223l-2.6,15H269.4l.137-1.143A3.3,3.3,0,0,1,266.914.205a2.911,2.911,0,0,1-2.388-1.128A4.974,4.974,0,0,1,263.6-3.9a9.144,9.144,0,0,1,.039-1.2Zm3.2.225a7.669,7.669,0,0,0-.068,1.094q0,1.621,1.094,1.65a2.049,2.049,0,0,0,1.689-.908l.723-4.053a1.3,1.3,0,0,0-1.289-.928,1.643,1.643,0,0,0-1.45.776A5.008,5.008,0,0,0,266.875-5.078ZM280.107,0a2.865,2.865,0,0,1-.137-.957A3.259,3.259,0,0,1,277.383.2,3.184,3.184,0,0,1,275.1-.723a2.759,2.759,0,0,1-.85-2.178,3.1,3.1,0,0,1,1.436-2.642,6.768,6.768,0,0,1,3.789-.923l1.074.02.117-.6.039-.518a.839.839,0,0,0-.889-.918,1.235,1.235,0,0,0-1.3,1.162l-3.223.01a3.061,3.061,0,0,1,.693-1.851,4.11,4.11,0,0,1,1.753-1.211,6.125,6.125,0,0,1,2.358-.4,4.723,4.723,0,0,1,2.1.5,3.133,3.133,0,0,1,1.353,1.318,3.368,3.368,0,0,1,.342,1.948l-.791,4.971-.049.605a2.669,2.669,0,0,0,.186,1.23l-.01.186Zm-1.836-2.129A2.072,2.072,0,0,0,280-3l.322-1.7-.83-.01a2.188,2.188,0,0,0-1.328.454,1.722,1.722,0,0,0-.654,1.187.865.865,0,0,0,.151.659A.773.773,0,0,0,278.271-2.129Zm6.8-3.174a7.685,7.685,0,0,1,1.523-4,3.775,3.775,0,0,1,3.184-1.455,2.88,2.88,0,0,1,2.236,1.133L293.037-15h3.223l-2.6,15H290.8l.137-1.143A3.3,3.3,0,0,1,288.311.205a2.911,2.911,0,0,1-2.388-1.128A4.974,4.974,0,0,1,285-3.9a9.144,9.144,0,0,1,.039-1.2Zm3.2.225a7.669,7.669,0,0,0-.068,1.094q0,1.621,1.094,1.65a2.049,2.049,0,0,0,1.689-.908l.723-4.053a1.3,1.3,0,0,0-1.289-.928,1.643,1.643,0,0,0-1.45.776A5.008,5.008,0,0,0,288.271-5.078ZM301.006-5.3a7.685,7.685,0,0,1,1.523-4,3.775,3.775,0,0,1,3.184-1.455,2.88,2.88,0,0,1,2.236,1.133L308.975-15H312.2L309.6,0h-2.861l.137-1.143A3.3,3.3,0,0,1,304.248.205,2.911,2.911,0,0,1,301.86-.923a4.974,4.974,0,0,1-.923-2.974,9.144,9.144,0,0,1,.039-1.2Zm3.2.225a7.669,7.669,0,0,0-.068,1.094q0,1.621,1.094,1.65a2.049,2.049,0,0,0,1.689-.908l.723-4.053a1.3,1.3,0,0,0-1.289-.928,1.643,1.643,0,0,0-1.45.776A5.008,5.008,0,0,0,304.209-5.078ZM316.738.2a4.912,4.912,0,0,1-2.524-.669,4.215,4.215,0,0,1-1.675-1.836A4.933,4.933,0,0,1,312.09-4.9l.029-.273A6.477,6.477,0,0,1,313.931-9.3a5.011,5.011,0,0,1,3.794-1.46,4.086,4.086,0,0,1,2.324.689,3.853,3.853,0,0,1,1.416,1.848,5.662,5.662,0,0,1,.293,2.646l-.186,1.34h-6.289a2.06,2.06,0,0,0,.469,1.348,1.722,1.722,0,0,0,1.309.547,3.325,3.325,0,0,0,2.51-1.074l1.348,1.782a3.976,3.976,0,0,1-1.665,1.329,5.848,5.848,0,0,1-2.339.5Zm.781-8.418a1.653,1.653,0,0,0-1.187.427,3.588,3.588,0,0,0-.874,1.5h3.213l.059-.282a2.144,2.144,0,0,0,.02-.641A1.131,1.131,0,0,0,317.52-8.223Zm9.473-2.354-.215,1.27a3.793,3.793,0,0,1,3.086-1.455,2.788,2.788,0,0,1,1.572.449,2.047,2.047,0,0,1,.82,1.143,4.022,4.022,0,0,1,3.213-1.592,2.49,2.49,0,0,1,2.173,1.1,4.575,4.575,0,0,1,.513,3.013L337.051,0h-3.223l1.123-6.652.039-.576q0-.966-.908-.995a2.08,2.08,0,0,0-1.582.868L331.221,0H328l1.113-6.633.039-.585q0-1-.908-1a2.066,2.066,0,0,0-1.562.868L325.381,0h-3.213L324-10.566ZM344.912,0a2.865,2.865,0,0,1-.137-.957A3.259,3.259,0,0,1,342.188.2,3.184,3.184,0,0,1,339.9-.723a2.759,2.759,0,0,1-.85-2.178,3.1,3.1,0,0,1,1.436-2.642,6.768,6.768,0,0,1,3.789-.923l1.074.02.117-.6.039-.518a.839.839,0,0,0-.889-.918,1.235,1.235,0,0,0-1.3,1.162L340.1-7.3a3.061,3.061,0,0,1,.693-1.851,4.11,4.11,0,0,1,1.753-1.211,6.125,6.125,0,0,1,2.358-.4,4.723,4.723,0,0,1,2.1.5,3.133,3.133,0,0,1,1.353,1.318,3.368,3.368,0,0,1,.342,1.948l-.791,4.971-.049.605a2.669,2.669,0,0,0,.186,1.23l-.01.186Zm-1.836-2.129A2.072,2.072,0,0,0,344.8-3l.322-1.7-.83-.01a2.188,2.188,0,0,0-1.328.454,1.722,1.722,0,0,0-.654,1.187.865.865,0,0,0,.151.659A.773.773,0,0,0,343.076-2.129Zm11.035-8.447-.225,1.27a3.756,3.756,0,0,1,3.057-1.465,2.523,2.523,0,0,1,2.183,1.089,4.557,4.557,0,0,1,.522,3.032L358.535,0h-3.223l1.123-6.678a3.454,3.454,0,0,0,.02-.626q-.068-.929-1.094-.929a2.008,2.008,0,0,0-1.553.753L352.49,0h-3.213l1.836-10.566Zm6.8,5.273a7.685,7.685,0,0,1,1.523-4,3.775,3.775,0,0,1,3.184-1.455,2.88,2.88,0,0,1,2.236,1.133L368.877-15H372.1L369.5,0h-2.861l.137-1.143A3.3,3.3,0,0,1,364.15.205a2.911,2.911,0,0,1-2.388-1.128A4.974,4.974,0,0,1,360.84-3.9a9.144,9.144,0,0,1,.039-1.2Zm3.2.225a7.669,7.669,0,0,0-.068,1.094q0,1.621,1.094,1.65a2.049,2.049,0,0,0,1.689-.908l.723-4.053a1.3,1.3,0,0,0-1.289-.928,1.643,1.643,0,0,0-1.45.776A5.008,5.008,0,0,0,364.111-5.078ZM377.344,0a2.865,2.865,0,0,1-.137-.957A3.259,3.259,0,0,1,374.619.2a3.184,3.184,0,0,1-2.285-.918,2.759,2.759,0,0,1-.85-2.178,3.1,3.1,0,0,1,1.436-2.642,6.768,6.768,0,0,1,3.789-.923l1.074.02.117-.6.039-.518a.839.839,0,0,0-.889-.918,1.235,1.235,0,0,0-1.3,1.162l-3.223.01a3.061,3.061,0,0,1,.693-1.851,4.11,4.11,0,0,1,1.753-1.211,6.125,6.125,0,0,1,2.358-.4,4.723,4.723,0,0,1,2.1.5,3.133,3.133,0,0,1,1.353,1.318,3.368,3.368,0,0,1,.342,1.948l-.791,4.971-.049.605a2.669,2.669,0,0,0,.186,1.23l-.01.186Zm-1.836-2.129A2.072,2.072,0,0,0,377.236-3l.322-1.7-.83-.01a2.188,2.188,0,0,0-1.328.454,1.722,1.722,0,0,0-.654,1.187.865.865,0,0,0,.151.659A.773.773,0,0,0,375.508-2.129Z" transform="translate(842 9346.07)" fill="#12263f"/>
  </g>
</svg>
