<svg xmlns="http://www.w3.org/2000/svg" width="124.371" height="158.603" viewBox="0 0 124.371 158.603">
  <g id="gota-de-agua" transform="translate(-55.111)">
    <g id="Grupo_82106" data-name="Grupo 82106" transform="translate(58.217 3.106)">
      <g id="Grupo_82104" data-name="Grupo 82104" transform="translate(0)">
        <path id="Trazado_140197" data-name="Trazado 140197" d="M173.7,98.873A54.655,54.655,0,1,1,75.769,75.31l0-.007L119.763,10l28.191,41.847" transform="translate(-65.111 -10)" fill="#a3e0fb"/>
      </g>
      <g id="Grupo_82105" data-name="Grupo 82105" transform="translate(69.244 25.725)">
        <path id="Trazado_140198" data-name="Trazado 140198" d="M288.068,136.574a24.348,24.348,0,0,1,4.769-14.514l0,0,19.687-29.226,19.687,29.226,0,0a24.459,24.459,0,1,1-44.147,14.514Z" transform="translate(-288.068 -92.831)" fill="#4696e6"/>
      </g>
    </g>
    <g id="Grupo_82107" data-name="Grupo 82107" transform="translate(55.111 0)">
      <path id="Trazado_140199" data-name="Trazado 140199" d="M128.678,303.383a36.411,36.411,0,0,1-18.48-56.358,3.166,3.166,0,0,0,.281-.46,3.106,3.106,0,0,0-5.311-3.185,42.62,42.62,0,0,0,.189,50.737,42.966,42.966,0,0,0,21.476,15.2,3.106,3.106,0,1,0,1.844-5.931Z" transform="translate(-83.915 -166.892)"/>
      <path id="Trazado_140200" data-name="Trazado 140200" d="M179.482,72.574a27.346,27.346,0,0,0-5.329-16.294L154.494,27.1a3.106,3.106,0,0,0-5.152,0l-8.284,12.3L115.444,1.371a3.105,3.105,0,0,0-5.151,0L66.324,66.641a57.759,57.759,0,1,0,104.3,34.2,58.3,58.3,0,0,0-.5-7.6A27.505,27.505,0,0,0,179.482,72.574ZM151.918,34.389,169,59.749q.051.079.108.156a21.352,21.352,0,1,1-34.381,0c.036-.049.07-.1.1-.15l8.8-13.058c.016-.024.033-.048.048-.072Zm12.5,66.456A51.547,51.547,0,1,1,71.373,70.26c.038-.051.074-.1.109-.158L112.869,8.664l24.445,36.288L129.683,56.28a27.56,27.56,0,0,0,34.6,40.922q.127,1.817.13,3.643Z" transform="translate(-55.111 0)"/>
      <path id="Trazado_140201" data-name="Trazado 140201" d="M317.772,211.962a10.556,10.556,0,0,1,.911-4.316,3.106,3.106,0,0,0-5.676-2.523,16.865,16.865,0,0,0,6.043,20.854,3.106,3.106,0,0,0,3.454-5.163A10.634,10.634,0,0,1,317.772,211.962Z" transform="translate(-231.915 -140.146)"/>
      <path id="Trazado_140202" data-name="Trazado 140202" d="M223.1,449.116a3.1,3.1,0,1,0-3.475,4.233A3.13,3.13,0,0,0,223.1,449.116Z" transform="translate(-166.815 -308.323)"/>
      <path id="Trazado_140203" data-name="Trazado 140203" d="M358.526,272.849a3.105,3.105,0,1,0,0-5.165A3.119,3.119,0,0,0,358.526,272.849Z" transform="translate(-263.355 -184.188)"/>
    </g>
  </g>
</svg>
