<svg xmlns="http://www.w3.org/2000/svg" width="140" height="140" viewBox="0 0 140 140">
  <g id="incrementar" transform="translate(0)">
    <g id="Grupo_82034" data-name="Grupo 82034" transform="translate(2.051 2.05)">
      <g id="Grupo_82031" data-name="Grupo 82031" transform="translate(37.021 28.813)">
        <path id="Trazado_140035" data-name="Trazado 140035" d="M176.147,146.033H198.82l21.054,7.584,32.645-7.584v82.088H176.147Z" transform="translate(-167.053 -136.965)" fill="#20287a"/>
        <g id="Grupo_82030" data-name="Grupo 82030">
          <path id="Trazado_140036" data-name="Trazado 140036" d="M408.958,203.785V113.809l18.186-.938v90.914" transform="translate(-336.204 -112.871)" fill="#2a94ee"/>
          <path id="Trazado_140037" data-name="Trazado 140037" d="M275.922,232.107V151.852l18.188,9.711v70.544" transform="translate(-239.546 -141.193)" fill="#2a94ee"/>
          <path id="Trazado_140038" data-name="Trazado 140038" d="M161.077,230.517V149.664l-18.188,19.314v61.539" transform="translate(-142.889 -139.603)" fill="#2a94ee"/>
        </g>
      </g>
      <path id="Trazado_140039" data-name="Trazado 140039" d="M136.738,121.875H29.021V14.159a6.66,6.66,0,0,0-13.319,0V121.875H14.159a6.66,6.66,0,1,0,0,13.319H15.7v1.544a6.66,6.66,0,1,0,13.319,0v-1.544H136.738a6.66,6.66,0,1,0,0-13.319Z" transform="translate(-7.499 -7.499)" fill="#d64626"/>
      <path id="Trazado_140040" data-name="Trazado 140040" d="M20.906,136.738v-1.544H19.362a6.66,6.66,0,0,1,0-13.319h1.544V14.159a6.661,6.661,0,0,1,4.058-6.132A6.663,6.663,0,0,0,15.7,14.159V121.875H14.159a6.66,6.66,0,1,0,0,13.319H15.7v1.544a6.663,6.663,0,0,0,9.261,6.132A6.661,6.661,0,0,1,20.906,136.738Z" transform="translate(-7.499 -7.499)" fill="#97181a"/>
      <g id="Grupo_82033" data-name="Grupo 82033" transform="translate(28.19 2.284)">
        <path id="Trazado_140041" data-name="Trazado 140041" d="M210.006,16.184l-29.463,9.854a6.3,6.3,0,0,0-2.175,10.684l5.015,4.438L172.245,53.748l-27.12-16.9A8.837,8.837,0,0,0,133.3,39.15L112.281,68.079a8.838,8.838,0,1,0,14.3,10.39L142.761,56.2l26.476,16.5a8.838,8.838,0,0,0,11.293-1.644l16.09-18.185,5.017,4.439a6.3,6.3,0,0,0,10.34-3.459l6.193-30.445a6.3,6.3,0,0,0-8.165-7.224Z" transform="translate(-110.593 -15.85)" fill="#fed947"/>
        <g id="Grupo_82032" data-name="Grupo 82032" transform="translate(0 0)">
          <path id="Trazado_140042" data-name="Trazado 140042" d="M342.185,36.722,347.2,41.16,336.062,53.749l6.232,3.675,11.139-12.589L348.417,40.4a6.3,6.3,0,0,1,2.175-10.684l29.463-9.854a6.4,6.4,0,0,1,1.5-.308,6.294,6.294,0,0,0-7.733-3.367L344.36,26.039A6.294,6.294,0,0,0,342.185,36.722Z" transform="translate(-274.41 -15.851)" fill="#fed947" style="mix-blend-mode: multiply;isolation: isolate"/>
          <path id="Trazado_140043" data-name="Trazado 140043" d="M118.513,123.983l21.019-28.928a8.839,8.839,0,0,1,10.235-3.087l-4.642-2.894A8.837,8.837,0,0,0,133.3,91.38l-21.019,28.928a8.83,8.83,0,0,0,6.166,13.973A8.84,8.84,0,0,1,118.513,123.983Z" transform="translate(-110.593 -68.08)" fill="#fed947" style="mix-blend-mode: multiply;isolation: isolate"/>
        </g>
      </g>
    </g>
    <path id="Trazado_140044" data-name="Trazado 140044" d="M132.062,114.412V46.2a8.358,8.358,0,0,0,1.572-3.458L139.827,12.3A8.346,8.346,0,0,0,129,2.723L99.54,12.577a8.345,8.345,0,0,0-2.883,14.164l3.479,3.079-8.631,9.754L65.857,23.589a10.926,10.926,0,0,0-14.568,2.84L30.27,55.357A10.893,10.893,0,0,0,37.02,72.452v41.924h-11.4V41.56a2.051,2.051,0,0,0-4.1,0v74.867a2.051,2.051,0,0,0,2.051,2.051H131.288a4.609,4.609,0,1,1,0,9.218H23.573a2.051,2.051,0,0,0-2.051,2.051v1.542a4.609,4.609,0,1,1-9.218,0v-1.542a2.051,2.051,0,0,0-2.051-2.051H8.711a4.609,4.609,0,1,1,0-9.218h1.542a2.051,2.051,0,0,0,2.051-2.051V8.712a4.609,4.609,0,1,1,9.218,0V33.367a2.051,2.051,0,1,0,4.1,0V8.712a8.71,8.71,0,1,0-17.421,0V114.391a8.711,8.711,0,0,0,.014,17.393,8.71,8.71,0,0,0,17.392.014H131.288a8.71,8.71,0,0,0,.774-17.386Zm-20.237-9.92a2.051,2.051,0,0,0-2.051,2.051v7.834H95.686V64.371a10.866,10.866,0,0,0,6.027-3.471l8.06-9.11V98.339a2.051,2.051,0,1,0,4.1,0V47.155l2.57-2.9,3.481,3.08a8.255,8.255,0,0,0,8.034,1.707v65.337H113.875v-7.834a2.051,2.051,0,0,0-2.051-2.051ZM62.945,47.434,73.4,53.948v60.428H59.31V52.436ZM77.5,56.5l10.3,6.42A10.914,10.914,0,0,0,91.585,64.4v49.979H77.5Zm-43.91,1.264L54.607,28.84a6.806,6.806,0,0,1,9.08-1.77l27.12,16.9a2.05,2.05,0,0,0,2.621-.381L104.567,31a2.051,2.051,0,0,0-.177-2.895L99.374,23.67a4.244,4.244,0,0,1,1.466-7.2L130.3,6.612a4.244,4.244,0,0,1,5.5,4.87l-6.193,30.444a4.244,4.244,0,0,1-6.971,2.332l-5.017-4.439a2.051,2.051,0,0,0-2.895.177L98.642,58.182a6.768,6.768,0,0,1-8.673,1.262l-26.476-16.5a2.051,2.051,0,0,0-2.744.535L44.569,65.747a6.814,6.814,0,0,1-5.5,2.8,6.787,6.787,0,0,1-5.483-10.776Zm7.534,14.679a10.927,10.927,0,0,0,6.765-4.29l7.321-10.076v56.294H41.122V72.448Z" transform="translate(0 0)"/>
  </g>
</svg>
