<svg xmlns="http://www.w3.org/2000/svg" width="240.69" height="51.866" viewBox="0 0 240.69 51.866">
  <g id="Grupo_82931" data-name="Grupo 82931" transform="translate(-678.186 -508.902)">
    <path id="Trazado_141835" data-name="Trazado 141835" d="M11.934-4.844a5.127,5.127,0,0,1-.981,2.656A5.551,5.551,0,0,1,8.706-.4,6.954,6.954,0,0,1,5.693.2,4.683,4.683,0,0,1,2.188-1.24,5.77,5.77,0,0,1,.791-5a12.245,12.245,0,0,1,.347-3.447,9.112,9.112,0,0,1,1.416-3.247,6.506,6.506,0,0,1,2.314-2.07,6.008,6.008,0,0,1,2.915-.659,5.086,5.086,0,0,1,3.677,1.4,5.467,5.467,0,0,1,1.47,3.74L9.6-9.3a2.739,2.739,0,0,0-.469-1.855,2.058,2.058,0,0,0-1.543-.6q-2.637-.088-3.213,4.1a22.537,22.537,0,0,0-.264,2.705q-.049,2.4,1.777,2.471a2.609,2.609,0,0,0,1.885-.581,2.906,2.906,0,0,0,.9-1.753Zm6.943.938,4.355-10.312h3.828L20.186,0H16.533L14.15-14.219h3.613ZM39.1-14.219,37.52-4.941a5.834,5.834,0,0,1-1.987,3.8A6.057,6.057,0,0,1,31.387.205a5.654,5.654,0,0,1-2.7-.669,3.919,3.919,0,0,1-1.685-1.807,4.861,4.861,0,0,1-.366-2.661l1.582-9.287h3.359l-1.572,9.3a4.473,4.473,0,0,0-.02.928,1.677,1.677,0,0,0,.454,1.124,1.661,1.661,0,0,0,1.147.43q2.148.068,2.588-2.492l1.582-9.295ZM58.8-7.051H50l.449-2.539h8.789Zm-.742,4.287h-8.8L49.707-5.3H58.5ZM79.078-5.645H65.719l.719-2.578H79.8Zm14.7,0H80.416l.719-2.578H94.494Zm14.7,0H95.113l.719-2.578h13.359Zm14.7,0H109.81l.719-2.578h13.359Zm14.7,0H124.508l.719-2.578h13.359Zm14.7,0H139.205l.719-2.578h13.359Zm14.7,0H153.9l.719-2.578H167.98Zm14.7,0H168.6l.719-2.578h13.359Zm14.7,0H183.3l.719-2.578h13.359Zm14.7,0H197.994l.719-2.578h13.359Zm14.7,0H212.691l.719-2.578h13.359Zm14.7,0H227.389l.719-2.578h13.359Z" transform="translate(677.41 541.73)" fill="#12263f"/>
    <path id="Trazado_141836" data-name="Trazado 141836" d="M13.359-14.219,11.777-4.941a5.834,5.834,0,0,1-1.987,3.8A6.057,6.057,0,0,1,5.645.205a5.654,5.654,0,0,1-2.7-.669A3.919,3.919,0,0,1,1.265-2.271,4.861,4.861,0,0,1,.9-4.932L2.48-14.219H5.84l-1.572,9.3a4.472,4.472,0,0,0-.02.928A1.677,1.677,0,0,0,4.7-2.862a1.661,1.661,0,0,0,1.147.43Q8-2.363,8.438-4.924l1.582-9.295Zm4.268,3.643L17.4-9.307a3.756,3.756,0,0,1,3.057-1.465,2.523,2.523,0,0,1,2.183,1.089,4.557,4.557,0,0,1,.522,3.032L22.051,0H18.828l1.123-6.678a3.454,3.454,0,0,0,.02-.626q-.068-.929-1.094-.929a2.008,2.008,0,0,0-1.553.753L16.006,0H12.793l1.836-10.566ZM27.285,0H24.063L25.9-10.566h3.223Zm-1.1-13.232a1.49,1.49,0,0,1,.5-1.191,1.806,1.806,0,0,1,1.265-.479,1.864,1.864,0,0,1,1.255.43,1.464,1.464,0,0,1,.522,1.123,1.493,1.493,0,0,1-.5,1.2,1.811,1.811,0,0,1-1.27.474,1.887,1.887,0,0,1-1.245-.425A1.447,1.447,0,0,1,26.182-13.232ZM29.854-5.3a7.685,7.685,0,0,1,1.523-4,3.775,3.775,0,0,1,3.184-1.455A2.88,2.88,0,0,1,36.8-9.629L37.822-15h3.223l-2.6,15H35.586l.137-1.143A3.3,3.3,0,0,1,33.1.205,2.911,2.911,0,0,1,30.708-.923,4.974,4.974,0,0,1,29.785-3.9a9.146,9.146,0,0,1,.039-1.2Zm3.2.225a7.669,7.669,0,0,0-.068,1.094q0,1.621,1.094,1.65a2.049,2.049,0,0,0,1.689-.908l.723-4.053a1.3,1.3,0,0,0-1.289-.928,1.643,1.643,0,0,0-1.45.776A5.007,5.007,0,0,0,33.057-5.078ZM46.289,0a2.865,2.865,0,0,1-.137-.957A3.259,3.259,0,0,1,43.564.2a3.184,3.184,0,0,1-2.285-.918A2.759,2.759,0,0,1,40.43-2.9a3.1,3.1,0,0,1,1.436-2.642,6.768,6.768,0,0,1,3.789-.923l1.074.02.117-.6.039-.518A.839.839,0,0,0,46-8.477a1.235,1.235,0,0,0-1.3,1.162l-3.223.01a3.06,3.06,0,0,1,.693-1.851,4.109,4.109,0,0,1,1.753-1.211,6.125,6.125,0,0,1,2.358-.4,4.723,4.723,0,0,1,2.1.5A3.133,3.133,0,0,1,49.736-8.94a3.368,3.368,0,0,1,.342,1.948l-.791,4.971-.049.605a2.669,2.669,0,0,0,.186,1.23L49.414,0ZM44.453-2.129A2.072,2.072,0,0,0,46.182-3L46.5-4.7l-.83-.01a2.188,2.188,0,0,0-1.328.454,1.722,1.722,0,0,0-.654,1.187.865.865,0,0,0,.151.659A.773.773,0,0,0,44.453-2.129ZM51.25-5.3a7.685,7.685,0,0,1,1.523-4,3.775,3.775,0,0,1,3.184-1.455,2.88,2.88,0,0,1,2.236,1.133L59.219-15h3.223l-2.6,15H56.982l.137-1.143A3.3,3.3,0,0,1,54.492.205,2.911,2.911,0,0,1,52.1-.923,4.974,4.974,0,0,1,51.182-3.9a9.146,9.146,0,0,1,.039-1.2Zm3.2.225a7.669,7.669,0,0,0-.068,1.094q0,1.621,1.094,1.65a2.049,2.049,0,0,0,1.689-.908l.723-4.053A1.3,1.3,0,0,0,56.6-8.223a1.643,1.643,0,0,0-1.45.776A5.007,5.007,0,0,0,54.453-5.078ZM66.982.2a4.912,4.912,0,0,1-2.524-.669A4.215,4.215,0,0,1,62.783-2.31,4.933,4.933,0,0,1,62.334-4.9l.029-.273A6.477,6.477,0,0,1,64.175-9.3a5.011,5.011,0,0,1,3.794-1.46,4.086,4.086,0,0,1,2.324.689,3.853,3.853,0,0,1,1.416,1.848A5.662,5.662,0,0,1,72-5.578l-.186,1.34H65.527A2.06,2.06,0,0,0,66-2.891a1.722,1.722,0,0,0,1.309.547,3.325,3.325,0,0,0,2.51-1.074l1.348,1.782A3.976,3.976,0,0,1,69.5-.306a5.848,5.848,0,0,1-2.339.5Zm.781-8.418a1.653,1.653,0,0,0-1.187.427A3.588,3.588,0,0,0,65.7-6.3h3.213l.059-.282a2.143,2.143,0,0,0,.02-.641A1.131,1.131,0,0,0,67.764-8.223Zm10.586,5.2q.127-.645-1-.967L76.66-4.17a5.34,5.34,0,0,1-2.49-1.26,2.494,2.494,0,0,1-.742-1.924A3.065,3.065,0,0,1,74.78-9.829a5.148,5.148,0,0,1,3.179-.933,4.769,4.769,0,0,1,3.022.947,3.09,3.09,0,0,1,1.177,2.5l-3.2-.01q.039-1.25-1.1-1.25a1.574,1.574,0,0,0-.908.288,1.119,1.119,0,0,0-.5.767q-.166.791,1.4,1.084a8.116,8.116,0,0,1,2.1.747,3.135,3.135,0,0,1,1.133,1.05,2.611,2.611,0,0,1,.361,1.5,2.824,2.824,0,0,1-.625,1.709,4.047,4.047,0,0,1-1.724,1.2A6.174,6.174,0,0,1,76.641.2a4.965,4.965,0,0,1-2.124-.479,3.787,3.787,0,0,1-1.533-1.274,3.31,3.31,0,0,1-.571-1.851l2.988.02A1.234,1.234,0,0,0,76.807-2a1.846,1.846,0,0,0,1.016-.269A1.161,1.161,0,0,0,78.35-3.027Zm13.789-.928,2.646-6.611h3.467L93.252,0H89.98L88.291-10.566h3.3ZM102.734.2a4.912,4.912,0,0,1-2.524-.669A4.215,4.215,0,0,1,98.535-2.31,4.933,4.933,0,0,1,98.086-4.9l.029-.273A6.477,6.477,0,0,1,99.927-9.3a5.011,5.011,0,0,1,3.794-1.46,4.086,4.086,0,0,1,2.324.689,3.853,3.853,0,0,1,1.416,1.848,5.662,5.662,0,0,1,.293,2.646l-.186,1.34h-6.289a2.06,2.06,0,0,0,.469,1.348,1.722,1.722,0,0,0,1.309.547,3.325,3.325,0,0,0,2.51-1.074l1.348,1.782a3.976,3.976,0,0,1-1.665,1.329,5.848,5.848,0,0,1-2.339.5Zm.781-8.418a1.653,1.653,0,0,0-1.187.427,3.588,3.588,0,0,0-.874,1.5h3.213l.059-.282a2.143,2.143,0,0,0,.02-.641A1.131,1.131,0,0,0,103.516-8.223Zm9.395-2.354-.225,1.27a3.756,3.756,0,0,1,3.057-1.465,2.523,2.523,0,0,1,2.183,1.089,4.557,4.557,0,0,1,.522,3.032L117.334,0h-3.223l1.123-6.678a3.454,3.454,0,0,0,.02-.626q-.068-.929-1.094-.929a2.008,2.008,0,0,0-1.553.753L111.289,0h-3.213l1.836-10.566Zm6.8,5.273a7.685,7.685,0,0,1,1.523-4,3.775,3.775,0,0,1,3.184-1.455,2.88,2.88,0,0,1,2.236,1.133L127.676-15H130.9L128.3,0h-2.861l.137-1.143A3.3,3.3,0,0,1,122.949.205a2.911,2.911,0,0,1-2.388-1.128,4.974,4.974,0,0,1-.923-2.974,9.146,9.146,0,0,1,.039-1.2Zm3.2.225a7.669,7.669,0,0,0-.068,1.094q0,1.621,1.094,1.65a2.049,2.049,0,0,0,1.689-.908l.723-4.053a1.3,1.3,0,0,0-1.289-.928,1.643,1.643,0,0,0-1.45.776A5.008,5.008,0,0,0,122.91-5.078ZM133.574,0h-3.223l1.836-10.566h3.223Zm-1.1-13.232a1.49,1.49,0,0,1,.5-1.191,1.806,1.806,0,0,1,1.265-.479,1.864,1.864,0,0,1,1.255.43,1.464,1.464,0,0,1,.522,1.123,1.493,1.493,0,0,1-.5,1.2,1.811,1.811,0,0,1-1.27.474A1.887,1.887,0,0,1,133-12.1,1.447,1.447,0,0,1,132.471-13.232Zm3.672,7.93a7.685,7.685,0,0,1,1.523-4,3.775,3.775,0,0,1,3.184-1.455,2.88,2.88,0,0,1,2.236,1.133L144.111-15h3.223l-2.6,15h-2.861l.137-1.143A3.3,3.3,0,0,1,139.385.205,2.911,2.911,0,0,1,137-.923a4.974,4.974,0,0,1-.923-2.974,9.147,9.147,0,0,1,.039-1.2Zm3.2.225a7.669,7.669,0,0,0-.068,1.094q0,1.621,1.094,1.65a2.049,2.049,0,0,0,1.689-.908l.723-4.053a1.3,1.3,0,0,0-1.289-.928,1.643,1.643,0,0,0-1.45.776A5.007,5.007,0,0,0,139.346-5.078ZM152.578,0a2.865,2.865,0,0,1-.137-.957A3.259,3.259,0,0,1,149.854.2a3.184,3.184,0,0,1-2.285-.918,2.759,2.759,0,0,1-.85-2.178,3.1,3.1,0,0,1,1.436-2.642,6.768,6.768,0,0,1,3.789-.923l1.074.02.117-.6.039-.518a.839.839,0,0,0-.889-.918,1.235,1.235,0,0,0-1.3,1.162l-3.223.01a3.06,3.06,0,0,1,.693-1.851,4.109,4.109,0,0,1,1.753-1.211,6.125,6.125,0,0,1,2.358-.4,4.723,4.723,0,0,1,2.1.5,3.133,3.133,0,0,1,1.353,1.318,3.368,3.368,0,0,1,.342,1.948l-.791,4.971-.049.605a2.669,2.669,0,0,0,.186,1.23L155.7,0Zm-1.836-2.129A2.072,2.072,0,0,0,152.471-3l.322-1.7-.83-.01a2.188,2.188,0,0,0-1.328.454,1.722,1.722,0,0,0-.654,1.187.865.865,0,0,0,.151.659A.773.773,0,0,0,150.742-2.129Zm12.227-.9q.127-.645-1-.967l-.693-.176a5.34,5.34,0,0,1-2.49-1.26,2.494,2.494,0,0,1-.742-1.924A3.065,3.065,0,0,1,159.4-9.829a5.148,5.148,0,0,1,3.179-.933,4.769,4.769,0,0,1,3.022.947,3.09,3.09,0,0,1,1.177,2.5l-3.2-.01q.039-1.25-1.1-1.25a1.574,1.574,0,0,0-.908.288,1.119,1.119,0,0,0-.5.767q-.166.791,1.4,1.084a8.116,8.116,0,0,1,2.1.747,3.135,3.135,0,0,1,1.133,1.05,2.611,2.611,0,0,1,.361,1.5,2.824,2.824,0,0,1-.625,1.709,4.047,4.047,0,0,1-1.724,1.2A6.174,6.174,0,0,1,161.26.2a4.965,4.965,0,0,1-2.124-.479A3.787,3.787,0,0,1,157.6-1.558a3.31,3.31,0,0,1-.571-1.851l2.988.02A1.234,1.234,0,0,0,161.426-2a1.846,1.846,0,0,0,1.016-.269A1.161,1.161,0,0,0,162.969-3.027Z" transform="translate(745.364 560.563)" fill="#12263f"/>
    <path id="Trazado_141837" data-name="Trazado 141837" d="M11.934-4.844a5.127,5.127,0,0,1-.981,2.656A5.551,5.551,0,0,1,8.706-.4,6.954,6.954,0,0,1,5.693.2,4.683,4.683,0,0,1,2.188-1.24,5.77,5.77,0,0,1,.791-5a12.245,12.245,0,0,1,.347-3.447,9.112,9.112,0,0,1,1.416-3.247,6.506,6.506,0,0,1,2.314-2.07,6.008,6.008,0,0,1,2.915-.659,5.086,5.086,0,0,1,3.677,1.4,5.467,5.467,0,0,1,1.47,3.74L9.6-9.3a2.739,2.739,0,0,0-.469-1.855,2.058,2.058,0,0,0-1.543-.6q-2.637-.088-3.213,4.1a22.537,22.537,0,0,0-.264,2.705q-.049,2.4,1.777,2.471a2.609,2.609,0,0,0,1.885-.581,2.906,2.906,0,0,0,.9-1.753Zm6.934-5.918a4.438,4.438,0,0,1,2.451.708,3.989,3.989,0,0,1,1.519,1.919A5.922,5.922,0,0,1,23.184-5.4l-.02.215A6.262,6.262,0,0,1,21.357-1.26,5.083,5.083,0,0,1,17.568.2a4.419,4.419,0,0,1-2.432-.7,4.014,4.014,0,0,1-1.519-1.9,5.755,5.755,0,0,1-.356-2.715,6.514,6.514,0,0,1,1.782-4.141A5.052,5.052,0,0,1,18.867-10.762ZM16.475-5.113l-.029.575q-.137,2.174,1.328,2.213,1.895.059,2.2-3.071l.039-.887a2.394,2.394,0,0,0-.327-1.4,1.192,1.192,0,0,0-1.021-.541A1.68,1.68,0,0,0,17.2-7.5,4.753,4.753,0,0,0,16.475-5.113ZM29.658-3.027q.127-.645-1-.967l-.693-.176a5.34,5.34,0,0,1-2.49-1.26,2.494,2.494,0,0,1-.742-1.924,3.065,3.065,0,0,1,1.353-2.476,5.148,5.148,0,0,1,3.179-.933,4.769,4.769,0,0,1,3.022.947,3.09,3.09,0,0,1,1.177,2.5l-3.2-.01q.039-1.25-1.1-1.25a1.574,1.574,0,0,0-.908.288,1.119,1.119,0,0,0-.5.767q-.166.791,1.4,1.084a8.116,8.116,0,0,1,2.1.747,3.135,3.135,0,0,1,1.133,1.05,2.611,2.611,0,0,1,.361,1.5,2.824,2.824,0,0,1-.625,1.709A4.047,4.047,0,0,1,30.4-.225,6.174,6.174,0,0,1,27.949.2a4.965,4.965,0,0,1-2.124-.479,3.787,3.787,0,0,1-1.533-1.274,3.31,3.31,0,0,1-.571-1.851l2.988.02A1.234,1.234,0,0,0,28.115-2a1.846,1.846,0,0,0,1.016-.269A1.161,1.161,0,0,0,29.658-3.027ZM39.766-13.193l-.459,2.627H41l-.4,2.285H38.906l-.82,4.854a1.294,1.294,0,0,0,.063.752q.132.254.659.273a7.637,7.637,0,0,0,.84-.049L39.414-.068a5.192,5.192,0,0,1-1.729.244A2.847,2.847,0,0,1,35.449-.7a3,3,0,0,1-.605-2.334L35.7-8.281H34.395l.391-2.285h1.309l.459-2.627Zm6.6,2.432a4.438,4.438,0,0,1,2.451.708,3.989,3.989,0,0,1,1.519,1.919A5.922,5.922,0,0,1,50.684-5.4l-.02.215A6.262,6.262,0,0,1,48.857-1.26,5.083,5.083,0,0,1,45.068.2a4.419,4.419,0,0,1-2.432-.7,4.014,4.014,0,0,1-1.519-1.9,5.755,5.755,0,0,1-.356-2.715,6.514,6.514,0,0,1,1.782-4.141A5.052,5.052,0,0,1,46.367-10.762ZM43.975-5.113l-.029.575q-.137,2.174,1.328,2.213,1.895.059,2.2-3.071l.039-.887a2.394,2.394,0,0,0-.327-1.4,1.192,1.192,0,0,0-1.021-.541A1.68,1.68,0,0,0,44.7-7.5,4.753,4.753,0,0,0,43.975-5.113ZM57.158-3.027q.127-.645-1-.967l-.693-.176a5.34,5.34,0,0,1-2.49-1.26,2.494,2.494,0,0,1-.742-1.924,3.065,3.065,0,0,1,1.353-2.476,5.148,5.148,0,0,1,3.179-.933,4.769,4.769,0,0,1,3.022.947,3.09,3.09,0,0,1,1.177,2.5l-3.2-.01q.039-1.25-1.1-1.25a1.574,1.574,0,0,0-.908.288,1.119,1.119,0,0,0-.5.767q-.166.791,1.4,1.084a8.116,8.116,0,0,1,2.1.747,3.135,3.135,0,0,1,1.133,1.05,2.611,2.611,0,0,1,.361,1.5,2.824,2.824,0,0,1-.625,1.709A4.047,4.047,0,0,1,57.9-.225,6.174,6.174,0,0,1,55.449.2a4.965,4.965,0,0,1-2.124-.479,3.787,3.787,0,0,1-1.533-1.274,3.31,3.31,0,0,1-.571-1.851l2.988.02A1.234,1.234,0,0,0,55.615-2a1.846,1.846,0,0,0,1.016-.269A1.161,1.161,0,0,0,57.158-3.027Zm13.789-.928,2.646-6.611h3.467L72.061,0H68.789L67.1-10.566h3.3ZM82.1,0a2.865,2.865,0,0,1-.137-.957A3.259,3.259,0,0,1,79.375.2,3.184,3.184,0,0,1,77.09-.723,2.759,2.759,0,0,1,76.24-2.9a3.1,3.1,0,0,1,1.436-2.642,6.768,6.768,0,0,1,3.789-.923l1.074.02.117-.6.039-.518a.839.839,0,0,0-.889-.918,1.235,1.235,0,0,0-1.3,1.162l-3.223.01a3.061,3.061,0,0,1,.693-1.851,4.109,4.109,0,0,1,1.753-1.211,6.125,6.125,0,0,1,2.358-.4,4.723,4.723,0,0,1,2.1.5A3.133,3.133,0,0,1,85.547-8.94a3.368,3.368,0,0,1,.342,1.948L85.1-2.021l-.049.605a2.669,2.669,0,0,0,.186,1.23L85.225,0ZM80.264-2.129A2.072,2.072,0,0,0,81.992-3l.322-1.7-.83-.01a2.188,2.188,0,0,0-1.328.454A1.722,1.722,0,0,0,79.5-3.066a.865.865,0,0,0,.151.659A.773.773,0,0,0,80.264-2.129Zm13.9-5.459a9.192,9.192,0,0,0-1-.1,2.481,2.481,0,0,0-2.207,1L89.766,0H86.553l1.836-10.566,3-.01-.244,1.387a2.933,2.933,0,0,1,2.441-1.6,4.6,4.6,0,0,1,1,.137ZM97.373,0H94.15l1.836-10.566h3.223Zm-1.1-13.232a1.49,1.49,0,0,1,.5-1.191,1.806,1.806,0,0,1,1.265-.479,1.864,1.864,0,0,1,1.255.43,1.464,1.464,0,0,1,.522,1.123,1.493,1.493,0,0,1-.5,1.2,1.811,1.811,0,0,1-1.27.474A1.887,1.887,0,0,1,96.8-12.1,1.447,1.447,0,0,1,96.27-13.232ZM105.371,0a2.865,2.865,0,0,1-.137-.957A3.259,3.259,0,0,1,102.646.2a3.184,3.184,0,0,1-2.285-.918,2.759,2.759,0,0,1-.85-2.178,3.1,3.1,0,0,1,1.436-2.642,6.768,6.768,0,0,1,3.789-.923l1.074.02.117-.6.039-.518a.839.839,0,0,0-.889-.918,1.235,1.235,0,0,0-1.3,1.162l-3.223.01a3.061,3.061,0,0,1,.693-1.851A4.109,4.109,0,0,1,103-10.366a6.125,6.125,0,0,1,2.358-.4,4.723,4.723,0,0,1,2.1.5,3.133,3.133,0,0,1,1.353,1.318,3.368,3.368,0,0,1,.342,1.948l-.791,4.971-.049.605a2.669,2.669,0,0,0,.186,1.23L108.5,0Zm-1.836-2.129A2.072,2.072,0,0,0,105.264-3l.322-1.7-.83-.01a2.188,2.188,0,0,0-1.328.454,1.722,1.722,0,0,0-.654,1.187.865.865,0,0,0,.151.659A.773.773,0,0,0,103.535-2.129Zm16.7-3.135a7.657,7.657,0,0,1-1.514,4.043A3.788,3.788,0,0,1,115.537.205a2.8,2.8,0,0,1-2.4-1.309l-.4,1.1h-2.91l2.607-15h3.213L114.6-9.7a3.189,3.189,0,0,1,2.373-1.064,2.977,2.977,0,0,1,2.422,1.108,4.834,4.834,0,0,1,.918,2.964,10.749,10.749,0,0,1-.049,1.221Zm-3.193-.19a10.113,10.113,0,0,0,.088-1.131q0-1.57-1.123-1.638a1.924,1.924,0,0,0-1.67.848l-.762,4.212a1.292,1.292,0,0,0,1.328.829q1.572.049,1.982-2.047l.137-.868ZM124.209,0h-3.223l2.6-15h3.223ZM131.5.2a4.912,4.912,0,0,1-2.524-.669A4.215,4.215,0,0,1,127.3-2.31a4.933,4.933,0,0,1-.449-2.593l.029-.273A6.477,6.477,0,0,1,128.7-9.3a5.011,5.011,0,0,1,3.794-1.46,4.086,4.086,0,0,1,2.324.689,3.853,3.853,0,0,1,1.416,1.848,5.661,5.661,0,0,1,.293,2.646l-.186,1.34h-6.289a2.06,2.06,0,0,0,.469,1.348,1.722,1.722,0,0,0,1.309.547,3.325,3.325,0,0,0,2.51-1.074l1.348,1.782a3.976,3.976,0,0,1-1.665,1.329,5.848,5.848,0,0,1-2.339.5Zm.781-8.418A1.653,1.653,0,0,0,131.1-7.8a3.588,3.588,0,0,0-.874,1.5h3.213l.059-.282a2.143,2.143,0,0,0,.02-.641A1.131,1.131,0,0,0,132.285-8.223Zm10.586,5.2q.127-.645-1-.967l-.693-.176a5.34,5.34,0,0,1-2.49-1.26,2.494,2.494,0,0,1-.742-1.924A3.065,3.065,0,0,1,139.3-9.829a5.148,5.148,0,0,1,3.179-.933,4.769,4.769,0,0,1,3.022.947,3.09,3.09,0,0,1,1.177,2.5l-3.2-.01q.039-1.25-1.1-1.25a1.574,1.574,0,0,0-.908.288,1.119,1.119,0,0,0-.5.767q-.166.791,1.4,1.084a8.116,8.116,0,0,1,2.1.747,3.135,3.135,0,0,1,1.133,1.05,2.611,2.611,0,0,1,.361,1.5,2.824,2.824,0,0,1-.625,1.709,4.047,4.047,0,0,1-1.724,1.2,6.174,6.174,0,0,1-2.446.42,4.965,4.965,0,0,1-2.124-.479A3.787,3.787,0,0,1,137.5-1.558a3.31,3.31,0,0,1-.571-1.851l2.988.02A1.234,1.234,0,0,0,141.328-2a1.846,1.846,0,0,0,1.016-.269A1.161,1.161,0,0,0,142.871-3.027Z" transform="translate(755.365 523.902)" fill="#12263f"/>
  </g>
</svg>
