<svg xmlns="http://www.w3.org/2000/svg" width="160.625" height="14.631" viewBox="0 0 160.625 14.631">
  <g id="Grupo_82933" data-name="Grupo 82933" transform="translate(-1154.43 -533.645)">
    <g id="Grupo_82932" data-name="Grupo 82932">
      <path id="Trazado_141838" data-name="Trazado 141838" d="M6.816-14.219,8.174-4.355l4.766-9.863h4.453L14.932,0H11.572l.605-3.486,1.445-6.426L8.643,0H6.426L4.814-10.283l-.9,7.129L3.359,0H.02L2.48-14.219ZM29.033-4.844a5.127,5.127,0,0,1-.981,2.656A5.551,5.551,0,0,1,25.806-.4a6.954,6.954,0,0,1-3.013.6A4.683,4.683,0,0,1,19.287-1.24,5.77,5.77,0,0,1,17.891-5a12.245,12.245,0,0,1,.347-3.447,9.112,9.112,0,0,1,1.416-3.247,6.506,6.506,0,0,1,2.314-2.07,6.008,6.008,0,0,1,2.915-.659,5.086,5.086,0,0,1,3.677,1.4,5.467,5.467,0,0,1,1.47,3.74L26.7-9.3a2.739,2.739,0,0,0-.469-1.855,2.058,2.058,0,0,0-1.543-.6q-2.637-.088-3.213,4.1a22.537,22.537,0,0,0-.264,2.705q-.049,2.4,1.777,2.471a2.609,2.609,0,0,0,1.885-.581,2.906,2.906,0,0,0,.9-1.753Zm14.258-9.375L41.709-4.941a5.834,5.834,0,0,1-1.987,3.8A6.057,6.057,0,0,1,35.576.205a5.654,5.654,0,0,1-2.7-.669A3.919,3.919,0,0,1,31.2-2.271a4.861,4.861,0,0,1-.366-2.661l1.582-9.287h3.359L34.2-4.914a4.472,4.472,0,0,0-.02.928,1.677,1.677,0,0,0,.454,1.124,1.661,1.661,0,0,0,1.147.43q2.148.068,2.588-2.492l1.582-9.295ZM58.057-7.051h-8.8l.449-2.539H58.5Zm-.742,4.287h-8.8L48.965-5.3h8.789Zm11.123-2.07L67.6,0h-3.34l2.461-14.219,5.107.01a5.148,5.148,0,0,1,3.735,1.317,4.058,4.058,0,0,1,1.2,3.414A4.642,4.642,0,0,1,75.84-6.99a5.084,5.084,0,0,1-2.114,1.61,7.484,7.484,0,0,1-2.944.556ZM68.9-7.471l2.012.02a2.482,2.482,0,0,0,1.943-.827,2.463,2.463,0,0,0,.537-1.963,1.5,1.5,0,0,0-.454-.945,1.556,1.556,0,0,0-.991-.387l-2.334-.01ZM83.008-3.906l4.355-10.312h3.828L84.316,0H80.664L78.281-14.219h3.613Zm20.225-10.312L101.65-4.941a5.834,5.834,0,0,1-1.987,3.8A6.057,6.057,0,0,1,95.518.205a5.654,5.654,0,0,1-2.7-.669,3.919,3.919,0,0,1-1.685-1.807,4.861,4.861,0,0,1-.366-2.661l1.582-9.287h3.359l-1.572,9.3a4.473,4.473,0,0,0-.02.928,1.677,1.677,0,0,0,.454,1.124,1.661,1.661,0,0,0,1.147.43q2.148.068,2.588-2.492l1.582-9.295Zm11.533,9.355h-5.713l.439-2.539h5.713Zm18.711.02a5.127,5.127,0,0,1-.981,2.656A5.551,5.551,0,0,1,130.249-.4a6.954,6.954,0,0,1-3.013.6A4.683,4.683,0,0,1,123.73-1.24a5.77,5.77,0,0,1-1.4-3.76,12.245,12.245,0,0,1,.347-3.447,9.112,9.112,0,0,1,1.416-3.247,6.506,6.506,0,0,1,2.314-2.07,6.008,6.008,0,0,1,2.915-.659,5.086,5.086,0,0,1,3.677,1.4,5.467,5.467,0,0,1,1.47,3.74l-3.33-.01a2.739,2.739,0,0,0-.469-1.855,2.058,2.058,0,0,0-1.543-.6q-2.637-.088-3.213,4.1a22.537,22.537,0,0,0-.264,2.705q-.049,2.4,1.777,2.471a2.609,2.609,0,0,0,1.885-.581,2.906,2.906,0,0,0,.9-1.753Zm6.943.938,4.355-10.312H148.6L141.729,0h-3.652l-2.383-14.219h3.613Zm20.225-10.312-1.582,9.277a5.834,5.834,0,0,1-1.987,3.8A6.057,6.057,0,0,1,152.93.205a5.654,5.654,0,0,1-2.7-.669,3.919,3.919,0,0,1-1.685-1.807,4.861,4.861,0,0,1-.366-2.661l1.582-9.287h3.359l-1.572,9.3a4.472,4.472,0,0,0-.02.928,1.677,1.677,0,0,0,.454,1.124,1.661,1.661,0,0,0,1.147.43q2.148.068,2.588-2.492l1.582-9.295Z" transform="translate(1154.41 548.07)" fill="#12263f"/>
    </g>
  </g>
</svg>
