<svg xmlns="http://www.w3.org/2000/svg" width="88" height="84.961" viewBox="0 0 88 84.961">
  <g id="megafono" transform="translate(0 -8.288)">
    <path id="Trazado_140961" data-name="Trazado 140961" d="M82.1,59.751a4.672,4.672,0,0,1-3.865,7.005A91.8,91.8,0,0,0,39.978,76.774L35.9,79.128c0,.019-.056-.1,9.875,17.175a3.3,3.3,0,0,1-1.208,4.512l-3.218,1.857a3.3,3.3,0,0,1-4.51-1.21L26.932,84.306l-1.608.93A6.606,6.606,0,0,1,16.3,82.817L8.873,69.95a6.606,6.606,0,0,1,2.418-9.022l14.654-8.461a91.809,91.809,0,0,0,27.8-28.12,4.672,4.672,0,0,1,8,.156L68.1,35.514A7.636,7.636,0,1,1,75.74,48.74Z" transform="translate(-6.523 -11.334)" fill="#d6f4fc"/>
    <path id="Trazado_140962" data-name="Trazado 140962" d="M346.318,93.207a7.636,7.636,0,0,1-2.8,10.43l-7.636-13.226A7.638,7.638,0,0,1,346.318,93.207Z" transform="translate(-274.305 -66.231)" fill="#4d4e59"/>
    <path id="Trazado_140964" data-name="Trazado 140964" d="M25.946,187.442l14.033,24.307c-2.812,1.623-11.846,6.838-14.654,8.461a6.606,6.606,0,0,1-9.022-2.418L8.873,204.925a6.606,6.606,0,0,1,2.418-9.022Z" transform="translate(-6.523 -146.308)" fill="#d64626"/>
    <path id="Trazado_140966" data-name="Trazado 140966" d="M122.954,337.516c-5.217,3.021-1.379.8-8.958,5.172l-2.68-4.64,8.967-5.176Z" transform="translate(-90.907 -265.075)" fill="#bdeffc"/>
    <path id="Trazado_140967" data-name="Trazado 140967" d="M345.861,101.747a7.551,7.551,0,0,1-2.339,2.1l-7.636-13.226a7.574,7.574,0,0,1,2.987-.977Z" transform="translate(-274.305 -66.438)" fill="#42434d"/>
    <path id="Trazado_140968" data-name="Trazado 140968" d="M71.161,37.839A9.1,9.1,0,0,0,62.178,22.28l-5.683-9.844a6.14,6.14,0,0,0-10.511-.206A90.314,90.314,0,0,1,18.625,39.9a1.468,1.468,0,0,0-.49,1.931c.06.109,9.473,16.412,9.536,16.52a1.467,1.467,0,1,0,2.54-1.467L21.383,41.6a93.2,93.2,0,0,0,27.082-27.8,3.206,3.206,0,0,1,5.489.109L74.3,49.15a3.206,3.206,0,0,1-2.651,4.808A93.251,93.251,0,0,0,32.787,64.135c-.052.026-13.775,7.951-14.721,8.5a5.142,5.142,0,0,1-7.017-1.88L3.62,57.883A5.143,5.143,0,0,1,5.5,50.866L14.442,45.7a1.467,1.467,0,1,0-1.467-2.54L4.034,48.326A8.079,8.079,0,0,0,1.08,59.35L8.509,72.218a8.079,8.079,0,0,0,11.024,2.954l.338-.2,9.172,15.887a4.766,4.766,0,0,0,6.514,1.746l3.217-1.857a4.766,4.766,0,0,0,1.745-6.514l-6.5-11.259a1.467,1.467,0,1,0-2.54,1.467L37.98,85.7a1.834,1.834,0,0,1-.672,2.507l-3.217,1.857a1.834,1.834,0,0,1-2.507-.672L22.412,73.51l11.744-6.78a90.311,90.311,0,0,1,37.612-9.84,6.139,6.139,0,0,0,5.076-9.206Zm-.419-10.13a6.179,6.179,0,0,1-1.077,7.54L63.673,24.869A6.167,6.167,0,0,1,70.742,27.709Zm14.345-6.521-3.795,2.191a1.467,1.467,0,1,1-1.467-2.54l3.795-2.191a1.467,1.467,0,0,1,1.467,2.54Zm-16.32-8.359.925-3.453a1.467,1.467,0,1,1,2.834.759L71.6,13.588a1.467,1.467,0,1,1-2.833-.759ZM87.95,36.849a1.467,1.467,0,0,1-1.416,1.087c-.265,0-.08.03-3.834-.976a1.467,1.467,0,1,1,.759-2.833l3.454.925a1.467,1.467,0,0,1,1.037,1.8Z" transform="translate(0)"/>
  </g>
</svg>
