<svg xmlns="http://www.w3.org/2000/svg" width="472.644" height="305.943" viewBox="0 0 472.644 305.943">
  <g id="Grupo_82685" data-name="Grupo 82685" transform="translate(-1762.547 -1501.14)">
    <path id="Trazado_141023" data-name="Trazado 141023" d="M2235.144,1680.527c.49-19.656-2.889-39.689-12.041-57.092s-24.426-31.974-43.1-38.119c-23.879-7.856-49.74-1.515-74.625,2.042-32.846,4.7-68.524,3.781-96.268-14.416-21.616-14.178-35.974-37.255-56.8-52.568-37.752-27.755-93.448-24.382-131.4,3.1s-58.319,75.33-58.359,122.187c-.044,52.067,24.707,103.14,64.048,137h369.169C2219.367,1753.742,2234.214,1717.744,2235.144,1680.527Z" fill="#fff5a2"/>
    <g id="Grupo_82684" data-name="Grupo 82684" transform="translate(1787.397 1506.969)">
      <g id="Grupo_82682" data-name="Grupo 82682">
        <g id="Grupo_82542" data-name="Grupo 82542" transform="translate(133.672)">
          <g id="Grupo_82540" data-name="Grupo 82540" transform="translate(4.992)">
            <rect id="Rectángulo_31662" data-name="Rectángulo 31662" width="207.604" height="137.02" fill="#20287a"/>
          </g>
          <g id="Grupo_82541" data-name="Grupo 82541" transform="translate(0 135.587)">
            <rect id="Rectángulo_31663" data-name="Rectángulo 31663" width="217.587" height="9.137" fill="#20287a"/>
          </g>
        </g>
        <g id="Grupo_82559" data-name="Grupo 82559" transform="translate(129.698 76.866)">
          <g id="Grupo_82554" data-name="Grupo 82554" transform="translate(0 4.643)">
            <g id="Grupo_82545" data-name="Grupo 82545" transform="translate(19.487 82.02)">
              <g id="Grupo_82543" data-name="Grupo 82543" transform="translate(0.502 93.291)">
                <path id="Trazado_141024" data-name="Trazado 141024" d="M2116.967,2037.127l-.316,3.119,5.667,3.89,3.308-2.734-2.676-3.5-5.667-3.89Z" transform="translate(-2116.65 -2034.008)" fill="#202b38"/>
              </g>
              <g id="Grupo_82544" data-name="Grupo 82544">
                <path id="Trazado_141025" data-name="Trazado 141025" d="M2116.591,1845.777l-.959,9.473,8.5,32.549-7.891,52.3,5.809,2,15.317-51.063,2.431-14.855-.088-31.448Z" transform="translate(-2115.631 -1844.738)" fill="#3b455a"/>
              </g>
            </g>
            <g id="Grupo_82548" data-name="Grupo 82548" transform="translate(36.243 85.651)">
              <g id="Grupo_82546" data-name="Grupo 82546">
                <path id="Trazado_141026" data-name="Trazado 141026" d="M2178.507,1860.072l-12.218,87.641h-5.554l-1-56.178-10.108-39.431Z" transform="translate(-2149.627 -1852.104)" fill="#3b455a"/>
              </g>
              <g id="Grupo_82547" data-name="Grupo 82547" transform="translate(11.139 94.915)">
                <path id="Trazado_141027" data-name="Trazado 141027" d="M2178.233,2044.671l3,3.148-3,3.148-6.006-3.148v-3.148Z" transform="translate(-2172.227 -2044.671)" fill="#202b38"/>
              </g>
            </g>
            <g id="Grupo_82549" data-name="Grupo 82549" transform="translate(0 23.218)">
              <path id="Trazado_141028" data-name="Trazado 141028" d="M2127.233,1727.595c-4.419-3.659-15.074-1.555-20.679-1.555a285.013,285.013,0,0,1-6.182,36.614c-2.384,10.4-6.93,20.531-8.954,30.912-1.8,9.259-5.736,15.915-13.13,22.257-1.152.988-2.479,2.271-2.136,3.75a3.755,3.755,0,0,0,1.737,2.042c7.455,5.113,17.038,5.645,26.076,5.8q10.293.174,20.59-.012c8.941-.162,18.888-1.214,26.511-6.385a1.957,1.957,0,0,0,1.032-1.329,2.206,2.206,0,0,0-.595-1.338c-5.325-7.357-4.708-19.526-5.746-28.139-1.172-9.722-2.348-19.471-4.668-28.984a123.263,123.263,0,0,0-5.931-18.089c-1.857-4.465-4.072-11.777-7.56-15.214C2127.48,1727.808,2127.359,1727.7,2127.233,1727.595Z" transform="translate(-2076.096 -1725.438)" fill="#d64626"/>
            </g>
            <g id="Grupo_82553" data-name="Grupo 82553" transform="translate(13.755)">
              <g id="Grupo_82550" data-name="Grupo 82550" transform="translate(24.036 2.515)">
                <path id="Trazado_141029" data-name="Trazado 141029" d="M2153.035,1689.509a9.528,9.528,0,0,1,3.873-6.074,8.229,8.229,0,0,1,3.427,13,9.351,9.351,0,0,0-7.568-6.956Z" transform="translate(-2152.768 -1683.435)" fill="#3b455a"/>
              </g>
              <g id="Grupo_82551" data-name="Grupo 82551" transform="translate(14.56 5.17)">
                <path id="Trazado_141030" data-name="Trazado 141030" d="M2147.172,1710.1a9.271,9.271,0,0,0,4.821-6.94,18.557,18.557,0,0,0-.98-8.649c-2.971-9.285-14.646-6.179-17.105,1.939C2131.764,1703.528,2139.464,1713.73,2147.172,1710.1Z" transform="translate(-2133.543 -1688.823)" fill="#eac1a4"/>
              </g>
              <g id="Grupo_82552" data-name="Grupo 82552">
                <path id="Trazado_141031" data-name="Trazado 141031" d="M2128.948,1769.661c1.685-1.281,1.49-3.8,1.926-5.874s3.048-4.132,4.425-2.524c2.928-1.2,4.468-4.594,4.458-7.76s-1.255-6.181-2.481-9.1c-4.363-10.389-9.379-20.316-9.441-31.8a76.511,76.511,0,0,1,1.115-11.575c.5-3.415.927-6.855,1.516-10.256.391-2.255,1.965-4.26,2.147-6.4a5.046,5.046,0,0,0-1.75-3.988,7.068,7.068,0,0,0-5.809-2.005c-7.878.78-13.212,6.154-14.5,14.1-1.085,6.718.653,13.522,1.9,20.211,1.882,10.058,1.247,22.031-3.668,31.117-2,3.7-4.229,7.444-4.714,11.626s1.341,8.985,5.29,10.445c1.543.57,3.295.6,4.685,1.481a2.736,2.736,0,0,1,.736,4.087c2.084,2.775,3.724.364,5.822-.473C2123.172,1769.948,2126.791,1771.3,2128.948,1769.661Z" transform="translate(-2104.003 -1678.333)" fill="#3b455a"/>
              </g>
            </g>
          </g>
          <g id="Grupo_82557" data-name="Grupo 82557" transform="translate(44.14 7.157)">
            <g id="Grupo_82555" data-name="Grupo 82555" transform="translate(0 5.207)">
              <path id="Trazado_141032" data-name="Trazado 141032" d="M2165.648,1711.2l26.922-1.924L2206.142,1694l6.736,4.015L2198,1718.9l-29.061,6.094Z" transform="translate(-2165.648 -1693.999)" fill="#d64626"/>
            </g>
            <g id="Grupo_82556" data-name="Grupo 82556" transform="translate(42.154)">
              <path id="Trazado_141033" data-name="Trazado 141033" d="M2251.17,1689.631l1.384-4.8h1.71l.535-1.4h2.673l2.459,3.641-4.9,4.856Z" transform="translate(-2251.17 -1683.435)" fill="#eac1a4"/>
            </g>
          </g>
          <g id="Grupo_82558" data-name="Grupo 82558" transform="translate(86.293)">
            <path id="Trazado_141034" data-name="Trazado 141034" d="M2252.554,1677.467l-1.384-7.591,2.453-.962,1.927,8.553Z" transform="translate(-2251.17 -1668.914)" fill="#fff"/>
          </g>
        </g>
        <g id="Grupo_82593" data-name="Grupo 82593" transform="translate(257.762 76.859)">
          <g id="Grupo_82591" data-name="Grupo 82591">
            <g id="Grupo_82573" data-name="Grupo 82573" transform="translate(50.727)">
              <g id="Grupo_82562" data-name="Grupo 82562" transform="translate(1.355 135.933)">
                <g id="Grupo_82560" data-name="Grupo 82560" transform="translate(0 39.117)">
                  <path id="Trazado_141035" data-name="Trazado 141035" d="M2441.651,2030.619l5.62-5.191a11.063,11.063,0,0,1,4.753-1.384,2.688,2.688,0,0,1,2.365,1.108,2.722,2.722,0,0,1,.255,2.5,3.377,3.377,0,0,1-.488.79h0l0,0c-.168.21-.351.408-.533.6-.116.125-.244.259-.38.4a32.343,32.343,0,0,1-3.885,3.777c-1.135.681-3.631,2.5-6.581.454l.034-.029A2.845,2.845,0,0,1,2441.651,2030.619Z" transform="translate(-2441.58 -2024.044)" fill="#3c3c3c"/>
                </g>
                <g id="Grupo_82561" data-name="Grupo 82561" transform="translate(4.483)">
                  <path id="Trazado_141036" data-name="Trazado 141036" d="M2450.675,1945.167l.453,6.514,2.227,31.714-2.227,3.689s-.453,2.95,2.951,2.723c1.012-.067,4.6-4.627,4.6-4.627l-.518-2.09,2.523-23.812-.023-6.917,1.207-7.679Z" transform="translate(-2450.675 -1944.683)" fill="#e8c8ba"/>
                </g>
              </g>
              <g id="Grupo_82564" data-name="Grupo 82564" transform="translate(33.005 173.371)">
                <g id="Grupo_82563" data-name="Grupo 82563">
                  <path id="Trazado_141037" data-name="Trazado 141037" d="M2514.251,2020.839a2.907,2.907,0,0,1,2.8.341,2.944,2.944,0,0,1,1.1,2.484,5.361,5.361,0,0,1-.579,1.779c-1.358,2.942-5.164,9.592-9.531,8.373a3.28,3.28,0,0,1-2.157-4.041C2506.452,2027.281,2510.753,2021.939,2514.251,2020.839Z" transform="translate(-2505.793 -2020.638)" fill="#3c3c3c"/>
                </g>
              </g>
              <g id="Grupo_82565" data-name="Grupo 82565" transform="translate(19.45 130.204)">
                <path id="Trazado_141038" data-name="Trazado 141038" d="M2478.293,1935.469l.761,9.38L2497.466,1978s-2.647,4.624-.968,5.026a6.058,6.058,0,0,0,6.612-6.22c-1.936-6.323-9.546-27.795-9.546-27.795l-3.563-5.54.052-10.412Z" transform="translate(-2478.293 -1933.059)" fill="#e8c8ba"/>
              </g>
              <g id="Grupo_82566" data-name="Grupo 82566" transform="translate(0 27.808)">
                <path id="Trazado_141039" data-name="Trazado 141039" d="M2479.085,1798.724a50.3,50.3,0,0,0-1.648-12.564c-3.312-9.426-3.951-14.072-3.951-21.745s3.4-32,3.4-32l-11.826-7.1-14.176.4-7.872,2.6s-1.666,30.606-2.14,40.471c-.337,7.04-.826,13.137-1.47,21.293a185.18,185.18,0,0,0,.983,38.548s.622,6.623.9,7.2c.037.2.058.3.058.3h31.637v-11.366q1.574-5.472,3-10.986C2477.2,1809.108,2478.816,1803.856,2479.085,1798.724Z" transform="translate(-2438.832 -1725.317)" fill="#d7e8f4"/>
              </g>
              <g id="Grupo_82572" data-name="Grupo 82572" transform="translate(3.881)">
                <g id="Grupo_82570" data-name="Grupo 82570">
                  <g id="Grupo_82567" data-name="Grupo 82567" transform="translate(0 6.87)">
                    <path id="Trazado_141040" data-name="Trazado 141040" d="M2451.279,1694.018c-.691,2.676.9,5.319,2.285,7.576.567.922,1.447,2.205.715,3.258-.82,1.179-2.856.943-3.752.061a5.465,5.465,0,0,1-1.213-2.288c-1.209-3.686-2.9-8.848-2.568-12.722.265-3.106,4.074-8.623,8-6.649a4.08,4.08,0,0,1,1.56,1.693,3.2,3.2,0,0,1,.505,1.26c.185,1.8-1.55,2.261-2.689,3.228A9.083,9.083,0,0,0,2451.279,1694.018Z" transform="translate(-2446.705 -1682.837)" fill="#3b455a"/>
                  </g>
                  <g id="Grupo_82568" data-name="Grupo 82568" transform="translate(3.728 9.31)">
                    <path id="Trazado_141041" data-name="Trazado 141041" d="M2461.663,1706.141a8.179,8.179,0,0,1-5.984-4.371,14.691,14.691,0,0,1-1.406-7.218c.153-8.235,11.073-8.693,15.32-2.775C2473.292,1696.936,2469.283,1707.109,2461.663,1706.141Z" transform="translate(-2454.268 -1687.788)" fill="#e8c8ba"/>
                  </g>
                  <g id="Grupo_82569" data-name="Grupo 82569" transform="translate(4.405)">
                    <path id="Trazado_141042" data-name="Trazado 141042" d="M2469.815,1686.087c.09,1,.6,2.055.737,3.079.257,1.886-.165,4.334.525,6.057a11.618,11.618,0,0,0,5.663-2.774c1.449-1.342,1.188-3.338,1.512-5.315a25.435,25.435,0,0,0,.577-5.516c-.572-10.129-10.679-15.668-19.584-11.1-3.37,1.729-4.843,6.122-2.365,9.009,2.665,3.1,8.081,1.759,11.273,4.062A5.449,5.449,0,0,1,2469.815,1686.087Z" transform="translate(-2455.643 -1668.899)" fill="#3b455a"/>
                  </g>
                </g>
                <g id="Grupo_82571" data-name="Grupo 82571" transform="translate(10.872 24.979)">
                  <path id="Trazado_141043" data-name="Trazado 141043" d="M2468.794,1721.412q.2.92.4,1.84c.061.281.038,1.085.28,1.278a.648.648,0,0,0,.479.066c.473-.058,4.711-.6,4.666-.868a14.924,14.924,0,0,0-.488-2.121,8.074,8.074,0,0,0-.588-2.03,7.63,7.63,0,0,1-2.312,1.037q-1.229.348-2.467.655Z" transform="translate(-2468.763 -1719.577)" fill="#e8c8ba"/>
                </g>
              </g>
            </g>
            <g id="Grupo_82590" data-name="Grupo 82590" transform="translate(0 13.196)">
              <g id="Grupo_82587" data-name="Grupo 82587">
                <g id="Grupo_82574" data-name="Grupo 82574">
                  <path id="Trazado_141044" data-name="Trazado 141044" d="M2360.559,1773.7l41.04-15.1a2.5,2.5,0,0,0,1.367-3.259l-21.318-57.93a2.5,2.5,0,0,0-3.154-1.6l-41.04,15.1a2.5,2.5,0,0,0-1.367,3.259l21.317,57.93A2.5,2.5,0,0,0,2360.559,1773.7Z" transform="translate(-2335.917 -1695.672)" fill="#3b455a"/>
                </g>
                <g id="Grupo_82575" data-name="Grupo 82575" transform="translate(33.455 24.084)">
                  <path id="Trazado_141045" data-name="Trazado 141045" d="M2409.7,1762.393l10.747-3.955a1.341,1.341,0,0,0,.732-1.746l-4.131-11.227a1.34,1.34,0,0,0-1.689-.855l-10.747,3.955a1.341,1.341,0,0,0-.733,1.746l4.131,11.227A1.342,1.342,0,0,0,2409.7,1762.393Z" transform="translate(-2403.791 -1744.535)" fill="#2a94ee"/>
                </g>
                <g id="Grupo_82576" data-name="Grupo 82576" transform="translate(13.641 31.376)">
                  <path id="Trazado_141046" data-name="Trazado 141046" d="M2369.5,1777.185l10.747-3.954a1.34,1.34,0,0,0,.732-1.746l-4.131-11.227a1.341,1.341,0,0,0-1.69-.855l-10.746,3.955a1.34,1.34,0,0,0-.733,1.746l4.131,11.227A1.34,1.34,0,0,0,2369.5,1777.185Z" transform="translate(-2363.592 -1759.328)" fill="#2a94ee"/>
                </g>
                <g id="Grupo_82577" data-name="Grupo 82577" transform="translate(40.209 42.438)">
                  <path id="Trazado_141047" data-name="Trazado 141047" d="M2423.406,1799.63l10.746-3.955a1.34,1.34,0,0,0,.733-1.746l-4.132-11.227a1.34,1.34,0,0,0-1.69-.855l-10.747,3.955a1.341,1.341,0,0,0-.733,1.746l4.132,11.227A1.341,1.341,0,0,0,2423.406,1799.63Z" transform="translate(-2417.493 -1781.772)" fill="#2a94ee"/>
                </g>
                <g id="Grupo_82578" data-name="Grupo 82578" transform="translate(20.395 49.73)">
                  <path id="Trazado_141048" data-name="Trazado 141048" d="M2383.207,1814.422l10.747-3.954a1.341,1.341,0,0,0,.732-1.746l-4.132-11.227a1.341,1.341,0,0,0-1.689-.855l-10.747,3.955a1.34,1.34,0,0,0-.732,1.746l4.131,11.227A1.341,1.341,0,0,0,2383.207,1814.422Z" transform="translate(-2377.294 -1796.565)" fill="#20287a"/>
                </g>
                <g id="Grupo_82579" data-name="Grupo 82579" transform="translate(37.854 28.389)">
                  <path id="Trazado_141049" data-name="Trazado 141049" d="M2414.988,1754.265a.836.836,0,0,1-.024-.586.6.6,0,0,1,.381-.366.62.62,0,0,1,.527.032.809.809,0,0,1,.369.459l1.243,3.377,3.035-1.117a.679.679,0,0,1,.547.034.712.712,0,0,1,.378.4.66.66,0,0,1-.017.539.711.711,0,0,1-.417.358l-3.035,1.117,1.246,3.386a.791.791,0,0,1,0,.575.608.608,0,0,1-.361.379.6.6,0,0,1-.527-.031.834.834,0,0,1-.361-.462l-1.246-3.386-3.052,1.123a.7.7,0,0,1-.546,0,.667.667,0,0,1-.357-.4.723.723,0,0,1,.009-.557.67.67,0,0,1,.4-.374l3.052-1.123Z" transform="translate(-2412.716 -1753.27)" fill="#ececec"/>
                </g>
                <g id="Grupo_82580" data-name="Grupo 82580" transform="translate(18.266 38.325)">
                  <path id="Trazado_141050" data-name="Trazado 141050" d="M2373.924,1777.775a.414.414,0,0,1-.333-.026.441.441,0,0,1-.234-.247l-.353-.957a.373.373,0,0,1,.01-.311.46.46,0,0,1,.267-.211l6.969-2.565a.379.379,0,0,1,.3,0,.4.4,0,0,1,.2.236l.352.957a.491.491,0,0,1,.018.348.352.352,0,0,1-.223.21Z" transform="translate(-2372.975 -1773.427)" fill="#ececec"/>
                </g>
                <g id="Grupo_82581" data-name="Grupo 82581" transform="translate(24.182 54.067)">
                  <path id="Trazado_141051" data-name="Trazado 141051" d="M2385.928,1809.713a.413.413,0,0,1-.334-.026.441.441,0,0,1-.234-.247l-.352-.957a.369.369,0,0,1,.009-.311.466.466,0,0,1,.266-.21l6.97-2.565a.374.374,0,0,1,.3,0,.4.4,0,0,1,.2.235l.352.957a.5.5,0,0,1,.019.347.355.355,0,0,1-.224.21Z" transform="translate(-2384.978 -1805.365)" fill="#ececec"/>
                </g>
                <g id="Grupo_82582" data-name="Grupo 82582" transform="translate(25.473 57.574)">
                  <path id="Trazado_141052" data-name="Trazado 141052" d="M2388.546,1816.828a.415.415,0,0,1-.334-.025.44.44,0,0,1-.234-.247l-.353-.957a.37.37,0,0,1,.01-.311.459.459,0,0,1,.266-.211l6.97-2.565a.374.374,0,0,1,.3,0,.394.394,0,0,1,.2.235l.353.957a.5.5,0,0,1,.018.348.349.349,0,0,1-.223.21Z" transform="translate(-2387.597 -1812.481)" fill="#ececec"/>
                </g>
                <g id="Grupo_82586" data-name="Grupo 82586" transform="translate(44.726 47.795)">
                  <g id="Grupo_82583" data-name="Grupo 82583" transform="translate(0 1.08)">
                    <path id="Trazado_141053" data-name="Trazado 141053" d="M2427.608,1799.178a.414.414,0,0,1-.334-.026.443.443,0,0,1-.234-.247l-.352-.957a.37.37,0,0,1,.01-.311.462.462,0,0,1,.266-.211l6.97-2.565a.376.376,0,0,1,.3,0,.4.4,0,0,1,.2.236l.352.957a.5.5,0,0,1,.018.347.354.354,0,0,1-.223.21Z" transform="translate(-2426.658 -1794.831)" fill="#ececec"/>
                  </g>
                  <g id="Grupo_82584" data-name="Grupo 82584" transform="translate(2.286)">
                    <path id="Trazado_141054" data-name="Trazado 141054" d="M2431.364,1794a.967.967,0,1,0,.547-1.3A1,1,0,0,0,2431.364,1794Z" transform="translate(-2431.296 -1792.64)" fill="#ececec"/>
                  </g>
                  <g id="Grupo_82585" data-name="Grupo 82585" transform="translate(3.942 4.501)">
                    <path id="Trazado_141055" data-name="Trazado 141055" d="M2434.724,1803.131a.967.967,0,1,0,.547-1.3A1,1,0,0,0,2434.724,1803.131Z" transform="translate(-2434.656 -1801.771)" fill="#ececec"/>
                  </g>
                </g>
              </g>
              <g id="Grupo_82588" data-name="Grupo 82588" transform="translate(0.103 0.294)">
                <path id="Trazado_141056" data-name="Trazado 141056" d="M2340.1,1725.091l45.667-16.478-3.92-10.652a2.584,2.584,0,0,0-3.317-1.533l-40.711,14.981a2.585,2.585,0,0,0-1.533,3.318Z" transform="translate(-2336.126 -1696.269)" fill="#3b455a"/>
              </g>
              <g id="Grupo_82589" data-name="Grupo 82589" transform="translate(5.699 7.814)">
                <rect id="Rectángulo_31664" data-name="Rectángulo 31664" width="39.407" height="9.249" transform="matrix(0.938, -0.345, 0.345, 0.938, 0, 13.609)" fill="#ececec"/>
              </g>
            </g>
          </g>
          <g id="Grupo_82592" data-name="Grupo 82592" transform="translate(39.287 32.766)">
            <path id="Trazado_141057" data-name="Trazado 141057" d="M2462.326,1735.375l5.307,2.892.949,8.389-5.912,21.17-34.793,10.454-10.167,2-2.089-2.588,1.8-3.12,4.391-1.121-.42-2.515,4.761.711,27.92-10.435,4.785-17.753Z" transform="translate(-2415.623 -1735.375)" fill="#e8c8ba"/>
          </g>
        </g>
        <g id="Grupo_82638" data-name="Grupo 82638" transform="translate(34.106 101.113)">
          <g id="Grupo_82613" data-name="Grupo 82613" transform="translate(1.851)">
            <g id="Grupo_82612" data-name="Grupo 82612">
              <g id="Grupo_82596" data-name="Grupo 82596" transform="translate(19.717 101.168)">
                <g id="Grupo_82594" data-name="Grupo 82594">
                  <path id="Trazado_141058" data-name="Trazado 141058" d="M1951.99,1932.947l-26.075-9.589,5.375,45.679-3.607,41.874-.084.262.063.007-.007.086,5.144.49v-.005l.191.021,11.978-37.576,6.079-37.4h0Z" transform="translate(-1925.914 -1923.358)" fill="#3b455a"/>
                </g>
                <g id="Grupo_82595" data-name="Grupo 82595" transform="translate(0.411 87.596)">
                  <path id="Trazado_141059" data-name="Trazado 141059" d="M1933.446,2101.209l-5.335-.135-1.362,4.5.135.041-.034,0,8.819,5.227,4.193.466.533-4.792-1.133-.83Z" transform="translate(-1926.749 -2101.074)" fill="#202b38"/>
                </g>
              </g>
              <g id="Grupo_82599" data-name="Grupo 82599" transform="translate(36.392 105.698)">
                <g id="Grupo_82597" data-name="Grupo 82597">
                  <path id="Trazado_141060" data-name="Trazado 141060" d="M1986.908,1938.392l-7.825,81.169-5.162.235-5.186-45.189-8.989-42.059Z" transform="translate(-1959.746 -1932.549)" fill="#3b455a"/>
                </g>
                <g id="Grupo_82598" data-name="Grupo 82598" transform="translate(13.303 85.871)">
                  <path id="Trazado_141061" data-name="Trazado 141061" d="M1992.755,2106.766l6.837,3.876-.641,3.226-12.215-1.841.719-4.648Z" transform="translate(-1986.735 -2106.766)" fill="#202b38"/>
                </g>
              </g>
              <g id="Grupo_82605" data-name="Grupo 82605" transform="translate(0 29.585)">
                <g id="Grupo_82601" data-name="Grupo 82601" transform="translate(0 0.066)">
                  <g id="Grupo_82600" data-name="Grupo 82600">
                    <path id="Trazado_141062" data-name="Trazado 141062" d="M1961.692,1879.8c1.65-1.146,1.685-3.14,1.682-5.138a49.925,49.925,0,0,0-1.54-11.233,168.726,168.726,0,0,1-4.31-23.94c-2.109-22.905-9.343-38.276-9.343-38.276l-2.334-6.224q-.7-1.214-1.448-2.4c-2.915-4.574-7.977-12.348-13.39-13.621-.113-.026-.227-.053-.341-.078-5.691-1.249-12.984-.669-18.128,2.1a17.933,17.933,0,0,0-2.706,1.919c-2.515,2.029-4.566,3.127-5.65,6.219-.942,2.684-1.16,5.614-1.679,8.395-1.055,5.651-1.684,11.371-2.526,17.055-1.578,10.66-2.92,21.354-4.609,32-.869,5.477-1.745,10.965-2.155,16.5-.363,4.894-4.778,9.863-7.259,14.249-.863,1.526,11.536,5.481,12.647,5.74,5.143,1.2,10.615.891,15.916.915q17.429.079,34.834-1.074c3.853-.255,8.6-.991,12.019-2.909Q1961.541,1879.9,1961.692,1879.8Z" transform="translate(-1885.913 -1778.263)" fill="#bcbec0"/>
                  </g>
                </g>
                <g id="Grupo_82602" data-name="Grupo 82602" transform="translate(21.13)">
                  <path id="Trazado_141063" data-name="Trazado 141063" d="M1946.025,1778.2s-6.545-1.767-7.449,13-2.411,52.139-4.521,62.386-5.274,30.346-5.274,30.346l20.042.7,22.905-1.808s-7.836-14.466-9.042-24.714.9-48.824-4.219-63.29S1952.269,1778.455,1946.025,1778.2Z" transform="translate(-1928.781 -1778.129)" fill="#fff"/>
                </g>
                <g id="Grupo_82604" data-name="Grupo 82604" transform="translate(45.09 0.71)">
                  <g id="Grupo_82603" data-name="Grupo 82603">
                    <path id="Trazado_141064" data-name="Trazado 141064" d="M2000.3,1811.818l1.507,1.808,10.3-2.12-26.573-29.525-8.137-2.411,3.918,10.548Z" transform="translate(-1977.392 -1779.57)" fill="#bcbec0"/>
                  </g>
                </g>
              </g>
              <g id="Grupo_82610" data-name="Grupo 82610" transform="translate(26.096 4.405)">
                <g id="Grupo_82608" data-name="Grupo 82608">
                  <g id="Grupo_82606" data-name="Grupo 82606" transform="translate(7.166)">
                    <path id="Trazado_141065" data-name="Trazado 141065" d="M1962.547,1738.186c1.928,2.471,1.638,5.938,1.358,8.913-.247,2.638-.084,4.258,2.8,3.922,1.626-.19,4.523-.494,5.433-2.114.689-1.227-.828-3.722-1.694-4.62-.661-.686-1.791-.751-2.434-1.454a3.081,3.081,0,0,1-.556-1.029,15.961,15.961,0,0,1-.97-4.693,16.161,16.161,0,0,0-.281-3.247c-.4-1.527-2.059-2.883-3.094-4.049-1.924-2.17-6.7-4.3-8.978-1.253a4.635,4.635,0,0,0-.709,2.465,3.842,3.842,0,0,0,.106,1.538c.668,1.954,2.56,1.652,4.116,2.142A10.341,10.341,0,0,1,1962.547,1738.186Z" transform="translate(-1953.397 -1727.042)" fill="#3b455a"/>
                  </g>
                  <g id="Grupo_82607" data-name="Grupo 82607" transform="translate(0 4.124)">
                    <path id="Trazado_141066" data-name="Trazado 141066" d="M1953.375,1755.38a8.938,8.938,0,0,0,3.721-7.246,17.894,17.894,0,0,0-2.039-8.139c-4.023-8.493-14.782-4.037-16.1,4.033C1937.815,1751.061,1946.473,1759.827,1953.375,1755.38Z" transform="translate(-1938.858 -1735.41)" fill="#eac1a4"/>
                  </g>
                </g>
                <g id="Grupo_82609" data-name="Grupo 82609" transform="translate(8.624 21.134)">
                  <path id="Trazado_141067" data-name="Trazado 141067" d="M1961.908,1771.931l.939,3.057a.489.489,0,0,1-.407.741l-2.484.786a2.836,2.836,0,0,1-1.264.2c-.932-.142-1.469-1.145-1.656-2.068a8.074,8.074,0,0,0-.681-2.723c1.984.233,2.921-2.217,4.905-1.984Z" transform="translate(-1956.355 -1769.92)" fill="#eac1a4"/>
                </g>
              </g>
              <g id="Grupo_82611" data-name="Grupo 82611" transform="translate(16.538)">
                <path id="Trazado_141068" data-name="Trazado 141068" d="M1929.92,1719.452c-2.531,2-3.343,5.565-5.739,7.725-1.374,1.238-3.249,2-4.157,3.612-2.034,3.612,2.245,8.157.914,12.083-.277.817-.784,1.54-1.063,2.355-.6,1.759-.08,3.681.444,5.466a5.894,5.894,0,0,0,.475,1.2c1.812,3.9,7.585,1.567,9.823.481,2.455-1.192,1.1-2.309,1.1-2.309l-.133-.081a5.188,5.188,0,0,1,.144-5.044,6.367,6.367,0,0,0,.95-1.7c.347-1.425-.919-2.7-1.3-4.116-1.521-5.706,8.21-7.822,9.436-12.7C1942.318,1720.435,1934.7,1715.677,1929.92,1719.452Z" transform="translate(-1919.466 -1718.106)" fill="#3b455a"/>
              </g>
            </g>
          </g>
          <g id="Grupo_82618" data-name="Grupo 82618" transform="translate(0 34.294)">
            <g id="Grupo_82615" data-name="Grupo 82615" transform="translate(6.559 54.76)">
              <g id="Grupo_82614" data-name="Grupo 82614">
                <path id="Trazado_141069" data-name="Trazado 141069" d="M1896.671,1903.795l4.565,4.632,2.064-1.865-2.424-3.864,1.386-.429-4.389-3.487-2.408,1.649Z" transform="translate(-1895.465 -1898.781)" fill="#dec9ad"/>
              </g>
            </g>
            <g id="Grupo_82617" data-name="Grupo 82617">
              <g id="Grupo_82616" data-name="Grupo 82616">
                <path id="Trazado_141070" data-name="Trazado 141070" d="M1910.333,1807.182l-15.3,11.642-2.4,22.827-5.072,3.782-5.405-33.439,25.773-24.311Z" transform="translate(-1882.158 -1787.683)" fill="#bcbec0"/>
              </g>
            </g>
          </g>
          <g id="Grupo_82636" data-name="Grupo 82636" transform="translate(5.014 49.417)">
            <g id="Grupo_82619" data-name="Grupo 82619" transform="translate(14.648 5.091)">
              <rect id="Rectángulo_31665" data-name="Rectángulo 31665" width="3.128" height="58.203" transform="translate(5.954 0) rotate(5.872)" fill="#3b455a"/>
            </g>
            <g id="Grupo_82620" data-name="Grupo 82620" transform="translate(41.694 7.873)">
              <rect id="Rectángulo_31666" data-name="Rectángulo 31666" width="3.128" height="58.203" transform="translate(5.954 0) rotate(5.872)" fill="#3b455a"/>
            </g>
            <g id="Grupo_82621" data-name="Grupo 82621" transform="translate(68.741 10.654)">
              <rect id="Rectángulo_31667" data-name="Rectángulo 31667" width="3.128" height="58.203" transform="translate(5.954 0) rotate(5.872)" fill="#3b455a"/>
            </g>
            <g id="Grupo_82622" data-name="Grupo 82622" transform="translate(5.955 0)">
              <rect id="Rectángulo_31668" data-name="Rectángulo 31668" width="89.139" height="7.284" transform="translate(0.745 0) rotate(5.872)" fill="#3b455a"/>
            </g>
            <g id="Grupo_82623" data-name="Grupo 82623" transform="translate(0 57.897)">
              <rect id="Rectángulo_31669" data-name="Rectángulo 31669" width="89.139" height="7.284" transform="translate(0.745 0) rotate(5.872)" fill="#3b455a"/>
            </g>
            <g id="Grupo_82624" data-name="Grupo 82624" transform="translate(9.481 11.874)">
              <path id="Rectángulo_31670" data-name="Rectángulo 31670" d="M3.9,0H18.376a3.9,3.9,0,0,1,3.9,3.9v0a3.9,3.9,0,0,1-3.9,3.9H3.9A3.9,3.9,0,0,1,0,3.9v0A3.9,3.9,0,0,1,3.9,0Z" transform="translate(0.798 0) rotate(5.872)" fill="#fed947"/>
            </g>
            <g id="Grupo_82625" data-name="Grupo 82625" transform="translate(7.701 29.179)">
              <path id="Rectángulo_31671" data-name="Rectángulo 31671" d="M3.9,0H18.376a3.9,3.9,0,0,1,3.9,3.9v0a3.9,3.9,0,0,1-3.9,3.9H3.9A3.9,3.9,0,0,1,0,3.9v0A3.9,3.9,0,0,1,3.9,0Z" transform="translate(0.798 0) rotate(5.872)" fill="#fed947"/>
            </g>
            <g id="Grupo_82626" data-name="Grupo 82626" transform="translate(6.706 38.853)">
              <path id="Rectángulo_31672" data-name="Rectángulo 31672" d="M3.9,0H18.376a3.9,3.9,0,0,1,3.9,3.9v0a3.9,3.9,0,0,1-3.9,3.9H3.9A3.9,3.9,0,0,1,0,3.9v0A3.9,3.9,0,0,1,3.9,0Z" transform="translate(0.798 0) rotate(5.872)" fill="#d64626"/>
            </g>
            <g id="Grupo_82627" data-name="Grupo 82627" transform="translate(5.702 48.619)">
              <rect id="Rectángulo_31673" data-name="Rectángulo 31673" width="22.278" height="7.804" rx="3.902" transform="translate(0.798 0) rotate(5.872)" fill="#dff7f9"/>
            </g>
            <g id="Grupo_82628" data-name="Grupo 82628" transform="translate(36.527 14.656)">
              <rect id="Rectángulo_31674" data-name="Rectángulo 31674" width="22.278" height="7.804" rx="3.902" transform="translate(0.798 0) rotate(5.872)" fill="#fff5a2"/>
            </g>
            <g id="Grupo_82629" data-name="Grupo 82629" transform="translate(35.51 24.542)">
              <path id="Rectángulo_31675" data-name="Rectángulo 31675" d="M3.9,0H18.376a3.9,3.9,0,0,1,3.9,3.9v0a3.9,3.9,0,0,1-3.9,3.9H3.9A3.9,3.9,0,0,1,0,3.9v0A3.9,3.9,0,0,1,3.9,0Z" transform="translate(0.798 0) rotate(5.872)" fill="#b52426"/>
            </g>
            <g id="Grupo_82630" data-name="Grupo 82630" transform="translate(33.752 41.634)">
              <path id="Rectángulo_31676" data-name="Rectángulo 31676" d="M3.9,0H18.376a3.9,3.9,0,0,1,3.9,3.9v0a3.9,3.9,0,0,1-3.9,3.9H3.9A3.9,3.9,0,0,1,0,3.9v0A3.9,3.9,0,0,1,3.9,0Z" transform="translate(0.798 0) rotate(5.872)" fill="#d64626"/>
            </g>
            <g id="Grupo_82631" data-name="Grupo 82631" transform="translate(32.748 51.401)">
              <path id="Rectángulo_31677" data-name="Rectángulo 31677" d="M3.9,0H18.376a3.9,3.9,0,0,1,3.9,3.9v0a3.9,3.9,0,0,1-3.9,3.9H3.9A3.9,3.9,0,0,1,0,3.9v0A3.9,3.9,0,0,1,3.9,0Z" transform="translate(0.798 0) rotate(5.872)" fill="#20287a"/>
            </g>
            <g id="Grupo_82632" data-name="Grupo 82632" transform="translate(63.573 17.438)">
              <path id="Rectángulo_31678" data-name="Rectángulo 31678" d="M3.9,0H18.376a3.9,3.9,0,0,1,3.9,3.9v0a3.9,3.9,0,0,1-3.9,3.9H3.9A3.9,3.9,0,0,1,0,3.9v0A3.9,3.9,0,0,1,3.9,0Z" transform="translate(0.798 0) rotate(5.872)" fill="#d64626"/>
            </g>
            <g id="Grupo_82633" data-name="Grupo 82633" transform="translate(61.794 34.742)">
              <path id="Rectángulo_31679" data-name="Rectángulo 31679" d="M3.9,0H18.376a3.9,3.9,0,0,1,3.9,3.9v0a3.9,3.9,0,0,1-3.9,3.9H3.9A3.9,3.9,0,0,1,0,3.9v0A3.9,3.9,0,0,1,3.9,0Z" transform="matrix(0.995, 0.102, -0.102, 0.995, 0.798, 0)" fill="#dff7f9"/>
            </g>
            <g id="Grupo_82634" data-name="Grupo 82634" transform="translate(60.799 44.416)">
              <path id="Rectángulo_31680" data-name="Rectángulo 31680" d="M3.9,0H18.376a3.9,3.9,0,0,1,3.9,3.9v0a3.9,3.9,0,0,1-3.9,3.9H3.9A3.9,3.9,0,0,1,0,3.9v0A3.9,3.9,0,0,1,3.9,0Z" transform="translate(0.798 0) rotate(5.872)" fill="#2a94ee"/>
            </g>
            <g id="Grupo_82635" data-name="Grupo 82635" transform="translate(59.794 54.183)">
              <path id="Rectángulo_31681" data-name="Rectángulo 31681" d="M3.9,0H18.376a3.9,3.9,0,0,1,3.9,3.9v0a3.9,3.9,0,0,1-3.9,3.9H3.9A3.9,3.9,0,0,1,0,3.9v0A3.9,3.9,0,0,1,3.9,0Z" transform="translate(0.798 0) rotate(5.872)" fill="#97181a"/>
            </g>
          </g>
          <g id="Grupo_82637" data-name="Grupo 82637" transform="translate(87.173 63.011)">
            <path id="Trazado_141071" data-name="Trazado 141071" d="M2065.491,1848.1l-2.464-2.154-4.011,2.394.23,6.2,3.745,1.412Z" transform="translate(-2059.016 -1845.945)" fill="#eac1a4"/>
          </g>
        </g>
        <g id="Grupo_82656" data-name="Grupo 82656" transform="translate(337.197 103.483)">
          <g id="Grupo_82654" data-name="Grupo 82654">
            <g id="Grupo_82639" data-name="Grupo 82639" transform="translate(0 72.421)">
              <path id="Trazado_141072" data-name="Trazado 141072" d="M2506,1869.843l-3.145.726c-1.148.265-4.958,4.509-5.75,5.466-.452.547,4.782,1.043,5.282.952.854-.155,2.381-1.79,3.18-2.326l1.7.689,1.445-1.865Z" transform="translate(-2497.076 -1869.843)" fill="#eac1a4"/>
            </g>
            <g id="Grupo_82653" data-name="Grupo 82653" transform="translate(7.763)">
              <g id="Grupo_82640" data-name="Grupo 82640" transform="translate(68.004 185.348)">
                <path id="Trazado_141073" data-name="Trazado 141073" d="M2660.711,2102.407l.444,3.454-6.464,4.342-3.9-3.01,3.01-3.9,6.464-4.343Z" transform="translate(-2650.793 -2098.953)" fill="#202b38"/>
              </g>
              <g id="Grupo_82642" data-name="Grupo 82642" transform="translate(50.048 82.77)">
                <g id="Grupo_82641" data-name="Grupo 82641">
                  <path id="Trazado_141074" data-name="Trazado 141074" d="M2642.456,1995.712l-4.985-44.051,6-49.315-1.349-10.49-26.79-1.018-.967,17.074,4.5,43.817,16.92,46.234Z" transform="translate(-2614.364 -1890.839)" fill="#3b455a"/>
                </g>
              </g>
              <g id="Grupo_82643" data-name="Grupo 82643" transform="translate(0 34.987)">
                <path id="Trazado_141075" data-name="Trazado 141075" d="M2559.574,1793.9l-12.041,7.076-7.622,13.259-27.086,16.405,3.985,6.33,23.348-7.78,11.939-6.16Z" transform="translate(-2512.826 -1793.896)" fill="#97181a"/>
              </g>
              <g id="Grupo_82646" data-name="Grupo 82646" transform="translate(31.287 83.432)">
                <g id="Grupo_82644" data-name="Grupo 82644">
                  <path id="Trazado_141076" data-name="Trazado 141076" d="M2576.371,1896.457l-.071,44.453,8.948,57.226,6.44-.064,3.54-52.92,8.286-52.968Z" transform="translate(-2576.301 -1892.183)" fill="#3b455a"/>
                </g>
                <g id="Grupo_82645" data-name="Grupo 82645" transform="translate(4.931 105.122)">
                  <path id="Trazado_141077" data-name="Trazado 141077" d="M2596.753,2108.939l-6.93,3.552-3.517-3.447,3.448-3.517,6.965-.069Z" transform="translate(-2586.305 -2105.457)" fill="#3b455a"/>
                </g>
              </g>
              <g id="Grupo_82648" data-name="Grupo 82648" transform="translate(20.288 33.735)">
                <g id="Grupo_82647" data-name="Grupo 82647">
                  <path id="Trazado_141078" data-name="Trazado 141078" d="M2615.624,1860.446c-.062-1.926-.168-3.534-.184-4.108-.138-5.167-.6-10.323-1.245-15.454-.58-4.6-1.312-16.012-2.1-20.582-.65-3.772-2.914-13.19-4.55-16.689-4.068-8.7-2.811-9.507-20.68-12.091-7.831-1.133-9.682,3.748-16.085,9.36-.631.553-.6,3.849-.743,4.722-.258,1.537-.534,3.071-.852,4.6q-.373,1.8-.832,3.586h0s-5.375,24.46-8.929,29.655-10.9,12.457,1.386,16.892a43.953,43.953,0,0,0,6.633,1.731s10.046-1.116,15.212-1.078a87.808,87.808,0,0,1,14.213,1.323,30.578,30.578,0,0,1,9.118,2.745c2.669,1.394,4.6,3.445,7.3,4.89a1.419,1.419,0,0,0,.83.238C2615.68,1869.967,2615.754,1864.5,2615.624,1860.446Z" transform="translate(-2553.987 -1791.357)" fill="#97181a"/>
                </g>
              </g>
              <g id="Grupo_82651" data-name="Grupo 82651" transform="translate(31.491)">
                <g id="Grupo_82649" data-name="Grupo 82649" transform="translate(15.558 13.592)">
                  <path id="Trazado_141079" data-name="Trazado 141079" d="M2615.068,1771.763a7.349,7.349,0,0,0,5.254.15,1.159,1.159,0,0,0,.826-1.025,30.06,30.06,0,0,0-.006-4.042c1.706-.453,3.693-1.176,4.12-2.889a5,5,0,0,0,.033-1.659q-.318-3.432-.635-6.864a6.087,6.087,0,0,0-.525-2.309,5.1,5.1,0,0,0-3.409-2.206,12.408,12.408,0,0,0-10.209,1.648,5.433,5.433,0,0,0-1.867,2.1,7.374,7.374,0,0,0-.093,4.31l.716,3.981c.274,1.526.707,3.27,2.1,3.945.741.358,1.651.343,2.309.837C2614.844,1768.609,2614.536,1770.412,2615.068,1771.763Z" transform="translate(-2608.28 -1750.49)" fill="#eac1a4"/>
                </g>
                <g id="Grupo_82650" data-name="Grupo 82650">
                  <path id="Trazado_141080" data-name="Trazado 141080" d="M2580.665,1733.671a14.643,14.643,0,0,0-1-1.707,28.788,28.788,0,0,1-2.463-3.494,3.709,3.709,0,0,1,.208-4.027,4.423,4.423,0,0,1,2.453-1.168,17.113,17.113,0,0,1,8.981.543c2.737.932,5.144,2.307,8.038,1.479,2.72-.778,4.6-.225,7.279.978,2.9,1.3,6.9,1.87,9.48,3.59a8,8,0,0,1,2.52,2.911,12.058,12.058,0,0,1-.972,12.715,17.265,17.265,0,0,1-2.057,2.211c-1.53,1.417-3.366,3.172-5.35,3.586.091-1.739,2.1-7.084.884-8.611-1.937-2.423-6.779-2.014-9.445-1.665-2.909.38-5.618,2.2-8.489,2.413-2.066.15-4.591-1.056-6.244-2.249C2582.452,1739.7,2581.756,1735.828,2580.665,1733.671Z" transform="translate(-2576.715 -1722.914)" fill="#3b455a"/>
                </g>
              </g>
              <g id="Grupo_82652" data-name="Grupo 82652" transform="translate(67.441 12.343)">
                <path id="Trazado_141081" data-name="Trazado 141081" d="M2649.652,1772.733l12.67,3.254-9.754-20.482,3.572-7.548,19.15,30.03-2.328,11.72-23.14,4.042Z" transform="translate(-2649.652 -1747.956)" fill="#97181a"/>
              </g>
            </g>
          </g>
          <g id="Grupo_82655" data-name="Grupo 82655" transform="translate(74.459 6.044)">
            <path id="Trazado_141082" data-name="Trazado 141082" d="M2655.006,1743.5a31.039,31.039,0,0,0-2.591-6.868c-.368-.708-.931-1.5-1.727-1.451-.913.056-1.342,1.15-1.457,2.057a12.845,12.845,0,0,0,.392,5.121c-.2.342-.684-.259-1.067-.171a.514.514,0,0,0-.327.4c-.654,2.379,2.42,4.027,3.819,5.193,1.25-1.494,1.661-3.231,3.326-4.437Z" transform="translate(-2648.139 -1735.176)" fill="#eac1a4"/>
          </g>
        </g>
        <g id="Grupo_82674" data-name="Grupo 82674" transform="translate(275.346 181.877)">
          <g id="Grupo_82666" data-name="Grupo 82666">
            <g id="Grupo_82657" data-name="Grupo 82657">
              <rect id="Rectángulo_31682" data-name="Rectángulo 31682" width="38.721" height="38.721" transform="translate(0.682 0.682)" fill="#fff"/>
              <path id="Trazado_141083" data-name="Trazado 141083" d="M2411.677,1922.048h-40.086v-40.085h40.086Zm-38.721-1.364h37.356v-37.357h-37.356Z" transform="translate(-2371.591 -1881.963)" fill="#305399"/>
            </g>
            <g id="Grupo_82658" data-name="Grupo 82658" transform="translate(38.721)">
              <rect id="Rectángulo_31683" data-name="Rectángulo 31683" width="38.721" height="38.721" transform="translate(0.682 0.682)" fill="#fff"/>
              <path id="Trazado_141084" data-name="Trazado 141084" d="M2490.235,1922.048h-40.086v-40.085h40.086Zm-38.721-1.364h37.357v-37.357h-37.357Z" transform="translate(-2450.149 -1881.963)" fill="#305399"/>
            </g>
            <g id="Grupo_82659" data-name="Grupo 82659" transform="translate(77.443)">
              <rect id="Rectángulo_31684" data-name="Rectángulo 31684" width="38.721" height="38.721" transform="translate(0.682 0.682)" fill="#fff"/>
              <path id="Trazado_141085" data-name="Trazado 141085" d="M2568.794,1922.048h-40.086v-40.085h40.086Zm-38.721-1.364h37.357v-37.357h-37.357Z" transform="translate(-2528.708 -1881.963)" fill="#305399"/>
            </g>
            <g id="Grupo_82660" data-name="Grupo 82660" transform="translate(0 38.721)">
              <rect id="Rectángulo_31685" data-name="Rectángulo 31685" width="38.721" height="38.721" transform="translate(0.682 0.682)" fill="#fff"/>
              <path id="Trazado_141086" data-name="Trazado 141086" d="M2411.677,2000.607h-40.086v-40.086h40.086Zm-38.721-1.364h37.356v-37.357h-37.356Z" transform="translate(-2371.591 -1960.521)" fill="#305399"/>
            </g>
            <g id="Grupo_82661" data-name="Grupo 82661" transform="translate(38.721 38.721)">
              <rect id="Rectángulo_31686" data-name="Rectángulo 31686" width="38.721" height="38.721" transform="translate(0.682 0.682)" fill="#fff"/>
              <path id="Trazado_141087" data-name="Trazado 141087" d="M2490.235,2000.607h-40.086v-40.086h40.086Zm-38.721-1.364h37.357v-37.357h-37.357Z" transform="translate(-2450.149 -1960.521)" fill="#305399"/>
            </g>
            <g id="Grupo_82662" data-name="Grupo 82662" transform="translate(77.443 38.721)">
              <rect id="Rectángulo_31687" data-name="Rectángulo 31687" width="38.721" height="38.721" transform="translate(0.682 0.682)" fill="#fff"/>
              <path id="Trazado_141088" data-name="Trazado 141088" d="M2568.794,2000.607h-40.086v-40.086h40.086Zm-38.721-1.364h37.357v-37.357h-37.357Z" transform="translate(-2528.708 -1960.521)" fill="#305399"/>
            </g>
            <g id="Grupo_82663" data-name="Grupo 82663" transform="translate(0 77.443)">
              <rect id="Rectángulo_31688" data-name="Rectángulo 31688" width="38.721" height="38.721" transform="translate(0.682 0.682)" fill="#fff"/>
              <path id="Trazado_141089" data-name="Trazado 141089" d="M2411.677,2079.166h-40.086V2039.08h40.086Zm-38.721-1.364h37.356v-37.357h-37.356Z" transform="translate(-2371.591 -2039.08)" fill="#305399"/>
            </g>
            <g id="Grupo_82664" data-name="Grupo 82664" transform="translate(38.721 77.443)">
              <rect id="Rectángulo_31689" data-name="Rectángulo 31689" width="38.721" height="38.721" transform="translate(0.682 0.682)" fill="#fff"/>
              <path id="Trazado_141090" data-name="Trazado 141090" d="M2490.235,2079.166h-40.086V2039.08h40.086Zm-38.721-1.364h37.357v-37.357h-37.357Z" transform="translate(-2450.149 -2039.08)" fill="#305399"/>
            </g>
            <g id="Grupo_82665" data-name="Grupo 82665" transform="translate(77.443 77.443)">
              <rect id="Rectángulo_31690" data-name="Rectángulo 31690" width="38.721" height="38.721" transform="translate(0.682 0.682)" fill="#fff"/>
              <path id="Trazado_141091" data-name="Trazado 141091" d="M2568.794,2079.166h-40.086V2039.08h40.086Zm-38.721-1.364h37.357v-37.357h-37.357Z" transform="translate(-2528.708 -2039.08)" fill="#305399"/>
            </g>
          </g>
          <g id="Grupo_82667" data-name="Grupo 82667" transform="translate(90.321 10.775)">
            <path id="Trazado_141092" data-name="Trazado 141092" d="M2569.165,1920.471v3.492h-13.658v-3.212l6.619-7.039a6.364,6.364,0,0,0,2.068-4.078,2.238,2.238,0,0,0-.684-1.774,2.947,2.947,0,0,0-2-.6,9.229,9.229,0,0,0-5.279,1.927l-1.4-3.128a8.742,8.742,0,0,1,3.072-1.634,12.368,12.368,0,0,1,3.8-.6,7.561,7.561,0,0,1,4.93,1.494,4.91,4.91,0,0,1,1.83,4.008,7.221,7.221,0,0,1-.712,3.2,13.814,13.814,0,0,1-2.388,3.254l-4.5,4.693Z" transform="translate(-2554.836 -1903.823)" fill="#d64626"/>
          </g>
          <g id="Grupo_82668" data-name="Grupo 82668" transform="translate(92.043 88.697)">
            <path id="Trazado_141093" data-name="Trazado 141093" d="M2571.808,2073.575a5.367,5.367,0,0,1-1.048,7.193,8.7,8.7,0,0,1-5.391,1.508,13.091,13.091,0,0,1-3.967-.6,8.439,8.439,0,0,1-3.073-1.634l1.4-3.129a9.17,9.17,0,0,0,5.447,1.927,4.389,4.389,0,0,0,2.639-.628,2.352,2.352,0,0,0,.824-2,2.209,2.209,0,0,0-.824-1.914,4.546,4.546,0,0,0-2.639-.6h-2.849v-3.408h2.374a4.434,4.434,0,0,0,2.569-.6,2.1,2.1,0,0,0,.838-1.83,2.344,2.344,0,0,0-.74-1.872,3.121,3.121,0,0,0-2.109-.643,7.64,7.64,0,0,0-2.626.489,10.458,10.458,0,0,0-2.626,1.438l-1.4-3.128a8.741,8.741,0,0,1,3.073-1.634,12.544,12.544,0,0,1,3.855-.6,8.7,8.7,0,0,1,3.533.67,5.409,5.409,0,0,1,2.347,1.872,5.259,5.259,0,0,1,.014,5.628,4.684,4.684,0,0,1-2.291,1.746A4.945,4.945,0,0,1,2571.808,2073.575Z" transform="translate(-2558.33 -2061.913)" fill="#d64626"/>
          </g>
          <g id="Grupo_82669" data-name="Grupo 82669" transform="translate(52.15 10.023)">
            <path id="Trazado_141094" data-name="Trazado 141094" d="M2488.8,1910.105a5.583,5.583,0,0,1,2.235,2.249,6.858,6.858,0,0,1,.8,3.352,6.612,6.612,0,0,1-.935,3.533,6.123,6.123,0,0,1-2.682,2.346,9.428,9.428,0,0,1-4.064.824,11.894,11.894,0,0,1-3.757-.615,8.567,8.567,0,0,1-3-1.62l1.4-3.128a9.136,9.136,0,0,0,5.419,1.927q3.491,0,3.491-3.1a3.047,3.047,0,0,0-.908-2.332,3.467,3.467,0,0,0-2.472-.852,5.708,5.708,0,0,0-1.97.363,6.067,6.067,0,0,0-1.773,1.005h-2.486V1902.3h12.765v3.352h-8.519v4.442a6.114,6.114,0,0,1,3.183-.782A6.665,6.665,0,0,1,2488.8,1910.105Z" transform="translate(-2477.393 -1902.298)" fill="#d64626"/>
          </g>
          <g id="Grupo_82670" data-name="Grupo 82670" transform="translate(51.32 88.683)">
            <path id="Trazado_141095" data-name="Trazado 141095" d="M2487.679,2069.915a5.675,5.675,0,0,1,2.15,2.291,7.083,7.083,0,0,1,.769,3.338,6.835,6.835,0,0,1-.88,3.464,6.276,6.276,0,0,1-2.43,2.4,7.061,7.061,0,0,1-3.505.866,7.27,7.27,0,0,1-5.978-2.57q-2.1-2.57-2.1-7.318a14.309,14.309,0,0,1,1.006-5.629,7.992,7.992,0,0,1,2.878-3.617,7.82,7.82,0,0,1,4.469-1.257,11.069,11.069,0,0,1,3.575.587,8.794,8.794,0,0,1,2.961,1.648l-1.425,3.128a8.123,8.123,0,0,0-4.916-1.927,3.493,3.493,0,0,0-3.045,1.578,8.71,8.71,0,0,0-1.2,4.623,4.618,4.618,0,0,1,1.857-1.773,5.578,5.578,0,0,1,2.7-.657A5.972,5.972,0,0,1,2487.679,2069.915Zm-2.011,8.087a3.254,3.254,0,0,0,.8-2.291,3.319,3.319,0,0,0-.782-2.333,2.776,2.776,0,0,0-2.151-.852,2.827,2.827,0,0,0-2.165.88,3.234,3.234,0,0,0-.824,2.3,3.164,3.164,0,0,0,.838,2.276,2.837,2.837,0,0,0,2.151.88A2.763,2.763,0,0,0,2485.668,2078Z" transform="translate(-2475.71 -2061.884)" fill="#d64626"/>
          </g>
          <g id="Grupo_82671" data-name="Grupo 82671" transform="translate(52.184 49.426)">
            <path id="Trazado_141096" data-name="Trazado 141096" d="M2477.463,1982.239h14.274v3.24l-8.854,16.648h-4.666l8.827-16.4h-9.581Z" transform="translate(-2477.463 -1982.239)" fill="#d64626"/>
          </g>
          <g id="Grupo_82672" data-name="Grupo 82672" transform="translate(11.754 88.697)">
            <path id="Trazado_141097" data-name="Trazado 141097" d="M2409.629,2073.561a4.6,4.6,0,0,1,1.061,3.072,4.83,4.83,0,0,1-.963,3,6.088,6.088,0,0,1-2.7,1.955,11.831,11.831,0,0,1-7.933,0,6.081,6.081,0,0,1-2.695-1.955,4.828,4.828,0,0,1-.964-3,4.618,4.618,0,0,1,1.076-3.086,1.947,1.947,0,1,0,.349-3.478,4.257,4.257,0,0,1-.95-2.765,4.62,4.62,0,0,1,.921-2.849,5.813,5.813,0,0,1,2.556-1.886,10.614,10.614,0,0,1,7.346,0,5.807,5.807,0,0,1,2.556,1.886,4.62,4.62,0,0,1,.922,2.849,4.371,4.371,0,0,1-.964,2.821,5.026,5.026,0,0,1-2.612,1.676A5.651,5.651,0,0,1,2409.629,2073.561Zm-3.953,4.692a2.232,2.232,0,0,0,.964-1.955,2.371,2.371,0,0,0-.964-1.955,3.894,3.894,0,0,0-5.223,0,2.37,2.37,0,0,0-.964,1.955,2.231,2.231,0,0,0,.964,1.955,5.42,5.42,0,0,0,5.223,0Zm-4.832-12.346a2.232,2.232,0,0,0-.824,1.871,2.37,2.37,0,0,0,.824,1.885,2.983,2.983,0,0,0,4.442,0,2.37,2.37,0,0,0,.824-1.885,2.232,2.232,0,0,0-.824-1.871,4.159,4.159,0,0,0-4.442,0Z" transform="translate(-2395.438 -2061.913)" fill="#d64626"/>
          </g>
          <g id="Grupo_82673" data-name="Grupo 82673" transform="translate(12.9 48.82)">
            <path id="Trazado_141098" data-name="Trazado 141098" d="M2406.421,1997.407h4.3v3.492h-12.96v-3.492h4.3v-11.536l-4.021,2.374v-3.827l5.837-3.408h2.542Z" transform="translate(-2397.762 -1981.01)" fill="#d64626"/>
          </g>
        </g>
        <g id="Grupo_82681" data-name="Grupo 82681" transform="translate(0 19.797)">
          <g id="Grupo_82675" data-name="Grupo 82675">
            <path id="Trazado_141099" data-name="Trazado 141099" d="M1917.914,1589.2a17.053,17.053,0,0,0-17.966-15.881c-.007-.294-.017-.589-.037-.885a20.681,20.681,0,0,0-37.1-11.138,19.124,19.124,0,0,0-32.632,13.755c-.433,0-.869,0-1.308.032a17.053,17.053,0,0,0-4.53,33.1,20.982,20.982,0,0,0,31.261,22.943c.956.539,1.581.96,1.581.96a16.492,16.492,0,0,0,22.975-7.063,18.427,18.427,0,0,0,27.086-17.483c-.03-.442-.08-.877-.14-1.309A17.062,17.062,0,0,0,1917.914,1589.2Z" transform="translate(-1812.963 -1553.131)" fill="#f6f6f6"/>
          </g>
          <g id="Grupo_82676" data-name="Grupo 82676" transform="translate(21.874 82.469)">
            <circle id="Elipse_4705" data-name="Elipse 4705" cx="7.425" cy="7.425" r="7.425" transform="translate(0 1.904) rotate(-7.368)" fill="#f6f6f6"/>
          </g>
          <g id="Grupo_82677" data-name="Grupo 82677" transform="translate(36.573 98.729)">
            <path id="Trazado_141100" data-name="Trazado 141100" d="M1887.17,1758.9a5.2,5.2,0,1,1,5.46,4.934A5.2,5.2,0,0,1,1887.17,1758.9Z" transform="translate(-1887.163 -1753.434)" fill="#f6f6f6"/>
          </g>
          <g id="Grupo_82678" data-name="Grupo 82678" transform="translate(16.52 26.225)">
            <path id="Trazado_141101" data-name="Trazado 141101" d="M1867.5,1624.28l-.293,4.569-3.662-.235-.315,4.908-5.777-.371.316-4.909-11.289-.725.281-4.38,13.477-16.8,4.719.3-1.118,17.406Zm-15.33-.984,5.89.378.543-8.458Z" transform="translate(-1846.478 -1606.336)" fill="#b52426"/>
          </g>
          <g id="Grupo_82679" data-name="Grupo 82679" transform="translate(57.015 16.073)">
            <path id="Trazado_141102" data-name="Trazado 141102" d="M1948.02,1599.7a6.092,6.092,0,0,1,2.067,3.774,6.392,6.392,0,0,1-.591,4.132,8.06,8.06,0,0,1-3.083,3.149,15.666,15.666,0,0,1-10.351,1.761,8.058,8.058,0,0,1-3.95-1.952,6.39,6.39,0,0,1-1.925-3.7,6.112,6.112,0,0,1,.719-4.266,2.577,2.577,0,1,0-.316-4.616,5.632,5.632,0,0,1-1.853-3.4,6.112,6.112,0,0,1,.57-3.922,7.689,7.689,0,0,1,2.916-3.027,14.036,14.036,0,0,1,9.584-1.631,7.692,7.692,0,0,1,3.754,1.893,6.114,6.114,0,0,1,1.836,3.513,5.787,5.787,0,0,1-.632,3.9,6.654,6.654,0,0,1-3.035,2.767A7.472,7.472,0,0,1,1948.02,1599.7Zm-4.115,7a2.957,2.957,0,0,0,.823-2.765,3.139,3.139,0,0,0-1.691-2.337,5.155,5.155,0,0,0-6.815,1.16,3.136,3.136,0,0,0-.824,2.765,2.955,2.955,0,0,0,1.692,2.337,7.179,7.179,0,0,0,6.815-1.159Zm-9.047-15.036a2.952,2.952,0,0,0-.659,2.624,3.135,3.135,0,0,0,1.493,2.277,3.947,3.947,0,0,0,5.8-.986,3.139,3.139,0,0,0,.657-2.643,2.953,2.953,0,0,0-1.491-2.259,5.5,5.5,0,0,0-5.8.986Z" transform="translate(-1928.636 -1585.741)" fill="#b52426"/>
          </g>
          <g id="Grupo_82680" data-name="Grupo 82680" transform="translate(39.998 43.316)">
            <path id="Trazado_141103" data-name="Trazado 141103" d="M1915.928,1658.851l1.152,4.158-16.264,4.506-1.06-3.825,5.561-10.566q1.723-3.343,1.116-5.538a2.762,2.762,0,0,0-1.4-1.887,3.642,3.642,0,0,0-2.577-.056,11.4,11.4,0,0,0-5.651,4.036l-2.7-3.264a10.813,10.813,0,0,1,3.12-2.96,15.3,15.3,0,0,1,4.325-1.968,9.344,9.344,0,0,1,6.363.153,6.065,6.065,0,0,1,3.5,4.169,8.929,8.929,0,0,1,.208,4.043,17.1,17.1,0,0,1-1.771,4.663l-3.807,7.071Z" transform="translate(-1894.111 -1641.012)" fill="#b52426"/>
          </g>
        </g>
      </g>
      <g id="Grupo_82683" data-name="Grupo 82683" transform="translate(398.203 35.467)">
        <path id="Trazado_141104" data-name="Trazado 141104" d="M2651.342,1604.893a17.164,17.164,0,0,1-2.3,5.381,13.428,13.428,0,0,1-3.585,3.689,12.7,12.7,0,0,1-4.6,1.945,15.535,15.535,0,0,1-5.332.149l-2.159,7.308q-.21.673-1.337.751a10.516,10.516,0,0,1-3.1-.416q-1.25-.314-2.088-.585a6.3,6.3,0,0,1-1.292-.546,1.549,1.549,0,0,1-.615-.6,1.208,1.208,0,0,1-.093-.748l1.905-9.023a9.217,9.217,0,0,1,.609-1.941,2.637,2.637,0,0,1,.854-1.074,2.1,2.1,0,0,1,1.16-.373,5.51,5.51,0,0,1,1.482.191l.531.133a8.8,8.8,0,0,0,3.627.228,7.13,7.13,0,0,0,2.833-1.1,6.748,6.748,0,0,0,2.011-2.152,10.876,10.876,0,0,0,1.206-2.958,10.7,10.7,0,0,0,.327-3.461,7.222,7.222,0,0,0-.9-3,7.057,7.057,0,0,0-2.19-2.342,10.874,10.874,0,0,0-3.545-1.515,14.265,14.265,0,0,0-3.5-.478,18.179,18.179,0,0,0-2.747.2q-1.175.188-1.971.391a2.634,2.634,0,0,1-1.174.107.832.832,0,0,1-.449-.294,1.3,1.3,0,0,1-.221-.72,6.781,6.781,0,0,1,.077-1.349,20.014,20.014,0,0,1,.439-2.145,12.059,12.059,0,0,1,.6-1.9,1.887,1.887,0,0,1,.74-.861,5.8,5.8,0,0,1,1.663-.528,17.411,17.411,0,0,1,2.776-.309,28.865,28.865,0,0,1,3.48.09,23.751,23.751,0,0,1,3.864.649,21.876,21.876,0,0,1,7.34,3.154,14.809,14.809,0,0,1,4.375,4.622,13.352,13.352,0,0,1,1.773,5.519A17.5,17.5,0,0,1,2651.342,1604.893Zm-19.368,29.638a12.169,12.169,0,0,1-.9,2.551,3.648,3.648,0,0,1-1.3,1.485,3.689,3.689,0,0,1-1.9.509,10.184,10.184,0,0,1-2.627-.359,10.312,10.312,0,0,1-2.541-.94,3.689,3.689,0,0,1-1.415-1.342,3.639,3.639,0,0,1-.442-1.923,12.094,12.094,0,0,1,.41-2.675,12.6,12.6,0,0,1,.918-2.608,3.777,3.777,0,0,1,1.309-1.523,3.6,3.6,0,0,1,1.886-.533,10.271,10.271,0,0,1,2.684.373,10.136,10.136,0,0,1,2.485.927,3.606,3.606,0,0,1,1.429,1.366,3.781,3.781,0,0,1,.434,1.961A12.651,12.651,0,0,1,2631.975,1634.53Z" transform="translate(-2620.846 -1584.922)" fill="#2a94ee"/>
      </g>
    </g>
  </g>
</svg>
