<svg xmlns="http://www.w3.org/2000/svg" width="472.996" height="302.479" viewBox="0 0 472.996 302.479">
  <g id="Grupo_82745" data-name="Grupo 82745" transform="translate(-4034.789 1379.343)">
    <path id="Trazado_141105" data-name="Trazado 141105" d="M4507.313-1264.976c-3.847-62.135-42.881-111.858-107.937-114.279-19.236-.716-38.146,2.975-56.116,9.728-23.28,8.749-43.434,24.307-67.324,31.624-33.309,10.2-67.259,6.761-101.552,7.583-23.382.56-47.114,3.174-68.654,12.289-90.027,38.1-79.144,155.146-49.991,229.956q2.12,5.439,4.417,10.821h399.659C4491.179-1134.781,4511.159-1202.86,4507.313-1264.976Z" fill="#fff5a2"/>
    <g id="Grupo_82695" data-name="Grupo 82695" transform="translate(4110.839 -1323.16)">
      <path id="Trazado_141200" data-name="Trazado 141200" d="M0,0H48.189V63.366H0Z" transform="translate(0 182.539)" fill="#20287a"/>
      <rect id="Rectángulo_31693" data-name="Rectángulo 31693" width="48.453" height="86.263" transform="translate(83.069 159.641)" fill="#2a94ee"/>
      <path id="Trazado_141201" data-name="Trazado 141201" d="M0,0H50.727V114.157H0Z" transform="translate(165.357 131.748)" fill="#fed947"/>
      <path id="Trazado_141202" data-name="Trazado 141202" d="M0,0H53.122V150.47H0Z" transform="translate(253.499 95.434)" fill="#d64626"/>
      <g id="Grupo_82694" data-name="Grupo 82694" transform="translate(2.252)">
        <g id="Grupo_82692" data-name="Grupo 82692" transform="translate(0 6.789)">
          <path id="Trazado_141106" data-name="Trazado 141106" d="M4238.813-1088.571l-.152-9.378c13.877-.231,51.75-3.816,95.765-15.727a484.867,484.867,0,0,0,91.882-35.021,422.539,422.539,0,0,0,96.583-66.687l6.37,6.883a431.959,431.959,0,0,1-98.893,68.26,494.335,494.335,0,0,1-93.782,35.7C4280.513-1089.405,4240.489-1088.6,4238.813-1088.571Z" transform="translate(-4238.66 1215.384)" fill="#2a94ee"/>
        </g>
        <g id="Grupo_82693" data-name="Grupo 82693" transform="translate(267.521)">
          <path id="Trazado_141107" data-name="Trazado 141107" d="M4964.18-1204.073l-28.987-28.988h28.987Z" transform="translate(-4935.192 1233.06)" fill="#2a94ee"/>
        </g>
      </g>
    </g>
    <g id="Grupo_82704" data-name="Grupo 82704" transform="translate(4293.196 -1310.791)">
      <g id="Grupo_82696" data-name="Grupo 82696" transform="translate(0 0)">
        <path id="Trazado_141108" data-name="Trazado 141108" d="M4759.8-1180.069l-10.792-6.642c-.089-.436-.189-.871-.314-1.306a16.679,16.679,0,0,0-20.632-11.431,16.68,16.68,0,0,0-11.919,18.317l-7.746,9.472a.189.189,0,0,0,.2.3l10-3.091a16.683,16.683,0,0,0,18.665,7.065,16.666,16.666,0,0,0,11.518-11.745l10.9-.483A.246.246,0,0,0,4759.8-1180.069Z" transform="translate(-4708.06 1200.39)" fill="#fff"/>
        <path id="Trazado_141109" data-name="Trazado 141109" d="M4732.177-1166.9a16.834,16.834,0,0,1-6.1-1.148,17.113,17.113,0,0,1-8.075-6.519l-9.789,3.026a.478.478,0,0,1-.542-.192.478.478,0,0,1,.026-.574l7.665-9.374a16.968,16.968,0,0,1,2.566-11.4,16.951,16.951,0,0,1,9.58-7.115,16.991,16.991,0,0,1,20.994,11.632c.105.368.2.763.294,1.2l10.685,6.575a.536.536,0,0,1,.239.594.536.536,0,0,1-.5.4l-10.688.473a17.073,17.073,0,0,1-11.664,11.743A17.012,17.012,0,0,1,4732.177-1166.9Zm-13.921-8.359.12.188a16.477,16.477,0,0,0,18.337,6.941,16.267,16.267,0,0,0,11.316-11.539l.056-.207,10.964-.485-10.772-6.63-.024-.125c-.1-.477-.2-.9-.31-1.284a16.4,16.4,0,0,0-20.27-11.23,16.451,16.451,0,0,0-11.71,17.994l.018.127-7.609,9.306Z" transform="translate(-4707.59 1200.856)" fill="#20287a"/>
      </g>
      <g id="Grupo_82703" data-name="Grupo 82703" transform="translate(15.452 4.239)">
        <g id="Grupo_82697" data-name="Grupo 82697" transform="translate(4.612 6.962)">
          <path id="Trazado_141110" data-name="Trazado 141110" d="M4769.376-1166.539a4.393,4.393,0,0,0-4.9-4.363,4.418,4.418,0,0,0-3.83,3.692,4.37,4.37,0,0,0,.717,3.144,2.038,2.038,0,0,1,.354,1.156v2.714h6.542v-2.714a2.009,2.009,0,0,1,.345-1.145A4.356,4.356,0,0,0,4769.376-1166.539Z" transform="translate(-4760.3 1171.223)" fill="#fff"/>
          <path id="Trazado_141111" data-name="Trazado 141111" d="M4768.08-1160.371h-7.128v-3.007a1.741,1.741,0,0,0-.3-.991,4.685,4.685,0,0,1-.766-3.353,4.724,4.724,0,0,1,4.087-3.94,4.708,4.708,0,0,1,3.664,1.159,4.69,4.69,0,0,1,1.565,3.495,4.643,4.643,0,0,1-.828,2.651,1.712,1.712,0,0,0-.293.979Zm-6.543-.585h5.957v-2.421a2.3,2.3,0,0,1,.4-1.312,4.064,4.064,0,0,0,.724-2.319,4.1,4.1,0,0,0-1.369-3.058,4.07,4.07,0,0,0-3.208-1.014,4.13,4.13,0,0,0-3.573,3.444,4.1,4.1,0,0,0,.669,2.936,2.325,2.325,0,0,1,.4,1.322Z" transform="translate(-4759.832 1171.691)" fill="#d64626"/>
        </g>
        <g id="Grupo_82698" data-name="Grupo 82698" transform="translate(5.732 19.559)">
          <rect id="Rectángulo_31696" data-name="Rectángulo 31696" width="6.543" height="2.412" transform="translate(0.293 0.293)" fill="#fff"/>
          <path id="Trazado_141112" data-name="Trazado 141112" d="M4769.876-1135.9h-7.129v-3h7.129Zm-6.542-.586h5.957v-1.826h-5.957Z" transform="translate(-4762.747 1138.894)" fill="#d64626"/>
        </g>
        <g id="Grupo_82699" data-name="Grupo 82699" transform="translate(6.631 9.547)">
          <path id="Trazado_141113" data-name="Trazado 141113" d="M4766.66-1164.324a1.934,1.934,0,0,0-.634,2.391" transform="translate(-4765.557 1164.569)" fill="#fff"/>
          <path id="Trazado_141114" data-name="Trazado 141114" d="M4765.287-1162.216a2.221,2.221,0,0,1,.745-2.746l.321.49-.16-.245.162.244a1.638,1.638,0,0,0-.524,2.037Z" transform="translate(-4765.09 1164.962)" fill="#d64626"/>
        </g>
        <g id="Grupo_82700" data-name="Grupo 82700" transform="translate(0 4.527)">
          <line id="Línea_1638" data-name="Línea 1638" x1="3.758" y1="2.684" transform="translate(0.17 0.238)" fill="#fff"/>
          <rect id="Rectángulo_31697" data-name="Rectángulo 31697" width="0.586" height="4.618" transform="matrix(0.581, -0.814, 0.814, 0.581, 0, 0.477)" fill="#d64626"/>
        </g>
        <g id="Grupo_82701" data-name="Grupo 82701" transform="translate(14.201 4.283)">
          <line id="Línea_1639" data-name="Línea 1639" y1="2.684" x2="3.758" transform="translate(0.17 0.238)" fill="#fff"/>
          <rect id="Rectángulo_31698" data-name="Rectángulo 31698" width="4.618" height="0.586" transform="translate(0 2.684) rotate(-35.541)" fill="#d64626"/>
        </g>
        <g id="Grupo_82702" data-name="Grupo 82702" transform="translate(8.9 0)">
          <line id="Línea_1640" data-name="Línea 1640" y1="4.615" x2="0.147" transform="translate(0.293 0.009)" fill="#fff"/>
          <rect id="Rectángulo_31699" data-name="Rectángulo 31699" width="4.618" height="0.586" transform="translate(0 4.615) rotate(-88.172)" fill="#d64626"/>
        </g>
      </g>
    </g>
    <g id="Grupo_82707" data-name="Grupo 82707" transform="translate(4184.377 -1288.325)">
      <g id="Grupo_82705" data-name="Grupo 82705" transform="translate(0)">
        <path id="Trazado_141115" data-name="Trazado 141115" d="M4443.036-1141.6a12.994,12.994,0,0,0-12.994,12.993,12.965,12.965,0,0,0,.674,4.108l-5.659,6.874a.137.137,0,0,0,.159.214l7.6-3.183a12.959,12.959,0,0,0,10.214,4.98,12.993,12.993,0,0,0,12.993-12.993A12.993,12.993,0,0,0,4443.036-1141.6Z" transform="translate(-4424.733 1141.895)" fill="#fff"/>
        <path id="Trazado_141116" data-name="Trazado 141116" d="M4442.567-1115.792a13.208,13.208,0,0,1-10.305-4.917l-7.4,3.1a.43.43,0,0,1-.511-.141.428.428,0,0,1,.014-.53l5.556-6.75a13.248,13.248,0,0,1-.638-4.046,13.3,13.3,0,0,1,13.286-13.286,13.3,13.3,0,0,1,13.286,13.286A13.3,13.3,0,0,1,4442.567-1115.792Zm-10.122-5.629.137.176a12.63,12.63,0,0,0,9.984,4.868,12.715,12.715,0,0,0,12.7-12.7,12.715,12.715,0,0,0-12.7-12.7,12.715,12.715,0,0,0-12.7,12.7,12.688,12.688,0,0,0,.658,4.015l.052.154-5.364,6.515Z" transform="translate(-4424.264 1142.364)" fill="#20287a"/>
      </g>
      <g id="Grupo_82706" data-name="Grupo 82706" transform="translate(13.982 6.809)">
        <path id="Trazado_141117" data-name="Trazado 141117" d="M4461.214-1117.12l3.708,3.807,4.588-11.029" transform="translate(-4461.004 1124.455)" fill="#fff"/>
        <path id="Trazado_141118" data-name="Trazado 141118" d="M4464.687-1112.972l-4.019-4.124.419-.409,3.4,3.489,4.417-10.619.54.225Z" transform="translate(-4460.668 1124.635)" fill="#d64626"/>
      </g>
    </g>
    <g id="Grupo_82708" data-name="Grupo 82708" transform="translate(4430.046 -1280.916)">
      <path id="Trazado_141119" data-name="Trazado 141119" d="M5099.168-1105.425a17.634,17.634,0,0,1-17.637,17.63,17.628,17.628,0,0,1-17.63-17.63,17.625,17.625,0,0,1,17.452-17.63c-.06,1.919-.118,4.173-.164,6.42a11.214,11.214,0,0,0-10.875,11.21,11.223,11.223,0,0,0,11.217,11.217,11.219,11.219,0,0,0,11.217-11.217,11,11,0,0,0-.565-3.5l6.13-1.919A17.332,17.332,0,0,1,5099.168-1105.425Z" transform="translate(-5063.901 1123.062)" fill="#d64626"/>
      <path id="Trazado_141120" data-name="Trazado 141120" d="M5126.037-1110.85l-6.13,1.919a11.193,11.193,0,0,0-10.651-7.721c-.111,0-.23,0-.342.007.046-2.247.1-4.5.165-6.42a1.623,1.623,0,0,1,.177-.006A17.636,17.636,0,0,1,5126.037-1110.85Z" transform="translate(-5091.625 1123.072)" fill="#97181a"/>
    </g>
    <g id="Grupo_82715" data-name="Grupo 82715" transform="translate(4053.446 -1173.034)">
      <g id="Grupo_82710" data-name="Grupo 82710" transform="translate(15.199 38.934)">
        <circle id="Elipse_4706" data-name="Elipse 4706" cx="13.6" cy="13.6" r="13.6" fill="#d64626"/>
        <g id="Grupo_82709" data-name="Grupo 82709" transform="translate(8.744 4.715)">
          <path id="Trazado_141121" data-name="Trazado 141121" d="M4149.406-710.769v-2.068a8.768,8.768,0,0,1-3.7-.936l.653-2.548a7.7,7.7,0,0,0,3.614.957c1.242,0,2.091-.479,2.091-1.349,0-.828-.7-1.351-2.308-1.9-2.331-.784-3.92-1.872-3.92-3.984,0-1.917,1.35-3.419,3.68-3.876v-2.069h2.134v1.917a7.866,7.866,0,0,1,3.158.718l-.631,2.461a7.231,7.231,0,0,0-3.136-.741c-1.417,0-1.874.61-1.874,1.22,0,.718.763,1.176,2.614,1.872,2.591.915,3.637,2.112,3.637,4.073,0,1.938-1.373,3.592-3.876,4.029v2.22Z" transform="translate(-4145.703 728.538)" fill="#fff"/>
        </g>
      </g>
      <g id="Grupo_82712" data-name="Grupo 82712" transform="translate(0 18.922)">
        <path id="Trazado_141204" data-name="Trazado 141204" d="M7.154,0A7.154,7.154,0,1,1,0,7.154,7.154,7.154,0,0,1,7.154,0Z" fill="#b52426"/>
        <g id="Grupo_82711" data-name="Grupo 82711" transform="translate(4.599 2.48)">
          <path id="Trazado_141122" data-name="Trazado 141122" d="M4097.287-777.114V-778.2a4.612,4.612,0,0,1-1.948-.493l.344-1.34a4.05,4.05,0,0,0,1.9.5c.652,0,1.1-.252,1.1-.71,0-.436-.366-.711-1.213-1-1.227-.412-2.063-.985-2.063-2.1a2.118,2.118,0,0,1,1.937-2.039v-1.089h1.123v1.009a4.131,4.131,0,0,1,1.661.378l-.333,1.295a3.8,3.8,0,0,0-1.649-.39c-.745,0-.985.321-.985.642,0,.378.4.618,1.375.985,1.363.482,1.913,1.111,1.913,2.143a2.2,2.2,0,0,1-2.039,2.119v1.168Z" transform="translate(-4095.339 786.461)" fill="#fff"/>
        </g>
      </g>
      <g id="Grupo_82714" data-name="Grupo 82714" transform="translate(29.281 0)">
        <circle id="Elipse_4708" data-name="Elipse 4708" cx="7.154" cy="7.154" r="7.154" fill="#97181a"/>
        <g id="Grupo_82713" data-name="Grupo 82713" transform="translate(4.6 2.481)">
          <path id="Trazado_141123" data-name="Trazado 141123" d="M4173.525-826.38v-1.088a4.611,4.611,0,0,1-1.948-.492l.344-1.34a4.048,4.048,0,0,0,1.9.5c.653,0,1.1-.252,1.1-.71,0-.436-.367-.71-1.214-1-1.226-.412-2.062-.985-2.062-2.1a2.118,2.118,0,0,1,1.936-2.039v-1.089h1.123v1.008a4.136,4.136,0,0,1,1.661.378l-.332,1.295a3.8,3.8,0,0,0-1.649-.39c-.745,0-.985.321-.985.642,0,.378.4.618,1.375.985,1.363.481,1.913,1.111,1.913,2.143a2.2,2.2,0,0,1-2.039,2.119v1.168Z" transform="translate(-4171.577 835.727)" fill="#fff"/>
        </g>
      </g>
    </g>
    <g id="Grupo_82720" data-name="Grupo 82720" transform="translate(4433.953 -1203.264)">
      <g id="Grupo_82717" data-name="Grupo 82717" transform="translate(0 38.84)">
        <path id="Trazado_141203" data-name="Trazado 141203" d="M14.478,0A14.478,14.478,0,1,1,0,14.478,14.478,14.478,0,0,1,14.478,0Z" fill="#d64626"/>
        <g id="Grupo_82716" data-name="Grupo 82716" transform="translate(9.308 5.02)">
          <path id="Trazado_141124" data-name="Trazado 141124" d="M5102.252-787.781v-2.2a9.338,9.338,0,0,1-3.942-1l.7-2.713a8.193,8.193,0,0,0,3.848,1.019c1.322,0,2.226-.51,2.226-1.436,0-.882-.742-1.438-2.457-2.018-2.481-.835-4.174-1.993-4.174-4.242,0-2.041,1.438-3.639,3.918-4.126v-2.2h2.272v2.041a8.362,8.362,0,0,1,3.362.765l-.672,2.62a7.686,7.686,0,0,0-3.338-.789c-1.507,0-1.994.65-1.994,1.3,0,.764.811,1.251,2.781,1.993,2.759.974,3.873,2.248,3.873,4.336,0,2.063-1.461,3.825-4.126,4.289v2.364Z" transform="translate(-5098.31 806.698)" fill="#fff"/>
        </g>
      </g>
      <g id="Grupo_82719" data-name="Grupo 82719" transform="translate(12.693 0)">
        <circle id="Elipse_4710" data-name="Elipse 4710" cx="8.858" cy="8.858" r="8.858" transform="translate(0 15.01) rotate(-57.913)" fill="#97181a"/>
        <g id="Grupo_82718" data-name="Grupo 82718" transform="translate(9.048 6.424)">
          <path id="Trazado_141125" data-name="Trazado 141125" d="M5133.09-892.6v-1.347a5.705,5.705,0,0,1-2.41-.61l.426-1.66a5.007,5.007,0,0,0,2.354.624c.809,0,1.361-.312,1.361-.879,0-.539-.454-.88-1.5-1.234-1.518-.51-2.554-1.22-2.554-2.6a2.621,2.621,0,0,1,2.4-2.525v-1.348h1.39v1.249a5.119,5.119,0,0,1,2.058.468l-.411,1.6a4.721,4.721,0,0,0-2.043-.482c-.922,0-1.221.4-1.221.794,0,.468.5.766,1.7,1.22,1.688.6,2.368,1.375,2.368,2.653a2.718,2.718,0,0,1-2.524,2.624v1.446Z" transform="translate(-5130.68 904.169)" fill="#fff"/>
        </g>
      </g>
    </g>
    <g id="Grupo_82728" data-name="Grupo 82728" transform="translate(4247.143 -1285.411)">
      <g id="Grupo_82721" data-name="Grupo 82721" transform="translate(4.548)">
        <path id="Trazado_141126" data-name="Trazado 141126" d="M4672.657-1106.028c.227.114,3.458,3.686,2.041,4.366a6.742,6.742,0,0,1-3.345.4Z" transform="translate(-4643.767 1117.07)" fill="#d28572"/>
        <path id="Trazado_141127" data-name="Trazado 141127" d="M4631.468-1086.215l-3.927,11.548,10.424,5.489,2.7-15.382-9.194-1.655Z" transform="translate(-4616.781 1104.866)" fill="#ffbc96"/>
        <path id="Trazado_141128" data-name="Trazado 141128" d="M4651.174-1082.175l-1.375,8.206a30.449,30.449,0,0,1-4.856-9.128l1.929-.109Z" transform="translate(-4627.5 1103.013)" fill="#d28572"/>
        <path id="Trazado_141129" data-name="Trazado 141129" d="M4651.911-1124.2s2.341,16.195-2.152,17.412-11.982-4.493-11.982-4.493l2.247-13.48,6.553-2.153Z" transform="translate(-4623.086 1129.936)" fill="#ffbc96"/>
        <path id="Trazado_141130" data-name="Trazado 141130" d="M4649.96-1129.043s-4.213-1.685-7.021,5.523l-1.4,2.434-6.927-.749,1.124-8.8,6.084-3S4648.65-1138.217,4649.96-1129.043Z" transform="translate(-4621.135 1134.777)" fill="#1b1b43"/>
        <path id="Trazado_141131" data-name="Trazado 141131" d="M4634.6-1130.264s-3.526-2.528-9.143,3.089-2.746,16.787,3.245,16.663c5.84-.122,4.213-5.9,3.838-6.927S4634.6-1130.264,4634.6-1130.264Z" transform="translate(-4613.638 1132.346)" fill="#1b1b43"/>
        <ellipse id="Elipse_4711" data-name="Elipse 4711" cx="2.698" cy="3.077" rx="2.698" ry="3.077" transform="translate(16.315 11.872) rotate(-30)" fill="#ffbc96"/>
        <circle id="Elipse_4712" data-name="Elipse 4712" cx="5.056" cy="5.056" r="5.056" transform="translate(0 9.649) rotate(-70.263)" fill="#1b1b43"/>
      </g>
      <g id="Grupo_82724" data-name="Grupo 82724" transform="translate(3.219 86.905)">
        <g id="Grupo_82722" data-name="Grupo 82722" transform="translate(5.722 101.02)">
          <path id="Trazado_141132" data-name="Trazado 141132" d="M4623.058-636.762a73.582,73.582,0,0,1-1.393-8.722l-10.7.66.261,6.929c2.7,1.742,7.967,4.6,13.583,4.628A10.106,10.106,0,0,1,4623.058-636.762Z" transform="translate(-4610.966 645.484)" fill="#d28572"/>
          <path id="Trazado_141133" data-name="Trazado 141133" d="M4631.905-614.992c-1.347-1.469-4.547-3.276-6.677-6.105-5.615-.033-10.886-2.886-13.583-4.628l.472,12.492h2.125l1.172-5.936s7.109,5.717,12.092,6.01S4632.711-614.112,4631.905-614.992Z" transform="translate(-4611.385 633.314)" fill="#1b1b43"/>
        </g>
        <path id="Trazado_141134" data-name="Trazado 141134" d="M4596.806-908.505c-2.487,2.163,1.979,80.47,3.518,104.215l14.731-.22-2.419-100.917Z" transform="translate(-4596.067 908.505)" fill="#afafaf"/>
        <g id="Grupo_82723" data-name="Grupo 82723" transform="translate(15.616 101.02)">
          <path id="Trazado_141135" data-name="Trazado 141135" d="M4648.818-636.762a73.473,73.473,0,0,1-1.393-8.722l-10.7.66.262,6.929c2.7,1.742,7.967,4.6,13.582,4.628A10.106,10.106,0,0,1,4648.818-636.762Z" transform="translate(-4636.726 645.484)" fill="#ffbc96"/>
          <path id="Trazado_141136" data-name="Trazado 141136" d="M4657.666-614.992c-1.347-1.469-4.547-3.276-6.676-6.105-5.615-.033-10.887-2.886-13.583-4.628l.471,12.492H4640l1.173-5.936s7.109,5.717,12.092,6.01S4658.473-614.112,4657.666-614.992Z" transform="translate(-4637.146 633.314)" fill="#1b1b43"/>
        </g>
        <path id="Trazado_141137" data-name="Trazado 141137" d="M4610.584-905.07l8.316,102.884,15.429.452s.66-82.888-2.858-102.017Z" transform="translate(-4605.009 906.389)" fill="#e8e8e8"/>
        <path id="Trazado_141138" data-name="Trazado 141138" d="M4661.051-778.711c-.035,0-.07,0-.106,0l-1.535-.128.048-.584,1.535.128a.661.661,0,0,0,.7-.5.66.66,0,0,0-.117-.563.656.656,0,0,0-.514-.258l-4.948-.079.01-.586,4.947.079a1.241,1.241,0,0,1,.969.487,1.24,1.24,0,0,1,.22,1.062A1.241,1.241,0,0,1,4661.051-778.711Z" transform="translate(-4633.05 830.145)" fill="#1b1b43"/>
      </g>
      <g id="Grupo_82727" data-name="Grupo 82727" transform="translate(0 22.815)">
        <path id="Trazado_141139" data-name="Trazado 141139" d="M4630.238-1070.794l1.026-4.58a52.78,52.78,0,0,1,8.1,4.73,5.85,5.85,0,0,1,2.275,4.231l.29,4.121-8.794-2.419Z" transform="translate(-4613.895 1075.374)" fill="#fed3d1"/>
        <path id="Trazado_141140" data-name="Trazado 141140" d="M4755.734-950.458a17.024,17.024,0,0,1-11.433-4.69l-.147-7.549,12.9,1.026,3.591,3.371Z" transform="translate(-4684.059 1005.973)" fill="#d28572"/>
        <path id="Trazado_141141" data-name="Trazado 141141" d="M4694.352-955.286s5.5-1.246,6.01-11.8l-4.837,3.811Z" transform="translate(-4653.384 1008.677)" fill="#1b1b43"/>
        <path id="Trazado_141142" data-name="Trazado 141142" d="M4604.029-1063.448l7.988,4.135a11.129,11.129,0,0,1,5.75,7.442c2.254,10.047,6.325,33.593,2.238,59.219a74.622,74.622,0,0,1-32.32-9.967l6.2-46.877a16.146,16.146,0,0,1,5.777-10.376Z" transform="translate(-4587.687 1068.028)" fill="#d64626"/>
        <path id="Trazado_141143" data-name="Trazado 141143" d="M4686.739-967.658l14.449.641a9.705,9.705,0,0,1,4.207,1.145,32.68,32.68,0,0,1,5.757,4,2.964,2.964,0,0,1,.631,3.7h0a2.935,2.935,0,0,1-.7.834l-1.765,1.444a2.9,2.9,0,0,1-.481.321l-2.518,1.343a2.863,2.863,0,0,1-1.232.344,8.631,8.631,0,0,1-6.766-2.813l-18.469-2.089,3.078-6.926Z" transform="translate(-4644.452 1009.029)" fill="#ffbc96"/>
        <path id="Trazado_141144" data-name="Trazado 141144" d="M4750.044-964.833l-8.713-2.87a2.522,2.522,0,0,0-1.3-.075c-2.076.428-8.184,1.845-7.133,3.5.769,1.209,6.889-.7,6.889-.7Z" transform="translate(-4677.05 1009.136)" fill="#d28572"/>
        <g id="Grupo_82725" data-name="Grupo 82725" transform="translate(51.485 48.887)">
          <path id="Trazado_141145" data-name="Trazado 141145" d="M4722.248-943.993h0a1.178,1.178,0,0,1-.307-1.637l1.329-1.946a1.178,1.178,0,0,1,1.637-.308h0a1.178,1.178,0,0,1,.308,1.637l-1.33,1.946A1.178,1.178,0,0,1,4722.248-943.993Z" transform="translate(-4721.735 948.089)" fill="#d28572"/>
          <path id="Trazado_141146" data-name="Trazado 141146" d="M4726.614-942.491h0a1.177,1.177,0,0,1-.308-1.637l1.774-2.6a1.177,1.177,0,0,1,1.637-.308h0a1.178,1.178,0,0,1,.308,1.637l-1.774,2.6A1.178,1.178,0,0,1,4726.614-942.491Z" transform="translate(-4724.424 947.564)" fill="#d28572"/>
          <path id="Trazado_141147" data-name="Trazado 141147" d="M4731.907-939h0a1.178,1.178,0,0,1-.308-1.637l1.33-1.945a1.178,1.178,0,0,1,1.637-.308h0a1.178,1.178,0,0,1,.308,1.637l-1.329,1.946A1.179,1.179,0,0,1,4731.907-939Z" transform="translate(-4727.684 945.016)" fill="#d28572"/>
          <path id="Rectángulo_31700" data-name="Rectángulo 31700" d="M1.033,0h0A1.033,1.033,0,0,1,2.066,1.033v1.6A1.033,1.033,0,0,1,1.033,3.662h0A1.033,1.033,0,0,1,0,2.629v-1.6A1.033,1.033,0,0,1,1.033,0Z" transform="matrix(0.826, 0.564, -0.564, 0.826, 7.271, 3.183)" fill="#d28572"/>
        </g>
        <path id="Trazado_141148" data-name="Trazado 141148" d="M4636.568-1041.833s5.13-2.931,6.449,25.358l17.149,3.3a31.476,31.476,0,0,0-6.009,11.8l-14.6-1.569a9.606,9.606,0,0,1-5.457-2.462h0a9.607,9.607,0,0,1-3.1-6.355l-1.908-24.793Z" transform="translate(-4613.189 1054.769)" fill="#d64626"/>
        <path id="Trazado_141149" data-name="Trazado 141149" d="M4654.809-992.262l-15.528-1.586a9.782,9.782,0,0,1-6.566-3.553,9.789,9.789,0,0,1-2.156-5.7l-.777-18.1.585-.025.777,18.1a9.2,9.2,0,0,0,2.026,5.354,9.192,9.192,0,0,0,6.17,3.339l15.015,1.533a27.261,27.261,0,0,1,5.666-11.293l-16.838-3.238-2.988-20.12.579-.086,2.927,19.709,17.488,3.363-.392.391a25.969,25.969,0,0,0-5.931,11.657Z" transform="translate(-4613.613 1045.97)" fill="#1b1b43"/>
        <rect id="Rectángulo_31701" data-name="Rectángulo 31701" width="0.586" height="9.881" transform="matrix(0.224, -0.975, 0.975, 0.224, 18.607, 57.444)" fill="#1b1b43"/>
        <g id="Grupo_82726" data-name="Grupo 82726" transform="translate(60.229 47.045)">
          <path id="Trazado_141150" data-name="Trazado 141150" d="M4755.707-948.37l-1.825-3.266-1.8-.9.175-.349,1.908.954,1.883,3.371Z" transform="translate(-4749.17 952.885)" fill="#d28572"/>
          <rect id="Rectángulo_31702" data-name="Rectángulo 31702" width="0.39" height="4.047" transform="translate(2.391 2.715) rotate(-30.875)" fill="#d28572"/>
          <rect id="Rectángulo_31703" data-name="Rectángulo 31703" width="0.39" height="4.047" transform="translate(0 4.032) rotate(-30.875)" fill="#d28572"/>
        </g>
      </g>
    </g>
    <g id="Grupo_82735" data-name="Grupo 82735" transform="translate(4318.818 -1288.187)">
      <g id="Grupo_82731" data-name="Grupo 82731" transform="translate(13.998 83.965)">
        <g id="Grupo_82729" data-name="Grupo 82729" transform="translate(0 106.121)">
          <path id="Trazado_141151" data-name="Trazado 141151" d="M4823.209-645.621l-.146,11.14-12.312,8.062h23.306l.879-20.667Z" transform="translate(-4810.75 647.087)" fill="#1b1b43"/>
          <rect id="Rectángulo_31704" data-name="Rectángulo 31704" width="0.781" height="4.74" transform="matrix(0.586, -0.811, 0.811, 0.586, 12.084, 12.922)" fill="#fefefe"/>
        </g>
        <g id="Grupo_82730" data-name="Grupo 82730" transform="translate(51.448 102.896)">
          <path id="Trazado_141152" data-name="Trazado 141152" d="M4954.451-655.483l2.638,14.291,8.355,9.6h-17.37l-3.371-20.667Z" transform="translate(-4944.704 655.483)" fill="#1b1b43"/>
          <rect id="Rectángulo_31705" data-name="Rectángulo 31705" width="4.381" height="0.781" transform="matrix(0.665, -0.747, 0.747, 0.665, 9.182, 17.305)" fill="#fefefe"/>
        </g>
        <path id="Trazado_141153" data-name="Trazado 141153" d="M4839.869-920.045s-7.182,29.022-4.983,106.853h16.709s4.4-65.079,10.554-109.052Z" transform="translate(-4825.358 922.684)" fill="#afafaf"/>
        <path id="Trazado_141154" data-name="Trazado 141154" d="M4907.5-923.389l13.118,107.513-17.223,2.858-20.763-110.155Z" transform="translate(-4855.022 923.389)" fill="#afafaf"/>
        <path id="Trazado_141155" data-name="Trazado 141155" d="M4889.957-839.144l-4.65-26.606-5.525-1,.1-.576,5.927,1.077.035.2,4.685,26.808Z" transform="translate(-4853.269 888.861)" fill="#1b1b43"/>
        <path id="Trazado_141156" data-name="Trazado 141156" d="M4836.673-755.071a1.048,1.048,0,0,1-.665-.237,1.048,1.048,0,0,1-.383-.713,1.059,1.059,0,0,1,.866-1.144l4.818-.853.1.576-4.819.853a.472.472,0,0,0-.385.509.465.465,0,0,0,.171.317.463.463,0,0,0,.344.1l2.07-.214.06.583-2.069.214A1.077,1.077,0,0,1,4836.673-755.071Z" transform="translate(-4826.068 821.533)" fill="#1b1b43"/>
        <path id="Trazado_141157" data-name="Trazado 141157" d="M4914.953-758.042a1.044,1.044,0,0,1-.664-.237,1.043,1.043,0,0,1-.383-.713,1.058,1.058,0,0,1,.865-1.144l4.818-.853.1.576-4.819.853a.471.471,0,0,0-.385.509.466.466,0,0,0,.17.317.465.465,0,0,0,.346.1l2.069-.214.061.583-2.07.214A1.075,1.075,0,0,1,4914.953-758.042Z" transform="translate(-4874.284 823.363)" fill="#1b1b43"/>
      </g>
      <g id="Grupo_82733" data-name="Grupo 82733" transform="translate(0 28.103)">
        <path id="Trazado_141158" data-name="Trazado 141158" d="M4865.057-1068.832l-14.912,38.272-1.613,20.228,32.1,2.2-4.676-60.39Z" transform="translate(-4820.022 1068.832)" fill="#fff"/>
        <path id="Trazado_141159" data-name="Trazado 141159" d="M4850.1-1000.343a25.218,25.218,0,0,0,7.277-.567,28.852,28.852,0,0,0,6.759-2.434,30.267,30.267,0,0,0,3.085-1.861c.493-.346,1.023-.644,1.487-1.031s.94-.762,1.421-1.134a14.959,14.959,0,0,0,1.375-1.2l1.359-1.237c.873-.862,1.7-1.778,2.613-2.638-.637,1.065-1.31,2.124-2.039,3.145l-1.2,1.447a12.541,12.541,0,0,1-1.285,1.384,25.917,25.917,0,0,1-6.1,4.513,22.619,22.619,0,0,1-7.271,2.243A16.607,16.607,0,0,1,4850.1-1000.343Z" transform="translate(-4820.99 1034.102)" fill="#1b1b43" opacity="0.2"/>
        <path id="Trazado_141160" data-name="Trazado 141160" d="M4855.3-1068.832s-6.161,8.978-12.074,74.2a.467.467,0,0,1-.733.341l-9.8-7.025,8.575-55.845Z" transform="translate(-4810.268 1068.832)" fill="#20287a"/>
        <path id="Trazado_141161" data-name="Trazado 141161" d="M4819.338-1068.832l-13.012,3.538a5.864,5.864,0,0,0-4.112,4.091l-8.562,30.863-18.029,3.3-1.319,11.213,23.394-1.1a6.029,6.029,0,0,0,5.64-4.892l6.364-33.367Z" transform="translate(-4774.304 1068.832)" fill="#20287a"/>
        <path id="Trazado_141162" data-name="Trazado 141162" d="M4909.264-1068.029s-6.845,47.18-6.65,74.118l21.472-.976.041-45.292Z" transform="translate(-4853.331 1068.337)" fill="#20287a"/>
        <rect id="Rectángulo_31706" data-name="Rectángulo 31706" width="32.84" height="24.909" rx="4.507" transform="translate(43.035 40.76) rotate(7.565)" fill="#dff7f9"/>
        <path id="Trazado_141163" data-name="Trazado 141163" d="M4922.141-926.818a.306.306,0,0,1-.041,0h0l-3.958-.526a.31.31,0,0,1-.205-.119.3.3,0,0,1-.06-.228l.391-2.948a.306.306,0,0,1,.119-.2.306.306,0,0,1,.228-.061l3.959.526a.3.3,0,0,1,.2.118.308.308,0,0,1,.062.228l-.393,2.948a.3.3,0,0,1-.117.2A.309.309,0,0,1,4922.141-926.818Zm-3.866-.9,3.795.5.371-2.786-3.8-.5Zm-.011.081h0Zm.3-2.877Z" transform="translate(-4862.733 983.881)" fill="#fff"/>
        <path id="Trazado_141164" data-name="Trazado 141164" d="M4922.179-928.377l-.945,1.35a5.236,5.236,0,0,1-2.6,1.963c-2.137.722-6.517,2.089-5.931,3.439.335.774,4.414-.28,4.414-.28s-4.714,5.557-2.744,7.246a6.32,6.32,0,0,0,2.559,1.107,10.1,10.1,0,0,0,3.777.087,4.233,4.233,0,0,0,2.539-1.4,19.992,19.992,0,0,0,2.191-3.033,36.339,36.339,0,0,0,3.637-7.944Z" transform="translate(-4859.513 982.322)" fill="#d28572"/>
        <path id="Trazado_141165" data-name="Trazado 141165" d="M4919.934-1068.029l9.673,2.141a8.14,8.14,0,0,1,5.82,4.979l9.7,22.353a11.658,11.658,0,0,1-.622,10.51l-10.954,18.794-8.5-4.544,8.062-20.228Z" transform="translate(-4864.001 1068.337)" fill="#20287a"/>
        <path id="Trazado_141166" data-name="Trazado 141166" d="M4895.506-1053.679a9.183,9.183,0,0,1-5.224-1.766l.367-.456c.039.031,3.942,3.1,8.266.752l.279.515A7.638,7.638,0,0,1,4895.506-1053.679Z" transform="translate(-4845.738 1060.868)" fill="#1b1b43"/>
        <rect id="Rectángulo_31707" data-name="Rectángulo 31707" width="54.348" height="0.585" transform="matrix(0.142, -0.99, 0.99, 0.142, 22.142, 67.473)" fill="#5254cf"/>
        <path id="Trazado_141167" data-name="Trazado 141167" d="M4933.091-987.662l-.538-.23,9.137-21.384-6.849-16.283.54-.227,6.945,16.511Z" transform="translate(-4871.773 1042.319)" fill="#5254cf"/>
        <g id="Grupo_82732" data-name="Grupo 82732" transform="translate(55.108 64.491)">
          <rect id="Rectángulo_31708" data-name="Rectángulo 31708" width="3.934" height="0.391" transform="matrix(0.562, -0.827, 0.827, 0.562, 0, 3.253)" fill="#925d4f"/>
          <rect id="Rectángulo_31709" data-name="Rectángulo 31709" width="3.934" height="0.391" transform="matrix(0.562, -0.827, 0.827, 0.562, 2.082, 4.229)" fill="#925d4f"/>
          <rect id="Rectángulo_31710" data-name="Rectángulo 31710" width="3.934" height="0.391" transform="translate(5.14 4.294) rotate(-55.781)" fill="#925d4f"/>
        </g>
      </g>
      <g id="Grupo_82734" data-name="Grupo 82734" transform="translate(36.809)">
        <path id="Trazado_141168" data-name="Trazado 141168" d="M4877.87-1116.344s-4.8,4.113-3.291,5.484a7.379,7.379,0,0,0,3.564,1.645Z" transform="translate(-4872.694 1126.199)" fill="#d28572"/>
        <path id="Trazado_141169" data-name="Trazado 141169" d="M4902.764-1103.9l-.3,13.781c-5.45,5.653-10.9-.312-10.9-.312l.391-2.826.171-1.257.773-5.63.2-1.491,5.685-1.327Z" transform="translate(-4883.333 1118.535)" fill="#d28572"/>
        <path id="Trazado_141170" data-name="Trazado 141170" d="M4899.948-1096.81s-1.8,3.553-7.371,7.558l.172-1.257.773-5.63,5.841-1.257Z" transform="translate(-4883.96 1114.529)" fill="#925d4f"/>
        <path id="Trazado_141171" data-name="Trazado 141171" d="M4881.1-1131.035s-3.152,17,1.1,16.725,12.2-4.661,12.2-4.661l.96-8.088-3.564-5.347-6.169.137Z" transform="translate(-4876.196 1136.092)" fill="#d28572"/>
        <path id="Trazado_141172" data-name="Trazado 141172" d="M4884.793-1128.687s3.6,6.22,5.4,6.015,5.039-11.721,1.08-16.5-12.955-2.056-13.675-2.056-4.729-.1-7.454-.154c0,0,2.21,8.174,11.259,5.706,0,0,1.079,3.959,3.238,4.473Z" transform="translate(-4870.142 1142.004)" fill="#1b1b43"/>
        <ellipse id="Elipse_4713" data-name="Elipse 4713" cx="3.136" cy="2.554" rx="3.136" ry="2.554" transform="translate(11.217 13.905) rotate(-71.126)" fill="#d28572"/>
        <path id="Trazado_141173" data-name="Trazado 141173" d="M4905.214-1111.6a2.641,2.641,0,0,1,.313-1.919,2.5,2.5,0,0,1,1.777-1.025l.1.578a1.942,1.942,0,0,0-1.384.771,2.053,2.053,0,0,0-.233,1.457Z" transform="translate(-4891.707 1125.094)" fill="#1b1b43"/>
      </g>
    </g>
    <g id="Grupo_82744" data-name="Grupo 82744" transform="translate(4133.643 -1280.463)">
      <g id="Grupo_82738" data-name="Grupo 82738" transform="translate(4.128 77.999)">
        <g id="Grupo_82736" data-name="Grupo 82736" transform="translate(25.385 44.266)">
          <path id="Trazado_141174" data-name="Trazado 141174" d="M4383.742-797.913l-14.731-5.643c1.627,8.68,2.5,59.271,2.624,66.78l10.232,1.936C4383.6-758.7,4383.742-797.913,4383.742-797.913Z" transform="translate(-4369.011 803.556)" fill="#ffbc96"/>
          <path id="Trazado_141175" data-name="Trazado 141175" d="M4396.005-616.652c-4.545-5.5-6.523-3.739-10.408-10.922.011-.056.02-.118.03-.174l-10.232-1.936c.01.606.015.938.015.938l-.293,13.192h2.785l1.612-5.936,6.669,5.936h9.111C4395.859-615.554,4396.365-616.217,4396.005-616.652Z" transform="translate(-4372.772 696.464)" fill="#97181a"/>
        </g>
        <g id="Grupo_82737" data-name="Grupo 82737" transform="translate(0 41.836)">
          <path id="Trazado_141176" data-name="Trazado 141176" d="M4329.733-802.174l-13.763-7.708c.358,8.824-6.07,59.013-7.032,66.461l9.846,3.391C4323.936-763.4,4329.733-802.174,4329.733-802.174Z" transform="translate(-4306.625 809.882)" fill="#ffbc96"/>
          <path id="Trazado_141177" data-name="Trazado 141177" d="M4323.746-620.974c-3.7-6.1-5.917-4.641-8.725-12.308.018-.054.037-.113.055-.168l-9.846-3.391c-.077.6-.12.93-.12.93l-2.192,13.012,2.755.4,2.452-5.642,6.326,8.03,8.434.119C4323.443-619.909,4324.039-620.491,4323.746-620.974Z" transform="translate(-4302.917 703.302)" fill="#97181a"/>
        </g>
        <path id="Trazado_141178" data-name="Trazado 141178" d="M4320.391-915.731s-3.078,27.483,1.319,47.71c0,0,16.489,5.277,31.44-.879,0,0,1.318-43.313-4.618-49.909Z" transform="translate(-4313.035 918.809)" fill="#20287a"/>
        <path id="Trazado_141179" data-name="Trazado 141179" d="M4340.6-803.231a107.963,107.963,0,0,1-15.463-1.17l.1-.578c.2.033,20.163,3.253,31.666-1.156l.209.547C4352.368-803.772,4346.229-803.231,4340.6-803.231Z" transform="translate(-4316.602 849.41)" fill="#2a94ee"/>
        <path id="Trazado_141180" data-name="Trazado 141180" d="M4363.867-900.991c-.18-1.34-1.759-13.115-1.759-13.7h.585c0,.415,1.049,8.375,1.754,13.625Z" transform="translate(-4339.374 916.274)" fill="#2a94ee"/>
        <path id="Trazado_141181" data-name="Trazado 141181" d="M4395.784-763.776a3.383,3.383,0,0,1-2.452-1.123.609.609,0,0,1-.1-.677c.165-.328.633-.644,2.929-.732,1.191-.045,2.319-.008,2.367-.006l-.027.78a17.655,17.655,0,0,0-4.456.266,2.675,2.675,0,0,0,1.737.71Z" transform="translate(-4358.508 824.893)" fill="#d28572"/>
        <path id="Trazado_141182" data-name="Trazado 141182" d="M4346.993-759.711a3.382,3.382,0,0,1-2.452-1.123.609.609,0,0,1-.1-.677c.165-.328.634-.644,2.93-.732,1.191-.046,2.32-.008,2.367-.006l-.027.78a17.657,17.657,0,0,0-4.457.266,2.675,2.675,0,0,0,1.737.71Z" transform="translate(-4328.456 822.389)" fill="#d28572"/>
      </g>
      <g id="Grupo_82741" data-name="Grupo 82741" transform="translate(0 30.714)">
        <path id="Trazado_141183" data-name="Trazado 141183" d="M4341.252-1041.923l4.718,5.511a12.874,12.874,0,0,1,3.066,9.228l-1.435,21.553s.44,11.14,1.905,12.9-2.785,3.371-8.794,4.4-24.625.88-25.5-1.905,3.665-4.69,2.2-11.58l2.932-31.661,3.884-6.742,10.187-.44Z" transform="translate(-4306.29 1041.923)" fill="#dff7f9"/>
        <path id="Trazado_141184" data-name="Trazado 141184" d="M4375.576-968.682l7.027-26.06,21.012,1.131-7.7,25.834Z" transform="translate(-4343.542 1012.863)" fill="#636363"/>
        <path id="Trazado_141185" data-name="Trazado 141185" d="M4350.258-961.206s10.3-2.638,13.155-2.089,4.068,2.528,3.518,3.078a2.616,2.616,0,0,1-1.759.44s-.549,5.167-2.528,5.936-16.636,3.335-16.636,3.335l-1.613-4.214Z" transform="translate(-4324.336 993.54)" fill="#ffbc96"/>
        <path id="Trazado_141186" data-name="Trazado 141186" d="M4318.093-1006.858l-4.256,10.7-13.649.106h-.043a7.978,7.978,0,0,1-7.467-5.154,8.005,8.005,0,0,1-.14-5.207l8-25.46c.036-.123.079-.246.123-.37a6.159,6.159,0,0,1,4.019-3.676l5.417-1.574-.062.4-4.556,29.637Z" transform="translate(-4292.169 1039.192)" fill="#dff7f9"/>
        <path id="Trazado_141187" data-name="Trazado 141187" d="M4364.188-1020.822a1.319,1.319,0,0,1-1.318-1.318,1.319,1.319,0,0,1,1.318-1.317,1.319,1.319,0,0,1,1.317,1.317A1.319,1.319,0,0,1,4364.188-1020.822Zm0-2.05a.733.733,0,0,0-.732.732.733.733,0,0,0,.732.732.733.733,0,0,0,.732-.732A.733.733,0,0,0,4364.188-1022.872Z" transform="translate(-4335.715 1030.549)" fill="#2a94ee"/>
        <path id="Trazado_141188" data-name="Trazado 141188" d="M4331.912-971.518l-10.72-.028,0-.586,10.321.027,4.031-10.136-12.554-.587,3.576-15.138.57.135-3.414,14.452,12.669.592Z" transform="translate(-4310.045 1014.849)" fill="#2a94ee"/>
        <path id="Trazado_141189" data-name="Trazado 141189" d="M4412.859-997.114l-.521,2.947,6.449.381.416-2.878Z" transform="translate(-4366.184 1014.324)" fill="#e8e8e8"/>
        <g id="Grupo_82739" data-name="Grupo 82739" transform="translate(36.504 32.724)">
          <path id="Trazado_141190" data-name="Trazado 141190" d="M4391.462-955.5l-1.725-.816-2.483.255-.04-.388,2.592-.266,1.823.863Z" transform="translate(-4387.214 956.721)" fill="#d28572"/>
          <rect id="Rectángulo_31711" data-name="Rectángulo 31711" width="0.391" height="2.332" transform="translate(1.776 2.418) rotate(-59.859)" fill="#d28572"/>
          <rect id="Rectángulo_31712" data-name="Rectángulo 31712" width="0.39" height="2.528" transform="matrix(0.528, -0.849, 0.849, 0.528, 0.893, 4.4)" fill="#d28572"/>
        </g>
        <g id="Grupo_82740" data-name="Grupo 82740" transform="translate(51.9 26.25)">
          <path id="Trazado_141191" data-name="Trazado 141191" d="M4429.83-961.776s-3.342-7.168-2.346-7.915c.586-.44,1.246.147,1.246.147s-.953-2.2-.22-2.565,1.245.44,1.245.44.074-1.686.661-1.686,1.246,1.026,1.246,1.026-.074-1.173.732-1.246,2.639,3.737,3,7.036c.341,3.067.22,8.428-6.376,7.768Z" transform="translate(-4427.299 973.576)" fill="#ffbc96"/>
          <rect id="Rectángulo_31713" data-name="Rectángulo 31713" width="0.39" height="3.449" transform="translate(1.249 4.1) rotate(-20.652)" fill="#d28572"/>
          <rect id="Rectángulo_31714" data-name="Rectángulo 31714" width="0.39" height="4.379" transform="matrix(0.93, -0.367, 0.367, 0.93, 2.291, 1.989)" fill="#d28572"/>
          <rect id="Rectángulo_31715" data-name="Rectángulo 31715" width="0.39" height="4.373" transform="translate(4.114 1.178) rotate(-22.477)" fill="#d28572"/>
        </g>
      </g>
      <g id="Grupo_82743" data-name="Grupo 82743" transform="translate(6.594 0)">
        <path id="Trazado_141192" data-name="Trazado 141192" d="M4359.427-1065.876l-11.126.39,1.561-16.7,6.921,4.292,1.917,1.187.475,6.631Z" transform="translate(-4333.335 1097.436)" fill="#ffbc96"/>
        <path id="Trazado_141193" data-name="Trazado 141193" d="M4363.934-1063.193c-5.118-.968-7.906-7.036-7.906-7.036l5.514-.783,1.917,1.188Z" transform="translate(-4338.095 1090.554)" fill="#d28572"/>
        <path id="Trazado_141194" data-name="Trazado 141194" d="M4362.848-1107.253s3.522,16.655-2.883,16.761-12.705-3.737-12.705-3.737l.16-8.968,3.9-3.736,6.3-2.029Z" transform="translate(-4332.694 1113.928)" fill="#ffbc96"/>
        <path id="Trazado_141195" data-name="Trazado 141195" d="M4340.626-1114.428a2.584,2.584,0,0,1-1.21,1.444c-1.625.758-3.568-.983-5.255-.367-1.671.617-1.819,2.99-3.163,4.161-1.265,1.093-3.193.812-4.817.406l1.156,2.351q-1.77,2.026-1.546,6.114a11.551,11.551,0,0,1-.859,6.192c-1.932,4.315-4.144,4.771-4.144,4.771l-5.53,1.453a6.173,6.173,0,0,0-4.021,3.677,11.87,11.87,0,0,1-1.444-2.467,5.309,5.309,0,0,1,.156-4.638,25.018,25.018,0,0,0,1.812-2.46c.812-1.851-.375-4.248.765-5.926a5.931,5.931,0,0,1,2.788-1.757c1.015-.445,2.1-1.125,2.311-2.209a4.2,4.2,0,0,0-1.031-2.9c-.578-.882-1.117-1.983-.7-2.943.633-1.437,2.741-1.343,3.951-2.343,1.132-.953,1.21-2.624,1.522-4.068a7.426,7.426,0,0,1,4.646-5.676c2.748-.859,5.7.437,8.05,2.085a2.554,2.554,0,0,0,.757.414,3.684,3.684,0,0,0,1.655-.187,3.775,3.775,0,0,1,3.5,1.226A3.773,3.773,0,0,1,4340.626-1114.428Z" transform="translate(-4309.337 1121.893)" fill="#1b1b43"/>
        <g id="Grupo_82742" data-name="Grupo 82742" transform="translate(13.812 10.905)">
          <ellipse id="Elipse_4714" data-name="Elipse 4714" cx="2.909" cy="3.283" rx="2.909" ry="3.283" transform="matrix(0.843, -0.538, 0.538, 0.843, 0, 3.131)" fill="#ffbc96"/>
        </g>
        <path id="Trazado_141196" data-name="Trazado 141196" d="M4349.451-1045.392l-3.592,4.982-6.348-4.373.117-.094a11.927,11.927,0,0,0,3.889-4.724Z" transform="translate(-4327.922 1077.366)" fill="#dff7f9"/>
        <path id="Trazado_141197" data-name="Trazado 141197" d="M4365.385-1046.046l4.324,4.837,4.08-4.34-4.08-5.114Z" transform="translate(-4343.858 1078.021)" fill="#dff7f9"/>
        <path id="Trazado_141198" data-name="Trazado 141198" d="M4345.257-1040.358l-6.834-4.7.332-.483,6.363,4.378,3.249-4.508-5.828-4.019.333-.482,6.32,4.358Z" transform="translate(-4327.251 1077.72)" fill="#2a94ee"/>
        <path id="Trazado_141199" data-name="Trazado 141199" d="M4369.067-1041.1l-4.715-5.275,4.507-4.813.427.4-4.14,4.422,3.932,4.4,3.8-4.042.427.4Z" transform="translate(-4343.222 1078.342)" fill="#2a94ee"/>
      </g>
    </g>
    <rect id="Rectángulo_31716" data-name="Rectángulo 31716" width="446.029" height="0.781" transform="translate(4036.164 -1077.646)" fill="#1b1b43"/>
  </g>
</svg>
