<svg xmlns="http://www.w3.org/2000/svg" width="92.312" height="92.312" viewBox="0 0 92.312 92.312">
  <g id="rival" transform="translate(0 0)">
    <g id="Grupo_82113" data-name="Grupo 82113" transform="translate(1.803 1.803)">
      <path id="Trazado_140351" data-name="Trazado 140351" d="M353.424,402l-3.606,18.03h-7.212L339,402Z" transform="translate(-279.682 -331.323)" fill="#eefaff"/>
      <path id="Trazado_140352" data-name="Trazado 140352" d="M313.424,102,299,116.424h7.212v9.965h14.424v-9.965h7.212Z" transform="translate(-246.894 -85.413)" fill="#d64626"/>
      <path id="Trazado_140353" data-name="Trazado 140353" d="M333.424,262,319,269.212v3.608a10.823,10.823,0,0,0,7.212,10.2v4.221l3.606,3.606,3.606-3.606v-4.221a10.826,10.826,0,0,0,7.212-10.2v-3.606Z" transform="translate(-263.288 -216.565)" fill="#fce8d0"/>
      <path id="Trazado_140354" data-name="Trazado 140354" d="M107.424,402l-3.606,18.03H96.606L93,402Z" transform="translate(-78.035 -331.323)" fill="#eefaff"/>
      <path id="Trazado_140355" data-name="Trazado 140355" d="M94.345,254.1,74.552,251.02A10.769,10.769,0,0,0,73,256.606v7.214a10.823,10.823,0,0,0,7.212,10.2v4.221l3.606,3.606,3.606-3.606v-4.221a10.826,10.826,0,0,0,7.212-10.2v-7.212A10.89,10.89,0,0,0,94.345,254.1Z" transform="translate(-61.641 -207.565)" fill="#e9baa1"/>
      <path id="Trazado_140356" data-name="Trazado 140356" d="M74.636,24.424h7.212L67.424,10,53,24.424h7.212V50.976l14.426-2.843v0l0-.009Z" transform="translate(-45.247 -10)" fill="#2a94ee"/>
      <path id="Trazado_140357" data-name="Trazado 140357" d="M399,420.03,402.606,402h4.147a10.817,10.817,0,0,1,10.818,10.818v7.212Z" transform="translate(-328.864 -331.323)" fill="#d64626"/>
      <path id="Trazado_140358" data-name="Trazado 140358" d="M340.636,232.818v3.606a7.212,7.212,0,0,1-7.212-7.212,13.048,13.048,0,0,1-11.669,7.212H319v-3.606a10.818,10.818,0,1,1,21.636,0Z" transform="translate(-263.288 -183.777)" fill="#ffda8f"/>
      <path id="Trazado_140359" data-name="Trazado 140359" d="M256,420.03v-7.212A10.817,10.817,0,0,1,266.818,402h4.147l3.606,18.03Z" transform="translate(-211.647 -331.323)" fill="#d64626"/>
      <path id="Trazado_140360" data-name="Trazado 140360" d="M153,420.03,156.606,402h4.147a10.817,10.817,0,0,1,10.818,10.818v7.212Z" transform="translate(-127.217 -331.323)" fill="#2a94ee"/>
      <path id="Trazado_140361" data-name="Trazado 140361" d="M105.3,202v3.606a10.815,10.815,0,0,1-10.818,10.818,17.936,17.936,0,0,1-12.871-5.586,10.809,10.809,0,0,1,9.265-5.232h5.719A12.307,12.307,0,0,0,105.3,202Z" transform="translate(-68.699 -167.383)" fill="#da8b63"/>
      <path id="Trazado_140362" data-name="Trazado 140362" d="M10,420.03v-7.212A10.817,10.817,0,0,1,20.818,402h4.147l3.606,18.03Z" transform="translate(-10 -331.323)" fill="#2a94ee"/>
    </g>
    <g id="Grupo_82114" data-name="Grupo 82114" transform="translate(0 0)">
      <path id="Trazado_140363" data-name="Trazado 140363" d="M1.8,92.313H90.509a1.8,1.8,0,0,0,1.8-1.8V83.3A12.635,12.635,0,0,0,79.691,70.677h-5.95V69.463a12.649,12.649,0,0,0,7.212-11.407V50.844a12.637,12.637,0,0,0-3.606-8.828v-7.4h5.409a1.8,1.8,0,0,0,1.275-3.078L69.608,17.116a1.8,1.8,0,0,0-2.55,0L52.634,31.539a1.8,1.8,0,0,0,1.275,3.078h5.409v7.4a12.637,12.637,0,0,0-3.606,8.828v7.214a12.647,12.647,0,0,0,7.212,11.4v1.214h-5.95A12.625,12.625,0,0,0,46.156,76.8a12.625,12.625,0,0,0-10.818-6.128h-5.95V69.463A12.649,12.649,0,0,0,36.6,58.056V50.844a12.735,12.735,0,0,0-.136-1.854,12.585,12.585,0,0,0,3.742-8.964V36.42a1.8,1.8,0,0,0-3.078-1.275,10.547,10.547,0,0,1-4.134,2.544V18.03H38.4a1.8,1.8,0,0,0,1.275-3.078L25.255.528a1.8,1.8,0,0,0-2.55,0L8.281,14.952A1.8,1.8,0,0,0,9.556,18.03h5.409v2.524a1.8,1.8,0,1,0,3.606,0V16.227a1.8,1.8,0,0,0-1.8-1.8H13.909L23.98,4.353,34.051,14.424H31.191a1.8,1.8,0,0,0-1.8,1.8v22H23.98a12.611,12.611,0,0,0-5.409,1.219V36.781a1.8,1.8,0,0,0-3.606,0v5.233a12.594,12.594,0,0,0-3.606,8.831v7.214a12.647,12.647,0,0,0,7.212,11.4v1.214h-5.95A12.635,12.635,0,0,0,0,83.3V90.51a1.8,1.8,0,0,0,1.8,1.8Zm75.22-18.03h2.669A9.025,9.025,0,0,1,88.706,83.3v5.409H85.1V83.3a1.8,1.8,0,0,0-3.606,0v5.409H74.138ZM70.461,88.707H66.2L63.32,74.283h.66l3.078,3.078a1.8,1.8,0,0,0,2.55,0l3.078-3.078h.66Zm-12.2-57.7L68.333,20.94,78.4,31.011H75.545a1.8,1.8,0,0,0-1.8,1.8v6.628a12.608,12.608,0,0,0-10.818,0V32.814a1.8,1.8,0,0,0-1.8-1.8Zm1.056,19.833a9.015,9.015,0,0,1,18.03,0v1.493a5.417,5.417,0,0,1-3.606-5.1,1.8,1.8,0,0,0-3.415-.806A11.184,11.184,0,0,1,60.27,52.647h-.952Zm0,7.214v-1.8h.952a14.763,14.763,0,0,0,10.924-4.78,9.046,9.046,0,0,0,6.154,4.6v1.985a9.033,9.033,0,0,1-6.01,8.5,1.8,1.8,0,0,0-1.2,1.7v3.474l-1.8,1.8-1.8-1.8V68.259a1.8,1.8,0,0,0-1.2-1.7,9.032,9.032,0,0,1-6.01-8.5ZM47.959,83.3a9.025,9.025,0,0,1,9.015-9.015h2.669l2.885,14.424H55.171V83.3a1.8,1.8,0,0,0-3.606,0v5.409H47.959ZM32.67,74.283h2.669A9.025,9.025,0,0,1,44.353,83.3v5.409H40.747V83.3a1.8,1.8,0,0,0-3.606,0v5.409H29.785ZM26.107,88.707H21.852L18.967,74.283h.66L22.7,77.361a1.8,1.8,0,0,0,2.55,0l3.078-3.078h.66ZM23.98,41.829H29.7a14.105,14.105,0,0,0,6.9-1.807v0a9.013,9.013,0,0,1-9.015,9.015A15.516,15.516,0,0,1,17.1,45.015,9,9,0,0,1,23.98,41.829ZM14.965,58.058V50.844a9.025,9.025,0,0,1,.383-2.6,19.093,19.093,0,0,0,12.238,4.4,12.643,12.643,0,0,0,5.409-1.22v6.629a9.033,9.033,0,0,1-6.01,8.5,1.8,1.8,0,0,0-1.2,1.7v3.474l-1.8,1.8-1.8-1.8V68.259a1.8,1.8,0,0,0-1.2-1.7,9.032,9.032,0,0,1-6.01-8.5ZM3.606,83.3a9.025,9.025,0,0,1,9.015-9.015H15.29l2.885,14.424H10.818V83.3a1.8,1.8,0,0,0-3.606,0v5.409H3.606Z" transform="translate(0 0)"/>
      <circle id="Elipse_4585" data-name="Elipse 4585" cx="1.805" cy="1.805" r="1.805" transform="translate(15.645 27.325)"/>
    </g>
  </g>
</svg>
