<svg xmlns="http://www.w3.org/2000/svg" width="163.5" height="163.42" viewBox="0 0 163.5 163.42">
  <g id="Page-1" transform="translate(0 -0.029)">
    <g id="_018---Shoes" data-name="018---Shoes" transform="translate(0 0.029)">
      <g id="Icons" transform="translate(2.725 2.652)">
        <path id="Shape" d="M94.95,56.8V75.875H35c17.222-6.458,31.038-12.916,36.079-15.342a3.6,3.6,0,0,0,2.071-3.27v-.082a3.676,3.676,0,0,0-2.97-3.6c-6.785-1.308-23.3-5.75-29.73-18.584a71.362,71.362,0,0,0,28.2,2.834,87.871,87.871,0,0,1,10.328-.327,5.45,5.45,0,0,1,5.068,5.45V45.9a5.485,5.485,0,0,0,2.18,4.36Z" transform="translate(60.375 60.368)" fill="#20287a"/>
        <path id="Shape-2" data-name="Shape" d="M73.646,32.45V70.6l-8.72-6.54a5.485,5.485,0,0,1-2.18-4.36V56.757a5.45,5.45,0,0,0-5.068-5.45,87.877,87.877,0,0,0-10.328.327,39.322,39.322,0,0,0,12.1-20.465A5.475,5.475,0,0,1,64.735,27H68.2a5.466,5.466,0,0,1,5.45,5.45Z" transform="translate(81.679 46.568)" fill="#fff"/>
        <path id="Shape-3" data-name="Shape" d="M65.959,71.483v0Z" transform="translate(89.366 45.685)" fill="#c81e1e"/>
        <path id="Shape-4" data-name="Shape" d="M49.5,35.951c-.545-.035-1.158-.044-1.755-.049-.134.12-.272.259-.4.376l3-.188A5.372,5.372,0,0,0,49.5,35.951Z" transform="translate(81.679 61.924)" fill="#c81e1e"/>
        <path id="Shape-5" data-name="Shape" d="M158.05,56.175v5.45A13.625,13.625,0,0,1,144.425,75.25H24.525S0,75.25,0,48c0,0,21.8,13.625,35.425,13.625H54.5a90.527,90.527,0,0,0,24.716-3.052c2.452-.627,5.1-1.363,7.957-2.262,2.235-.708,4.578-1.526,7.085-2.452.354-.136.736-.272,1.117-.409h59.95A2.725,2.725,0,0,1,158.05,56.175Z" transform="translate(0 82.793)" fill="#ffe0b2"/>
        <path id="Shape-6" data-name="Shape" d="M69.075,50H60.9a2.725,2.725,0,0,1,2.725,2.725v5.45A13.625,13.625,0,0,1,50,71.8h8.175A13.625,13.625,0,0,0,71.8,58.175v-5.45A2.725,2.725,0,0,0,69.075,50Z" transform="translate(86.25 86.243)" fill="#dfc49c"/>
        <path id="Shape-7" data-name="Shape" d="M79.216,67.457A90.527,90.527,0,0,1,54.5,70.509H35.425C21.8,70.509,0,56.884,0,56.884a14.271,14.271,0,0,1,.245-2.725c2.016-10.9,16.1-10.9,16.1-10.9,1.444-.082,2.888-.218,4.305-.409H44.717a30.983,30.983,0,0,1,4.959.545A39.785,39.785,0,0,1,79.216,67.457Z" transform="translate(0 73.91)" fill="#d2e1f1"/>
        <path id="Shape-8" data-name="Shape" d="M120.449,73.4v.082a3.6,3.6,0,0,1-2.071,3.27c-5.041,2.425-18.857,8.883-36.079,15.342-.381.136-.763.272-1.117.409-2.507.926-4.85,1.744-7.085,2.452-2.861.9-5.5,1.635-7.957,2.262A39.785,39.785,0,0,0,36.6,73.154a30.982,30.982,0,0,0-4.959-.545H7.58c1.826-.245,3.651-.545,5.45-.926,1.88-.381,3.733-.872,5.586-1.39C47.883,61.818,71.4,36.857,79.384,27.537a6.183,6.183,0,0,1,1.281-1.117,5.376,5.376,0,0,1,5.668-.027l1.308.79,4.2,2.507A5.431,5.431,0,0,1,94.044,36.5L87.749,51.217a24.4,24.4,0,0,0,2.589,4.115c7.521,9.7,21.146,13.325,27.141,14.47a3.676,3.676,0,0,1,2.97,3.6Z" transform="translate(13.076 44.151)" fill="#2a94ee"/>
        <path id="Shape-9" data-name="Shape" d="M90.4,26.3,61.11,55.591,59.8,54.8a5.376,5.376,0,0,0-5.668.027c4.224-10.546,7.221-18.775,8.529-22.481a3.6,3.6,0,0,0-.845-3.788l-.054-.055a3.638,3.638,0,0,0-4.633-.436c-5.722,3.869-20.546,12.4-34.171,7.875A71.444,71.444,0,0,0,44.9,17.986a99.969,99.969,0,0,1,7.085-7.521,5.45,5.45,0,0,1,7.439.273l2.071,2.071a5.45,5.45,0,0,0,4.633,1.553l10.791-1.553L88.469,24.39Z" transform="translate(39.606 15.743)" fill="#20287a"/>
        <path id="Shape-10" data-name="Shape" d="M67.271,28.554,56.48,30.107a5.45,5.45,0,0,1-4.632-1.553l-2.071-2.071a5.45,5.45,0,0,0-7.439-.272,99.965,99.965,0,0,0-7.085,7.521,39.215,39.215,0,0,0-5.913-23,5.515,5.515,0,0,1,.79-6.7l2.453-2.452a5.51,5.51,0,0,1,7.712,0Z" transform="translate(49.25 -0.002)" fill="#fff"/>
        <path id="Shape-11" data-name="Shape" d="M73.965,39.067,39.658,73.375a24.4,24.4,0,0,1-2.589-4.115l6.295-14.715a5.431,5.431,0,0,0-2.207-6.812l-4.2-2.507L66.254,15.932a2.725,2.725,0,0,1,3.842,0L73.965,19.8a13.625,13.625,0,0,1,0,19.266Z" transform="translate(63.756 26.109)" fill="#dfc49c"/>
        <path id="Shape-12" data-name="Shape" d="M85.744,26.95c-1.308,3.706-4.305,11.935-8.529,22.481a6.183,6.183,0,0,0-1.281,1.117c-7.984,9.319-31.5,34.28-60.767,42.755-1.853.518-3.706,1.008-5.586,1.39A97.887,97.887,0,0,0,20.562,65.345v-.027a133.148,133.148,0,0,0,2.207-13.543c.49-4.142.763-8.093.926-11.8.164-4.251.191-8.175.109-11.581-.082-3.515-.245-6.458-.436-8.693a5.45,5.45,0,0,1,4.115-5.722L33.7,12.426a5.42,5.42,0,0,1,6.376,3.27L46.04,30.547c13.625,4.523,28.449-4.006,34.171-7.875a3.638,3.638,0,0,1,4.632.436l.054.055a3.6,3.6,0,0,1,.845,3.788Z" transform="translate(16.526 21.14)" fill="#2a94ee"/>
      </g>
      <g id="Icons_copy">
        <path id="Shape-13" data-name="Shape" d="M160.775,92.854V37.6a8.175,8.175,0,0,0-8.175-8.175h-3.461a8.175,8.175,0,0,0-7.932,6.243A36.668,36.668,0,0,1,130.6,54.115a70.411,70.411,0,0,1-23.331-1.924l5.074-11.87a8.175,8.175,0,0,0-3.3-10.249l-5.488-3.281a8.088,8.088,0,0,0-10.434,1.7c-1.15,1.343-2.586,2.959-4.243,4.744l-5.722-3.428a2.725,2.725,0,1,0-2.807,4.671L85,37.275Q83,39.286,80.731,41.439l-5.755-3.453a2.725,2.725,0,1,0-2.807,4.671l4.36,2.611Q74.305,47.224,71.9,49.2l-5.074-3.044a2.725,2.725,0,1,0-2.807,4.671l3.292,1.976c-2.049,1.54-4.194,3.047-6.406,4.515l-4.979-3A2.725,2.725,0,1,0,53.116,59l2.616,1.57a95.118,95.118,0,0,1-22.056,9.829,68.278,68.278,0,0,1-14.6,2.627c-5.657,0-16.862,2.744-18.783,13.113A17.091,17.091,0,0,0,0,89.371C0,119,26.978,119.346,27.25,119.346h119.9A16.366,16.366,0,0,0,163.5,103v-5.45A5.431,5.431,0,0,0,160.775,92.854ZM146.5,36.97a2.763,2.763,0,0,1,2.641-2.1H152.6a2.725,2.725,0,0,1,2.725,2.725V70.3l-4.36-3.27a2.744,2.744,0,0,1-1.09-2.18V61.9a8.175,8.175,0,0,0-7.611-8.153c-1.224-.079-2.512-.079-3.869-.044a42.968,42.968,0,0,0,8.1-16.734ZM133.471,59.4a72.626,72.626,0,0,1,8.447-.218,2.725,2.725,0,0,1,2.518,2.725v2.943a8.221,8.221,0,0,0,3.27,6.54l7.619,5.723V92.1h-42.87c10.824-4.458,19.151-8.355,22.89-10.151a6.426,6.426,0,0,0-1.54-12.091c-5.218-1.006-16.475-3.959-23.658-11.38a86.838,86.838,0,0,0,23.323.921ZM69.528,62.5l-3.491-2.1c2.18-1.5,4.248-3.049,6.267-4.605L77.633,59a2.725,2.725,0,0,0,2.807-4.671l-3.6-2.164c1.591-1.33,3.139-2.657,4.6-3.965l4.374,2.624a2.725,2.725,0,0,0,2.807-4.671l-3.049-1.809q2.267-2.18,4.224-4.188l4.172,2.5a2.725,2.725,0,0,0,2.807-4.671L93.631,36.1c1.39-1.515,2.616-2.9,3.627-4.087a2.679,2.679,0,0,1,3.466-.545l5.491,3.292a2.725,2.725,0,0,1,1.115,3.409l-6.295,14.715a2.725,2.725,0,0,0,.068,2.292c6.979,13.925,24.46,18.653,31.61,20.031a.973.973,0,0,1,.812,1,.883.883,0,0,1-.526.817c-5.118,2.452-18.857,8.873-35.815,15.23-.4.142-.8.272-1.164.425-2.453.91-4.758,1.711-6.946,2.406-1.967.624-3.815,1.172-5.594,1.654A42.218,42.218,0,0,0,52.884,73.2a33.988,33.988,0,0,0-5.45-.586H43.758A110.5,110.5,0,0,0,61,63.756l5.722,3.431a2.725,2.725,0,0,0,2.807-4.671ZM5.649,87.142c1.575-8.513,12.949-8.671,13.6-8.671,1.4-.087,2.815-.226,4.232-.4H47.437a29.158,29.158,0,0,1,4.488.5A36.708,36.708,0,0,1,78.011,98.091a86.516,86.516,0,0,1-20.786,2.18H38.15c-10.807,0-27.724-9.5-32.615-12.388.03-.253.068-.5.114-.741ZM158.05,103a10.9,10.9,0,0,1-10.9,10.9H27.25A21.735,21.735,0,0,1,5.807,94.328C13.1,98.4,27.643,105.721,38.15,105.721H57.225a99.936,99.936,0,0,0,33.5-5.45c2.273-.719,4.657-1.551,7.208-2.493l.03-.014.624-.218H158.05Z" transform="translate(0 44.074)"/>
        <path id="Shape-14" data-name="Shape" d="M46.725,59.45h27.25a2.725,2.725,0,1,0,0-5.45H46.725a2.725,2.725,0,1,0,0,5.45Z" transform="translate(75.9 93.07)"/>
        <path id="Shape-15" data-name="Shape" d="M45.625,40.886a2.706,2.706,0,0,0,1.927-.8L62.585,25.057A2.725,2.725,0,1,0,58.732,21.2L43.7,36.235a2.725,2.725,0,0,0,1.927,4.652Z" transform="translate(74.003 35.061)"/>
        <path id="Shape-16" data-name="Shape" d="M13.006,88.329a2.725,2.725,0,0,0,.659,5.368,2.766,2.766,0,0,0,.662-.079L17.21,92.9a105.092,105.092,0,0,1-3.542,11.595,2.725,2.725,0,0,0,5.093,1.94A111.968,111.968,0,0,0,23.205,91.4l6.54-1.635a2.725,2.725,0,0,0-1.319-5.286l-4,1c.455-2.5.856-5.058,1.185-7.685l6.066-1.518a2.725,2.725,0,0,0-1.319-5.287l-4.109,1.027c.177-1.943.322-3.965.436-6.052l4.992-1.248a2.726,2.726,0,1,0-1.319-5.289l-3.461.864q.068-3.079.038-5.951l4.741-1.185a2.726,2.726,0,1,0-1.319-5.289l-3.542.888c-.084-1.992-.193-3.85-.33-5.45a2.725,2.725,0,0,1,2.063-2.856L34.74,38.9a2.725,2.725,0,0,1,3.2,1.635L43.91,55.384a2.725,2.725,0,0,0,1.67,1.57c14.8,4.9,30.49-4.087,36.561-8.2a.932.932,0,0,1,1.229.161.9.9,0,0,1,.2.959c-.76,2.18-2.115,5.905-3.954,10.753a2.725,2.725,0,1,0,5.093,1.935c1.864-4.9,3.235-8.69,3.989-10.848a6.415,6.415,0,0,0-9.619-7.472c-4.4,2.976-14.459,8.851-24.8,8.676A87.047,87.047,0,0,0,71.452,37.064a71.334,71.334,0,0,1,5.807-6.12,2.725,2.725,0,0,1,3.7.139l2.085,2.085a8.208,8.208,0,0,0,6.932,2.311l9.442-1.362,10.6,10.6-19.4,19.4a2.725,2.725,0,0,0,3.853,3.853l21.326-21.337,3.869,3.869a10.9,10.9,0,0,1,0,15.413l-21.2,21.2a2.725,2.725,0,1,0,3.853,3.853l21.2-21.2a16.35,16.35,0,0,0,0-23.119l-3.867-3.867a5.529,5.529,0,0,0-5.216-1.362l-.561-.561L75.313,2.337a8.393,8.393,0,0,0-11.559,0L61.3,4.789a8.175,8.175,0,0,0-1.2,10.025,36.668,36.668,0,0,1,5.548,20.546A70.422,70.422,0,0,1,47.79,50.5l-4.81-11.965A8.175,8.175,0,0,0,33.4,33.6l-6.218,1.553a8.153,8.153,0,0,0-6.161,8.6c.155,1.831.273,3.995.36,6.347l-6.469,1.621a2.725,2.725,0,0,0,.659,5.368,2.637,2.637,0,0,0,.662-.082L21.467,55.7q0,2.886-.079,5.965l-6.475,1.619a2.725,2.725,0,0,0,.659,5.368,2.638,2.638,0,0,0,.662-.082l4.88-1.221q-.2,3.134-.507,6.071l-5.7,1.422a2.725,2.725,0,0,0,.659,5.371,2.771,2.771,0,0,0,.662-.082l3.654-.913c-.373,2.651-.817,5.229-1.313,7.714ZM64.781,11.988a2.766,2.766,0,0,1,.384-3.349l2.453-2.452a2.8,2.8,0,0,1,3.853,0L94.595,29.309l-5.4.771a2.725,2.725,0,0,1-2.308-.771L84.8,27.224a8.175,8.175,0,0,0-11.148-.382c-.921.818-1.834,1.722-2.766,2.706a42.9,42.9,0,0,0-6.109-17.56Z" transform="translate(18.877 -0.029)"/>
      </g>
    </g>
  </g>
</svg>
