<svg xmlns="http://www.w3.org/2000/svg" width="1030" height="728.061" viewBox="0 0 1030 728.061">
  <g id="Grupo_83322" data-name="Grupo 83322" transform="translate(-285 -3138.855)">
    <g id="Grupo_82756" data-name="Grupo 82756" transform="translate(-53 846.785)">
      <path id="Trazado_141249" data-name="Trazado 141249" d="M383.126-962.644H1411.675v148.854H383.126V-962.644Z" transform="translate(-45.125 3833.922)" fill="#e8e8e8" fill-rule="evenodd"/>
      <rect id="Rectángulo_31769" data-name="Rectángulo 31769" width="1029.274" height="66.669" transform="translate(338 2871.352)" fill="#97181a"/>
      <path id="Trazado_141250" data-name="Trazado 141250" d="M1119.742-962.644H996.548v88.175l61.593,60.589,61.6-60.589v-88.175Z" transform="translate(-205.035 3390.215)" fill="#d64626" stroke="#cb3921" stroke-linecap="round" stroke-width="1" fill-rule="evenodd"/>
      <path id="Trazado_141254" data-name="Trazado 141254" d="M1119.742-962.644H996.548v88.175l61.593,60.589,61.6-60.589v-88.175Z" transform="translate(-205.035 3668.422)" fill="#d64626" fill-rule="evenodd"/>
      <path id="flecha-correcta" d="M43.2,2.311A7.889,7.889,0,0,0,32.045,13.468L43.018,24.445H7.524a7.524,7.524,0,0,0,0,15.049H43.018L32.045,50.467A7.889,7.889,0,0,0,43.2,61.624L71.795,33.031a1.5,1.5,0,0,0,0-2.128Z" transform="translate(885.492 2472.953) rotate(90)" fill="#fff"/>
      <path id="flecha-correcta-2" data-name="flecha-correcta" d="M43.2,2.311A7.889,7.889,0,0,0,32.045,13.468L43.018,24.445H7.524a7.524,7.524,0,0,0,0,15.049H43.018L32.045,50.467A7.889,7.889,0,0,0,43.2,61.624L71.795,33.031a1.5,1.5,0,0,0,0-2.128Z" transform="translate(885.492 2751.16) rotate(90)" fill="#fff"/>
      <text id="Entorno_de_marketing" data-name="Entorno de marketing" transform="translate(736.424 2910.279)" fill="#fff" font-size="24" font-family="Roboto-Bold, Roboto" font-weight="700"><tspan x="0" y="0">Entorno de marketing</tspan></text>
      <path id="Trazado_141245" data-name="Trazado 141245" d="M1412.4-962.644H383.125v148.855H1412.4V-962.644Z" transform="translate(-45.126 3278.715)" fill="#e8e8e8" fill-rule="evenodd"/>
      <rect id="Rectángulo_31767" data-name="Rectángulo 31767" width="1030" height="90.744" transform="translate(1368 2382.814) rotate(-180)" fill="#97181a"/>
      <text id="Obtención_de_conocimientos_sobre_el_cliente_y_el_mercado_a_partir_de_la_información_de_marketing" data-name="Obtención de conocimientos sobre el cliente y
el mercado a partir de la información de marketing" transform="translate(852.361 2331.07)" fill="#fff" font-size="24" font-family="Roboto-Bold, Roboto" font-weight="700"><tspan x="-248.549" y="0">Obtención de conocimientos sobre el cliente y</tspan><tspan x="-272.889" y="28">el mercado a partir de la información de marketing</tspan></text>
      <text id="Evaluación_necesidades" data-name="Evaluación necesidades" transform="translate(429 2428.07)" fill="#12263f" font-size="16" font-family="Roboto-Regular, Roboto"><tspan x="0" y="0">Evaluación necesidades</tspan></text>
      <text id="Análisis_y_uso_de_la_información" data-name="Análisis y uso de la información" transform="translate(1020 2428.07)" fill="#12263f" font-size="16" font-family="Roboto-Regular, Roboto"><tspan x="0" y="0">Análisis y uso de la información</tspan></text>
      <path id="Trazado_141251" data-name="Trazado 141251" d="M0,0V46.582" transform="translate(853 2399.57)" fill="none" stroke="#cfcfcf" stroke-width="2"/>
      <path id="Trazado_141247" data-name="Trazado 141247" d="M383.126-962.644h1030v148.854h-1030V-962.644Z" transform="translate(-45.126 3555.715)" fill="#e8e8e8" fill-rule="evenodd"/>
      <rect id="Rectángulo_31768" data-name="Rectángulo 31768" width="1030" height="66.669" transform="translate(338 2593.145)" fill="#97181a"/>
      <text id="Bases_de_datos_internas" data-name="Bases de datos internas" transform="translate(407 2705.986)" fill="#12263f" font-size="16" font-family="Roboto-Regular, Roboto"><tspan x="0" y="0">Bases de datos internas</tspan></text>
      <text id="Mercado_meta" data-name="Mercado meta" transform="translate(379 2987.396)" fill="#12263f" font-size="16" font-family="Roboto-Regular, Roboto"><tspan x="0" y="0">Mercado meta</tspan></text>
      <text id="Inteligencia_de_mercado" data-name="Inteligencia de mercado" transform="translate(768.57 2705.986)" fill="#12263f" font-size="16" font-family="Roboto-Regular, Roboto"><tspan x="0" y="0">Inteligencia de mercado</tspan></text>
      <text id="Canales" transform="translate(617.121 2987.396)" fill="#12263f" font-size="16" font-family="Roboto-Regular, Roboto"><tspan x="0" y="0">Canales</tspan></text>
      <text id="Competencia" transform="translate(806.063 2987.396)" fill="#12263f" font-size="16" font-family="Roboto-Regular, Roboto"><tspan x="0" y="0">Competencia</tspan></text>
      <text id="Investigación_de_mercados" data-name="Investigación de mercados" transform="translate(1119 2705.986)" fill="#12263f" font-size="16" font-family="Roboto-Regular, Roboto"><tspan x="0" y="0">Investigación de mercados</tspan></text>
      <text id="Públicos" transform="translate(1029.983 2987.396)" fill="#12263f" font-size="16" font-family="Roboto-Regular, Roboto"><tspan x="0" y="0">Públicos</tspan></text>
      <text id="Macroentorno" transform="translate(1225.5 2987.396)" fill="#12263f" font-size="16" font-family="Roboto-Regular, Roboto"><tspan x="0" y="0">Macroentorno</tspan></text>
      <text id="Desarrollo_de_la_información" data-name="Desarrollo de la información" transform="translate(700.5 2633.07)" fill="#fff" font-size="24" font-family="Roboto-Bold, Roboto" font-weight="700"><tspan x="0" y="0">Desarrollo de la información</tspan></text>
      <path id="Trazado_141252" data-name="Trazado 141252" d="M0,0V46.582" transform="translate(1022.811 2682.486)" fill="none" stroke="#cfcfcf" stroke-width="2"/>
      <path id="Trazado_141256" data-name="Trazado 141256" d="M0,0V46.582" transform="translate(956 2954.695)" fill="none" stroke="#cfcfcf" stroke-width="2"/>
      <path id="Trazado_141258" data-name="Trazado 141258" d="M0,0V46.582" transform="translate(1183 2954.695)" fill="none" stroke="#cfcfcf" stroke-width="2"/>
      <path id="Trazado_141253" data-name="Trazado 141253" d="M0,0V46.582" transform="translate(682.076 2677.486)" fill="none" stroke="#cfcfcf" stroke-width="2"/>
      <path id="Trazado_141255" data-name="Trazado 141255" d="M0,0V46.582" transform="translate(750 2954.695)" fill="none" stroke="#cfcfcf" stroke-width="2"/>
      <path id="Trazado_141257" data-name="Trazado 141257" d="M0,0V46.582" transform="translate(544 2954.695)" fill="none" stroke="#cfcfcf" stroke-width="2"/>
    </g>
  </g>
</svg>
