<svg xmlns="http://www.w3.org/2000/svg" width="163.196" height="163.195" viewBox="0 0 163.196 163.195">
  <g id="chip" transform="translate(0 -0.001)">
    <path id="Trazado_140118" data-name="Trazado 140118" d="M202.19,212.411H145.978a10.22,10.22,0,0,1-10.22-10.22V145.979a10.22,10.22,0,0,1,10.22-10.22H202.19a10.22,10.22,0,0,1,10.22,10.22v56.212A10.221,10.221,0,0,1,202.19,212.411Z" transform="translate(-92.486 -92.486)" fill="#2a94ee"/>
    <path id="Trazado_140119" data-name="Trazado 140119" d="M218.573,221.13H162.362a2.555,2.555,0,0,1-2.555-2.555V162.363a2.555,2.555,0,0,1,2.555-2.555h56.212a2.555,2.555,0,0,1,2.555,2.555v56.212A2.555,2.555,0,0,1,218.573,221.13Z" transform="translate(-108.87 -108.87)" fill="#dff7f9"/>
    <g id="Grupo_82060" data-name="Grupo 82060" transform="translate(7.502 56.048)">
      <circle id="Elipse_4567" data-name="Elipse 4567" cx="5.109" cy="5.109" r="5.109" fill="#d64626"/>
      <circle id="Elipse_4568" data-name="Elipse 4568" cx="5.109" cy="5.109" r="5.109" transform="translate(137.975 40.882)" fill="#d64626"/>
    </g>
    <g id="Grupo_82061" data-name="Grupo 82061" transform="translate(2.391 33.054)">
      <circle id="Elipse_4569" data-name="Elipse 4569" cx="5.109" cy="5.109" r="5.109" transform="translate(0 86.87)" fill="#2a94ee"/>
      <circle id="Elipse_4570" data-name="Elipse 4570" cx="5.109" cy="5.109" r="5.109" transform="translate(148.195)" fill="#2a94ee"/>
    </g>
    <g id="Grupo_82062" data-name="Grupo 82062" transform="translate(56.047 7.503)">
      <path id="Trazado_140124" data-name="Trazado 140124" d="M5.109,0A5.109,5.109,0,1,1,0,5.109,5.109,5.109,0,0,1,5.109,0Z" transform="translate(40.882)" fill="#d64626"/>
      <circle id="Elipse_4572" data-name="Elipse 4572" cx="5.109" cy="5.109" r="5.109" transform="translate(0 137.975)" fill="#d64626"/>
    </g>
    <g id="Grupo_82063" data-name="Grupo 82063" transform="translate(33.053 2.392)">
      <circle id="Elipse_4573" data-name="Elipse 4573" cx="5.109" cy="5.109" r="5.109" fill="#2a94ee"/>
      <circle id="Elipse_4574" data-name="Elipse 4574" cx="5.109" cy="5.109" r="5.109" transform="translate(86.87 148.195)" fill="#2a94ee"/>
    </g>
    <path id="Trazado_140120" data-name="Trazado 140120" d="M206.851,223.144a2.555,2.555,0,0,1,1.906.853,8.979,8.979,0,0,0,6.717,2.944c4.471,0,8.227-3.13,8.549-7.125a2.559,2.559,0,0,1,1.26-2,8.848,8.848,0,0,0,4.564-7.482,8.345,8.345,0,0,0-2.518-5.867,2.556,2.556,0,0,1,0-3.6A8.346,8.346,0,0,0,229.847,195c0-3.859-2.817-7.26-7.009-8.464a2.556,2.556,0,0,1-1.784-3.03,5.692,5.692,0,0,0,.17-1.281c0-3.522-3.224-6.388-7.186-6.388A7.6,7.6,0,0,0,208.663,178a2.633,2.633,0,0,1-3.623,0,7.6,7.6,0,0,0-5.375-2.159c-3.962,0-7.186,2.866-7.186,6.388a5.935,5.935,0,0,0,.137,1.259,2.554,2.554,0,0,1-1.789,3.005c-4.169,1.2-6.971,4.621-6.971,8.511a8.115,8.115,0,0,0,1.934,5.19,2.556,2.556,0,0,1,.062,3.168,9.42,9.42,0,0,0-2,5.7,9.945,9.945,0,0,0,4.621,8.174,2.557,2.557,0,0,1,1.138,2.1c.035,4.194,3.9,7.606,8.613,7.606A8.979,8.979,0,0,0,204.945,224,2.553,2.553,0,0,1,206.851,223.144Z" transform="translate(-125.254 -119.792)" fill="#fed947"/>
    <path id="Trazado_140121" data-name="Trazado 140121" d="M226.346,79.208H187.855V73.769H198.24a2.391,2.391,0,1,0,0-4.781H187.855V63.549h7.21a9.989,9.989,0,0,0,7.11-2.945L217.9,44.881a7.5,7.5,0,1,0-3.381-3.381L198.795,57.223a5.241,5.241,0,0,1-3.73,1.545h-7.21V53.493a12.625,12.625,0,0,0-12.611-12.611H169.97V19.72a7.5,7.5,0,1,0-4.781,0V40.882H159.75V30.5a2.391,2.391,0,1,0-4.781,0V40.882h-5.439V2.392a2.391,2.391,0,1,0-4.781,0V40.882h-5.439V30.5a2.391,2.391,0,0,0-4.781,0V40.882h-5.439v-7.21a9.989,9.989,0,0,0-2.945-7.11L110.416,10.834a7.5,7.5,0,1,0-3.381,3.381l15.728,15.728a5.239,5.239,0,0,1,1.545,3.73v7.21h-5.275a12.664,12.664,0,0,0-3.152.4,2.391,2.391,0,0,0,1.192,4.63,7.873,7.873,0,0,1,1.96-.247h56.211a7.838,7.838,0,0,1,7.83,7.83V109.7a7.874,7.874,0,0,1-.246,1.958,2.39,2.39,0,1,0,4.63,1.19,12.653,12.653,0,0,0,.4-3.149v-5.275h21.162a7.5,7.5,0,1,0,0-4.781H187.855V94.209H198.24a2.391,2.391,0,1,0,0-4.781H187.855V83.989h38.491a2.391,2.391,0,1,0,0-4.781ZM219.313,36.24a2.719,2.719,0,1,1,0,3.846h0a2.719,2.719,0,0,1,0-3.846ZM167.579,9.892a2.719,2.719,0,1,1-2.719,2.719A2.723,2.723,0,0,1,167.579,9.892Zm-65.8-.467a2.72,2.72,0,1,1,3.846,0h0A2.723,2.723,0,0,1,101.779,9.425ZM216.126,99.32a2.72,2.72,0,1,1-2.719,2.719A2.723,2.723,0,0,1,216.126,99.32Z" transform="translate(-65.541)"/>
    <path id="Trazado_140122" data-name="Trazado 140122" d="M121.7,252.742l-15.728-15.728a5.239,5.239,0,0,1-1.545-3.73v-7.21H109.7a12.658,12.658,0,0,0,3.151-.4,2.391,2.391,0,1,0-1.192-4.63,7.87,7.87,0,0,1-1.959.246H53.492a7.838,7.838,0,0,1-7.83-7.83V157.252a7.864,7.864,0,0,1,.246-1.959,2.391,2.391,0,0,0-4.63-1.192,12.638,12.638,0,0,0-.4,3.151v5.275H19.719a7.5,7.5,0,1,0,0,4.781H40.881v5.439H30.5a2.391,2.391,0,1,0,0,4.781H40.881v5.439H2.391a2.391,2.391,0,0,0,0,4.781H40.881v5.439H30.5a2.391,2.391,0,0,0,0,4.781H40.881v5.439h-7.21a9.989,9.989,0,0,0-7.11,2.945L10.838,222.075a7.494,7.494,0,1,0,3.382,3.381l15.722-15.722a5.241,5.241,0,0,1,3.73-1.545h7.21v5.275a12.625,12.625,0,0,0,12.611,12.611h5.275v21.162a7.5,7.5,0,1,0,4.781,0V226.074h5.439v10.385a2.391,2.391,0,1,0,4.781,0V226.074h5.439v38.491a2.391,2.391,0,1,0,4.781,0V226.075h5.439V236.46a2.391,2.391,0,1,0,4.781,0V226.075h5.439v7.21a9.989,9.989,0,0,0,2.945,7.11l15.728,15.728a7.5,7.5,0,1,0,3.381-3.381Zm-109.091-85.1a2.719,2.719,0,1,1,2.719-2.719A2.723,2.723,0,0,1,12.611,167.637Zm-3.187,63.08a2.719,2.719,0,1,1,0-3.846h0a2.719,2.719,0,0,1,0,3.846Zm51.734,26.347a2.719,2.719,0,1,1,2.719-2.719A2.723,2.723,0,0,1,61.157,257.065Zm65.8,4.314a2.718,2.718,0,1,1,0-3.846A2.723,2.723,0,0,1,126.957,261.378Z" transform="translate(0 -103.759)"/>
    <path id="Trazado_140123" data-name="Trazado 140123" d="M182.105,214.161v.006c0,5.545,4.941,10.056,11.014,10.056a11.406,11.406,0,0,0,8.623-3.811,11.406,11.406,0,0,0,8.623,3.811c5.845,0,10.638-4.179,10.991-9.435a11.174,11.174,0,0,0,5.772-9.563,10.775,10.775,0,0,0-3.324-7.665,10.777,10.777,0,0,0,3.324-7.665c0-5.113-3.739-9.443-8.859-10.851a8.161,8.161,0,0,0,.236-1.925c0-4.84-4.3-8.778-9.577-8.778a9.944,9.944,0,0,0-7.186,2.985,9.945,9.945,0,0,0-7.186-2.985c-5.281,0-9.577,3.938-9.577,8.778a8.161,8.161,0,0,0,.236,1.925c-5.119,1.407-8.859,5.738-8.859,10.851a10.5,10.5,0,0,0,2.518,6.8,11.821,11.821,0,0,0-2.518,7.25A12.311,12.311,0,0,0,182.105,214.161Zm6.643-30.818c.021,0,.043,0,.064,0a2.388,2.388,0,0,0,2.028-3.649c-.018-.029-.035-.059-.054-.088s-.022-.028-.032-.042c-.037-.052-.075-.1-.116-.152l0,0a3.549,3.549,0,0,1-.875-2.293c0-2.2,2.151-4,4.8-4s4.8,1.793,4.8,4a2.391,2.391,0,1,0,4.781,0c0-2.2,2.151-4,4.8-4s4.8,1.793,4.8,4a3.362,3.362,0,0,1-.359,1.5,13.275,13.275,0,0,0-3.923.984,2.391,2.391,0,0,0,1.858,4.406,8.63,8.63,0,0,1,3.3-.669l.069,0c.021,0,.042,0,.064,0,4.2.027,7.611,2.955,7.611,6.551a6.378,6.378,0,0,1-3.679,5.551,2.39,2.39,0,0,0,0,4.228,6.378,6.378,0,0,1,3.679,5.551,6.115,6.115,0,0,1-2.106,4.495,10.732,10.732,0,0,0-6.285-5.061,2.391,2.391,0,0,0-1.433,4.561,5.423,5.423,0,0,1,4.075,4.948c0,2.909-2.8,5.275-6.233,5.275s-6.233-2.366-6.233-5.275v-15.33c0-2.909,2.8-5.275,6.233-5.275a2.391,2.391,0,1,0,0-4.781,11.687,11.687,0,0,0-6.233,1.771V187.5a2.391,2.391,0,1,0-4.781,0V200.77a11.388,11.388,0,0,0-2.641-1.223,2.391,2.391,0,0,0-1.433,4.561,5.423,5.423,0,0,1,4.074,4.948v5.11c0,2.909-2.8,5.275-6.233,5.275s-6.233-2.366-6.233-5.275a4.819,4.819,0,0,1,1.488-3.412,2.391,2.391,0,0,0-3.37-3.391,10.168,10.168,0,0,0-1.476,1.853,7.292,7.292,0,0,1-2.391-5.27c0-3.542,2.78-6.653,6.76-7.567a2.391,2.391,0,0,0-1.069-4.66,14.563,14.563,0,0,0-4.386,1.787,5.769,5.769,0,0,1-1.3-3.613C181.137,186.3,184.546,183.37,188.748,183.343Z" transform="translate(-120.145 -114.683)"/>
  </g>
</svg>
