<svg xmlns="http://www.w3.org/2000/svg" width="90" height="90" viewBox="0 0 90 90">
  <g id="competencia" transform="translate(-1 -1)">
    <path id="Trazado_140989" data-name="Trazado 140989" d="M15.161,58.29l-5.806,2.9L5,48.129l7.258-13.065,5.806-4.355L25.323,22l4.355,4.355L19.516,37.968l7.258,10.161,6.545-2.617A3.986,3.986,0,0,1,38.12,47L45.645,58.29l-5.806,4.355-5.806-8.71L23.871,58.29l3.62,6.034a5.15,5.15,0,0,1-.048,5.38l-6.476,10.36-5.806-2.9,5.806-8.71Z" transform="translate(1.806 9.484)" fill="#d64626"/>
    <circle id="Elipse_4703" data-name="Elipse 4703" cx="5.709" cy="5.709" r="5.709" transform="translate(2.404 31.468)" fill="#efbe9a"/>
    <path id="Trazado_140991" data-name="Trazado 140991" d="M61.484,58.29l5.806,2.9,4.355-13.065L64.387,35.065,58.581,30.71,51.323,22l-4.355,4.355L57.129,37.968,49.871,48.129l-6.545-2.617A3.986,3.986,0,0,0,38.525,47L31,58.29l5.806,4.355,5.806-8.71L52.774,58.29l-3.62,6.034A5.15,5.15,0,0,0,49.2,69.7l6.476,10.36,5.806-2.9-5.806-8.71Z" transform="translate(13.548 9.484)" fill="#2a94ee"/>
    <circle id="Elipse_4704" data-name="Elipse 4704" cx="5.709" cy="5.709" r="5.709" transform="translate(78.178 31.468)" fill="#efbe9a"/>
    <path id="Trazado_141005" data-name="Trazado 141005" d="M11.418,0A11.418,11.418,0,1,1,0,11.418,11.418,11.418,0,0,1,11.418,0Z" transform="translate(34.582 2.404)" fill="#fed947"/>
    <path id="Trazado_141004" data-name="Trazado 141004" d="M7.266,0A7.266,7.266,0,1,1,0,7.266,7.266,7.266,0,0,1,7.266,0Z" transform="translate(38.734 6.556)" fill="#fff5a2"/>
    <path id="Trazado_140993" data-name="Trazado 140993" d="M60.258,35.516a7.258,7.258,0,1,1,7.258-7.258A7.266,7.266,0,0,1,60.258,35.516Zm0-11.613a4.355,4.355,0,1,0,4.355,4.355A4.36,4.36,0,0,0,60.258,23.9Z" transform="translate(23.484 9.032)"/>
    <path id="Trazado_140994" data-name="Trazado 140994" d="M55.5,72.033a1.455,1.455,0,0,1-1.232-.682L47.791,60.989a6.6,6.6,0,0,1-.062-6.9l2.764-4.609L42.97,46.261l-5.137,7.705a1.451,1.451,0,0,1-2.079.356L31.4,51.055l1.74-2.323,3.127,2.344,4.956-7.432A1.454,1.454,0,0,1,43,43.117l10.161,4.355a1.45,1.45,0,0,1,.674,2.08l-3.62,6.034a3.736,3.736,0,0,0-.525,1.9,3.692,3.692,0,0,0,.562,1.96l5.776,9.242,3.156-1.578-4.895-7.342a1.449,1.449,0,0,1-.052-1.526l5.806-10.161,2.52,1.44L57.2,58.909l5.309,7.962a1.451,1.451,0,0,1-.559,2.1l-5.806,2.9a1.438,1.438,0,0,1-.647.154Z" transform="translate(13.729 18.967)"/>
    <path id="Trazado_140995" data-name="Trazado 140995" d="M67.215,63.1a1.454,1.454,0,0,1-.649-.152l-5.806-2.9a1.453,1.453,0,0,1-.748-1.7l2.9-10.161,2.793.8-2.572,9L66.369,59.6l3.623-10.87-6.8-12.237-5.56-4.169a1.428,1.428,0,0,1-.245-.232L51.148,24.6l-2.27,2.27,9.269,10.591a1.454,1.454,0,0,1,.089,1.8L50.977,49.424a1.457,1.457,0,0,1-1.72.505L42.712,47.31a2.577,2.577,0,0,0-3.054.948l-6.075,9.11-2.415-1.61,6.075-9.11a5.536,5.536,0,0,1,6.548-2.034l5.486,2.2,5.928-8.3L45.8,27.763a1.452,1.452,0,0,1,.067-1.983l4.355-4.355A1.478,1.478,0,0,1,51.312,21a1.458,1.458,0,0,1,1.051.521L59.513,30.1l5.67,4.253a1.427,1.427,0,0,1,.4.456l7.258,13.065a1.445,1.445,0,0,1,.107,1.164L68.591,62.1a1.452,1.452,0,0,1-.82.881,1.425,1.425,0,0,1-.556.112Z" transform="translate(13.624 9.032)"/>
    <path id="Trazado_140996" data-name="Trazado 140996" d="M8.258,35.516a7.258,7.258,0,1,1,7.258-7.258A7.266,7.266,0,0,1,8.258,35.516Zm0-11.613a4.355,4.355,0,1,0,4.355,4.355A4.36,4.36,0,0,0,8.258,23.9Z" transform="translate(0 9.032)"/>
    <path id="Trazado_140997" data-name="Trazado 140997" d="M21.418,81.968a1.455,1.455,0,0,1-.647-.152l-5.806-2.9a1.451,1.451,0,0,1-.559-2.1l5.309-7.962-4.68-8.191-4.578,2.289A1.451,1.451,0,0,1,8.43,62.1L4.075,49.039a1.45,1.45,0,0,1,.107-1.164L11.441,34.81a1.427,1.427,0,0,1,.4-.456l5.67-4.253,7.149-8.579A1.455,1.455,0,0,1,25.709,21a1.478,1.478,0,0,1,1.092.424l4.355,4.355a1.452,1.452,0,0,1,.067,1.983L21.817,38.511l5.928,8.3,5.487-2.2a5.533,5.533,0,0,1,6.547,2.034l7.527,11.288a1.452,1.452,0,0,1-.337,1.965l-5.806,4.355a1.451,1.451,0,0,1-2.079-.356L33.947,56.2,26.424,59.42l2.764,4.609a6.6,6.6,0,0,1-.062,6.9L22.65,81.285a1.455,1.455,0,0,1-1.232.682ZM17.732,77.05l3.156,1.578,5.776-9.242a3.7,3.7,0,0,0,.035-3.863l-3.62-6.034a1.45,1.45,0,0,1,.674-2.08l10.161-4.355a1.457,1.457,0,0,1,1.78.528l4.956,7.432,3.48-2.61L37.364,48.258a2.578,2.578,0,0,0-3.053-.948l-6.547,2.619a1.454,1.454,0,0,1-1.72-.505L18.786,39.263a1.452,1.452,0,0,1,.089-1.8l9.269-10.591-2.27-2.27-6.24,7.489a1.431,1.431,0,0,1-.245.232l-5.558,4.169-6.8,12.237L10.654,59.6l3.233-1.616-2.572-9,2.793-.8,2.855,9.993,5.718,10.009a1.452,1.452,0,0,1-.052,1.526Z" transform="translate(1.355 9.032)"/>
    <path id="Trazado_140998" data-name="Trazado 140998" d="M36.258,15.71H29v-2.9h3.754L29.425,9.478A1.451,1.451,0,0,1,30.452,7H37.71V9.9H33.956l3.329,3.329a1.451,1.451,0,0,1-1.026,2.478Z" transform="translate(12.645 2.71)"/>
    <path id="Trazado_140999" data-name="Trazado 140999" d="M31,5h2.9V9.355H31Z" transform="translate(13.548 1.806)"/>
    <path id="Trazado_141000" data-name="Trazado 141000" d="M31,12h2.9v4.355H31Z" transform="translate(13.548 4.968)"/>
    <path id="Trazado_141001" data-name="Trazado 141001" d="M36.065,27.129A13.065,13.065,0,1,1,49.129,14.065,13.08,13.08,0,0,1,36.065,27.129Zm0-23.226A10.161,10.161,0,1,0,46.226,14.065,10.173,10.173,0,0,0,36.065,3.9Z" transform="translate(9.935 0)"/>
    <path id="Trazado_141002" data-name="Trazado 141002" d="M0,0H16.424V2.9H0Z" transform="translate(27.548 33.36) rotate(-45)"/>
    <path id="Trazado_141003" data-name="Trazado 141003" d="M0,0H2.9V16.424H0Z" transform="translate(50.772 23.804) rotate(-45)"/>
  </g>
</svg>
