<svg xmlns="http://www.w3.org/2000/svg" width="103.848" height="103.822" viewBox="0 0 103.848 103.822">
  <g id="dato" transform="translate(0 -0.059)">
    <path id="Trazado_142214" data-name="Trazado 142214" d="M39.146,102.126c17.2,0,31.146-5.423,31.146-12.113V64.059c0,6.69-13.945,12.113-31.146,12.113S8,70.749,8,64.059V90.014C8,96.7,21.945,102.126,39.146,102.126Zm0,0" transform="translate(-6.27 -50.157)" fill="#2a94ee"/>
    <path id="Trazado_142215" data-name="Trazado 142215" d="M39.146,196.171C21.945,196.171,8,190.749,8,184.059v24.225c0,6.69,13.945,12.112,31.146,12.112s31.146-5.423,31.146-12.112V184.059C70.293,190.749,56.348,196.171,39.146,196.171Zm0,0" transform="translate(-6.27 -144.202)" fill="#dff7f9"/>
    <path id="Trazado_142216" data-name="Trazado 142216" d="M39.146,308.171C21.945,308.171,8,302.749,8,296.059v25.955c0,6.69,13.945,12.112,31.146,12.112s31.146-5.423,31.146-12.112V296.059C70.293,302.749,56.348,308.171,39.146,308.171Zm0,0" transform="translate(-6.27 -231.977)" fill="#dff7f9"/>
    <path id="Trazado_142217" data-name="Trazado 142217" d="M70.293,20.171c0-6.689-13.945-12.113-31.146-12.113S8,13.482,8,20.171,21.945,32.284,39.146,32.284,70.293,26.861,70.293,20.171Zm0,0" transform="translate(-6.27 -6.27)" fill="#2a94ee"/>
    <path id="Trazado_142218" data-name="Trazado 142218" d="M70.293,57.789c0,6.7-13.947,12.113-31.146,12.113S8,64.486,8,57.789a4.651,4.651,0,0,1,.329-1.73c2.128,5.866,15.124,10.382,30.818,10.382s28.689-4.516,30.818-10.382A4.651,4.651,0,0,1,70.293,57.789Zm0,0" transform="translate(-6.27 -43.887)" fill="#2a94ee" style="mix-blend-mode: multiply;isolation: isolate"/>
    <g id="Grupo_83321" data-name="Grupo 83321" transform="translate(91.709 3.519)">
      <path id="Trazado_142219" data-name="Trazado 142219" d="M434.382,221.25a5.191,5.191,0,1,1-5.191-5.191A5.191,5.191,0,0,1,434.382,221.25Zm0,0" transform="translate(-424 -172.8)" fill="#fed947"/>
      <path id="Trazado_142220" data-name="Trazado 142220" d="M434.382,429.25a5.191,5.191,0,1,1-5.191-5.191A5.191,5.191,0,0,1,434.382,429.25Zm0,0" transform="translate(-424 -335.81)" fill="#fed947"/>
      <path id="Trazado_142221" data-name="Trazado 142221" d="M434.382,21.25a5.191,5.191,0,1,1-5.191-5.191A5.191,5.191,0,0,1,434.382,21.25Zm0,0" transform="translate(-424 -16.059)" fill="#fed947"/>
    </g>
    <path id="Trazado_142222" data-name="Trazado 142222" d="M70.293,168.059v3.461c0,6.7-13.947,12.113-31.146,12.113S8,178.216,8,171.519v-3.461c0,6.7,13.947,12.113,31.146,12.113S70.293,174.755,70.293,168.059Zm0,0" transform="translate(-6.27 -131.662)" fill="#2a94ee" style="mix-blend-mode: multiply;isolation: isolate"/>
    <path id="Trazado_142223" data-name="Trazado 142223" d="M70.293,280.059v3.461c0,6.7-13.947,12.112-31.146,12.112S8,290.216,8,283.519v-3.461c0,6.7,13.947,12.112,31.146,12.112S70.293,286.755,70.293,280.059Zm0,0" transform="translate(-6.27 -219.437)" fill="#dff7f9" style="mix-blend-mode: multiply;isolation: isolate"/>
    <path id="Trazado_142224" data-name="Trazado 142224" d="M70.293,400.059v3.461c0,6.7-13.947,12.113-31.146,12.113S8,410.216,8,403.519v-3.461c0,6.7,13.947,12.113,31.146,12.113S70.293,406.755,70.293,400.059Zm0,0" transform="translate(-6.27 -313.482)" fill="#dff7f9" style="mix-blend-mode: multiply;isolation: isolate"/>
    <path id="Trazado_142225" data-name="Trazado 142225" d="M65.754,53.7H90.224a6.921,6.921,0,1,0,0-3.461H65.754v-17.3h8.652A5.191,5.191,0,0,0,79.6,27.744V12.171a1.73,1.73,0,0,1,1.73-1.73h8.9a6.921,6.921,0,1,0,0-3.461h-8.9a5.191,5.191,0,0,0-5.191,5.191V27.744a1.73,1.73,0,0,1-1.73,1.73H65.754V13.9C65.754,6.009,51.62.059,32.877.059S0,6.009,0,13.9V90.037c0,7.892,14.134,13.843,32.877,13.843s32.877-5.951,32.877-13.843V81.385h8.652a1.73,1.73,0,0,1,1.73,1.73V93.5a5.191,5.191,0,0,0,5.191,5.191h8.9a6.921,6.921,0,1,0,0-3.461h-8.9A1.73,1.73,0,0,1,79.6,93.5V83.116a5.191,5.191,0,0,0-5.191-5.191H65.754ZM96.9,48.509a3.461,3.461,0,1,1-3.461,3.461A3.461,3.461,0,0,1,96.9,48.509Zm0-43.259A3.461,3.461,0,1,1,93.439,8.71,3.461,3.461,0,0,1,96.9,5.25Zm0,88.248a3.461,3.461,0,1,1-3.461,3.461A3.461,3.461,0,0,1,96.9,93.5ZM32.877,3.519c17.337,0,29.416,5.472,29.416,10.382S50.213,24.284,32.877,24.284,3.461,18.813,3.461,13.9,15.54,3.519,32.877,3.519ZM3.461,20.259c5.29,4.516,16.193,7.485,29.416,7.485S57,24.775,62.293,20.259v19.6c0,4.911-12.08,10.382-29.416,10.382S3.461,44.768,3.461,39.857Zm29.416,80.16c-17.337,0-29.416-5.471-29.416-10.382V70.44c5.29,4.516,16.193,7.485,29.416,7.485S57,74.956,62.293,70.44v19.6C62.293,94.949,50.213,100.419,32.877,100.419Zm0-25.955c-17.337,0-29.416-5.471-29.416-10.382V46.215C8.751,50.731,19.653,53.7,32.877,53.7S57,50.731,62.293,46.215V64.082C62.293,68.993,50.213,74.464,32.877,74.464Zm0,0"/>
    <path id="Trazado_142226" data-name="Trazado 142226" d="M440,32.059h3.461v3.461H440Zm0,0" transform="translate(-344.83 -25.079)"/>
    <path id="Trazado_142227" data-name="Trazado 142227" d="M440,232.059h3.461v3.461H440Zm0,0" transform="translate(-344.83 -181.82)"/>
    <path id="Trazado_142228" data-name="Trazado 142228" d="M440,440.059h3.461v3.461H440Zm0,0" transform="translate(-344.83 -344.83)"/>
  </g>
</svg>
