<svg xmlns="http://www.w3.org/2000/svg" width="820" height="400" viewBox="0 0 820 400">
  <g id="Grupo_82932" data-name="Grupo 82932" transform="translate(-390.353 -6877.07)">
    <path id="Rectángulo_30804" data-name="Rectángulo 30804" d="M0,0H820V400H0Z" transform="translate(390.353 6877.07)" fill="#f6f6f6"/>
    <path id="Trazado_141877" data-name="Trazado 141877" d="M-104.906,0V-17.062h5.25a7.973,7.973,0,0,1,4.025,1.014,7.069,7.069,0,0,1,2.771,2.883,8.892,8.892,0,0,1,1,4.248v.785a8.917,8.917,0,0,1-.979,4.23A7.008,7.008,0,0,1-95.6-1.031,8.033,8.033,0,0,1-99.621,0Zm3.516-14.215V-2.824h1.7a3.818,3.818,0,0,0,3.152-1.348,6.09,6.09,0,0,0,1.113-3.855v-.9A6.187,6.187,0,0,0-96.5-12.873a3.8,3.8,0,0,0-3.152-1.342ZM-83.7.234a6.225,6.225,0,0,1-4.541-1.711,6.082,6.082,0,0,1-1.752-4.559v-.328a7.66,7.66,0,0,1,.738-3.416,5.418,5.418,0,0,1,2.092-2.32,5.871,5.871,0,0,1,3.088-.814,5.262,5.262,0,0,1,4.1,1.641A6.667,6.667,0,0,1-78.48-6.621v1.383h-8.074a3.146,3.146,0,0,0,.99,1.992,2.993,2.993,0,0,0,2.092.75,3.656,3.656,0,0,0,3.059-1.418l1.664,1.863A5.084,5.084,0,0,1-80.812-.369,6.767,6.767,0,0,1-83.7.234Zm-.387-10.418a2.116,2.116,0,0,0-1.635.683,3.535,3.535,0,0,0-.8,1.954h4.711v-.271a2.521,2.521,0,0,0-.609-1.748A2.183,2.183,0,0,0-84.082-10.184Zm10.7-2.5.105,1.418a4.456,4.456,0,0,1,3.645-1.652A3.382,3.382,0,0,1-66.27-10.98a4.354,4.354,0,0,1,3.809-1.934,3.782,3.782,0,0,1,3.07,1.2A5.521,5.521,0,0,1-58.383-8.1V0h-3.4V-8.1a2.424,2.424,0,0,0-.422-1.58,1.867,1.867,0,0,0-1.488-.5A2.114,2.114,0,0,0-65.8-8.727L-65.789,0h-3.387V-8.093a2.394,2.394,0,0,0-.434-1.6,1.885,1.885,0,0,0-1.477-.493,2.194,2.194,0,0,0-2.086,1.2V0h-3.387V-12.68ZM-48.434,0a3.761,3.761,0,0,1-.34-1.137,4.1,4.1,0,0,1-3.2,1.371A4.5,4.5,0,0,1-55.061-.844a3.467,3.467,0,0,1-1.225-2.719,3.583,3.583,0,0,1,1.494-3.094,7.373,7.373,0,0,1,4.318-1.09h1.559v-.727a2.089,2.089,0,0,0-.451-1.406,1.775,1.775,0,0,0-1.424-.527,2.018,2.018,0,0,0-1.342.41,1.393,1.393,0,0,0-.486,1.125H-56a3.4,3.4,0,0,1,.68-2.039A4.493,4.493,0,0,1-53.4-12.381a7,7,0,0,1,2.789-.533,5.534,5.534,0,0,1,3.721,1.178,4.12,4.12,0,0,1,1.377,3.311v5.5a6.062,6.062,0,0,0,.5,2.73V0Zm-2.8-2.355a2.917,2.917,0,0,0,1.383-.334,2.194,2.194,0,0,0,.938-.9v-2.18H-50.18q-2.543,0-2.707,1.758l-.012.2a1.356,1.356,0,0,0,.445,1.043A1.73,1.73,0,0,0-51.234-2.355ZM-39.8-12.68l.105,1.465a4.427,4.427,0,0,1,3.645-1.7,3.679,3.679,0,0,1,3,1.184,5.522,5.522,0,0,1,1.008,3.539V0h-3.387V-8.128A2.206,2.206,0,0,0-35.895-9.7a2.1,2.1,0,0,0-1.559-.487A2.329,2.329,0,0,0-39.6-8.962V0h-3.387V-12.68ZM-30-6.434a7.641,7.641,0,0,1,1.33-4.723,4.316,4.316,0,0,1,3.639-1.758,3.884,3.884,0,0,1,3.059,1.383V-18h3.4V0h-3.059L-21.8-1.348A3.985,3.985,0,0,1-25.055.234a4.3,4.3,0,0,1-3.592-1.764A7.887,7.887,0,0,1-30-6.434Zm3.387.241a5.033,5.033,0,0,0,.621,2.743,2.022,2.022,0,0,0,1.8.954,2.265,2.265,0,0,0,2.215-1.33V-8.853a2.233,2.233,0,0,0-2.191-1.33Q-26.613-10.184-26.613-6.193ZM-8.6,0a3.761,3.761,0,0,1-.34-1.137,4.1,4.1,0,0,1-3.2,1.371A4.5,4.5,0,0,1-15.229-.844a3.467,3.467,0,0,1-1.225-2.719,3.583,3.583,0,0,1,1.494-3.094,7.373,7.373,0,0,1,4.318-1.09h1.559v-.727a2.089,2.089,0,0,0-.451-1.406,1.775,1.775,0,0,0-1.424-.527A2.018,2.018,0,0,0-12.3-10a1.393,1.393,0,0,0-.486,1.125h-3.387a3.4,3.4,0,0,1,.68-2.039,4.493,4.493,0,0,1,1.922-1.471,7,7,0,0,1,2.789-.533,5.534,5.534,0,0,1,3.721,1.178A4.12,4.12,0,0,1-5.684-8.426v5.5A6.062,6.062,0,0,0-5.18-.2V0Zm-2.8-2.355a2.917,2.917,0,0,0,1.383-.334,2.194,2.194,0,0,0,.938-.9v-2.18h-1.266q-2.543,0-2.707,1.758l-.012.2a1.356,1.356,0,0,0,.445,1.043A1.73,1.73,0,0,0-11.4-2.355ZM6.855,0H3.34V-17.062H6.855Zm6.152-12.68.105,1.465a4.427,4.427,0,0,1,3.645-1.7,3.679,3.679,0,0,1,3,1.184,5.522,5.522,0,0,1,1.008,3.539V0H17.379V-8.128A2.206,2.206,0,0,0,16.91-9.7a2.1,2.1,0,0,0-1.559-.487,2.329,2.329,0,0,0-2.145,1.221V0H9.82V-12.68ZM29.168.234a6.225,6.225,0,0,1-4.541-1.711,6.082,6.082,0,0,1-1.752-4.559v-.328a7.66,7.66,0,0,1,.738-3.416,5.418,5.418,0,0,1,2.092-2.32,5.871,5.871,0,0,1,3.088-.814,5.262,5.262,0,0,1,4.1,1.641,6.667,6.667,0,0,1,1.494,4.652v1.383H26.309a3.146,3.146,0,0,0,.99,1.992,2.993,2.993,0,0,0,2.092.75,3.656,3.656,0,0,0,3.059-1.418l1.664,1.863A5.084,5.084,0,0,1,32.051-.369,6.767,6.767,0,0,1,29.168.234Zm-.387-10.418a2.116,2.116,0,0,0-1.635.683,3.535,3.535,0,0,0-.8,1.954h4.711v-.271a2.521,2.521,0,0,0-.609-1.748A2.183,2.183,0,0,0,28.781-10.184ZM39.879,0h-3.4V-18h3.4ZM50.016,0a3.761,3.761,0,0,1-.34-1.137,4.1,4.1,0,0,1-3.2,1.371A4.5,4.5,0,0,1,43.389-.844a3.467,3.467,0,0,1-1.225-2.719,3.583,3.583,0,0,1,1.494-3.094,7.373,7.373,0,0,1,4.318-1.09h1.559v-.727a2.089,2.089,0,0,0-.451-1.406,1.775,1.775,0,0,0-1.424-.527,2.018,2.018,0,0,0-1.342.41,1.393,1.393,0,0,0-.486,1.125H42.445a3.4,3.4,0,0,1,.68-2.039,4.493,4.493,0,0,1,1.922-1.471,7,7,0,0,1,2.789-.533,5.534,5.534,0,0,1,3.721,1.178,4.12,4.12,0,0,1,1.377,3.311v5.5a6.062,6.062,0,0,0,.5,2.73V0Zm-2.8-2.355A2.917,2.917,0,0,0,48.6-2.689a2.194,2.194,0,0,0,.938-.9v-2.18H48.27q-2.543,0-2.707,1.758l-.012.2A1.356,1.356,0,0,0,46-2.766,1.73,1.73,0,0,0,47.215-2.355ZM48.5-18H52.2l-3.246,3.633H46.2ZM62.4-3.5a1.091,1.091,0,0,0-.615-.979,6.989,6.989,0,0,0-1.975-.639q-4.523-.949-4.523-3.844a3.484,3.484,0,0,1,1.4-2.818,5.649,5.649,0,0,1,3.662-1.131,6.08,6.08,0,0,1,3.861,1.137A3.582,3.582,0,0,1,65.66-8.824H62.273a1.639,1.639,0,0,0-.469-1.2A1.984,1.984,0,0,0,60.34-10.5a2.027,2.027,0,0,0-1.324.387,1.221,1.221,0,0,0-.469.984,1.044,1.044,0,0,0,.533.908,5.485,5.485,0,0,0,1.8.6,14.693,14.693,0,0,1,2.133.568Q65.7-6.07,65.7-3.645A3.307,3.307,0,0,1,64.207-.838,6.42,6.42,0,0,1,60.363.234a6.706,6.706,0,0,1-2.83-.568,4.748,4.748,0,0,1-1.939-1.559,3.621,3.621,0,0,1-.7-2.139H58.1a1.768,1.768,0,0,0,.668,1.383,2.649,2.649,0,0,0,1.664.48A2.452,2.452,0,0,0,61.9-2.537,1.149,1.149,0,0,0,62.4-3.5ZM71.93-15.8v3.117H74.1V-10.2H71.93v6.328a1.511,1.511,0,0,0,.27,1.008,1.354,1.354,0,0,0,1.031.3,5.4,5.4,0,0,0,1-.082V-.07a6.972,6.972,0,0,1-2.051.3q-3.562,0-3.633-3.6V-10.2H66.691V-12.68h1.852V-15.8ZM79.559,0h-3.4V-12.68h3.4Zm-3.6-15.961a1.668,1.668,0,0,1,.51-1.254,1.915,1.915,0,0,1,1.389-.492,1.919,1.919,0,0,1,1.383.492,1.658,1.658,0,0,1,.516,1.254,1.663,1.663,0,0,1-.521,1.266,1.924,1.924,0,0,1-1.377.492,1.924,1.924,0,0,1-1.377-.492A1.663,1.663,0,0,1,75.961-15.961ZM87.621-2.5a2.221,2.221,0,0,0,1.523-.516,1.807,1.807,0,0,0,.609-1.371H92.93a4.344,4.344,0,0,1-.7,2.361A4.64,4.64,0,0,1,90.334-.357,5.923,5.923,0,0,1,87.68.234a5.5,5.5,0,0,1-4.289-1.729A6.84,6.84,0,0,1,81.82-6.27v-.223a6.762,6.762,0,0,1,1.559-4.676,5.441,5.441,0,0,1,4.277-1.746,5.333,5.333,0,0,1,3.814,1.354,4.792,4.792,0,0,1,1.459,3.6H89.754a2.327,2.327,0,0,0-.609-1.608,2.032,2.032,0,0,0-1.547-.619,2.04,2.04,0,0,0-1.787.863,5,5,0,0,0-.6,2.8v.352a5.063,5.063,0,0,0,.6,2.817A2.065,2.065,0,0,0,87.621-2.5ZM102.211,0a3.761,3.761,0,0,1-.34-1.137,4.1,4.1,0,0,1-3.2,1.371A4.5,4.5,0,0,1,95.584-.844a3.467,3.467,0,0,1-1.225-2.719,3.583,3.583,0,0,1,1.494-3.094,7.373,7.373,0,0,1,4.318-1.09h1.559v-.727a2.089,2.089,0,0,0-.451-1.406,1.775,1.775,0,0,0-1.424-.527,2.018,2.018,0,0,0-1.342.41,1.393,1.393,0,0,0-.486,1.125H94.641a3.4,3.4,0,0,1,.68-2.039,4.493,4.493,0,0,1,1.922-1.471,7,7,0,0,1,2.789-.533,5.534,5.534,0,0,1,3.721,1.178,4.12,4.12,0,0,1,1.377,3.311v5.5a6.062,6.062,0,0,0,.5,2.73V0Zm-2.8-2.355a2.917,2.917,0,0,0,1.383-.334,2.194,2.194,0,0,0,.938-.9v-2.18h-1.266q-2.543,0-2.707,1.758l-.012.2a1.356,1.356,0,0,0,.445,1.043A1.73,1.73,0,0,0,99.41-2.355Z" transform="translate(800.353 6921.16)" fill="#12263f"/>
    <path id="Trazado_141872" data-name="Trazado 141872" d="M4.409-5.26V0H1.333V-14.93H7.157a6.738,6.738,0,0,1,2.958.615,4.534,4.534,0,0,1,1.964,1.748,4.875,4.875,0,0,1,.687,2.579,4.287,4.287,0,0,1-1.5,3.461A6.257,6.257,0,0,1,7.106-5.26Zm0-2.492H7.157a2.7,2.7,0,0,0,1.861-.574,2.088,2.088,0,0,0,.641-1.641,2.463,2.463,0,0,0-.646-1.774,2.413,2.413,0,0,0-1.784-.7H4.409Zm16.509-.564A8.051,8.051,0,0,0,19.852-8.4a2.171,2.171,0,0,0-2.2,1.138V0H14.684V-11.095h2.8l.082,1.323A2.746,2.746,0,0,1,20.036-11.3a3.105,3.105,0,0,1,.923.133ZM27.255.205a5.447,5.447,0,0,1-3.973-1.5,5.321,5.321,0,0,1-1.533-3.989v-.287a6.7,6.7,0,0,1,.646-2.989,4.741,4.741,0,0,1,1.83-2.03,5.137,5.137,0,0,1,2.7-.713A4.6,4.6,0,0,1,30.51-9.864a5.833,5.833,0,0,1,1.307,4.071v1.21H24.753a2.753,2.753,0,0,0,.866,1.743,2.619,2.619,0,0,0,1.83.656,3.2,3.2,0,0,0,2.676-1.241l1.456,1.63a4.449,4.449,0,0,1-1.8,1.471A5.921,5.921,0,0,1,27.255.205Zm-.338-9.116a1.852,1.852,0,0,0-1.43.6,3.093,3.093,0,0,0-.7,1.71h4.122V-6.84a2.206,2.206,0,0,0-.533-1.529A1.91,1.91,0,0,0,26.917-8.911Zm11.2,6.727a1.944,1.944,0,0,0,1.333-.451,1.581,1.581,0,0,0,.533-1.2h2.779a3.8,3.8,0,0,1-.615,2.066A4.06,4.06,0,0,1,40.488-.313a5.183,5.183,0,0,1-2.323.518,4.817,4.817,0,0,1-3.753-1.512,5.985,5.985,0,0,1-1.374-4.178v-.195A5.917,5.917,0,0,1,34.4-9.772,4.761,4.761,0,0,1,38.145-11.3a4.667,4.667,0,0,1,3.338,1.184,4.193,4.193,0,0,1,1.277,3.153H39.98a2.036,2.036,0,0,0-.533-1.407,1.778,1.778,0,0,0-1.354-.541,1.785,1.785,0,0,0-1.564.755A4.374,4.374,0,0,0,36-5.707V-5.4a4.43,4.43,0,0,0,.523,2.465A1.807,1.807,0,0,0,38.114-2.184ZM47.578,0H44.6V-11.095h2.974ZM44.43-13.966a1.459,1.459,0,0,1,.446-1.1,1.676,1.676,0,0,1,1.215-.431,1.679,1.679,0,0,1,1.21.431,1.451,1.451,0,0,1,.451,1.1,1.455,1.455,0,0,1-.456,1.107,1.684,1.684,0,0,1-1.2.431,1.684,1.684,0,0,1-1.2-.431A1.455,1.455,0,0,1,44.43-13.966ZM49.557-5.65a6.58,6.58,0,0,1,.636-2.943,4.654,4.654,0,0,1,1.83-2A5.34,5.34,0,0,1,54.8-11.3a5.052,5.052,0,0,1,3.666,1.374,5.514,5.514,0,0,1,1.584,3.732l.021.759a5.8,5.8,0,0,1-1.425,4.1A4.954,4.954,0,0,1,54.817.205a4.979,4.979,0,0,1-3.83-1.538,5.9,5.9,0,0,1-1.43-4.184Zm2.963.21a4.147,4.147,0,0,0,.595,2.418,1.962,1.962,0,0,0,1.7.837A1.966,1.966,0,0,0,56.5-3.011a4.538,4.538,0,0,0,.6-2.644,4.106,4.106,0,0,0-.6-2.4,1.967,1.967,0,0,0-1.7-.852,1.934,1.934,0,0,0-1.682.847A4.614,4.614,0,0,0,52.521-5.44Z" transform="translate(443.235 7072.845) rotate(-90)" fill="#12263f"/>
    <path id="Trazado_141858" data-name="Trazado 141858" d="M13.053-4.973a5.283,5.283,0,0,1-1.779,3.794A6.248,6.248,0,0,1,7.044.205,5.618,5.618,0,0,1,2.528-1.728,7.925,7.925,0,0,1,.882-7.034v-.913a8.95,8.95,0,0,1,.759-3.794,5.686,5.686,0,0,1,2.169-2.517,6.075,6.075,0,0,1,3.276-.877,6.087,6.087,0,0,1,4.163,1.384,5.677,5.677,0,0,1,1.825,3.886H10a3.118,3.118,0,0,0-.8-2.1,2.981,2.981,0,0,0-2.107-.651,2.614,2.614,0,0,0-2.3,1.1A6.178,6.178,0,0,0,4-8.09v1.128a6.612,6.612,0,0,0,.733,3.538A2.565,2.565,0,0,0,7.044-2.307a3.037,3.037,0,0,0,2.128-.651,2.941,2.941,0,0,0,.8-2.015ZM21.308,0a3.291,3.291,0,0,1-.3-.995,3.586,3.586,0,0,1-2.8,1.2,3.939,3.939,0,0,1-2.7-.943,3.034,3.034,0,0,1-1.072-2.379,3.135,3.135,0,0,1,1.307-2.707,6.451,6.451,0,0,1,3.779-.954h1.364v-.636a1.828,1.828,0,0,0-.395-1.23,1.553,1.553,0,0,0-1.246-.461,1.766,1.766,0,0,0-1.174.359,1.219,1.219,0,0,0-.426.984H14.684a2.977,2.977,0,0,1,.595-1.784,3.931,3.931,0,0,1,1.682-1.287A6.129,6.129,0,0,1,19.4-11.3a4.842,4.842,0,0,1,3.256,1.031,3.605,3.605,0,0,1,1.2,2.9v4.809A5.3,5.3,0,0,0,24.3-.174V0ZM18.857-2.061a2.552,2.552,0,0,0,1.21-.292,1.919,1.919,0,0,0,.82-.784V-5.045H19.78q-2.225,0-2.369,1.538l-.01.174a1.186,1.186,0,0,0,.39.913A1.514,1.514,0,0,0,18.857-2.061Zm10.008-9.034.092,1.282A3.874,3.874,0,0,1,32.146-11.3a3.219,3.219,0,0,1,2.625,1.036,4.832,4.832,0,0,1,.882,3.1V0H32.689V-7.112a1.93,1.93,0,0,0-.41-1.372,1.833,1.833,0,0,0-1.364-.426,2.038,2.038,0,0,0-1.876,1.069V0H26.076V-11.095Zm12.582-2.728v2.728h1.9v2.174h-1.9v5.537a1.322,1.322,0,0,0,.236.882,1.184,1.184,0,0,0,.9.267,4.726,4.726,0,0,0,.872-.072V-.062a6.1,6.1,0,0,1-1.794.267q-3.117,0-3.179-3.148V-8.921h-1.62v-2.174h1.62v-2.728ZM48.122,0H45.148V-11.095h2.974ZM44.974-13.966a1.459,1.459,0,0,1,.446-1.1,1.676,1.676,0,0,1,1.215-.431,1.679,1.679,0,0,1,1.21.431,1.451,1.451,0,0,1,.451,1.1,1.455,1.455,0,0,1-.456,1.107,1.684,1.684,0,0,1-1.2.431,1.684,1.684,0,0,1-1.2-.431A1.455,1.455,0,0,1,44.974-13.966ZM50.1-5.629a6.686,6.686,0,0,1,1.164-4.132A3.776,3.776,0,0,1,54.448-11.3a3.4,3.4,0,0,1,2.676,1.21v-5.66H60.1V0H57.422l-.144-1.179A3.487,3.487,0,0,1,54.428.205a3.766,3.766,0,0,1-3.143-1.543A6.9,6.9,0,0,1,50.1-5.629Zm2.963.211a4.4,4.4,0,0,0,.543,2.4,1.769,1.769,0,0,0,1.579.834,1.982,1.982,0,0,0,1.938-1.164v-4.4a1.954,1.954,0,0,0-1.917-1.164Q53.064-8.911,53.064-5.419ZM68.824,0a3.291,3.291,0,0,1-.3-.995,3.586,3.586,0,0,1-2.8,1.2,3.939,3.939,0,0,1-2.7-.943,3.034,3.034,0,0,1-1.072-2.379,3.135,3.135,0,0,1,1.307-2.707,6.451,6.451,0,0,1,3.779-.954H68.4v-.636a1.828,1.828,0,0,0-.395-1.23,1.553,1.553,0,0,0-1.246-.461,1.766,1.766,0,0,0-1.174.359,1.219,1.219,0,0,0-.426.984H62.2a2.977,2.977,0,0,1,.595-1.784,3.931,3.931,0,0,1,1.682-1.287,6.129,6.129,0,0,1,2.44-.467,4.842,4.842,0,0,1,3.256,1.031,3.605,3.605,0,0,1,1.2,2.9v4.809a5.3,5.3,0,0,0,.441,2.389V0ZM66.374-2.061a2.552,2.552,0,0,0,1.21-.292,1.919,1.919,0,0,0,.82-.784V-5.045H67.3q-2.225,0-2.369,1.538l-.01.174a1.186,1.186,0,0,0,.39.913A1.514,1.514,0,0,0,66.374-2.061Zm6.819-3.568a6.686,6.686,0,0,1,1.164-4.132A3.776,3.776,0,0,1,77.54-11.3a3.4,3.4,0,0,1,2.676,1.21v-5.66H83.19V0H80.514L80.37-1.179A3.487,3.487,0,0,1,77.52.205a3.766,3.766,0,0,1-3.143-1.543A6.9,6.9,0,0,1,73.192-5.629Zm2.963.211a4.4,4.4,0,0,0,.543,2.4,1.769,1.769,0,0,0,1.579.834,1.982,1.982,0,0,0,1.938-1.164v-4.4A1.954,1.954,0,0,0,78.3-8.911Q76.156-8.911,76.156-5.419ZM90.593.205a5.447,5.447,0,0,1-3.973-1.5,5.321,5.321,0,0,1-1.533-3.989v-.287a6.7,6.7,0,0,1,.646-2.989,4.741,4.741,0,0,1,1.83-2.03,5.137,5.137,0,0,1,2.7-.713,4.6,4.6,0,0,1,3.584,1.436,5.833,5.833,0,0,1,1.307,4.071v1.21H88.091a2.753,2.753,0,0,0,.866,1.743,2.619,2.619,0,0,0,1.83.656,3.2,3.2,0,0,0,2.676-1.241l1.456,1.63a4.449,4.449,0,0,1-1.8,1.471A5.921,5.921,0,0,1,90.593.205Zm-.338-9.116a1.852,1.852,0,0,0-1.43.6,3.093,3.093,0,0,0-.7,1.71h4.122V-6.84a2.206,2.206,0,0,0-.533-1.529A1.91,1.91,0,0,0,90.255-8.911Zm12.592,5.845a.955.955,0,0,0-.538-.856,6.115,6.115,0,0,0-1.728-.559q-3.958-.831-3.958-3.363a3.049,3.049,0,0,1,1.225-2.466,4.943,4.943,0,0,1,3.2-.99,5.32,5.32,0,0,1,3.379.995A3.135,3.135,0,0,1,105.7-7.721h-2.963a1.434,1.434,0,0,0-.41-1.051,1.736,1.736,0,0,0-1.282-.415,1.774,1.774,0,0,0-1.159.338,1.068,1.068,0,0,0-.41.861.913.913,0,0,0,.467.795,4.8,4.8,0,0,0,1.574.523,12.856,12.856,0,0,1,1.866.5,3.066,3.066,0,0,1,2.348,2.984,2.894,2.894,0,0,1-1.3,2.456,5.618,5.618,0,0,1-3.363.938,5.867,5.867,0,0,1-2.476-.5,4.155,4.155,0,0,1-1.7-1.364,3.169,3.169,0,0,1-.615-1.871h2.81a1.547,1.547,0,0,0,.584,1.21,2.318,2.318,0,0,0,1.456.42,2.146,2.146,0,0,0,1.287-.323A1,1,0,0,0,102.847-3.066Z" transform="matrix(1, 0, 0, 1, 747.353, 7246.438)" fill="#12263f"/>
    <path id="Trazado_141859" data-name="Trazado 141859" d="M7.295-5.625a3.978,3.978,0,0,1-1.217.976,3.3,3.3,0,0,1-1.551.369A3.41,3.41,0,0,1,2.6-4.825a3.543,3.543,0,0,1-1.27-1.534A5.229,5.229,0,0,1,.879-8.543a5.327,5.327,0,0,1,.488-2.312,3.583,3.583,0,0,1,1.384-1.573,3.947,3.947,0,0,1,2.092-.545,3.574,3.574,0,0,1,2.993,1.419A6.191,6.191,0,0,1,8.93-7.682v.475q0,3.735-1.477,5.454A5.673,5.673,0,0,1,3,.009H2.681v-1.38h.343A4.476,4.476,0,0,0,6.117-2.419,4.5,4.5,0,0,0,7.295-5.625Zm-2.5,0a2.511,2.511,0,0,0,1.507-.5A2.953,2.953,0,0,0,7.3-7.365v-.65a4.474,4.474,0,0,0-.694-2.6,2.072,2.072,0,0,0-1.758-1,2.088,2.088,0,0,0-1.723.822,3.39,3.39,0,0,0-.65,2.167,3.528,3.528,0,0,0,.628,2.158A1.99,1.99,0,0,0,4.79-5.625ZM19.2-5.458a7.436,7.436,0,0,1-.976,4.245A3.47,3.47,0,0,1,15.17.176a3.5,3.5,0,0,1-3.032-1.358,7.058,7.058,0,0,1-1.02-4.056V-7.409a7.271,7.271,0,0,1,.976-4.192,3.5,3.5,0,0,1,3.059-1.371,3.528,3.528,0,0,1,3.041,1.323,7.017,7.017,0,0,1,1,4.083ZM17.569-7.682a5.958,5.958,0,0,0-.58-3.01,2,2,0,0,0-1.837-.945,1.97,1.97,0,0,0-1.819.94A5.817,5.817,0,0,0,12.744-7.8v2.6a6.053,6.053,0,0,0,.6,3.063,1.993,1.993,0,0,0,1.824.989,1.966,1.966,0,0,0,1.789-.932,5.834,5.834,0,0,0,.611-2.936Z" transform="translate(653.541 7205.147)" fill="#12263f"/>
    <path id="Trazado_141860" data-name="Trazado 141860" d="M6.407,0H4.772V-10.837l-3.278,1.2v-1.477l4.658-1.749h.255ZM19.2-5.458a7.436,7.436,0,0,1-.976,4.245A3.47,3.47,0,0,1,15.17.176a3.5,3.5,0,0,1-3.032-1.358,7.058,7.058,0,0,1-1.02-4.056V-7.409a7.271,7.271,0,0,1,.976-4.192,3.5,3.5,0,0,1,3.059-1.371,3.528,3.528,0,0,1,3.041,1.323,7.017,7.017,0,0,1,1,4.083ZM17.569-7.682a5.958,5.958,0,0,0-.58-3.01,2,2,0,0,0-1.837-.945,1.97,1.97,0,0,0-1.819.94A5.817,5.817,0,0,0,12.744-7.8v2.6a6.053,6.053,0,0,0,.6,3.063,1.993,1.993,0,0,0,1.824.989,1.966,1.966,0,0,0,1.789-.932,5.834,5.834,0,0,0,.611-2.936ZM29.3-5.458a7.436,7.436,0,0,1-.976,4.245A3.47,3.47,0,0,1,25.277.176a3.5,3.5,0,0,1-3.032-1.358,7.058,7.058,0,0,1-1.02-4.056V-7.409A7.271,7.271,0,0,1,22.2-11.6a3.5,3.5,0,0,1,3.059-1.371A3.528,3.528,0,0,1,28.3-11.65a7.017,7.017,0,0,1,1,4.083ZM27.677-7.682a5.958,5.958,0,0,0-.58-3.01,2,2,0,0,0-1.837-.945,1.97,1.97,0,0,0-1.819.94A5.817,5.817,0,0,0,22.852-7.8v2.6a6.053,6.053,0,0,0,.6,3.063,1.993,1.993,0,0,0,1.824.989,1.966,1.966,0,0,0,1.789-.932,5.834,5.834,0,0,0,.611-2.936Z" transform="translate(773.439 7205.147)" fill="#12263f"/>
    <path id="Trazado_141861" data-name="Trazado 141861" d="M6.407,0H4.772V-10.837l-3.278,1.2v-1.477l4.658-1.749h.255ZM16.515,0H14.88V-10.837L11.6-9.633v-1.477l4.658-1.749h.255ZM29.3-5.458a7.436,7.436,0,0,1-.976,4.245A3.47,3.47,0,0,1,25.277.176a3.5,3.5,0,0,1-3.032-1.358,7.058,7.058,0,0,1-1.02-4.056V-7.409A7.271,7.271,0,0,1,22.2-11.6a3.5,3.5,0,0,1,3.059-1.371A3.528,3.528,0,0,1,28.3-11.65a7.017,7.017,0,0,1,1,4.083ZM27.677-7.682a5.958,5.958,0,0,0-.58-3.01,2,2,0,0,0-1.837-.945,1.97,1.97,0,0,0-1.819.94A5.817,5.817,0,0,0,22.852-7.8v2.6a6.053,6.053,0,0,0,.6,3.063,1.993,1.993,0,0,0,1.824.989,1.966,1.966,0,0,0,1.789-.932,5.834,5.834,0,0,0,.611-2.936Z" transform="translate(910.77 7205.147)" fill="#12263f"/>
    <path id="Trazado_141857" data-name="Trazado 141857" d="M6.407,0H4.772V-10.837l-3.278,1.2v-1.477l4.658-1.749h.255ZM19.556,0H11.171V-1.169L15.6-6.091a10.524,10.524,0,0,0,1.358-1.815,3.029,3.029,0,0,0,.374-1.446A2.3,2.3,0,0,0,16.726-11a2.12,2.12,0,0,0-1.617-.642,2.511,2.511,0,0,0-1.885.69,2.635,2.635,0,0,0-.672,1.92H10.925a3.774,3.774,0,0,1,1.138-2.856,4.219,4.219,0,0,1,3.045-1.09,4.054,4.054,0,0,1,2.821.936,3.193,3.193,0,0,1,1.037,2.492q0,1.89-2.408,4.5L13.131-1.327h6.425ZM29.3-5.458a7.436,7.436,0,0,1-.976,4.245A3.47,3.47,0,0,1,25.277.176a3.5,3.5,0,0,1-3.032-1.358,7.058,7.058,0,0,1-1.02-4.056V-7.409A7.271,7.271,0,0,1,22.2-11.6a3.5,3.5,0,0,1,3.059-1.371A3.528,3.528,0,0,1,28.3-11.65a7.017,7.017,0,0,1,1,4.083ZM27.677-7.682a5.958,5.958,0,0,0-.58-3.01,2,2,0,0,0-1.837-.945,1.97,1.97,0,0,0-1.819.94A5.817,5.817,0,0,0,22.852-7.8v2.6a6.053,6.053,0,0,0,.6,3.063,1.993,1.993,0,0,0,1.824.989,1.966,1.966,0,0,0,1.789-.932,5.834,5.834,0,0,0,.611-2.936Z" transform="translate(1055.249 7205.147)" fill="#12263f"/>
    <path id="Trazado_141865" data-name="Trazado 141865" d="M7.523-3.3a1.83,1.83,0,0,0-.567-1.362,5.071,5.071,0,0,0-1.912-1A6.128,6.128,0,0,1,2.316-7.15a3.286,3.286,0,0,1-.857-2.333A3.378,3.378,0,0,1,2.3-11.848a3.567,3.567,0,0,1,2.307-1.1v-1.925h1.31v1.934a3.387,3.387,0,0,1,2.3,1.239,4.454,4.454,0,0,1,.822,2.839H7.418a3.061,3.061,0,0,0-.589-1.975,1.935,1.935,0,0,0-1.591-.732,2.2,2.2,0,0,0-1.6.541,2.015,2.015,0,0,0-.554,1.51,1.841,1.841,0,0,0,.584,1.431,5.384,5.384,0,0,0,1.925.969,8.1,8.1,0,0,1,2.092.959A3.365,3.365,0,0,1,8.793-4.939a3.519,3.519,0,0,1,.356,1.626A3.258,3.258,0,0,1,8.257-.923,3.956,3.956,0,0,1,5.757.149V1.828h-1.3V.149A3.79,3.79,0,0,1,1.894-1.015,3.93,3.93,0,0,1,.967-3.771H2.593A2.586,2.586,0,0,0,3.234-1.89a2.422,2.422,0,0,0,1.819.659,2.729,2.729,0,0,0,1.811-.554A1.87,1.87,0,0,0,7.523-3.3ZM19.2-5.458a7.436,7.436,0,0,1-.976,4.245A3.47,3.47,0,0,1,15.17.176a3.5,3.5,0,0,1-3.032-1.358,7.058,7.058,0,0,1-1.02-4.056V-7.409a7.271,7.271,0,0,1,.976-4.192,3.5,3.5,0,0,1,3.059-1.371,3.528,3.528,0,0,1,3.041,1.323,7.017,7.017,0,0,1,1,4.083ZM17.569-7.682a5.958,5.958,0,0,0-.58-3.01,2,2,0,0,0-1.837-.945,1.97,1.97,0,0,0-1.819.94A5.817,5.817,0,0,0,12.744-7.8v2.6a6.053,6.053,0,0,0,.6,3.063,1.993,1.993,0,0,0,1.824.989,1.966,1.966,0,0,0,1.789-.932,5.834,5.834,0,0,0,.611-2.936Z" transform="translate(517.784 7173.531)" fill="#12263f"/>
    <path id="Trazado_141866" data-name="Trazado 141866" d="M7.523-3.3a1.83,1.83,0,0,0-.567-1.362,5.071,5.071,0,0,0-1.912-1A6.128,6.128,0,0,1,2.316-7.15a3.286,3.286,0,0,1-.857-2.333A3.378,3.378,0,0,1,2.3-11.848a3.567,3.567,0,0,1,2.307-1.1v-1.925h1.31v1.934a3.387,3.387,0,0,1,2.3,1.239,4.454,4.454,0,0,1,.822,2.839H7.418a3.061,3.061,0,0,0-.589-1.975,1.935,1.935,0,0,0-1.591-.732,2.2,2.2,0,0,0-1.6.541,2.015,2.015,0,0,0-.554,1.51,1.841,1.841,0,0,0,.584,1.431,5.384,5.384,0,0,0,1.925.969,8.1,8.1,0,0,1,2.092.959A3.365,3.365,0,0,1,8.793-4.939a3.519,3.519,0,0,1,.356,1.626A3.258,3.258,0,0,1,8.257-.923,3.956,3.956,0,0,1,5.757.149V1.828h-1.3V.149A3.79,3.79,0,0,1,1.894-1.015,3.93,3.93,0,0,1,.967-3.771H2.593A2.586,2.586,0,0,0,3.234-1.89a2.422,2.422,0,0,0,1.819.659,2.729,2.729,0,0,0,1.811-.554A1.87,1.87,0,0,0,7.523-3.3ZM16.515,0H14.88V-10.837L11.6-9.633v-1.477l4.658-1.749h.255ZM21.48-.853a1.018,1.018,0,0,1,.25-.7.954.954,0,0,1,.751-.281.983.983,0,0,1,.76.281,1,1,0,0,1,.259.7.944.944,0,0,1-.259.677,1,1,0,0,1-.76.272.971.971,0,0,1-.751-.272A.962.962,0,0,1,21.48-.853ZM34.04-5.458a7.436,7.436,0,0,1-.976,4.245A3.47,3.47,0,0,1,30.015.176a3.5,3.5,0,0,1-3.032-1.358,7.058,7.058,0,0,1-1.02-4.056V-7.409a7.271,7.271,0,0,1,.976-4.192A3.5,3.5,0,0,1,30-12.973a3.528,3.528,0,0,1,3.041,1.323,7.017,7.017,0,0,1,1,4.083ZM32.414-7.682a5.958,5.958,0,0,0-.58-3.01A2,2,0,0,0,30-11.637a1.97,1.97,0,0,0-1.819.94A5.817,5.817,0,0,0,27.589-7.8v2.6a6.053,6.053,0,0,0,.6,3.063,1.993,1.993,0,0,0,1.824.989A1.966,1.966,0,0,0,31.8-2.083a5.834,5.834,0,0,0,.611-2.936ZM44.147-5.458a7.436,7.436,0,0,1-.976,4.245A3.47,3.47,0,0,1,40.122.176,3.5,3.5,0,0,1,37.09-1.182a7.058,7.058,0,0,1-1.02-4.056V-7.409a7.271,7.271,0,0,1,.976-4.192A3.5,3.5,0,0,1,40.1-12.973a3.528,3.528,0,0,1,3.041,1.323,7.017,7.017,0,0,1,1,4.083ZM42.521-7.682a5.958,5.958,0,0,0-.58-3.01,2,2,0,0,0-1.837-.945,1.97,1.97,0,0,0-1.819.94A5.817,5.817,0,0,0,37.7-7.8v2.6a6.053,6.053,0,0,0,.6,3.063,1.993,1.993,0,0,0,1.824.989,1.966,1.966,0,0,0,1.789-.932,5.834,5.834,0,0,0,.611-2.936ZM54.255-5.458a7.436,7.436,0,0,1-.976,4.245A3.47,3.47,0,0,1,50.229.176,3.5,3.5,0,0,1,47.2-1.182a7.058,7.058,0,0,1-1.02-4.056V-7.409a7.271,7.271,0,0,1,.976-4.192,3.5,3.5,0,0,1,3.059-1.371,3.528,3.528,0,0,1,3.041,1.323,7.017,7.017,0,0,1,1,4.083ZM52.629-7.682a5.958,5.958,0,0,0-.58-3.01,2,2,0,0,0-1.837-.945,1.97,1.97,0,0,0-1.819.94A5.817,5.817,0,0,0,47.8-7.8v2.6a6.053,6.053,0,0,0,.6,3.063,1.993,1.993,0,0,0,1.824.989,1.966,1.966,0,0,0,1.789-.932,5.834,5.834,0,0,0,.611-2.936Z" transform="translate(479.92 7137.14)" fill="#12263f"/>
    <path id="Trazado_141867" data-name="Trazado 141867" d="M7.523-3.3a1.83,1.83,0,0,0-.567-1.362,5.071,5.071,0,0,0-1.912-1A6.128,6.128,0,0,1,2.316-7.15a3.286,3.286,0,0,1-.857-2.333A3.378,3.378,0,0,1,2.3-11.848a3.567,3.567,0,0,1,2.307-1.1v-1.925h1.31v1.934a3.387,3.387,0,0,1,2.3,1.239,4.454,4.454,0,0,1,.822,2.839H7.418a3.061,3.061,0,0,0-.589-1.975,1.935,1.935,0,0,0-1.591-.732,2.2,2.2,0,0,0-1.6.541,2.015,2.015,0,0,0-.554,1.51,1.841,1.841,0,0,0,.584,1.431,5.384,5.384,0,0,0,1.925.969,8.1,8.1,0,0,1,2.092.959A3.365,3.365,0,0,1,8.793-4.939a3.519,3.519,0,0,1,.356,1.626A3.258,3.258,0,0,1,8.257-.923,3.956,3.956,0,0,1,5.757.149V1.828h-1.3V.149A3.79,3.79,0,0,1,1.894-1.015,3.93,3.93,0,0,1,.967-3.771H2.593A2.586,2.586,0,0,0,3.234-1.89a2.422,2.422,0,0,0,1.819.659,2.729,2.729,0,0,0,1.811-.554A1.87,1.87,0,0,0,7.523-3.3ZM19.556,0H11.171V-1.169L15.6-6.091a10.524,10.524,0,0,0,1.358-1.815,3.029,3.029,0,0,0,.374-1.446A2.3,2.3,0,0,0,16.726-11a2.12,2.12,0,0,0-1.617-.642,2.511,2.511,0,0,0-1.885.69,2.635,2.635,0,0,0-.672,1.92H10.925a3.774,3.774,0,0,1,1.138-2.856,4.219,4.219,0,0,1,3.045-1.09,4.054,4.054,0,0,1,2.821.936,3.193,3.193,0,0,1,1.037,2.492q0,1.89-2.408,4.5L13.131-1.327h6.425Zm1.837,2.549-.923-.633a4.241,4.241,0,0,0,.861-2.373V-1.925h1.591V-.65a4,4,0,0,1-.435,1.775A4.156,4.156,0,0,1,21.393,2.549ZM32.836-5.458a7.436,7.436,0,0,1-.976,4.245A3.47,3.47,0,0,1,28.811.176a3.5,3.5,0,0,1-3.032-1.358,7.058,7.058,0,0,1-1.02-4.056V-7.409a7.271,7.271,0,0,1,.976-4.192,3.5,3.5,0,0,1,3.059-1.371,3.528,3.528,0,0,1,3.041,1.323,7.017,7.017,0,0,1,1,4.083ZM31.21-7.682a5.958,5.958,0,0,0-.58-3.01,2,2,0,0,0-1.837-.945,1.97,1.97,0,0,0-1.819.94A5.817,5.817,0,0,0,26.385-7.8v2.6a6.053,6.053,0,0,0,.6,3.063,1.993,1.993,0,0,0,1.824.989A1.966,1.966,0,0,0,30.6-2.083a5.834,5.834,0,0,0,.611-2.936ZM42.943-5.458a7.436,7.436,0,0,1-.976,4.245A3.47,3.47,0,0,1,38.918.176a3.5,3.5,0,0,1-3.032-1.358,7.058,7.058,0,0,1-1.02-4.056V-7.409a7.271,7.271,0,0,1,.976-4.192A3.5,3.5,0,0,1,38.9-12.973a3.528,3.528,0,0,1,3.041,1.323,7.017,7.017,0,0,1,1,4.083ZM41.317-7.682a5.958,5.958,0,0,0-.58-3.01,2,2,0,0,0-1.837-.945,1.97,1.97,0,0,0-1.819.94A5.817,5.817,0,0,0,36.492-7.8v2.6a6.053,6.053,0,0,0,.6,3.063,1.993,1.993,0,0,0,1.824.989,1.966,1.966,0,0,0,1.789-.932,5.834,5.834,0,0,0,.611-2.936ZM53.051-5.458a7.436,7.436,0,0,1-.976,4.245A3.47,3.47,0,0,1,49.025.176a3.5,3.5,0,0,1-3.032-1.358,7.058,7.058,0,0,1-1.02-4.056V-7.409a7.271,7.271,0,0,1,.976-4.192,3.5,3.5,0,0,1,3.059-1.371,3.528,3.528,0,0,1,3.041,1.323,7.017,7.017,0,0,1,1,4.083ZM51.425-7.682a5.958,5.958,0,0,0-.58-3.01,2,2,0,0,0-1.837-.945,1.97,1.97,0,0,0-1.819.94A5.817,5.817,0,0,0,46.6-7.8v2.6a6.053,6.053,0,0,0,.6,3.063,1.993,1.993,0,0,0,1.824.989,1.966,1.966,0,0,0,1.789-.932,5.834,5.834,0,0,0,.611-2.936Z" transform="translate(479.92 7104.68)" fill="#12263f"/>
    <path id="Trazado_141868" data-name="Trazado 141868" d="M7.523-3.3a1.83,1.83,0,0,0-.567-1.362,5.071,5.071,0,0,0-1.912-1A6.128,6.128,0,0,1,2.316-7.15a3.286,3.286,0,0,1-.857-2.333A3.378,3.378,0,0,1,2.3-11.848a3.567,3.567,0,0,1,2.307-1.1v-1.925h1.31v1.934a3.387,3.387,0,0,1,2.3,1.239,4.454,4.454,0,0,1,.822,2.839H7.418a3.061,3.061,0,0,0-.589-1.975,1.935,1.935,0,0,0-1.591-.732,2.2,2.2,0,0,0-1.6.541,2.015,2.015,0,0,0-.554,1.51,1.841,1.841,0,0,0,.584,1.431,5.384,5.384,0,0,0,1.925.969,8.1,8.1,0,0,1,2.092.959A3.365,3.365,0,0,1,8.793-4.939a3.519,3.519,0,0,1,.356,1.626A3.258,3.258,0,0,1,8.257-.923,3.956,3.956,0,0,1,5.757.149V1.828h-1.3V.149A3.79,3.79,0,0,1,1.894-1.015,3.93,3.93,0,0,1,.967-3.771H2.593A2.586,2.586,0,0,0,3.234-1.89a2.422,2.422,0,0,0,1.819.659,2.729,2.729,0,0,0,1.811-.554A1.87,1.87,0,0,0,7.523-3.3Zm6.012-3.894h1.222A2.685,2.685,0,0,0,16.567-7.8a2.026,2.026,0,0,0,.659-1.591,1.985,1.985,0,0,0-2.241-2.25,2.331,2.331,0,0,0-1.683.6,2.107,2.107,0,0,0-.628,1.6H11.048a3.264,3.264,0,0,1,1.112-2.527,4.05,4.05,0,0,1,2.826-1.006,4,4,0,0,1,2.839.958,3.461,3.461,0,0,1,1.028,2.663,2.809,2.809,0,0,1-.541,1.617A3.264,3.264,0,0,1,16.84-6.565a3.145,3.145,0,0,1,1.63,1.107,3.076,3.076,0,0,1,.576,1.89A3.491,3.491,0,0,1,17.921-.835,4.213,4.213,0,0,1,14.994.176,4.324,4.324,0,0,1,12.063-.8a3.236,3.236,0,0,1-1.129-2.575h1.635a2.092,2.092,0,0,0,.659,1.617,2.507,2.507,0,0,0,1.767.606,2.46,2.46,0,0,0,1.8-.615,2.371,2.371,0,0,0,.624-1.767,2.151,2.151,0,0,0-.686-1.714,2.987,2.987,0,0,0-1.978-.615H13.535Zm7.857,9.738-.923-.633a4.241,4.241,0,0,0,.861-2.373V-1.925h1.591V-.65a4,4,0,0,1-.435,1.775A4.156,4.156,0,0,1,21.393,2.549ZM32.836-5.458a7.436,7.436,0,0,1-.976,4.245A3.47,3.47,0,0,1,28.811.176a3.5,3.5,0,0,1-3.032-1.358,7.058,7.058,0,0,1-1.02-4.056V-7.409a7.271,7.271,0,0,1,.976-4.192,3.5,3.5,0,0,1,3.059-1.371,3.528,3.528,0,0,1,3.041,1.323,7.017,7.017,0,0,1,1,4.083ZM31.21-7.682a5.958,5.958,0,0,0-.58-3.01,2,2,0,0,0-1.837-.945,1.97,1.97,0,0,0-1.819.94A5.817,5.817,0,0,0,26.385-7.8v2.6a6.053,6.053,0,0,0,.6,3.063,1.993,1.993,0,0,0,1.824.989A1.966,1.966,0,0,0,30.6-2.083a5.834,5.834,0,0,0,.611-2.936ZM42.943-5.458a7.436,7.436,0,0,1-.976,4.245A3.47,3.47,0,0,1,38.918.176a3.5,3.5,0,0,1-3.032-1.358,7.058,7.058,0,0,1-1.02-4.056V-7.409a7.271,7.271,0,0,1,.976-4.192A3.5,3.5,0,0,1,38.9-12.973a3.528,3.528,0,0,1,3.041,1.323,7.017,7.017,0,0,1,1,4.083ZM41.317-7.682a5.958,5.958,0,0,0-.58-3.01,2,2,0,0,0-1.837-.945,1.97,1.97,0,0,0-1.819.94A5.817,5.817,0,0,0,36.492-7.8v2.6a6.053,6.053,0,0,0,.6,3.063,1.993,1.993,0,0,0,1.824.989,1.966,1.966,0,0,0,1.789-.932,5.834,5.834,0,0,0,.611-2.936ZM53.051-5.458a7.436,7.436,0,0,1-.976,4.245A3.47,3.47,0,0,1,49.025.176a3.5,3.5,0,0,1-3.032-1.358,7.058,7.058,0,0,1-1.02-4.056V-7.409a7.271,7.271,0,0,1,.976-4.192,3.5,3.5,0,0,1,3.059-1.371,3.528,3.528,0,0,1,3.041,1.323,7.017,7.017,0,0,1,1,4.083ZM51.425-7.682a5.958,5.958,0,0,0-.58-3.01,2,2,0,0,0-1.837-.945,1.97,1.97,0,0,0-1.819.94A5.817,5.817,0,0,0,46.6-7.8v2.6a6.053,6.053,0,0,0,.6,3.063,1.993,1.993,0,0,0,1.824.989,1.966,1.966,0,0,0,1.789-.932,5.834,5.834,0,0,0,.611-2.936Z" transform="translate(479.92 7072.217)" fill="#12263f"/>
    <path id="Trazado_141869" data-name="Trazado 141869" d="M7.523-3.3a1.83,1.83,0,0,0-.567-1.362,5.071,5.071,0,0,0-1.912-1A6.128,6.128,0,0,1,2.316-7.15a3.286,3.286,0,0,1-.857-2.333A3.378,3.378,0,0,1,2.3-11.848a3.567,3.567,0,0,1,2.307-1.1v-1.925h1.31v1.934a3.387,3.387,0,0,1,2.3,1.239,4.454,4.454,0,0,1,.822,2.839H7.418a3.061,3.061,0,0,0-.589-1.975,1.935,1.935,0,0,0-1.591-.732,2.2,2.2,0,0,0-1.6.541,2.015,2.015,0,0,0-.554,1.51,1.841,1.841,0,0,0,.584,1.431,5.384,5.384,0,0,0,1.925.969,8.1,8.1,0,0,1,2.092.959A3.365,3.365,0,0,1,8.793-4.939a3.519,3.519,0,0,1,.356,1.626A3.258,3.258,0,0,1,8.257-.923,3.956,3.956,0,0,1,5.757.149V1.828h-1.3V.149A3.79,3.79,0,0,1,1.894-1.015,3.93,3.93,0,0,1,.967-3.771H2.593A2.586,2.586,0,0,0,3.234-1.89a2.422,2.422,0,0,0,1.819.659,2.729,2.729,0,0,0,1.811-.554A1.87,1.87,0,0,0,7.523-3.3Zm10.512-1h1.775v1.327H18.035V0H16.4V-2.971H10.573v-.958L16.3-12.8h1.731Zm-5.616,0H16.4v-6.275l-.193.352ZM21.48-.853a1.018,1.018,0,0,1,.25-.7.954.954,0,0,1,.751-.281.983.983,0,0,1,.76.281,1,1,0,0,1,.259.7.944.944,0,0,1-.259.677,1,1,0,0,1-.76.272.971.971,0,0,1-.751-.272A.962.962,0,0,1,21.48-.853ZM34.04-5.458a7.436,7.436,0,0,1-.976,4.245A3.47,3.47,0,0,1,30.015.176a3.5,3.5,0,0,1-3.032-1.358,7.058,7.058,0,0,1-1.02-4.056V-7.409a7.271,7.271,0,0,1,.976-4.192A3.5,3.5,0,0,1,30-12.973a3.528,3.528,0,0,1,3.041,1.323,7.017,7.017,0,0,1,1,4.083ZM32.414-7.682a5.958,5.958,0,0,0-.58-3.01A2,2,0,0,0,30-11.637a1.97,1.97,0,0,0-1.819.94A5.817,5.817,0,0,0,27.589-7.8v2.6a6.053,6.053,0,0,0,.6,3.063,1.993,1.993,0,0,0,1.824.989A1.966,1.966,0,0,0,31.8-2.083a5.834,5.834,0,0,0,.611-2.936ZM44.147-5.458a7.436,7.436,0,0,1-.976,4.245A3.47,3.47,0,0,1,40.122.176,3.5,3.5,0,0,1,37.09-1.182a7.058,7.058,0,0,1-1.02-4.056V-7.409a7.271,7.271,0,0,1,.976-4.192A3.5,3.5,0,0,1,40.1-12.973a3.528,3.528,0,0,1,3.041,1.323,7.017,7.017,0,0,1,1,4.083ZM42.521-7.682a5.958,5.958,0,0,0-.58-3.01,2,2,0,0,0-1.837-.945,1.97,1.97,0,0,0-1.819.94A5.817,5.817,0,0,0,37.7-7.8v2.6a6.053,6.053,0,0,0,.6,3.063,1.993,1.993,0,0,0,1.824.989,1.966,1.966,0,0,0,1.789-.932,5.834,5.834,0,0,0,.611-2.936ZM54.255-5.458a7.436,7.436,0,0,1-.976,4.245A3.47,3.47,0,0,1,50.229.176,3.5,3.5,0,0,1,47.2-1.182a7.058,7.058,0,0,1-1.02-4.056V-7.409a7.271,7.271,0,0,1,.976-4.192,3.5,3.5,0,0,1,3.059-1.371,3.528,3.528,0,0,1,3.041,1.323,7.017,7.017,0,0,1,1,4.083ZM52.629-7.682a5.958,5.958,0,0,0-.58-3.01,2,2,0,0,0-1.837-.945,1.97,1.97,0,0,0-1.819.94A5.817,5.817,0,0,0,47.8-7.8v2.6a6.053,6.053,0,0,0,.6,3.063,1.993,1.993,0,0,0,1.824.989,1.966,1.966,0,0,0,1.789-.932,5.834,5.834,0,0,0,.611-2.936Z" transform="translate(479.92 7037.766)" fill="#12263f"/>
    <path id="Trazado_141873" data-name="Trazado 141873" d="M7.523-3.3a1.83,1.83,0,0,0-.567-1.362,5.071,5.071,0,0,0-1.912-1A6.128,6.128,0,0,1,2.316-7.15a3.286,3.286,0,0,1-.857-2.333A3.378,3.378,0,0,1,2.3-11.848a3.567,3.567,0,0,1,2.307-1.1v-1.925h1.31v1.934a3.387,3.387,0,0,1,2.3,1.239,4.454,4.454,0,0,1,.822,2.839H7.418a3.061,3.061,0,0,0-.589-1.975,1.935,1.935,0,0,0-1.591-.732,2.2,2.2,0,0,0-1.6.541,2.015,2.015,0,0,0-.554,1.51,1.841,1.841,0,0,0,.584,1.431,5.384,5.384,0,0,0,1.925.969,8.1,8.1,0,0,1,2.092.959A3.365,3.365,0,0,1,8.793-4.939a3.519,3.519,0,0,1,.356,1.626A3.258,3.258,0,0,1,8.257-.923,3.956,3.956,0,0,1,5.757.149V1.828h-1.3V.149A3.79,3.79,0,0,1,1.894-1.015,3.93,3.93,0,0,1,.967-3.771H2.593A2.586,2.586,0,0,0,3.234-1.89a2.422,2.422,0,0,0,1.819.659,2.729,2.729,0,0,0,1.811-.554A1.87,1.87,0,0,0,7.523-3.3Zm4.395-3.12.65-6.381h6.557v1.5H13.948L13.562-7.8A4.13,4.13,0,0,1,15.7-8.358,3.531,3.531,0,0,1,18.475-7.2,4.53,4.53,0,0,1,19.5-4.078,4.372,4.372,0,0,1,18.435-.962,3.892,3.892,0,0,1,15.451.176a4.045,4.045,0,0,1-2.769-.94,3.754,3.754,0,0,1-1.222-2.6H13a2.582,2.582,0,0,0,.782,1.657,2.432,2.432,0,0,0,1.67.558,2.194,2.194,0,0,0,1.78-.773,3.233,3.233,0,0,0,.646-2.136,2.968,2.968,0,0,0-.7-2.061A2.377,2.377,0,0,0,15.319-6.9a2.681,2.681,0,0,0-1.67.466l-.431.352ZM21.48-.853a1.018,1.018,0,0,1,.25-.7.954.954,0,0,1,.751-.281.983.983,0,0,1,.76.281,1,1,0,0,1,.259.7.944.944,0,0,1-.259.677,1,1,0,0,1-.76.272.971.971,0,0,1-.751-.272A.962.962,0,0,1,21.48-.853ZM34.04-5.458a7.436,7.436,0,0,1-.976,4.245A3.47,3.47,0,0,1,30.015.176a3.5,3.5,0,0,1-3.032-1.358,7.058,7.058,0,0,1-1.02-4.056V-7.409a7.271,7.271,0,0,1,.976-4.192A3.5,3.5,0,0,1,30-12.973a3.528,3.528,0,0,1,3.041,1.323,7.017,7.017,0,0,1,1,4.083ZM32.414-7.682a5.958,5.958,0,0,0-.58-3.01A2,2,0,0,0,30-11.637a1.97,1.97,0,0,0-1.819.94A5.817,5.817,0,0,0,27.589-7.8v2.6a6.053,6.053,0,0,0,.6,3.063,1.993,1.993,0,0,0,1.824.989A1.966,1.966,0,0,0,31.8-2.083a5.834,5.834,0,0,0,.611-2.936ZM44.147-5.458a7.436,7.436,0,0,1-.976,4.245A3.47,3.47,0,0,1,40.122.176,3.5,3.5,0,0,1,37.09-1.182a7.058,7.058,0,0,1-1.02-4.056V-7.409a7.271,7.271,0,0,1,.976-4.192A3.5,3.5,0,0,1,40.1-12.973a3.528,3.528,0,0,1,3.041,1.323,7.017,7.017,0,0,1,1,4.083ZM42.521-7.682a5.958,5.958,0,0,0-.58-3.01,2,2,0,0,0-1.837-.945,1.97,1.97,0,0,0-1.819.94A5.817,5.817,0,0,0,37.7-7.8v2.6a6.053,6.053,0,0,0,.6,3.063,1.993,1.993,0,0,0,1.824.989,1.966,1.966,0,0,0,1.789-.932,5.834,5.834,0,0,0,.611-2.936ZM54.255-5.458a7.436,7.436,0,0,1-.976,4.245A3.47,3.47,0,0,1,50.229.176,3.5,3.5,0,0,1,47.2-1.182a7.058,7.058,0,0,1-1.02-4.056V-7.409a7.271,7.271,0,0,1,.976-4.192,3.5,3.5,0,0,1,3.059-1.371,3.528,3.528,0,0,1,3.041,1.323,7.017,7.017,0,0,1,1,4.083ZM52.629-7.682a5.958,5.958,0,0,0-.58-3.01,2,2,0,0,0-1.837-.945,1.97,1.97,0,0,0-1.819.94A5.817,5.817,0,0,0,47.8-7.8v2.6a6.053,6.053,0,0,0,.6,3.063,1.993,1.993,0,0,0,1.824.989,1.966,1.966,0,0,0,1.789-.932,5.834,5.834,0,0,0,.611-2.936Z" transform="translate(479.92 7005.302)" fill="#12263f"/>
    <path id="Trazado_141874" data-name="Trazado 141874" d="M7.523-3.3a1.83,1.83,0,0,0-.567-1.362,5.071,5.071,0,0,0-1.912-1A6.128,6.128,0,0,1,2.316-7.15a3.286,3.286,0,0,1-.857-2.333A3.378,3.378,0,0,1,2.3-11.848a3.567,3.567,0,0,1,2.307-1.1v-1.925h1.31v1.934a3.387,3.387,0,0,1,2.3,1.239,4.454,4.454,0,0,1,.822,2.839H7.418a3.061,3.061,0,0,0-.589-1.975,1.935,1.935,0,0,0-1.591-.732,2.2,2.2,0,0,0-1.6.541,2.015,2.015,0,0,0-.554,1.51,1.841,1.841,0,0,0,.584,1.431,5.384,5.384,0,0,0,1.925.969,8.1,8.1,0,0,1,2.092.959A3.365,3.365,0,0,1,8.793-4.939a3.519,3.519,0,0,1,.356,1.626A3.258,3.258,0,0,1,8.257-.923,3.956,3.956,0,0,1,5.757.149V1.828h-1.3V.149A3.79,3.79,0,0,1,1.894-1.015,3.93,3.93,0,0,1,.967-3.771H2.593A2.586,2.586,0,0,0,3.234-1.89a2.422,2.422,0,0,0,1.819.659,2.729,2.729,0,0,0,1.811-.554A1.87,1.87,0,0,0,7.523-3.3Zm10.028-9.51v1.38h-.3A4.281,4.281,0,0,0,14.229-10.3a4.681,4.681,0,0,0-1.3,3.067,3.471,3.471,0,0,1,2.76-1.16,3.319,3.319,0,0,1,2.667,1.178,4.543,4.543,0,0,1,1,3.041,4.528,4.528,0,0,1-1.077,3.164A3.707,3.707,0,0,1,15.39.176,3.653,3.653,0,0,1,12.41-1.235a5.591,5.591,0,0,1-1.143-3.634v-.624a8.424,8.424,0,0,1,1.507-5.4,5.536,5.536,0,0,1,4.487-1.912ZM15.416-7.04a2.594,2.594,0,0,0-1.538.5A2.61,2.61,0,0,0,12.9-5.282v.6a4.2,4.2,0,0,0,.712,2.549,2.133,2.133,0,0,0,1.775.967,2.067,2.067,0,0,0,1.727-.809A3.355,3.355,0,0,0,17.745-4.1a3.356,3.356,0,0,0-.637-2.131A2.042,2.042,0,0,0,15.416-7.04ZM21.48-.853a1.018,1.018,0,0,1,.25-.7.954.954,0,0,1,.751-.281.983.983,0,0,1,.76.281,1,1,0,0,1,.259.7.944.944,0,0,1-.259.677,1,1,0,0,1-.76.272.971.971,0,0,1-.751-.272A.962.962,0,0,1,21.48-.853ZM34.04-5.458a7.436,7.436,0,0,1-.976,4.245A3.47,3.47,0,0,1,30.015.176a3.5,3.5,0,0,1-3.032-1.358,7.058,7.058,0,0,1-1.02-4.056V-7.409a7.271,7.271,0,0,1,.976-4.192A3.5,3.5,0,0,1,30-12.973a3.528,3.528,0,0,1,3.041,1.323,7.017,7.017,0,0,1,1,4.083ZM32.414-7.682a5.958,5.958,0,0,0-.58-3.01A2,2,0,0,0,30-11.637a1.97,1.97,0,0,0-1.819.94A5.817,5.817,0,0,0,27.589-7.8v2.6a6.053,6.053,0,0,0,.6,3.063,1.993,1.993,0,0,0,1.824.989A1.966,1.966,0,0,0,31.8-2.083a5.834,5.834,0,0,0,.611-2.936ZM44.147-5.458a7.436,7.436,0,0,1-.976,4.245A3.47,3.47,0,0,1,40.122.176,3.5,3.5,0,0,1,37.09-1.182a7.058,7.058,0,0,1-1.02-4.056V-7.409a7.271,7.271,0,0,1,.976-4.192A3.5,3.5,0,0,1,40.1-12.973a3.528,3.528,0,0,1,3.041,1.323,7.017,7.017,0,0,1,1,4.083ZM42.521-7.682a5.958,5.958,0,0,0-.58-3.01,2,2,0,0,0-1.837-.945,1.97,1.97,0,0,0-1.819.94A5.817,5.817,0,0,0,37.7-7.8v2.6a6.053,6.053,0,0,0,.6,3.063,1.993,1.993,0,0,0,1.824.989,1.966,1.966,0,0,0,1.789-.932,5.834,5.834,0,0,0,.611-2.936ZM54.255-5.458a7.436,7.436,0,0,1-.976,4.245A3.47,3.47,0,0,1,50.229.176,3.5,3.5,0,0,1,47.2-1.182a7.058,7.058,0,0,1-1.02-4.056V-7.409a7.271,7.271,0,0,1,.976-4.192,3.5,3.5,0,0,1,3.059-1.371,3.528,3.528,0,0,1,3.041,1.323,7.017,7.017,0,0,1,1,4.083ZM52.629-7.682a5.958,5.958,0,0,0-.58-3.01,2,2,0,0,0-1.837-.945,1.97,1.97,0,0,0-1.819.94A5.817,5.817,0,0,0,47.8-7.8v2.6a6.053,6.053,0,0,0,.6,3.063,1.993,1.993,0,0,0,1.824.989,1.966,1.966,0,0,0,1.789-.932,5.834,5.834,0,0,0,.611-2.936Z" transform="translate(479.92 6969.359)" fill="#12263f"/>
    <path id="Trazado_141875" data-name="Trazado 141875" d="M0,0H535.055" transform="translate(548.767 6964.616)" fill="none" stroke="#e8e8e8" stroke-width="1"/>
    <path id="Trazado_141876" data-name="Trazado 141876" d="M0,0H535.055" transform="translate(548.767 6998.595)" fill="none" stroke="#e8e8e8" stroke-width="1"/>
    <path id="Trazado_141870" data-name="Trazado 141870" d="M0,0H535.055" transform="translate(548.767 7031.91)" fill="none" stroke="#e8e8e8" stroke-width="1"/>
    <path id="Trazado_141871" data-name="Trazado 141871" d="M0,0H535.055" transform="translate(548.767 7065.223)" fill="none" stroke="#e8e8e8" stroke-width="1"/>
    <path id="Trazado_141862" data-name="Trazado 141862" d="M0,0H535.055" transform="translate(548.767 7098.537)" fill="none" stroke="#e8e8e8" stroke-width="1"/>
    <path id="Trazado_141863" data-name="Trazado 141863" d="M0,0H535.055" transform="translate(548.767 7132.518)" fill="none" stroke="#e8e8e8" stroke-width="1"/>
    <path id="Trazado_141864" data-name="Trazado 141864" d="M0,0H535.055" transform="translate(548.767 7166.498)" fill="none" stroke="#e8e8e8" stroke-width="1"/>
    <path id="Trazado_140056" data-name="Trazado 140056" d="M0,0,411.63,132.579" transform="translate(657.62 6999.929)" fill="none" stroke="#cb3921" stroke-linecap="round" stroke-width="4"/>
    <g id="Grupo_82046" data-name="Grupo 82046" transform="translate(424.235 7227.438)">
      <text id="Demanda_Inelástica" data-name="Demanda Inelástica" transform="matrix(1, 0, 0, 1, 71.275, 15)" fill="#12263f" font-size="16" font-family="Roboto-Regular, Roboto"><tspan x="0" y="0">Demanda Inelástica</tspan></text>
      <path id="Trazado_140057" data-name="Trazado 140057" d="M0,0H62.1" transform="translate(0 10.05)" fill="none" stroke="#cb3921" stroke-linecap="round" stroke-width="4"/>
    </g>
  </g>
</svg>
