<svg xmlns="http://www.w3.org/2000/svg" width="144.438" height="140" viewBox="0 0 144.438 140">
  <g id="Grupo_82193" data-name="Grupo 82193" transform="translate(-285 -2685.07)">
    <g id="Grupo_82192" data-name="Grupo 82192" transform="translate(285 2685.07)">
      <circle id="Elipse_4679" data-name="Elipse 4679" cx="55.115" cy="55.115" r="55.115" transform="translate(0 29.77)" fill="#2a94ee"/>
      <g id="selectivo" transform="translate(40.438)">
        <path id="Trazado_139775" data-name="Trazado 139775" d="M8.938,0A8.938,8.938,0,1,1,0,8.938,8.938,8.938,0,0,1,8.938,0Z" transform="translate(53.136 2.629)" fill="#2a94ee"/>
        <path id="Trazado_139764" data-name="Trazado 139764" d="M298.594,133.356a12.356,12.356,0,1,0-24.711,0Z" transform="translate(-217.182 -89.191)" fill="#d64626"/>
        <circle id="Elipse_4534" data-name="Elipse 4534" cx="8.938" cy="8.938" r="8.938" transform="translate(20.551 26.289)" fill="#fed947"/>
        <path id="Trazado_139765" data-name="Trazado 139765" d="M170.489,168H79.215a2.629,2.629,0,0,0-2.181,4.1l35.726,53.126V255.8l24.186-10.532V225.222L172.67,172.1A2.629,2.629,0,0,0,170.489,168Z" transform="translate(-71.748 -123.835)" fill="#fff"/>
        <path id="Trazado_139766" data-name="Trazado 139766" d="M170.489,168H79.215a2.629,2.629,0,0,0-2.181,4.1l5.731,8.523h84.174l5.731-8.523A2.629,2.629,0,0,0,170.489,168Z" transform="translate(-71.748 -123.835)" fill="#e8e8e8"/>
        <path id="Trazado_139767" data-name="Trazado 139767" d="M167.766,110.663a5.247,5.247,0,0,0-4.641-2.786H148.191a14.981,14.981,0,0,0-29.5,0h-15.13a11.567,11.567,0,1,0-19.375,0H71.852a5.258,5.258,0,0,0-4.363,8.192l35.278,52.461V198.31a2.629,2.629,0,0,0,3.679,2.41l24.186-10.532a2.629,2.629,0,0,0,1.579-2.41V168.529l35.278-52.461A5.247,5.247,0,0,0,167.766,110.663Zm-34.324-9.884a9.742,9.742,0,0,1,9.363,7.1H124.08A9.742,9.742,0,0,1,133.442,100.778Zm-45.876.789a6.309,6.309,0,1,1,6.309,6.309A6.317,6.317,0,0,1,87.566,101.567ZM127.4,166.26a2.629,2.629,0,0,0-.447,1.467v18.328L108.025,194.3V170.356h9.5a2.629,2.629,0,0,0,0-5.258H106.8L80.338,125.753h53.1a2.629,2.629,0,0,0,0-5.258H76.8l-4.95-7.361h91.273Z" transform="translate(-64.385 -66.34)"/>
        <path id="Trazado_139768" data-name="Trazado 139768" d="M261.891,23.134a11.567,11.567,0,1,0-11.567-11.567A11.58,11.58,0,0,0,261.891,23.134Zm0-17.876a6.309,6.309,0,1,1-6.309,6.309A6.317,6.317,0,0,1,261.891,5.258Z" transform="translate(-199.816)"/>
        <path id="Trazado_139769" data-name="Trazado 139769" d="M393.826,68.532a2.629,2.629,0,0,0,2.629-2.629V50.962a2.629,2.629,0,0,0-5.258,0V65.9A2.629,2.629,0,0,0,393.826,68.532Z" transform="translate(-303.656 -35.627)"/>
        <path id="Trazado_139770" data-name="Trazado 139770" d="M393.826,20.758a2.63,2.63,0,1,0-1.859-.77A2.649,2.649,0,0,0,393.826,20.758Z" transform="translate(-303.656 -11.425)"/>
        <path id="Trazado_139771" data-name="Trazado 139771" d="M197,28.791a2.629,2.629,0,0,0,2.629-2.629V15.384a2.629,2.629,0,0,0-5.258,0V26.162A2.629,2.629,0,0,0,197,28.791Z" transform="translate(-158.576 -9.402)"/>
        <path id="Trazado_139772" data-name="Trazado 139772" d="M60.826,22.39a2.629,2.629,0,0,0,2.629-2.629V2.629a2.629,2.629,0,1,0-5.258,0V19.761A2.629,2.629,0,0,0,60.826,22.39Z" transform="translate(-58.197 0)"/>
        <path id="Trazado_139773" data-name="Trazado 139773" d="M62.684,107.157a2.628,2.628,0,1,0-1.859.77A2.649,2.649,0,0,0,62.684,107.157Z" transform="translate(-58.197 -75.679)"/>
        <path id="Trazado_139774" data-name="Trazado 139774" d="M356.117,206.77a2.627,2.627,0,1,0,1.859-.77A2.637,2.637,0,0,0,356.117,206.77Z" transform="translate(-277.23 -151.845)"/>
      </g>
    </g>
  </g>
</svg>
