<svg xmlns="http://www.w3.org/2000/svg" width="140" height="140" viewBox="0 0 140 140">
  <g id="demanda-2" transform="translate(-1 -1)">
    <path id="Trazado_139754" data-name="Trazado 139754" d="M90.135,29.921l-.023.023-6.887,6.887L69.677,50.379,56.129,63.928,47.1,72.96H24.967l2.777,4.629a9.073,9.073,0,0,1,1.287,4.652v16.89a5.445,5.445,0,0,1-5.442,5.442H96.774V28.16a21.673,21.673,0,0,1-6.639,1.761Z" transform="translate(28.42 34.169)" fill="#2a94ee"/>
    <path id="Trazado_139755" data-name="Trazado 139755" d="M90.855,30.007l-6.887,6.887L70.419,50.442,56.871,63.991l-9.032,9.032H25.71L23,68.507V63.991H43.323L79.181,28.133l.023-.023a22.3,22.3,0,0,0,9.281,2.01c.813,0,1.6-.045,2.371-.113Z" transform="translate(27.677 34.106)" fill="#ccd1d9"/>
    <path id="Trazado_139756" data-name="Trazado 139756" d="M49.9,62.313V79.2a5.445,5.445,0,0,1-5.442,5.442h-.406A5.445,5.445,0,0,1,38.613,79.2V64.684a2.232,2.232,0,0,0-.339-1.2L31.839,53.032H29.581L17.455,81.348A5.449,5.449,0,0,1,7,79.2v-.248a5.218,5.218,0,0,1,.429-2.1L18.29,50.774V44H43.129v4.516l2.71,4.516,2.777,4.629A9.073,9.073,0,0,1,49.9,62.313Z" transform="translate(7.548 54.097)" fill="#cf9e76"/>
    <path id="Trazado_139757" data-name="Trazado 139757" d="M74.258,20.045V34.113L66.739,46.329A26.42,26.42,0,0,1,49.419,58.387V74.194H24.581V60.645H22.323L12.432,84.4A5.424,5.424,0,0,1,2,82.323v-.316A5.575,5.575,0,0,1,2.384,80L11.01,58.455A18.056,18.056,0,0,1,27.787,47.1H42.013a18.068,18.068,0,0,0,15.016-8.039l11.155-16.71A5.253,5.253,0,0,1,72.565,20h.926C73.761,20,74.01,20.023,74.258,20.045Z" transform="translate(1.258 23.903)" fill="#d64626"/>
    <ellipse id="Elipse_4530" data-name="Elipse 4530" cx="13.833" cy="12.968" rx="13.833" ry="12.968" transform="translate(23.468 44.181)" fill="#f0d0b4"/>
    <path id="Trazado_139758" data-name="Trazado 139758" d="M38.516,20.277a21.127,21.127,0,0,0,4.516-.5V45.115a4.549,4.549,0,0,1-4.516,4.516A4.529,4.529,0,0,1,34,45.115V19.78A21.127,21.127,0,0,0,38.516,20.277Z" transform="translate(41.516 23.626)" fill="#969faa"/>
    <path id="Trazado_139759" data-name="Trazado 139759" d="M64.581,9a22.574,22.574,0,0,1,9.032,43.265,21.674,21.674,0,0,1-6.639,1.761l-.023.023c-.768.068-1.558.113-2.371.113a22.3,22.3,0,0,1-9.281-2.01A22.567,22.567,0,0,1,42,31.581a20.544,20.544,0,0,1,.226-3.139,20.133,20.133,0,0,0,6.435-12.848v-.023A22.5,22.5,0,0,1,64.581,9Z" transform="translate(51.581 10.065)" fill="#fed947"/>
    <path id="Trazado_139760" data-name="Trazado 139760" d="M51.839,42.148a20.776,20.776,0,0,1-9.032,0A20.4,20.4,0,1,1,67.532,24.377V24.4A20.4,20.4,0,0,1,51.839,42.148Z" transform="translate(32.71 1.258)" fill="#e6e9ed"/>
    <circle id="Elipse_4531" data-name="Elipse 4531" cx="11.239" cy="11.239" r="11.239" transform="translate(68.424 11.329)" fill="#69d6f4"/>
    <path id="Trazado_139761" data-name="Trazado 139761" d="M57.1,18.548A13.548,13.548,0,1,0,43.548,32.1,13.562,13.562,0,0,0,57.1,18.548Zm-22.581,0a9.032,9.032,0,1,1,9.032,9.032A9.041,9.041,0,0,1,34.516,18.548Z" transform="translate(36.484 5.032)"/>
    <path id="Trazado_139762" data-name="Trazado 139762" d="M55.774,21.032a2.26,2.26,0,0,1,2.258,2.258h4.516a6.765,6.765,0,0,0-4.516-6.359V12H53.516v4.516H49V23.29a6.782,6.782,0,0,0,6.774,6.774,2.26,2.26,0,0,1,2.258,2.258v2.258H55.774a2.26,2.26,0,0,1-2.258-2.258H49a6.765,6.765,0,0,0,4.516,6.359v4.932h4.516V39.1h4.516V32.323a6.782,6.782,0,0,0-6.774-6.774,2.26,2.26,0,0,1-2.258-2.258V21.032Z" transform="translate(60.387 13.839)"/>
    <path id="Trazado_139763" data-name="Trazado 139763" d="M141,41.645a24.846,24.846,0,0,0-38.556-20.713A22.573,22.573,0,1,0,69.126,43.339,7.487,7.487,0,0,0,67.554,45L56.42,61.7a15.754,15.754,0,0,1-7.131,5.833,15.813,15.813,0,1,0-22.976,1.411A20.191,20.191,0,0,0,10.168,81.516L1.549,103.064A7.669,7.669,0,0,0,1,105.914v.312a7.677,7.677,0,0,0,14.763,2.954l7.817-18.76v14L12.884,130.1a7.624,7.624,0,0,0-.594,2.96v.242a7.7,7.7,0,0,0,14.779,3.035l11.347-26.474,5.487,8.913V133.3a7.71,7.71,0,0,0,7.7,7.7h75.848V63.743A24.85,24.85,0,0,0,141,41.645ZM61.968,23.581A18.065,18.065,0,1,1,80.032,41.645,18.086,18.086,0,0,1,61.968,23.581ZM58.1,110.6l-.725-1.208H68.742v27.1H59a7.635,7.635,0,0,0,.709-3.186V116.405A11.28,11.28,0,0,0,58.1,110.6Zm15.158-1.208h3.193l5.839-5.839v32.936H73.258ZM86.806,99.032,95.839,90v46.485H86.806Zm13.548-13.548,9.032-9.032v60.033h-9.032ZM74.581,104.871H54.665l-1.73-2.884v-1.633h19l35.488-35.488a24.6,24.6,0,0,0,5.742,1.418Zm-4.516-9.032H52.935V84.079a28.791,28.791,0,0,0,16.99-12.67l3.333-5.415v2.748a6.774,6.774,0,0,0,13.548,0V45.12a22.5,22.5,0,0,0,4.588-2.057,24.817,24.817,0,0,0,11.749,19.7Zm7.709-49.793a22.2,22.2,0,0,0,4.516,0v22.7a2.258,2.258,0,0,1-4.516,0ZM25.839,57.452a11.29,11.29,0,1,1,11.29,11.29A11.3,11.3,0,0,1,25.839,57.452ZM22.075,82.29l-10.48,25.153a3.161,3.161,0,0,1-6.079-1.217v-.312a3.132,3.132,0,0,1,.228-1.174l8.617-21.546a15.729,15.729,0,0,1,14.675-9.936H43.269a20.275,20.275,0,0,0,16.908-9.05l11.135-16.7a3,3,0,0,1,1.946-1.276V57.377L66.08,69.042A24.258,24.258,0,0,1,50.233,80.077l-1.813.361v15.4H28.1V82.29Zm29.777,54.194H51.6a3.189,3.189,0,0,1-3.184-3.186V118.772a4.532,4.532,0,0,0-.671-2.366l-7.1-11.534H35.641L22.919,134.553a3.185,3.185,0,0,1-6.113-1.255v-.242a3.165,3.165,0,0,1,.244-1.224L28.1,105.323v-4.968H48.419v2.884l5.808,9.683a6.769,6.769,0,0,1,.966,3.484V133.3a3.189,3.189,0,0,1-3.184,3.186Zm71.084,0H113.9V71.935l5.72-5.72a24.421,24.421,0,0,0,3.313-.693Zm-6.774-74.516a20,20,0,0,1-20.178-22.42,22.537,22.537,0,0,0,6.381-12.794,20.314,20.314,0,1,1,13.8,35.215Z" transform="translate(0 0)"/>
  </g>
</svg>
