<svg id="dinero" xmlns="http://www.w3.org/2000/svg" width="140" height="140" viewBox="0 0 140 140">
  <path id="Trazado_140165" data-name="Trazado 140165" d="M8,8V73.578H44.084V64.21H26.042a9.2,9.2,0,0,0-9.021-9.368v-28.1a9.2,9.2,0,0,0,9.021-9.368h99.232a1.88,1.88,0,0,0,.022.351,9.155,9.155,0,0,0,9,9.017v28.1a9.2,9.2,0,0,0-9.021,9.368H57.616v9.368h85.7V8ZM8,8" transform="translate(-5.658 -5.658)" fill="#b4dd7f"/>
  <g id="Grupo_82100" data-name="Grupo 82100" transform="translate(11.71 11.71)">
    <path id="Trazado_140166" data-name="Trazado 140166" d="M308.894,49.368v28.1a9.366,9.366,0,0,0-9.368,9.368H248A23.421,23.421,0,1,0,248,40h51.525a1.816,1.816,0,0,0,.023.351A9.338,9.338,0,0,0,308.894,49.368Zm0,0" transform="translate(-192.314 -40)" fill="#fff5a2"/>
    <path id="Trazado_140167" data-name="Trazado 140167" d="M49.368,40h51.525A23.429,23.429,0,0,0,77.473,63.421a22.2,22.2,0,0,0,.164,2.811,6.789,6.789,0,0,0-2.506-.469A7.036,7.036,0,0,0,68.1,72.789V86.841H49.368A9.366,9.366,0,0,0,40,77.473v-28.1A9.366,9.366,0,0,0,49.368,40Zm0,0" transform="translate(-40 -40)" fill="#ffeaa7"/>
    <path id="Trazado_140168" data-name="Trazado 140168" d="M202.737,177.313H184v-9.391A23.319,23.319,0,0,0,202.737,177.313Zm0,0" transform="translate(-143.973 -130.472)" fill="#ffeaa7"/>
  </g>
  <path id="Trazado_140169" data-name="Trazado 140169" d="M190.667,394.737H152V376h32.789A32.713,32.713,0,0,0,190.667,394.737Zm0,0" transform="translate(-109.676 -271.131)" fill="#e6e9ed"/>
  <path id="Trazado_140170" data-name="Trazado 140170" d="M150.052,158.447h51.525v9.7a32.814,32.814,0,0,0-28.1,32.461h-28.1v-7.026l-6.23-9.321a18.9,18.9,0,0,1-3.138-10.4V135.026A7.036,7.036,0,0,1,143.026,128a6.789,6.789,0,0,1,2.506.469,7.008,7.008,0,0,1,4.521,6.557Zm0,0" transform="translate(-98.789 -93.215)" fill="#f0d0b4"/>
  <path id="Trazado_140171" data-name="Trazado 140171" d="M296.789,264a32.729,32.729,0,1,1-4.684.328A34.061,34.061,0,0,1,296.789,264Zm7.026,32.789,14.052-14.052-7.026-7.026-14.052,14.052L282.737,275.71l-7.026,7.026,14.052,14.052L275.71,310.841l7.026,7.026,14.052-14.052,14.052,14.052,7.026-7.026Zm0,0" transform="translate(-191.92 -191.92)" fill="#d64626"/>
  <path id="Trazado_140172" data-name="Trazado 140172" d="M346.157,311.026,332.1,325.079l14.052,14.052-7.026,7.026L325.079,332.1l-14.052,14.052L304,339.131l14.052-14.052L304,311.026,311.026,304l14.052,14.052L339.131,304Zm0,0" transform="translate(-220.21 -220.21)" fill="#e6e9ed"/>
  <path id="Trazado_140173" data-name="Trazado 140173" d="M191.421,40a23.421,23.421,0,1,1-18.737,37.45V72.789a7.008,7.008,0,0,0-4.521-6.557A22.2,22.2,0,0,1,168,63.421,23.429,23.429,0,0,1,191.421,40Zm0,0" transform="translate(-121.421 -28.29)" fill="#fed947"/>
  <path id="Trazado_140174" data-name="Trazado 140174" d="M231.026,87.421a2.347,2.347,0,0,1-2.342-2.342H224a7.017,7.017,0,0,0,4.684,6.6v5.115h4.684V91.674a7.009,7.009,0,0,0-2.342-13.621,2.342,2.342,0,1,1,2.342-2.342h4.684a7.017,7.017,0,0,0-4.684-6.6V64h-4.684v5.115a7.009,7.009,0,0,0,2.342,13.621,2.342,2.342,0,0,1,0,4.684Zm0,0" transform="translate(-161.026 -45.263)"/>
  <path id="Trazado_140175" data-name="Trazado 140175" d="M140,67.742V0H0V67.742H36.129v12.6a20.253,20.253,0,0,0,3.415,11.274l5.618,8.428v3.831H40.645v22.581H79.1a33.849,33.849,0,1,0,27.032-54.194c-.763,0-1.508.065-2.258.115V67.742ZM4.516,63.226V4.516H135.484v58.71H54.194V58.71h67.742V56.452a6.783,6.783,0,0,1,6.774-6.774h2.258V18.065H128.71a6.783,6.783,0,0,1-6.774-6.774V9.032H18.065V11.29a6.783,6.783,0,0,1-6.774,6.774H9.032V49.677H11.29a6.783,6.783,0,0,1,6.774,6.774V58.71H36.129v4.516ZM36.129,42.9v11.29H22.352a11.318,11.318,0,0,0-8.8-8.8V22.352a11.318,11.318,0,0,0,8.8-8.8h33.41a24.815,24.815,0,0,0-10.6,20.323A9.041,9.041,0,0,0,36.129,42.9ZM49.755,35.17c-.028-.434-.077-.866-.077-1.3A20.323,20.323,0,1,1,70,54.194,20.14,20.14,0,0,1,54.194,46.6V42.9A9,9,0,0,0,49.755,35.17ZM84.238,13.548h33.41a11.318,11.318,0,0,0,8.8,8.8V45.387a11.318,11.318,0,0,0-8.8,8.8H84.238a24.778,24.778,0,0,0,0-40.643ZM55.745,54.194H54.194V53.042C54.693,53.455,55.219,53.823,55.745,54.194ZM45.161,121.935V108.387H72.373A33.6,33.6,0,0,0,76.2,121.935Zm90.323-15.806a29.355,29.355,0,1,1-29.355-29.355A29.389,29.389,0,0,1,135.484,106.129ZM99.355,72.939a33.914,33.914,0,0,0-26.982,30.932h-22.7v-5.2L43.3,89.105a15.772,15.772,0,0,1-2.655-8.768V42.9a4.516,4.516,0,1,1,9.032,0V76.774h2.258a11.3,11.3,0,0,1,11.29,11.29h4.516A15.831,15.831,0,0,0,54.194,72.418V67.742H99.355Zm0,0"/>
  <path id="Trazado_140176" data-name="Trazado 140176" d="M306.74,317.078,292.688,331.13l10.338,10.338,14.052-14.052,14.052,14.052,10.338-10.338-14.052-14.052,14.052-14.052L331.13,292.688,317.078,306.74l-14.052-14.052-10.338,10.338Zm10.338-3.714,14.052-14.052,3.714,3.714-14.052,14.052,14.052,14.052-3.714,3.714-14.052-14.052-14.052,14.052-3.714-3.714,14.052-14.052-14.052-14.052,3.714-3.714Zm0,0" transform="translate(-212.209 -212.209)"/>
  <path id="Trazado_140177" data-name="Trazado 140177" d="M32,32h4.684v4.684H32Zm0,0" transform="translate(-22.632 -22.632)"/>
  <path id="Trazado_140178" data-name="Trazado 140178" d="M32,192h4.684v4.684H32Zm0,0" transform="translate(-22.632 -137.874)"/>
  <path id="Trazado_140179" data-name="Trazado 140179" d="M448,32h4.684v4.684H448Zm0,0" transform="translate(-322.052 -22.632)"/>
  <path id="Trazado_140180" data-name="Trazado 140180" d="M448,192h4.684v4.684H448Zm0,0" transform="translate(-322.052 -137.874)"/>
</svg>
