<svg xmlns="http://www.w3.org/2000/svg" width="820" height="400" viewBox="0 0 820 400">
  <g id="Grupo_82931" data-name="Grupo 82931" transform="translate(-390.353 -5863.07)">
    <path id="Rectángulo_30804" data-name="Rectángulo 30804" d="M0,0H820V400H0Z" transform="translate(390.353 5863.07)" fill="#f6f6f6"/>
    <path id="Trazado_141835" data-name="Trazado 141835" d="M11.789-7.418H5.039v4.594h7.922V0H1.523V-17.062H12.938v2.848h-7.9v4.066h6.75ZM18.375,0h-3.4V-18h3.4ZM28.512,0a3.761,3.761,0,0,1-.34-1.137,4.1,4.1,0,0,1-3.2,1.371A4.5,4.5,0,0,1,21.885-.844,3.467,3.467,0,0,1,20.66-3.562a3.583,3.583,0,0,1,1.494-3.094,7.373,7.373,0,0,1,4.318-1.09h1.559v-.727a2.089,2.089,0,0,0-.451-1.406,1.775,1.775,0,0,0-1.424-.527,2.018,2.018,0,0,0-1.342.41,1.393,1.393,0,0,0-.486,1.125H20.941a3.4,3.4,0,0,1,.68-2.039,4.493,4.493,0,0,1,1.922-1.471,7,7,0,0,1,2.789-.533,5.534,5.534,0,0,1,3.721,1.178A4.12,4.12,0,0,1,31.43-8.426v5.5a6.062,6.062,0,0,0,.5,2.73V0Zm-2.8-2.355a2.917,2.917,0,0,0,1.383-.334,2.194,2.194,0,0,0,.938-.9v-2.18H26.766q-2.543,0-2.707,1.758l-.012.2a1.356,1.356,0,0,0,.445,1.043A1.73,1.73,0,0,0,25.711-2.355ZM40.9-3.5a1.091,1.091,0,0,0-.615-.979,6.989,6.989,0,0,0-1.975-.639q-4.523-.949-4.523-3.844a3.484,3.484,0,0,1,1.4-2.818,5.649,5.649,0,0,1,3.662-1.131,6.08,6.08,0,0,1,3.861,1.137,3.582,3.582,0,0,1,1.447,2.953H40.77a1.639,1.639,0,0,0-.469-1.2,1.984,1.984,0,0,0-1.465-.475,2.027,2.027,0,0,0-1.324.387,1.221,1.221,0,0,0-.469.984,1.044,1.044,0,0,0,.533.908,5.485,5.485,0,0,0,1.8.6,14.693,14.693,0,0,1,2.133.568q2.684.984,2.684,3.41A3.307,3.307,0,0,1,42.7-.838,6.42,6.42,0,0,1,38.859.234a6.706,6.706,0,0,1-2.83-.568A4.748,4.748,0,0,1,34.09-1.893a3.621,3.621,0,0,1-.7-2.139H36.6a1.768,1.768,0,0,0,.668,1.383,2.649,2.649,0,0,0,1.664.48A2.452,2.452,0,0,0,40.4-2.537,1.149,1.149,0,0,0,40.9-3.5ZM50.426-15.8v3.117h2.168V-10.2H50.426v6.328a1.511,1.511,0,0,0,.27,1.008,1.354,1.354,0,0,0,1.031.3,5.4,5.4,0,0,0,1-.082V-.07a6.972,6.972,0,0,1-2.051.3q-3.562,0-3.633-3.6V-10.2H45.188V-12.68h1.852V-15.8ZM58.055,0h-3.4V-12.68h3.4Zm-3.6-15.961a1.668,1.668,0,0,1,.51-1.254,1.915,1.915,0,0,1,1.389-.492,1.919,1.919,0,0,1,1.383.492,1.658,1.658,0,0,1,.516,1.254,1.663,1.663,0,0,1-.521,1.266,1.924,1.924,0,0,1-1.377.492,1.924,1.924,0,0,1-1.377-.492A1.663,1.663,0,0,1,54.457-15.961ZM66.117-2.5a2.221,2.221,0,0,0,1.523-.516,1.807,1.807,0,0,0,.609-1.371h3.176a4.344,4.344,0,0,1-.7,2.361A4.64,4.64,0,0,1,68.83-.357a5.923,5.923,0,0,1-2.654.592,5.5,5.5,0,0,1-4.289-1.729,6.84,6.84,0,0,1-1.57-4.775v-.223a6.762,6.762,0,0,1,1.559-4.676,5.441,5.441,0,0,1,4.277-1.746,5.333,5.333,0,0,1,3.814,1.354,4.792,4.792,0,0,1,1.459,3.6H68.25a2.327,2.327,0,0,0-.609-1.608,2.032,2.032,0,0,0-1.547-.619,2.04,2.04,0,0,0-1.787.863,5,5,0,0,0-.6,2.8v.352a5.063,5.063,0,0,0,.6,2.817A2.065,2.065,0,0,0,66.117-2.5ZM76.934,0h-3.4V-12.68h3.4Zm-3.6-15.961a1.668,1.668,0,0,1,.51-1.254,1.915,1.915,0,0,1,1.389-.492,1.919,1.919,0,0,1,1.383.492,1.658,1.658,0,0,1,.516,1.254,1.663,1.663,0,0,1-.521,1.266,1.924,1.924,0,0,1-1.377.492,1.924,1.924,0,0,1-1.377-.492A1.663,1.663,0,0,1,73.336-15.961ZM79.2-6.434a7.641,7.641,0,0,1,1.33-4.723,4.316,4.316,0,0,1,3.639-1.758,3.884,3.884,0,0,1,3.059,1.383V-18h3.4V0H87.563L87.4-1.348A3.985,3.985,0,0,1,84.141.234a4.3,4.3,0,0,1-3.592-1.764A7.887,7.887,0,0,1,79.2-6.434Zm3.387.241A5.033,5.033,0,0,0,83.2-3.45a2.022,2.022,0,0,0,1.8.954,2.265,2.265,0,0,0,2.215-1.33V-8.853a2.233,2.233,0,0,0-2.191-1.33Q82.582-10.184,82.582-6.193ZM100.594,0a3.761,3.761,0,0,1-.34-1.137,4.1,4.1,0,0,1-3.2,1.371A4.5,4.5,0,0,1,93.967-.844a3.467,3.467,0,0,1-1.225-2.719,3.583,3.583,0,0,1,1.494-3.094,7.373,7.373,0,0,1,4.318-1.09h1.559v-.727a2.089,2.089,0,0,0-.451-1.406,1.775,1.775,0,0,0-1.424-.527A2.018,2.018,0,0,0,96.9-10a1.393,1.393,0,0,0-.486,1.125H93.023a3.4,3.4,0,0,1,.68-2.039,4.493,4.493,0,0,1,1.922-1.471,7,7,0,0,1,2.789-.533,5.534,5.534,0,0,1,3.721,1.178,4.12,4.12,0,0,1,1.377,3.311v5.5a6.062,6.062,0,0,0,.5,2.73V0Zm-2.8-2.355a2.917,2.917,0,0,0,1.383-.334,2.194,2.194,0,0,0,.938-.9v-2.18H98.848q-2.543,0-2.707,1.758l-.012.2a1.356,1.356,0,0,0,.445,1.043A1.73,1.73,0,0,0,97.793-2.355Zm7.793-4.078a7.641,7.641,0,0,1,1.33-4.723,4.316,4.316,0,0,1,3.639-1.758,3.884,3.884,0,0,1,3.059,1.383V-18h3.4V0h-3.059l-.164-1.348A3.985,3.985,0,0,1,110.531.234a4.3,4.3,0,0,1-3.592-1.764A7.887,7.887,0,0,1,105.586-6.434Zm3.387.241a5.033,5.033,0,0,0,.621,2.743,2.022,2.022,0,0,0,1.8.954,2.265,2.265,0,0,0,2.215-1.33V-8.853a2.233,2.233,0,0,0-2.191-1.33Q108.973-10.184,108.973-6.193Zm29.777-10.87V-5.824A5.754,5.754,0,0,1,137-1.395,6.754,6.754,0,0,1,132.211.234a6.83,6.83,0,0,1-4.746-1.582A5.656,5.656,0,0,1,125.672-5.7V-17.062h3.516V-5.8a3.251,3.251,0,0,0,.8,2.443,3.082,3.082,0,0,0,2.221.768q2.965,0,3.012-3.117V-17.062Zm5.777,4.383.105,1.465a4.427,4.427,0,0,1,3.645-1.7,3.679,3.679,0,0,1,3,1.184,5.522,5.522,0,0,1,1.008,3.539V0H148.9V-8.128A2.206,2.206,0,0,0,148.43-9.7a2.1,2.1,0,0,0-1.559-.487,2.329,2.329,0,0,0-2.145,1.221V0H141.34V-12.68ZM158.426,0h-3.4V-12.68h3.4Zm-3.6-15.961a1.668,1.668,0,0,1,.51-1.254,1.915,1.915,0,0,1,1.389-.492,1.919,1.919,0,0,1,1.383.492,1.658,1.658,0,0,1,.516,1.254A1.663,1.663,0,0,1,158.1-14.7a1.924,1.924,0,0,1-1.377.492,1.924,1.924,0,0,1-1.377-.492A1.663,1.663,0,0,1,154.828-15.961Zm10.441.164v3.117h2.168V-10.2H165.27v6.328a1.511,1.511,0,0,0,.27,1.008,1.354,1.354,0,0,0,1.031.3,5.4,5.4,0,0,0,1-.082V-.07a6.972,6.972,0,0,1-2.051.3q-3.562,0-3.633-3.6V-10.2h-1.852V-12.68h1.852V-15.8ZM176.672,0a3.761,3.761,0,0,1-.34-1.137,4.1,4.1,0,0,1-3.2,1.371,4.5,4.5,0,0,1-3.088-1.078,3.467,3.467,0,0,1-1.225-2.719,3.583,3.583,0,0,1,1.494-3.094,7.373,7.373,0,0,1,4.318-1.09h1.559v-.727a2.089,2.089,0,0,0-.451-1.406,1.775,1.775,0,0,0-1.424-.527,2.018,2.018,0,0,0-1.342.41,1.393,1.393,0,0,0-.486,1.125H169.1a3.4,3.4,0,0,1,.68-2.039,4.493,4.493,0,0,1,1.922-1.471,7,7,0,0,1,2.789-.533,5.534,5.534,0,0,1,3.721,1.178,4.12,4.12,0,0,1,1.377,3.311v5.5a6.062,6.062,0,0,0,.5,2.73V0Zm-2.8-2.355a2.917,2.917,0,0,0,1.383-.334,2.194,2.194,0,0,0,.938-.9v-2.18h-1.266q-2.543,0-2.707,1.758l-.012.2a1.356,1.356,0,0,0,.445,1.043A1.73,1.73,0,0,0,173.871-2.355ZM189.316-9.5A9.2,9.2,0,0,0,188.1-9.6a2.481,2.481,0,0,0-2.52,1.3V0h-3.387V-12.68h3.2l.094,1.512a3.138,3.138,0,0,1,2.824-1.746,3.549,3.549,0,0,1,1.055.152Zm5.2,9.5h-3.4V-12.68h3.4Zm-3.6-15.961a1.668,1.668,0,0,1,.51-1.254,1.915,1.915,0,0,1,1.389-.492,1.919,1.919,0,0,1,1.383.492,1.658,1.658,0,0,1,.516,1.254A1.663,1.663,0,0,1,194.2-14.7a1.924,1.924,0,0,1-1.377.492,1.924,1.924,0,0,1-1.377-.492A1.663,1.663,0,0,1,190.922-15.961ZM204.656,0a3.761,3.761,0,0,1-.34-1.137,4.1,4.1,0,0,1-3.2,1.371,4.5,4.5,0,0,1-3.088-1.078A3.467,3.467,0,0,1,196.8-3.562,3.583,3.583,0,0,1,198.3-6.656a7.373,7.373,0,0,1,4.318-1.09h1.559v-.727a2.089,2.089,0,0,0-.451-1.406,1.775,1.775,0,0,0-1.424-.527,2.018,2.018,0,0,0-1.342.41,1.393,1.393,0,0,0-.486,1.125h-3.387a3.4,3.4,0,0,1,.68-2.039,4.493,4.493,0,0,1,1.922-1.471,7,7,0,0,1,2.789-.533,5.534,5.534,0,0,1,3.721,1.178,4.12,4.12,0,0,1,1.377,3.311v5.5a6.062,6.062,0,0,0,.5,2.73V0Zm-2.8-2.355a2.917,2.917,0,0,0,1.383-.334,2.194,2.194,0,0,0,.938-.9v-2.18H202.91q-2.543,0-2.707,1.758l-.012.2a1.356,1.356,0,0,0,.445,1.043A1.73,1.73,0,0,0,201.855-2.355Z" transform="translate(695.353 5914.236)" fill="#12263f"/>
    <path id="Trazado_141836" data-name="Trazado 141836" d="M4.409-5.26V0H1.333V-14.93H7.157a6.738,6.738,0,0,1,2.958.615,4.534,4.534,0,0,1,1.964,1.748,4.875,4.875,0,0,1,.687,2.579,4.287,4.287,0,0,1-1.5,3.461A6.257,6.257,0,0,1,7.106-5.26Zm0-2.492H7.157a2.7,2.7,0,0,0,1.861-.574,2.088,2.088,0,0,0,.641-1.641,2.463,2.463,0,0,0-.646-1.774,2.413,2.413,0,0,0-1.784-.7H4.409Zm16.509-.564A8.051,8.051,0,0,0,19.852-8.4a2.171,2.171,0,0,0-2.2,1.138V0H14.684V-11.095h2.8l.082,1.323A2.746,2.746,0,0,1,20.036-11.3a3.105,3.105,0,0,1,.923.133ZM27.255.205a5.447,5.447,0,0,1-3.973-1.5,5.321,5.321,0,0,1-1.533-3.989v-.287a6.7,6.7,0,0,1,.646-2.989,4.741,4.741,0,0,1,1.83-2.03,5.137,5.137,0,0,1,2.7-.713A4.6,4.6,0,0,1,30.51-9.864a5.833,5.833,0,0,1,1.307,4.071v1.21H24.753a2.753,2.753,0,0,0,.866,1.743,2.619,2.619,0,0,0,1.83.656,3.2,3.2,0,0,0,2.676-1.241l1.456,1.63a4.449,4.449,0,0,1-1.8,1.471A5.921,5.921,0,0,1,27.255.205Zm-.338-9.116a1.852,1.852,0,0,0-1.43.6,3.093,3.093,0,0,0-.7,1.71h4.122V-6.84a2.206,2.206,0,0,0-.533-1.529A1.91,1.91,0,0,0,26.917-8.911Zm11.2,6.727a1.944,1.944,0,0,0,1.333-.451,1.581,1.581,0,0,0,.533-1.2h2.779a3.8,3.8,0,0,1-.615,2.066A4.06,4.06,0,0,1,40.488-.313a5.183,5.183,0,0,1-2.323.518,4.817,4.817,0,0,1-3.753-1.512,5.985,5.985,0,0,1-1.374-4.178v-.195A5.917,5.917,0,0,1,34.4-9.772,4.761,4.761,0,0,1,38.145-11.3a4.667,4.667,0,0,1,3.338,1.184,4.193,4.193,0,0,1,1.277,3.153H39.98a2.036,2.036,0,0,0-.533-1.407,1.778,1.778,0,0,0-1.354-.541,1.785,1.785,0,0,0-1.564.755A4.374,4.374,0,0,0,36-5.707V-5.4a4.43,4.43,0,0,0,.523,2.465A1.807,1.807,0,0,0,38.114-2.184ZM47.578,0H44.6V-11.095h2.974ZM44.43-13.966a1.459,1.459,0,0,1,.446-1.1,1.676,1.676,0,0,1,1.215-.431,1.679,1.679,0,0,1,1.21.431,1.451,1.451,0,0,1,.451,1.1,1.455,1.455,0,0,1-.456,1.107,1.684,1.684,0,0,1-1.2.431,1.684,1.684,0,0,1-1.2-.431A1.455,1.455,0,0,1,44.43-13.966ZM49.557-5.65a6.58,6.58,0,0,1,.636-2.943,4.654,4.654,0,0,1,1.83-2A5.34,5.34,0,0,1,54.8-11.3a5.052,5.052,0,0,1,3.666,1.374,5.514,5.514,0,0,1,1.584,3.732l.021.759a5.8,5.8,0,0,1-1.425,4.1A4.954,4.954,0,0,1,54.817.205a4.979,4.979,0,0,1-3.83-1.538,5.9,5.9,0,0,1-1.43-4.184Zm2.963.21a4.147,4.147,0,0,0,.595,2.418,1.962,1.962,0,0,0,1.7.837A1.966,1.966,0,0,0,56.5-3.011a4.538,4.538,0,0,0,.6-2.644,4.106,4.106,0,0,0-.6-2.4,1.967,1.967,0,0,0-1.7-.852,1.934,1.934,0,0,0-1.682.847A4.614,4.614,0,0,0,52.521-5.44Z" transform="translate(445.132 6064.313) rotate(-90)" fill="#12263f"/>
    <path id="Trazado_141837" data-name="Trazado 141837" d="M13.053-4.973a5.283,5.283,0,0,1-1.779,3.794A6.248,6.248,0,0,1,7.044.205,5.618,5.618,0,0,1,2.528-1.728,7.925,7.925,0,0,1,.882-7.034v-.913a8.95,8.95,0,0,1,.759-3.794,5.686,5.686,0,0,1,2.169-2.517,6.075,6.075,0,0,1,3.276-.877,6.087,6.087,0,0,1,4.163,1.384,5.677,5.677,0,0,1,1.825,3.886H10a3.118,3.118,0,0,0-.8-2.1,2.981,2.981,0,0,0-2.107-.651,2.614,2.614,0,0,0-2.3,1.1A6.178,6.178,0,0,0,4-8.09v1.128a6.612,6.612,0,0,0,.733,3.538A2.565,2.565,0,0,0,7.044-2.307a3.037,3.037,0,0,0,2.128-.651,2.941,2.941,0,0,0,.8-2.015ZM21.308,0a3.291,3.291,0,0,1-.3-.995,3.586,3.586,0,0,1-2.8,1.2,3.939,3.939,0,0,1-2.7-.943,3.034,3.034,0,0,1-1.072-2.379,3.135,3.135,0,0,1,1.307-2.707,6.451,6.451,0,0,1,3.779-.954h1.364v-.636a1.828,1.828,0,0,0-.395-1.23,1.553,1.553,0,0,0-1.246-.461,1.766,1.766,0,0,0-1.174.359,1.219,1.219,0,0,0-.426.984H14.684a2.977,2.977,0,0,1,.595-1.784,3.931,3.931,0,0,1,1.682-1.287A6.129,6.129,0,0,1,19.4-11.3a4.842,4.842,0,0,1,3.256,1.031,3.605,3.605,0,0,1,1.2,2.9v4.809A5.3,5.3,0,0,0,24.3-.174V0ZM18.857-2.061a2.552,2.552,0,0,0,1.21-.292,1.919,1.919,0,0,0,.82-.784V-5.045H19.78q-2.225,0-2.369,1.538l-.01.174a1.186,1.186,0,0,0,.39.913A1.514,1.514,0,0,0,18.857-2.061Zm10.008-9.034.092,1.282A3.874,3.874,0,0,1,32.146-11.3a3.219,3.219,0,0,1,2.625,1.036,4.832,4.832,0,0,1,.882,3.1V0H32.689V-7.112a1.93,1.93,0,0,0-.41-1.372,1.833,1.833,0,0,0-1.364-.426,2.038,2.038,0,0,0-1.876,1.069V0H26.076V-11.095Zm12.582-2.728v2.728h1.9v2.174h-1.9v5.537a1.322,1.322,0,0,0,.236.882,1.184,1.184,0,0,0,.9.267,4.726,4.726,0,0,0,.872-.072V-.062a6.1,6.1,0,0,1-1.794.267q-3.117,0-3.179-3.148V-8.921h-1.62v-2.174h1.62v-2.728ZM48.122,0H45.148V-11.095h2.974ZM44.974-13.966a1.459,1.459,0,0,1,.446-1.1,1.676,1.676,0,0,1,1.215-.431,1.679,1.679,0,0,1,1.21.431,1.451,1.451,0,0,1,.451,1.1,1.455,1.455,0,0,1-.456,1.107,1.684,1.684,0,0,1-1.2.431,1.684,1.684,0,0,1-1.2-.431A1.455,1.455,0,0,1,44.974-13.966ZM50.1-5.629a6.686,6.686,0,0,1,1.164-4.132A3.776,3.776,0,0,1,54.448-11.3a3.4,3.4,0,0,1,2.676,1.21v-5.66H60.1V0H57.422l-.144-1.179A3.487,3.487,0,0,1,54.428.205a3.766,3.766,0,0,1-3.143-1.543A6.9,6.9,0,0,1,50.1-5.629Zm2.963.211a4.4,4.4,0,0,0,.543,2.4,1.769,1.769,0,0,0,1.579.834,1.982,1.982,0,0,0,1.938-1.164v-4.4a1.954,1.954,0,0,0-1.917-1.164Q53.064-8.911,53.064-5.419ZM68.824,0a3.291,3.291,0,0,1-.3-.995,3.586,3.586,0,0,1-2.8,1.2,3.939,3.939,0,0,1-2.7-.943,3.034,3.034,0,0,1-1.072-2.379,3.135,3.135,0,0,1,1.307-2.707,6.451,6.451,0,0,1,3.779-.954H68.4v-.636a1.828,1.828,0,0,0-.395-1.23,1.553,1.553,0,0,0-1.246-.461,1.766,1.766,0,0,0-1.174.359,1.219,1.219,0,0,0-.426.984H62.2a2.977,2.977,0,0,1,.595-1.784,3.931,3.931,0,0,1,1.682-1.287,6.129,6.129,0,0,1,2.44-.467,4.842,4.842,0,0,1,3.256,1.031,3.605,3.605,0,0,1,1.2,2.9v4.809a5.3,5.3,0,0,0,.441,2.389V0ZM66.374-2.061a2.552,2.552,0,0,0,1.21-.292,1.919,1.919,0,0,0,.82-.784V-5.045H67.3q-2.225,0-2.369,1.538l-.01.174a1.186,1.186,0,0,0,.39.913A1.514,1.514,0,0,0,66.374-2.061Zm6.819-3.568a6.686,6.686,0,0,1,1.164-4.132A3.776,3.776,0,0,1,77.54-11.3a3.4,3.4,0,0,1,2.676,1.21v-5.66H83.19V0H80.514L80.37-1.179A3.487,3.487,0,0,1,77.52.205a3.766,3.766,0,0,1-3.143-1.543A6.9,6.9,0,0,1,73.192-5.629Zm2.963.211a4.4,4.4,0,0,0,.543,2.4,1.769,1.769,0,0,0,1.579.834,1.982,1.982,0,0,0,1.938-1.164v-4.4A1.954,1.954,0,0,0,78.3-8.911Q76.156-8.911,76.156-5.419ZM90.593.205a5.447,5.447,0,0,1-3.973-1.5,5.321,5.321,0,0,1-1.533-3.989v-.287a6.7,6.7,0,0,1,.646-2.989,4.741,4.741,0,0,1,1.83-2.03,5.137,5.137,0,0,1,2.7-.713,4.6,4.6,0,0,1,3.584,1.436,5.833,5.833,0,0,1,1.307,4.071v1.21H88.091a2.753,2.753,0,0,0,.866,1.743,2.619,2.619,0,0,0,1.83.656,3.2,3.2,0,0,0,2.676-1.241l1.456,1.63a4.449,4.449,0,0,1-1.8,1.471A5.921,5.921,0,0,1,90.593.205Zm-.338-9.116a1.852,1.852,0,0,0-1.43.6,3.093,3.093,0,0,0-.7,1.71h4.122V-6.84a2.206,2.206,0,0,0-.533-1.529A1.91,1.91,0,0,0,90.255-8.911Zm12.592,5.845a.955.955,0,0,0-.538-.856,6.115,6.115,0,0,0-1.728-.559q-3.958-.831-3.958-3.363a3.049,3.049,0,0,1,1.225-2.466,4.943,4.943,0,0,1,3.2-.99,5.32,5.32,0,0,1,3.379.995A3.135,3.135,0,0,1,105.7-7.721h-2.963a1.434,1.434,0,0,0-.41-1.051,1.736,1.736,0,0,0-1.282-.415,1.774,1.774,0,0,0-1.159.338,1.068,1.068,0,0,0-.41.861.913.913,0,0,0,.467.795,4.8,4.8,0,0,0,1.574.523,12.856,12.856,0,0,1,1.866.5,3.066,3.066,0,0,1,2.348,2.984,2.894,2.894,0,0,1-1.3,2.456,5.618,5.618,0,0,1-3.363.938,5.867,5.867,0,0,1-2.476-.5,4.155,4.155,0,0,1-1.7-1.364,3.169,3.169,0,0,1-.615-1.871h2.81a1.547,1.547,0,0,0,.584,1.21,2.318,2.318,0,0,0,1.456.42,2.146,2.146,0,0,0,1.287-.323A1,1,0,0,0,102.847-3.066Z" transform="matrix(1, 0, 0, 1, 747.353, 6238.279)" fill="#12263f"/>
    <path id="Trazado_141838" data-name="Trazado 141838" d="M8.078-4.852a6.61,6.61,0,0,1-.867,3.773A3.084,3.084,0,0,1,4.5.156,3.107,3.107,0,0,1,1.8-1.051,6.274,6.274,0,0,1,.9-4.656v-1.93a6.463,6.463,0,0,1,.867-3.727,3.108,3.108,0,0,1,2.719-1.219,3.136,3.136,0,0,1,2.7,1.176,6.237,6.237,0,0,1,.891,3.629ZM6.633-6.828A5.3,5.3,0,0,0,6.117-9.5a1.775,1.775,0,0,0-1.633-.84,1.751,1.751,0,0,0-1.617.836,5.171,5.171,0,0,0-.523,2.57v2.313A5.381,5.381,0,0,0,2.879-1.9,1.771,1.771,0,0,0,4.5-1.023a1.747,1.747,0,0,0,1.59-.828,5.186,5.186,0,0,0,.543-2.609Z" transform="translate(543.607 6196.172)" fill="#12263f"/>
    <path id="Trazado_141839" data-name="Trazado 141839" d="M1.609-5.7l.578-5.672H8.016v1.336h-4.6l-.344,3.1a3.671,3.671,0,0,1,1.9-.492A3.138,3.138,0,0,1,7.438-6.4a4.026,4.026,0,0,1,.914,2.777A3.886,3.886,0,0,1,7.4-.855,3.46,3.46,0,0,1,4.75.156,3.6,3.6,0,0,1,2.289-.68,3.337,3.337,0,0,1,1.2-2.992H2.57a2.3,2.3,0,0,0,.7,1.473,2.162,2.162,0,0,0,1.484.5,1.95,1.95,0,0,0,1.582-.687,2.874,2.874,0,0,0,.574-1.9,2.638,2.638,0,0,0-.621-1.832,2.113,2.113,0,0,0-1.652-.691,2.383,2.383,0,0,0-1.484.414l-.383.313Zm15.453.852A6.61,6.61,0,0,1,16.2-1.078,3.084,3.084,0,0,1,13.484.156a3.107,3.107,0,0,1-2.7-1.207,6.274,6.274,0,0,1-.906-3.605v-1.93a6.463,6.463,0,0,1,.867-3.727,3.108,3.108,0,0,1,2.719-1.219,3.136,3.136,0,0,1,2.7,1.176,6.237,6.237,0,0,1,.891,3.629ZM15.617-6.828A5.3,5.3,0,0,0,15.1-9.5a1.775,1.775,0,0,0-1.633-.84,1.751,1.751,0,0,0-1.617.836,5.171,5.171,0,0,0-.523,2.57v2.313A5.381,5.381,0,0,0,11.863-1.9a1.771,1.771,0,0,0,1.621.879,1.747,1.747,0,0,0,1.59-.828,5.186,5.186,0,0,0,.543-2.609Z" transform="translate(653.585 6196.172)" fill="#12263f"/>
    <path id="Trazado_141840" data-name="Trazado 141840" d="M5.7,0H4.242V-9.633L1.328-8.562V-9.875L5.469-11.43H5.7ZM17.063-4.852A6.61,6.61,0,0,1,16.2-1.078,3.084,3.084,0,0,1,13.484.156a3.107,3.107,0,0,1-2.7-1.207,6.274,6.274,0,0,1-.906-3.605v-1.93a6.463,6.463,0,0,1,.867-3.727,3.108,3.108,0,0,1,2.719-1.219,3.136,3.136,0,0,1,2.7,1.176,6.237,6.237,0,0,1,.891,3.629ZM15.617-6.828A5.3,5.3,0,0,0,15.1-9.5a1.775,1.775,0,0,0-1.633-.84,1.751,1.751,0,0,0-1.617.836,5.171,5.171,0,0,0-.523,2.57v2.313A5.381,5.381,0,0,0,11.863-1.9a1.771,1.771,0,0,0,1.621.879,1.747,1.747,0,0,0,1.59-.828,5.186,5.186,0,0,0,.543-2.609Zm10.43,1.977a6.61,6.61,0,0,1-.867,3.773A3.084,3.084,0,0,1,22.469.156a3.107,3.107,0,0,1-2.7-1.207,6.274,6.274,0,0,1-.906-3.605v-1.93a6.463,6.463,0,0,1,.867-3.727,3.108,3.108,0,0,1,2.719-1.219,3.136,3.136,0,0,1,2.7,1.176,6.237,6.237,0,0,1,.891,3.629ZM24.6-6.828A5.3,5.3,0,0,0,24.086-9.5a1.775,1.775,0,0,0-1.633-.84,1.751,1.751,0,0,0-1.617.836,5.171,5.171,0,0,0-.523,2.57v2.313A5.381,5.381,0,0,0,20.848-1.9a1.771,1.771,0,0,0,1.621.879,1.747,1.747,0,0,0,1.59-.828A5.186,5.186,0,0,0,24.6-4.461Z" transform="translate(773.024 6196.172)" fill="#12263f"/>
    <path id="Trazado_141841" data-name="Trazado 141841" d="M5.7,0H4.242V-9.633L1.328-8.562V-9.875L5.469-11.43H5.7Zm4.9-5.7.578-5.672H17v1.336H12.4l-.344,3.1a3.671,3.671,0,0,1,1.9-.492A3.138,3.138,0,0,1,16.422-6.4a4.026,4.026,0,0,1,.914,2.777,3.886,3.886,0,0,1-.949,2.77A3.46,3.46,0,0,1,13.734.156,3.6,3.6,0,0,1,11.273-.68a3.337,3.337,0,0,1-1.086-2.312h1.367a2.3,2.3,0,0,0,.7,1.473,2.162,2.162,0,0,0,1.484.5,1.95,1.95,0,0,0,1.582-.687,2.874,2.874,0,0,0,.574-1.9,2.638,2.638,0,0,0-.621-1.832,2.113,2.113,0,0,0-1.652-.691,2.383,2.383,0,0,0-1.484.414l-.383.313Zm15.453.852a6.61,6.61,0,0,1-.867,3.773A3.084,3.084,0,0,1,22.469.156a3.107,3.107,0,0,1-2.7-1.207,6.274,6.274,0,0,1-.906-3.605v-1.93a6.463,6.463,0,0,1,.867-3.727,3.108,3.108,0,0,1,2.719-1.219,3.136,3.136,0,0,1,2.7,1.176,6.237,6.237,0,0,1,.891,3.629ZM24.6-6.828A5.3,5.3,0,0,0,24.086-9.5a1.775,1.775,0,0,0-1.633-.84,1.751,1.751,0,0,0-1.617.836,5.171,5.171,0,0,0-.523,2.57v2.313A5.381,5.381,0,0,0,20.848-1.9a1.771,1.771,0,0,0,1.621.879,1.747,1.747,0,0,0,1.59-.828A5.186,5.186,0,0,0,24.6-4.461Z" transform="translate(909.826 6196.172)" fill="#12263f"/>
    <path id="Trazado_141842" data-name="Trazado 141842" d="M8.4,0H.945V-1.039L4.883-5.414A9.354,9.354,0,0,0,6.09-7.027a2.693,2.693,0,0,0,.332-1.285,2.041,2.041,0,0,0-.539-1.461,1.885,1.885,0,0,0-1.437-.57A2.232,2.232,0,0,0,2.77-9.73a2.343,2.343,0,0,0-.6,1.707H.727a3.355,3.355,0,0,1,1.012-2.539,3.751,3.751,0,0,1,2.707-.969,3.6,3.6,0,0,1,2.508.832,2.838,2.838,0,0,1,.922,2.215q0,1.68-2.141,4L2.688-1.18H8.4Zm8.664-4.852A6.61,6.61,0,0,1,16.2-1.078,3.084,3.084,0,0,1,13.484.156a3.107,3.107,0,0,1-2.7-1.207,6.274,6.274,0,0,1-.906-3.605v-1.93a6.463,6.463,0,0,1,.867-3.727,3.108,3.108,0,0,1,2.719-1.219,3.136,3.136,0,0,1,2.7,1.176,6.237,6.237,0,0,1,.891,3.629ZM15.617-6.828A5.3,5.3,0,0,0,15.1-9.5a1.775,1.775,0,0,0-1.633-.84,1.751,1.751,0,0,0-1.617.836,5.171,5.171,0,0,0-.523,2.57v2.313A5.381,5.381,0,0,0,11.863-1.9a1.771,1.771,0,0,0,1.621.879,1.747,1.747,0,0,0,1.59-.828,5.186,5.186,0,0,0,.543-2.609Zm10.43,1.977a6.61,6.61,0,0,1-.867,3.773A3.084,3.084,0,0,1,22.469.156a3.107,3.107,0,0,1-2.7-1.207,6.274,6.274,0,0,1-.906-3.605v-1.93a6.463,6.463,0,0,1,.867-3.727,3.108,3.108,0,0,1,2.719-1.219,3.136,3.136,0,0,1,2.7,1.176,6.237,6.237,0,0,1,.891,3.629ZM24.6-6.828A5.3,5.3,0,0,0,24.086-9.5a1.775,1.775,0,0,0-1.633-.84,1.751,1.751,0,0,0-1.617.836,5.171,5.171,0,0,0-.523,2.57v2.313A5.381,5.381,0,0,0,20.848-1.9a1.771,1.771,0,0,0,1.621.879,1.747,1.747,0,0,0,1.59-.828A5.186,5.186,0,0,0,24.6-4.461Z" transform="translate(1053.748 6196.172)" fill="#12263f"/>
    <path id="Trazado_141843" data-name="Trazado 141843" d="M6.688-2.93a1.626,1.626,0,0,0-.5-1.211,4.508,4.508,0,0,0-1.7-.891A5.447,5.447,0,0,1,2.059-6.355,2.921,2.921,0,0,1,1.3-8.43a3,3,0,0,1,.746-2.1,3.17,3.17,0,0,1,2.051-.977v-1.711H5.258V-11.5A3.011,3.011,0,0,1,7.3-10.4a3.959,3.959,0,0,1,.73,2.523H6.594A2.721,2.721,0,0,0,6.07-9.631a1.72,1.72,0,0,0-1.414-.651A1.951,1.951,0,0,0,3.234-9.8a1.791,1.791,0,0,0-.492,1.342,1.636,1.636,0,0,0,.52,1.272,4.786,4.786,0,0,0,1.711.861,7.2,7.2,0,0,1,1.859.852,2.991,2.991,0,0,1,.984,1.082,3.128,3.128,0,0,1,.316,1.445A2.9,2.9,0,0,1,7.34-.82,3.516,3.516,0,0,1,5.117.133V1.625H3.961V.133A3.369,3.369,0,0,1,1.684-.9,3.493,3.493,0,0,1,.859-3.352H2.3a2.3,2.3,0,0,0,.57,1.672,2.153,2.153,0,0,0,1.617.586A2.426,2.426,0,0,0,6.1-1.586,1.662,1.662,0,0,0,6.688-2.93ZM17.063-4.852A6.61,6.61,0,0,1,16.2-1.078,3.084,3.084,0,0,1,13.484.156a3.107,3.107,0,0,1-2.7-1.207,6.274,6.274,0,0,1-.906-3.605v-1.93a6.463,6.463,0,0,1,.867-3.727,3.108,3.108,0,0,1,2.719-1.219,3.136,3.136,0,0,1,2.7,1.176,6.237,6.237,0,0,1,.891,3.629ZM15.617-6.828A5.3,5.3,0,0,0,15.1-9.5a1.775,1.775,0,0,0-1.633-.84,1.751,1.751,0,0,0-1.617.836,5.171,5.171,0,0,0-.523,2.57v2.313A5.381,5.381,0,0,0,11.863-1.9a1.771,1.771,0,0,0,1.621.879,1.747,1.747,0,0,0,1.59-.828,5.186,5.186,0,0,0,.543-2.609Z" transform="translate(518.353 6164.676)" fill="#12263f"/>
    <path id="Trazado_141844" data-name="Trazado 141844" d="M6.688-2.93a1.626,1.626,0,0,0-.5-1.211,4.508,4.508,0,0,0-1.7-.891A5.447,5.447,0,0,1,2.059-6.355,2.921,2.921,0,0,1,1.3-8.43a3,3,0,0,1,.746-2.1,3.17,3.17,0,0,1,2.051-.977v-1.711H5.258V-11.5A3.011,3.011,0,0,1,7.3-10.4a3.959,3.959,0,0,1,.73,2.523H6.594A2.721,2.721,0,0,0,6.07-9.631a1.72,1.72,0,0,0-1.414-.651A1.951,1.951,0,0,0,3.234-9.8a1.791,1.791,0,0,0-.492,1.342,1.636,1.636,0,0,0,.52,1.272,4.786,4.786,0,0,0,1.711.861,7.2,7.2,0,0,1,1.859.852,2.991,2.991,0,0,1,.984,1.082,3.128,3.128,0,0,1,.316,1.445A2.9,2.9,0,0,1,7.34-.82,3.516,3.516,0,0,1,5.117.133V1.625H3.961V.133A3.369,3.369,0,0,1,1.684-.9,3.493,3.493,0,0,1,.859-3.352H2.3a2.3,2.3,0,0,0,.57,1.672,2.153,2.153,0,0,0,1.617.586A2.426,2.426,0,0,0,6.1-1.586,1.662,1.662,0,0,0,6.688-2.93ZM14.68,0H13.227V-9.633l-2.914,1.07V-9.875l4.141-1.555h.227Zm4.414-.758a.905.905,0,0,1,.223-.625.848.848,0,0,1,.668-.25.874.874,0,0,1,.676.25.887.887,0,0,1,.23.625.839.839,0,0,1-.23.6.89.89,0,0,1-.676.242.863.863,0,0,1-.668-.242A.855.855,0,0,1,19.094-.758ZM30.258-4.852a6.61,6.61,0,0,1-.867,3.773A3.084,3.084,0,0,1,26.68.156a3.107,3.107,0,0,1-2.7-1.207,6.274,6.274,0,0,1-.906-3.605v-1.93a6.463,6.463,0,0,1,.867-3.727,3.108,3.108,0,0,1,2.719-1.219,3.136,3.136,0,0,1,2.7,1.176,6.237,6.237,0,0,1,.891,3.629ZM28.813-6.828A5.3,5.3,0,0,0,28.3-9.5a1.775,1.775,0,0,0-1.633-.84,1.751,1.751,0,0,0-1.617.836,5.171,5.171,0,0,0-.523,2.57v2.313A5.381,5.381,0,0,0,25.059-1.9a1.771,1.771,0,0,0,1.621.879,1.747,1.747,0,0,0,1.59-.828,5.186,5.186,0,0,0,.543-2.609Zm10.43,1.977a6.61,6.61,0,0,1-.867,3.773A3.084,3.084,0,0,1,35.664.156a3.107,3.107,0,0,1-2.7-1.207,6.274,6.274,0,0,1-.906-3.605v-1.93a6.463,6.463,0,0,1,.867-3.727,3.108,3.108,0,0,1,2.719-1.219,3.136,3.136,0,0,1,2.7,1.176,6.237,6.237,0,0,1,.891,3.629ZM37.8-6.828A5.3,5.3,0,0,0,37.281-9.5a1.775,1.775,0,0,0-1.633-.84,1.751,1.751,0,0,0-1.617.836,5.171,5.171,0,0,0-.523,2.57v2.313A5.381,5.381,0,0,0,34.043-1.9a1.771,1.771,0,0,0,1.621.879,1.747,1.747,0,0,0,1.59-.828A5.186,5.186,0,0,0,37.8-4.461Zm10.43,1.977a6.61,6.61,0,0,1-.867,3.773A3.084,3.084,0,0,1,44.648.156a3.107,3.107,0,0,1-2.7-1.207,6.274,6.274,0,0,1-.906-3.605v-1.93a6.463,6.463,0,0,1,.867-3.727,3.108,3.108,0,0,1,2.719-1.219,3.136,3.136,0,0,1,2.7,1.176,6.237,6.237,0,0,1,.891,3.629ZM46.781-6.828A5.3,5.3,0,0,0,46.266-9.5a1.775,1.775,0,0,0-1.633-.84,1.751,1.751,0,0,0-1.617.836,5.171,5.171,0,0,0-.523,2.57v2.313A5.381,5.381,0,0,0,43.027-1.9a1.771,1.771,0,0,0,1.621.879,1.747,1.747,0,0,0,1.59-.828,5.186,5.186,0,0,0,.543-2.609Z" transform="translate(480.635 6128.426)" fill="#12263f"/>
    <path id="Trazado_141845" data-name="Trazado 141845" d="M6.688-2.93a1.626,1.626,0,0,0-.5-1.211,4.508,4.508,0,0,0-1.7-.891A5.447,5.447,0,0,1,2.059-6.355,2.921,2.921,0,0,1,1.3-8.43a3,3,0,0,1,.746-2.1,3.17,3.17,0,0,1,2.051-.977v-1.711H5.258V-11.5A3.011,3.011,0,0,1,7.3-10.4a3.959,3.959,0,0,1,.73,2.523H6.594A2.721,2.721,0,0,0,6.07-9.631a1.72,1.72,0,0,0-1.414-.651A1.951,1.951,0,0,0,3.234-9.8a1.791,1.791,0,0,0-.492,1.342,1.636,1.636,0,0,0,.52,1.272,4.786,4.786,0,0,0,1.711.861,7.2,7.2,0,0,1,1.859.852,2.991,2.991,0,0,1,.984,1.082,3.128,3.128,0,0,1,.316,1.445A2.9,2.9,0,0,1,7.34-.82,3.516,3.516,0,0,1,5.117.133V1.625H3.961V.133A3.369,3.369,0,0,1,1.684-.9,3.493,3.493,0,0,1,.859-3.352H2.3a2.3,2.3,0,0,0,.57,1.672,2.153,2.153,0,0,0,1.617.586A2.426,2.426,0,0,0,6.1-1.586,1.662,1.662,0,0,0,6.688-2.93ZM17.383,0H9.93V-1.039l3.938-4.375a9.354,9.354,0,0,0,1.207-1.613,2.693,2.693,0,0,0,.332-1.285,2.041,2.041,0,0,0-.539-1.461,1.885,1.885,0,0,0-1.437-.57,2.232,2.232,0,0,0-1.676.613,2.343,2.343,0,0,0-.6,1.707H9.711a3.355,3.355,0,0,1,1.012-2.539,3.751,3.751,0,0,1,2.707-.969,3.6,3.6,0,0,1,2.508.832,2.838,2.838,0,0,1,.922,2.215q0,1.68-2.141,4l-3.047,3.3h5.711Zm1.633,2.266L18.2,1.7a3.77,3.77,0,0,0,.766-2.109v-1.3h1.414V-.578A3.559,3.559,0,0,1,19.988,1,3.7,3.7,0,0,1,19.016,2.266ZM29.188-4.852a6.61,6.61,0,0,1-.867,3.773A3.084,3.084,0,0,1,25.609.156a3.107,3.107,0,0,1-2.7-1.207,6.274,6.274,0,0,1-.906-3.605v-1.93a6.463,6.463,0,0,1,.867-3.727,3.108,3.108,0,0,1,2.719-1.219,3.136,3.136,0,0,1,2.7,1.176,6.237,6.237,0,0,1,.891,3.629ZM27.742-6.828A5.3,5.3,0,0,0,27.227-9.5a1.775,1.775,0,0,0-1.633-.84,1.751,1.751,0,0,0-1.617.836,5.171,5.171,0,0,0-.523,2.57v2.313A5.381,5.381,0,0,0,23.988-1.9a1.771,1.771,0,0,0,1.621.879,1.747,1.747,0,0,0,1.59-.828,5.186,5.186,0,0,0,.543-2.609Zm10.43,1.977A6.61,6.61,0,0,1,37.3-1.078,3.084,3.084,0,0,1,34.594.156a3.107,3.107,0,0,1-2.7-1.207,6.274,6.274,0,0,1-.906-3.605v-1.93a6.463,6.463,0,0,1,.867-3.727,3.108,3.108,0,0,1,2.719-1.219,3.136,3.136,0,0,1,2.7,1.176,6.237,6.237,0,0,1,.891,3.629ZM36.727-6.828A5.3,5.3,0,0,0,36.211-9.5a1.775,1.775,0,0,0-1.633-.84,1.751,1.751,0,0,0-1.617.836,5.171,5.171,0,0,0-.523,2.57v2.313A5.381,5.381,0,0,0,32.973-1.9a1.771,1.771,0,0,0,1.621.879,1.747,1.747,0,0,0,1.59-.828,5.186,5.186,0,0,0,.543-2.609Zm10.43,1.977a6.61,6.61,0,0,1-.867,3.773A3.084,3.084,0,0,1,43.578.156a3.107,3.107,0,0,1-2.7-1.207,6.274,6.274,0,0,1-.906-3.605v-1.93a6.463,6.463,0,0,1,.867-3.727,3.108,3.108,0,0,1,2.719-1.219,3.136,3.136,0,0,1,2.7,1.176,6.237,6.237,0,0,1,.891,3.629ZM45.711-6.828A5.3,5.3,0,0,0,45.2-9.5a1.775,1.775,0,0,0-1.633-.84,1.751,1.751,0,0,0-1.617.836,5.171,5.171,0,0,0-.523,2.57v2.313A5.381,5.381,0,0,0,41.957-1.9a1.771,1.771,0,0,0,1.621.879,1.747,1.747,0,0,0,1.59-.828,5.186,5.186,0,0,0,.543-2.609Z" transform="translate(480.635 6096.092)" fill="#12263f"/>
    <path id="Trazado_141846" data-name="Trazado 141846" d="M6.688-2.93a1.626,1.626,0,0,0-.5-1.211,4.508,4.508,0,0,0-1.7-.891A5.447,5.447,0,0,1,2.059-6.355,2.921,2.921,0,0,1,1.3-8.43a3,3,0,0,1,.746-2.1,3.17,3.17,0,0,1,2.051-.977v-1.711H5.258V-11.5A3.011,3.011,0,0,1,7.3-10.4a3.959,3.959,0,0,1,.73,2.523H6.594A2.721,2.721,0,0,0,6.07-9.631a1.72,1.72,0,0,0-1.414-.651A1.951,1.951,0,0,0,3.234-9.8a1.791,1.791,0,0,0-.492,1.342,1.636,1.636,0,0,0,.52,1.272,4.786,4.786,0,0,0,1.711.861,7.2,7.2,0,0,1,1.859.852,2.991,2.991,0,0,1,.984,1.082,3.128,3.128,0,0,1,.316,1.445A2.9,2.9,0,0,1,7.34-.82,3.516,3.516,0,0,1,5.117.133V1.625H3.961V.133A3.369,3.369,0,0,1,1.684-.9,3.493,3.493,0,0,1,.859-3.352H2.3a2.3,2.3,0,0,0,.57,1.672,2.153,2.153,0,0,0,1.617.586A2.426,2.426,0,0,0,6.1-1.586,1.662,1.662,0,0,0,6.688-2.93Zm5.344-3.461h1.086a2.387,2.387,0,0,0,1.609-.539,1.8,1.8,0,0,0,.586-1.414,1.764,1.764,0,0,0-1.992-2,2.072,2.072,0,0,0-1.5.535,1.873,1.873,0,0,0-.559,1.418H9.82a2.9,2.9,0,0,1,.988-2.246,3.6,3.6,0,0,1,2.512-.895,3.558,3.558,0,0,1,2.523.852,3.076,3.076,0,0,1,.914,2.367,2.5,2.5,0,0,1-.48,1.438,2.9,2.9,0,0,1-1.309,1.039,2.8,2.8,0,0,1,1.449.984,2.734,2.734,0,0,1,.512,1.68,3.1,3.1,0,0,1-1,2.43,3.745,3.745,0,0,1-2.6.9,3.844,3.844,0,0,1-2.605-.867A2.877,2.877,0,0,1,9.719-3h1.453a1.859,1.859,0,0,0,.586,1.438,2.229,2.229,0,0,0,1.57.539,2.187,2.187,0,0,0,1.6-.547,2.108,2.108,0,0,0,.555-1.57,1.912,1.912,0,0,0-.609-1.523,2.655,2.655,0,0,0-1.758-.547H12.031Zm6.984,8.656L18.2,1.7a3.77,3.77,0,0,0,.766-2.109v-1.3h1.414V-.578A3.559,3.559,0,0,1,19.988,1,3.7,3.7,0,0,1,19.016,2.266ZM29.188-4.852a6.61,6.61,0,0,1-.867,3.773A3.084,3.084,0,0,1,25.609.156a3.107,3.107,0,0,1-2.7-1.207,6.274,6.274,0,0,1-.906-3.605v-1.93a6.463,6.463,0,0,1,.867-3.727,3.108,3.108,0,0,1,2.719-1.219,3.136,3.136,0,0,1,2.7,1.176,6.237,6.237,0,0,1,.891,3.629ZM27.742-6.828A5.3,5.3,0,0,0,27.227-9.5a1.775,1.775,0,0,0-1.633-.84,1.751,1.751,0,0,0-1.617.836,5.171,5.171,0,0,0-.523,2.57v2.313A5.381,5.381,0,0,0,23.988-1.9a1.771,1.771,0,0,0,1.621.879,1.747,1.747,0,0,0,1.59-.828,5.186,5.186,0,0,0,.543-2.609Zm10.43,1.977A6.61,6.61,0,0,1,37.3-1.078,3.084,3.084,0,0,1,34.594.156a3.107,3.107,0,0,1-2.7-1.207,6.274,6.274,0,0,1-.906-3.605v-1.93a6.463,6.463,0,0,1,.867-3.727,3.108,3.108,0,0,1,2.719-1.219,3.136,3.136,0,0,1,2.7,1.176,6.237,6.237,0,0,1,.891,3.629ZM36.727-6.828A5.3,5.3,0,0,0,36.211-9.5a1.775,1.775,0,0,0-1.633-.84,1.751,1.751,0,0,0-1.617.836,5.171,5.171,0,0,0-.523,2.57v2.313A5.381,5.381,0,0,0,32.973-1.9a1.771,1.771,0,0,0,1.621.879,1.747,1.747,0,0,0,1.59-.828,5.186,5.186,0,0,0,.543-2.609Zm10.43,1.977a6.61,6.61,0,0,1-.867,3.773A3.084,3.084,0,0,1,43.578.156a3.107,3.107,0,0,1-2.7-1.207,6.274,6.274,0,0,1-.906-3.605v-1.93a6.463,6.463,0,0,1,.867-3.727,3.108,3.108,0,0,1,2.719-1.219,3.136,3.136,0,0,1,2.7,1.176,6.237,6.237,0,0,1,.891,3.629ZM45.711-6.828A5.3,5.3,0,0,0,45.2-9.5a1.775,1.775,0,0,0-1.633-.84,1.751,1.751,0,0,0-1.617.836,5.171,5.171,0,0,0-.523,2.57v2.313A5.381,5.381,0,0,0,41.957-1.9a1.771,1.771,0,0,0,1.621.879,1.747,1.747,0,0,0,1.59-.828,5.186,5.186,0,0,0,.543-2.609Z" transform="translate(480.635 6063.75)" fill="#12263f"/>
    <path id="Trazado_141847" data-name="Trazado 141847" d="M6.688-2.93a1.626,1.626,0,0,0-.5-1.211,4.508,4.508,0,0,0-1.7-.891A5.447,5.447,0,0,1,2.059-6.355,2.921,2.921,0,0,1,1.3-8.43a3,3,0,0,1,.746-2.1,3.17,3.17,0,0,1,2.051-.977v-1.711H5.258V-11.5A3.011,3.011,0,0,1,7.3-10.4a3.959,3.959,0,0,1,.73,2.523H6.594A2.721,2.721,0,0,0,6.07-9.631a1.72,1.72,0,0,0-1.414-.651A1.951,1.951,0,0,0,3.234-9.8a1.791,1.791,0,0,0-.492,1.342,1.636,1.636,0,0,0,.52,1.272,4.786,4.786,0,0,0,1.711.861,7.2,7.2,0,0,1,1.859.852,2.991,2.991,0,0,1,.984,1.082,3.128,3.128,0,0,1,.316,1.445A2.9,2.9,0,0,1,7.34-.82,3.516,3.516,0,0,1,5.117.133V1.625H3.961V.133A3.369,3.369,0,0,1,1.684-.9,3.493,3.493,0,0,1,.859-3.352H2.3a2.3,2.3,0,0,0,.57,1.672,2.153,2.153,0,0,0,1.617.586A2.426,2.426,0,0,0,6.1-1.586,1.662,1.662,0,0,0,6.688-2.93Zm9.344-.891h1.578v1.18H16.031V0H14.578V-2.641H9.4v-.852l5.094-7.883h1.539Zm-4.992,0h3.539V-9.4l-.172.313ZM19.094-.758a.905.905,0,0,1,.223-.625.848.848,0,0,1,.668-.25.874.874,0,0,1,.676.25.887.887,0,0,1,.23.625.839.839,0,0,1-.23.6.89.89,0,0,1-.676.242.863.863,0,0,1-.668-.242A.855.855,0,0,1,19.094-.758ZM30.258-4.852a6.61,6.61,0,0,1-.867,3.773A3.084,3.084,0,0,1,26.68.156a3.107,3.107,0,0,1-2.7-1.207,6.274,6.274,0,0,1-.906-3.605v-1.93a6.463,6.463,0,0,1,.867-3.727,3.108,3.108,0,0,1,2.719-1.219,3.136,3.136,0,0,1,2.7,1.176,6.237,6.237,0,0,1,.891,3.629ZM28.813-6.828A5.3,5.3,0,0,0,28.3-9.5a1.775,1.775,0,0,0-1.633-.84,1.751,1.751,0,0,0-1.617.836,5.171,5.171,0,0,0-.523,2.57v2.313A5.381,5.381,0,0,0,25.059-1.9a1.771,1.771,0,0,0,1.621.879,1.747,1.747,0,0,0,1.59-.828,5.186,5.186,0,0,0,.543-2.609Zm10.43,1.977a6.61,6.61,0,0,1-.867,3.773A3.084,3.084,0,0,1,35.664.156a3.107,3.107,0,0,1-2.7-1.207,6.274,6.274,0,0,1-.906-3.605v-1.93a6.463,6.463,0,0,1,.867-3.727,3.108,3.108,0,0,1,2.719-1.219,3.136,3.136,0,0,1,2.7,1.176,6.237,6.237,0,0,1,.891,3.629ZM37.8-6.828A5.3,5.3,0,0,0,37.281-9.5a1.775,1.775,0,0,0-1.633-.84,1.751,1.751,0,0,0-1.617.836,5.171,5.171,0,0,0-.523,2.57v2.313A5.381,5.381,0,0,0,34.043-1.9a1.771,1.771,0,0,0,1.621.879,1.747,1.747,0,0,0,1.59-.828A5.186,5.186,0,0,0,37.8-4.461Zm10.43,1.977a6.61,6.61,0,0,1-.867,3.773A3.084,3.084,0,0,1,44.648.156a3.107,3.107,0,0,1-2.7-1.207,6.274,6.274,0,0,1-.906-3.605v-1.93a6.463,6.463,0,0,1,.867-3.727,3.108,3.108,0,0,1,2.719-1.219,3.136,3.136,0,0,1,2.7,1.176,6.237,6.237,0,0,1,.891,3.629ZM46.781-6.828A5.3,5.3,0,0,0,46.266-9.5a1.775,1.775,0,0,0-1.633-.84,1.751,1.751,0,0,0-1.617.836,5.171,5.171,0,0,0-.523,2.57v2.313A5.381,5.381,0,0,0,43.027-1.9a1.771,1.771,0,0,0,1.621.879,1.747,1.747,0,0,0,1.59-.828,5.186,5.186,0,0,0,.543-2.609Z" transform="translate(480.635 6029.434)" fill="#12263f"/>
    <path id="Trazado_141848" data-name="Trazado 141848" d="M6.688-2.93a1.626,1.626,0,0,0-.5-1.211,4.508,4.508,0,0,0-1.7-.891A5.447,5.447,0,0,1,2.059-6.355,2.921,2.921,0,0,1,1.3-8.43a3,3,0,0,1,.746-2.1,3.17,3.17,0,0,1,2.051-.977v-1.711H5.258V-11.5A3.011,3.011,0,0,1,7.3-10.4a3.959,3.959,0,0,1,.73,2.523H6.594A2.721,2.721,0,0,0,6.07-9.631a1.72,1.72,0,0,0-1.414-.651A1.951,1.951,0,0,0,3.234-9.8a1.791,1.791,0,0,0-.492,1.342,1.636,1.636,0,0,0,.52,1.272,4.786,4.786,0,0,0,1.711.861,7.2,7.2,0,0,1,1.859.852,2.991,2.991,0,0,1,.984,1.082,3.128,3.128,0,0,1,.316,1.445A2.9,2.9,0,0,1,7.34-.82,3.516,3.516,0,0,1,5.117.133V1.625H3.961V.133A3.369,3.369,0,0,1,1.684-.9,3.493,3.493,0,0,1,.859-3.352H2.3a2.3,2.3,0,0,0,.57,1.672,2.153,2.153,0,0,0,1.617.586A2.426,2.426,0,0,0,6.1-1.586,1.662,1.662,0,0,0,6.688-2.93ZM10.594-5.7l.578-5.672H17v1.336H12.4l-.344,3.1a3.671,3.671,0,0,1,1.9-.492A3.138,3.138,0,0,1,16.422-6.4a4.026,4.026,0,0,1,.914,2.777,3.886,3.886,0,0,1-.949,2.77A3.46,3.46,0,0,1,13.734.156,3.6,3.6,0,0,1,11.273-.68a3.337,3.337,0,0,1-1.086-2.312h1.367a2.3,2.3,0,0,0,.7,1.473,2.162,2.162,0,0,0,1.484.5,1.95,1.95,0,0,0,1.582-.687,2.874,2.874,0,0,0,.574-1.9,2.638,2.638,0,0,0-.621-1.832,2.113,2.113,0,0,0-1.652-.691,2.383,2.383,0,0,0-1.484.414l-.383.313Zm8.5,4.945a.905.905,0,0,1,.223-.625.848.848,0,0,1,.668-.25.874.874,0,0,1,.676.25.887.887,0,0,1,.23.625.839.839,0,0,1-.23.6.89.89,0,0,1-.676.242.863.863,0,0,1-.668-.242A.855.855,0,0,1,19.094-.758ZM30.258-4.852a6.61,6.61,0,0,1-.867,3.773A3.084,3.084,0,0,1,26.68.156a3.107,3.107,0,0,1-2.7-1.207,6.274,6.274,0,0,1-.906-3.605v-1.93a6.463,6.463,0,0,1,.867-3.727,3.108,3.108,0,0,1,2.719-1.219,3.136,3.136,0,0,1,2.7,1.176,6.237,6.237,0,0,1,.891,3.629ZM28.813-6.828A5.3,5.3,0,0,0,28.3-9.5a1.775,1.775,0,0,0-1.633-.84,1.751,1.751,0,0,0-1.617.836,5.171,5.171,0,0,0-.523,2.57v2.313A5.381,5.381,0,0,0,25.059-1.9a1.771,1.771,0,0,0,1.621.879,1.747,1.747,0,0,0,1.59-.828,5.186,5.186,0,0,0,.543-2.609Zm10.43,1.977a6.61,6.61,0,0,1-.867,3.773A3.084,3.084,0,0,1,35.664.156a3.107,3.107,0,0,1-2.7-1.207,6.274,6.274,0,0,1-.906-3.605v-1.93a6.463,6.463,0,0,1,.867-3.727,3.108,3.108,0,0,1,2.719-1.219,3.136,3.136,0,0,1,2.7,1.176,6.237,6.237,0,0,1,.891,3.629ZM37.8-6.828A5.3,5.3,0,0,0,37.281-9.5a1.775,1.775,0,0,0-1.633-.84,1.751,1.751,0,0,0-1.617.836,5.171,5.171,0,0,0-.523,2.57v2.313A5.381,5.381,0,0,0,34.043-1.9a1.771,1.771,0,0,0,1.621.879,1.747,1.747,0,0,0,1.59-.828A5.186,5.186,0,0,0,37.8-4.461Zm10.43,1.977a6.61,6.61,0,0,1-.867,3.773A3.084,3.084,0,0,1,44.648.156a3.107,3.107,0,0,1-2.7-1.207,6.274,6.274,0,0,1-.906-3.605v-1.93a6.463,6.463,0,0,1,.867-3.727,3.108,3.108,0,0,1,2.719-1.219,3.136,3.136,0,0,1,2.7,1.176,6.237,6.237,0,0,1,.891,3.629ZM46.781-6.828A5.3,5.3,0,0,0,46.266-9.5a1.775,1.775,0,0,0-1.633-.84,1.751,1.751,0,0,0-1.617.836,5.171,5.171,0,0,0-.523,2.57v2.313A5.381,5.381,0,0,0,43.027-1.9a1.771,1.771,0,0,0,1.621.879,1.747,1.747,0,0,0,1.59-.828,5.186,5.186,0,0,0,.543-2.609Z" transform="translate(480.635 5997.094)" fill="#12263f"/>
    <path id="Trazado_141849" data-name="Trazado 141849" d="M6.688-2.93a1.626,1.626,0,0,0-.5-1.211,4.508,4.508,0,0,0-1.7-.891A5.447,5.447,0,0,1,2.059-6.355,2.921,2.921,0,0,1,1.3-8.43a3,3,0,0,1,.746-2.1,3.17,3.17,0,0,1,2.051-.977v-1.711H5.258V-11.5A3.011,3.011,0,0,1,7.3-10.4a3.959,3.959,0,0,1,.73,2.523H6.594A2.721,2.721,0,0,0,6.07-9.631a1.72,1.72,0,0,0-1.414-.651A1.951,1.951,0,0,0,3.234-9.8a1.791,1.791,0,0,0-.492,1.342,1.636,1.636,0,0,0,.52,1.272,4.786,4.786,0,0,0,1.711.861,7.2,7.2,0,0,1,1.859.852,2.991,2.991,0,0,1,.984,1.082,3.128,3.128,0,0,1,.316,1.445A2.9,2.9,0,0,1,7.34-.82,3.516,3.516,0,0,1,5.117.133V1.625H3.961V.133A3.369,3.369,0,0,1,1.684-.9,3.493,3.493,0,0,1,.859-3.352H2.3a2.3,2.3,0,0,0,.57,1.672,2.153,2.153,0,0,0,1.617.586A2.426,2.426,0,0,0,6.1-1.586,1.662,1.662,0,0,0,6.688-2.93ZM15.6-11.383v1.227h-.266a3.805,3.805,0,0,0-2.687,1A4.161,4.161,0,0,0,11.492-6.43a3.085,3.085,0,0,1,2.453-1.031,2.95,2.95,0,0,1,2.371,1.047,4.038,4.038,0,0,1,.887,2.7A4.025,4.025,0,0,1,16.246-.9,3.3,3.3,0,0,1,13.68.156,3.247,3.247,0,0,1,11.031-1.1a4.97,4.97,0,0,1-1.016-3.23v-.555a7.488,7.488,0,0,1,1.34-4.8,4.921,4.921,0,0,1,3.988-1.7ZM13.7-6.258a2.306,2.306,0,0,0-1.367.445A2.32,2.32,0,0,0,11.469-4.7v.531A3.731,3.731,0,0,0,12.1-1.9a1.9,1.9,0,0,0,1.578.859,1.838,1.838,0,0,0,1.535-.719,2.982,2.982,0,0,0,.559-1.883,2.983,2.983,0,0,0-.566-1.895A1.816,1.816,0,0,0,13.7-6.258Zm5.391,5.5a.905.905,0,0,1,.223-.625.848.848,0,0,1,.668-.25.874.874,0,0,1,.676.25.887.887,0,0,1,.23.625.839.839,0,0,1-.23.6.89.89,0,0,1-.676.242.863.863,0,0,1-.668-.242A.855.855,0,0,1,19.094-.758ZM30.258-4.852a6.61,6.61,0,0,1-.867,3.773A3.084,3.084,0,0,1,26.68.156a3.107,3.107,0,0,1-2.7-1.207,6.274,6.274,0,0,1-.906-3.605v-1.93a6.463,6.463,0,0,1,.867-3.727,3.108,3.108,0,0,1,2.719-1.219,3.136,3.136,0,0,1,2.7,1.176,6.237,6.237,0,0,1,.891,3.629ZM28.813-6.828A5.3,5.3,0,0,0,28.3-9.5a1.775,1.775,0,0,0-1.633-.84,1.751,1.751,0,0,0-1.617.836,5.171,5.171,0,0,0-.523,2.57v2.313A5.381,5.381,0,0,0,25.059-1.9a1.771,1.771,0,0,0,1.621.879,1.747,1.747,0,0,0,1.59-.828,5.186,5.186,0,0,0,.543-2.609Zm10.43,1.977a6.61,6.61,0,0,1-.867,3.773A3.084,3.084,0,0,1,35.664.156a3.107,3.107,0,0,1-2.7-1.207,6.274,6.274,0,0,1-.906-3.605v-1.93a6.463,6.463,0,0,1,.867-3.727,3.108,3.108,0,0,1,2.719-1.219,3.136,3.136,0,0,1,2.7,1.176,6.237,6.237,0,0,1,.891,3.629ZM37.8-6.828A5.3,5.3,0,0,0,37.281-9.5a1.775,1.775,0,0,0-1.633-.84,1.751,1.751,0,0,0-1.617.836,5.171,5.171,0,0,0-.523,2.57v2.313A5.381,5.381,0,0,0,34.043-1.9a1.771,1.771,0,0,0,1.621.879,1.747,1.747,0,0,0,1.59-.828A5.186,5.186,0,0,0,37.8-4.461Zm10.43,1.977a6.61,6.61,0,0,1-.867,3.773A3.084,3.084,0,0,1,44.648.156a3.107,3.107,0,0,1-2.7-1.207,6.274,6.274,0,0,1-.906-3.605v-1.93a6.463,6.463,0,0,1,.867-3.727,3.108,3.108,0,0,1,2.719-1.219,3.136,3.136,0,0,1,2.7,1.176,6.237,6.237,0,0,1,.891,3.629ZM46.781-6.828A5.3,5.3,0,0,0,46.266-9.5a1.775,1.775,0,0,0-1.633-.84,1.751,1.751,0,0,0-1.617.836,5.171,5.171,0,0,0-.523,2.57v2.313A5.381,5.381,0,0,0,43.027-1.9a1.771,1.771,0,0,0,1.621.879,1.747,1.747,0,0,0,1.59-.828,5.186,5.186,0,0,0,.543-2.609Z" transform="translate(480.635 5961.289)" fill="#12263f"/>
    <path id="Trazado_141850" data-name="Trazado 141850" d="M0,0H533" transform="translate(549.215 5956.5)" fill="none" stroke="#e8e8e8" stroke-width="1"/>
    <path id="Trazado_141851" data-name="Trazado 141851" d="M0,0H533" transform="translate(549.215 5990.35)" fill="none" stroke="#e8e8e8" stroke-width="1"/>
    <path id="Trazado_141852" data-name="Trazado 141852" d="M0,0H533" transform="translate(549.215 6023.537)" fill="none" stroke="#e8e8e8" stroke-width="1"/>
    <path id="Trazado_141853" data-name="Trazado 141853" d="M0,0H533" transform="translate(549.215 6056.721)" fill="none" stroke="#e8e8e8" stroke-width="1"/>
    <path id="Trazado_141854" data-name="Trazado 141854" d="M0,0H533" transform="translate(549.215 6089.906)" fill="none" stroke="#e8e8e8" stroke-width="1"/>
    <path id="Trazado_141855" data-name="Trazado 141855" d="M0,0H533" transform="translate(549.215 6123.754)" fill="none" stroke="#e8e8e8" stroke-width="1"/>
    <path id="Trazado_141856" data-name="Trazado 141856" d="M0,0H533" transform="translate(549.215 6157.604)" fill="none" stroke="#e8e8e8" stroke-width="1"/>
    <path id="Trazado_140054" data-name="Trazado 140054" d="M0,0,410.046,132.068" transform="translate(657.649 5991.676)" fill="none" stroke="#cb3921" stroke-linecap="round" stroke-width="4"/>
    <g id="Grupo_82045" data-name="Grupo 82045" transform="translate(424.352 6211.279)">
      <text id="Elasticidad_Unitaria" data-name="Elasticidad Unitaria" transform="matrix(1, 0, 0, 1, 71, 23)" fill="#12263f" font-size="16" font-family="Roboto-Regular, Roboto"><tspan x="0" y="0">Elasticidad Unitaria</tspan></text>
      <path id="Trazado_140055" data-name="Trazado 140055" d="M0,0H61.858" transform="translate(0 17.083)" fill="none" stroke="#cb3921" stroke-linecap="round" stroke-width="4"/>
    </g>
  </g>
</svg>
