<svg xmlns="http://www.w3.org/2000/svg" width="163" height="163" viewBox="0 0 163 163">
  <g id="empresa" transform="translate(-16 -16)">
    <g id="Grupo_82054" data-name="Grupo 82054" transform="translate(24.15 29.583)">
      <path id="Trazado_140058" data-name="Trazado 140058" d="M382.033,66.867V56h-32.6V66.867H344V167.383h43.467V66.867Z" transform="translate(-240.767 -56)" fill="#2a94ee"/>
      <path id="Trazado_140059" data-name="Trazado 140059" d="M62.477,384a78.8,78.8,0,0,0,131.435,0Z" transform="translate(-54.844 -272.617)" fill="#fed947"/>
      <path id="Trazado_140060" data-name="Trazado 140060" d="M158.033,278.333H120V240.3L139.017,224l19.017,16.3Z" transform="translate(-92.833 -166.95)" fill="#2a94ee"/>
      <path id="Trazado_140061" data-name="Trazado 140061" d="M270.033,225.5H232V165.733L253.733,144h16.3Z" transform="translate(-166.8 -114.117)" fill="#d64626"/>
      <path id="Trazado_140062" data-name="Trazado 140062" d="M112,432h97.8v5.433H112Z" transform="translate(-87.55 -304.317)"/>
      <path id="Trazado_140063" data-name="Trazado 140063" d="M67.167,325.883H40V304.15L53.583,296l13.583,8.15Z" transform="translate(-40 -214.5)" fill="#d64626"/>
    </g>
    <path id="Trazado_140064" data-name="Trazado 140064" d="M24,89.2,64.75,51.167,81.05,64.75,105.5,37.583,97.35,32.15,124.517,24,121.8,51.167l-8.15-5.433L81.05,81.05,64.75,67.467,24,105.5Z" transform="translate(-5.283 -5.283)" fill="#fed947"/>
    <g id="Grupo_82055" data-name="Grupo 82055" transform="translate(16 16)">
      <path id="Trazado_140065" data-name="Trazado 140065" d="M173.567,138.25V108.367h-5.433V138.25h-16.3V127.383H146.4V138.25H130.1V43.167h38.033v59.767h5.433V40.45a2.717,2.717,0,0,0-2.717-2.717h-2.717v-8.15a2.717,2.717,0,0,0-2.717-2.717H151.833V16H146.4V26.867H132.817a2.717,2.717,0,0,0-2.717,2.717v8.15h-2.717a2.717,2.717,0,0,0-2.717,2.717v16.3H111.083a2.716,2.716,0,0,0-1.921.8L87.429,79.279a2.716,2.716,0,0,0-.8,1.921V97.027L72.1,84.571a2.717,2.717,0,0,0-3.536,0l-19.017,16.3a2.717,2.717,0,0,0-.949,2.063v11.5l-9.469-5.681a2.716,2.716,0,0,0-2.8,0L22.752,116.9a2.717,2.717,0,0,0-1.319,2.33V138.25H16v5.433H30.34a81.516,81.516,0,0,0,134.321,0H179V138.25ZM135.533,32.3H162.7v5.433H135.533ZM92.067,82.325l20.142-20.142h12.458V138.25H111.083V127.383H105.65V138.25H92.067ZM54.033,104.183l16.3-13.972,16.3,13.972V138.25H73.05V127.383H67.617V138.25H54.033ZM26.867,120.772l10.867-6.52,10.867,6.52V138.25H40.45V127.383H35.017V138.25h-8.15Zm10.184,22.912H61.48a99.95,99.95,0,0,0,19.643,28.111A75.922,75.922,0,0,1,37.051,143.683Zm53.738,29.589a92.767,92.767,0,0,1-23.267-29.589h59.957a92.769,92.769,0,0,1-23.267,29.589q-3.329.292-6.711.294t-6.711-.294Zm23.088-1.479a99.949,99.949,0,0,0,19.643-28.111h24.43a75.922,75.922,0,0,1-44.073,28.111Z" transform="translate(-16 -16)"/>
      <path id="Trazado_140066" data-name="Trazado 140066" d="M144,288h5.433v13.583H144Z" transform="translate(-100.533 -195.633)"/>
      <path id="Trazado_140067" data-name="Trazado 140067" d="M192,288h5.433v13.583H192Z" transform="translate(-132.233 -195.633)"/>
      <path id="Trazado_140068" data-name="Trazado 140068" d="M256,288h5.433v13.583H256Z" transform="translate(-174.5 -195.633)"/>
      <path id="Trazado_140069" data-name="Trazado 140069" d="M304,288h5.433v13.583H304Z" transform="translate(-206.2 -195.633)"/>
      <path id="Trazado_140070" data-name="Trazado 140070" d="M256,232h5.433v13.583H256Z" transform="translate(-174.5 -158.65)"/>
      <path id="Trazado_140071" data-name="Trazado 140071" d="M304,232h5.433v13.583H304Z" transform="translate(-206.2 -158.65)"/>
      <path id="Trazado_140072" data-name="Trazado 140072" d="M368,232h5.433v13.583H368Z" transform="translate(-248.467 -158.65)"/>
      <path id="Trazado_140073" data-name="Trazado 140073" d="M400,232h5.433v13.583H400Z" transform="translate(-269.6 -158.65)"/>
      <path id="Trazado_140074" data-name="Trazado 140074" d="M368,176h5.433v13.583H368Z" transform="translate(-248.467 -121.667)"/>
      <path id="Trazado_140075" data-name="Trazado 140075" d="M400,176h5.433v13.583H400Z" transform="translate(-269.6 -121.667)"/>
      <path id="Trazado_140076" data-name="Trazado 140076" d="M368,120h5.433v13.583H368Z" transform="translate(-248.467 -84.683)"/>
      <path id="Trazado_140077" data-name="Trazado 140077" d="M400,120h5.433v13.583H400Z" transform="translate(-269.6 -84.683)"/>
      <path id="Trazado_140078" data-name="Trazado 140078" d="M432,232h5.433v13.583H432Z" transform="translate(-290.733 -158.65)"/>
      <path id="Trazado_140079" data-name="Trazado 140079" d="M368,288h5.433v13.583H368Z" transform="translate(-248.467 -195.633)"/>
      <path id="Trazado_140080" data-name="Trazado 140080" d="M400,288h5.433v13.583H400Z" transform="translate(-269.6 -195.633)"/>
      <path id="Trazado_140081" data-name="Trazado 140081" d="M432,288h5.433v13.583H432Z" transform="translate(-290.733 -195.633)"/>
      <path id="Trazado_140082" data-name="Trazado 140082" d="M432,176h5.433v13.583H432Z" transform="translate(-290.733 -121.667)"/>
      <path id="Trazado_140083" data-name="Trazado 140083" d="M432,120h5.433v13.583H432Z" transform="translate(-290.733 -84.683)"/>
      <path id="Trazado_140084" data-name="Trazado 140084" d="M304,176h5.433v13.583H304Z" transform="translate(-206.2 -121.667)"/>
      <path id="Trazado_140085" data-name="Trazado 140085" d="M17.634,102.708a2.717,2.717,0,0,0,2.936-.506l39-36.4L74.028,77.854a2.717,2.717,0,0,0,3.735-.244L108.79,44l6.22,4.147a2.717,2.717,0,0,0,4.21-1.99l2.717-27.167a2.717,2.717,0,0,0-3.484-2.872l-27.167,8.15a2.717,2.717,0,0,0-.726,4.862L96.1,32.818,75.5,55.705,61.206,43.8a2.717,2.717,0,0,0-3.593.1L43.06,57.481l3.707,3.972L59.569,49.5,74.028,61.554a2.717,2.717,0,0,0,3.758-.27l24.45-27.167a2.717,2.717,0,0,0-.512-4.078l-3.345-2.23,17.748-5.324-1.863,18.631-4.39-2.926a2.716,2.716,0,0,0-3.5.418L75.522,72.026,61.206,60.1a2.717,2.717,0,0,0-3.593.1L21.433,93.965V85.1L42.3,65.618,38.6,61.646,16.863,81.931A2.717,2.717,0,0,0,16,83.917v16.3a2.717,2.717,0,0,0,1.634,2.492Z" transform="translate(-16 -16)"/>
    </g>
  </g>
</svg>
