<svg id="empresa-2" xmlns="http://www.w3.org/2000/svg" width="171.195" height="171.195" viewBox="0 0 171.195 171.195">
  <g id="Grupo_82109" data-name="Grupo 82109" transform="translate(2.853 45.652)">
    <path id="Trazado_140227" data-name="Trazado 140227" d="M344,128v70.7a8.467,8.467,0,0,1,0,12.677V214.8a14.257,14.257,0,0,1,8.56,13.062v2.853h1.2a14.246,14.246,0,0,1,26.124,0h9.764V128Z" transform="translate(-224.163 -128)" fill="#fff5a2"/>
    <path id="Trazado_140228" data-name="Trazado 140228" d="M50.8,205.038a8.506,8.506,0,0,1,2.853-6.339V128H8V230.717h9.764a14.246,14.246,0,0,1,26.124,0h1.2v-2.853a14.257,14.257,0,0,1,8.56-13.062v-3.426A8.506,8.506,0,0,1,50.8,205.038Z" transform="translate(-8 -128)" fill="#fff5a2"/>
  </g>
  <path id="Trazado_140229" data-name="Trazado 140229" d="M136,8V121.5a8.548,8.548,0,1,1,5.707,14.9,14.266,14.266,0,0,1,14.266,14.266,17.12,17.12,0,1,1,34.239,0A14.266,14.266,0,0,1,204.478,136.4a8.557,8.557,0,1,1,5.707-14.9V8Z" transform="translate(-87.495 -5.147)" fill="#e8e8e8"/>
  <ellipse id="Elipse_4581" data-name="Elipse 4581" cx="11.5" cy="12" rx="11.5" ry="12" transform="translate(74 105)" fill="#f73445"/>
  <g id="Grupo_82110" data-name="Grupo 82110" transform="translate(17.12 122.541)">
    <circle id="Elipse_4582" data-name="Elipse 4582" cx="8.5" cy="8.5" r="8.5" transform="translate(-0.12 0.459)" fill="#2a94ee"/>
    <circle id="Elipse_4583" data-name="Elipse 4583" cx="8.5" cy="8.5" r="8.5" transform="translate(119.88 0.459)" fill="#2a94ee"/>
  </g>
  <path id="Trazado_140230" data-name="Trazado 140230" d="M209.12,360a17.119,17.119,0,0,1,17.12,17.12v22.826H192V377.12A17.119,17.119,0,0,1,209.12,360Z" transform="translate(-123.522 -231.604)" fill="#d64626"/>
  <g id="Grupo_82111" data-name="Grupo 82111" transform="translate(11.413 14.266)">
    <path id="Trazado_140231" data-name="Trazado 140231" d="M46.266,392a14.266,14.266,0,0,1,14.266,14.266v14.266H32V406.266A14.266,14.266,0,0,1,46.266,392Z" transform="translate(-32 -266.457)" fill="#2a94ee"/>
    <path id="Trazado_140232" data-name="Trazado 140232" d="M126.266,368a14.266,14.266,0,0,1,14.266,14.266v22.826H112V382.266A14.266,14.266,0,0,1,126.266,368Z" transform="translate(-83.467 -251.017)" fill="#2a94ee"/>
    <circle id="Elipse_4584" data-name="Elipse 4584" cx="8.5" cy="8.5" r="8.5" transform="translate(34.587 99.734)" fill="#2a94ee"/>
    <path id="Trazado_140233" data-name="Trazado 140233" d="M382.266,392a14.266,14.266,0,0,1,14.266,14.266v14.266H368V406.266A14.266,14.266,0,0,1,382.266,392Z" transform="translate(-248.163 -266.457)" fill="#2a94ee"/>
    <path id="Trazado_140234" data-name="Trazado 140234" d="M302.266,368a14.266,14.266,0,0,1,14.266,14.266v22.826H288V382.266A14.266,14.266,0,0,1,302.266,368Z" transform="translate(-196.696 -251.017)" fill="#2a94ee"/>
    <path id="Trazado_140265" data-name="Trazado 140265" d="M8.56,0a8.344,8.344,0,0,1,8.56,8.109,8.344,8.344,0,0,1-8.56,8.109A8.344,8.344,0,0,1,0,8.109,8.344,8.344,0,0,1,8.56,0Z" transform="translate(96.71 100.164)" fill="#2a94ee"/>
    <path id="Trazado_140235" data-name="Trazado 140235" d="M192,40h34.239V62.826H192Z" transform="translate(-134.935 -40)" fill="#fed947"/>
  </g>
  <path id="Trazado_140236" data-name="Trazado 140236" d="M168,160h5.707v5.707H168Z" transform="translate(-108.082 -102.935)"/>
  <path id="Trazado_140237" data-name="Trazado 140237" d="M168,192h5.707v5.706H168Z" transform="translate(-108.082 -123.522)"/>
  <path id="Trazado_140238" data-name="Trazado 140238" d="M168,224h5.707v5.707H168Z" transform="translate(-108.082 -144.109)"/>
  <path id="Trazado_140239" data-name="Trazado 140239" d="M168,256h5.707v5.707H168Z" transform="translate(-108.082 -164.696)"/>
  <path id="Trazado_140240" data-name="Trazado 140240" d="M200,160h5.707v5.707H200Z" transform="translate(-128.669 -102.935)"/>
  <path id="Trazado_140241" data-name="Trazado 140241" d="M200,192h5.707v5.706H200Z" transform="translate(-128.669 -123.522)"/>
  <path id="Trazado_140242" data-name="Trazado 140242" d="M200,224h5.707v5.707H200Z" transform="translate(-128.669 -144.109)"/>
  <path id="Trazado_140243" data-name="Trazado 140243" d="M200,256h5.707v5.707H200Z" transform="translate(-128.669 -164.696)"/>
  <path id="Trazado_140244" data-name="Trazado 140244" d="M232,160h5.707v5.707H232Z" transform="translate(-149.256 -102.935)"/>
  <path id="Trazado_140245" data-name="Trazado 140245" d="M232,192h5.707v5.706H232Z" transform="translate(-149.256 -123.522)"/>
  <path id="Trazado_140246" data-name="Trazado 140246" d="M232,224h5.707v5.707H232Z" transform="translate(-149.256 -144.109)"/>
  <path id="Trazado_140247" data-name="Trazado 140247" d="M232,256h5.707v5.707H232Z" transform="translate(-149.256 -164.696)"/>
  <path id="Trazado_140248" data-name="Trazado 140248" d="M264,160h5.707v5.707H264Z" transform="translate(-169.843 -102.935)"/>
  <path id="Trazado_140249" data-name="Trazado 140249" d="M200,128h5.707v5.707H200Z" transform="translate(-128.669 -82.348)"/>
  <path id="Trazado_140250" data-name="Trazado 140250" d="M232,128h5.707v5.707H232Z" transform="translate(-149.256 -82.348)"/>
  <path id="Trazado_140251" data-name="Trazado 140251" d="M264,128h5.707v5.707H264Z" transform="translate(-169.843 -82.348)"/>
  <path id="Trazado_140252" data-name="Trazado 140252" d="M264,192h5.707v5.706H264Z" transform="translate(-169.843 -123.522)"/>
  <path id="Trazado_140253" data-name="Trazado 140253" d="M264,224h5.707v5.707H264Z" transform="translate(-169.843 -144.109)"/>
  <path id="Trazado_140254" data-name="Trazado 140254" d="M264,256h5.707v5.707H264Z" transform="translate(-169.843 -164.696)"/>
  <path id="Trazado_140255" data-name="Trazado 140255" d="M296,160h5.707v5.707H296Z" transform="translate(-190.43 -102.935)"/>
  <path id="Trazado_140256" data-name="Trazado 140256" d="M296,192h5.707v5.706H296Z" transform="translate(-190.43 -123.522)"/>
  <path id="Trazado_140257" data-name="Trazado 140257" d="M296,224h5.707v5.707H296Z" transform="translate(-190.43 -144.109)"/>
  <path id="Trazado_140258" data-name="Trazado 140258" d="M296,256h5.707v5.707H296Z" transform="translate(-190.43 -164.696)"/>
  <path id="Trazado_140259" data-name="Trazado 140259" d="M168.342,42.8h-42.8V2.853A2.852,2.852,0,0,0,122.693,0H48.505a2.852,2.852,0,0,0-2.853,2.85V42.8H2.853A2.852,2.852,0,0,0,0,45.649v102.72a2.852,2.852,0,0,0,2.85,2.853H8.818a17.122,17.122,0,0,0-.258,2.853v14.266a2.852,2.852,0,0,0,2.85,2.853H159.782a2.852,2.852,0,0,0,2.853-2.85v-14.27a17.085,17.085,0,0,0-.258-2.853h5.964a2.852,2.852,0,0,0,2.853-2.85V45.652a2.852,2.852,0,0,0-2.85-2.853ZM122.69,122.69a5.707,5.707,0,1,1-5.707-5.707A5.706,5.706,0,0,1,122.69,122.69Zm-68.478-5.707a5.707,5.707,0,1,1-5.707,5.707A5.706,5.706,0,0,1,54.212,116.983Zm-17.12,48.505H14.266V154.076a11.413,11.413,0,1,1,22.826,0ZM19.973,131.25a5.707,5.707,0,1,1,5.707,5.707A5.706,5.706,0,0,1,19.973,131.25Zm17.552,10.495a17.2,17.2,0,0,0-3.589-2.657,11.413,11.413,0,1,0-16.512,0,17.23,17.23,0,0,0-6.548,6.428H5.707V48.505H45.652V115.22a11.258,11.258,0,0,0,.3,15.308A17.168,17.168,0,0,0,37.525,141.744Zm28.1,23.744H42.8V145.516a11.413,11.413,0,1,1,22.826,0Zm34.239,0H71.331V145.516a14.266,14.266,0,1,1,28.533,0ZM77.038,116.983a8.56,8.56,0,1,1,8.56,8.56A8.56,8.56,0,0,1,77.038,116.983Zm25.937,18.723a20.1,20.1,0,0,0-8.186-7.9,14.267,14.267,0,1,0-18.381,0,20.1,20.1,0,0,0-8.186,7.9,17.233,17.233,0,0,0-5.753-5.178,11.331,11.331,0,0,0-11.109-18.846V5.707h68.478V111.682a11.363,11.363,0,0,0-11.109,18.846,17.233,17.233,0,0,0-5.753,5.178Zm25.422,18.37v11.413H105.57V145.516a11.413,11.413,0,0,1,22.826,0Zm28.533,11.413H134.1V154.076a11.413,11.413,0,1,1,22.826,0ZM139.81,131.25a5.707,5.707,0,1,1,5.707,5.707A5.706,5.706,0,0,1,139.81,131.25Zm25.679,14.266h-5.169a17.228,17.228,0,0,0-6.548-6.428,11.413,11.413,0,1,0-16.512,0,17.191,17.191,0,0,0-3.589,2.657,17.167,17.167,0,0,0-8.431-11.217,11.258,11.258,0,0,0,.3-15.308V48.505h39.946Z" transform="translate(0 0)"/>
  <path id="Trazado_140260" data-name="Trazado 140260" d="M376,184h5.707v45.652H376Z" transform="translate(-241.897 -118.375)"/>
  <path id="Trazado_140261" data-name="Trazado 140261" d="M424,184h5.706v45.652H424Z" transform="translate(-272.777 -118.375)"/>
  <path id="Trazado_140262" data-name="Trazado 140262" d="M40,184h5.707v45.652H40Z" transform="translate(-25.734 -118.375)"/>
  <path id="Trazado_140263" data-name="Trazado 140263" d="M88,184h5.707v45.652H88Z" transform="translate(-56.614 -118.375)"/>
  <path id="Trazado_140264" data-name="Trazado 140264" d="M186.853,60.533h34.239a2.852,2.852,0,0,0,2.853-2.85V34.853A2.852,2.852,0,0,0,221.1,32H186.853A2.852,2.852,0,0,0,184,34.85V57.679a2.852,2.852,0,0,0,2.85,2.853Zm2.853-22.826h28.533v17.12H189.707Z" transform="translate(-118.375 -20.587)"/>
</svg>
