<svg xmlns="http://www.w3.org/2000/svg" width="820" height="400" viewBox="0 0 820 400">
  <g id="Grupo_82930" data-name="Grupo 82930" transform="translate(-390 -6745.07)">
    <path id="Rectángulo_30804" data-name="Rectángulo 30804" d="M0,0H820V400H0Z" transform="translate(390 6745.07)" fill="#f6f6f6"/>
    <path id="Trazado_141834" data-name="Trazado 141834" d="M11.789-7.418H5.039v4.594h7.922V0H1.523V-17.062H12.938v2.848h-7.9v4.066h6.75Zm2.262.961a7.579,7.579,0,0,1,1.33-4.723,4.348,4.348,0,0,1,3.65-1.734,3.893,3.893,0,0,1,3.246,1.559L22.5-12.68h2.977V4.875h-3.4V-1.09A3.9,3.9,0,0,1,19.008.234,4.316,4.316,0,0,1,15.4-1.523,7.951,7.951,0,0,1,14.051-6.457Zm3.387.24a4.972,4.972,0,0,0,.639,2.77,2.045,2.045,0,0,0,1.8.951,2.278,2.278,0,0,0,2.2-1.244V-8.986a2.259,2.259,0,0,0-2.18-1.2,2.069,2.069,0,0,0-1.816.951A5.491,5.491,0,0,0,17.438-6.217ZM35.73-1.289A4.247,4.247,0,0,1,32.262.234,4.005,4.005,0,0,1,29.15-.937a5,5,0,0,1-1.1-3.434V-12.68h3.387v8.2q0,1.983,1.8,1.983a2.445,2.445,0,0,0,2.367-1.2V-12.68h3.4V0H35.824ZM45.141,0h-3.4V-12.68h3.4Zm-3.6-15.961a1.668,1.668,0,0,1,.51-1.254,1.915,1.915,0,0,1,1.389-.492,1.919,1.919,0,0,1,1.383.492,1.658,1.658,0,0,1,.516,1.254,1.663,1.663,0,0,1-.521,1.266,1.924,1.924,0,0,1-1.377.492,1.924,1.924,0,0,1-1.377-.492A1.663,1.663,0,0,1,41.543-15.961ZM51.5,0h-3.4V-18h3.4Zm6.363,0h-3.4V-12.68h3.4Zm-3.6-15.961a1.668,1.668,0,0,1,.51-1.254,1.915,1.915,0,0,1,1.389-.492,1.919,1.919,0,0,1,1.383.492,1.658,1.658,0,0,1,.516,1.254,1.663,1.663,0,0,1-.521,1.266,1.924,1.924,0,0,1-1.377.492,1.924,1.924,0,0,1-1.377-.492A1.663,1.663,0,0,1,54.27-15.961ZM72.082-6.223a7.678,7.678,0,0,1-1.3,4.752A4.309,4.309,0,0,1,67.148.234a3.959,3.959,0,0,1-3.293-1.582L63.7,0H60.656V-18h3.387v6.457a3.857,3.857,0,0,1,3.082-1.371,4.344,4.344,0,0,1,3.639,1.705,7.689,7.689,0,0,1,1.318,4.8ZM68.7-6.481A5.072,5.072,0,0,0,68.086-9.3a2.058,2.058,0,0,0-1.816-.888,2.233,2.233,0,0,0-2.227,1.328v5.019a2.263,2.263,0,0,0,2.25,1.34,2.092,2.092,0,0,0,2.156-1.622A8.392,8.392,0,0,0,68.7-6.481ZM81.293-9.5A9.2,9.2,0,0,0,80.074-9.6a2.481,2.481,0,0,0-2.52,1.3V0H74.168V-12.68h3.2l.094,1.512a3.138,3.138,0,0,1,2.824-1.746,3.549,3.549,0,0,1,1.055.152ZM86.5,0H83.1V-12.68h3.4ZM82.9-15.961a1.668,1.668,0,0,1,.51-1.254,1.915,1.915,0,0,1,1.389-.492,1.919,1.919,0,0,1,1.383.492,1.658,1.658,0,0,1,.516,1.254,1.663,1.663,0,0,1-.521,1.266A1.924,1.924,0,0,1,84.8-14.2,1.924,1.924,0,0,1,83.42-14.7,1.663,1.663,0,0,1,82.9-15.961Zm5.859,9.5a7.52,7.52,0,0,1,.727-3.363,5.319,5.319,0,0,1,2.092-2.285,6.1,6.1,0,0,1,3.17-.809,5.774,5.774,0,0,1,4.189,1.57,6.3,6.3,0,0,1,1.811,4.266l.023.867a6.627,6.627,0,0,1-1.629,4.682A5.662,5.662,0,0,1,94.77.234a5.69,5.69,0,0,1-4.377-1.758A6.744,6.744,0,0,1,88.758-6.3Zm3.387.24a4.74,4.74,0,0,0,.68,2.764A2.242,2.242,0,0,0,94.77-2.5a2.247,2.247,0,0,0,1.922-.945,5.186,5.186,0,0,0,.691-3.022,4.692,4.692,0,0,0-.691-2.746,2.248,2.248,0,0,0-1.945-.974,2.211,2.211,0,0,0-1.922.968A5.274,5.274,0,0,0,92.145-6.217Zm16.16-.217a7.641,7.641,0,0,1,1.33-4.723,4.316,4.316,0,0,1,3.639-1.758,3.884,3.884,0,0,1,3.059,1.383V-18h3.4V0h-3.059l-.164-1.348A3.985,3.985,0,0,1,113.25.234a4.3,4.3,0,0,1-3.592-1.764A7.887,7.887,0,0,1,108.3-6.434Zm3.387.241a5.033,5.033,0,0,0,.621,2.743,2.022,2.022,0,0,0,1.8.954,2.265,2.265,0,0,0,2.215-1.33V-8.853a2.233,2.233,0,0,0-2.191-1.33Q111.691-10.184,111.691-6.193Zm16.5,6.427a6.225,6.225,0,0,1-4.541-1.711A6.082,6.082,0,0,1,121.9-6.035v-.328a7.66,7.66,0,0,1,.738-3.416,5.418,5.418,0,0,1,2.092-2.32,5.871,5.871,0,0,1,3.088-.814,5.262,5.262,0,0,1,4.1,1.641,6.667,6.667,0,0,1,1.494,4.652v1.383h-8.074a3.146,3.146,0,0,0,.99,1.992,2.993,2.993,0,0,0,2.092.75,3.656,3.656,0,0,0,3.059-1.418l1.664,1.863a5.084,5.084,0,0,1-2.062,1.682A6.767,6.767,0,0,1,128.191.234ZM127.8-10.184a2.116,2.116,0,0,0-1.635.683,3.535,3.535,0,0,0-.8,1.954h4.711v-.271a2.521,2.521,0,0,0-.609-1.748A2.183,2.183,0,0,0,127.8-10.184Zm16.676-2.5.105,1.418a4.456,4.456,0,0,1,3.645-1.652,3.382,3.382,0,0,1,3.363,1.934,4.354,4.354,0,0,1,3.809-1.934,3.782,3.782,0,0,1,3.07,1.2A5.521,5.521,0,0,1,159.48-8.1V0h-3.4V-8.1a2.424,2.424,0,0,0-.422-1.58,1.867,1.867,0,0,0-1.488-.5,2.114,2.114,0,0,0-2.109,1.456L152.074,0h-3.387V-8.093a2.394,2.394,0,0,0-.434-1.6,1.885,1.885,0,0,0-1.477-.493,2.194,2.194,0,0,0-2.086,1.2V0H141.3V-12.68ZM167.918.234a6.225,6.225,0,0,1-4.541-1.711,6.082,6.082,0,0,1-1.752-4.559v-.328a7.66,7.66,0,0,1,.738-3.416,5.418,5.418,0,0,1,2.092-2.32,5.871,5.871,0,0,1,3.088-.814,5.262,5.262,0,0,1,4.1,1.641,6.667,6.667,0,0,1,1.494,4.652v1.383h-8.074a3.146,3.146,0,0,0,.99,1.992,2.993,2.993,0,0,0,2.092.75A3.656,3.656,0,0,0,171.2-3.914l1.664,1.863A5.084,5.084,0,0,1,170.8-.369,6.767,6.767,0,0,1,167.918.234Zm-.387-10.418A2.116,2.116,0,0,0,165.9-9.5a3.535,3.535,0,0,0-.8,1.954H169.8v-.271a2.521,2.521,0,0,0-.609-1.748A2.183,2.183,0,0,0,167.531-10.184Zm14.648.68a9.2,9.2,0,0,0-1.219-.094,2.481,2.481,0,0,0-2.52,1.3V0h-3.387V-12.68h3.2l.094,1.512a3.138,3.138,0,0,1,2.824-1.746,3.549,3.549,0,0,1,1.055.152Zm6.68,7.008a2.221,2.221,0,0,0,1.523-.516,1.807,1.807,0,0,0,.609-1.371h3.176a4.344,4.344,0,0,1-.7,2.361,4.64,4.64,0,0,1-1.893,1.664,5.923,5.923,0,0,1-2.654.592,5.5,5.5,0,0,1-4.289-1.729,6.84,6.84,0,0,1-1.57-4.775v-.223a6.762,6.762,0,0,1,1.559-4.676,5.441,5.441,0,0,1,4.277-1.746,5.333,5.333,0,0,1,3.814,1.354,4.792,4.792,0,0,1,1.459,3.6h-3.176a2.327,2.327,0,0,0-.609-1.608,2.032,2.032,0,0,0-1.547-.619,2.04,2.04,0,0,0-1.787.863,5,5,0,0,0-.6,2.8v.352a5.063,5.063,0,0,0,.6,2.817A2.065,2.065,0,0,0,188.859-2.5ZM203.449,0a3.761,3.761,0,0,1-.34-1.137,4.1,4.1,0,0,1-3.2,1.371,4.5,4.5,0,0,1-3.088-1.078A3.467,3.467,0,0,1,195.6-3.562a3.583,3.583,0,0,1,1.494-3.094,7.373,7.373,0,0,1,4.318-1.09h1.559v-.727a2.089,2.089,0,0,0-.451-1.406,1.775,1.775,0,0,0-1.424-.527,2.018,2.018,0,0,0-1.342.41,1.393,1.393,0,0,0-.486,1.125h-3.387a3.4,3.4,0,0,1,.68-2.039,4.493,4.493,0,0,1,1.922-1.471,7,7,0,0,1,2.789-.533,5.534,5.534,0,0,1,3.721,1.178,4.12,4.12,0,0,1,1.377,3.311v5.5a6.062,6.062,0,0,0,.5,2.73V0Zm-2.8-2.355a2.917,2.917,0,0,0,1.383-.334,2.194,2.194,0,0,0,.938-.9v-2.18H201.7q-2.543,0-2.707,1.758l-.012.2a1.356,1.356,0,0,0,.445,1.043A1.73,1.73,0,0,0,200.648-2.355Zm7.793-4.078a7.641,7.641,0,0,1,1.33-4.723,4.316,4.316,0,0,1,3.639-1.758,3.884,3.884,0,0,1,3.059,1.383V-18h3.4V0h-3.059l-.164-1.348A3.985,3.985,0,0,1,213.387.234a4.3,4.3,0,0,1-3.592-1.764A7.887,7.887,0,0,1,208.441-6.434Zm3.387.241a5.033,5.033,0,0,0,.621,2.743,2.022,2.022,0,0,0,1.8.954,2.265,2.265,0,0,0,2.215-1.33V-8.853a2.233,2.233,0,0,0-2.191-1.33Q211.828-10.184,211.828-6.193Zm10.137-.264a7.52,7.52,0,0,1,.727-3.363,5.319,5.319,0,0,1,2.092-2.285,6.1,6.1,0,0,1,3.17-.809,5.774,5.774,0,0,1,4.189,1.57,6.3,6.3,0,0,1,1.811,4.266l.023.867a6.627,6.627,0,0,1-1.629,4.682A5.662,5.662,0,0,1,227.977.234,5.69,5.69,0,0,1,223.6-1.523,6.744,6.744,0,0,1,221.965-6.3Zm3.387.24a4.74,4.74,0,0,0,.68,2.764,2.242,2.242,0,0,0,1.945.957,2.247,2.247,0,0,0,1.922-.945,5.186,5.186,0,0,0,.691-3.022,4.692,4.692,0,0,0-.691-2.746,2.248,2.248,0,0,0-1.945-.974,2.211,2.211,0,0,0-1.922.968A5.274,5.274,0,0,0,225.352-6.217Z" transform="translate(683 6786.16)" fill="#12263f"/>
    <path id="Trazado_141833" data-name="Trazado 141833" d="M4.409-5.26V0H1.333V-14.93H7.157a6.738,6.738,0,0,1,2.958.615,4.534,4.534,0,0,1,1.964,1.748,4.875,4.875,0,0,1,.687,2.579,4.287,4.287,0,0,1-1.5,3.461A6.257,6.257,0,0,1,7.106-5.26Zm0-2.492H7.157a2.7,2.7,0,0,0,1.861-.574,2.088,2.088,0,0,0,.641-1.641,2.463,2.463,0,0,0-.646-1.774,2.413,2.413,0,0,0-1.784-.7H4.409Zm16.509-.564A8.051,8.051,0,0,0,19.852-8.4a2.171,2.171,0,0,0-2.2,1.138V0H14.684V-11.095h2.8l.082,1.323A2.746,2.746,0,0,1,20.036-11.3a3.105,3.105,0,0,1,.923.133ZM27.255.205a5.447,5.447,0,0,1-3.973-1.5,5.321,5.321,0,0,1-1.533-3.989v-.287a6.7,6.7,0,0,1,.646-2.989,4.741,4.741,0,0,1,1.83-2.03,5.137,5.137,0,0,1,2.7-.713A4.6,4.6,0,0,1,30.51-9.864a5.833,5.833,0,0,1,1.307,4.071v1.21H24.753a2.753,2.753,0,0,0,.866,1.743,2.619,2.619,0,0,0,1.83.656,3.2,3.2,0,0,0,2.676-1.241l1.456,1.63a4.449,4.449,0,0,1-1.8,1.471A5.921,5.921,0,0,1,27.255.205Zm-.338-9.116a1.852,1.852,0,0,0-1.43.6,3.093,3.093,0,0,0-.7,1.71h4.122V-6.84a2.206,2.206,0,0,0-.533-1.529A1.91,1.91,0,0,0,26.917-8.911Zm11.2,6.727a1.944,1.944,0,0,0,1.333-.451,1.581,1.581,0,0,0,.533-1.2h2.779a3.8,3.8,0,0,1-.615,2.066A4.06,4.06,0,0,1,40.488-.313a5.183,5.183,0,0,1-2.323.518,4.817,4.817,0,0,1-3.753-1.512,5.985,5.985,0,0,1-1.374-4.178v-.195A5.917,5.917,0,0,1,34.4-9.772,4.761,4.761,0,0,1,38.145-11.3a4.667,4.667,0,0,1,3.338,1.184,4.193,4.193,0,0,1,1.277,3.153H39.98a2.036,2.036,0,0,0-.533-1.407,1.778,1.778,0,0,0-1.354-.541,1.785,1.785,0,0,0-1.564.755A4.374,4.374,0,0,0,36-5.707V-5.4a4.43,4.43,0,0,0,.523,2.465A1.807,1.807,0,0,0,38.114-2.184ZM47.578,0H44.6V-11.095h2.974ZM44.43-13.966a1.459,1.459,0,0,1,.446-1.1,1.676,1.676,0,0,1,1.215-.431,1.679,1.679,0,0,1,1.21.431,1.451,1.451,0,0,1,.451,1.1,1.455,1.455,0,0,1-.456,1.107,1.684,1.684,0,0,1-1.2.431,1.684,1.684,0,0,1-1.2-.431A1.455,1.455,0,0,1,44.43-13.966ZM49.557-5.65a6.58,6.58,0,0,1,.636-2.943,4.654,4.654,0,0,1,1.83-2A5.34,5.34,0,0,1,54.8-11.3a5.052,5.052,0,0,1,3.666,1.374,5.514,5.514,0,0,1,1.584,3.732l.021.759a5.8,5.8,0,0,1-1.425,4.1A4.954,4.954,0,0,1,54.817.205a4.979,4.979,0,0,1-3.83-1.538,5.9,5.9,0,0,1-1.43-4.184Zm2.963.21a4.147,4.147,0,0,0,.595,2.418,1.962,1.962,0,0,0,1.7.837A1.966,1.966,0,0,0,56.5-3.011a4.538,4.538,0,0,0,.6-2.644,4.106,4.106,0,0,0-.6-2.4,1.967,1.967,0,0,0-1.7-.852,1.934,1.934,0,0,0-1.682.847A4.614,4.614,0,0,0,52.521-5.44Z" transform="translate(490 6981.385) rotate(-90)" fill="#12263f"/>
    <path id="Trazado_141832" data-name="Trazado 141832" d="M13.053-4.973a5.283,5.283,0,0,1-1.779,3.794A6.248,6.248,0,0,1,7.044.205,5.618,5.618,0,0,1,2.528-1.728,7.925,7.925,0,0,1,.882-7.034v-.913a8.95,8.95,0,0,1,.759-3.794,5.686,5.686,0,0,1,2.169-2.517,6.075,6.075,0,0,1,3.276-.877,6.087,6.087,0,0,1,4.163,1.384,5.677,5.677,0,0,1,1.825,3.886H10a3.118,3.118,0,0,0-.8-2.1,2.981,2.981,0,0,0-2.107-.651,2.614,2.614,0,0,0-2.3,1.1A6.178,6.178,0,0,0,4-8.09v1.128a6.612,6.612,0,0,0,.733,3.538A2.565,2.565,0,0,0,7.044-2.307a3.037,3.037,0,0,0,2.128-.651,2.941,2.941,0,0,0,.8-2.015ZM21.308,0a3.291,3.291,0,0,1-.3-.995,3.586,3.586,0,0,1-2.8,1.2,3.939,3.939,0,0,1-2.7-.943,3.034,3.034,0,0,1-1.072-2.379,3.135,3.135,0,0,1,1.307-2.707,6.451,6.451,0,0,1,3.779-.954h1.364v-.636a1.828,1.828,0,0,0-.395-1.23,1.553,1.553,0,0,0-1.246-.461,1.766,1.766,0,0,0-1.174.359,1.219,1.219,0,0,0-.426.984H14.684a2.977,2.977,0,0,1,.595-1.784,3.931,3.931,0,0,1,1.682-1.287A6.129,6.129,0,0,1,19.4-11.3a4.842,4.842,0,0,1,3.256,1.031,3.605,3.605,0,0,1,1.2,2.9v4.809A5.3,5.3,0,0,0,24.3-.174V0ZM18.857-2.061a2.552,2.552,0,0,0,1.21-.292,1.919,1.919,0,0,0,.82-.784V-5.045H19.78q-2.225,0-2.369,1.538l-.01.174a1.186,1.186,0,0,0,.39.913A1.514,1.514,0,0,0,18.857-2.061Zm10.008-9.034.092,1.282A3.874,3.874,0,0,1,32.146-11.3a3.219,3.219,0,0,1,2.625,1.036,4.832,4.832,0,0,1,.882,3.1V0H32.689V-7.112a1.93,1.93,0,0,0-.41-1.372,1.833,1.833,0,0,0-1.364-.426,2.038,2.038,0,0,0-1.876,1.069V0H26.076V-11.095Zm12.582-2.728v2.728h1.9v2.174h-1.9v5.537a1.322,1.322,0,0,0,.236.882,1.184,1.184,0,0,0,.9.267,4.726,4.726,0,0,0,.872-.072V-.062a6.1,6.1,0,0,1-1.794.267q-3.117,0-3.179-3.148V-8.921h-1.62v-2.174h1.62v-2.728ZM48.122,0H45.148V-11.095h2.974ZM44.974-13.966a1.459,1.459,0,0,1,.446-1.1,1.676,1.676,0,0,1,1.215-.431,1.679,1.679,0,0,1,1.21.431,1.451,1.451,0,0,1,.451,1.1,1.455,1.455,0,0,1-.456,1.107,1.684,1.684,0,0,1-1.2.431,1.684,1.684,0,0,1-1.2-.431A1.455,1.455,0,0,1,44.974-13.966ZM50.1-5.629a6.686,6.686,0,0,1,1.164-4.132A3.776,3.776,0,0,1,54.448-11.3a3.4,3.4,0,0,1,2.676,1.21v-5.66H60.1V0H57.422l-.144-1.179A3.487,3.487,0,0,1,54.428.205a3.766,3.766,0,0,1-3.143-1.543A6.9,6.9,0,0,1,50.1-5.629Zm2.963.211a4.4,4.4,0,0,0,.543,2.4,1.769,1.769,0,0,0,1.579.834,1.982,1.982,0,0,0,1.938-1.164v-4.4a1.954,1.954,0,0,0-1.917-1.164Q53.064-8.911,53.064-5.419ZM68.824,0a3.291,3.291,0,0,1-.3-.995,3.586,3.586,0,0,1-2.8,1.2,3.939,3.939,0,0,1-2.7-.943,3.034,3.034,0,0,1-1.072-2.379,3.135,3.135,0,0,1,1.307-2.707,6.451,6.451,0,0,1,3.779-.954H68.4v-.636a1.828,1.828,0,0,0-.395-1.23,1.553,1.553,0,0,0-1.246-.461,1.766,1.766,0,0,0-1.174.359,1.219,1.219,0,0,0-.426.984H62.2a2.977,2.977,0,0,1,.595-1.784,3.931,3.931,0,0,1,1.682-1.287,6.129,6.129,0,0,1,2.44-.467,4.842,4.842,0,0,1,3.256,1.031,3.605,3.605,0,0,1,1.2,2.9v4.809a5.3,5.3,0,0,0,.441,2.389V0ZM66.374-2.061a2.552,2.552,0,0,0,1.21-.292,1.919,1.919,0,0,0,.82-.784V-5.045H67.3q-2.225,0-2.369,1.538l-.01.174a1.186,1.186,0,0,0,.39.913A1.514,1.514,0,0,0,66.374-2.061Zm6.819-3.568a6.686,6.686,0,0,1,1.164-4.132A3.776,3.776,0,0,1,77.54-11.3a3.4,3.4,0,0,1,2.676,1.21v-5.66H83.19V0H80.514L80.37-1.179A3.487,3.487,0,0,1,77.52.205a3.766,3.766,0,0,1-3.143-1.543A6.9,6.9,0,0,1,73.192-5.629Zm2.963.211a4.4,4.4,0,0,0,.543,2.4,1.769,1.769,0,0,0,1.579.834,1.982,1.982,0,0,0,1.938-1.164v-4.4A1.954,1.954,0,0,0,78.3-8.911Q76.156-8.911,76.156-5.419Zm14.1-.211a6.686,6.686,0,0,1,1.164-4.132A3.776,3.776,0,0,1,94.6-11.3a3.4,3.4,0,0,1,2.676,1.21v-5.66h2.974V0H97.576l-.144-1.179A3.487,3.487,0,0,1,94.582.205a3.766,3.766,0,0,1-3.143-1.543A6.9,6.9,0,0,1,90.255-5.629Zm2.963.211a4.4,4.4,0,0,0,.543,2.4,1.769,1.769,0,0,0,1.579.834,1.982,1.982,0,0,0,1.938-1.164v-4.4a1.954,1.954,0,0,0-1.917-1.164Q93.218-8.911,93.218-5.419ZM107.656.205a5.447,5.447,0,0,1-3.973-1.5,5.321,5.321,0,0,1-1.533-3.989v-.287a6.7,6.7,0,0,1,.646-2.989,4.741,4.741,0,0,1,1.83-2.03,5.137,5.137,0,0,1,2.7-.713,4.6,4.6,0,0,1,3.584,1.436,5.833,5.833,0,0,1,1.307,4.071v1.21h-7.065a2.753,2.753,0,0,0,.866,1.743,2.619,2.619,0,0,0,1.83.656,3.2,3.2,0,0,0,2.676-1.241l1.456,1.63a4.449,4.449,0,0,1-1.8,1.471A5.921,5.921,0,0,1,107.656.205Zm-.338-9.116a1.852,1.852,0,0,0-1.43.6,3.093,3.093,0,0,0-.7,1.71h4.122V-6.84a2.206,2.206,0,0,0-.533-1.529A1.91,1.91,0,0,0,107.317-8.911Zm9.362-2.184.092,1.241A3.9,3.9,0,0,1,119.96-11.3,2.959,2.959,0,0,1,122.9-9.608a3.809,3.809,0,0,1,3.333-1.692,3.309,3.309,0,0,1,2.687,1.051,4.831,4.831,0,0,1,.882,3.163V0h-2.974V-7.092a2.121,2.121,0,0,0-.369-1.382,1.634,1.634,0,0,0-1.3-.437,1.85,1.85,0,0,0-1.846,1.274L123.324,0H120.36V-7.081a2.1,2.1,0,0,0-.379-1.4,1.65,1.65,0,0,0-1.292-.432,1.92,1.92,0,0,0-1.825,1.048V0H113.9V-11.095ZM138.51,0a3.291,3.291,0,0,1-.3-.995,3.586,3.586,0,0,1-2.8,1.2,3.939,3.939,0,0,1-2.7-.943,3.034,3.034,0,0,1-1.072-2.379,3.135,3.135,0,0,1,1.307-2.707,6.451,6.451,0,0,1,3.779-.954h1.364v-.636a1.828,1.828,0,0,0-.395-1.23,1.553,1.553,0,0,0-1.246-.461,1.766,1.766,0,0,0-1.174.359,1.219,1.219,0,0,0-.426.984h-2.963a2.977,2.977,0,0,1,.595-1.784,3.931,3.931,0,0,1,1.682-1.287,6.129,6.129,0,0,1,2.44-.467,4.842,4.842,0,0,1,3.256,1.031,3.605,3.605,0,0,1,1.2,2.9v4.809A5.3,5.3,0,0,0,141.5-.174V0Zm-2.451-2.061a2.552,2.552,0,0,0,1.21-.292,1.919,1.919,0,0,0,.82-.784V-5.045h-1.107q-2.225,0-2.369,1.538l-.01.174a1.186,1.186,0,0,0,.39.913A1.514,1.514,0,0,0,136.059-2.061Zm10.008-9.034.092,1.282a3.874,3.874,0,0,1,3.189-1.487,3.219,3.219,0,0,1,2.625,1.036,4.832,4.832,0,0,1,.882,3.1V0h-2.963V-7.112a1.93,1.93,0,0,0-.41-1.372,1.833,1.833,0,0,0-1.364-.426,2.038,2.038,0,0,0-1.876,1.069V0h-2.963V-11.095Zm8.572,5.465A6.686,6.686,0,0,1,155.8-9.762a3.776,3.776,0,0,1,3.184-1.538,3.4,3.4,0,0,1,2.676,1.21v-5.66h2.974V0H161.96l-.144-1.179A3.487,3.487,0,0,1,158.966.205a3.766,3.766,0,0,1-3.143-1.543A6.9,6.9,0,0,1,154.639-5.629Zm2.963.211a4.4,4.4,0,0,0,.543,2.4,1.769,1.769,0,0,0,1.579.834,1.982,1.982,0,0,0,1.938-1.164v-4.4a1.954,1.954,0,0,0-1.917-1.164Q157.6-8.911,157.6-5.419ZM173.363,0a3.291,3.291,0,0,1-.3-.995,3.586,3.586,0,0,1-2.8,1.2,3.939,3.939,0,0,1-2.7-.943,3.034,3.034,0,0,1-1.072-2.379A3.135,3.135,0,0,1,167.8-5.824a6.451,6.451,0,0,1,3.779-.954h1.364v-.636a1.828,1.828,0,0,0-.395-1.23,1.553,1.553,0,0,0-1.246-.461,1.766,1.766,0,0,0-1.174.359,1.219,1.219,0,0,0-.426.984h-2.963a2.977,2.977,0,0,1,.595-1.784,3.931,3.931,0,0,1,1.682-1.287,6.129,6.129,0,0,1,2.44-.467,4.842,4.842,0,0,1,3.256,1.031,3.605,3.605,0,0,1,1.2,2.9v4.809a5.3,5.3,0,0,0,.441,2.389V0Zm-2.451-2.061a2.552,2.552,0,0,0,1.21-.292,1.919,1.919,0,0,0,.82-.784V-5.045h-1.107q-2.225,0-2.369,1.538l-.01.174a1.186,1.186,0,0,0,.39.913A1.514,1.514,0,0,0,170.912-2.061Z" transform="matrix(1, 0, 0, 1, 711, 7129.281)" fill="#12263f"/>
    <g id="Grupo_82188" data-name="Grupo 82188" transform="translate(31.943 -15.891)">
      <g id="Grupo_82097" data-name="Grupo 82097" transform="translate(513.835 6835.461)">
        <g id="Grupo_82096" data-name="Grupo 82096" transform="translate(0.451 0)">
          <g id="Grupo_82091" data-name="Grupo 82091">
            <rect id="Rectángulo_31228" data-name="Rectángulo 31228" width="105.384" height="49.468" fill="none" stroke="#e8e8e8" stroke-miterlimit="10" stroke-width="1"/>
            <rect id="Rectángulo_31229" data-name="Rectángulo 31229" width="105.384" height="49.468" transform="translate(105.132)" fill="none" stroke="#e8e8e8" stroke-miterlimit="10" stroke-width="1"/>
            <rect id="Rectángulo_31230" data-name="Rectángulo 31230" width="105.384" height="49.468" transform="translate(210.6)" fill="none" stroke="#e8e8e8" stroke-miterlimit="10" stroke-width="1"/>
            <rect id="Rectángulo_31231" data-name="Rectángulo 31231" width="105.384" height="49.468" transform="translate(315.732)" fill="none" stroke="#e8e8e8" stroke-miterlimit="10" stroke-width="1"/>
            <rect id="Rectángulo_31232" data-name="Rectángulo 31232" width="105.384" height="49.468" transform="translate(421.201)" fill="none" stroke="#e8e8e8" stroke-miterlimit="10" stroke-width="1"/>
          </g>
          <g id="Grupo_82092" data-name="Grupo 82092" transform="translate(0 198.563)">
            <rect id="Rectángulo_31233" data-name="Rectángulo 31233" width="105.384" height="49.468" fill="none" stroke="#e8e8e8" stroke-miterlimit="10" stroke-width="1"/>
            <rect id="Rectángulo_31234" data-name="Rectángulo 31234" width="105.384" height="49.468" transform="translate(105.132)" fill="none" stroke="#e8e8e8" stroke-miterlimit="10" stroke-width="1"/>
            <rect id="Rectángulo_31235" data-name="Rectángulo 31235" width="105.384" height="49.468" transform="translate(210.6)" fill="none" stroke="#e8e8e8" stroke-miterlimit="10" stroke-width="1"/>
            <rect id="Rectángulo_31236" data-name="Rectángulo 31236" width="105.384" height="49.468" transform="translate(315.732)" fill="none" stroke="#e8e8e8" stroke-miterlimit="10" stroke-width="1"/>
            <rect id="Rectángulo_31237" data-name="Rectángulo 31237" width="105.384" height="49.468" transform="translate(421.201)" fill="none" stroke="#e8e8e8" stroke-miterlimit="10" stroke-width="1"/>
          </g>
          <g id="Grupo_82093" data-name="Grupo 82093" transform="translate(0 49.641)">
            <rect id="Rectángulo_31238" data-name="Rectángulo 31238" width="105.384" height="49.468" fill="none" stroke="#e8e8e8" stroke-miterlimit="10" stroke-width="1"/>
            <rect id="Rectángulo_31239" data-name="Rectángulo 31239" width="105.384" height="49.468" transform="translate(105.132)" fill="none" stroke="#e8e8e8" stroke-miterlimit="10" stroke-width="1"/>
            <rect id="Rectángulo_31240" data-name="Rectángulo 31240" width="105.384" height="49.468" transform="translate(210.6)" fill="none" stroke="#e8e8e8" stroke-miterlimit="10" stroke-width="1"/>
            <rect id="Rectángulo_31241" data-name="Rectángulo 31241" width="105.384" height="49.468" transform="translate(315.732)" fill="none" stroke="#e8e8e8" stroke-miterlimit="10" stroke-width="1"/>
            <rect id="Rectángulo_31242" data-name="Rectángulo 31242" width="105.384" height="49.468" transform="translate(421.201)" fill="none" stroke="#e8e8e8" stroke-miterlimit="10" stroke-width="1"/>
          </g>
          <g id="Grupo_82094" data-name="Grupo 82094" transform="translate(0 99.281)">
            <rect id="Rectángulo_31243" data-name="Rectángulo 31243" width="105.384" height="49.468" fill="none" stroke="#e8e8e8" stroke-miterlimit="10" stroke-width="1"/>
            <rect id="Rectángulo_31244" data-name="Rectángulo 31244" width="105.384" height="49.468" transform="translate(105.132)" fill="none" stroke="#e8e8e8" stroke-miterlimit="10" stroke-width="1"/>
            <rect id="Rectángulo_31245" data-name="Rectángulo 31245" width="105.384" height="49.468" transform="translate(210.6)" fill="none" stroke="#e8e8e8" stroke-miterlimit="10" stroke-width="1"/>
            <rect id="Rectángulo_31246" data-name="Rectángulo 31246" width="105.384" height="49.468" transform="translate(315.732)" fill="none" stroke="#e8e8e8" stroke-miterlimit="10" stroke-width="1"/>
            <rect id="Rectángulo_31247" data-name="Rectángulo 31247" width="105.384" height="49.468" transform="translate(421.201)" fill="none" stroke="#e8e8e8" stroke-miterlimit="10" stroke-width="1"/>
          </g>
          <g id="Grupo_82095" data-name="Grupo 82095" transform="translate(0 148.922)">
            <rect id="Rectángulo_31248" data-name="Rectángulo 31248" width="105.384" height="49.468" fill="none" stroke="#e8e8e8" stroke-miterlimit="10" stroke-width="1"/>
            <rect id="Rectángulo_31249" data-name="Rectángulo 31249" width="105.384" height="49.468" transform="translate(105.132)" fill="none" stroke="#e8e8e8" stroke-miterlimit="10" stroke-width="1"/>
            <rect id="Rectángulo_31250" data-name="Rectángulo 31250" width="105.384" height="49.468" transform="translate(210.6)" fill="none" stroke="#e8e8e8" stroke-miterlimit="10" stroke-width="1"/>
            <rect id="Rectángulo_31251" data-name="Rectángulo 31251" width="105.384" height="49.468" transform="translate(315.732)" fill="none" stroke="#e8e8e8" stroke-miterlimit="10" stroke-width="1"/>
            <rect id="Rectángulo_31252" data-name="Rectángulo 31252" width="105.384" height="49.468" transform="translate(421.201)" fill="none" stroke="#e8e8e8" stroke-miterlimit="10" stroke-width="1"/>
          </g>
        </g>
        <path id="Trazado_140157" data-name="Trazado 140157" d="M2978.274,3539.431H2450.827V3292.325" transform="translate(-2450.827 -3292.084)" fill="none" stroke="#afafaf" stroke-linecap="round" stroke-linejoin="round" stroke-width="2"/>
      </g>
      <text id="_0" data-name="0" transform="translate(494.375 7086.75)" fill="#12263f" font-size="16" font-family="Roboto-Regular, Roboto"><tspan x="0" y="0">0</tspan></text>
      <text id="_0-2" data-name="0" transform="translate(510.739 7103.722)" fill="#12263f" font-size="16" font-family="Roboto-Regular, Roboto"><tspan x="0" y="0">0</tspan></text>
      <text id="_10" data-name="10" transform="translate(715.051 7103.663)" fill="#12263f" font-size="16" font-family="Roboto-Regular, Roboto"><tspan x="0" y="0">10</tspan></text>
      <text id="_5" data-name="5" transform="translate(612.178 7103.722)" fill="#12263f" font-size="16" font-family="Roboto-Regular, Roboto"><tspan x="0" y="0">5</tspan></text>
      <text id="_15" data-name="15" transform="translate(820.249 7103.663)" fill="#12263f" font-size="16" font-family="Roboto-Regular, Roboto"><tspan x="0" y="0">15</tspan></text>
      <text id="_20" data-name="20" transform="translate(927.005 7103.663)" fill="#12263f" font-size="16" font-family="Roboto-Regular, Roboto"><tspan x="0" y="0">20</tspan></text>
      <text id="_25" data-name="25" transform="translate(1032.844 7103.663)" fill="#12263f" font-size="16" font-family="Roboto-Regular, Roboto"><tspan x="0" y="0">25</tspan></text>
      <text id="_10-2" data-name="10" transform="translate(485.056 7040.882)" fill="#12263f" font-size="16" font-family="Roboto-Regular, Roboto"><tspan x="0" y="0">10</tspan></text>
      <text id="_20-2" data-name="20" transform="translate(485.056 6987.795)" fill="#12263f" font-size="16" font-family="Roboto-Regular, Roboto"><tspan x="0" y="0">20</tspan></text>
      <text id="_30" data-name="30" transform="translate(485.056 6939.27)" fill="#12263f" font-size="16" font-family="Roboto-Regular, Roboto"><tspan x="0" y="0">30</tspan></text>
      <text id="_40" data-name="40" transform="translate(485.056 6890.972)" fill="#12263f" font-size="16" font-family="Roboto-Regular, Roboto"><tspan x="0" y="0">40</tspan></text>
      <text id="_50" data-name="50" transform="translate(485.056 6840.828)" fill="#12263f" font-size="16" font-family="Roboto-Regular, Roboto"><tspan x="0" y="0">50</tspan></text>
      <path id="Trazado_140181" data-name="Trazado 140181" d="M0,0,313.37,147.712" transform="translate(621.958 6885.858)" fill="none" stroke="#cb3921" stroke-linecap="round" stroke-width="4"/>
      <path id="Trazado_140182" data-name="Trazado 140182" d="M0,150.473,316.131,0" transform="translate(619.198 6883.098)" fill="none" stroke="#2989ea" stroke-linecap="round" stroke-width="4"/>
    </g>
  </g>
</svg>
