<svg xmlns="http://www.w3.org/2000/svg" width="95.214" height="163.001" viewBox="0 0 95.214 163.001">
  <g id="XMLID_190_" transform="translate(-106.426 0)">
    <g id="XMLID_316_" transform="translate(108.809 2.36)">
      <path id="XMLID_308_" d="M159.131,7.412l-45.223,79.14,45.223,79.14,45.223-79.14Z" transform="translate(-113.908 -7.412)" fill="#3eb500"/>
      <path id="XMLID_1773_" d="M296.7,86.552l-45.223,79.14-2.07-3.621,43.153-75.519L249.408,11.036l2.07-3.624Z" transform="translate(-206.255 -7.412)" fill="#52ea28"/>
      <path id="XMLID_1725_" d="M138.43,86.552l20.7,79.14-45.223-79.14,45.223-79.14Z" transform="translate(-113.908 -7.412)" fill="#52ea28"/>
      <path id="XMLID_1738_" d="M155.637,152.332l3.494,13.36-45.223-79.14,45.223-79.14-3.494,13.36-37.589,65.78Z" transform="translate(-113.908 -7.412)" fill="#8aff64"/>
      <path id="XMLID_305_" d="M211.609,7.412l-20.7,79.14,20.7,79.14,20.7-79.14Z" transform="translate(-166.386 -7.412)" fill="#398c03"/>
      <path id="XMLID_1748_" d="M195.048,86.552l18.631,71.226-2.07,7.914-20.7-79.14,20.7-79.14,2.07,7.914Z" transform="translate(-166.386 -7.412)" fill="#3eb500"/>
    </g>
    <path id="XMLID_191_" d="M201.463,82.408a2.417,2.417,0,0,0-.135-2.093L185.247,52.173a2.388,2.388,0,0,0-4.148,2.37l14.039,24.569H176.576l-15.669-59.9,14.571,25.5a2.388,2.388,0,0,0,4.148-2.37L156.105,1.175a2.417,2.417,0,0,0-4.147,0l-45.223,79.14a2.424,2.424,0,0,0,0,2.37l12.6,22.057c1.524,2.667,5.674.3,4.147-2.37L112.925,83.889h18.562l15.669,59.906-18.073-31.627a2.388,2.388,0,0,0-4.148,2.37l27.022,47.288a2.417,2.417,0,0,0,4.147,0l31.654-55.394a2.388,2.388,0,0,0-4.148-2.37l-22.705,39.733,15.669-59.905h18.562l-5.929,10.376c-1.524,2.666,2.621,5.042,4.147,2.37l7.971-13.95Zm-88.539-3.3,34.232-59.905L131.487,79.112ZM154.031,11.8l17.607,67.313H136.425Zm0,139.4L136.425,83.889h35.214Z" transform="translate(0 0)"/>
  </g>
</svg>
