<svg id="estrategia" xmlns="http://www.w3.org/2000/svg" width="144.516" height="140" viewBox="0 0 144.516 140">
  <path id="Trazado_140280" data-name="Trazado 140280" d="M154.968,36.516v85.806H24V36.516A4.5,4.5,0,0,1,28.516,32H150.452A4.5,4.5,0,0,1,154.968,36.516Zm0,0" transform="translate(-17.226 -22.968)" fill="#dff7f9"/>
  <path id="Trazado_140282" data-name="Trazado 140282" d="M184.736,424H221.5l2.416,6.774H182.32Zm0,0" transform="translate(-130.859 -304.323)" fill="#636363"/>
  <path id="Trazado_140283" data-name="Trazado 140283" d="M150.581,376l-4.833,13.548-2.416,6.774-4.042,11.29H128L139.29,376Zm0,0" transform="translate(-91.871 -269.871)" fill="#afafaf"/>
  <path id="Trazado_140284" data-name="Trazado 140284" d="M315.29,376l11.29,31.613H315.29l-4.042-11.29-2.416-6.774L304,376Zm0,0" transform="translate(-218.194 -269.871)" fill="#afafaf"/>
  <path id="Trazado_140285" data-name="Trazado 140285" d="M148,352v6.774H8V352Zm0,0" transform="translate(-5.742 -252.645)" fill="#656d78"/>
  <path id="Trazado_140286" data-name="Trazado 140286" d="M476.516,352H472v6.774h9.032V352Zm0,0" transform="translate(-338.774 -252.645)" fill="#434a54"/>
  <path id="Trazado_140287" data-name="Trazado 140287" d="M224,8h18.065v6.774H224Zm0,0" transform="translate(-160.774 -5.742)" fill="#afafaf"/>
  <path id="Trazado_140288" data-name="Trazado 140288" d="M397.548,88l-2.258,4.516,2.258,4.516H384V88Zm0,0" transform="translate(-275.613 -63.161)" fill="#d64626"/>
  <path id="Trazado_140289" data-name="Trazado 140289" d="M373.548,142.774A6.774,6.774,0,1,1,366.774,136,6.765,6.765,0,0,1,373.548,142.774Zm0,0" transform="translate(-258.387 -97.613)" fill="#f5f7fa"/>
  <path id="Trazado_140290" data-name="Trazado 140290" d="M86.774,248A6.774,6.774,0,1,1,80,254.774,6.765,6.765,0,0,1,86.774,248Zm0,0" transform="translate(-57.419 -178)" fill="#f5f7fa"/>
  <path id="Trazado_140291" data-name="Trazado 140291" d="M18.258,130.323A2.255,2.255,0,0,1,16,128.064V42.258a2.258,2.258,0,0,1,4.516,0v85.806A2.255,2.255,0,0,1,18.258,130.323Zm0,0" transform="translate(-11.484 -28.71)"/>
  <path id="Trazado_140292" data-name="Trazado 140292" d="M18.258,33.032A2.255,2.255,0,0,1,16,30.774,6.783,6.783,0,0,1,22.774,24a2.258,2.258,0,0,1,0,4.516,2.26,2.26,0,0,0-2.258,2.258A2.255,2.255,0,0,1,18.258,33.032Zm0,0" transform="translate(-11.484 -17.226)"/>
  <path id="Trazado_140293" data-name="Trazado 140293" d="M482.258,130.323A2.255,2.255,0,0,1,480,128.064V42.258a2.258,2.258,0,0,1,4.516,0v85.806A2.255,2.255,0,0,1,482.258,130.323Zm0,0" transform="translate(-344.516 -28.71)"/>
  <path id="Trazado_140294" data-name="Trazado 140294" d="M470.774,33.032a2.255,2.255,0,0,1-2.258-2.258,2.26,2.26,0,0,0-2.258-2.258,2.258,2.258,0,0,1,0-4.516,6.783,6.783,0,0,1,6.774,6.774A2.255,2.255,0,0,1,470.774,33.032Zm0,0" transform="translate(-333.032 -17.226)"/>
  <path id="Trazado_140295" data-name="Trazado 140295" d="M156.194,28.516H34.258a2.258,2.258,0,0,1,0-4.516H156.194a2.258,2.258,0,0,1,0,4.516Zm0,0" transform="translate(-22.968 -17.226)"/>
  <path id="Trazado_140296" data-name="Trazado 140296" d="M142.258,355.29h-140A2.255,2.255,0,0,1,0,353.032v-6.774A2.255,2.255,0,0,1,2.258,344h140a2.255,2.255,0,0,1,2.258,2.258v6.774A2.255,2.255,0,0,1,142.258,355.29ZM4.516,350.774H140v-2.258H4.516Zm0,0" transform="translate(0 -246.903)"/>
  <path id="Trazado_140297" data-name="Trazado 140297" d="M162.258,404.122a2.228,2.228,0,0,1-.759-.133,2.252,2.252,0,0,1-1.366-2.883l11.29-31.613a2.256,2.256,0,0,1,4.249,1.517l-11.29,31.613A2.253,2.253,0,0,1,162.258,404.122Zm0,0" transform="translate(-114.838 -264.122)"/>
  <path id="Trazado_140298" data-name="Trazado 140298" d="M122.258,404.122a2.228,2.228,0,0,1-.759-.133,2.252,2.252,0,0,1-1.366-2.883l11.29-31.613a2.256,2.256,0,0,1,4.249,1.517l-11.29,31.613A2.253,2.253,0,0,1,122.258,404.122Zm0,0" transform="translate(-86.129 -264.122)"/>
  <path id="Trazado_140299" data-name="Trazado 140299" d="M133.548,484.516h-11.29a2.258,2.258,0,0,1,0-4.516h11.29a2.258,2.258,0,0,1,0,4.516Zm0,0" transform="translate(-86.129 -344.516)"/>
  <path id="Trazado_140300" data-name="Trazado 140300" d="M309.548,404.128a2.253,2.253,0,0,1-2.125-1.5l-11.29-31.613a2.256,2.256,0,1,1,4.249-1.517l11.29,31.613a2.252,2.252,0,0,1-1.366,2.883A2.227,2.227,0,0,1,309.548,404.128Zm0,0" transform="translate(-212.452 -264.128)"/>
  <path id="Trazado_140301" data-name="Trazado 140301" d="M349.548,404.128a2.253,2.253,0,0,1-2.125-1.5l-11.29-31.613a2.256,2.256,0,1,1,4.249-1.517l11.29,31.613a2.252,2.252,0,0,1-1.366,2.883A2.226,2.226,0,0,1,349.548,404.128Zm0,0" transform="translate(-241.161 -264.128)"/>
  <path id="Trazado_140302" data-name="Trazado 140302" d="M349.548,484.516h-11.29a2.258,2.258,0,0,1,0-4.516h11.29a2.258,2.258,0,0,1,0,4.516Zm0,0" transform="translate(-241.161 -344.516)"/>
  <path id="Trazado_140303" data-name="Trazado 140303" d="M221.889,420.516H185.114a2.258,2.258,0,1,1,0-4.516h36.773a2.258,2.258,0,0,1,0,4.516Zm0,0" transform="translate(-131.243 -298.581)"/>
  <path id="Trazado_140304" data-name="Trazado 140304" d="M218.158,444.516H176.547a2.258,2.258,0,1,1,0-4.516h41.611a2.258,2.258,0,0,1,0,4.516Zm0,0" transform="translate(-125.095 -315.807)"/>
  <path id="Trazado_140305" data-name="Trazado 140305" d="M236.323,11.29H218.258A2.255,2.255,0,0,1,216,9.032V2.258A2.255,2.255,0,0,1,218.258,0h18.065a2.255,2.255,0,0,1,2.258,2.258V9.032A2.255,2.255,0,0,1,236.323,11.29ZM220.516,6.774h13.548V4.516H220.516Zm0,0" transform="translate(-155.032)"/>
  <path id="Trazado_140306" data-name="Trazado 140306" d="M81.032,258.065a9.032,9.032,0,1,1,9.032-9.032A9.041,9.041,0,0,1,81.032,258.065Zm0-13.548a4.516,4.516,0,1,0,4.516,4.516A4.521,4.521,0,0,0,81.032,244.516Zm0,0" transform="translate(-51.677 -172.258)"/>
  <path id="Trazado_140307" data-name="Trazado 140307" d="M361.032,146.065a9.032,9.032,0,1,1,9.032-9.032A9.041,9.041,0,0,1,361.032,146.065Zm0-13.548a4.516,4.516,0,1,0,4.516,4.516A4.521,4.521,0,0,0,361.032,132.516Zm0,0" transform="translate(-252.645 -91.871)"/>
  <path id="Trazado_140308" data-name="Trazado 140308" d="M378.258,104.839A2.255,2.255,0,0,1,376,102.581V82.258a2.258,2.258,0,0,1,4.516,0v20.323A2.255,2.255,0,0,1,378.258,104.839Zm0,0" transform="translate(-269.871 -57.419)"/>
  <path id="Trazado_140309" data-name="Trazado 140309" d="M391.806,84.516H378.258a2.258,2.258,0,0,1,0-4.516h13.548a2.258,2.258,0,0,1,0,4.516Zm0,0" transform="translate(-269.871 -57.419)"/>
  <path id="Trazado_140310" data-name="Trazado 140310" d="M391.806,116.516H378.258a2.258,2.258,0,0,1,0-4.516h13.548a2.258,2.258,0,0,1,0,4.516Zm0,0" transform="translate(-269.871 -80.387)"/>
  <path id="Trazado_140311" data-name="Trazado 140311" d="M420.513,93.548A2.259,2.259,0,0,1,418.49,92.3l-2.258-4.516a2.256,2.256,0,0,1,0-2.021l2.258-4.516a2.259,2.259,0,0,1,4.04,2.021l-1.752,3.507,1.752,3.507a2.256,2.256,0,0,1-2.017,3.267Zm0,0" transform="translate(-298.576 -57.419)"/>
  <path id="Trazado_140312" data-name="Trazado 140312" d="M138.26,176.839a2.258,2.258,0,0,1-1.687-3.758C137.338,172.219,155.708,152,190.2,152a2.258,2.258,0,1,1,0,4.516c-32.482,0-50.074,19.37-50.249,19.564A2.245,2.245,0,0,1,138.26,176.839Zm0,0" transform="translate(-97.615 -109.097)"/>
  <path id="Trazado_140313" data-name="Trazado 140313" d="M306.256,161.03a2.258,2.258,0,0,1-1.6-3.855l4.516-4.516a2.258,2.258,0,1,1,3.193,3.193l-4.516,4.516A2.254,2.254,0,0,1,306.256,161.03Zm0,0" transform="translate(-218.191 -109.095)"/>
  <path id="Trazado_140314" data-name="Trazado 140314" d="M310.772,145.03a2.253,2.253,0,0,1-1.6-.662l-4.516-4.516a2.258,2.258,0,0,1,3.193-3.193l4.516,4.516a2.258,2.258,0,0,1-1.6,3.855Zm0,0" transform="translate(-218.191 -97.611)"/>
  <path id="Trazado_140315" data-name="Trazado 140315" d="M98.468,268.524a2.258,2.258,0,0,1-.024-4.516h.024a2.258,2.258,0,0,1,0,4.516Zm0,0" transform="translate(-69.046 -189.49)"/>
  <path id="Trazado_140316" data-name="Trazado 140316" d="M91.288,133.546a2.254,2.254,0,0,1-1.6-.662l-9.032-9.032a2.258,2.258,0,0,1,3.193-3.193l9.032,9.032a2.258,2.258,0,0,1-1.6,3.855Zm0,0" transform="translate(-57.417 -86.127)"/>
  <path id="Trazado_140317" data-name="Trazado 140317" d="M82.256,133.546a2.258,2.258,0,0,1-1.6-3.855l9.032-9.032a2.258,2.258,0,0,1,3.193,3.193l-9.032,9.032A2.254,2.254,0,0,1,82.256,133.546Zm0,0" transform="translate(-57.417 -86.127)"/>
  <path id="Trazado_140318" data-name="Trazado 140318" d="M211.288,77.546a2.253,2.253,0,0,1-1.6-.662l-9.032-9.032a2.258,2.258,0,0,1,3.193-3.193l9.032,9.032a2.258,2.258,0,0,1-1.6,3.855Zm0,0" transform="translate(-143.546 -45.933)"/>
  <path id="Trazado_140319" data-name="Trazado 140319" d="M202.256,77.546a2.258,2.258,0,0,1-1.6-3.855l9.032-9.032a2.258,2.258,0,0,1,3.193,3.193l-9.032,9.032A2.253,2.253,0,0,1,202.256,77.546Zm0,0" transform="translate(-143.546 -45.933)"/>
  <path id="Trazado_140320" data-name="Trazado 140320" d="M227.288,285.546a2.253,2.253,0,0,1-1.6-.662l-9.032-9.032a2.258,2.258,0,0,1,3.193-3.193l9.032,9.032a2.258,2.258,0,0,1-1.6,3.855Zm0,0" transform="translate(-155.03 -195.224)"/>
  <path id="Trazado_140321" data-name="Trazado 140321" d="M218.256,285.546a2.258,2.258,0,0,1-1.6-3.855l9.032-9.032a2.258,2.258,0,0,1,3.193,3.193l-9.032,9.032A2.253,2.253,0,0,1,218.256,285.546Zm0,0" transform="translate(-155.03 -195.224)"/>
  <path id="Trazado_140322" data-name="Trazado 140322" d="M347.288,245.546a2.253,2.253,0,0,1-1.6-.662l-9.032-9.032a2.258,2.258,0,1,1,3.193-3.193l9.032,9.032a2.258,2.258,0,0,1-1.6,3.855Zm0,0" transform="translate(-241.159 -166.514)"/>
  <path id="Trazado_140323" data-name="Trazado 140323" d="M338.256,245.546a2.258,2.258,0,0,1-1.6-3.855l9.032-9.032a2.258,2.258,0,0,1,3.193,3.193l-9.032,9.032A2.253,2.253,0,0,1,338.256,245.546Zm0,0" transform="translate(-241.159 -166.514)"/>
</svg>
