<svg id="estructura-jerarquica" xmlns="http://www.w3.org/2000/svg" width="132.83" height="161.926" viewBox="0 0 132.83 161.926">
  <g id="Grupo_82264" data-name="Grupo 82264" transform="translate(3.163 139.787)">
    <path id="Trazado_140714" data-name="Trazado 140714" d="M35.3,442v18.976H10V442Zm0,0" transform="translate(-10 -442)" fill="#d64626"/>
    <path id="Trazado_140715" data-name="Trazado 140715" d="M195.3,442v18.976H170V442Zm0,0" transform="translate(-119.398 -442)" fill="#d64626"/>
    <path id="Trazado_140716" data-name="Trazado 140716" d="M355.3,442v18.976H330V442Zm0,0" transform="translate(-228.796 -442)" fill="#d64626"/>
  </g>
  <path id="Trazado_140717" data-name="Trazado 140717" d="M180.6,328.65v6.325H130V316h50.6Zm0,0" transform="translate(-88.886 -216.061)" fill="#dff7f9"/>
  <path id="Trazado_140718" data-name="Trazado 140718" d="M180.6,193v18.976H130V193Zm0,0" transform="translate(-88.886 -131.962)" fill="#dff7f9"/>
  <path id="Trazado_140719" data-name="Trazado 140719" d="M151.2,16.325v25.3a6.323,6.323,0,0,1-6.325,6.325H56.325A6.323,6.323,0,0,1,50,41.626v-25.3A6.323,6.323,0,0,1,56.325,10h88.553A6.323,6.323,0,0,1,151.2,16.325Zm0,0" transform="translate(-34.187 -6.837)" fill="#fed947"/>
  <path id="Trazado_140720" data-name="Trazado 140720" d="M303.163,60a3.163,3.163,0,1,0,3.163,3.163A3.164,3.164,0,0,0,303.163,60Zm0,0" transform="translate(-205.122 -41.024)"/>
  <path id="Trazado_140721" data-name="Trazado 140721" d="M153.764,60h-50.6a3.163,3.163,0,0,0,0,6.325h50.6a3.163,3.163,0,1,0,0-6.325Zm0,0" transform="translate(-68.374 -41.024)"/>
  <path id="Trazado_140722" data-name="Trazado 140722" d="M129.667,136.625h-9.488V112.589a3.162,3.162,0,0,0-3.163-3.163H94.878V99.939a3.162,3.162,0,0,0-3.163-3.163H69.577v-13.6H91.716a3.162,3.162,0,0,0,3.163-3.163V61.038a3.162,3.162,0,0,0-3.163-3.163H69.577v-13.6h41.114a9.5,9.5,0,0,0,9.488-9.488V9.488A9.5,9.5,0,0,0,110.691,0H22.138A9.5,9.5,0,0,0,12.65,9.488v25.3a9.5,9.5,0,0,0,9.488,9.488H63.252v13.6H41.114a3.162,3.162,0,0,0-3.163,3.163V80.014a3.162,3.162,0,0,0,3.163,3.163H63.252v13.6H41.114a3.162,3.162,0,0,0-3.163,3.163v9.488H15.813a3.162,3.162,0,0,0-3.163,3.163v24.036H3.163A3.162,3.162,0,0,0,0,139.787v18.976a3.162,3.162,0,0,0,3.163,3.163h25.3a3.162,3.162,0,0,0,3.163-3.163V139.787a3.162,3.162,0,0,0-3.163-3.163H18.976V115.752H37.951v3.163a3.162,3.162,0,0,0,3.163,3.163H63.252v14.548H53.764a3.162,3.162,0,0,0-3.163,3.163v18.976a3.162,3.162,0,0,0,3.163,3.163h25.3a3.162,3.162,0,0,0,3.163-3.163V139.787a3.162,3.162,0,0,0-3.163-3.163H69.577V122.077H91.716a3.162,3.162,0,0,0,3.163-3.163v-3.163h18.976v20.873h-9.488a3.162,3.162,0,0,0-3.163,3.163v18.976a3.162,3.162,0,0,0,3.163,3.163h25.3a3.162,3.162,0,0,0,3.163-3.163V139.787A3.162,3.162,0,0,0,129.667,136.625ZM25.3,142.95V155.6H6.325V142.95Zm-3.163-105a3.166,3.166,0,0,1-3.163-3.163V9.488a3.166,3.166,0,0,1,3.163-3.163h88.553a3.166,3.166,0,0,1,3.163,3.163v25.3a3.166,3.166,0,0,1-3.163,3.163Zm22.138,38.9V64.2H88.553v12.65ZM75.9,142.95V155.6H56.927V142.95Zm12.65-27.2H44.277V103.1H88.553ZM126.5,155.6H107.529V142.95H126.5Zm0,0"/>
</svg>
