<svg xmlns="http://www.w3.org/2000/svg" width="88" height="87.196" viewBox="0 0 88 87.196">
  <g id="Page-1" transform="translate(0 -0.548)">
    <g id="_005---Factory-" data-name="005---Factory-" transform="translate(0 0.548)">
      <g id="Icons" transform="translate(1.467 1.48)">
        <path id="Shape" d="M56.452,23.975,44,31.441v-6.2a1.467,1.467,0,0,0-2.215-1.261L29.333,31.441v-6.2a1.467,1.467,0,0,0-2.215-1.261L14.667,31.441v-6.2a1.467,1.467,0,0,0-2.215-1.261L0,31.441v2.933H58.667V25.237a1.467,1.467,0,0,0-2.215-1.261Z" transform="translate(0 10.275)" fill="#0377bc"/>
        <path id="Shape-2" data-name="Shape" d="M25.05,1.92a10.177,10.177,0,0,1,1.364-.22l-.191.543c-.029-.015-.073-.029-.1-.044A8.825,8.825,0,0,0,25.05,1.92Z" transform="translate(11.69 -0.024)" fill="#607d8b"/>
        <path id="Shape-3" data-name="Shape" d="M60.6,2.659A10.456,10.456,0,0,0,52.093.8L51.2.972a15.309,15.309,0,0,0-3.8,1.379l-.337.308a9.139,9.139,0,0,0-2.083-1.173A13.933,13.933,0,0,0,37.851.767a12.732,12.732,0,0,0-1.305.205A18.87,18.87,0,0,0,32.733,2.16l-.22.616c-.029-.015-.073-.029-.1-.044a11.1,11.1,0,0,0-4.107-.5l-.191.543c-.029-.015-.073-.029-.1-.044a8.825,8.825,0,0,0-1.071-.279,7.492,7.492,0,0,0-2.347.968,8.184,8.184,0,0,0-3.241,9.137,7.028,7.028,0,0,0,5.559,4.532l-.044.249s0,7.333,11.733,7.333l.088-.059a6.927,6.927,0,0,0,2.64,2.083,8.631,8.631,0,0,0,2.273.7,12.541,12.541,0,0,0,2.332.205,10.509,10.509,0,0,0,8.947-5L63.533,8.54A8.158,8.158,0,0,0,60.6,2.659Z" transform="translate(9.801 -0.557)" fill="#607d8b"/>
        <path id="Shape-4" data-name="Shape" d="M58.6,9.395l-8.125,13.2a10.547,10.547,0,0,1-6.879,4.8,8.631,8.631,0,0,1-2.273-.7,6.927,6.927,0,0,1-2.64-2.083l-.088.059c-11.733,0-11.733-7.333-11.733-7.333l.044-.249a7.028,7.028,0,0,1-5.559-4.532,8.184,8.184,0,0,1,3.241-9.137,7.492,7.492,0,0,1,2.347-.968,8.825,8.825,0,0,1,1.071.279c.029.015.073.029.1.044l.191-.543a11.1,11.1,0,0,1,4.107.5c.029.015.073.029.1.044l.22-.616A18.87,18.87,0,0,1,36.546.962,12.732,12.732,0,0,1,37.851.756a13.933,13.933,0,0,1,7.128.719,9.139,9.139,0,0,1,2.083,1.173L47.4,2.34A15.309,15.309,0,0,1,51.2.962l.895-.176A8.653,8.653,0,0,1,56.2,2.648,8.382,8.382,0,0,1,59,7.312,2.96,2.96,0,0,1,58.6,9.395Z" transform="translate(9.801 -0.547)" fill="#cfd8dc"/>
        <path id="Shape-5" data-name="Shape" d="M54.8,11.789V18.8H46V11.789A1.8,1.8,0,0,1,47.789,10h5.221A1.8,1.8,0,0,1,54.8,11.789Z" transform="translate(21.467 3.849)" fill="#37474f"/>
        <path id="Shape-6" data-name="Shape" d="M60.6,47.733H43l4.019-30.8L47.4,14h8.8Z" transform="translate(20.067 5.716)" fill="#37474f"/>
        <path id="Shape-7" data-name="Shape" d="M50.521,11.789V18.8H45.74l.381-2.933V11.789A1.8,1.8,0,0,1,47.911,10h.821A1.8,1.8,0,0,1,50.521,11.789Z" transform="translate(21.345 3.849)" fill="#607d8b"/>
        <path id="Shape-8" data-name="Shape" d="M56.2,47.733H43l4.019-30.8L47.4,14h4.4l.381,2.933Z" transform="translate(20.067 5.716)" fill="#607d8b"/>
        <path id="Shape-9" data-name="Shape" d="M67.333,37.511V63.867H38V36H65.823a1.509,1.509,0,0,1,1.511,1.511Z" transform="translate(17.733 15.982)" fill="#1566c0"/>
        <path id="Shape-10" data-name="Shape" d="M62.933,37.511V63.867H38V36H61.423a1.509,1.509,0,0,1,1.511,1.511Z" transform="translate(17.733 15.982)" fill="#2296f3"/>
        <rect id="Rectangle-path" width="58.667" height="38.133" transform="translate(0 41.716)" fill="#0377bc"/>
        <rect id="Rectangle-path-2" data-name="Rectangle-path" width="54.267" height="38.133" transform="translate(0 41.716)" fill="#02a9f4"/>
        <rect id="Rectangle-path-3" data-name="Rectangle-path" width="10.267" height="8.8" rx="1" transform="translate(5.867 59.316)" fill="#fff"/>
        <rect id="Rectangle-path-4" data-name="Rectangle-path" width="10.267" height="8.8" rx="1" transform="translate(22 59.316)" fill="#fff"/>
        <path id="Shape-11" data-name="Shape" d="M40.667,39.559V62.933H26V39.559A1.519,1.519,0,0,1,27.467,38H39.2A1.519,1.519,0,0,1,40.667,39.559Z" transform="translate(12.133 16.916)" fill="#607d8b"/>
        <path id="Shape-12" data-name="Shape" d="M47.467,47h5.867A1.467,1.467,0,0,1,54.8,48.467v8.8H46v-8.8A1.467,1.467,0,0,1,47.467,47Z" transform="translate(21.467 21.116)" fill="#ffeb3a"/>
        <path id="Shape-13" data-name="Shape" d="M85.067,54v4.4A1.467,1.467,0,0,1,83.6,59.867H1.467A1.467,1.467,0,0,1,0,58.4V54Z" transform="translate(0 24.382)" fill="#fdd834"/>
        <path id="Shape-14" data-name="Shape" d="M80.667,54v4.4A1.467,1.467,0,0,1,79.2,59.867H1.467A1.467,1.467,0,0,1,0,58.4V54Z" transform="translate(0 24.382)" fill="#ffeb3a"/>
      </g>
      <g id="Outline">
        <path id="Shape-15" data-name="Shape" d="M2.933,83.333H85.067A2.933,2.933,0,0,0,88,80.4V49.6a1.467,1.467,0,0,0-1.467-1.467h-3.12L79.2,17.229V11.467A1.467,1.467,0,0,0,77.733,10h-8.8a1.467,1.467,0,0,0-1.467,1.467v5.768l-4.214,30.9H61.6v-17.6a1.467,1.467,0,0,0-2.222-1.257L46.933,36.743v-6.21a1.467,1.467,0,0,0-2.222-1.257L32.267,36.743v-6.21a1.467,1.467,0,0,0-2.222-1.257l-7.333,4.4a1.467,1.467,0,0,0,1.511,2.514l5.111-3.067v4.743H17.6V30.533a1.467,1.467,0,0,0-2.222-1.257L.711,38.076a1.343,1.343,0,0,0-.126.114,1.442,1.442,0,0,0-.22.2,1.349,1.349,0,0,0-.155.23,1.364,1.364,0,0,0-.116.248,1.349,1.349,0,0,0-.06.293A1.3,1.3,0,0,0,0,39.333V80.4a2.933,2.933,0,0,0,2.933,2.933ZM58.667,40.8V74.533H55.733V54A2.933,2.933,0,0,0,52.8,51.067H41.067A2.933,2.933,0,0,0,38.133,54V74.533H2.933v-26.4H13.2a1.467,1.467,0,1,0,0-2.933H2.933V40.8Zm-17.6,30.8H48.4a1.467,1.467,0,0,0,0-2.933H41.067V65.733H48.4a1.467,1.467,0,0,0,0-2.933H41.067V59.867H48.4a1.467,1.467,0,0,0,0-2.933H41.067V54H52.8V74.533H41.067Zm44,8.8H2.933V77.467H85.067Zm-8.8-5.867H70.4V67.2h5.867ZM70.4,12.933h5.867v2.933H70.4ZM70.214,18.8h6.239l4,29.333H66.214ZM85.067,51.067V74.533H79.2V67.2a2.933,2.933,0,0,0-2.933-2.933H70.4A2.933,2.933,0,0,0,67.467,67.2v7.333H61.6V58.4h5.867a1.467,1.467,0,1,0,0-2.933H61.6v-4.4Zm-26.4-13.2H50.761l7.905-4.743ZM44,37.867H36.095L44,33.123Zm-29.333,0H6.761l7.905-4.743Z" transform="translate(0 3.862)"/>
        <path id="Shape-16" data-name="Shape" d="M13.467,36.933H29.6A1.467,1.467,0,1,0,29.6,34H13.467a1.467,1.467,0,1,0,0,2.933Z" transform="translate(5.6 15.062)"/>
        <path id="Shape-17" data-name="Shape" d="M4,43.933V49.8a2.933,2.933,0,0,0,2.933,2.933h7.333A2.933,2.933,0,0,0,17.2,49.8V43.933A2.933,2.933,0,0,0,14.267,41H6.933A2.933,2.933,0,0,0,4,43.933ZM14.267,49.8H6.933V43.933h7.333Z" transform="translate(1.867 18.329)"/>
        <path id="Shape-18" data-name="Shape" d="M25.267,41H17.933A2.933,2.933,0,0,0,15,43.933V49.8a2.933,2.933,0,0,0,2.933,2.933h7.333A2.933,2.933,0,0,0,28.2,49.8V43.933A2.933,2.933,0,0,0,25.267,41Zm-7.333,8.8V43.933h7.333V49.8Z" transform="translate(7 18.329)"/>
        <path id="Shape-19" data-name="Shape" d="M50.467,43.933H57.8A1.467,1.467,0,1,0,57.8,41H50.467a1.467,1.467,0,0,0,0,2.933Z" transform="translate(22.867 18.329)"/>
        <path id="Shape-20" data-name="Shape" d="M26.972,19.66c.4,2.166,2.452,7.719,12.54,7.927A10.317,10.317,0,0,0,47.4,30.544l1.562-.946a1.467,1.467,0,0,0,1.371.946h1.915l-2.424-1.467,2.424-1.467H50.337a1.467,1.467,0,0,0-1.371.946L47.4,27.611c-7.04,0-7.325-5.264-7.333-5.874a1.467,1.467,0,0,0-2.933.007,8.507,8.507,0,0,0,.515,2.794c-5.028-.551-6.848-2.776-7.489-4.3.223.012.452.037.667.037a1.467,1.467,0,0,0,0-2.933c-2.517,0-5.76-.98-6.613-3.744a6.7,6.7,0,0,1,2.64-7.465A7.939,7.939,0,0,1,33.434,5.6a18.455,18.455,0,0,1,3.023,1.308,1.467,1.467,0,0,0,1.376-2.59c-.147-.078-.28-.132-.424-.2.3-.078.6-.169.9-.23,2.21-.44,6.361-.826,9.337,1.418a6.415,6.415,0,0,1,2.688,4.753A1.467,1.467,0,0,0,51.8,11.477h.043a1.467,1.467,0,0,0,1.424-1.509,8.935,8.935,0,0,0-2.25-5.5,13.838,13.838,0,0,1,1.968-.6c1.929-.422,5.553-.8,8.136,1.38a6.645,6.645,0,0,1,2.413,4.792A1.467,1.467,0,0,0,65,11.477h.037a1.467,1.467,0,0,0,1.43-1.5,9.629,9.629,0,0,0-3.453-6.961,12.156,12.156,0,0,0-10.655-2,16.465,16.465,0,0,0-3.84,1.368A15.171,15.171,0,0,0,37.736,1a20.3,20.3,0,0,0-4.117,1.282,1.467,1.467,0,0,0-.345.241,10.645,10.645,0,0,0-7.992,1.129,9.593,9.593,0,0,0-3.868,10.809A8.053,8.053,0,0,0,26.972,19.66Z" transform="translate(9.796 -0.548)"/>
      </g>
    </g>
  </g>
</svg>
