<svg xmlns="http://www.w3.org/2000/svg" xmlns:xlink="http://www.w3.org/1999/xlink" width="516.049" height="467.986" viewBox="0 0 516.049 467.986">
  <defs>
    <clipPath id="clip-path">
      <path id="Trazado_140885" data-name="Trazado 140885" d="M-2871.709,2101.353l3.22,3.343-4.248,4.092-3.076-3.193a24.6,24.6,0,0,1-9.772,5.346l-2.7-7.384a20.082,20.082,0,0,0,8.814-4.774c2.019-1.944,2.336-3.063,1.639-3.787-2.554-2.651-12.151,10.716-19.722,2.856-3.279-3.4-3.566-8.645.707-14.094l-3.163-3.284,4.247-4.091,3.1,3.222a21.857,21.857,0,0,1,7.8-4.14l2.823,7.21a18.058,18.058,0,0,0-7.383,4.09c-2.08,2-2.161,3.244-1.464,3.968,2.436,2.529,12.063-10.806,19.547-3.037C-2868.205,2090.948-2867.826,2096.044-2871.709,2101.353Z" transform="translate(2900.035 -2075.464)" fill="none"/>
    </clipPath>
  </defs>
  <g id="Grupo_82395" data-name="Grupo 82395" transform="translate(3426.9 -1374.04)">
    <g id="Grupo_82340" data-name="Grupo 82340" transform="translate(-3391.547 1562.916)">
      <g id="Grupo_82339" data-name="Grupo 82339" transform="translate(0 33.666)">
        <path id="Trazado_140851" data-name="Trazado 140851" d="M-3342.907,2168.716c-.5-17.017,2.93-34.362,12.213-49.428a76.059,76.059,0,0,1,43.724-33c24.223-6.8,50.457-1.312,75.7,1.768,33.319,4.066,69.51,3.274,97.654-12.481,21.928-12.274,36.493-32.254,57.621-45.511,38.3-24.029,94.793-21.109,133.29,2.684a125.084,125.084,0,0,1,59.2,105.784c.044,45.077-25.062,89.294-64.97,118.611H-3302.96C-3326.9,2232.1-3341.964,2200.937-3342.907,2168.716Z" transform="translate(3342.954 -2013.411)" fill="none" stroke="#2989ea" stroke-miterlimit="10" stroke-width="2.5"/>
      </g>
      <path id="Trazado_140852" data-name="Trazado 140852" d="M-2837.031,2092.345c.483-19.362-2.846-39.1-11.86-56.237s-24.06-31.5-42.458-37.548c-23.521-7.739-49-1.493-73.508,2.012-32.354,4.625-67.5,3.724-94.827-14.2-21.293-13.966-35.436-36.7-55.953-51.781-37.187-27.34-92.049-24.017-129.431,3.054s-57.446,74.2-57.485,120.357c-.044,51.288,24.336,101.6,63.089,134.953h363.642C-2852.572,2164.464-2837.947,2129.005-2837.031,2092.345Z" transform="translate(3316.464 -1915.644)" fill="#fff5a2"/>
    </g>
    <g id="Grupo_82358" data-name="Grupo 82358" transform="translate(-3417.068 1383.144)">
      <g id="Grupo_82354" data-name="Grupo 82354" transform="translate(36.286 77.08)">
        <g id="Grupo_82341" data-name="Grupo 82341" transform="translate(165.5 324.468)">
          <path id="Trazado_140853" data-name="Trazado 140853" d="M-2805.6,2615.164a35.458,35.458,0,0,1-15.3,6.652l1.467,4.429c-10.861,12.774-12.745,20.649-11.124,25.215l33.473-19.677Z" transform="translate(2831.069 -2596.064)" fill="#97181a"/>
          <path id="Trazado_140854" data-name="Trazado 140854" d="M-2806.636,2559.7l-13.789,6.128,6.5,19.624a35.461,35.461,0,0,0,15.3-6.652Z" transform="translate(2824.09 -2559.697)" fill="#f9b384"/>
        </g>
        <g id="Grupo_82342" data-name="Grupo 82342" transform="translate(64.376 339.788)">
          <path id="Trazado_140855" data-name="Trazado 140855" d="M-3040.995,2625.834v-21.341l-14.708-.306-3,21.478A48.323,48.323,0,0,0-3040.995,2625.834Z" transform="translate(3081.44 -2604.187)" fill="#f9b384"/>
          <path id="Trazado_140856" data-name="Trazado 140856" d="M-3102,2666.561l-.68,4.872c-15.965,5.124-21.03,9.054-22.061,13.788h40.445V2666.73A48.328,48.328,0,0,1-3102,2666.561Z" transform="translate(3124.74 -2645.083)" fill="#97181a"/>
        </g>
        <path id="Trazado_140857" data-name="Trazado 140857" d="M-3007.243,2044.116l-28.339,34.626-1.995,2.445-3.208,34.286-10.424,111.565-26.97-.616c-2.4-72.415-5.892-147.7,1.995-198.549l2.758-18.072,64.344,4.6Z" transform="translate(3160.476 -1874.687)" fill="#20287a"/>
        <path id="Trazado_140858" data-name="Trazado 140858" d="M-3279.028,1776.958l-2.045-2.321a6.138,6.138,0,0,0-4.866-2.075l-25.6,1.084a.158.158,0,0,0-.09.281c5.555,4.3,12.458,6.559,20.348,7.321l7.89,10.8Z" transform="translate(3311.692 -1719.137)" fill="#f9b384"/>
        <path id="Trazado_140859" data-name="Trazado 140859" d="M-2972.85,2180.833l-1.994,2.445-3.209,34.287c-9.89-21.39-6.9-52.055-6.9-52.055Z" transform="translate(3097.744 -1976.778)" fill="#102048"/>
        <path id="Trazado_140860" data-name="Trazado 140860" d="M-2943.7,2109.452c7.023,53.012,21.29,110.006,38.76,165.61l-25.278,8.733c-30.946-66.336-43.356-102.186-53.927-155.04Z" transform="translate(3096.937 -1940.023)" fill="#20287a"/>
        <path id="Trazado_140861" data-name="Trazado 140861" d="M-2962.454,1747.772l-4.347,18.69,9.419,9.5,11.448-2.3,2.608-26.81Z" transform="translate(3085.563 -1702.284)" fill="#f9b384"/>
        <path id="Trazado_140862" data-name="Trazado 140862" d="M-3049.551,2039.184c12.869,2.987,30.334,10.341,52.4,3.677l2.758-10.111-53.084-1.379Z" transform="translate(3139.818 -1888.829)" fill="#102048" opacity="0.6"/>
        <path id="Trazado_140863" data-name="Trazado 140863" d="M-3020.158,1793.123s8.273,12.41,21.142,4.136l11.49,19.993-5.285,62.506c-19.273,7.391-37.869,4.948-56.072-3.217l13.788-73.077Z" transform="translate(3139.38 -1732.621)" fill="#fff"/>
        <g id="Grupo_82343" data-name="Grupo 82343" transform="translate(118.073 68.392)" opacity="0.3">
          <path id="Trazado_140864" data-name="Trazado 140864" d="M-2968.8,1816.036a17.35,17.35,0,0,0,4.476,4.375,15.205,15.205,0,0,0,5.575,2.26,14.485,14.485,0,0,0,5.991-.109,17.729,17.729,0,0,0,5.713-2.543,11.516,11.516,0,0,1-5.3,3.917,12.755,12.755,0,0,1-6.749.54,13.222,13.222,0,0,1-6.1-2.927A11.416,11.416,0,0,1-2968.8,1816.036Z" transform="translate(2968.8 -1816.036)" fill="#1f3c88"/>
        </g>
        <path id="Trazado_140865" data-name="Trazado 140865" d="M-3153.122,1788.248l-17.531-.077a32.474,32.474,0,0,0-15.956,4.354l-23.619,13.646-29.8-20.836-12.179,13.329,30.37,26.01a18.81,18.81,0,0,0,17.252,3.5l18.485-5.454-18.614,67.332c13.064,3.676,23.125,6.1,35.39,1.608C-3162.659,1876.492-3150.994,1840.233-3153.122,1788.248Z" transform="translate(3272.689 -1727.516)" fill="#d64626"/>
        <path id="Trazado_140866" data-name="Trazado 140866" d="M-2976.9,1644.142s-4.992.711-9.652-6.549c-4.35-6.778,2.948-22.473,15.626-15.971,8.043-7.813,19.554-4.309,27.478,7.052,0,0,2.951-.354,5.844,3.289,3.9,4.912,2.247,20.983-9.744,27.34Z" transform="translate(3099.341 -1617.421)" fill="#102048"/>
        <path id="Trazado_140867" data-name="Trazado 140867" d="M-2956.89,1761.158s2.3,7.495,7.849,8.479c7.124,1.264,10.6-7.138,10.6-7.138Z" transform="translate(3079.064 -1711.663)" fill="#e28b6d"/>
        <path id="Trazado_140868" data-name="Trazado 140868" d="M-2931.911,1667.9l-1.452,13.724a33.266,33.266,0,0,1-10.828,15.02c-8.384,6.646-19.579-.432-20.158-9.964-.01-.1-.01-.211-.019-.312-.147-2.583-.156-4.991-.073-7.2a57.674,57.674,0,0,1,2.188-14.744l14.882-6.352Z" transform="translate(3084.05 -1644.077)" fill="#f9b384"/>
        <path id="Trazado_140869" data-name="Trazado 140869" d="M-2938.987,1670.358c-3.972-1.722-5.509-5.727-5.635-11.052a38.465,38.465,0,0,1-23.73-1.842l-4.009-7.368,16.9-6.393,19.288,5.093,4.226,12.786Z" transform="translate(3089.208 -1634.652)" fill="#102048"/>
        <path id="Trazado_140870" data-name="Trazado 140870" d="M-2902.226,1871.549l-8.273,40.215,19-.613,7.426-29.5a67.035,67.035,0,0,0-3.127-42.336,204.157,204.157,0,0,0-10.327-20.728,14.947,14.947,0,0,0-9.067-7.1l-23.291-6.351c-11.415,35.433-16.752,69.59-11.25,101.419l26.274-3.294c.343-17.54-.091-37.093,6.2-60.668C-2908.66,1842.593-2901.307,1852.7-2902.226,1871.549Z" transform="translate(3070.166 -1740.497)" fill="#d64626"/>
        <path id="Trazado_140871" data-name="Trazado 140871" d="M-2886.424,1716.307c3.143-2.327,4.768-2.529,6.827-.708,2.487,2.2,1.842,11.736-7.8,8.3Z" transform="translate(3033.502 -1680.992)" fill="#f9b384"/>
        <path id="Trazado_140872" data-name="Trazado 140872" d="M-2879.977,1722.946a2.744,2.744,0,0,1,.216-1.651,3.033,3.033,0,0,1,1.145-1.286,2.812,2.812,0,0,1,1.685-.441,1.725,1.725,0,0,1,1.474.917l-.292.21a1.63,1.63,0,0,0-1.187-.32,2.845,2.845,0,0,0-1.2.412,3.3,3.3,0,0,0-1.482,2.158Z" transform="translate(3028.664 -1684.39)" fill="#e28b6d"/>
        <g id="Grupo_82344" data-name="Grupo 82344" transform="translate(82.592 84.76)">
          <rect id="Rectángulo_31394" data-name="Rectángulo 31394" width="24.344" height="0.919" transform="translate(0 23.447) rotate(-74.4)" fill="#891118"/>
        </g>
        <g id="Grupo_82345" data-name="Grupo 82345" transform="translate(158.064 93.705)">
          <path id="Trazado_140873" data-name="Trazado 140873" d="M-2851.755,1910.644l-.909-.136c.685-4.569,4.887-20.3,5.066-20.963l.887.238C-2846.754,1889.945-2851.078,1906.126-2851.755,1910.644Z" transform="translate(2852.664 -1889.545)" fill="#891118"/>
        </g>
        <g id="Grupo_82353" data-name="Grupo 82353" transform="translate(119.987 138.348)">
          <path id="Trazado_140874" data-name="Trazado 140874" d="M-2899.9,2083.525a37.077,37.077,0,0,1-11.4,7.52,36.893,36.893,0,0,1-10.592,2.733,37.347,37.347,0,0,1-14.237-1.224,37.152,37.152,0,0,1-11.886-5.829,37.649,37.649,0,0,1-4.776-4.186,37.274,37.274,0,0,1-10.456-25.941,37.248,37.248,0,0,1,11.446-26.936,38.1,38.1,0,0,1,4.957-4.025,36.886,36.886,0,0,1,5.607-3.144,37.316,37.316,0,0,1,4.042-1.542,38.123,38.123,0,0,1,5.647-1.327,37.555,37.555,0,0,1,14.438.606,36.337,36.337,0,0,1,6.882,2.374,37.441,37.441,0,0,1,7.789,4.825,36.832,36.832,0,0,1,3.523,3.219A37.4,37.4,0,0,1-2899.9,2083.525Z" transform="translate(2963.241 -2019.192)" fill="#fbc343"/>
          <path id="Trazado_140875" data-name="Trazado 140875" d="M-2888.437,2051.925c.213.24.416.48.615.725a29.945,29.945,0,0,1-2.31,40.642,29.986,29.986,0,0,1-3.775,3.089,29.706,29.706,0,0,1-10.638,4.608,30.024,30.024,0,0,1-15.173-.638,29.676,29.676,0,0,1-11.453-6.576c-.121-.106-.241-.222-.363-.338a29.947,29.947,0,0,1,1.7-41.366,30.33,30.33,0,0,1,3.364-2.8,29.634,29.634,0,0,1,10.261-4.71,30.056,30.056,0,0,1,20.541,2.283A29.887,29.887,0,0,1-2888.437,2051.925Z" transform="translate(2947.354 -2035.257)" fill="#bb9132" opacity="0.4"/>
          <path id="Trazado_140876" data-name="Trazado 140876" d="M-2887.624,2053.183c.31.323.616.649.9.985a29.886,29.886,0,0,0-41.321.07,29.887,29.887,0,0,0-1.617,41.29c-.325-.3-.64-.616-.95-.939a29.9,29.9,0,0,1,.718-42.27A29.9,29.9,0,0,1-2887.624,2053.183Z" transform="translate(2947.353 -2035.451)" fill="#bb9132" opacity="0.4"/>
          <path id="Trazado_140877" data-name="Trazado 140877" d="M-2891.783,2020.444l-.556,8.852v.021c-.759.183-1.5.4-2.241.643l-.388.126c-.1.04-.219.075-.33.118a.138.138,0,0,0-.062.02,30.3,30.3,0,0,0-2.928,1.229c-.207.1-.423.2-.634.316-.136.076-.286.148-.422.224-.282.156-.559.3-.837.465a2.2,2.2,0,0,0-.2.128,1.859,1.859,0,0,0-.191.113c-.294.173-.593.358-.887.551a.866.866,0,0,0-.133.085c-.141.089-.27.181-.411.27-.2.137-.4.274-.594.419l1.129-10.71a37.261,37.261,0,0,1,4.042-1.542A38.145,38.145,0,0,1-2891.783,2020.444Z" transform="translate(2923.482 -2020.013)" fill="#fff" opacity="0.3"/>
          <path id="Trazado_140878" data-name="Trazado 140878" d="M-2906.606,2195.707l-.519,8.271a37.194,37.194,0,0,1-11.887-5.834l.948-8.99.005-.023q.369.339.752.666A29.534,29.534,0,0,0-2906.606,2195.707Z" transform="translate(2934.242 -2130.614)" fill="#fff" opacity="0.15"/>
          <path id="Trazado_140879" data-name="Trazado 140879" d="M-2804.027,2033.926l-1.255,9.007-.022.151c-.2-.245-.4-.485-.615-.725a29.9,29.9,0,0,0-7.235-5.085l.006-.032,1.333-8.136A37.088,37.088,0,0,1-2804.027,2033.926Z" transform="translate(2864.836 -2025.692)" fill="#fff" opacity="0.15"/>
          <path id="Trazado_140880" data-name="Trazado 140880" d="M-2831.046,2196.7l-1.5,10.731a37.052,37.052,0,0,1-10.593,2.73l1.451-8.853A29.707,29.707,0,0,0-2831.046,2196.7Z" transform="translate(2884.492 -2135.575)" fill="#fff" opacity="0.3"/>
          <g id="Grupo_82352" data-name="Grupo 82352" transform="translate(21.479 19.377)">
            <g id="Grupo_82348" data-name="Grupo 82348">
              <g id="Grupo_82346" data-name="Grupo 82346" transform="translate(0 0.85)" opacity="0.4">
                <path id="Trazado_140881" data-name="Trazado 140881" d="M-2871.513,2103.745l3.236,3.36-4.609,4.319-3.091-3.209a24.713,24.713,0,0,1-9.82,5.373l-2.715-7.421a20.185,20.185,0,0,0,8.859-4.8c2.028-1.954,2.347-3.078,1.647-3.805-2.566-2.665-12.211,10.769-19.82,2.869-3.3-3.421-3.584-8.688.71-14.165l-3.749-3.891,4.269-4.112,3.689,3.83a21.973,21.973,0,0,1,7.837-4.162l2.836,7.246a18.159,18.159,0,0,0-7.42,4.111c-2.09,2.013-2.171,3.261-1.471,3.988,2.448,2.541,12.123-10.861,19.645-3.052C-2868.331,2093.495-2867.611,2098.408-2871.513,2103.745Z" transform="translate(2900.865 -2077.933)" fill="#bb9132"/>
              </g>
              <g id="Grupo_82347" data-name="Grupo 82347" transform="translate(0.286)">
                <path id="Trazado_140882" data-name="Trazado 140882" d="M-2871.709,2101.353l3.22,3.343-4.248,4.092-3.076-3.193a24.6,24.6,0,0,1-9.772,5.346l-2.7-7.384a20.082,20.082,0,0,0,8.814-4.774c2.019-1.944,2.336-3.063,1.639-3.787-2.554-2.651-12.151,10.716-19.722,2.856-3.279-3.4-3.566-8.645.707-14.094l-3.163-3.284,4.247-4.091,3.1,3.222a21.857,21.857,0,0,1,7.8-4.14l2.823,7.21a18.058,18.058,0,0,0-7.383,4.09c-2.08,2-2.161,3.244-1.464,3.968,2.436,2.529,12.063-10.806,19.547-3.037C-2868.205,2090.948-2867.826,2096.044-2871.709,2101.353Z" transform="translate(2900.035 -2075.464)" fill="#fbc343"/>
              </g>
            </g>
            <g id="Grupo_82351" data-name="Grupo 82351" transform="translate(0.286)">
              <g id="Grupo_82350" data-name="Grupo 82350" clip-path="url(#clip-path)">
                <g id="Grupo_82349" data-name="Grupo 82349" transform="translate(-12.695 -37.528)">
                  <path id="Trazado_140883" data-name="Trazado 140883" d="M-2926.533,1986.968l-10.37,98.227,14.649,1.475,6.241-99.365Z" transform="translate(2936.903 -1979.914)" fill="#fff" opacity="0.3"/>
                  <path id="Trazado_140884" data-name="Trazado 140884" d="M-2852.669,2080.393l18.662-113.911,9,2.338-16.024,115.119Z" transform="translate(2881.674 -1966.482)" fill="#fff" opacity="0.3"/>
                </g>
              </g>
            </g>
          </g>
        </g>
        <path id="Trazado_140886" data-name="Trazado 140886" d="M-2853.753,2107.62l-2.4,7.111s-6.647,8.216-5.712,9.261c1.953,2.183,7.066-3.1,7.066-3.1l-4.125,10.514a1.24,1.24,0,0,0,.905,1.6,13.258,13.258,0,0,0,11.16-2.341c5.493-4.319,4.215-14.7,4.215-14.7l2.353-7.7Z" transform="translate(3016.817 -1938.822)" fill="#f9b384"/>
        <path id="Trazado_140887" data-name="Trazado 140887" d="M-2822.5,2020.067l-2.243,8.907-.046.184-.359,1.406-3.861,15.36-4.964.166-1.3.037-12.74.414.2-1,.2-.974.643-3.1.193-.974,1.461-7.078.184-.928,1.958-9.514.5-2.417.018-.046v-.009l2.078-9.8a38.23,38.23,0,0,1,5.662,1.259C-2830.267,2013.38-2823.3,2014.6-2822.5,2020.067Z" transform="translate(3007.675 -1875.274)" fill="#d64626"/>
      </g>
      <g id="Grupo_82357" data-name="Grupo 82357" transform="translate(0 0)">
        <g id="Grupo_82355" data-name="Grupo 82355" transform="translate(8.968 32.937)">
          <path id="Trazado_140888" data-name="Trazado 140888" d="M-3332.265,1512.623a29.721,29.721,0,0,0-35.784-22.612,29.843,29.843,0,0,0-22.487,34.317,29.6,29.6,0,0,0,10.749,17.9,23.631,23.631,0,0,1,8.449,13.461h0l34.452-7.514h0a23.588,23.588,0,0,1,2.069-15.741A29.584,29.584,0,0,0-3332.265,1512.623Z" transform="translate(3391.025 -1489.229)" fill="#fed947"/>
          <path id="Trazado_140889" data-name="Trazado 140889" d="M-3334.347,1566.745l-1.141-.521a1.725,1.725,0,0,0-2.46,1.631,1.946,1.946,0,0,0,.172.656l15.384,33.609,7.179-1.566-.008-36.962a1.86,1.86,0,0,0-.014-.229,1.73,1.73,0,0,0-3.061-.8l-.426.523A13.123,13.123,0,0,1-3334.347,1566.745Z" transform="translate(3356.229 -1536.889)" fill="none" stroke="#fff" stroke-miterlimit="10" stroke-width="5"/>
          <ellipse id="Elipse_4696" data-name="Elipse 4696" cx="5.79" cy="3.358" rx="5.79" ry="3.358" transform="matrix(0.977, -0.213, 0.213, 0.977, 35.55, 83.624)" fill="#636363"/>
          <path id="Trazado_140890" data-name="Trazado 140890" d="M-3333.852,1667.927l34.452-7.514,3.132,14.359-34.43,7.591Z" transform="translate(3353.539 -1601.467)" fill="#e8e8e8"/>
          <path id="Trazado_140891" data-name="Trazado 140891" d="M-3324.916,1708.9l34.453-7.514-2.319,5.446a8.783,8.783,0,0,1-6.191,5.136l-13.753,3.029a8.781,8.781,0,0,1-7.816-2.1Z" transform="translate(3347.68 -1628.332)" fill="#afafaf"/>
          <path id="Trazado_140892" data-name="Trazado 140892" d="M-3298.089,1678.344l-37.81,8.246a1.058,1.058,0,0,1-1.255-.806h0a1.057,1.057,0,0,1,.806-1.255l37.81-8.246a1.058,1.058,0,0,1,1.255.806h0A1.057,1.057,0,0,1-3298.089,1678.344Z" transform="translate(3355.72 -1611.856)" fill="#636363"/>
          <path id="Trazado_140893" data-name="Trazado 140893" d="M-3293.257,1700.5l-37.81,8.246a1.058,1.058,0,0,1-1.255-.805h0a1.058,1.058,0,0,1,.806-1.255l37.81-8.246a1.057,1.057,0,0,1,1.255.805h0A1.057,1.057,0,0,1-3293.257,1700.5Z" transform="translate(3352.552 -1626.382)" fill="#636363"/>
        </g>
        <g id="Grupo_82356" data-name="Grupo 82356">
          <line id="Línea_1633" data-name="Línea 1633" x2="15.909" y2="9.481" transform="translate(0 18.5)" fill="none" stroke="#fdd442" stroke-linecap="round" stroke-linejoin="round" stroke-width="14.343"/>
          <line id="Línea_1634" data-name="Línea 1634" x1="8.184" y2="19.108" transform="translate(40.067 0.699)" fill="none" stroke="#fdd442" stroke-linecap="round" stroke-linejoin="round" stroke-width="14.343"/>
          <line id="Línea_1635" data-name="Línea 1635" x2="6.964" y2="20.395" transform="translate(20.032)" fill="none" stroke="#fdd442" stroke-linecap="round" stroke-linejoin="round" stroke-width="14.343"/>
        </g>
      </g>
    </g>
    <g id="Grupo_82394" data-name="Grupo 82394" transform="translate(-3144.272 1658.838)">
      <g id="Grupo_82377" data-name="Grupo 82377" transform="translate(0 15.13)">
        <g id="Grupo_82359" data-name="Grupo 82359" transform="translate(5.515)">
          <rect id="Rectángulo_31395" data-name="Rectángulo 31395" width="74.834" height="9.269" fill="#fbc343"/>
          <rect id="Rectángulo_31396" data-name="Rectángulo 31396" width="30.709" height="9.269" transform="translate(19.527)" fill="#bb9132" opacity="0.4"/>
          <rect id="Rectángulo_31397" data-name="Rectángulo 31397" width="7.088" height="9.269" transform="translate(5.785)" fill="#fff" opacity="0.4"/>
          <rect id="Rectángulo_31398" data-name="Rectángulo 31398" width="7.089" height="9.269" transform="translate(60.3)" fill="#fff" opacity="0.4"/>
        </g>
        <g id="Grupo_82360" data-name="Grupo 82360" transform="translate(5.515 18.519)">
          <rect id="Rectángulo_31399" data-name="Rectángulo 31399" width="74.834" height="9.269" fill="#fbc343"/>
          <rect id="Rectángulo_31400" data-name="Rectángulo 31400" width="30.709" height="9.269" transform="translate(19.527)" fill="#bb9132" opacity="0.4"/>
          <rect id="Rectángulo_31401" data-name="Rectángulo 31401" width="7.088" height="9.269" transform="translate(5.785)" fill="#fff" opacity="0.4"/>
          <rect id="Rectángulo_31402" data-name="Rectángulo 31402" width="7.089" height="9.269" transform="translate(60.3)" fill="#fff" opacity="0.4"/>
        </g>
        <g id="Grupo_82361" data-name="Grupo 82361" transform="translate(2.87 9.252)">
          <rect id="Rectángulo_31403" data-name="Rectángulo 31403" width="74.834" height="9.269" fill="#fbc343"/>
          <rect id="Rectángulo_31404" data-name="Rectángulo 31404" width="30.709" height="9.269" transform="translate(19.527)" fill="#bb9132" opacity="0.4"/>
          <rect id="Rectángulo_31405" data-name="Rectángulo 31405" width="7.088" height="9.269" transform="translate(5.785)" fill="#fff" opacity="0.4"/>
          <rect id="Rectángulo_31406" data-name="Rectángulo 31406" width="7.089" height="9.269" transform="translate(60.3)" fill="#fff" opacity="0.4"/>
        </g>
        <g id="Grupo_82362" data-name="Grupo 82362" transform="translate(5.515 37.039)">
          <rect id="Rectángulo_31407" data-name="Rectángulo 31407" width="74.834" height="9.269" fill="#fbc343"/>
          <rect id="Rectángulo_31408" data-name="Rectángulo 31408" width="30.709" height="9.269" transform="translate(19.527)" fill="#bb9132" opacity="0.4"/>
          <rect id="Rectángulo_31409" data-name="Rectángulo 31409" width="7.088" height="9.269" transform="translate(5.785)" fill="#fff" opacity="0.4"/>
          <rect id="Rectángulo_31410" data-name="Rectángulo 31410" width="7.089" height="9.269" transform="translate(60.3)" fill="#fff" opacity="0.4"/>
        </g>
        <g id="Grupo_82363" data-name="Grupo 82363" transform="translate(9.295 27.771)">
          <rect id="Rectángulo_31411" data-name="Rectángulo 31411" width="74.834" height="9.269" fill="#fbc343"/>
          <rect id="Rectángulo_31412" data-name="Rectángulo 31412" width="30.709" height="9.269" transform="translate(19.527)" fill="#bb9132" opacity="0.4"/>
          <rect id="Rectángulo_31413" data-name="Rectángulo 31413" width="7.089" height="9.269" transform="translate(5.785)" fill="#fff" opacity="0.4"/>
          <rect id="Rectángulo_31414" data-name="Rectángulo 31414" width="7.089" height="9.269" transform="translate(60.301)" fill="#fff" opacity="0.4"/>
        </g>
        <g id="Grupo_82364" data-name="Grupo 82364" transform="translate(5.515 55.558)">
          <rect id="Rectángulo_31415" data-name="Rectángulo 31415" width="74.834" height="9.269" fill="#fbc343"/>
          <rect id="Rectángulo_31416" data-name="Rectángulo 31416" width="30.709" height="9.269" transform="translate(19.527)" fill="#bb9132" opacity="0.4"/>
          <rect id="Rectángulo_31417" data-name="Rectángulo 31417" width="7.088" height="9.269" transform="translate(5.785)" fill="#fff" opacity="0.4"/>
          <rect id="Rectángulo_31418" data-name="Rectángulo 31418" width="7.089" height="9.269" transform="translate(60.3)" fill="#fff" opacity="0.4"/>
        </g>
        <g id="Grupo_82365" data-name="Grupo 82365" transform="translate(2.114 46.291)">
          <rect id="Rectángulo_31419" data-name="Rectángulo 31419" width="74.834" height="9.269" fill="#fbc343"/>
          <rect id="Rectángulo_31420" data-name="Rectángulo 31420" width="30.709" height="9.269" transform="translate(19.527)" fill="#bb9132" opacity="0.4"/>
          <rect id="Rectángulo_31421" data-name="Rectángulo 31421" width="7.089" height="9.269" transform="translate(5.785)" fill="#fff" opacity="0.4"/>
          <rect id="Rectángulo_31422" data-name="Rectángulo 31422" width="7.088" height="9.269" transform="translate(60.301)" fill="#fff" opacity="0.4"/>
        </g>
        <g id="Grupo_82366" data-name="Grupo 82366" transform="translate(5.515 74.078)">
          <rect id="Rectángulo_31423" data-name="Rectángulo 31423" width="74.834" height="9.269" fill="#fbc343"/>
          <rect id="Rectángulo_31424" data-name="Rectángulo 31424" width="30.709" height="9.269" transform="translate(19.527)" fill="#bb9132" opacity="0.4"/>
          <rect id="Rectángulo_31425" data-name="Rectángulo 31425" width="7.088" height="9.269" transform="translate(5.785)" fill="#fff" opacity="0.4"/>
          <rect id="Rectángulo_31426" data-name="Rectángulo 31426" width="7.089" height="9.269" transform="translate(60.3)" fill="#fff" opacity="0.4"/>
        </g>
        <g id="Grupo_82367" data-name="Grupo 82367" transform="translate(5.515 64.81)">
          <rect id="Rectángulo_31427" data-name="Rectángulo 31427" width="74.834" height="9.269" fill="#fbc343"/>
          <rect id="Rectángulo_31428" data-name="Rectángulo 31428" width="30.709" height="9.269" transform="translate(19.527)" fill="#bb9132" opacity="0.4"/>
          <rect id="Rectángulo_31429" data-name="Rectángulo 31429" width="7.088" height="9.269" transform="translate(5.785)" fill="#fff" opacity="0.4"/>
          <rect id="Rectángulo_31430" data-name="Rectángulo 31430" width="7.089" height="9.269" transform="translate(60.3)" fill="#fff" opacity="0.4"/>
        </g>
        <g id="Grupo_82368" data-name="Grupo 82368" transform="translate(0 92.615)">
          <rect id="Rectángulo_31431" data-name="Rectángulo 31431" width="74.834" height="9.269" fill="#fbc343"/>
          <rect id="Rectángulo_31432" data-name="Rectángulo 31432" width="30.709" height="9.269" transform="translate(19.527)" fill="#bb9132" opacity="0.4"/>
          <rect id="Rectángulo_31433" data-name="Rectángulo 31433" width="7.088" height="9.269" transform="translate(5.785)" fill="#fff" opacity="0.4"/>
          <rect id="Rectángulo_31434" data-name="Rectángulo 31434" width="7.089" height="9.269" transform="translate(60.3)" fill="#fff" opacity="0.4"/>
        </g>
        <g id="Grupo_82369" data-name="Grupo 82369" transform="translate(5.515 83.348)">
          <rect id="Rectángulo_31435" data-name="Rectángulo 31435" width="74.834" height="9.269" fill="#fbc343"/>
          <rect id="Rectángulo_31436" data-name="Rectángulo 31436" width="30.709" height="9.269" transform="translate(19.527)" fill="#bb9132" opacity="0.4"/>
          <rect id="Rectángulo_31437" data-name="Rectángulo 31437" width="7.088" height="9.269" transform="translate(5.785)" fill="#fff" opacity="0.4"/>
          <rect id="Rectángulo_31438" data-name="Rectángulo 31438" width="7.089" height="9.269" transform="translate(60.3)" fill="#fff" opacity="0.4"/>
        </g>
        <g id="Grupo_82370" data-name="Grupo 82370" transform="translate(5.515 111.153)">
          <rect id="Rectángulo_31439" data-name="Rectángulo 31439" width="74.834" height="9.269" fill="#fbc343"/>
          <rect id="Rectángulo_31440" data-name="Rectángulo 31440" width="30.709" height="9.269" transform="translate(19.527)" fill="#bb9132" opacity="0.4"/>
          <rect id="Rectángulo_31441" data-name="Rectángulo 31441" width="7.088" height="9.269" transform="translate(5.785)" fill="#fff" opacity="0.4"/>
          <rect id="Rectángulo_31442" data-name="Rectángulo 31442" width="7.089" height="9.269" transform="translate(60.3)" fill="#fff" opacity="0.4"/>
        </g>
        <g id="Grupo_82371" data-name="Grupo 82371" transform="translate(5.515 101.885)">
          <rect id="Rectángulo_31443" data-name="Rectángulo 31443" width="74.834" height="9.269" fill="#fbc343"/>
          <rect id="Rectángulo_31444" data-name="Rectángulo 31444" width="30.709" height="9.269" transform="translate(19.527)" fill="#bb9132" opacity="0.4"/>
          <rect id="Rectángulo_31445" data-name="Rectángulo 31445" width="7.088" height="9.269" transform="translate(5.785)" fill="#fff" opacity="0.4"/>
          <rect id="Rectángulo_31446" data-name="Rectángulo 31446" width="7.089" height="9.269" transform="translate(60.3)" fill="#fff" opacity="0.4"/>
        </g>
        <g id="Grupo_82372" data-name="Grupo 82372" transform="translate(5.515 129.69)">
          <rect id="Rectángulo_31447" data-name="Rectángulo 31447" width="74.834" height="9.269" fill="#fbc343"/>
          <rect id="Rectángulo_31448" data-name="Rectángulo 31448" width="30.709" height="9.269" transform="translate(19.527)" fill="#bb9132" opacity="0.4"/>
          <rect id="Rectángulo_31449" data-name="Rectángulo 31449" width="7.088" height="9.269" transform="translate(5.785)" fill="#fff" opacity="0.4"/>
          <rect id="Rectángulo_31450" data-name="Rectángulo 31450" width="7.089" height="9.269" transform="translate(60.3)" fill="#fff" opacity="0.4"/>
        </g>
        <g id="Grupo_82373" data-name="Grupo 82373" transform="translate(5.515 120.422)">
          <rect id="Rectángulo_31451" data-name="Rectángulo 31451" width="74.834" height="9.269" fill="#fbc343"/>
          <rect id="Rectángulo_31452" data-name="Rectángulo 31452" width="30.709" height="9.269" transform="translate(19.527)" fill="#bb9132" opacity="0.4"/>
          <rect id="Rectángulo_31453" data-name="Rectángulo 31453" width="7.088" height="9.269" transform="translate(5.785)" fill="#fff" opacity="0.4"/>
          <rect id="Rectángulo_31454" data-name="Rectángulo 31454" width="7.089" height="9.269" transform="translate(60.3)" fill="#fff" opacity="0.4"/>
        </g>
        <g id="Grupo_82374" data-name="Grupo 82374" transform="translate(5.515 148.227)">
          <rect id="Rectángulo_31455" data-name="Rectángulo 31455" width="74.834" height="9.269" fill="#fbc343"/>
          <rect id="Rectángulo_31456" data-name="Rectángulo 31456" width="30.709" height="9.269" transform="translate(19.527)" fill="#bb9132" opacity="0.4"/>
          <rect id="Rectángulo_31457" data-name="Rectángulo 31457" width="7.088" height="9.269" transform="translate(5.785)" fill="#fff" opacity="0.4"/>
          <rect id="Rectángulo_31458" data-name="Rectángulo 31458" width="7.089" height="9.269" transform="translate(60.3)" fill="#fff" opacity="0.4"/>
        </g>
        <g id="Grupo_82375" data-name="Grupo 82375" transform="translate(5.515 138.96)">
          <rect id="Rectángulo_31459" data-name="Rectángulo 31459" width="74.834" height="9.269" fill="#fbc343"/>
          <rect id="Rectángulo_31460" data-name="Rectángulo 31460" width="30.709" height="9.269" transform="translate(19.527)" fill="#bb9132" opacity="0.4"/>
          <rect id="Rectángulo_31461" data-name="Rectángulo 31461" width="7.088" height="9.269" transform="translate(5.785)" fill="#fff" opacity="0.4"/>
          <rect id="Rectángulo_31462" data-name="Rectángulo 31462" width="7.089" height="9.269" transform="translate(60.3)" fill="#fff" opacity="0.4"/>
        </g>
        <g id="Grupo_82376" data-name="Grupo 82376" transform="translate(5.515 157.497)">
          <rect id="Rectángulo_31463" data-name="Rectángulo 31463" width="74.834" height="9.269" fill="#fbc343"/>
          <rect id="Rectángulo_31464" data-name="Rectángulo 31464" width="30.709" height="9.269" transform="translate(19.527)" fill="#bb9132" opacity="0.4"/>
          <rect id="Rectángulo_31465" data-name="Rectángulo 31465" width="7.088" height="9.269" transform="translate(5.785)" fill="#fff" opacity="0.4"/>
          <rect id="Rectángulo_31466" data-name="Rectángulo 31466" width="7.089" height="9.269" transform="translate(60.3)" fill="#fff" opacity="0.4"/>
        </g>
      </g>
      <g id="Grupo_82392" data-name="Grupo 82392" transform="translate(90.394 52.169)">
        <g id="Grupo_82378" data-name="Grupo 82378" transform="translate(12.972)">
          <rect id="Rectángulo_31467" data-name="Rectángulo 31467" width="74.834" height="9.269" fill="#fbc343"/>
          <rect id="Rectángulo_31468" data-name="Rectángulo 31468" width="30.709" height="9.269" transform="translate(19.527)" fill="#bb9132" opacity="0.4"/>
          <rect id="Rectángulo_31469" data-name="Rectángulo 31469" width="7.088" height="9.269" transform="translate(5.785)" fill="#fff" opacity="0.4"/>
          <rect id="Rectángulo_31470" data-name="Rectángulo 31470" width="7.089" height="9.269" transform="translate(60.301)" fill="#fff" opacity="0.4"/>
        </g>
        <g id="Grupo_82379" data-name="Grupo 82379" transform="translate(3.779 18.519)">
          <rect id="Rectángulo_31471" data-name="Rectángulo 31471" width="74.834" height="9.269" fill="#fbc343"/>
          <rect id="Rectángulo_31472" data-name="Rectángulo 31472" width="30.709" height="9.269" transform="translate(19.527)" fill="#bb9132" opacity="0.4"/>
          <rect id="Rectángulo_31473" data-name="Rectángulo 31473" width="7.088" height="9.269" transform="translate(5.785)" fill="#fff" opacity="0.4"/>
          <rect id="Rectángulo_31474" data-name="Rectángulo 31474" width="7.088" height="9.269" transform="translate(60.301)" fill="#fff" opacity="0.4"/>
        </g>
        <g id="Grupo_82380" data-name="Grupo 82380" transform="translate(0.378 9.252)">
          <rect id="Rectángulo_31475" data-name="Rectángulo 31475" width="74.834" height="9.269" fill="#fbc343"/>
          <rect id="Rectángulo_31476" data-name="Rectángulo 31476" width="30.709" height="9.269" transform="translate(19.527)" fill="#bb9132" opacity="0.4"/>
          <rect id="Rectángulo_31477" data-name="Rectángulo 31477" width="7.089" height="9.269" transform="translate(5.785)" fill="#fff" opacity="0.4"/>
          <rect id="Rectángulo_31478" data-name="Rectángulo 31478" width="7.088" height="9.269" transform="translate(60.301)" fill="#fff" opacity="0.4"/>
        </g>
        <g id="Grupo_82381" data-name="Grupo 82381" transform="translate(3.779 37.039)">
          <rect id="Rectángulo_31479" data-name="Rectángulo 31479" width="74.834" height="9.269" fill="#fbc343"/>
          <rect id="Rectángulo_31480" data-name="Rectángulo 31480" width="30.709" height="9.269" transform="translate(19.527)" fill="#bb9132" opacity="0.4"/>
          <rect id="Rectángulo_31481" data-name="Rectángulo 31481" width="7.088" height="9.269" transform="translate(5.785)" fill="#fff" opacity="0.4"/>
          <rect id="Rectángulo_31482" data-name="Rectángulo 31482" width="7.088" height="9.269" transform="translate(60.301)" fill="#fff" opacity="0.4"/>
        </g>
        <g id="Grupo_82382" data-name="Grupo 82382" transform="translate(0 27.771)">
          <rect id="Rectángulo_31483" data-name="Rectángulo 31483" width="74.834" height="9.269" fill="#fbc343"/>
          <rect id="Rectángulo_31484" data-name="Rectángulo 31484" width="30.709" height="9.269" transform="translate(19.527)" fill="#bb9132" opacity="0.4"/>
          <rect id="Rectángulo_31485" data-name="Rectángulo 31485" width="7.089" height="9.269" transform="translate(5.785)" fill="#fff" opacity="0.4"/>
          <rect id="Rectángulo_31486" data-name="Rectángulo 31486" width="7.089" height="9.269" transform="translate(60.301)" fill="#fff" opacity="0.4"/>
        </g>
        <g id="Grupo_82383" data-name="Grupo 82383" transform="translate(3.779 55.576)">
          <rect id="Rectángulo_31487" data-name="Rectángulo 31487" width="74.834" height="9.269" fill="#fbc343"/>
          <rect id="Rectángulo_31488" data-name="Rectángulo 31488" width="30.709" height="9.269" transform="translate(19.527)" fill="#bb9132" opacity="0.4"/>
          <rect id="Rectángulo_31489" data-name="Rectángulo 31489" width="7.088" height="9.269" transform="translate(5.785)" fill="#fff" opacity="0.4"/>
          <rect id="Rectángulo_31490" data-name="Rectángulo 31490" width="7.088" height="9.269" transform="translate(60.301)" fill="#fff" opacity="0.4"/>
        </g>
        <g id="Grupo_82384" data-name="Grupo 82384" transform="translate(3.779 46.309)">
          <rect id="Rectángulo_31491" data-name="Rectángulo 31491" width="74.834" height="9.269" fill="#fbc343"/>
          <rect id="Rectángulo_31492" data-name="Rectángulo 31492" width="30.709" height="9.269" transform="translate(19.527)" fill="#bb9132" opacity="0.4"/>
          <rect id="Rectángulo_31493" data-name="Rectángulo 31493" width="7.088" height="9.269" transform="translate(5.785)" fill="#fff" opacity="0.4"/>
          <rect id="Rectángulo_31494" data-name="Rectángulo 31494" width="7.088" height="9.269" transform="translate(60.301)" fill="#fff" opacity="0.4"/>
        </g>
        <g id="Grupo_82385" data-name="Grupo 82385" transform="translate(11.133 74.114)">
          <rect id="Rectángulo_31495" data-name="Rectángulo 31495" width="74.834" height="9.269" fill="#fbc343"/>
          <rect id="Rectángulo_31496" data-name="Rectángulo 31496" width="30.709" height="9.269" transform="translate(19.527)" fill="#bb9132" opacity="0.4"/>
          <rect id="Rectángulo_31497" data-name="Rectángulo 31497" width="7.089" height="9.269" transform="translate(5.785)" fill="#fff" opacity="0.4"/>
          <rect id="Rectángulo_31498" data-name="Rectángulo 31498" width="7.088" height="9.269" transform="translate(60.301)" fill="#fff" opacity="0.4"/>
        </g>
        <g id="Grupo_82386" data-name="Grupo 82386" transform="translate(3.779 64.846)">
          <rect id="Rectángulo_31499" data-name="Rectángulo 31499" width="74.834" height="9.269" fill="#fbc343"/>
          <rect id="Rectángulo_31500" data-name="Rectángulo 31500" width="30.709" height="9.269" transform="translate(19.527)" fill="#bb9132" opacity="0.4"/>
          <rect id="Rectángulo_31501" data-name="Rectángulo 31501" width="7.088" height="9.269" transform="translate(5.785)" fill="#fff" opacity="0.4"/>
          <rect id="Rectángulo_31502" data-name="Rectángulo 31502" width="7.088" height="9.269" transform="translate(60.301)" fill="#fff" opacity="0.4"/>
        </g>
        <g id="Grupo_82387" data-name="Grupo 82387" transform="translate(3.779 92.651)">
          <rect id="Rectángulo_31503" data-name="Rectángulo 31503" width="74.834" height="9.269" fill="#fbc343"/>
          <rect id="Rectángulo_31504" data-name="Rectángulo 31504" width="30.709" height="9.269" transform="translate(19.527)" fill="#bb9132" opacity="0.4"/>
          <rect id="Rectángulo_31505" data-name="Rectángulo 31505" width="7.088" height="9.269" transform="translate(5.785)" fill="#fff" opacity="0.4"/>
          <rect id="Rectángulo_31506" data-name="Rectángulo 31506" width="7.088" height="9.269" transform="translate(60.301)" fill="#fff" opacity="0.4"/>
        </g>
        <g id="Grupo_82388" data-name="Grupo 82388" transform="translate(3.779 83.384)">
          <rect id="Rectángulo_31507" data-name="Rectángulo 31507" width="74.834" height="9.269" fill="#fbc343"/>
          <rect id="Rectángulo_31508" data-name="Rectángulo 31508" width="30.709" height="9.269" transform="translate(19.527)" fill="#bb9132" opacity="0.4"/>
          <rect id="Rectángulo_31509" data-name="Rectángulo 31509" width="7.088" height="9.269" transform="translate(5.785)" fill="#fff" opacity="0.4"/>
          <rect id="Rectángulo_31510" data-name="Rectángulo 31510" width="7.088" height="9.269" transform="translate(60.301)" fill="#fff" opacity="0.4"/>
        </g>
        <g id="Grupo_82389" data-name="Grupo 82389" transform="translate(3.779 111.188)">
          <rect id="Rectángulo_31511" data-name="Rectángulo 31511" width="74.834" height="9.269" fill="#fbc343"/>
          <rect id="Rectángulo_31512" data-name="Rectángulo 31512" width="30.709" height="9.269" transform="translate(19.527)" fill="#bb9132" opacity="0.4"/>
          <rect id="Rectángulo_31513" data-name="Rectángulo 31513" width="7.088" height="9.269" transform="translate(5.785)" fill="#fff" opacity="0.4"/>
          <rect id="Rectángulo_31514" data-name="Rectángulo 31514" width="7.088" height="9.269" transform="translate(60.301)" fill="#fff" opacity="0.4"/>
        </g>
        <g id="Grupo_82390" data-name="Grupo 82390" transform="translate(3.779 101.921)">
          <rect id="Rectángulo_31515" data-name="Rectángulo 31515" width="74.834" height="9.269" fill="#fbc343"/>
          <rect id="Rectángulo_31516" data-name="Rectángulo 31516" width="30.709" height="9.269" transform="translate(19.527)" fill="#bb9132" opacity="0.4"/>
          <rect id="Rectángulo_31517" data-name="Rectángulo 31517" width="7.088" height="9.269" transform="translate(5.785)" fill="#fff" opacity="0.4"/>
          <rect id="Rectángulo_31518" data-name="Rectángulo 31518" width="7.088" height="9.269" transform="translate(60.301)" fill="#fff" opacity="0.4"/>
        </g>
        <g id="Grupo_82391" data-name="Grupo 82391" transform="translate(3.779 120.458)">
          <rect id="Rectángulo_31519" data-name="Rectángulo 31519" width="74.834" height="9.269" fill="#fbc343"/>
          <rect id="Rectángulo_31520" data-name="Rectángulo 31520" width="30.709" height="9.269" transform="translate(19.527)" fill="#bb9132" opacity="0.4"/>
          <rect id="Rectángulo_31521" data-name="Rectángulo 31521" width="7.088" height="9.269" transform="translate(5.785)" fill="#fff" opacity="0.4"/>
          <rect id="Rectángulo_31522" data-name="Rectángulo 31522" width="7.088" height="9.269" transform="translate(60.301)" fill="#fff" opacity="0.4"/>
        </g>
      </g>
      <g id="Grupo_82393" data-name="Grupo 82393" transform="translate(69.159)">
        <rect id="Rectángulo_31523" data-name="Rectángulo 31523" width="74.834" height="9.269" transform="translate(5.563 0) rotate(36.881)" fill="#fbc343"/>
        <rect id="Rectángulo_31524" data-name="Rectángulo 31524" width="30.709" height="9.269" transform="translate(21.182 11.719) rotate(36.881)" fill="#bb9132" opacity="0.4"/>
        <rect id="Rectángulo_31525" data-name="Rectángulo 31525" width="7.088" height="9.269" transform="translate(10.19 3.472) rotate(36.881)" fill="#fff" opacity="0.4"/>
        <rect id="Rectángulo_31526" data-name="Rectángulo 31526" width="7.088" height="9.269" transform="matrix(0.8, 0.6, -0.6, 0.8, 53.796, 36.19)" fill="#fff" opacity="0.4"/>
      </g>
    </g>
    <path id="Trazado_140896" data-name="Trazado 140896" d="M0,0H504.356" transform="translate(-3416.83 1840.151)" fill="none" stroke="#891118" stroke-width="3.75"/>
    <path id="Trazado_140894" data-name="Trazado 140894" d="M-2571.7,1413.542h-133.677c2.189-10,12.073-17.539,23.919-17.539a26.667,26.667,0,0,1,9.955,1.9c4.42-11.9,14.6-20.234,26.461-20.234,11.649,0,21.675,8.022,26.208,19.56a39.483,39.483,0,0,1,15.9-3.243C-2587.43,1393.982-2574.523,1402.4-2571.7,1413.542Z" transform="translate(-466.624)" fill="#dff7f9"/>
    <path id="Trazado_140895" data-name="Trazado 140895" d="M-2300.789,1796.382h104.547c-1.712-7.822-9.442-13.717-18.707-13.717a20.853,20.853,0,0,0-7.785,1.482c-3.457-9.3-11.419-15.824-20.7-15.824-9.111,0-16.952,6.273-20.5,15.3a30.881,30.881,0,0,0-12.434-2.536C-2288.487,1781.085-2298.58,1787.671-2300.789,1796.382Z" transform="translate(-731.893 -256.137)" fill="#dff7f9"/>
  </g>
</svg>
