<svg xmlns="http://www.w3.org/2000/svg" width="515.655" height="448.999" viewBox="0 0 515.655 448.999">
  <g id="Grupo_82338" data-name="Grupo 82338" transform="translate(1301.673 -1266.463)">
    <g id="Grupo_82324" data-name="Grupo 82324" transform="translate(-1301.019 1281.909)">
      <path id="Trazado_140795" data-name="Trazado 140795" d="M-777.824,1548.261c-5.162,111.531-104.386,143.283-227.97,145.672-188.459,3.642-210.392-56.231-210.392-167.886s41.083-226.934,150.018-218.434c51.757,4.038,110.5,89.818,154.482,118.283C-850.936,1465.213-773.946,1464.478-777.824,1548.261Z" transform="translate(1248.375 -1307.17)" fill="#fff5a2"/>
      <path id="Trazado_140796" data-name="Trazado 140796" d="M-1259.39,1682.418s39.253-17.127,57.3-72.972,50.766-102.873,112.758-106.032,129.044.724,151.2-32.558-25.191-34.042-25.858,24.351,101.356,165.479,106.691,248.633-63.548,66.65-149.133,33.226-174.925,32.726-230.611,7.986S-1290.313,1707.394-1259.39,1682.418Z" transform="translate(1288.677 -1394.61)" fill="none" stroke="#1f71b8" stroke-miterlimit="10" stroke-width="1" opacity="0.42"/>
      <circle id="Elipse_4684" data-name="Elipse 4684" cx="22.511" cy="22.511" r="22.511" transform="translate(15.11 178.067)" fill="#fed947"/>
      <circle id="Elipse_4685" data-name="Elipse 4685" cx="28.735" cy="28.735" r="28.735" transform="translate(0 215.943) rotate(-67.218)" fill="none" stroke="#1f71b8" stroke-miterlimit="10" stroke-width="1" opacity="0.42"/>
      <circle id="Elipse_4686" data-name="Elipse 4686" cx="26.255" cy="26.255" r="26.255" transform="translate(438.906 188.581)" fill="#fed947"/>
      <path id="Trazado_140797" data-name="Trazado 140797" d="M-569.979,1686.726l-7.088,11.253h15.09Z" transform="translate(851.767 -1542.705)" fill="none" stroke="#1f71b8" stroke-miterlimit="10" stroke-width="1" opacity="0.42"/>
      <path id="Trazado_140798" data-name="Trazado 140798" d="M-837.293,1410.584l-9.468,15.032H-826.6Z" transform="translate(1019.127 -1371.344)" fill="#20287a"/>
      <g id="Grupo_82323" data-name="Grupo 82323" transform="translate(225.416 14.851)">
        <circle id="Elipse_4687" data-name="Elipse 4687" cx="27.378" cy="27.378" r="27.378" fill="#b52426"/>
        <path id="Trazado_140799" data-name="Trazado 140799" d="M-656.5,1380.848l-1.539-2.946a3.865,3.865,0,0,1,1.635-5.215h0a2.634,2.634,0,0,0,1.114-3.555l-2.3-4.407a2.634,2.634,0,0,0-3.555-1.114l-2.005,1.048a10.378,10.378,0,0,0-4.409,4.427l-.586,1.133a6.746,6.746,0,0,0,.013,6.224l4.3,8.237,2.874,5.5,4.3,8.237a6.745,6.745,0,0,0,5.1,3.564l1.265.166a10.376,10.376,0,0,0,6.152-1.093l2.005-1.048a2.634,2.634,0,0,0,1.114-3.554l-2.3-4.407a2.634,2.634,0,0,0-3.555-1.114h0a3.865,3.865,0,0,1-5.215-1.635l-1.539-2.945Z" transform="translate(683.341 -1356.86)" fill="#fff"/>
      </g>
      <path id="Trazado_140800" data-name="Trazado 140800" d="M-125.577,2223.023a5.668,5.668,0,0,1-5.668,5.668,5.668,5.668,0,0,1-5.668-5.668,5.668,5.668,0,0,1,5.668-5.668A5.668,5.668,0,0,1-125.577,2223.023Z" transform="translate(578.627 -1871.99)" fill="none" stroke="#1f71b8" stroke-miterlimit="10" stroke-width="1" opacity="0.42"/>
      <circle id="Elipse_4688" data-name="Elipse 4688" cx="10.477" cy="10.477" r="10.477" transform="translate(103.722 30.285)" fill="#fff" opacity="0.42"/>
      <circle id="Elipse_4689" data-name="Elipse 4689" cx="10.477" cy="10.477" r="10.477" transform="translate(389.772 175.886)" fill="none" stroke="#1f71b8" stroke-miterlimit="10" stroke-width="1" opacity="0.42"/>
      <circle id="Elipse_4690" data-name="Elipse 4690" cx="10.212" cy="10.212" r="10.212" transform="translate(60.141 236.114)" fill="#20287a"/>
      <circle id="Elipse_4691" data-name="Elipse 4691" cx="18.111" cy="18.111" r="18.111" transform="translate(447.049 196.725)" fill="none" stroke="#fff" stroke-miterlimit="10" stroke-width="1" opacity="0.42"/>
    </g>
    <g id="Grupo_82328" data-name="Grupo 82328" transform="translate(-986.476 1266.463)">
      <path id="Trazado_140801" data-name="Trazado 140801" d="M-336.838,1421.237H-462.353a9.71,9.71,0,0,0-9.71,9.71v75.816a9.71,9.71,0,0,0,9.71,9.71h80.046v19.113a3.763,3.763,0,0,0,6.186,2.879l26.131-21.992h13.153a9.71,9.71,0,0,0,9.71-9.71v-75.816A9.709,9.709,0,0,0-336.838,1421.237Z" transform="translate(472.063 -1362.509)" fill="#20287a"/>
      <g id="Grupo_82325" data-name="Grupo 82325" transform="translate(54.895 11.133)">
        <path id="Trazado_140802" data-name="Trazado 140802" d="M-215.274,1352.853a57.352,57.352,0,0,1-8.868,30.76c-.887,1.423-1.844,2.812-2.859,4.142a55.636,55.636,0,0,1-44.332,22.137,54.913,54.913,0,0,1-25.672-6.325,57.149,57.149,0,0,1-30.387-50.715,56.725,56.725,0,0,1,.5-7.62c3.653-27.9,27.143-49.431,55.558-49.431C-240.374,1295.8-215.274,1321.346-215.274,1352.853Z" transform="translate(327.392 -1295.802)" fill="#2a94ee"/>
        <path id="Trazado_140803" data-name="Trazado 140803" d="M-177.3,1530.763a55.636,55.636,0,0,1-44.332,22.137,54.916,54.916,0,0,1-25.672-6.325c1.05-2.626,4.271-9.592,9.977-13.49,7.118-4.877,28.753-7.807,43.76-6.523C-184.713,1527.309-179.824,1529.281-177.3,1530.763Z" transform="translate(277.695 -1438.814)" fill="#e1606d"/>
        <path id="Trazado_140804" data-name="Trazado 140804" d="M-246.19,1355.386l.587,27.855s.884,28.458,24.044,27.954,28.053-35.66,28.053-35.66l-3.643-21.329S-224.22,1336.139-246.19,1355.386Z" transform="translate(277.002 -1327.272)" fill="#f9b384"/>
        <path id="Trazado_140805" data-name="Trazado 140805" d="M-183.165,1484.58s1.72,10.771-.876,14.293,5.155,15.759,5.155,15.759l17.933-16.451a205.913,205.913,0,0,1-.867-22.622Z" transform="translate(238.765 -1407.351)" fill="#f9b384"/>
        <path id="Trazado_140806" data-name="Trazado 140806" d="M-263.062,1351.587a39.836,39.836,0,0,0,13.791,1.5c7.127-.625,9.627-3.5,9.627-3.5a17.509,17.509,0,0,0,6.251,1,13.527,13.527,0,0,0,6.751-1.875,15.946,15.946,0,0,0-1.5,10.252c1.125,5.751,4.876,7.252,4.876,7.252s2.375-5.751,6.5-5.751,5.627,4.376,4.564,10.127-7.69,7.126-7.69,7.126l2.825,7.568s10.678-11.443,11.928-24.071-5.126-16.379-5.126-16.379.532-9.377-11.987-12.628-20.771-3-30.148,2.376c0,0-7.877-6-14.5-2.376s-4.751,11.378-1.5,13.378c0,0-6.376,1.625-5,9.5s10.566,7.26,10.566,7.26Z" transform="translate(294.008 -1317.074)" fill="#00476c"/>
        <path id="Trazado_140807" data-name="Trazado 140807" d="M-181.276,1491.274s16.833-4.454,18.5-15.715c0,0,4.176,16.327-18.5,21.871C-181.276,1497.429-180.6,1492.579-181.276,1491.274Z" transform="translate(236.719 -1407.351)" fill="#f9b384" style="mix-blend-mode: multiply;isolation: isolate"/>
      </g>
      <g id="Grupo_82327" data-name="Grupo 82327" transform="translate(141.839 0)">
        <circle id="Elipse_4692" data-name="Elipse 4692" cx="26.214" cy="26.214" r="26.214" transform="translate(0 52.01) rotate(-82.759)" fill="#d64626"/>
        <g id="Grupo_82326" data-name="Grupo 82326" transform="translate(22.128 13.197)">
          <path id="Trazado_140808" data-name="Trazado 140808" d="M-35.718,1324.413l-.093-1.219c-.282-2.532.563-5.3,2.907-8.114,2.11-2.485,3.283-4.315,3.283-6.426,0-2.392-1.5-3.986-4.454-4.033a8.337,8.337,0,0,0-4.737,1.454l-1.126-2.955a12.3,12.3,0,0,1,6.706-1.876c5.393,0,7.832,3.33,7.832,6.894,0,3.189-1.783,5.487-4.033,8.161-2.064,2.438-2.814,4.5-2.674,6.894l.047,1.219Zm-1.031,6.566a2.772,2.772,0,0,1,2.814-2.955,2.737,2.737,0,0,1,2.767,2.955,2.732,2.732,0,0,1-2.814,2.908A2.749,2.749,0,0,1-36.749,1330.979Z" transform="translate(39.939 -1301.244)" fill="#fff"/>
        </g>
      </g>
    </g>
    <g id="Grupo_82337" data-name="Grupo 82337" transform="translate(-1285.909 1356.845)">
      <g id="Grupo_82332" data-name="Grupo 82332" transform="translate(38.589 0)">
        <g id="Grupo_82330" data-name="Grupo 82330" transform="translate(55.977 20.68)">
          <path id="Trazado_140809" data-name="Trazado 140809" d="M-618.337,2141.1a2.47,2.47,0,0,1-.313.669q-3.321,4.813-7.017,9.339h-.01c-80.093,98.426-286.071,98.426-286.071,98.426V2132.059h293.1S-617.522,2138.455-618.337,2141.1Z" transform="translate(949.78 -1914.675)" fill="#d64626"/>
          <path id="Trazado_140810" data-name="Trazado 140810" d="M-618.337,2155.888a2.482,2.482,0,0,1-.313.669q-3.321,4.812-7.017,9.338h-.01l-286.071,32.554v-42.562Z" transform="translate(949.78 -1929.462)" fill="#6b6b6b" style="mix-blend-mode: multiply;isolation: isolate"/>
          <path id="Trazado_140811" data-name="Trazado 140811" d="M-611.755,1826.128l-14.178,15.03a90.288,90.288,0,0,1-6.383-7.562,82.912,82.912,0,0,1-5.088-7.515,48.644,48.644,0,0,1-5.2-11.564c-3.734-13.361-2.206-41.543-2.206-41.543s6.045.654,8.11,2.953C-625.07,1788.88-611.755,1826.128-611.755,1826.128Z" transform="translate(784.325 -1691.843)" fill="#2a94ee"/>
          <path id="Trazado_140812" data-name="Trazado 140812" d="M-879.041,1867.208H-980.568l-9.271-78.069a16.321,16.321,0,0,1,13.939-18.211l6.108-.8,77.576-10.083Z" transform="translate(998.314 -1683.822)" fill="#afafaf"/>
          <path id="Trazado_140813" data-name="Trazado 140813" d="M-820.172,1765.612s-33.038,10.624-34.828,13.357,13.722,51.149,13.722,51.149l-2.983,40.07h67.269l3.39-38.238a34.856,34.856,0,0,0,7.647-20.955c.448-13.053-9.194-43.059-9.194-43.059l-23.471-3.082Z" transform="translate(914.654 -1686.803)" fill="#2a94ee"/>
          <path id="Trazado_140814" data-name="Trazado 140814" d="M-814.09,1565.194s-23.029-9.9-39.376,13.2.582,59.425.582,59.425,41.713-5.447,53.26-6.56,13.882-1.113,13.882-1.113,5.948-36.488-6.747-49.9S-814.09,1565.194-814.09,1565.194Z" transform="translate(918.03 -1561.595)" fill="#00476c"/>
          <path id="Trazado_140815" data-name="Trazado 140815" d="M-747.266,1758.034l-19.441-13.326a30.954,30.954,0,0,0,1.2-10.2,16.018,16.018,0,0,0-.607-3.338,12.771,12.771,0,0,0-.595-1.575l19.441-.969s.129,1.576.49,3.606a27.186,27.186,0,0,0,1.377,5.076,8.88,8.88,0,0,0,1.774,3C-740.649,1743.331-747.266,1758.034-747.266,1758.034Z" transform="translate(859.774 -1664.324)" fill="#f9b384"/>
          <path id="Trazado_140816" data-name="Trazado 140816" d="M-744.426,1741.47c-2.5.082-13.221.245-20.107-2.8a16.016,16.016,0,0,0-.607-3.338s13.1,1.6,19.336,1.062A27.18,27.18,0,0,0-744.426,1741.47Z" transform="translate(858.801 -1668.484)" fill="#f9b384" style="mix-blend-mode: multiply;isolation: isolate"/>
          <path id="Trazado_140817" data-name="Trazado 140817" d="M-763.827,1582.476l3.241,26.793s4.249,27.608-18.03,30.287-29.769-23.073-29.769-23.073l-2.633-28.442S-787.524,1567.019-763.827,1582.476Z" transform="translate(887.271 -1570.107)" fill="#f9b384"/>
          <path id="Trazado_140818" data-name="Trazado 140818" d="M-778.322,1576.042s-2.915,7.168-12.5,12.253a58.5,58.5,0,0,1-16.471,5.751s-1.279,7.545-5.582,12.281c0,0-7.443-14.123-4.4-26.282s18.735-18.034,32.507-16.8,18.734,6.286,20.557,14.324-1.229,18.885-1.229,18.885S-768.368,1578.542-778.322,1576.042Z" transform="translate(891.61 -1561.596)" fill="#00476c"/>
          <path id="Trazado_140819" data-name="Trazado 140819" d="M-817.1,1597.984s-2.653-20.376,13.064-31.2c10.234-7.046,23.113-5.17,23.113-5.17s-8.125-6.116-24.126.945-16.811,23.027-15.19,35.421Z" transform="translate(893.356 -1559.159)" fill="#35aae1"/>
          <path id="Trazado_140820" data-name="Trazado 140820" d="M-957.41,1883.7h-23.158l-9.271-78.069a16.32,16.32,0,0,1,13.939-18.21l6.108-.8Z" transform="translate(998.314 -1700.312)" fill="#636363"/>
          <g id="Grupo_82329" data-name="Grupo 82329" transform="translate(79.114 55.253)">
            <path id="Trazado_140821" data-name="Trazado 140821" d="M-784.609,1714.061c-10.629,0-18.518-7.4-18.871-7.736l1.427-1.551c.086.082,8.709,8.134,19.489,7.061l.2,2.115C-783.122,1714.026-783.872,1714.061-784.609,1714.061Z" transform="translate(803.48 -1704.774)" fill="#115c96"/>
          </g>
          <path id="Trazado_140822" data-name="Trazado 140822" d="M-650.621,2079.714H-969.16a30.346,30.346,0,0,1-22.306-9.667l-17.494-18.972c-6.787-7.36-1.384-19.019,8.813-19.019h310.967a42.22,42.22,0,0,1,28.806,11.255l17.955,16.769C-634.779,2067.214-640,2079.714-650.621,2079.714Z" transform="translate(1011.979 -1852.617)" fill="#97181a"/>
          <path id="Trazado_140823" data-name="Trazado 140823" d="M-545.56,1768.259c-.574.311-1.474.838-2.454,1.422l-.188-.3c2.913-1.857,7.228-4.756,6.937-5.465-.438-1.063-2.626-.508-4.251.375-.938.51-2.642,1.523-4.284,2.515l-.119-.192c2.89-1.827,7.711-5.014,7.4-5.762-.438-1.063-2.626-.508-4.251.375-1.03.559-2.978,1.724-4.758,2.8l-.139-.223c2.868-1.85,6.606-4.419,6.334-5.079-.437-1.063-2.626-.508-4.251.375-2.191,1.19-8.555,5.126-8.556,5.126l-4.635,1.688c1-1.626,3.813-7.627,2.5-7.627s-4.938,4.189-6.439,8.5a23.137,23.137,0,0,0-1.266,7.352l-40.617,51.613s.962,1.511,2.415,3.521c4.214,5.829,14.026,7.11,19.692,2.679,4.475-3.5,8.009-8.122,11.467-12.843,6.518-8.9,16.239-32.5,18.524-38.147l9.193-8.616c2.519-1.628,5.732-3.845,5.494-4.421C-542.193,1766.989-544.125,1767.479-545.56,1768.259Z" transform="translate(761.655 -1682.64)" fill="#f9b384"/>
          <path id="Trazado_140824" data-name="Trazado 140824" d="M-769.878,2058.847s4.751,3.5,6.627,8.251-10.127,7.81-30.164,1.007C-807.994,2063.155-783.381,2047.969-769.878,2058.847Z" transform="translate(879.121 -1866.86)" fill="#00476c"/>
          <path id="Trazado_140825" data-name="Trazado 140825" d="M-751.189,1724.149h-2.685a1.75,1.75,0,0,1-1.734-1.765v-1.651a1.75,1.75,0,0,1,1.734-1.765h2.685a1.75,1.75,0,0,1,1.734,1.765v1.651A1.75,1.75,0,0,1-751.189,1724.149Z" transform="translate(852.886 -1658.33)" fill="#00476c"/>
          <path id="Trazado_140826" data-name="Trazado 140826" d="M-818.313,1658.915c1.485,7.425-2.38,14.494-8.632,15.788s-12.524-3.674-14.01-11.1,2.38-14.494,8.632-15.788S-819.8,1651.49-818.313,1658.915Z" transform="translate(906.046 -1614.048)" fill="#1f71b8"/>
          <path id="Trazado_140827" data-name="Trazado 140827" d="M-819.52,1669.935c.876,4.38-1.4,8.55-5.092,9.313s-7.388-2.168-8.264-6.547,1.4-8.55,5.092-9.314S-820.4,1665.556-819.52,1669.935Z" transform="translate(900.951 -1623.764)" fill="#35aae1"/>
          <path id="Trazado_140828" data-name="Trazado 140828" d="M-901.037,1794.351s-5.675.851-7.977,4.516c-9.867,15.709-29.085,63.747-29.085,63.747l18.531,8.2s24.364-28.231,26.6-41.663S-901.037,1794.351-901.037,1794.351Z" transform="translate(966.133 -1705.109)" fill="#2a94ee"/>
          <path id="Trazado_140829" data-name="Trazado 140829" d="M-923.945,1978.3l38.035,24.74-5.37,11.914s-34.231-12.294-44.747-20.262-4.7-20.49-4.7-20.49S-934.908,1973.516-923.945,1978.3Z" transform="translate(968.758 -1816.693)" fill="#f9b384"/>
          <path id="Trazado_140830" data-name="Trazado 140830" d="M-804.746,2048.262s12.828-.607,17.451-.607,12.678,7.589,11.783,10.017-10.143-5.009-10.143-5.009l-.522.987s8.2,5.009,8.651,6.906-1.417,1.594-4.1.455a59.2,59.2,0,0,1-6.712-3.719l-.448.531s7.756,4.781,7.756,6.526-5.593-.227-9.7-2.959l-.522.834s5.071,2.581,5.444,4.25-2.386.987-5.444-.455-5.892-1.594-9.844-2.2-8.643-3.531-8.643-3.531Z" transform="translate(886.474 -1862.297)" fill="#f9b384"/>
          <path id="Trazado_140831" data-name="Trazado 140831" d="M-425.972,1861.829l-18.24,91.479H-579.348l18.135-90.952a4.07,4.07,0,0,1,3.971-3.3H-428.2A2.3,2.3,0,0,1-425.972,1861.829Z" transform="translate(743.507 -1745.26)" fill="#e8e8e8"/>
          <path id="Trazado_140832" data-name="Trazado 140832" d="M-643.66,2077.544l-37.125-12.077a3.184,3.184,0,0,1-2.2-3.028h0a3.184,3.184,0,0,1,3.184-3.184h39.787Z" transform="translate(807.819 -1869.496)" fill="#636363"/>
          <path id="Trazado_140833" data-name="Trazado 140833" d="M-836.087,1804.146s8.312,23.5,3.275,39.636C-832.812,1843.781-815.82,1824.9-836.087,1804.146Z" transform="translate(902.828 -1711.187)" fill="#2a94ee" style="mix-blend-mode: multiply;isolation: isolate"/>
          <path id="Trazado_140834" data-name="Trazado 140834" d="M-627.134,1849.321a82.9,82.9,0,0,1-5.088-7.515c3.43-13.478-4.551-43.492-4.551-43.492C-619.281,1820.615-624.159,1841.328-627.134,1849.321Z" transform="translate(779.143 -1707.568)" fill="#2a94ee" style="mix-blend-mode: multiply;isolation: isolate"/>
          <path id="Trazado_140835" data-name="Trazado 140835" d="M-535.073,1873.354l60.988,49.762,47.881,39.067H-550.329Z" transform="translate(725.499 -1754.134)" fill="#afafaf"/>
          <path id="Trazado_140850" data-name="Trazado 140850" d="M10.855,0A10.855,10.855,0,1,1,0,10.855,10.855,10.855,0,0,1,10.855,0Z" transform="translate(236.99 161.469) rotate(-28.711)" fill="#2a94ee"/>
          <path id="Trazado_140836" data-name="Trazado 140836" d="M-771.183,1756.876l18.367,18.688s-3.186,4.507-8.489,4.382-8.282-6.867-9.783-10.374a38.509,38.509,0,0,0-4.562-7.334Z" transform="translate(865.324 -1681.853)" fill="#20287a"/>
          <path id="Trazado_140837" data-name="Trazado 140837" d="M-715.472,1774.375s4.733,2.879,9.359.879,3.375-5.057,1.75-8.28a73.086,73.086,0,0,1-3.376-8.974l-5.273-3.04S-712.078,1767.245-715.472,1774.375Z" transform="translate(827.98 -1680.664)" fill="#20287a"/>
          <path id="Trazado_140838" data-name="Trazado 140838" d="M-716.529,1901.254l-46.283,4.477s10.377,7.441,26.353,5.191S-716.529,1901.254-716.529,1901.254Z" transform="translate(857.357 -1771.448)" fill="#55a5e8" style="mix-blend-mode: multiply;isolation: isolate"/>
        </g>
        <g id="Grupo_82331" data-name="Grupo 82331">
          <path id="Trazado_140839" data-name="Trazado 140839" d="M-1066.146,1504.659h-83.7a9.66,9.66,0,0,0-9.66,9.66V1536.5a9.659,9.659,0,0,0,9.66,9.66h70.5l22.853,13.21v-45.054A9.66,9.66,0,0,0-1066.146,1504.659Z" transform="translate(1159.501 -1504.659)" fill="#fed947"/>
          <line id="Línea_1630" data-name="Línea 1630" x2="87.184" transform="translate(6.432 10.037)" fill="none" stroke="#fff" stroke-linecap="round" stroke-linejoin="round" stroke-width="1"/>
          <line id="Línea_1631" data-name="Línea 1631" x2="87.184" transform="translate(6.432 20.68)" fill="none" stroke="#fff" stroke-linecap="round" stroke-linejoin="round" stroke-width="1"/>
          <line id="Línea_1632" data-name="Línea 1632" x2="87.184" transform="translate(6.432 31.322)" fill="none" stroke="#fff" stroke-linecap="round" stroke-linejoin="round" stroke-width="1"/>
        </g>
      </g>
      <g id="Grupo_82335" data-name="Grupo 82335" transform="translate(0 167.773)">
        <g id="Grupo_82333" data-name="Grupo 82333">
          <path id="Trazado_140840" data-name="Trazado 140840" d="M-1053.76,2036.989c2.19-18.108-12.1-15.387-21.877-5.835s-19.357,4.219-8.515-13.627,18.781-23.336,17.28-32.321-9.339-5.056-22.9,2.418-.745-12.038-1.769-30.548-19.4-9.261-20.949,6.319,5.413,33.026-3.508,29.566-14.315-24.158-22.427-14.388,22.895,42.894,21.853,52.9-23.349-20.474-29.758-10.44,21.318,77.043,45.322,75.166C-1070.509,2093.807-1055.95,2055.1-1053.76,2036.989Z" transform="translate(1190.495 -1946.813)" fill="#97181a"/>
          <path id="Trazado_140841" data-name="Trazado 140841" d="M-1035.416,1996.248a222.139,222.139,0,0,0-2.3,47.53c1.533,26.578,5.006,93.445,5.006,93.445" transform="translate(1122.74 -1977.49)" fill="none" stroke="#c44251" stroke-miterlimit="10" stroke-width="1"/>
          <path id="Trazado_140842" data-name="Trazado 140842" d="M-1099.757,2065.667s17.615,20.907,24.013,25.521c0,0,22.752-21.924,27.1-25.521" transform="translate(1161.015 -2020.568)" fill="none" stroke="#c44251" stroke-miterlimit="10" stroke-width="1"/>
          <path id="Trazado_140843" data-name="Trazado 140843" d="M-1127.179,2175.988s26.489,26.647,36.846,28.415l38.978-26.129" transform="translate(1178.032 -2089.029)" fill="none" stroke="#c44251" stroke-miterlimit="10" stroke-width="1"/>
          <path id="Trazado_140844" data-name="Trazado 140844" d="M-1182.12,2176.2s11.481-25.389,5.3-39.031-15.055-5.637-17.841,5.235-11.785,11.216-11.788-5.931,3.228-24.386-1.658-30.052-8.71.435-15.037,11.463-5.657-8.131-14.27-20.684-17.567,1.776-12.006,13.369,17.883,20.868,10.147,22.244-20.348-10.848-21.874-.532,34.36,20.337,37.895,27.8-25.117-4.41-25.335,5.365,33.122,26.933,48.214,24.378S-1182.12,2176.2-1182.12,2176.2Z" transform="translate(1261.198 -2037.112)" fill="#751318"/>
          <path id="Trazado_140845" data-name="Trazado 140845" d="M-1212.227,2125.264s43.7,70.215,52.9,92.021" transform="translate(1230.809 -2057.551)" fill="none" stroke="#c44251" stroke-miterlimit="10" stroke-width="1"/>
          <path id="Trazado_140846" data-name="Trazado 140846" d="M-1231.084,2178.835l30.734,5.478,6.32-26.432" transform="translate(1242.511 -2077.792)" fill="none" stroke="#c44251" stroke-miterlimit="10" stroke-width="1"/>
          <path id="Trazado_140847" data-name="Trazado 140847" d="M-1188.275,2256.758l32.833,5.683,13.531-29.805" transform="translate(1215.945 -2124.181)" fill="none" stroke="#c44251" stroke-miterlimit="10" stroke-width="1"/>
        </g>
        <g id="Grupo_82334" data-name="Grupo 82334" transform="translate(55.636 157.007)">
          <path id="Trazado_140848" data-name="Trazado 140848" d="M-1104.247,2367.778h55.538l-4.77,28.033h-44.976Z" transform="translate(1108.165 -2365.053)" fill="#115c96"/>
          <rect id="Rectángulo_31393" data-name="Rectángulo 31393" width="63.886" height="10.477" rx="3.214" fill="#1f71b8"/>
        </g>
      </g>
      <g id="Grupo_82336" data-name="Grupo 82336" transform="translate(277.966 281.496)">
        <circle id="Elipse_4694" data-name="Elipse 4694" cx="38.56" cy="38.56" r="38.56" transform="translate(0)" fill="#2a94ee"/>
        <path id="Trazado_140849" data-name="Trazado 140849" d="M-446.34,2310.6H-494.8a2.4,2.4,0,0,0-2.4,2.4v26.7a2.4,2.4,0,0,0,2.4,2.4h48.458a2.4,2.4,0,0,0,2.4-2.4v-26.7A2.4,2.4,0,0,0-446.34,2310.6Zm.718,3.852-22.755,14.879a1.167,1.167,0,0,1-.638.19,1.161,1.161,0,0,1-.571-.15l-26.506-14.877a1.168,1.168,0,0,1-.447-1.589,1.167,1.167,0,0,1,1.589-.447l25.89,14.532L-446.9,2312.5a1.165,1.165,0,0,1,1.614.339A1.164,1.164,0,0,1-445.622,2314.455Z" transform="translate(509.129 -2286.288)" fill="#fff"/>
        <circle id="Elipse_4695" data-name="Elipse 4695" cx="14.291" cy="14.291" r="14.291" transform="translate(54.034 5.82)" fill="#b52426"/>
      </g>
    </g>
  </g>
</svg>
