<svg xmlns="http://www.w3.org/2000/svg" width="213.654" height="51.769" viewBox="0 0 213.654 51.769">
  <g id="Grupo_82930" data-name="Grupo 82930" transform="translate(-475.02 -6857)">
    <path id="Trazado_141832" data-name="Trazado 141832" d="M4.2-4.834,3.359,0H.02L2.48-14.219l5.107.01a5.148,5.148,0,0,1,3.735,1.317,4.058,4.058,0,0,1,1.2,3.414A4.642,4.642,0,0,1,11.6-6.99,5.084,5.084,0,0,1,9.487-5.38a7.484,7.484,0,0,1-2.944.556Zm.459-2.637,2.012.02a2.482,2.482,0,0,0,1.943-.827,2.463,2.463,0,0,0,.537-1.963,1.5,1.5,0,0,0-.454-.945,1.556,1.556,0,0,0-.991-.387l-2.334-.01ZM18.77-3.906l4.355-10.312h3.828L20.078,0H16.426L14.043-14.219h3.613ZM45.7-7.051H36.9l.449-2.539h8.789Zm-.742,4.287h-8.8L36.611-5.3H45.4ZM65.982-5.645H52.623l.719-2.578H66.7Zm14.7,0H67.32l.719-2.578H81.4Zm14.7,0H82.018l.719-2.578H96.1Zm14.7,0H96.715l.719-2.578h13.359Zm14.7,0H111.412l.719-2.578H125.49Zm14.7,0H126.109l.719-2.578h13.359Zm14.7,0H140.807l.719-2.578h13.359Zm14.7,0H155.5l.719-2.578h13.359Zm14.7,0H170.2l.719-2.578h13.359Zm14.7,0H184.9l.719-2.578h13.359Zm14.7,0H199.6l.719-2.578h13.359Z" transform="translate(475 6889.731)" fill="#12263f"/>
    <path id="Trazado_141833" data-name="Trazado 141833" d="M6.914,0H3.691L5.508-10.449,2.2-9.512l.449-2.607,6.289-2.1.361-.01ZM18.3-4.863H12.588L13.027-7.4H18.74Zm7.012-9.561a2.862,2.862,0,0,1,2.1.82,2.664,2.664,0,0,1,.7,2.119l-.049.654a3.177,3.177,0,0,1-1.025,2.212,3.274,3.274,0,0,1-2.324.806,2.861,2.861,0,0,1-2.09-.825,2.677,2.677,0,0,1-.732-2.095l.059-.732A3.128,3.128,0,0,1,23-13.623,3.293,3.293,0,0,1,25.313-14.424Zm-1.348,3.711a1.228,1.228,0,0,0,.161.825.7.7,0,0,0,.62.308,1.036,1.036,0,0,0,.776-.293,1.488,1.488,0,0,0,.435-.859l.107-.762q.1-1.123-.771-1.162a1.051,1.051,0,0,0-.791.313,1.479,1.479,0,0,0-.439.859Zm6.514,4.287a2.886,2.886,0,0,1,2.109.825A2.647,2.647,0,0,1,33.3-3.486l-.059.752A3.157,3.157,0,0,1,32.173-.557a3.228,3.228,0,0,1-2.28.762,2.89,2.89,0,0,1-2.08-.815,2.683,2.683,0,0,1-.742-2.124l.059-.762a3.273,3.273,0,0,1,.532-1.558,2.936,2.936,0,0,1,1.182-1.03A3.62,3.62,0,0,1,30.479-6.426ZM29.131-2.7a1.3,1.3,0,0,0,.186.781.721.721,0,0,0,.605.335q1.055.039,1.24-1.281L31.25-3.5a1.252,1.252,0,0,0-.146-.805.734.734,0,0,0-.635-.33,1.056,1.056,0,0,0-.811.325,1.458,1.458,0,0,0-.43.83ZM24.014-1.084l-1.5-.85L31.084-12.92l1.494.84ZM39.971-5.3a7.685,7.685,0,0,1,1.523-4,3.775,3.775,0,0,1,3.184-1.455,2.88,2.88,0,0,1,2.236,1.133L47.939-15h3.223l-2.6,15H45.7l.137-1.143A3.3,3.3,0,0,1,43.213.205,2.911,2.911,0,0,1,40.825-.923,4.974,4.974,0,0,1,39.9-3.9a9.146,9.146,0,0,1,.039-1.2Zm3.2.225a7.669,7.669,0,0,0-.068,1.094q0,1.621,1.094,1.65a2.049,2.049,0,0,0,1.689-.908l.723-4.053a1.3,1.3,0,0,0-1.289-.928,1.643,1.643,0,0,0-1.45.776A5.007,5.007,0,0,0,43.174-5.078ZM55.7.2a4.912,4.912,0,0,1-2.524-.669A4.215,4.215,0,0,1,51.5-2.31,4.933,4.933,0,0,1,51.055-4.9l.029-.273A6.477,6.477,0,0,1,52.9-9.3a5.011,5.011,0,0,1,3.794-1.46,4.086,4.086,0,0,1,2.324.689A3.853,3.853,0,0,1,60.43-8.224a5.662,5.662,0,0,1,.293,2.646l-.186,1.34H54.248a2.06,2.06,0,0,0,.469,1.348,1.722,1.722,0,0,0,1.309.547,3.325,3.325,0,0,0,2.51-1.074l1.348,1.782A3.976,3.976,0,0,1,58.218-.306a5.848,5.848,0,0,1-2.339.5Zm.781-8.418A1.653,1.653,0,0,0,55.3-7.8a3.588,3.588,0,0,0-.874,1.5h3.213l.059-.282a2.143,2.143,0,0,0,.02-.641A1.131,1.131,0,0,0,56.484-8.223Zm16.094,7.07A3.5,3.5,0,0,1,69.727.205,2.769,2.769,0,0,1,67.388-.879a4,4,0,0,1-.61-2.852l1.143-6.836h3.213L69.971-3.683a2.294,2.294,0,0,0,0,.518.851.851,0,0,0,.947.831,2.076,2.076,0,0,0,1.729-.8l1.309-7.431h3.232L75.352,0H72.363ZM83.105-13.193l-.459,2.627h1.689l-.4,2.285H82.246l-.82,4.854a1.294,1.294,0,0,0,.063.752q.132.254.659.273a7.637,7.637,0,0,0,.84-.049L82.754-.068a5.192,5.192,0,0,1-1.729.244A2.847,2.847,0,0,1,78.789-.7a3,3,0,0,1-.605-2.334l.859-5.244H77.734l.391-2.285h1.309l.459-2.627ZM87.227,0H84L85.84-10.566h3.223Zm-1.1-13.232a1.49,1.49,0,0,1,.5-1.191,1.806,1.806,0,0,1,1.265-.479,1.864,1.864,0,0,1,1.255.43,1.464,1.464,0,0,1,.522,1.123,1.493,1.493,0,0,1-.5,1.2,1.811,1.811,0,0,1-1.27.474,1.887,1.887,0,0,1-1.245-.425A1.447,1.447,0,0,1,86.123-13.232ZM92.656,0H89.434l2.6-15h3.223Zm5.43,0H94.863L96.7-10.566h3.223Zm-1.1-13.232a1.49,1.49,0,0,1,.5-1.191A1.806,1.806,0,0,1,98.75-14.9a1.864,1.864,0,0,1,1.255.43,1.464,1.464,0,0,1,.522,1.123,1.493,1.493,0,0,1-.5,1.2,1.811,1.811,0,0,1-1.27.474,1.887,1.887,0,0,1-1.245-.425A1.447,1.447,0,0,1,96.982-13.232Zm3.672,7.93a7.685,7.685,0,0,1,1.523-4,3.775,3.775,0,0,1,3.184-1.455A2.88,2.88,0,0,1,107.6-9.629L108.623-15h3.223l-2.6,15h-2.861l.137-1.143A3.3,3.3,0,0,1,103.9.205a2.911,2.911,0,0,1-2.388-1.128,4.974,4.974,0,0,1-.923-2.974,9.146,9.146,0,0,1,.039-1.2Zm3.2.225a7.669,7.669,0,0,0-.068,1.094q0,1.621,1.094,1.65a2.049,2.049,0,0,0,1.689-.908l.723-4.053a1.3,1.3,0,0,0-1.289-.928,1.643,1.643,0,0,0-1.45.776A5.008,5.008,0,0,0,103.857-5.078ZM117.09,0a2.865,2.865,0,0,1-.137-.957A3.259,3.259,0,0,1,114.365.2a3.184,3.184,0,0,1-2.285-.918,2.759,2.759,0,0,1-.85-2.178,3.1,3.1,0,0,1,1.436-2.642,6.768,6.768,0,0,1,3.789-.923l1.074.02.117-.6.039-.518a.839.839,0,0,0-.889-.918,1.235,1.235,0,0,0-1.3,1.162l-3.223.01a3.061,3.061,0,0,1,.693-1.851,4.109,4.109,0,0,1,1.753-1.211,6.125,6.125,0,0,1,2.358-.4,4.723,4.723,0,0,1,2.1.5,3.133,3.133,0,0,1,1.353,1.318,3.368,3.368,0,0,1,.342,1.948l-.791,4.971-.049.605a2.669,2.669,0,0,0,.186,1.23l-.01.186Zm-1.836-2.129A2.072,2.072,0,0,0,116.982-3l.322-1.7-.83-.01a2.188,2.188,0,0,0-1.328.454,1.722,1.722,0,0,0-.654,1.187.865.865,0,0,0,.151.659A.773.773,0,0,0,115.254-2.129Zm6.8-3.174a7.685,7.685,0,0,1,1.523-4,3.775,3.775,0,0,1,3.184-1.455,2.88,2.88,0,0,1,2.236,1.133L130.02-15h3.223l-2.6,15h-2.861l.137-1.143A3.3,3.3,0,0,1,125.293.205a2.911,2.911,0,0,1-2.388-1.128,4.974,4.974,0,0,1-.923-2.974,9.146,9.146,0,0,1,.039-1.2Zm3.2.225a7.669,7.669,0,0,0-.068,1.094q0,1.621,1.094,1.65a2.049,2.049,0,0,0,1.689-.908l.723-4.053a1.3,1.3,0,0,0-1.289-.928,1.643,1.643,0,0,0-1.45.776A5.008,5.008,0,0,0,125.254-5.078Z" transform="translate(542.954 6908.562)" fill="#12263f"/>
    <path id="Trazado_141834" data-name="Trazado 141834" d="M11.934-4.844a5.127,5.127,0,0,1-.981,2.656A5.551,5.551,0,0,1,8.706-.4,6.954,6.954,0,0,1,5.693.2,4.683,4.683,0,0,1,2.188-1.24,5.77,5.77,0,0,1,.791-5a12.245,12.245,0,0,1,.347-3.447,9.112,9.112,0,0,1,1.416-3.247,6.506,6.506,0,0,1,2.314-2.07,6.008,6.008,0,0,1,2.915-.659,5.086,5.086,0,0,1,3.677,1.4,5.467,5.467,0,0,1,1.47,3.74L9.6-9.3a2.739,2.739,0,0,0-.469-1.855,2.058,2.058,0,0,0-1.543-.6q-2.637-.088-3.213,4.1a22.537,22.537,0,0,0-.264,2.705q-.049,2.4,1.777,2.471a2.609,2.609,0,0,0,1.885-.581,2.906,2.906,0,0,0,.9-1.753Zm6.934-5.918a4.438,4.438,0,0,1,2.451.708,3.989,3.989,0,0,1,1.519,1.919A5.922,5.922,0,0,1,23.184-5.4l-.02.215A6.262,6.262,0,0,1,21.357-1.26,5.083,5.083,0,0,1,17.568.2a4.419,4.419,0,0,1-2.432-.7,4.014,4.014,0,0,1-1.519-1.9,5.755,5.755,0,0,1-.356-2.715,6.514,6.514,0,0,1,1.782-4.141A5.052,5.052,0,0,1,18.867-10.762ZM16.475-5.113l-.029.575q-.137,2.174,1.328,2.213,1.895.059,2.2-3.071l.039-.887a2.394,2.394,0,0,0-.327-1.4,1.192,1.192,0,0,0-1.021-.541A1.68,1.68,0,0,0,17.2-7.5,4.753,4.753,0,0,0,16.475-5.113ZM29.658-3.027q.127-.645-1-.967l-.693-.176a5.34,5.34,0,0,1-2.49-1.26,2.494,2.494,0,0,1-.742-1.924,3.065,3.065,0,0,1,1.353-2.476,5.148,5.148,0,0,1,3.179-.933,4.769,4.769,0,0,1,3.022.947,3.09,3.09,0,0,1,1.177,2.5l-3.2-.01q.039-1.25-1.1-1.25a1.574,1.574,0,0,0-.908.288,1.119,1.119,0,0,0-.5.767q-.166.791,1.4,1.084a8.116,8.116,0,0,1,2.1.747,3.135,3.135,0,0,1,1.133,1.05,2.611,2.611,0,0,1,.361,1.5,2.824,2.824,0,0,1-.625,1.709A4.047,4.047,0,0,1,30.4-.225,6.174,6.174,0,0,1,27.949.2a4.965,4.965,0,0,1-2.124-.479,3.787,3.787,0,0,1-1.533-1.274,3.31,3.31,0,0,1-.571-1.851l2.988.02A1.234,1.234,0,0,0,28.115-2a1.846,1.846,0,0,0,1.016-.269A1.161,1.161,0,0,0,29.658-3.027ZM39.766-13.193l-.459,2.627H41l-.4,2.285H38.906l-.82,4.854a1.294,1.294,0,0,0,.063.752q.132.254.659.273a7.637,7.637,0,0,0,.84-.049L39.414-.068a5.192,5.192,0,0,1-1.729.244A2.847,2.847,0,0,1,35.449-.7a3,3,0,0,1-.605-2.334L35.7-8.281H34.395l.391-2.285h1.309l.459-2.627Zm6.6,2.432a4.438,4.438,0,0,1,2.451.708,3.989,3.989,0,0,1,1.519,1.919A5.922,5.922,0,0,1,50.684-5.4l-.02.215A6.262,6.262,0,0,1,48.857-1.26,5.083,5.083,0,0,1,45.068.2a4.419,4.419,0,0,1-2.432-.7,4.014,4.014,0,0,1-1.519-1.9,5.755,5.755,0,0,1-.356-2.715,6.514,6.514,0,0,1,1.782-4.141A5.052,5.052,0,0,1,46.367-10.762ZM43.975-5.113l-.029.575q-.137,2.174,1.328,2.213,1.895.059,2.2-3.071l.039-.887a2.394,2.394,0,0,0-.327-1.4,1.192,1.192,0,0,0-1.021-.541A1.68,1.68,0,0,0,44.7-7.5,4.753,4.753,0,0,0,43.975-5.113Zm18.691,3.96A3.5,3.5,0,0,1,59.814.205,2.769,2.769,0,0,1,57.476-.879a4,4,0,0,1-.61-2.852l1.143-6.836h3.213L60.059-3.683a2.294,2.294,0,0,0,0,.518.851.851,0,0,0,.947.831,2.076,2.076,0,0,0,1.729-.8l1.309-7.431h3.232L65.439,0H62.451Zm9.268-9.424-.225,1.27a3.756,3.756,0,0,1,3.057-1.465,2.523,2.523,0,0,1,2.183,1.089,4.557,4.557,0,0,1,.522,3.032L76.357,0H73.135l1.123-6.678a3.454,3.454,0,0,0,.02-.626q-.068-.929-1.094-.929a2.008,2.008,0,0,0-1.553.753L70.313,0H67.1l1.836-10.566ZM81.592,0H78.369l1.836-10.566h3.223Zm-1.1-13.232a1.49,1.49,0,0,1,.5-1.191,1.806,1.806,0,0,1,1.265-.479,1.864,1.864,0,0,1,1.255.43,1.464,1.464,0,0,1,.522,1.123,1.493,1.493,0,0,1-.5,1.2,1.811,1.811,0,0,1-1.27.474,1.887,1.887,0,0,1-1.245-.425A1.447,1.447,0,0,1,80.488-13.232Zm9.17.039L89.2-10.566h1.689l-.4,2.285H88.8l-.82,4.854a1.294,1.294,0,0,0,.063.752q.132.254.659.273a7.637,7.637,0,0,0,.84-.049L89.307-.068a5.192,5.192,0,0,1-1.729.244A2.847,2.847,0,0,1,85.342-.7a3,3,0,0,1-.605-2.334L85.6-8.281H84.287l.391-2.285h1.309l.459-2.627ZM96.348,0a2.865,2.865,0,0,1-.137-.957A3.259,3.259,0,0,1,93.623.2a3.184,3.184,0,0,1-2.285-.918,2.759,2.759,0,0,1-.85-2.178,3.1,3.1,0,0,1,1.436-2.642,6.768,6.768,0,0,1,3.789-.923l1.074.02.117-.6.039-.518a.839.839,0,0,0-.889-.918,1.235,1.235,0,0,0-1.3,1.162l-3.223.01a3.061,3.061,0,0,1,.693-1.851,4.109,4.109,0,0,1,1.753-1.211,6.125,6.125,0,0,1,2.358-.4,4.723,4.723,0,0,1,2.1.5A3.133,3.133,0,0,1,99.795-8.94a3.368,3.368,0,0,1,.342,1.948l-.791,4.971-.049.605a2.669,2.669,0,0,0,.186,1.23L99.473,0ZM94.512-2.129A2.072,2.072,0,0,0,96.24-3l.322-1.7-.83-.01a2.188,2.188,0,0,0-1.328.454,1.722,1.722,0,0,0-.654,1.187.865.865,0,0,0,.151.659A.773.773,0,0,0,94.512-2.129Zm13.9-5.459a9.192,9.192,0,0,0-1-.1,2.481,2.481,0,0,0-2.207,1L104.014,0H100.8l1.836-10.566,3-.01-.244,1.387a2.933,2.933,0,0,1,2.441-1.6,4.6,4.6,0,0,1,1,.137ZM111.621,0H108.4l1.836-10.566h3.223Zm-1.1-13.232a1.49,1.49,0,0,1,.5-1.191,1.806,1.806,0,0,1,1.265-.479,1.864,1.864,0,0,1,1.255.43,1.464,1.464,0,0,1,.522,1.123,1.493,1.493,0,0,1-.5,1.2,1.811,1.811,0,0,1-1.27.474,1.887,1.887,0,0,1-1.245-.425A1.447,1.447,0,0,1,110.518-13.232Zm9.307,2.471a4.438,4.438,0,0,1,2.451.708,3.989,3.989,0,0,1,1.519,1.919,5.922,5.922,0,0,1,.347,2.734l-.02.215a6.262,6.262,0,0,1-1.807,3.926A5.083,5.083,0,0,1,118.525.2a4.419,4.419,0,0,1-2.432-.7,4.014,4.014,0,0,1-1.519-1.9,5.755,5.755,0,0,1-.356-2.715A6.514,6.514,0,0,1,116-9.258,5.052,5.052,0,0,1,119.824-10.762Zm-2.393,5.649-.029.575q-.137,2.174,1.328,2.213,1.895.059,2.2-3.071l.039-.887a2.394,2.394,0,0,0-.327-1.4,1.192,1.192,0,0,0-1.021-.541,1.68,1.68,0,0,0-1.46.726A4.753,4.753,0,0,0,117.432-5.113Z" transform="translate(546.875 6871.902)" fill="#12263f"/>
  </g>
</svg>
