<svg id="hamburguesa" xmlns="http://www.w3.org/2000/svg" width="190" height="190" viewBox="0 0 190 190">
  <g id="Grupo_81997" data-name="Grupo 81997" transform="translate(9.509 3.167)">
    <path id="Trazado_139929" data-name="Trazado 139929" d="M216.833,75.8l-15.3,139.333H140.3L125,75.8Z" transform="translate(-87.009 -50.467)" fill="#1566c0"/>
    <path id="Trazado_139930" data-name="Trazado 139930" d="M207.333,75.8,192.038,215.133H140.3L125,75.8Z" transform="translate(-87.009 -50.467)" fill="#2a94ee"/>
    <path id="Trazado_139931" data-name="Trazado 139931" d="M152.375,365.933v28.5H137.84a3.2,3.2,0,0,0-2.217.918l-14.915,14.915-14.915-14.915a3.2,3.2,0,0,0-2.217-.918H51.042v-28.5Z" transform="translate(-40.497 -232.933)" fill="#2e7d32"/>
    <path id="Trazado_139932" data-name="Trazado 139932" d="M142.875,365.933v28.5H128.34a3.2,3.2,0,0,0-2.217.918l-14.915,14.915L96.294,395.351a3.2,3.2,0,0,0-2.217-.918H51.042v-28.5Z" transform="translate(-40.497 -232.933)" fill="#4caf50"/>
    <path id="Trazado_139933" data-name="Trazado 139933" d="M145.738,340.6a9.5,9.5,0,0,1-9.468,10.2H35.465a9.851,9.851,0,0,1-10.007-8.8,9.5,9.5,0,0,1,9.478-10.2H135.731a3.077,3.077,0,0,1,.538.032A9.8,9.8,0,0,1,145.738,340.6Z" transform="translate(-24.391 -211.464)" fill="#4e342e"/>
    <path id="Trazado_139934" data-name="Trazado 139934" d="M133.421,332.067a9.5,9.5,0,0,1-9.471,10.2H32.657a9.851,9.851,0,0,1-10.007-8.8,9.5,9.5,0,0,1,9.465-10.2h91.3a3.077,3.077,0,0,1,.538.032A9.8,9.8,0,0,1,133.421,332.067Z" transform="translate(-22.625 -206.097)" fill="#795548"/>
    <path id="Trazado_139935" data-name="Trazado 139935" d="M149.533,263.533v22.2A3.071,3.071,0,0,0,149,285.7H103.332a3.2,3.2,0,0,0-2.217.918L83.033,304.7,64.952,286.618a3.2,3.2,0,0,0-2.217-.918H48.2V263.533H149.533Z" transform="translate(-38.709 -168.533)" fill="#fdd834"/>
    <path id="Trazado_139936" data-name="Trazado 139936" d="M140.033,267.8V290a3.077,3.077,0,0,0-.538-.032H93.832a3.2,3.2,0,0,0-2.217.918L78.283,304.217,64.952,290.885a3.2,3.2,0,0,0-2.217-.918H48.2V267.8Z" transform="translate(-38.709 -171.217)" fill="#fed947"/>
    <path id="Trazado_139937" data-name="Trazado 139937" d="M145.775,218.4v3.167a3.166,3.166,0,0,1-3.167,3.167h-114a3.167,3.167,0,0,1-3.167-3.167V218.4a31.667,31.667,0,0,1,31.667-31.667h57A31.666,31.666,0,0,1,145.775,218.4Z" transform="translate(-24.397 -120.234)" fill="#f57c00"/>
    <g id="Grupo_81992" data-name="Grupo 81992" transform="translate(1.045 66.5)">
      <path id="Trazado_139938" data-name="Trazado 139938" d="M133.109,218.4v3.167a3.166,3.166,0,0,1-3.167,3.167H28.609a3.167,3.167,0,0,1-3.167-3.167V218.4a31.667,31.667,0,0,1,31.667-31.667h44.333A31.666,31.666,0,0,1,133.109,218.4Z" transform="translate(-25.442 -186.734)" fill="#ff9801"/>
      <path id="Trazado_139939" data-name="Trazado 139939" d="M133.109,428.834v9.5a19,19,0,0,1-19,19H44.442a19,19,0,0,1-19-19v-9.5a3.167,3.167,0,0,1,3.167-3.167H87.477a3.2,3.2,0,0,1,2.217.918L104.609,441.5l14.915-14.915a3.2,3.2,0,0,1,2.217-.918h8.2A3.167,3.167,0,0,1,133.109,428.834Z" transform="translate(-25.442 -337)" fill="#ff9801"/>
    </g>
    <g id="Grupo_81993" data-name="Grupo 81993" transform="translate(31.658)">
      <path id="Trazado_139940" data-name="Trazado 139940" d="M219.033,13.866V26.533h-85.5V13.866a6.352,6.352,0,0,1,6.333-6.333H212.7A6.352,6.352,0,0,1,219.033,13.866Z" transform="translate(-124.033 -7.533)" fill="#cfd8dc"/>
      <path id="Trazado_139941" data-name="Trazado 139941" d="M212.434,48v6.333a3.166,3.166,0,0,1-3.167,3.167H111.1a3.166,3.166,0,0,1-3.167-3.167V48a6.352,6.352,0,0,1,6.333-6.333H206.1A6.352,6.352,0,0,1,212.434,48Z" transform="translate(-107.934 -28.999)" fill="#cfd8dc"/>
    </g>
    <g id="Grupo_81994" data-name="Grupo 81994" transform="translate(31.657)">
      <path id="Trazado_139942" data-name="Trazado 139942" d="M193.433,13.866V26.533h-85.5a6.352,6.352,0,0,1,6.333-6.333h3.167V13.866a6.352,6.352,0,0,1,6.333-6.333H187.1A6.352,6.352,0,0,1,193.433,13.866Z" transform="translate(-107.933 -7.533)" fill="#f4f4f4"/>
      <path id="Trazado_139943" data-name="Trazado 139943" d="M202.934,48v6.333a3.166,3.166,0,0,1-3.167,3.167H111.1a3.166,3.166,0,0,1-3.167-3.167V48a6.352,6.352,0,0,1,6.333-6.333H196.6A6.352,6.352,0,0,1,202.934,48Z" transform="translate(-107.934 -28.999)" fill="#f4f4f4"/>
    </g>
    <path id="Trazado_139944" data-name="Trazado 139944" d="M322.368,283.45l-12.192,79.483H239.591l-12.16-79.452a2.476,2.476,0,0,1,1.8-2.787,2.255,2.255,0,0,1,.665-.095h2.723c.38,0,.728.032,1.108.063l69.92.6,8.518.063h.728a12.9,12.9,0,0,1,4.275-.728h2.691a2.489,2.489,0,0,1,2.5,2.85Z" transform="translate(-151.409 -179.267)" fill="#97181a" style="mix-blend-mode: multiply;isolation: isolate"/>
    <path id="Trazado_139945" data-name="Trazado 139945" d="M312.868,283.45l-12.192,79.483H239.591l-12.16-79.452a2.476,2.476,0,0,1,1.8-2.787l74.163.633a.749.749,0,0,1,.253-.063,12.176,12.176,0,0,1,4.022-.665h2.692a2.648,2.648,0,0,1,1.8.728A2.441,2.441,0,0,1,312.868,283.45Z" transform="translate(-151.409 -179.267)" fill="#b52426" opacity="0.999"/>
    <g id="Grupo_81995" data-name="Grupo 81995" transform="translate(82.324 69.667)">
      <path id="Trazado_139946" data-name="Trazado 139946" d="M345.334,253.882a39.863,39.863,0,0,1-16.055-.7l.193-.918v-54.53a2.473,2.473,0,0,1,2.47-2.47h10.893a2.473,2.473,0,0,1,2.47,2.47V253.66Z" transform="translate(-297.805 -195.267)" fill="#ffb301"/>
      <path id="Trazado_139947" data-name="Trazado 139947" d="M260.3,246.467v29.292a31.819,31.819,0,0,1-5.288-8.867,12.448,12.448,0,0,0-10.545-7.7v-10.26a2.473,2.473,0,0,1,2.47-2.47Z" transform="translate(-244.466 -227.467)" fill="#ffb301"/>
    </g>
    <g id="Grupo_81996" data-name="Grupo 81996" transform="translate(98.158 75.082)">
      <path id="Trazado_139948" data-name="Trazado 139948" d="M302.967,209.859v50.667l-.19.918h-.032a29.219,29.219,0,0,1-15.612-9.627V212.329a2.473,2.473,0,0,1,2.47-2.47Z" transform="translate(-287.134 -209.859)" fill="#fdd834"/>
      <path id="Trazado_139949" data-name="Trazado 139949" d="M388.617,257.173a30.534,30.534,0,0,1-16.118,7.442l-.032-.222v-52.06h12.667A3.167,3.167,0,0,1,388.3,215.5v41.293Z" transform="translate(-340.801 -211.415)" fill="#fdd834"/>
    </g>
    <path id="Trazado_139950" data-name="Trazado 139950" d="M430.967,240.4v14.092a12.351,12.351,0,0,0-7.378,7.03,30.971,30.971,0,0,1-8.107,11.748h-.032l-.317-.38v-34.96H428.5A2.473,2.473,0,0,1,430.967,240.4Z" transform="translate(-269.476 -152.433)" fill="#ffb301"/>
    <path id="Trazado_139951" data-name="Trazado 139951" d="M341.273,405.783a14.25,14.25,0,0,1-14.25,14.25,13.866,13.866,0,0,1-4.75-.823,14.25,14.25,0,0,1,0-26.853,13.872,13.872,0,0,1,4.75-.823A14.25,14.25,0,0,1,341.273,405.783Z" transform="translate(-205.116 -249.033)" fill="#fed947"/>
    <path id="Trazado_139957" data-name="Trazado 139957" d="M9.5,0C14.747,0,19,6.011,19,13.427S14.747,26.853,9.5,26.853,0,20.842,0,13.427,4.253,0,9.5,0Z" transform="translate(107.657 143.323)" fill="#fff5a2"/>
  </g>
  <g id="Grupo_81998" data-name="Grupo 81998">
    <path id="Trazado_139952" data-name="Trazado 139952" d="M105.567,219.667h3.167a3.167,3.167,0,1,0,0-6.333h-3.167a3.167,3.167,0,0,0,0,6.333Z" transform="translate(-64.4 -134.167)"/>
    <path id="Trazado_139953" data-name="Trazado 139953" d="M156.767,236.734h3.167a3.167,3.167,0,1,0,0-6.333h-3.167a3.167,3.167,0,1,0,0,6.333Z" transform="translate(-96.6 -144.901)"/>
    <path id="Trazado_139954" data-name="Trazado 139954" d="M207.967,219.667h3.167a3.167,3.167,0,0,0,0-6.333h-3.167a3.167,3.167,0,1,0,0,6.333Z" transform="translate(-128.8 -134.167)"/>
    <path id="Trazado_139955" data-name="Trazado 139955" d="M186.833,183.667H171.969L183.607,107.8a5.621,5.621,0,0,0-1.32-4.5,5.7,5.7,0,0,0-4.319-1.966h-2.714c-.374,0-.731.057-1.1.079V91.137a5.64,5.64,0,0,0-5.624-5.637h-10.2V79.167A3.166,3.166,0,0,0,155.168,76H142.5v-.7a5.643,5.643,0,0,0-4.408-5.494l4.06-34.976h3.515a3.167,3.167,0,0,0,3.167-3.167v-9.5a9.5,9.5,0,0,0-9.5-9.5V9.5a9.5,9.5,0,0,0-9.5-9.5H57a9.5,9.5,0,0,0-9.5,9.5v3.167a9.5,9.5,0,0,0-9.5,9.5v9.5a3.167,3.167,0,0,0,3.167,3.167h3.515L48,63.333h-6.83A34.875,34.875,0,0,0,6.333,98.167v3.167a6.333,6.333,0,0,0,6.333,6.333h3.167v9.95a12.55,12.55,0,0,0-9.462,13.132,12.727,12.727,0,0,0,9.462,11.185V152H12.667a6.333,6.333,0,0,0-6.333,6.333v9.5a22.1,22.1,0,0,0,6.682,15.833H3.167a3.167,3.167,0,1,0,0,6.333H186.833a3.167,3.167,0,0,0,0-6.333Zm-9.614-76-11.656,76H100.412l-11.634-76h1.935a9.387,9.387,0,0,1,8.721,5.76,35.171,35.171,0,0,0,5.782,9.706,2.915,2.915,0,0,0,.38.434A35.268,35.268,0,0,0,133,135.113c15.833,0,28.057-7.917,33.567-21.689a9.386,9.386,0,0,1,8.7-5.757ZM136.167,76v52.586c-1.048.082-2.084.193-3.167.193a37.106,37.106,0,0,1-6.333-.586V76Zm-15.833,6.333v44.112a25.9,25.9,0,0,1-9.5-6.577V82.333ZM104.5,109.43a15.429,15.429,0,0,0-9.5-7.5V95h9.5ZM86.735,136.167H61.475L74.141,123.5H84.806Zm81.1-44.333v11.349a15.32,15.32,0,0,0-7.166,7.891,30.644,30.644,0,0,1-2.334,4.595V91.833h9.5ZM152,82.333v40.432a27.148,27.148,0,0,1-9.5,4.775V82.333ZM53.833,9.5A3.166,3.166,0,0,1,57,6.333h72.833A3.167,3.167,0,0,1,133,9.5v3.167H53.833Zm-9.5,12.667A3.167,3.167,0,0,1,47.5,19h91.833a3.167,3.167,0,0,1,3.167,3.167V28.5H44.333Zm6.723,12.667h84.721l-4.044,34.833H125.97a5.641,5.641,0,0,0-4.69,2.514,34.414,34.414,0,0,0-21.641-8.806c-.491-.041-.982-.041-1.472-.041H54.372ZM12.667,98.167a28.535,28.535,0,0,1,28.5-28.5h57c.332,0,.662,0,1.115.029A28.288,28.288,0,0,1,116.017,76h-5.88a5.639,5.639,0,0,0-5.637,5.637v7.03H94.3A5.639,5.639,0,0,0,88.667,94.3v7.03h-76V98.167Zm69.724,9.5v.18l1.438,9.32h-9.7a6.334,6.334,0,0,0-4.465,1.846L53.833,134.846,38,119.013a6.334,6.334,0,0,0-4.465-1.846H22.167v-9.5Zm-69.7,22.626a6.211,6.211,0,0,1,1.837-4.934A6.278,6.278,0,0,1,19,123.5H33.513l12.667,12.667H19.538A6.723,6.723,0,0,1,12.689,130.293ZM22.167,142.5h65.55l3.319,21.666-2.369,2.356L76,153.856A6.333,6.333,0,0,0,71.535,152H22.167Zm-9.5,25.333v-9.5h58.84l14.915,14.915a3.167,3.167,0,0,0,4.478,0l1.3-1.3L94,183.66H28.5A15.852,15.852,0,0,1,12.667,167.833Z"/>
    <path id="Trazado_139956" data-name="Trazado 139956" d="M324.615,384a17.417,17.417,0,1,0,17.417,17.417A17.417,17.417,0,0,0,324.615,384Zm0,28.5A11.083,11.083,0,1,1,335.7,401.417,11.084,11.084,0,0,1,324.615,412.5Z" transform="translate(-193.199 -241.5)"/>
  </g>
</svg>
