<svg xmlns="http://www.w3.org/2000/svg" width="96.952" height="96.952" viewBox="0 0 96.952 96.952">
  <g id="Grupo_82150" data-name="Grupo 82150" transform="translate(-328 -1170.07)">
    <rect id="Rectángulo_31266" data-name="Rectángulo 31266" width="71.902" height="95.348" rx="2" transform="translate(328.782 1170.852)" fill="#f6f6f6"/>
    <path id="Trazado_140557" data-name="Trazado 140557" d="M78.235,33.622a23.792,23.792,0,0,1-9.307,18.809,9.417,9.417,0,0,0-3.62,7.546v2.731H45.918V59.977A9.514,9.514,0,0,0,42.2,52.366a23.621,23.621,0,0,1-7.481-27.5A22.477,22.477,0,0,1,51.945,11.291,23.851,23.851,0,0,1,55.613,11,22.622,22.622,0,0,1,78.235,33.622Z" transform="translate(345.101 1173.613)" fill="#fed947"/>
    <path id="Trazado_140558" data-name="Trazado 140558" d="M61.622,43a3.232,3.232,0,0,1,0,6.463H42.232a3.232,3.232,0,0,1,0-6.463Z" transform="translate(348.787 1193.321)" fill="#a78966"/>
    <path id="Trazado_140559" data-name="Trazado 140559" d="M41,47H60.39A9.7,9.7,0,1,1,41,47Z" transform="translate(350.019 1195.784)" fill="#898890"/>
    <path id="Trazado_140560" data-name="Trazado 140560" d="M32.7,35l9.7,12.927H37.543v19.39h-9.7V47.927H23Z" transform="translate(338.933 1188.394)" fill="#2a94ee"/>
    <circle id="Elipse_4664" data-name="Elipse 4664" cx="16.022" cy="16.022" r="16.022" transform="translate(335.815 1177.886)" fill="#fed947"/>
    <path id="Trazado_140562" data-name="Trazado 140562" d="M17,47h6.463V59.927H17Z" transform="translate(335.238 1195.784)" fill="#d64626"/>
    <path id="Trazado_140563" data-name="Trazado 140563" d="M9,47h6.463V59.927H9Z" transform="translate(330.311 1195.784)" fill="#fed947"/>
    <path id="Trazado_140565" data-name="Trazado 140565" d="M58.7,46.232a3.256,3.256,0,0,1-3.232,3.232H49A3.232,3.232,0,1,0,49,43h6.463A3.241,3.241,0,0,1,58.7,46.232Z" transform="translate(354.946 1193.321)" fill="#806749"/>
    <path id="Trazado_140566" data-name="Trazado 140566" d="M57.921,47a9.7,9.7,0,0,1-9.7,9.7,8.769,8.769,0,0,1-2.181-.259,7.6,7.6,0,0,1-1.034-.307A9.7,9.7,0,0,0,51.457,47Z" transform="translate(352.488 1195.784)" fill="#57565c"/>
    <path id="Trazado_140570" data-name="Trazado 140570" d="M89,59.266a25.264,25.264,0,0,0,9.954-20.1A24.208,24.208,0,0,0,76.328,15.008l0-8.16A4.862,4.862,0,0,0,71.482,2H6.848A4.862,4.862,0,0,0,2,6.848V94.1a4.862,4.862,0,0,0,4.848,4.848H71.482A4.862,4.862,0,0,0,76.33,94.1V85.9a11.332,11.332,0,0,0,9.614-9.841,4.82,4.82,0,0,0,.081-9.13V65.52A7.834,7.834,0,0,1,89,59.266ZM73.1,94.1a1.616,1.616,0,0,1-1.616,1.616H6.848A1.616,1.616,0,0,1,5.232,94.1V6.848A1.616,1.616,0,0,1,6.848,5.232H71.482A1.616,1.616,0,0,1,73.1,6.848v8.144c-.759.048-1.535.129-2.295.242A24.114,24.114,0,0,0,52.334,29.793a25.046,25.046,0,0,0,8,29.393A7.979,7.979,0,0,1,63.4,65.52v1.406a4.82,4.82,0,0,0,.081,9.13A11.332,11.332,0,0,0,73.1,85.9Zm1.616-11.311A8.094,8.094,0,0,1,66.8,76.33H82.632A8.094,8.094,0,0,1,74.714,82.793Zm9.7-9.7H65.019a1.616,1.616,0,1,1,0-3.232h19.39a1.616,1.616,0,1,1,0,3.232ZM82.793,65.52v1.115H66.635V65.52a11.232,11.232,0,0,0-4.347-8.9,22.108,22.108,0,0,1-6.964-25.6A20.809,20.809,0,0,1,71.3,18.433,21.029,21.029,0,0,1,95.72,39.165a22.3,22.3,0,0,1-8.661,17.516A11.059,11.059,0,0,0,82.793,65.52Z" transform="translate(326 1168.07)"/>
    <path id="Trazado_140571" data-name="Trazado 140571" d="M50.083,22.463a4.848,4.848,0,0,1,4.848,4.848,1.616,1.616,0,0,0,3.232,0A8.094,8.094,0,0,0,51.7,19.393V17.616a1.616,1.616,0,0,0-3.232,0v1.777a8.079,8.079,0,0,0,1.616,16,4.848,4.848,0,1,1-4.848,4.848,1.616,1.616,0,1,0-3.232,0,8.094,8.094,0,0,0,6.463,7.918v1.777a1.616,1.616,0,1,0,3.232,0V48.156a8.079,8.079,0,0,0-1.616-16,4.848,4.848,0,1,1,0-9.7Z" transform="translate(350.631 1176.692)"/>
    <path id="Trazado_140572" data-name="Trazado 140572" d="M44.3,47.558,34.6,34.631a1.682,1.682,0,0,0-2.585,0l-9.7,12.927a1.616,1.616,0,0,0-.145,1.7,1.579,1.579,0,0,0,1.438.889h3.232V67.918a1.616,1.616,0,0,0,1.616,1.616h9.7a1.616,1.616,0,0,0,1.616-1.616V50.143h3.232a1.579,1.579,0,0,0,1.438-.889A1.616,1.616,0,0,0,44.3,47.558Zm-6.14-.646a1.616,1.616,0,0,0-1.616,1.616V66.3H30.078V48.527a1.616,1.616,0,0,0-1.616-1.616H26.846L33.31,38.3l6.463,8.613Z" transform="translate(338.318 1187.793)"/>
    <path id="Trazado_140573" data-name="Trazado 140573" d="M16.079,46H9.616A1.616,1.616,0,0,0,8,47.616V60.543a1.616,1.616,0,0,0,1.616,1.616h6.463A1.616,1.616,0,0,0,17.7,60.543V47.616A1.616,1.616,0,0,0,16.079,46ZM14.463,58.927H11.232v-9.7h3.232Z" transform="translate(329.695 1195.169)"/>
    <path id="Trazado_140574" data-name="Trazado 140574" d="M24.079,46H17.616A1.616,1.616,0,0,0,16,47.616V60.543a1.616,1.616,0,0,0,1.616,1.616h6.463A1.616,1.616,0,0,0,25.7,60.543V47.616A1.616,1.616,0,0,0,24.079,46ZM22.463,58.927H19.232v-9.7h3.232Z" transform="translate(334.622 1195.169)"/>
    <path id="Trazado_140575" data-name="Trazado 140575" d="M18.848,26.159a1.616,1.616,0,0,1-1.616-1.616,1.616,1.616,0,0,0-3.232,0,4.848,4.848,0,0,0,3.232,4.55v1.913a1.616,1.616,0,1,0,3.232,0V29.093a4.836,4.836,0,0,0-1.616-9.4,1.616,1.616,0,1,1,1.616-1.616,1.616,1.616,0,1,0,3.232,0,4.848,4.848,0,0,0-3.232-4.55V11.616a1.616,1.616,0,0,0-3.232,0v1.913a4.836,4.836,0,0,0,1.616,9.4,1.616,1.616,0,1,1,0,3.232Z" transform="translate(333.39 1172.998)"/>
    <path id="Trazado_140576" data-name="Trazado 140576" d="M23.775,6A17.775,17.775,0,1,0,41.549,23.775,17.775,17.775,0,0,0,23.775,6Zm0,32.317A14.543,14.543,0,1,1,38.317,23.775,14.543,14.543,0,0,1,23.775,38.317Z" transform="translate(328.463 1170.533)"/>
    <path id="Trazado_140577" data-name="Trazado 140577" d="M37.7,33.232A1.616,1.616,0,1,0,37.7,30H8.616a1.616,1.616,0,1,0,0,3.232Z" transform="translate(329.079 1185.314)"/>
    <path id="Trazado_140578" data-name="Trazado 140578" d="M62.463,5.232V2H59.232V5.232H56V8.463h3.232V11.7h3.232V8.463H65.7V5.232Z" transform="translate(359.257 1168.07)"/>
    <path id="Trazado_140579" data-name="Trazado 140579" d="M62.463,56H59.232v3.232H56v3.232h3.232V65.7h3.232V62.463H65.7V59.232H62.463Z" transform="translate(359.257 1201.327)"/>
  </g>
</svg>
