<svg xmlns="http://www.w3.org/2000/svg" width="161.389" height="161.389" viewBox="0 0 161.389 161.389">
  <g id="impresion-3d" transform="translate(-8 -8)">
    <g id="Grupo_82057" data-name="Grupo 82057" transform="translate(10.603 10.603)">
      <path id="Trazado_140086" data-name="Trazado 140086" d="M128,16h26.03V55.046H128Z" transform="translate(-91.557 -16)" fill="#57565c"/>
      <path id="Trazado_140087" data-name="Trazado 140087" d="M148.824,151.618H133.206L128,136h26.03Z" transform="translate(-91.557 -96.954)" fill="#898890"/>
      <path id="Trazado_140088" data-name="Trazado 140088" d="M162.412,194.412l-5.206,5.206L152,194.412V184h10.412Z" transform="translate(-107.748 -129.336)" fill="#e0e0e2"/>
      <path id="Trazado_140089" data-name="Trazado 140089" d="M16,48H44.633v7.809H16Z" transform="translate(-16 -37.588)" fill="#e0e0e2"/>
      <path id="Trazado_140090" data-name="Trazado 140090" d="M104,32h7.809V50.221H104Z" transform="translate(-75.367 -26.794)" fill="#2a94ee"/>
      <path id="Trazado_140091" data-name="Trazado 140091" d="M232,48h85.9v7.809H232Z" transform="translate(-161.718 -37.588)" fill="#e0e0e2"/>
      <g id="Grupo_82056" data-name="Grupo 82056" transform="translate(44.252 5.206)">
        <path id="Trazado_140092" data-name="Trazado 140092" d="M208,32h7.809V50.221H208Z" transform="translate(-189.779 -32)" fill="#2a94ee"/>
        <path id="Trazado_140093" data-name="Trazado 140093" d="M152,48h10.412V66.221H152Z" transform="translate(-152 -42.794)" fill="#2a94ee"/>
        <path id="Trazado_140094" data-name="Trazado 140094" d="M207.427,381.015v28.633L184,396.633V368Z" transform="translate(-173.588 -258.672)" fill="#d64626"/>
      </g>
      <path id="Trazado_140095" data-name="Trazado 140095" d="M230.855,341.015,207.427,354.03,184,341.015,207.427,328Z" transform="translate(-129.336 -226.481)" fill="#d64626"/>
      <path id="Trazado_140096" data-name="Trazado 140096" d="M279.427,368v28.633L256,409.649V381.015Z" transform="translate(-177.909 -253.466)" fill="#d64626"/>
      <path id="Trazado_140097" data-name="Trazado 140097" d="M39.427,381.015v28.633L16,396.633V368Z" transform="translate(-16 -253.466)" fill="#dff7f9"/>
      <path id="Trazado_140098" data-name="Trazado 140098" d="M62.855,341.015,39.427,354.03,16,341.015,39.427,328Z" transform="translate(-16 -226.481)" fill="#dff7f9"/>
      <path id="Trazado_140099" data-name="Trazado 140099" d="M111.427,368v28.633L88,409.649V381.015Z" transform="translate(-64.573 -253.466)" fill="#dff7f9"/>
      <path id="Trazado_140100" data-name="Trazado 140100" d="M375.427,381.015v28.633L352,396.633V368Z" transform="translate(-242.672 -253.466)" fill="#ffda44"/>
      <path id="Trazado_140101" data-name="Trazado 140101" d="M398.855,341.015,375.427,354.03,352,341.015,375.427,328Z" transform="translate(-242.672 -226.481)" fill="#ffeb99"/>
      <path id="Trazado_140102" data-name="Trazado 140102" d="M447.427,368v28.633L424,409.649V381.015Z" transform="translate(-291.245 -253.466)" fill="#cca400"/>
    </g>
    <g id="Grupo_82058" data-name="Grupo 82058" transform="translate(8 8)">
      <path id="Trazado_140103" data-name="Trazado 140103" d="M166.786,18.412h-83.3v-2.6a2.6,2.6,0,0,0-2.6-2.6H75.679V10.6a2.6,2.6,0,0,0-2.6-2.6H47.046a2.6,2.6,0,0,0-2.6,2.6v2.6H39.237a2.6,2.6,0,0,0-2.6,2.6v2.6H10.6a2.6,2.6,0,0,0-2.6,2.6v7.809a2.6,2.6,0,0,0,2.6,2.6h26.03v2.6a2.6,2.6,0,0,0,2.6,2.6h5.206V49.649a3,3,0,0,0,.13.81s0,.01,0,.013L49.782,66.09a2.6,2.6,0,0,0,2.47,1.78v7.809a2.606,2.606,0,0,0,.761,1.842l5.206,5.206a2.608,2.608,0,0,0,3.683,0l5.206-5.206a2.606,2.606,0,0,0,.761-1.842V67.87a2.6,2.6,0,0,0,2.47-1.78l5.206-15.618s0-.01,0-.013a3.06,3.06,0,0,0,.13-.81V36.633h5.206a2.6,2.6,0,0,0,2.6-2.6v-2.6h83.3a2.6,2.6,0,0,0,2.6-2.6V21.015A2.6,2.6,0,0,0,166.786,18.412ZM36.633,26.221H13.206v-2.6H36.633Zm7.809,5.206h-2.6V18.412h2.6ZM62.664,74.6l-2.6,2.6-2.6-2.6V67.87h5.206Zm3.329-11.938H54.129L50.657,52.252H69.464Zm4.48-15.618H49.649V13.206H70.473Zm7.809-15.618h-2.6V18.412h2.6Zm85.9-5.206H83.488v-2.6h80.694Z" transform="translate(-8 -8)"/>
      <path id="Trazado_140104" data-name="Trazado 140104" d="M146.6,63.427h10.412a2.6,2.6,0,0,0,2.6-2.6V42.6a2.6,2.6,0,0,0-2.6-2.6H146.6a2.6,2.6,0,0,0-2.6,2.6V60.824A2.6,2.6,0,0,0,146.6,63.427Zm2.6-18.221h5.206V58.221h-5.206Z" transform="translate(-99.748 -29.588)"/>
      <path id="Trazado_140105" data-name="Trazado 140105" d="M165.206,250.6a2.6,2.6,0,0,0-5.206,0v13.015a2.6,2.6,0,1,0,5.206,0Z" transform="translate(-110.542 -169.909)"/>
      <path id="Trazado_140106" data-name="Trazado 140106" d="M394.72,333.345,371.3,320.327a2.6,2.6,0,0,0-2.531,0l-23.424,13.018A2.62,2.62,0,0,0,344,335.617V364.25a2.6,2.6,0,0,0,1.337,2.274l23.427,13.015a2.588,2.588,0,0,0,2.518,0s.007,0,.013,0l23.427-13.015a2.6,2.6,0,0,0,1.337-2.274V335.617A2.557,2.557,0,0,0,394.72,333.345ZM367.427,372.84l-18.221-10.123V340.042l18.221,10.123Zm2.6-27.186-18.068-10.038,18.068-10.038L388.1,335.617Zm20.824,17.063L372.633,372.84V350.164l18.221-10.123Z" transform="translate(-234.672 -218.48)"/>
      <path id="Trazado_140107" data-name="Trazado 140107" d="M226.72,333.345,203.3,320.327a2.6,2.6,0,0,0-2.531,0l-23.424,13.018A2.62,2.62,0,0,0,176,335.617V364.25a2.6,2.6,0,0,0,1.337,2.274l23.427,13.015a2.588,2.588,0,0,0,2.518,0s.007,0,.013,0l23.427-13.015a2.6,2.6,0,0,0,1.337-2.274V335.617a2.557,2.557,0,0,0-1.341-2.271ZM199.427,372.84l-18.221-10.123V340.042l18.221,10.123Zm2.6-27.186-18.068-10.038,18.068-10.038L220.1,335.617Zm20.824,17.063L204.633,372.84V350.164l18.221-10.123Z" transform="translate(-121.336 -218.48)"/>
      <path id="Trazado_140108" data-name="Trazado 140108" d="M58.72,333.345,35.3,320.327a2.6,2.6,0,0,0-2.531,0L9.341,333.345A2.62,2.62,0,0,0,8,335.617V364.25a2.6,2.6,0,0,0,1.337,2.274L32.765,379.54a2.588,2.588,0,0,0,2.518,0s.007,0,.013,0l23.427-13.015a2.6,2.6,0,0,0,1.337-2.274V335.617a2.557,2.557,0,0,0-1.341-2.271ZM31.427,372.84,13.206,362.717V340.042l18.221,10.123Zm2.6-27.186L15.962,335.617,34.03,325.579,52.1,335.617Zm20.824,17.063L36.633,372.84V350.164l18.221-10.123Z" transform="translate(-8 -218.48)"/>
    </g>
  </g>
</svg>
