<svg xmlns="http://www.w3.org/2000/svg" width="72.813" height="90" viewBox="0 0 72.813 90">
  <g id="informe" transform="translate(-48.888)">
    <g id="Grupo_82424" data-name="Grupo 82424" transform="translate(50.646 1.758)">
      <path id="Trazado_140969" data-name="Trazado 140969" d="M58.888,10H118.16V87.171H58.888Z" transform="translate(-58.888 -10)" fill="#fff"/>
    </g>
    <g id="Grupo_82425" data-name="Grupo 82425" transform="translate(65.989 17.101)">
      <path id="Trazado_140970" data-name="Trazado 140970" d="M200.127,97.286H190.1v61.828H146.173v9.313h53.954Z" transform="translate(-146.173 -97.286)" fill="#ced3dd"/>
    </g>
    <g id="Grupo_82426" data-name="Grupo 82426" transform="translate(62.345 11.449)">
      <path id="Trazado_140971" data-name="Trazado 140971" d="M160.419,87.27l-1.593-.919a2.816,2.816,0,0,1,0-4.79l1.593-.919a2.581,2.581,0,0,0,.944-3.526l-2.969-5.145a2.583,2.583,0,0,0-3.526-.944l-1.594.921a2.812,2.812,0,0,1-4.147-2.394V67.71a2.581,2.581,0,0,0-2.58-2.58h-5.94a2.583,2.583,0,0,0-2.582,2.58v1.842a2.812,2.812,0,0,1-4.147,2.394l-1.594-.921a2.579,2.579,0,0,0-3.524.946l-2.971,5.143a2.583,2.583,0,0,0,.944,3.526l1.594.919a2.818,2.818,0,0,1,0,4.79l-1.594.919a2.582,2.582,0,0,0-.944,3.526l2.971,5.143a2.581,2.581,0,0,0,3.524.946l1.594-.921a2.811,2.811,0,0,1,4.147,2.394v1.84a2.581,2.581,0,0,0,2.582,2.58h5.94a2.58,2.58,0,0,0,2.58-2.58v-1.84a2.811,2.811,0,0,1,4.147-2.394l1.594.921a2.583,2.583,0,0,0,3.526-.946l2.969-5.143a2.58,2.58,0,0,0-.944-3.526Zm-16.843,2.962a6.276,6.276,0,1,1,6.277-6.277A6.276,6.276,0,0,1,143.575,90.232Z" transform="translate(-125.442 -65.13)" fill="#ced3dd"/>
    </g>
    <g id="Grupo_82430" data-name="Grupo 82430" transform="translate(48.888)">
      <g id="Grupo_82427" data-name="Grupo 82427" transform="translate(12.244 59.502)">
        <path id="Trazado_140972" data-name="Trazado 140972" d="M152.027,348.11H123.351a4.806,4.806,0,1,1,0-9.611h28.676a4.806,4.806,0,0,1,0,9.611Z" transform="translate(-118.545 -338.499)" fill="#98eaf9"/>
      </g>
      <g id="Grupo_82428" data-name="Grupo 82428" transform="translate(12.244 59.502)">
        <path id="Trazado_140973" data-name="Trazado 140973" d="M145.772,348.11H123.351a4.806,4.806,0,1,1,0-9.611h22.421Z" transform="translate(-118.545 -338.499)" fill="#c193da"/>
      </g>
      <g id="Grupo_82429" data-name="Grupo 82429">
        <path id="Trazado_140974" data-name="Trazado 140974" d="M121.7,17.1a1.758,1.758,0,0,0-1.758-1.758h-8.268V1.758A1.758,1.758,0,0,0,109.917,0H50.646a1.758,1.758,0,0,0-1.758,1.758V78.929a1.758,1.758,0,0,0,1.758,1.758H64.231v7.555A1.758,1.758,0,0,0,65.989,90h53.954a1.758,1.758,0,0,0,1.758-1.758V62.66a1.758,1.758,0,1,0-3.516,0V86.484H67.747v-5.8h42.171a1.758,1.758,0,0,0,1.758-1.758V18.859h6.51V47.2a1.758,1.758,0,1,0,3.516,0ZM52.4,3.516H108.16V77.171H52.4V3.516Z" transform="translate(-48.888)"/>
        <path id="Trazado_140975" data-name="Trazado 140975" d="M446.438,302.522a1.784,1.784,0,0,0-2.4-.508,1.746,1.746,0,1,0,2.178,2.706A1.789,1.789,0,0,0,446.438,302.522Z" transform="translate(-373.921 -248.707)"/>
        <path id="Trazado_140976" data-name="Trazado 140976" d="M190.933,142.588a8.034,8.034,0,1,0-8.033-8.035A8.044,8.044,0,0,0,190.933,142.588Zm0-12.553a4.518,4.518,0,1,1-4.518,4.518A4.524,4.524,0,0,1,190.933,130.036Z" transform="translate(-159.343 -104.28)"/>
        <path id="Trazado_140977" data-name="Trazado 140977" d="M117.619,73.922l1.594.919a1.046,1.046,0,0,1,0,1.744l-1.595.92a4.346,4.346,0,0,0-1.588,5.928L119,88.575a4.379,4.379,0,0,0,5.926,1.589l1.594-.921a1.038,1.038,0,0,1,1.509.872v1.84a4.344,4.344,0,0,0,4.34,4.338h5.94a4.343,4.343,0,0,0,4.338-4.338v-1.84a1.039,1.039,0,0,1,1.509-.872l1.6.922a4.347,4.347,0,0,0,5.927-1.589l2.969-5.143a4.378,4.378,0,0,0-1.587-5.928l-1.592-.919a1.044,1.044,0,0,1,0-1.746l1.594-.92a4.339,4.339,0,0,0,1.586-5.926l-2.97-5.147a4.347,4.347,0,0,0-5.927-1.586l-1.593.92a1.041,1.041,0,0,1-1.51-.872V59.468a4.343,4.343,0,0,0-4.338-4.338h-5.94a4.344,4.344,0,0,0-4.34,4.338V61.31a1.039,1.039,0,0,1-1.509.872l-1.6-.922A4.378,4.378,0,0,0,119,62.85l-2.971,5.144A4.347,4.347,0,0,0,117.619,73.922Zm1.456-4.17,2.972-5.145a.829.829,0,0,1,1.122-.3l1.6.923a4.585,4.585,0,0,0,6.781-3.918V59.468a.824.824,0,0,1,.824-.823h5.94a.824.824,0,0,1,.823.823V61.31a4.585,4.585,0,0,0,6.784,3.916l1.593-.921a.826.826,0,0,1,1.125.3l2.97,5.147a.824.824,0,0,1-.3,1.124l-1.591.918a4.591,4.591,0,0,0,0,7.836l1.593.919a.827.827,0,0,1,.3,1.125l-2.968,5.142a.826.826,0,0,1-1.125.3l-1.593-.92a4.584,4.584,0,0,0-6.785,3.915v1.84a.824.824,0,0,1-.823.823h-5.94a.825.825,0,0,1-.824-.823v-1.84a4.583,4.583,0,0,0-6.784-3.916l-1.594.921a.83.83,0,0,1-1.124-.3l-2.97-5.142a.825.825,0,0,1,.3-1.126l1.6-.921a4.593,4.593,0,0,0,0-7.834l-1.592-.918A.825.825,0,0,1,119.075,69.752Z" transform="translate(-103.75 -45.439)"/>
        <path id="Trazado_140978" data-name="Trazado 140978" d="M143.785,341.626a6.564,6.564,0,1,0,0-13.127H115.109a6.564,6.564,0,0,0,0,13.127Zm3.048-6.564a3.051,3.051,0,0,1-3.048,3.048h-4.5v-6.1h4.5A3.051,3.051,0,0,1,146.833,335.063Zm-34.772,0a3.051,3.051,0,0,1,3.048-3.048h20.664v6.1H115.108a3.051,3.051,0,0,1-3.048-3.048Z" transform="translate(-98.058 -270.755)"/>
      </g>
    </g>
  </g>
</svg>
