<svg xmlns="http://www.w3.org/2000/svg" width="120" height="120" viewBox="0 0 120 120">
  <g id="investigacion-cualitativa" transform="translate(-1 -1)">
    <g id="Grupo_82753" data-name="Grupo 82753" transform="translate(2.935 10.677)">
      <path id="Trazado_141220" data-name="Trazado 141220" d="M71.1,18a7.74,7.74,0,0,1,7.742,7.742V48.968A7.74,7.74,0,0,1,71.1,56.71H67.228L55.615,64.452V56.71H39.86a27.786,27.786,0,0,0,0-7.742H67.228V47.032A17.42,17.42,0,0,0,52.15,29.768a18.786,18.786,0,0,0-2.342-.155,9.681,9.681,0,0,0,9.677-9.677A9.121,9.121,0,0,0,59.292,18Z" transform="translate(33.417 5.226)" fill="#fed947"/>
      <path id="Trazado_141221" data-name="Trazado 141221" d="M49.355,19.935a9.681,9.681,0,0,0,9.677,9.677,18.786,18.786,0,0,0-2.342.155c-4.916,1.413-5.439,1.665-5.961,1.935A17.385,17.385,0,0,0,44.594,37.3l-.1.077A27.139,27.139,0,0,0,30,26.865V25.742A7.761,7.761,0,0,1,37.742,18H49.548A9.12,9.12,0,0,0,49.355,19.935Z" transform="translate(24.194 5.226)" fill="#fed947"/>
      <path id="Trazado_141222" data-name="Trazado 141222" d="M34.9,36.968H48.452A27.018,27.018,0,0,0,29.484,44.71H9.742A7.74,7.74,0,0,1,2,36.968V13.742A7.74,7.74,0,0,1,9.742,6H21.548a9.121,9.121,0,0,0-.194,1.935,9.681,9.681,0,0,0,9.677,9.677l-2.342.155c-6.484,2.071-8.381,3.368-9.968,4.955a17.331,17.331,0,0,0-5.11,12.31v1.935H34.9Z" transform="translate(-2 -6)" fill="#ffeaa7"/>
      <path id="Trazado_141223" data-name="Trazado 141223" d="M46.032,13.742V30.271a7.7,7.7,0,0,0-3.871,6.7V38.09a26.938,26.938,0,0,0-7.742-1.123V35.032A17.42,17.42,0,0,0,19.342,17.768,18.542,18.542,0,0,0,17,17.613a9.681,9.681,0,0,0,9.677-9.677A9.121,9.121,0,0,0,26.484,6H38.29A7.74,7.74,0,0,1,46.032,13.742Z" transform="translate(12.032 -6)" fill="#fed947"/>
    </g>
    <path id="Trazado_141224" data-name="Trazado 141224" d="M33.287,29.345V31.28H19.739L18.21,12.1V12.08A17.42,17.42,0,0,1,33.287,29.345Z" transform="translate(16.1 10.365)" fill="#d64626"/>
    <path id="Trazado_141225" data-name="Trazado 141225" d="M23.077,12.1,21.548,31.28H8V29.345a17.331,17.331,0,0,1,5.11-12.31c1.587-1.587,3.484-2.884,9.968-4.955Z" transform="translate(6.548 10.365)" fill="#d64626"/>
    <path id="Trazado_141226" data-name="Trazado 141226" d="M21.213,12.174l1.529,19.181H15l1.529-19.181v-.019L18.871,12a18.542,18.542,0,0,1,2.342.155Z" transform="translate(13.097 10.29)" fill="#e6e9ed"/>
    <path id="Trazado_141227" data-name="Trazado 141227" d="M61.287,41.345V43.28H47.739L46.21,24.1V24.08A17.42,17.42,0,0,1,61.287,41.345Z" transform="translate(42.293 21.591)" fill="#2a94ee"/>
    <path id="Trazado_141228" data-name="Trazado 141228" d="M49.684,24.08V24.1L48.155,43.28H42.077A27.068,27.068,0,0,0,37.49,31.686l.1-.077a17.385,17.385,0,0,1,6.135-5.594C44.245,25.745,44.767,25.493,49.684,24.08Z" transform="translate(34.136 21.591)" fill="#2a94ee"/>
    <path id="Trazado_141229" data-name="Trazado 141229" d="M49.213,24.174l1.529,19.181H43l1.529-19.181v-.019a17.788,17.788,0,0,1,4.684,0Z" transform="translate(39.29 21.516)" fill="#e6e9ed"/>
    <path id="Trazado_141230" data-name="Trazado 141230" d="M82.581,49.871V73.1a3.882,3.882,0,0,1-3.871,3.871H43.871A3.882,3.882,0,0,1,40,73.1V49.871A3.882,3.882,0,0,1,43.871,46H78.71A3.882,3.882,0,0,1,82.581,49.871Z" transform="translate(36.484 42.097)" fill="#d64626"/>
    <path id="Trazado_141231" data-name="Trazado 141231" d="M21.355,47.935l5.806,5.806L29.1,55.677,13.69,71.084a6.843,6.843,0,1,1-9.677-9.677L19.419,46Z" transform="translate(0.935 42.097)" fill="#dfb28b"/>
    <path id="Trazado_141232" data-name="Trazado 141232" d="M23.071,50.086l-5.265,5.265L12,49.545l5.265-5.265A26.648,26.648,0,0,0,23.071,50.086Z" transform="translate(10.29 40.488)" fill="#fcd770"/>
    <path id="Trazado_141233" data-name="Trazado 141233" d="M23.071,70.929a26.648,26.648,0,0,1-5.806-5.806,27.084,27.084,0,1,1,48.658-19.9,27.785,27.785,0,0,1,0,7.742A27.083,27.083,0,0,1,23.071,70.929Z" transform="translate(10.29 19.645)" fill="#e6e9ed"/>
    <path id="Trazado_141244" data-name="Trazado 141244" d="M19.542,0A19.333,19.333,0,0,1,39.083,19.117,19.333,19.333,0,0,1,19.542,38.234,19.333,19.333,0,0,1,0,19.117,19.333,19.333,0,0,1,19.542,0Z" transform="translate(29.888 49.631)" fill="#dff7f9"/>
    <path id="Trazado_141234" data-name="Trazado 141234" d="M31.161,9.742a9.121,9.121,0,0,1,.194,1.935,9.677,9.677,0,0,1-19.355,0,9.12,9.12,0,0,1,.194-1.935,9.68,9.68,0,0,1,18.968,0Z" transform="translate(10.29 0.935)" fill="#f0d0b4"/>
    <path id="Trazado_141235" data-name="Trazado 141235" d="M59.355,23.677a9.677,9.677,0,0,1-19.355,0,9.12,9.12,0,0,1,.194-1.935,9.68,9.68,0,0,1,18.968,0A9.12,9.12,0,0,1,59.355,23.677Z" transform="translate(36.484 12.161)" fill="#f0d0b4"/>
    <path id="Trazado_141236" data-name="Trazado 141236" d="M36.29,25a21.29,21.29,0,1,0,21.29,21.29A21.315,21.315,0,0,0,36.29,25Zm0,38.71A17.419,17.419,0,1,1,53.71,46.29,17.439,17.439,0,0,1,36.29,63.71Z" transform="translate(13.097 22.452)"/>
    <path id="Trazado_141237" data-name="Trazado 141237" d="M90.032,74.548V83.97l14.135-9.422h3.285a9.688,9.688,0,0,0,9.677-9.677V41.645a9.688,9.688,0,0,0-9.677-9.677H97.1a11.594,11.594,0,0,0-21.871,0H64.871a9.668,9.668,0,0,0-1.935.2V18.419a9.688,9.688,0,0,0-9.677-9.677H42.9a11.594,11.594,0,0,0-21.871,0H10.677A9.688,9.688,0,0,0,1,18.419V41.645a9.688,9.688,0,0,0,9.677,9.677H26.215A28.837,28.837,0,0,0,25.056,84.53L22.29,87.3,20.355,85.36,3.572,102.145a8.778,8.778,0,0,0,12.414,12.414L32.769,97.774l-1.935-1.935L33.6,93.073A28.988,28.988,0,0,0,77.835,74.548Zm7.742-38.71h9.677a5.814,5.814,0,0,1,5.806,5.806V64.871a5.814,5.814,0,0,1-5.806,5.806h-4.457L93.9,76.739V70.677H78.321c.043-.643.1-1.281.1-1.935s-.056-1.293-.1-1.935h27.2V62.935a19.374,19.374,0,0,0-12.2-17.967A11.591,11.591,0,0,0,97.774,35.839Zm-5.954,27.1L90.638,48.117a15.508,15.508,0,0,1,11.007,14.818ZM86.7,47.479l1.235,15.457h-3.55l1.233-15.451c.182-.006.36-.033.542-.033S86.521,47.473,86.7,47.479ZM80.5,62.935H77.833a28.806,28.806,0,0,0-3.842-9.53,15.433,15.433,0,0,1,7.692-5.265ZM86.161,28.1a7.742,7.742,0,1,1-7.742,7.742A7.75,7.75,0,0,1,86.161,28.1ZM74.548,35.839A11.593,11.593,0,0,0,79,44.965a19.329,19.329,0,0,0-7.355,5.174,29.118,29.118,0,0,0-12.559-8.725,5.8,5.8,0,0,1,5.783-5.574ZM43.581,12.613h9.677a5.814,5.814,0,0,1,5.806,5.806V33.954a9.628,9.628,0,0,0-3.737,6.374,28.668,28.668,0,0,0-4-.517v-.1a19.374,19.374,0,0,0-12.2-17.967A11.591,11.591,0,0,0,43.581,12.613Zm-27.1,27.1A15.508,15.508,0,0,1,27.493,24.892L26.308,39.71ZM31.428,24.253c.18-.006.358-.027.54-.027s.36.021.54.027L33.743,39.71h-3.55Zm5.015.639A15.508,15.508,0,0,1,47.452,39.71H37.627ZM31.968,4.871a7.742,7.742,0,1,1-7.742,7.742A7.75,7.75,0,0,1,31.968,4.871ZM4.871,41.645V18.419a5.814,5.814,0,0,1,5.806-5.806h9.677a11.591,11.591,0,0,0,4.459,9.13,19.374,19.374,0,0,0-12.2,17.967v3.871H34.966a29.144,29.144,0,0,0-5.249,3.871H10.677A5.814,5.814,0,0,1,4.871,41.645Zm8.379,70.177a4.908,4.908,0,1,1-6.941-6.941L20.355,90.834,27.3,97.774ZM28.1,93.1l-3.07-3.07,2.379-2.379a29.462,29.462,0,0,0,3.07,3.07Zm21.29.8A25.161,25.161,0,1,1,74.548,68.742,25.19,25.19,0,0,1,49.387,93.9Z" transform="translate(0 0)"/>
    <path id="Trazado_141238" data-name="Trazado 141238" d="M79.645,45H44.806A5.814,5.814,0,0,0,39,50.806V74.032a5.814,5.814,0,0,0,5.806,5.806H79.645a5.814,5.814,0,0,0,5.806-5.806V50.806A5.814,5.814,0,0,0,79.645,45Zm1.935,29.032a1.937,1.937,0,0,1-1.935,1.935H44.806a1.937,1.937,0,0,1-1.935-1.935V50.806a1.937,1.937,0,0,1,1.935-1.935H79.645a1.937,1.937,0,0,1,1.935,1.935Z" transform="translate(35.548 41.161)"/>
    <path id="Trazado_141239" data-name="Trazado 141239" d="M70.1,52.871H66.226V64.484H62.355V56.742H58.484v7.742H54.613V60.613H50.742v3.871H46.871V49H43V68.355H73.968V64.484H70.1Z" transform="translate(39.29 44.903)"/>
    <path id="Trazado_141240" data-name="Trazado 141240" d="M55,21h3.871v3.871H55Z" transform="translate(50.516 18.71)"/>
    <path id="Trazado_141241" data-name="Trazado 141241" d="M55,25h3.871v3.871H55Z" transform="translate(50.516 22.452)"/>
    <path id="Trazado_141242" data-name="Trazado 141242" d="M5,9H8.871v3.871H5Z" transform="translate(3.742 7.484)"/>
    <path id="Trazado_141243" data-name="Trazado 141243" d="M5,13H8.871v3.871H5Z" transform="translate(3.742 11.226)"/>
  </g>
</svg>
