<svg xmlns="http://www.w3.org/2000/svg" width="172" height="171" viewBox="0 0 172 171">
  <g id="Grupo_82191" data-name="Grupo 82191" transform="translate(-296 -1632.07)">
    <circle id="Elipse_4678" data-name="Elipse 4678" cx="57.5" cy="57.5" r="57.5" transform="translate(296 1688.07)" fill="#d64626"/>
    <g id="oferta" transform="translate(317 1632.07)">
      <g id="Grupo_81932" data-name="Grupo 81932" transform="translate(2.949 3.276)">
        <path id="Trazado_139746" data-name="Trazado 139746" d="M352.523,107.7v11.8a17.694,17.694,0,0,1-17.7,17.7H290l11.8-11.8V107.7a17.694,17.694,0,0,1,17.7-17.7h15.336A17.694,17.694,0,0,1,352.523,107.7Z" transform="translate(-207.422 -66.733)" fill="#2a94ee"/>
        <path id="Trazado_139753" data-name="Trazado 139753" d="M29.783,0A29.587,29.587,0,0,1,59.566,29.386,29.587,29.587,0,0,1,29.783,58.772,29.587,29.587,0,0,1,0,29.386,29.587,29.587,0,0,1,29.783,0Z" transform="translate(23.26 0)" fill="#fed947"/>
        <path id="Trazado_139747" data-name="Trazado 139747" d="M86.68,345.594a5.9,5.9,0,0,0-5.9-5.9,5.9,5.9,0,0,0,0-11.8H73.3A11.794,11.794,0,0,0,63.086,322H54.238a26.515,26.515,0,0,0-22.072,11.8H10v29.492H32.166a26.515,26.515,0,0,0,22.072,11.8H74.883a5.9,5.9,0,1,0,0-11.8h5.9a5.9,5.9,0,0,0,0-11.8A5.9,5.9,0,0,0,86.68,345.594Z" transform="translate(-10 -230.312)" fill="#e9baa1"/>
      </g>
      <g id="Grupo_81933" data-name="Grupo 81933" transform="translate(0 0)">
        <path id="Trazado_139748" data-name="Trazado 139748" d="M2.949,139.2H23.593A29.45,29.45,0,0,0,47.187,151H67.832a8.842,8.842,0,0,0,8.222-12.109,8.84,8.84,0,0,0,4.264-14.434,8.827,8.827,0,0,0,0-11.8A8.842,8.842,0,0,0,73.73,97.914h-5.9a14.827,14.827,0,0,0-8.842-5.6V64.747a32.44,32.44,0,1,0-5.9,0V92.016h-5.9a29.45,29.45,0,0,0-23.595,11.8H2.949A2.949,2.949,0,0,0,0,106.762v29.492A2.949,2.949,0,0,0,2.949,139.2Zm64.883,5.9h-5.9a2.949,2.949,0,1,1,0-5.9h5.9a2.949,2.949,0,1,1,0,5.9Zm5.9-41.289a2.949,2.949,0,0,1,0,5.9H70.781v-2.949a14.759,14.759,0,0,0-.3-2.949Zm2.949,14.746a2.953,2.953,0,0,1-2.949,2.949H70.781v-5.9H73.73A2.953,2.953,0,0,1,76.68,118.559Zm-2.949,8.848a2.949,2.949,0,0,1,0,5.9h-11.8a2.949,2.949,0,1,1,0-5.9ZM29.492,32.441A26.543,26.543,0,1,1,56.035,58.984,26.573,26.573,0,0,1,29.492,32.441ZM5.9,109.711H25.116a2.949,2.949,0,0,0,2.451-1.309A23.571,23.571,0,0,1,47.187,97.914h8.848a8.854,8.854,0,0,1,8.848,8.848V121a8.863,8.863,0,0,1-5.9-8.342v-5.9a2.949,2.949,0,1,0-5.9,0A14.763,14.763,0,0,1,38.34,121.508a2.949,2.949,0,1,0,0,5.9,20.618,20.618,0,0,0,16.353-8.065,14.816,14.816,0,0,0,2.521,3.536,8.834,8.834,0,0,0-1.868,13.377,8.827,8.827,0,0,0-1.753,8.848H47.187a23.571,23.571,0,0,1-19.621-10.488,2.949,2.949,0,0,0-2.451-1.309H5.9Z" transform="translate(0 0)"/>
        <path id="Trazado_139749" data-name="Trazado 139749" d="M171.465,78.34V74.783a8.85,8.85,0,0,0-2.9-17.211,2.949,2.949,0,0,1-.029-5.9h.022a4.741,4.741,0,0,1,3.2,1.541,2.949,2.949,0,1,0,4.1-4.238,11.373,11.373,0,0,0-4.393-2.732V42.949a2.949,2.949,0,1,0-5.9,0V46.3a8.845,8.845,0,0,0,3,17.168,2.949,2.949,0,1,1-.023,5.9,5.279,5.279,0,0,1-3.8-2.228,2.949,2.949,0,1,0-4.52,3.789,12.219,12.219,0,0,0,5.348,3.827V78.34a2.949,2.949,0,0,0,5.9,0Z" transform="translate(-112.481 -28.203)"/>
        <path id="Trazado_139750" data-name="Trazado 139750" d="M362.949,145.9h27.133a2.949,2.949,0,0,0,0-5.9H362.949a2.949,2.949,0,0,0,0,5.9Z" transform="translate(-253.828 -98.711)"/>
        <path id="Trazado_139751" data-name="Trazado 139751" d="M362.949,185.9h27.133a2.949,2.949,0,0,0,0-5.9H362.949a2.949,2.949,0,0,0,0,5.9Z" transform="translate(-253.828 -126.914)"/>
        <circle id="Elipse_4529" data-name="Elipse 4529" cx="2.78" cy="2.78" r="2.78" transform="translate(111.19 70.784)"/>
        <path id="Trazado_139752" data-name="Trazado 139752" d="M327.778,80H312.442A20.668,20.668,0,0,0,291.8,100.645v16.474l-10.933,10.933a2.949,2.949,0,0,0,2.086,5.035h15.041a2.949,2.949,0,1,0,0-5.9H290.07l6.762-6.762a2.949,2.949,0,0,0,.864-2.085v-17.7A14.763,14.763,0,0,1,312.442,85.9h15.336a14.763,14.763,0,0,1,14.746,14.746v11.8a14.763,14.763,0,0,1-14.746,14.746h-3.244a2.949,2.949,0,1,0,0,5.9h3.244a20.668,20.668,0,0,0,20.645-20.645v-11.8A20.668,20.668,0,0,0,327.778,80Z" transform="translate(-197.422 -56.406)"/>
      </g>
    </g>
  </g>
</svg>
