<svg xmlns="http://www.w3.org/2000/svg" width="183" height="183" viewBox="0 0 183 183">
  <g id="demanda" transform="translate(-1 -1)">
    <g id="Grupo_81930" data-name="Grupo 81930" transform="translate(4.012 4.012)">
      <g id="Grupo_81923" data-name="Grupo 81923" transform="translate(0 95.013)">
        <path id="Trazado_139732" data-name="Trazado 139732" d="M113.452,98.679V92.655a6.042,6.042,0,0,1-6.024-6.024,6.068,6.068,0,0,1,6.024-6.024H110.44a6.042,6.042,0,0,1-6.024-6.024,5.89,5.89,0,0,1,1.777-4.247,5.277,5.277,0,0,1,1.386-1.054l-.151-.723a13.452,13.452,0,0,0-4.488-10.031l-5.874-5.211a46.708,46.708,0,0,1-4.7-4.759,49.779,49.779,0,0,1-7.681-12.079c-.241-.542-.482-1.115-.723-1.687l-9.669,9.669L56.22,62.533l-9.037,9.037-9.037-7.531L29.11,56.508l-9.037,9.037L2,83.618V104.7H114.477A18.2,18.2,0,0,1,113.452,98.679Z" transform="translate(-2 -34.79)" fill="#2a94ee"/>
      </g>
      <g id="Grupo_81924" data-name="Grupo 81924" transform="translate(12.049 29.017)">
        <path id="Trazado_139733" data-name="Trazado 139733" d="M47.508,41.008a4.83,4.83,0,0,1,.663,2.41,4.718,4.718,0,0,1-4.729,4.729h-7.32V90.318H18.049V48.147h-7.32A4.718,4.718,0,0,1,6,43.418a4.83,4.83,0,0,1,.663-2.41L22.537,14.591a5.288,5.288,0,0,1,9.1,0Z" transform="translate(-6 -12)" fill="#d64626"/>
      </g>
      <g id="Grupo_81925" data-name="Grupo 81925" transform="translate(52.75)">
        <path id="Trazado_139734" data-name="Trazado 139734" d="M61.508,31.008a4.83,4.83,0,0,1,.663,2.41,4.718,4.718,0,0,1-4.729,4.729h-7.32V58.238a49.657,49.657,0,0,0-5.994,22.08H32.049V38.147h-7.32A4.718,4.718,0,0,1,20,33.418a4.83,4.83,0,0,1,.663-2.41L36.537,4.591a5.288,5.288,0,0,1,9.1,0Z" transform="translate(-20 -2)" fill="#d64626"/>
      </g>
      <g id="Grupo_81926" data-name="Grupo 81926" transform="translate(108.556 152.878)">
        <path id="Trazado_139735" data-name="Trazado 139735" d="M75.147,60.024A18.088,18.088,0,0,1,57.073,78.1,18.16,18.16,0,0,1,40.024,66.049,18.2,18.2,0,0,1,39,60.024V54H75.147Z" transform="translate(-39 -54)" fill="#aab2bd"/>
      </g>
      <g id="Grupo_81927" data-name="Grupo 81927" transform="translate(98.658 129.585)">
        <path id="Trazado_139736" data-name="Trazado 139736" d="M84.8,46.03a6.041,6.041,0,0,1,5.422,5.994A6.068,6.068,0,0,1,84.2,58.049H42.024A6.042,6.042,0,0,1,36,52.024a5.89,5.89,0,0,1,1.777-4.247,5.277,5.277,0,0,1,1.386-1.054A6.109,6.109,0,0,1,42.024,46H84.2A3.841,3.841,0,0,1,84.8,46.03Z" transform="translate(-36 -46)" fill="#ccd1d9"/>
      </g>
      <g id="Grupo_81928" data-name="Grupo 81928" transform="translate(102.439 140.829)">
        <path id="Trazado_139737" data-name="Trazado 139737" d="M79.171,50A6.042,6.042,0,0,1,85.2,56.024a6.068,6.068,0,0,1-6.024,6.024H43.024A6.042,6.042,0,0,1,37,56.024,6.068,6.068,0,0,1,43.024,50Z" transform="translate(-37 -50)" fill="#ccd1d9"/>
      </g>
      <g id="Grupo_81929" data-name="Grupo 81929" transform="translate(74.56 28.663)">
        <path id="Trazado_139738" data-name="Trazado 139738" d="M100.293,114.416H58.122a6.109,6.109,0,0,0-2.862.723l-.151-.723a13.452,13.452,0,0,0-4.488-10.031l-5.874-5.211a46.711,46.711,0,0,1-4.7-4.759,49.78,49.78,0,0,1-7.681-12.079c-.241-.542-.482-1.115-.723-1.687A50.278,50.278,0,0,1,28,61.882c0-.572,0-1.145.03-1.687A49.875,49.875,0,0,1,77.882,12h2.651a49.885,49.885,0,0,1,33.134,87.174l-5.874,5.211a13.452,13.452,0,0,0-4.488,10.031l-2.41.03A3.841,3.841,0,0,0,100.293,114.416Z" transform="translate(-28 -12)" fill="#fed947"/>
      </g>
    </g>
    <g id="Grupo_81931" data-name="Grupo 81931" transform="translate(1 1)">
      <path id="Trazado_139739" data-name="Trazado 139739" d="M132.164,30.516h-2.583A51.757,51.757,0,0,0,89.548,49.46V42.323h4.233a7.572,7.572,0,0,0,6.494-11.47L84.743,4.964a8.165,8.165,0,0,0-14,0L55.209,30.85A7.574,7.574,0,0,0,61.7,42.323h4.233V83.645H77.81a51.726,51.726,0,0,0,3.073,16.3l-32.84,32.837-17.71-14.758L1,147.359v24.835H112.232a20.644,20.644,0,0,0,39.3-8.855v-3.495a8.735,8.735,0,0,0,4.72-12.654,8.785,8.785,0,0,0,1.249-13.964,10.175,10.175,0,0,1,3.359-7.025l5.744-5.1a51.839,51.839,0,0,0-34.439-90.582ZM61.7,36.419a1.669,1.669,0,0,1-1.432-2.53L75.8,8a2.359,2.359,0,0,1,3.878,0L95.213,33.89a1.669,1.669,0,0,1-1.432,2.53H83.645v22a51.387,51.387,0,0,0-5.67,19.324H71.839V36.419Zm27.846,78.749V166.29H77.742V111.432l5.67-5.67A51.908,51.908,0,0,0,89.548,115.168ZM71.839,166.29H60.032V129.141l11.806-11.806Zm-23.43-25.523,5.72-5.723V166.29H42.323V135.7ZM30.7,126.01l5.72,4.767V166.29H24.613v-34.2ZM6.9,149.8,18.71,138V166.29H6.9ZM95.452,166.29V121.373l5.434,4.829a10.2,10.2,0,0,1,3.359,7.025,8.782,8.782,0,0,0,1.246,13.964,8.735,8.735,0,0,0,4.72,12.654v3.495a20.739,20.739,0,0,0,.236,2.952Zm59.032-26.565a2.953,2.953,0,0,1-2.952,2.952H110.21a2.952,2.952,0,1,1,0-5.9h41.323A2.953,2.953,0,0,1,154.484,139.726ZM130.871,178.1a14.775,14.775,0,0,1-14.758-14.758v-2.952h29.516v2.952A14.775,14.775,0,0,1,130.871,178.1Zm17.71-23.613H113.161a2.952,2.952,0,1,1,0-5.9h35.419a2.952,2.952,0,0,1,0,5.9Zm14.1-37.8-5.744,5.1a16.078,16.078,0,0,0-5.118,9.109c-.1,0-.189-.027-.286-.027H110.21c-.1,0-.189.027-.286.03a16.1,16.1,0,0,0-5.118-9.109l-5.744-5.1a45.937,45.937,0,0,1,30.52-80.269h2.583a45.935,45.935,0,0,1,30.517,80.266Z" transform="translate(-1 -1)"/>
      <path id="Trazado_139740" data-name="Trazado 139740" d="M57.422,28.965a35.07,35.07,0,0,1-.642,5.542l5.907,1.172a40.134,40.134,0,0,0,.753-6.506Z" transform="translate(107.484 53.514)"/>
      <path id="Trazado_139741" data-name="Trazado 139741" d="M59.738,46.374l-5.865,5.211a28.582,28.582,0,0,0-4.042,4.44l4.859,3.566a22.556,22.556,0,0,1,3.184-3.5l5.865-5.211a41.036,41.036,0,0,0,11.073-16.1l-5.636-2.13a34.967,34.967,0,0,1-9.437,13.727Z" transform="translate(93.501 60.439)"/>
      <path id="Trazado_139742" data-name="Trazado 139742" d="M31.014,32.3l6.018.268a34.627,34.627,0,0,1,.693-5.546l-5.9-1.223a41.275,41.275,0,0,0-.81,6.5Z" transform="translate(57.508 47.34)"/>
      <path id="Trazado_139743" data-name="Trazado 139743" d="M71.31,21.024V15H69.99A41.172,41.172,0,0,0,31.925,41.014l5.612,2.2A35.107,35.107,0,0,1,69.993,21.024Z" transform="translate(58.853 26.172)"/>
      <path id="Trazado_139744" data-name="Trazado 139744" d="M65.1,37.79a11.763,11.763,0,0,0-9.037-11.413V20H50.037v6.377a11.744,11.744,0,0,0-.991,22.574l6.1,2.036a5.739,5.739,0,0,1-1.81,11.184h-.569a5.744,5.744,0,0,1-5.741-5.741v-3.3H41v3.3a11.763,11.763,0,0,0,9.037,11.413V74.22h6.024V67.843a11.744,11.744,0,0,0,.991-22.574l-6.1-2.036a5.739,5.739,0,0,1,1.81-11.184h.569a5.746,5.746,0,0,1,5.741,5.741v.283Z" transform="translate(76.705 35.61)"/>
      <path id="Trazado_139745" data-name="Trazado 139745" d="M12.729,53.171h4.32V95.342h24.1V53.171h4.32a7.728,7.728,0,0,0,6.627-11.706l-15.85-26.42a8.332,8.332,0,0,0-14.29,0L6.1,41.463a7.73,7.73,0,0,0,6.627,11.709Zm-1.461-8.606,15.85-26.42a2.407,2.407,0,0,1,3.958,0l15.85,26.42a1.7,1.7,0,0,1-1.461,2.581H35.122V89.318H23.073V47.147H12.729a1.7,1.7,0,0,1-1.461-2.581Z" transform="translate(7.049 18.017)"/>
    </g>
  </g>
</svg>
