<svg xmlns="http://www.w3.org/2000/svg" width="820" height="400" viewBox="0 0 820 400">
  <g id="Grupo_82930" data-name="Grupo 82930" transform="translate(-390 -7226.07)">
    <path id="Rectángulo_30804" data-name="Rectángulo 30804" d="M0,0H820V400H0Z" transform="translate(390 7226.07)" fill="#f6f6f6"/>
    <path id="Trazado_141832" data-name="Trazado 141832" d="M5.039-2.824H12.5V0H1.523V-17.062H5.039ZM20.133.234a6.225,6.225,0,0,1-4.541-1.711A6.082,6.082,0,0,1,13.84-6.035v-.328a7.66,7.66,0,0,1,.738-3.416A5.418,5.418,0,0,1,16.67-12.1a5.871,5.871,0,0,1,3.088-.814,5.262,5.262,0,0,1,4.1,1.641,6.667,6.667,0,0,1,1.494,4.652v1.383H17.273a3.146,3.146,0,0,0,.99,1.992,2.993,2.993,0,0,0,2.092.75,3.656,3.656,0,0,0,3.059-1.418l1.664,1.863A5.084,5.084,0,0,1,23.016-.369,6.767,6.767,0,0,1,20.133.234Zm-.387-10.418a2.116,2.116,0,0,0-1.635.683,3.535,3.535,0,0,0-.8,1.954H22.02v-.271a2.521,2.521,0,0,0-.609-1.748A2.183,2.183,0,0,0,19.746-10.184ZM31.852-4.793,34.2-12.68h3.633L32.73,1.969l-.281.668A3.865,3.865,0,0,1,28.7,5.121,5.329,5.329,0,0,1,27.2,4.9V2.332l.516.012a2.786,2.786,0,0,0,1.436-.293,1.925,1.925,0,0,0,.744-.973l.4-1.043L25.852-12.68H29.5ZM44.613-6.434a7.641,7.641,0,0,1,1.33-4.723,4.316,4.316,0,0,1,3.639-1.758,3.884,3.884,0,0,1,3.059,1.383V-18h3.4V0H52.98l-.164-1.348A3.985,3.985,0,0,1,49.559.234a4.3,4.3,0,0,1-3.592-1.764A7.887,7.887,0,0,1,44.613-6.434ZM48-6.193a5.033,5.033,0,0,0,.621,2.743,2.022,2.022,0,0,0,1.8.954,2.265,2.265,0,0,0,2.215-1.33V-8.853a2.233,2.233,0,0,0-2.191-1.33Q48-10.184,48-6.193ZM64.5.234a6.225,6.225,0,0,1-4.541-1.711,6.082,6.082,0,0,1-1.752-4.559v-.328a7.66,7.66,0,0,1,.738-3.416,5.418,5.418,0,0,1,2.092-2.32,5.871,5.871,0,0,1,3.088-.814,5.262,5.262,0,0,1,4.1,1.641,6.667,6.667,0,0,1,1.494,4.652v1.383H61.641a3.146,3.146,0,0,0,.99,1.992,2.993,2.993,0,0,0,2.092.75,3.656,3.656,0,0,0,3.059-1.418l1.664,1.863A5.084,5.084,0,0,1,67.383-.369,6.767,6.767,0,0,1,64.5.234Zm-.387-10.418a2.116,2.116,0,0,0-1.635.683,3.535,3.535,0,0,0-.8,1.954h4.711v-.271a2.521,2.521,0,0,0-.609-1.748A2.183,2.183,0,0,0,64.113-10.184ZM81.188,0h-3.4V-18h3.4ZM91.324,0a3.761,3.761,0,0,1-.34-1.137,4.1,4.1,0,0,1-3.2,1.371A4.5,4.5,0,0,1,84.7-.844a3.467,3.467,0,0,1-1.225-2.719,3.583,3.583,0,0,1,1.494-3.094,7.373,7.373,0,0,1,4.318-1.09h1.559v-.727a2.089,2.089,0,0,0-.451-1.406,1.775,1.775,0,0,0-1.424-.527,2.018,2.018,0,0,0-1.342.41,1.393,1.393,0,0,0-.486,1.125H83.754a3.4,3.4,0,0,1,.68-2.039,4.493,4.493,0,0,1,1.922-1.471,7,7,0,0,1,2.789-.533,5.534,5.534,0,0,1,3.721,1.178,4.12,4.12,0,0,1,1.377,3.311v5.5a6.062,6.062,0,0,0,.5,2.73V0Zm-2.8-2.355a2.917,2.917,0,0,0,1.383-.334,2.194,2.194,0,0,0,.938-.9v-2.18H89.578q-2.543,0-2.707,1.758l-.012.2A1.356,1.356,0,0,0,87.3-2.766,1.73,1.73,0,0,0,88.523-2.355Zm13.77-4.078a7.641,7.641,0,0,1,1.33-4.723,4.316,4.316,0,0,1,3.639-1.758,3.884,3.884,0,0,1,3.059,1.383V-18h3.4V0H110.66L110.5-1.348A3.985,3.985,0,0,1,107.238.234a4.3,4.3,0,0,1-3.592-1.764A7.887,7.887,0,0,1,102.293-6.434Zm3.387.241A5.033,5.033,0,0,0,106.3-3.45a2.022,2.022,0,0,0,1.8.954,2.265,2.265,0,0,0,2.215-1.33V-8.853a2.233,2.233,0,0,0-2.191-1.33Q105.68-10.184,105.68-6.193ZM122.18.234a6.225,6.225,0,0,1-4.541-1.711,6.082,6.082,0,0,1-1.752-4.559v-.328a7.66,7.66,0,0,1,.738-3.416,5.418,5.418,0,0,1,2.092-2.32,5.871,5.871,0,0,1,3.088-.814,5.262,5.262,0,0,1,4.1,1.641,6.667,6.667,0,0,1,1.494,4.652v1.383H119.32a3.146,3.146,0,0,0,.99,1.992,2.993,2.993,0,0,0,2.092.75,3.656,3.656,0,0,0,3.059-1.418l1.664,1.863a5.084,5.084,0,0,1-2.062,1.682A6.767,6.767,0,0,1,122.18.234Zm-.387-10.418a2.116,2.116,0,0,0-1.635.683,3.535,3.535,0,0,0-.8,1.954h4.711v-.271a2.521,2.521,0,0,0-.609-1.748A2.183,2.183,0,0,0,121.793-10.184Zm10.7-2.5.105,1.418a4.456,4.456,0,0,1,3.645-1.652,3.382,3.382,0,0,1,3.363,1.934,4.354,4.354,0,0,1,3.809-1.934,3.782,3.782,0,0,1,3.07,1.2A5.521,5.521,0,0,1,147.492-8.1V0h-3.4V-8.1a2.424,2.424,0,0,0-.422-1.58,1.867,1.867,0,0,0-1.488-.5,2.114,2.114,0,0,0-2.109,1.456L140.086,0H136.7V-8.093a2.394,2.394,0,0,0-.434-1.6,1.885,1.885,0,0,0-1.477-.493,2.194,2.194,0,0,0-2.086,1.2V0h-3.387V-12.68ZM157.441,0a3.761,3.761,0,0,1-.34-1.137A4.1,4.1,0,0,1,153.9.234a4.5,4.5,0,0,1-3.088-1.078,3.467,3.467,0,0,1-1.225-2.719,3.583,3.583,0,0,1,1.494-3.094,7.373,7.373,0,0,1,4.318-1.09h1.559v-.727a2.089,2.089,0,0,0-.451-1.406,1.775,1.775,0,0,0-1.424-.527,2.018,2.018,0,0,0-1.342.41,1.393,1.393,0,0,0-.486,1.125h-3.387a3.4,3.4,0,0,1,.68-2.039,4.493,4.493,0,0,1,1.922-1.471,7,7,0,0,1,2.789-.533,5.534,5.534,0,0,1,3.721,1.178,4.12,4.12,0,0,1,1.377,3.311v5.5a6.062,6.062,0,0,0,.5,2.73V0Zm-2.8-2.355a2.917,2.917,0,0,0,1.383-.334,2.194,2.194,0,0,0,.938-.9v-2.18H155.7q-2.543,0-2.707,1.758l-.012.2a1.356,1.356,0,0,0,.445,1.043A1.73,1.73,0,0,0,154.641-2.355ZM166.078-12.68l.105,1.465a4.427,4.427,0,0,1,3.645-1.7,3.679,3.679,0,0,1,3,1.184,5.522,5.522,0,0,1,1.008,3.539V0h-3.387V-8.128A2.206,2.206,0,0,0,169.98-9.7a2.1,2.1,0,0,0-1.559-.487,2.329,2.329,0,0,0-2.145,1.221V0h-3.387V-12.68Zm9.8,6.246a7.641,7.641,0,0,1,1.33-4.723,4.316,4.316,0,0,1,3.639-1.758,3.884,3.884,0,0,1,3.059,1.383V-18h3.4V0h-3.059l-.164-1.348A3.985,3.985,0,0,1,180.82.234a4.3,4.3,0,0,1-3.592-1.764A7.887,7.887,0,0,1,175.875-6.434Zm3.387.241a5.033,5.033,0,0,0,.621,2.743,2.022,2.022,0,0,0,1.8.954,2.265,2.265,0,0,0,2.215-1.33V-8.853a2.233,2.233,0,0,0-2.191-1.33Q179.262-10.184,179.262-6.193ZM197.273,0a3.761,3.761,0,0,1-.34-1.137,4.1,4.1,0,0,1-3.2,1.371,4.5,4.5,0,0,1-3.088-1.078,3.467,3.467,0,0,1-1.225-2.719,3.583,3.583,0,0,1,1.494-3.094,7.373,7.373,0,0,1,4.318-1.09h1.559v-.727a2.089,2.089,0,0,0-.451-1.406,1.775,1.775,0,0,0-1.424-.527,2.018,2.018,0,0,0-1.342.41,1.393,1.393,0,0,0-.486,1.125H189.7a3.4,3.4,0,0,1,.68-2.039,4.493,4.493,0,0,1,1.922-1.471,7,7,0,0,1,2.789-.533,5.534,5.534,0,0,1,3.721,1.178,4.12,4.12,0,0,1,1.377,3.311v5.5a6.062,6.062,0,0,0,.5,2.73V0Zm-2.8-2.355a2.917,2.917,0,0,0,1.383-.334,2.194,2.194,0,0,0,.938-.9v-2.18h-1.266q-2.543,0-2.707,1.758l-.012.2a1.356,1.356,0,0,0,.445,1.043A1.73,1.73,0,0,0,194.473-2.355Z" transform="translate(700 7267.129)" fill="#12263f"/>
    <path id="Trazado_141833" data-name="Trazado 141833" d="M4.2-5.01V0H1.27V-14.219H6.816a6.417,6.417,0,0,1,2.817.586,4.318,4.318,0,0,1,1.87,1.665,4.643,4.643,0,0,1,.654,2.456,4.083,4.083,0,0,1-1.431,3.3A5.959,5.959,0,0,1,6.768-5.01Zm0-2.373H6.816A2.573,2.573,0,0,0,8.589-7.93,1.989,1.989,0,0,0,9.2-9.492a2.345,2.345,0,0,0-.615-1.689,2.3,2.3,0,0,0-1.7-.664H4.2ZM19.922-7.92A7.667,7.667,0,0,0,18.906-8a2.067,2.067,0,0,0-2.1,1.084V0H13.984V-10.566H16.65l.078,1.26a2.615,2.615,0,0,1,2.354-1.455,2.957,2.957,0,0,1,.879.127ZM25.957.2A5.187,5.187,0,0,1,22.173-1.23a5.068,5.068,0,0,1-1.46-3.8V-5.3a6.383,6.383,0,0,1,.615-2.847,4.515,4.515,0,0,1,1.743-1.934,4.893,4.893,0,0,1,2.573-.679,4.385,4.385,0,0,1,3.413,1.367A5.555,5.555,0,0,1,30.3-5.518v1.152H23.574a2.622,2.622,0,0,0,.825,1.66,2.5,2.5,0,0,0,1.743.625,3.046,3.046,0,0,0,2.549-1.182l1.387,1.553a4.237,4.237,0,0,1-1.719,1.4A5.639,5.639,0,0,1,25.957.2Zm-.322-8.682a1.764,1.764,0,0,0-1.362.569A2.946,2.946,0,0,0,23.6-6.289h3.926v-.226a2.1,2.1,0,0,0-.508-1.457A1.819,1.819,0,0,0,25.635-8.486ZM36.3-2.08a1.851,1.851,0,0,0,1.27-.43,1.506,1.506,0,0,0,.508-1.143h2.646a3.62,3.62,0,0,1-.586,1.968A3.866,3.866,0,0,1,38.56-.3,4.936,4.936,0,0,1,36.348.2a4.587,4.587,0,0,1-3.574-1.44,5.7,5.7,0,0,1-1.309-3.979V-5.41a5.635,5.635,0,0,1,1.3-3.9,4.534,4.534,0,0,1,3.564-1.455,4.444,4.444,0,0,1,3.179,1.128,3.994,3.994,0,0,1,1.216,3H38.076a1.939,1.939,0,0,0-.508-1.34,1.693,1.693,0,0,0-1.289-.515,1.7,1.7,0,0,0-1.489.719,4.166,4.166,0,0,0-.5,2.333v.293a4.219,4.219,0,0,0,.5,2.347A1.721,1.721,0,0,0,36.3-2.08ZM45.313,0H42.48V-10.566h2.832Zm-3-13.3a1.39,1.39,0,0,1,.425-1.045,1.6,1.6,0,0,1,1.157-.41,1.6,1.6,0,0,1,1.152.41,1.382,1.382,0,0,1,.43,1.045,1.386,1.386,0,0,1-.435,1.055,1.6,1.6,0,0,1-1.147.41,1.6,1.6,0,0,1-1.147-.41A1.386,1.386,0,0,1,42.314-13.3ZM47.2-5.381a6.267,6.267,0,0,1,.605-2.8,4.432,4.432,0,0,1,1.743-1.9,5.086,5.086,0,0,1,2.642-.674,4.812,4.812,0,0,1,3.491,1.309A5.252,5.252,0,0,1,57.188-5.9l.02.723a5.523,5.523,0,0,1-1.357,3.9A4.718,4.718,0,0,1,52.207.2,4.742,4.742,0,0,1,48.56-1.27,5.62,5.62,0,0,1,47.2-5.254Zm2.822.2a3.95,3.95,0,0,0,.566,2.3,1.868,1.868,0,0,0,1.621.8,1.873,1.873,0,0,0,1.6-.787,4.322,4.322,0,0,0,.576-2.518,3.91,3.91,0,0,0-.576-2.289,1.873,1.873,0,0,0-1.621-.812,1.842,1.842,0,0,0-1.6.807A4.395,4.395,0,0,0,50.02-5.181Z" transform="translate(494 7461.969) rotate(-90)" fill="#12263f"/>
    <path id="Trazado_141834" data-name="Trazado 141834" d="M12.432-4.736a5.031,5.031,0,0,1-1.694,3.613A5.951,5.951,0,0,1,6.709.2a5.351,5.351,0,0,1-4.3-1.841A7.548,7.548,0,0,1,.84-6.7v-.869a8.523,8.523,0,0,1,.723-3.613,5.416,5.416,0,0,1,2.065-2.4,5.786,5.786,0,0,1,3.12-.835A5.8,5.8,0,0,1,10.713-13.1a5.407,5.407,0,0,1,1.738,3.7H9.521a2.97,2.97,0,0,0-.767-2,2.839,2.839,0,0,0-2.007-.62,2.489,2.489,0,0,0-2.192,1.05,5.883,5.883,0,0,0-.747,3.257v1.074a6.3,6.3,0,0,0,.7,3.369A2.443,2.443,0,0,0,6.709-2.2a2.892,2.892,0,0,0,2.026-.62A2.8,2.8,0,0,0,9.5-4.736ZM20.293,0a3.134,3.134,0,0,1-.283-.947A3.415,3.415,0,0,1,17.344.2a3.752,3.752,0,0,1-2.573-.9A2.89,2.89,0,0,1,13.75-2.969,2.986,2.986,0,0,1,15-5.547a6.144,6.144,0,0,1,3.6-.908h1.3v-.605a1.741,1.741,0,0,0-.376-1.172,1.479,1.479,0,0,0-1.187-.439,1.682,1.682,0,0,0-1.118.342,1.161,1.161,0,0,0-.405.938H13.984a2.835,2.835,0,0,1,.566-1.7,3.744,3.744,0,0,1,1.6-1.226,5.837,5.837,0,0,1,2.324-.444,4.611,4.611,0,0,1,3.1.981,3.433,3.433,0,0,1,1.147,2.759v4.58a5.052,5.052,0,0,0,.42,2.275V0ZM17.959-1.963a2.431,2.431,0,0,0,1.152-.278,1.828,1.828,0,0,0,.781-.747V-4.8H18.838q-2.119,0-2.256,1.465l-.01.166a1.13,1.13,0,0,0,.371.869A1.441,1.441,0,0,0,17.959-1.963Zm9.531-8.6.088,1.221a3.689,3.689,0,0,1,3.037-1.416,3.066,3.066,0,0,1,2.5.986,4.6,4.6,0,0,1,.84,2.949V0H31.133V-6.773a1.838,1.838,0,0,0-.391-1.307,1.746,1.746,0,0,0-1.3-.406,1.941,1.941,0,0,0-1.787,1.018V0H24.834V-10.566Zm11.982-2.6v2.6h1.807V-8.5H39.473v5.273a1.259,1.259,0,0,0,.225.84,1.128,1.128,0,0,0,.859.254,4.5,4.5,0,0,0,.83-.068V-.059A5.81,5.81,0,0,1,39.678.2q-2.969,0-3.027-3V-8.5H35.107v-2.07H36.65v-2.6ZM45.83,0H43V-10.566H45.83Zm-3-13.3a1.39,1.39,0,0,1,.425-1.045,1.6,1.6,0,0,1,1.157-.41,1.6,1.6,0,0,1,1.152.41A1.382,1.382,0,0,1,46-13.3a1.386,1.386,0,0,1-.435,1.055,1.6,1.6,0,0,1-1.147.41,1.6,1.6,0,0,1-1.147-.41A1.386,1.386,0,0,1,42.832-13.3Zm4.883,7.939A6.368,6.368,0,0,1,48.823-9.3a3.6,3.6,0,0,1,3.032-1.465A3.236,3.236,0,0,1,54.4-9.609V-15h2.832V0H54.688l-.137-1.123A3.321,3.321,0,0,1,51.836.2a3.587,3.587,0,0,1-2.993-1.47A6.573,6.573,0,0,1,47.715-5.361Zm2.822.2a4.194,4.194,0,0,0,.518,2.286,1.685,1.685,0,0,0,1.5.795A1.888,1.888,0,0,0,54.4-3.189V-7.378a1.861,1.861,0,0,0-1.826-1.109Q50.537-8.486,50.537-5.161ZM65.547,0a3.134,3.134,0,0,1-.283-.947A3.415,3.415,0,0,1,62.6.2a3.752,3.752,0,0,1-2.573-.9A2.89,2.89,0,0,1,59-2.969a2.986,2.986,0,0,1,1.245-2.578,6.144,6.144,0,0,1,3.6-.908h1.3v-.605a1.741,1.741,0,0,0-.376-1.172,1.479,1.479,0,0,0-1.187-.439,1.682,1.682,0,0,0-1.118.342,1.161,1.161,0,0,0-.405.938H59.238a2.835,2.835,0,0,1,.566-1.7,3.744,3.744,0,0,1,1.6-1.226,5.837,5.837,0,0,1,2.324-.444,4.611,4.611,0,0,1,3.1.981,3.433,3.433,0,0,1,1.147,2.759v4.58A5.052,5.052,0,0,0,68.4-.166V0ZM63.213-1.963a2.431,2.431,0,0,0,1.152-.278,1.828,1.828,0,0,0,.781-.747V-4.8H64.092q-2.119,0-2.256,1.465l-.01.166A1.13,1.13,0,0,0,62.2-2.3,1.441,1.441,0,0,0,63.213-1.963Zm6.494-3.4A6.368,6.368,0,0,1,70.815-9.3a3.6,3.6,0,0,1,3.032-1.465A3.236,3.236,0,0,1,76.4-9.609V-15h2.832V0H76.68l-.137-1.123A3.321,3.321,0,0,1,73.828.2a3.587,3.587,0,0,1-2.993-1.47A6.573,6.573,0,0,1,69.707-5.361Zm2.822.2a4.194,4.194,0,0,0,.518,2.286,1.685,1.685,0,0,0,1.5.795A1.888,1.888,0,0,0,76.4-3.189V-7.378A1.861,1.861,0,0,0,74.57-8.486Q72.529-8.486,72.529-5.161Zm13.428-.2A6.368,6.368,0,0,1,87.065-9.3,3.6,3.6,0,0,1,90.1-10.762a3.236,3.236,0,0,1,2.549,1.152V-15h2.832V0H92.93l-.137-1.123A3.321,3.321,0,0,1,90.078.2a3.587,3.587,0,0,1-2.993-1.47A6.573,6.573,0,0,1,85.957-5.361Zm2.822.2A4.194,4.194,0,0,0,89.3-2.875a1.685,1.685,0,0,0,1.5.795,1.888,1.888,0,0,0,1.846-1.109V-7.378A1.861,1.861,0,0,0,90.82-8.486Q88.779-8.486,88.779-5.161ZM102.529.2A5.187,5.187,0,0,1,98.745-1.23a5.068,5.068,0,0,1-1.46-3.8V-5.3A6.383,6.383,0,0,1,97.9-8.149a4.515,4.515,0,0,1,1.743-1.934,4.893,4.893,0,0,1,2.573-.679,4.385,4.385,0,0,1,3.413,1.367,5.555,5.555,0,0,1,1.245,3.877v1.152h-6.729a2.622,2.622,0,0,0,.825,1.66,2.5,2.5,0,0,0,1.743.625,3.046,3.046,0,0,0,2.549-1.182l1.387,1.553a4.237,4.237,0,0,1-1.719,1.4A5.639,5.639,0,0,1,102.529.2Zm-.322-8.682a1.764,1.764,0,0,0-1.362.569,2.946,2.946,0,0,0-.669,1.628H104.1v-.226a2.1,2.1,0,0,0-.508-1.457A1.819,1.819,0,0,0,102.207-8.486Zm8.916-2.08.088,1.182a3.713,3.713,0,0,1,3.037-1.377,2.818,2.818,0,0,1,2.8,1.611,3.628,3.628,0,0,1,3.174-1.611,3.152,3.152,0,0,1,2.559,1,4.6,4.6,0,0,1,.84,3.013V0h-2.832V-6.754a2.02,2.02,0,0,0-.352-1.316,1.556,1.556,0,0,0-1.24-.416,1.762,1.762,0,0,0-1.758,1.214L117.451,0h-2.822V-6.744a2,2,0,0,0-.361-1.331,1.571,1.571,0,0,0-1.23-.411,1.828,1.828,0,0,0-1.738,1V0h-2.822V-10.566ZM131.914,0a3.134,3.134,0,0,1-.283-.947A3.415,3.415,0,0,1,128.965.2a3.752,3.752,0,0,1-2.573-.9,2.89,2.89,0,0,1-1.021-2.266,2.986,2.986,0,0,1,1.245-2.578,6.144,6.144,0,0,1,3.6-.908h1.3v-.605a1.741,1.741,0,0,0-.376-1.172,1.479,1.479,0,0,0-1.187-.439,1.682,1.682,0,0,0-1.118.342,1.161,1.161,0,0,0-.405.938h-2.822a2.835,2.835,0,0,1,.566-1.7,3.744,3.744,0,0,1,1.6-1.226,5.837,5.837,0,0,1,2.324-.444,4.611,4.611,0,0,1,3.1.981,3.433,3.433,0,0,1,1.147,2.759v4.58a5.052,5.052,0,0,0,.42,2.275V0ZM129.58-1.963a2.431,2.431,0,0,0,1.152-.278,1.828,1.828,0,0,0,.781-.747V-4.8h-1.055q-2.119,0-2.256,1.465l-.01.166a1.13,1.13,0,0,0,.371.869A1.441,1.441,0,0,0,129.58-1.963Zm9.531-8.6.088,1.221a3.689,3.689,0,0,1,3.037-1.416,3.066,3.066,0,0,1,2.5.986,4.6,4.6,0,0,1,.84,2.949V0h-2.822V-6.773a1.838,1.838,0,0,0-.391-1.307,1.746,1.746,0,0,0-1.3-.406,1.941,1.941,0,0,0-1.787,1.018V0h-2.822V-10.566Zm8.164,5.205A6.368,6.368,0,0,1,148.384-9.3a3.6,3.6,0,0,1,3.032-1.465,3.236,3.236,0,0,1,2.549,1.152V-15H156.8V0h-2.549l-.137-1.123A3.321,3.321,0,0,1,151.4.2a3.587,3.587,0,0,1-2.993-1.47A6.573,6.573,0,0,1,147.275-5.361Zm2.822.2a4.194,4.194,0,0,0,.518,2.286,1.685,1.685,0,0,0,1.5.795,1.888,1.888,0,0,0,1.846-1.109V-7.378a1.861,1.861,0,0,0-1.826-1.109Q150.1-8.486,150.1-5.161ZM165.107,0a3.134,3.134,0,0,1-.283-.947A3.415,3.415,0,0,1,162.158.2a3.752,3.752,0,0,1-2.573-.9,2.889,2.889,0,0,1-1.021-2.266,2.986,2.986,0,0,1,1.245-2.578,6.144,6.144,0,0,1,3.6-.908h1.3v-.605a1.741,1.741,0,0,0-.376-1.172,1.479,1.479,0,0,0-1.187-.439,1.682,1.682,0,0,0-1.118.342,1.161,1.161,0,0,0-.405.938H158.8a2.835,2.835,0,0,1,.566-1.7,3.744,3.744,0,0,1,1.6-1.226,5.837,5.837,0,0,1,2.324-.444,4.611,4.611,0,0,1,3.1.981,3.433,3.433,0,0,1,1.147,2.759v4.58a5.052,5.052,0,0,0,.42,2.275V0Zm-2.334-1.963a2.431,2.431,0,0,0,1.152-.278,1.828,1.828,0,0,0,.781-.747V-4.8h-1.055q-2.119,0-2.256,1.465l-.01.166a1.13,1.13,0,0,0,.371.869A1.441,1.441,0,0,0,162.773-1.963Z" transform="matrix(1, 0, 0, 1, 715, 7607.645)" fill="#12263f"/>
    <g id="Grupo_82176" data-name="Grupo 82176" transform="translate(-2.002 1365)">
      <g id="Grupo_82016" data-name="Grupo 82016" transform="translate(556.24 5937.055)">
        <g id="Grupo_82015" data-name="Grupo 82015" transform="translate(0.442)">
          <g id="Grupo_82010" data-name="Grupo 82010">
            <rect id="Rectángulo_31116" data-name="Rectángulo 31116" width="103.325" height="48.611" fill="none" stroke="#e5e5e5" stroke-miterlimit="10" stroke-width="1"/>
            <rect id="Rectángulo_31117" data-name="Rectángulo 31117" width="103.325" height="48.611" transform="translate(103.077)" fill="none" stroke="#e5e5e5" stroke-miterlimit="10" stroke-width="1"/>
            <rect id="Rectángulo_31118" data-name="Rectángulo 31118" width="103.325" height="48.611" transform="translate(206.485)" fill="none" stroke="#e5e5e5" stroke-miterlimit="10" stroke-width="1"/>
            <rect id="Rectángulo_31119" data-name="Rectángulo 31119" width="103.325" height="48.611" transform="translate(309.563)" fill="none" stroke="#e5e5e5" stroke-miterlimit="10" stroke-width="1"/>
            <rect id="Rectángulo_31120" data-name="Rectángulo 31120" width="103.325" height="48.611" transform="translate(412.97)" fill="none" stroke="#e5e5e5" stroke-miterlimit="10" stroke-width="1"/>
          </g>
          <g id="Grupo_82011" data-name="Grupo 82011" transform="translate(0 195.125)">
            <rect id="Rectángulo_31121" data-name="Rectángulo 31121" width="103.325" height="48.611" fill="none" stroke="#e5e5e5" stroke-miterlimit="10" stroke-width="1"/>
            <rect id="Rectángulo_31122" data-name="Rectángulo 31122" width="103.325" height="48.611" transform="translate(103.077)" fill="none" stroke="#e5e5e5" stroke-miterlimit="10" stroke-width="1"/>
            <rect id="Rectángulo_31123" data-name="Rectángulo 31123" width="103.325" height="48.611" transform="translate(206.485)" fill="none" stroke="#e5e5e5" stroke-miterlimit="10" stroke-width="1"/>
            <rect id="Rectángulo_31124" data-name="Rectángulo 31124" width="103.325" height="48.611" transform="translate(309.563)" fill="none" stroke="#e5e5e5" stroke-miterlimit="10" stroke-width="1"/>
            <rect id="Rectángulo_31125" data-name="Rectángulo 31125" width="103.325" height="48.611" transform="translate(412.97)" fill="none" stroke="#e5e5e5" stroke-miterlimit="10" stroke-width="1"/>
          </g>
          <g id="Grupo_82012" data-name="Grupo 82012" transform="translate(0 48.781)">
            <rect id="Rectángulo_31126" data-name="Rectángulo 31126" width="103.325" height="48.611" fill="none" stroke="#e5e5e5" stroke-miterlimit="10" stroke-width="1"/>
            <rect id="Rectángulo_31127" data-name="Rectángulo 31127" width="103.325" height="48.611" transform="translate(103.077)" fill="none" stroke="#e5e5e5" stroke-miterlimit="10" stroke-width="1"/>
            <rect id="Rectángulo_31128" data-name="Rectángulo 31128" width="103.325" height="48.611" transform="translate(206.485)" fill="none" stroke="#e5e5e5" stroke-miterlimit="10" stroke-width="1"/>
            <rect id="Rectángulo_31129" data-name="Rectángulo 31129" width="103.325" height="48.611" transform="translate(309.563)" fill="none" stroke="#e5e5e5" stroke-miterlimit="10" stroke-width="1"/>
            <rect id="Rectángulo_31130" data-name="Rectángulo 31130" width="103.325" height="48.611" transform="translate(412.97)" fill="none" stroke="#e5e5e5" stroke-miterlimit="10" stroke-width="1"/>
          </g>
          <g id="Grupo_82013" data-name="Grupo 82013" transform="translate(0 97.563)">
            <rect id="Rectángulo_31131" data-name="Rectángulo 31131" width="103.325" height="48.611" fill="none" stroke="#e5e5e5" stroke-miterlimit="10" stroke-width="1"/>
            <rect id="Rectángulo_31132" data-name="Rectángulo 31132" width="103.325" height="48.611" transform="translate(103.077)" fill="none" stroke="#e5e5e5" stroke-miterlimit="10" stroke-width="1"/>
            <rect id="Rectángulo_31133" data-name="Rectángulo 31133" width="103.325" height="48.611" transform="translate(206.485)" fill="none" stroke="#e5e5e5" stroke-miterlimit="10" stroke-width="1"/>
            <rect id="Rectángulo_31134" data-name="Rectángulo 31134" width="103.325" height="48.611" transform="translate(309.563)" fill="none" stroke="#e5e5e5" stroke-miterlimit="10" stroke-width="1"/>
            <rect id="Rectángulo_31135" data-name="Rectángulo 31135" width="103.325" height="48.611" transform="translate(412.97)" fill="none" stroke="#e5e5e5" stroke-miterlimit="10" stroke-width="1"/>
          </g>
          <g id="Grupo_82014" data-name="Grupo 82014" transform="translate(0 146.344)">
            <rect id="Rectángulo_31136" data-name="Rectángulo 31136" width="103.325" height="48.611" fill="none" stroke="#e5e5e5" stroke-miterlimit="10" stroke-width="1"/>
            <rect id="Rectángulo_31137" data-name="Rectángulo 31137" width="103.325" height="48.611" transform="translate(103.077)" fill="none" stroke="#e5e5e5" stroke-miterlimit="10" stroke-width="1"/>
            <rect id="Rectángulo_31138" data-name="Rectángulo 31138" width="103.325" height="48.611" transform="translate(206.485)" fill="none" stroke="#e5e5e5" stroke-miterlimit="10" stroke-width="1"/>
            <rect id="Rectángulo_31139" data-name="Rectángulo 31139" width="103.325" height="48.611" transform="translate(309.563)" fill="none" stroke="#e5e5e5" stroke-miterlimit="10" stroke-width="1"/>
            <rect id="Rectángulo_31140" data-name="Rectángulo 31140" width="103.325" height="48.611" transform="translate(412.97)" fill="none" stroke="#e5e5e5" stroke-miterlimit="10" stroke-width="1"/>
          </g>
        </g>
        <path id="Trazado_140003" data-name="Trazado 140003" d="M960.852,3192.048H443.712V2949.77" transform="translate(-443.712 -2948.981)" fill="none" stroke="#585858" stroke-linecap="round" stroke-linejoin="round" stroke-width="2"/>
      </g>
      <text id="_0" data-name="0" transform="translate(530.846 6185.098)" fill="#12263f" font-size="20" font-family="Roboto-Regular, Roboto"><tspan x="0" y="0">0</tspan></text>
      <text id="_0-2" data-name="0" transform="translate(550.697 6206.754)" fill="#12263f" font-size="20" font-family="Roboto-Regular, Roboto"><tspan x="0" y="0">0</tspan></text>
      <text id="_10" data-name="10" transform="translate(751.017 6206.754)" fill="#12263f" font-size="20" font-family="Roboto-Regular, Roboto"><tspan x="0" y="0">10</tspan></text>
      <text id="_5" data-name="5" transform="translate(652.661 6206.754)" fill="#12263f" font-size="20" font-family="Roboto-Regular, Roboto"><tspan x="0" y="0">5</tspan></text>
      <text id="_15" data-name="15" transform="translate(854.785 6206.754)" fill="#12263f" font-size="20" font-family="Roboto-Regular, Roboto"><tspan x="0" y="0">15</tspan></text>
      <text id="_20" data-name="20" transform="translate(959.457 6206.754)" fill="#12263f" font-size="20" font-family="Roboto-Regular, Roboto"><tspan x="0" y="0">20</tspan></text>
      <text id="_25" data-name="25" transform="translate(1063.226 6206.754)" fill="#12263f" font-size="20" font-family="Roboto-Regular, Roboto"><tspan x="0" y="0">25</tspan></text>
      <text id="_10-2" data-name="10" transform="translate(519.002 6138.08)" fill="#12263f" font-size="20" font-family="Roboto-Regular, Roboto"><tspan x="0" y="0">10</tspan></text>
      <text id="_20-2" data-name="20" transform="translate(519.002 6087.832)" fill="#12263f" font-size="20" font-family="Roboto-Regular, Roboto"><tspan x="0" y="0">20</tspan></text>
      <text id="_30" data-name="30" transform="translate(519.002 6040.813)" fill="#12263f" font-size="20" font-family="Roboto-Regular, Roboto"><tspan x="0" y="0">30</tspan></text>
      <text id="_40" data-name="40" transform="translate(519.002 5991.641)" fill="#12263f" font-size="20" font-family="Roboto-Regular, Roboto"><tspan x="0" y="0">40</tspan></text>
      <text id="_50" data-name="50" transform="translate(519.002 5943.186)" fill="#12263f" font-size="20" font-family="Roboto-Regular, Roboto"><tspan x="0" y="0">50</tspan></text>
      <line id="Línea_1549" data-name="Línea 1549" x2="308.6" y2="145.276" transform="translate(660.446 5986.57)" fill="none" stroke="#a81a21" stroke-linecap="round" stroke-miterlimit="10" stroke-width="4"/>
    </g>
  </g>
</svg>
