<svg xmlns="http://www.w3.org/2000/svg" width="182.843" height="161.927" viewBox="0 0 182.843 161.927">
  <g id="ley" transform="translate(0 -29.284)">
    <g id="Grupo_82251" data-name="Grupo 82251" transform="translate(2.678 31.958)">
      <g id="Grupo_82247" data-name="Grupo 82247" transform="translate(0 63.175)">
        <g id="Grupo_82245" data-name="Grupo 82245" transform="translate(0 21.029)">
          <path id="Trazado_140691" data-name="Trazado 140691" d="M79.871,281.439,71,272.564,10.578,328.338A9.567,9.567,0,1,0,24.1,341.857Z" transform="translate(-7.5 -272.564)" fill="#873f30"/>
        </g>
        <path id="Trazado_140693" data-name="Trazado 140693" d="M197.837,213.677,177.4,238.055l8.349,8.349,24.378-20.437Z" transform="translate(-116.727 -213.677)" fill="#873f30"/>
        <g id="Grupo_82246" data-name="Grupo 82246" transform="translate(54.196 19.1)">
          <path id="Trazado_140695" data-name="Trazado 140695" d="M169.124,285.509l-8.1-8.1a6,6,0,1,1,8.485-8.485l8.1,8.1a6,6,0,0,1-8.485,8.485Z" transform="translate(-159.262 -267.162)" fill="#97181a"/>
        </g>
      </g>
      <g id="Grupo_82248" data-name="Grupo 82248" transform="translate(63.449 7.456)">
        <path id="Trazado_140697" data-name="Trazado 140697" d="M0,0H25.452V39.959H0Z" transform="translate(28.251 0) rotate(45)" fill="#97181a"/>
        <path id="Trazado_140698" data-name="Trazado 140698" d="M0,0H25.452V39.959H0Z" transform="translate(57.41 85.689) rotate(-135)" fill="#97181a"/>
      </g>
      <g id="Grupo_82250" data-name="Grupo 82250" transform="translate(55.984 0)">
        <path id="Trazado_140699" data-name="Trazado 140699" d="M166.671,78.681l-.625-.625a6.07,6.07,0,0,1,0-8.584L196.968,38.55a6.07,6.07,0,0,1,8.584,0l.625.625a6.07,6.07,0,0,1,0,8.584L175.254,78.681A6.069,6.069,0,0,1,166.671,78.681Z" transform="translate(-164.268 -36.772)" fill="#873f30"/>
        <path id="Trazado_140700" data-name="Trazado 140700" d="M325.393,237.4l.625.625a6.07,6.07,0,0,0,8.584,0l30.923-30.922a6.07,6.07,0,0,0,0-8.584l-.625-.625a6.07,6.07,0,0,0-8.584,0L325.393,228.82A6.069,6.069,0,0,0,325.393,237.4Z" transform="translate(-266.71 -139.215)" fill="#6c3328"/>
        <g id="Grupo_82249" data-name="Grupo 82249" transform="translate(15.628 15.628)">
          <path id="Trazado_140701" data-name="Trazado 140701" d="M0,0H28.583V60.35H0Z" transform="translate(45.893 3.212) rotate(45)" fill="#fed947"/>
          <path id="Trazado_140703" data-name="Trazado 140703" d="M254.02,82.9l-4.951-2.024a4.552,4.552,0,0,0-4.941.995l-34.765,34.765a4.552,4.552,0,0,0-.995,4.941l2.024,4.951a3.035,3.035,0,0,0,4.955,1l39.67-39.67A3.035,3.035,0,0,0,254.02,82.9Z" transform="translate(-208.03 -80.534)" fill="#873f30"/>
          <path id="Trazado_140704" data-name="Trazado 140704" d="M313.632,142.509l2.024,4.951a4.552,4.552,0,0,1-.995,4.941L279.9,187.166a4.552,4.552,0,0,1-4.941.995L270,186.137a3.035,3.035,0,0,1-1-4.955l39.67-39.67A3.035,3.035,0,0,1,313.632,142.509Z" transform="translate(-246.659 -119.163)" fill="#6c3328"/>
        </g>
      </g>
    </g>
    <g id="Grupo_82254" data-name="Grupo 82254" transform="translate(0 29.285)">
      <g id="Grupo_82252" data-name="Grupo 82252" transform="translate(85.878 124.733)">
        <path id="Trazado_140705" data-name="Trazado 140705" d="M314.19,392.775H240.477V382.431a3.867,3.867,0,0,1,3.867-3.867h65.979a3.867,3.867,0,0,1,3.867,3.867Z" transform="translate(-240.477 -378.564)" fill="#97181a"/>
      </g>
      <path id="Trazado_140707" data-name="Trazado 140707" d="M294.221,429.616h-106.2a3.867,3.867,0,0,1-3.516-5.477l3.754-8.2a19.969,19.969,0,0,1,18.156-11.654h69.414a19.969,19.969,0,0,1,18.156,11.654l3.754,8.2A3.866,3.866,0,0,1,294.221,429.616Z" transform="translate(-118.384 -270.368)" fill="#873f30"/>
      <g id="Grupo_82253" data-name="Grupo 82253">
        <path id="Trazado_140709" data-name="Trazado 140709" d="M124.733,51.631a5.7,5.7,0,0,0-3.439-4.161l-4.951-2.024a7.214,7.214,0,0,0-7.849,1.58l-1.361,1.361L103,44.25a8.757,8.757,0,0,0-.532-11.783l-.625-.625a8.759,8.759,0,0,0-12.371,0L58.546,62.765a8.759,8.759,0,0,0,0,12.372l.625.625a8.746,8.746,0,0,0,11.785.534l4.134,4.134L73.73,81.791a7.214,7.214,0,0,0-1.58,7.849l2.024,4.951a5.7,5.7,0,0,0,3.771,3.345l-11.92,14.218A8.664,8.664,0,0,0,54.7,123.11L3.939,169.969a12.246,12.246,0,0,0,8.3,21.243l.253,0a12.141,12.141,0,0,0,8.753-3.937l25.419-27.535a2.678,2.678,0,0,0-3.936-3.634L17.307,183.639A6.889,6.889,0,1,1,7.573,173.9l50.283-46.418,5.87,5.87L51.3,146.815a2.678,2.678,0,1,0,3.936,3.633L68.09,136.525a8.684,8.684,0,0,0,10.974-11.343l14.212-11.914a5.7,5.7,0,0,0,3.345,3.771l4.951,2.024a7.216,7.216,0,0,0,7.849-1.58l1.361-1.361,4.137,4.137a8.757,8.757,0,0,0,.532,11.783l.625.625a8.758,8.758,0,0,0,12.371,0l30.922-30.923a8.759,8.759,0,0,0,0-12.371l-.625-.625a8.757,8.757,0,0,0-11.783-.532l-4.137-4.137,1.361-1.361a7.214,7.214,0,0,0,1.58-7.849l-2.024-4.951a5.7,5.7,0,0,0-4.161-3.439c-.111-.182-14.663-14.737-14.85-14.848ZM81.854,101.611l7.748,7.748L75.823,120.91l-5.52-5.52Zm70.706-10.069a3.37,3.37,0,0,1,2.4.993l.625.625a3.4,3.4,0,0,1,0,4.8L124.66,128.878a3.4,3.4,0,0,1-4.8,0l-.625-.625a3.4,3.4,0,0,1,0-4.8l30.922-30.922a3.372,3.372,0,0,1,2.4-.993Zm-9.413.433-24.468,24.468-4.108-4.108,24.468-24.468ZM140.4,78.93,105.634,113.7a1.869,1.869,0,0,1-2.034.409l-4.951-2.024a.357.357,0,0,1-.117-.582l39.67-39.67a.331.331,0,0,1,.243-.106.409.409,0,0,1,.08.008.333.333,0,0,1,.26.215l2.024,4.951a1.869,1.869,0,0,1-.409,2.034Zm-6.377-10.5L95.136,107.319,83.894,96.076,122.78,57.19ZM65.357,72.967a3.367,3.367,0,0,1-2.4-.993h0l-.625-.625a3.4,3.4,0,0,1,0-4.8L93.256,35.63a3.4,3.4,0,0,1,4.8,0l.625.625a3.392,3.392,0,0,1,0,4.8L67.755,71.974a3.37,3.37,0,0,1-2.4.993Zm12.16,12.611,19.12-19.12a2.678,2.678,0,1,0-3.788-3.788L78.879,76.642,74.77,72.534,99.238,48.066l4.108,4.108-1.559,1.559a2.678,2.678,0,0,0,3.788,3.788l6.707-6.707a1.868,1.868,0,0,1,2.034-.409l4.951,2.024a.357.357,0,0,1,.118.582L79.714,92.681a.356.356,0,0,1-.582-.117l-2.024-4.951a1.869,1.869,0,0,1,.409-2.034ZM60.526,117.885a3.325,3.325,0,0,1,4.7,0l8.1,8.1a3.321,3.321,0,0,1-4.7,4.7l-8.1-8.1A3.326,3.326,0,0,1,60.526,117.885Z" transform="translate(0 -29.285)"/>
        <path id="Trazado_140710" data-name="Trazado 140710" d="M291.6,393.468a22.717,22.717,0,0,0-15.764-12.693v-3.165a6.553,6.553,0,0,0-6.545-6.545H223.4a2.678,2.678,0,1,0,0,5.357h45.887a1.19,1.19,0,0,1,1.188,1.188v2.641H202.12v-2.641a1.19,1.19,0,0,1,1.188-1.188h7.452a2.678,2.678,0,0,0,0-5.357h-7.452a6.553,6.553,0,0,0-6.545,6.545v3.165A22.718,22.718,0,0,0,181,393.468l-3.755,8.2a6.545,6.545,0,0,0,5.951,9.271H289.4a6.545,6.545,0,0,0,5.951-9.271Zm-1.2,11.565a1.158,1.158,0,0,1-1,.546H183.2a1.188,1.188,0,0,1-1.081-1.683l3.755-8.2a17.335,17.335,0,0,1,15.721-10.091h69.414A17.335,17.335,0,0,1,286.726,395.7l3.755,8.2A1.156,1.156,0,0,1,290.4,405.033Z" transform="translate(-113.564 -249.01)"/>
        <path id="Trazado_140711" data-name="Trazado 140711" d="M471.791,345.8a2.671,2.671,0,0,0,1.888-.779l2.9-2.881a2.678,2.678,0,1,0-3.776-3.8l-2.9,2.881a2.679,2.679,0,0,0,1.888,4.578Z" transform="translate(-301.586 -227.475)"/>
        <path id="Trazado_140712" data-name="Trazado 140712" d="M446.522,319.661l-1.005,4.008a2.679,2.679,0,1,0,5.2,1.3l1.005-4.008a2.679,2.679,0,0,0-5.2-1.3Z" transform="translate(-286.364 -214.66)"/>
        <path id="Trazado_140713" data-name="Trazado 140713" d="M485.833,370.946a2.674,2.674,0,0,0,3.238,1.965l4.015-.982a2.678,2.678,0,0,0-1.273-5.2l-4.015.982A2.678,2.678,0,0,0,485.833,370.946Z" transform="translate(-312.285 -246.171)"/>
      </g>
    </g>
  </g>
</svg>
