<svg xmlns="http://www.w3.org/2000/svg" width="190" height="189.978" viewBox="0 0 190 189.978">
  <g id="lucro" transform="translate(0.001 -0.029)">
    <path id="Trazado_139989" data-name="Trazado 139989" d="M406.514,404.839l35.114.375V361.022h-37.09Z" transform="translate(-254.412 -227.027)" fill="#f89580"/>
    <path id="Trazado_139990" data-name="Trazado 139990" d="M273.18,292.489a7.928,7.928,0,0,1-6.617-3.114l-14.3-18.917a10.056,10.056,0,1,0-16.055,12.114l15.644,20.617,13.53,17.83c11.158,14.694,21.088,11.582,34.334,10.222l5.41-12.755C305.131,294.328,280.658,292.235,273.18,292.489Z" transform="translate(-147.266 -167.552)" fill="#ffa78f"/>
    <path id="Trazado_139991" data-name="Trazado 139991" d="M278.2,292.489a7.928,7.928,0,0,1-6.617-3.114l-14.3-18.917a10.059,10.059,0,0,0-15.138-1.084,10.035,10.035,0,0,1,4.021,3.166l14.3,18.917a7.928,7.928,0,0,0,6.617,3.114c7.478-.254,31.951,1.838,31.951,26l-5.011,11.816c3.371-.215,6.907-.751,10.719-1.142l5.41-12.754C310.155,294.328,285.682,292.235,278.2,292.489Z" transform="translate(-152.29 -167.552)" fill="#f89580"/>
    <path id="Trazado_139992" data-name="Trazado 139992" d="M63.821,339.726,23.748,318.82a11.115,11.115,0,0,0-10.3,19.7l40.073,20.906a11.115,11.115,0,0,0,10.3-19.7Z" transform="translate(-4.706 -199.693)" fill="#f89580"/>
    <path id="Trazado_139993" data-name="Trazado 139993" d="M196.532,370.835c0-17.991-13.895-28.75-32.81-27.288S117.4,363.633,117.4,363.633L73.726,329.368A11.109,11.109,0,1,0,59.99,346.831l55.63,43.648a11.132,11.132,0,0,0,8.491,2.253l42.266-6.229,20.779-3.062C193.231,382.545,196.532,376.967,196.532,370.835Z" transform="translate(-35.055 -205.628)" fill="#ffa78f"/>
    <g id="Grupo_82005" data-name="Grupo 82005" transform="translate(78.657 137.918)">
      <path id="Trazado_139994" data-name="Trazado 139994" d="M268.557,371.593c8.473,4.427,13.751,12.76,13.751,23.844,0,6.132-3.3,11.71-9.376,12.605L252.154,411.1l-40.2,5.924,1.907,1.5a11.132,11.132,0,0,0,8.491,2.253l42.266-6.229,20.779-3.062c6.074-.9,9.376-6.473,9.376-12.605C294.775,383.056,284.021,372.831,268.557,371.593Z" transform="translate(-211.955 -371.593)" fill="#f89580"/>
    </g>
    <path id="Trazado_139995" data-name="Trazado 139995" d="M124.406,11.372l13.13,26.6a7.032,7.032,0,0,0,5.295,3.847l29.36,4.266a7.032,7.032,0,0,1,3.9,11.994L154.843,78.793a7.032,7.032,0,0,0-2.023,6.224l5.015,29.241a7.032,7.032,0,0,1-10.2,7.413l-26.26-13.806a7.032,7.032,0,0,0-6.544,0l-26.26,13.806a7.032,7.032,0,0,1-10.2-7.413L83.38,85.017a7.032,7.032,0,0,0-2.023-6.224L60.112,58.084a7.032,7.032,0,0,1,3.9-11.994l29.36-4.266a7.032,7.032,0,0,0,5.295-3.847l13.13-26.6a7.032,7.032,0,0,1,12.612,0Z" transform="translate(-36.465 -4.669)" fill="#fed947"/>
    <g id="Grupo_82006" data-name="Grupo 82006" transform="translate(75.718 2.785)" style="mix-blend-mode: multiply;isolation: isolate">
      <path id="Trazado_139996" data-name="Trazado 139996" d="M267.941,58.087a7.032,7.032,0,0,0-3.9-11.994l-29.36-4.266a7.032,7.032,0,0,1-5.295-3.847l-13.13-26.6a7.032,7.032,0,0,0-12.223-.683,7.163,7.163,0,0,1,1.09,1.615l13.13,26.6a7.032,7.032,0,0,0,5.295,3.847l29.36,4.266a7.032,7.032,0,0,1,3.9,11.994L235.563,79.728a7.032,7.032,0,0,0-2.023,6.224l5.015,29.241a6.9,6.9,0,0,1-1.247,5.336l2.177,1.144a7.032,7.032,0,0,0,10.2-7.413L244.674,85.02A7.032,7.032,0,0,1,246.7,78.8Z" transform="translate(-204.036 -7.457)" fill="#fed947"/>
    </g>
    <g id="Grupo_82007" data-name="Grupo 82007" transform="translate(-0.001 0.029)">
      <path id="Trazado_139997" data-name="Trazado 139997" d="M201.165,153.384a2.783,2.783,0,0,0,2.783-2.783v-3.232a13.633,13.633,0,0,0,10.7-11.184c1.04-6.184-2.2-11.561-8.241-13.7-.808-.286-1.635-.585-2.459-.9V108.429a8.483,8.483,0,0,1,3.416,1.64,2.783,2.783,0,0,0,3.755-4.11,14.373,14.373,0,0,0-7.171-3.194v-2.689a2.783,2.783,0,0,0-5.567,0v2.9c-.413.091-.832.2-1.261.325a11.335,11.335,0,0,0-7.764,8.892c-1.156,7.229,2.872,10.453,9.025,13.131v16.689a11.447,11.447,0,0,1-6.08-2.281,2.783,2.783,0,0,0-3.047,4.658,16.721,16.721,0,0,0,9.127,3.2v3.01a2.783,2.783,0,0,0,2.783,2.784Zm-5.105-35.736a4.487,4.487,0,0,1-1.232-4.423,5.891,5.891,0,0,1,3.554-4.473v10.381A16.706,16.706,0,0,1,196.06,117.648Zm8.493,10.088a6.493,6.493,0,0,1,4.607,7.526,8.183,8.183,0,0,1-5.211,6.325V127.52C204.149,127.592,204.346,127.663,204.552,127.736Z" transform="translate(-118.229 -61.21)"/>
      <path id="Trazado_139998" data-name="Trazado 139998" d="M292.779,353.522H279.512a2.783,2.783,0,0,0,0,5.567H290v38.6l-32.3-.345a3.186,3.186,0,0,0-.436.03l-63.044,9.291a8.376,8.376,0,0,1-6.366-1.689l-15.493-12.157a2.783,2.783,0,0,0-3.436,4.379l15.493,12.157a13.967,13.967,0,0,0,10.614,2.817l62.828-9.259,34.895.373a2.783,2.783,0,0,0,2.813-2.783V356.305A2.784,2.784,0,0,0,292.779,353.522Z" transform="translate(-105.562 -222.339)"/>
      <path id="Trazado_139999" data-name="Trazado 139999" d="M56.576,162.488,26.657,139.013a8.326,8.326,0,1,1,10.3-13.083l43.669,34.265a2.781,2.781,0,0,0,3.282.112c.268-.182,27-18.224,44.974-19.613,9.167-.705,17.186,1.654,22.584,6.651,4.729,4.378,7.228,10.554,7.228,17.862a2.783,2.783,0,0,0,5.567,0c0-8.9-3.117-16.489-9.013-21.947-6.549-6.063-16.064-8.945-26.794-8.116a63.208,63.208,0,0,0-17.365,4.447L91.167,113.337a7.224,7.224,0,0,1-1.485-4.488l20.193,10.617a9.8,9.8,0,0,0,5,1.123l2.2,2.913a10.748,10.748,0,0,0,8.932,4.217c1.978-.068,19.513-.312,26.317,11.627a2.782,2.782,0,0,0,4.931-2.568h3.573a2.783,2.783,0,0,0,0-5.567H152.99a30.324,30.324,0,0,0-12.2-6.987,47.334,47.334,0,0,0-14.972-2.069,5.134,5.134,0,0,1-4.3-2.01l-1.163-1.539a9.75,9.75,0,0,0,3.76-9.487L119.1,79.878a4.248,4.248,0,0,1,1.222-3.76l21.245-20.709a9.815,9.815,0,0,0-5.439-16.742L106.769,34.4a4.249,4.249,0,0,1-3.2-2.325L101.2,27.269a2.783,2.783,0,0,0-4.992,2.464l2.372,4.807a9.814,9.814,0,0,0,7.39,5.37l29.359,4.266a4.248,4.248,0,0,1,2.354,7.247L116.437,72.131a9.813,9.813,0,0,0-2.823,8.688l5.015,29.241a4.249,4.249,0,0,1-6.164,4.479l-26.26-13.806a9.813,9.813,0,0,0-9.135,0l-26.26,13.806a4.249,4.249,0,0,1-6.164-4.479l5.015-29.241a9.815,9.815,0,0,0-2.823-8.688L25.594,51.422a4.248,4.248,0,0,1,2.355-7.247L57.308,39.91a9.815,9.815,0,0,0,7.39-5.37l13.13-26.6a4.257,4.257,0,0,1,7.62,0l5.01,10.152a2.783,2.783,0,0,0,4.992-2.464L90.44,5.472a9.838,9.838,0,0,0-17.6,0l-13.13,26.6a4.249,4.249,0,0,1-3.2,2.325L27.149,38.667a9.815,9.815,0,0,0-5.44,16.742L42.954,76.117a4.248,4.248,0,0,1,1.222,3.761L39.16,109.119A9.815,9.815,0,0,0,53.4,119.467l26.26-13.806a4.247,4.247,0,0,1,3.954,0l.832.437a12.909,12.909,0,0,0,2.285,10.6l19.052,25.109a181.4,181.4,0,0,0-23.3,12.766L40.393,121.551a13.922,13.922,0,0,0-14.142-1.8l-5.917-3.087A13.9,13.9,0,0,0,7.457,141.294l38.916,20.3c.037.019.075.033.113.05l6.654,5.221a2.784,2.784,0,0,0,3.436-4.38ZM5.947,131.476a8.339,8.339,0,0,1,11.812-9.881l3.506,1.829c-.131.153-.262.308-.387.467a13.942,13.942,0,0,0,1.837,19.083l-12.683-6.617a8.251,8.251,0,0,1-4.085-4.882Z" transform="translate(0.001 -0.029)"/>
    </g>
  </g>
</svg>
