<svg xmlns="http://www.w3.org/2000/svg" width="241.34" height="51.085" viewBox="0 0 241.34 51.085">
  <g id="Grupo_82930" data-name="Grupo 82930" transform="translate(-249.02 -509.684)">
    <path id="Trazado_141832" data-name="Trazado 141832" d="M4.2-4.834,3.359,0H.02L2.48-14.219l5.107.01a5.148,5.148,0,0,1,3.735,1.317,4.058,4.058,0,0,1,1.2,3.414A4.642,4.642,0,0,1,11.6-6.99,5.084,5.084,0,0,1,9.487-5.38a7.484,7.484,0,0,1-2.944.556Zm.459-2.637,2.012.02a2.482,2.482,0,0,0,1.943-.827,2.463,2.463,0,0,0,.537-1.963,1.5,1.5,0,0,0-.454-.945,1.556,1.556,0,0,0-.991-.387l-2.334-.01ZM18.77-3.906l4.355-10.312h3.828L20.078,0H16.426L14.043-14.219h3.613ZM38.994-14.219,37.412-4.941a5.834,5.834,0,0,1-1.987,3.8A6.057,6.057,0,0,1,31.279.205a5.654,5.654,0,0,1-2.7-.669A3.919,3.919,0,0,1,26.9-2.271a4.861,4.861,0,0,1-.366-2.661l1.582-9.287h3.359L29.9-4.914a4.473,4.473,0,0,0-.02.928,1.677,1.677,0,0,0,.454,1.124,1.661,1.661,0,0,0,1.147.43q2.148.068,2.588-2.492l1.582-9.295Zm19.7,7.168h-8.8l.449-2.539h8.789Zm-.742,4.287h-8.8L49.6-5.3h8.789ZM78.97-5.645H65.611l.719-2.578H79.689Zm14.7,0H80.309l.719-2.578H94.386Zm14.7,0H95.006l.719-2.578h13.359Zm14.7,0H109.7l.719-2.578h13.359Zm14.7,0H124.4l.719-2.578h13.359Zm14.7,0H139.1l.719-2.578h13.359Zm14.7,0H153.795l.719-2.578h13.359Zm14.7,0H168.492l.719-2.578H182.57Zm14.7,0H183.189l.719-2.578h13.359Zm14.7,0H197.887l.719-2.578h13.359Zm14.7,0H212.584l.719-2.578h13.359Zm14.7,0H227.281L228-8.223h13.359Z" transform="translate(249 541.73)" fill="#12263f"/>
    <path id="Trazado_141833" data-name="Trazado 141833" d="M13.359-14.219,11.777-4.941a5.834,5.834,0,0,1-1.987,3.8A6.057,6.057,0,0,1,5.645.205a5.654,5.654,0,0,1-2.7-.669A3.919,3.919,0,0,1,1.265-2.271,4.861,4.861,0,0,1,.9-4.932L2.48-14.219H5.84l-1.572,9.3a4.472,4.472,0,0,0-.02.928A1.677,1.677,0,0,0,4.7-2.862a1.661,1.661,0,0,0,1.147.43Q8-2.363,8.438-4.924l1.582-9.295Zm4.268,3.643L17.4-9.307a3.756,3.756,0,0,1,3.057-1.465,2.523,2.523,0,0,1,2.183,1.089,4.557,4.557,0,0,1,.522,3.032L22.051,0H18.828l1.123-6.678a3.454,3.454,0,0,0,.02-.626q-.068-.929-1.094-.929a2.008,2.008,0,0,0-1.553.753L16.006,0H12.793l1.836-10.566ZM27.285,0H24.063L25.9-10.566h3.223Zm-1.1-13.232a1.49,1.49,0,0,1,.5-1.191,1.806,1.806,0,0,1,1.265-.479,1.864,1.864,0,0,1,1.255.43,1.464,1.464,0,0,1,.522,1.123,1.493,1.493,0,0,1-.5,1.2,1.811,1.811,0,0,1-1.27.474,1.887,1.887,0,0,1-1.245-.425A1.447,1.447,0,0,1,26.182-13.232ZM29.854-5.3a7.685,7.685,0,0,1,1.523-4,3.775,3.775,0,0,1,3.184-1.455A2.88,2.88,0,0,1,36.8-9.629L37.822-15h3.223l-2.6,15H35.586l.137-1.143A3.3,3.3,0,0,1,33.1.205,2.911,2.911,0,0,1,30.708-.923,4.974,4.974,0,0,1,29.785-3.9a9.146,9.146,0,0,1,.039-1.2Zm3.2.225a7.669,7.669,0,0,0-.068,1.094q0,1.621,1.094,1.65a2.049,2.049,0,0,0,1.689-.908l.723-4.053a1.3,1.3,0,0,0-1.289-.928,1.643,1.643,0,0,0-1.45.776A5.007,5.007,0,0,0,33.057-5.078ZM46.289,0a2.865,2.865,0,0,1-.137-.957A3.259,3.259,0,0,1,43.564.2a3.184,3.184,0,0,1-2.285-.918A2.759,2.759,0,0,1,40.43-2.9a3.1,3.1,0,0,1,1.436-2.642,6.768,6.768,0,0,1,3.789-.923l1.074.02.117-.6.039-.518A.839.839,0,0,0,46-8.477a1.235,1.235,0,0,0-1.3,1.162l-3.223.01a3.06,3.06,0,0,1,.693-1.851,4.109,4.109,0,0,1,1.753-1.211,6.125,6.125,0,0,1,2.358-.4,4.723,4.723,0,0,1,2.1.5A3.133,3.133,0,0,1,49.736-8.94a3.368,3.368,0,0,1,.342,1.948l-.791,4.971-.049.605a2.669,2.669,0,0,0,.186,1.23L49.414,0ZM44.453-2.129A2.072,2.072,0,0,0,46.182-3L46.5-4.7l-.83-.01a2.188,2.188,0,0,0-1.328.454,1.722,1.722,0,0,0-.654,1.187.865.865,0,0,0,.151.659A.773.773,0,0,0,44.453-2.129ZM51.25-5.3a7.685,7.685,0,0,1,1.523-4,3.775,3.775,0,0,1,3.184-1.455,2.88,2.88,0,0,1,2.236,1.133L59.219-15h3.223l-2.6,15H56.982l.137-1.143A3.3,3.3,0,0,1,54.492.205,2.911,2.911,0,0,1,52.1-.923,4.974,4.974,0,0,1,51.182-3.9a9.146,9.146,0,0,1,.039-1.2Zm3.2.225a7.669,7.669,0,0,0-.068,1.094q0,1.621,1.094,1.65a2.049,2.049,0,0,0,1.689-.908l.723-4.053A1.3,1.3,0,0,0,56.6-8.223a1.643,1.643,0,0,0-1.45.776A5.007,5.007,0,0,0,54.453-5.078ZM66.982.2a4.912,4.912,0,0,1-2.524-.669A4.215,4.215,0,0,1,62.783-2.31,4.933,4.933,0,0,1,62.334-4.9l.029-.273A6.477,6.477,0,0,1,64.175-9.3a5.011,5.011,0,0,1,3.794-1.46,4.086,4.086,0,0,1,2.324.689,3.853,3.853,0,0,1,1.416,1.848A5.662,5.662,0,0,1,72-5.578l-.186,1.34H65.527A2.06,2.06,0,0,0,66-2.891a1.722,1.722,0,0,0,1.309.547,3.325,3.325,0,0,0,2.51-1.074l1.348,1.782A3.976,3.976,0,0,1,69.5-.306a5.848,5.848,0,0,1-2.339.5Zm.781-8.418a1.653,1.653,0,0,0-1.187.427A3.588,3.588,0,0,0,65.7-6.3h3.213l.059-.282a2.143,2.143,0,0,0,.02-.641A1.131,1.131,0,0,0,67.764-8.223Zm10.586,5.2q.127-.645-1-.967L76.66-4.17a5.34,5.34,0,0,1-2.49-1.26,2.494,2.494,0,0,1-.742-1.924A3.065,3.065,0,0,1,74.78-9.829a5.148,5.148,0,0,1,3.179-.933,4.769,4.769,0,0,1,3.022.947,3.09,3.09,0,0,1,1.177,2.5l-3.2-.01q.039-1.25-1.1-1.25a1.574,1.574,0,0,0-.908.288,1.119,1.119,0,0,0-.5.767q-.166.791,1.4,1.084a8.116,8.116,0,0,1,2.1.747,3.135,3.135,0,0,1,1.133,1.05,2.611,2.611,0,0,1,.361,1.5,2.824,2.824,0,0,1-.625,1.709,4.047,4.047,0,0,1-1.724,1.2A6.174,6.174,0,0,1,76.641.2a4.965,4.965,0,0,1-2.124-.479,3.787,3.787,0,0,1-1.533-1.274,3.31,3.31,0,0,1-.571-1.851l2.988.02A1.234,1.234,0,0,0,76.807-2a1.846,1.846,0,0,0,1.016-.269A1.161,1.161,0,0,0,78.35-3.027Zm13.789-.928,2.646-6.611h3.467L93.252,0H89.98L88.291-10.566h3.3ZM102.734.2a4.912,4.912,0,0,1-2.524-.669A4.215,4.215,0,0,1,98.535-2.31,4.933,4.933,0,0,1,98.086-4.9l.029-.273A6.477,6.477,0,0,1,99.927-9.3a5.011,5.011,0,0,1,3.794-1.46,4.086,4.086,0,0,1,2.324.689,3.853,3.853,0,0,1,1.416,1.848,5.662,5.662,0,0,1,.293,2.646l-.186,1.34h-6.289a2.06,2.06,0,0,0,.469,1.348,1.722,1.722,0,0,0,1.309.547,3.325,3.325,0,0,0,2.51-1.074l1.348,1.782a3.976,3.976,0,0,1-1.665,1.329,5.848,5.848,0,0,1-2.339.5Zm.781-8.418a1.653,1.653,0,0,0-1.187.427,3.588,3.588,0,0,0-.874,1.5h3.213l.059-.282a2.143,2.143,0,0,0,.02-.641A1.131,1.131,0,0,0,103.516-8.223Zm9.395-2.354-.225,1.27a3.756,3.756,0,0,1,3.057-1.465,2.523,2.523,0,0,1,2.183,1.089,4.557,4.557,0,0,1,.522,3.032L117.334,0h-3.223l1.123-6.678a3.454,3.454,0,0,0,.02-.626q-.068-.929-1.094-.929a2.008,2.008,0,0,0-1.553.753L111.289,0h-3.213l1.836-10.566Zm6.8,5.273a7.685,7.685,0,0,1,1.523-4,3.775,3.775,0,0,1,3.184-1.455,2.88,2.88,0,0,1,2.236,1.133L127.676-15H130.9L128.3,0h-2.861l.137-1.143A3.3,3.3,0,0,1,122.949.205a2.911,2.911,0,0,1-2.388-1.128,4.974,4.974,0,0,1-.923-2.974,9.146,9.146,0,0,1,.039-1.2Zm3.2.225a7.669,7.669,0,0,0-.068,1.094q0,1.621,1.094,1.65a2.049,2.049,0,0,0,1.689-.908l.723-4.053a1.3,1.3,0,0,0-1.289-.928,1.643,1.643,0,0,0-1.45.776A5.008,5.008,0,0,0,122.91-5.078ZM133.574,0h-3.223l1.836-10.566h3.223Zm-1.1-13.232a1.49,1.49,0,0,1,.5-1.191,1.806,1.806,0,0,1,1.265-.479,1.864,1.864,0,0,1,1.255.43,1.464,1.464,0,0,1,.522,1.123,1.493,1.493,0,0,1-.5,1.2,1.811,1.811,0,0,1-1.27.474A1.887,1.887,0,0,1,133-12.1,1.447,1.447,0,0,1,132.471-13.232Zm3.672,7.93a7.685,7.685,0,0,1,1.523-4,3.775,3.775,0,0,1,3.184-1.455,2.88,2.88,0,0,1,2.236,1.133L144.111-15h3.223l-2.6,15h-2.861l.137-1.143A3.3,3.3,0,0,1,139.385.205,2.911,2.911,0,0,1,137-.923a4.974,4.974,0,0,1-.923-2.974,9.147,9.147,0,0,1,.039-1.2Zm3.2.225a7.669,7.669,0,0,0-.068,1.094q0,1.621,1.094,1.65a2.049,2.049,0,0,0,1.689-.908l.723-4.053a1.3,1.3,0,0,0-1.289-.928,1.643,1.643,0,0,0-1.45.776A5.007,5.007,0,0,0,139.346-5.078ZM152.578,0a2.865,2.865,0,0,1-.137-.957A3.259,3.259,0,0,1,149.854.2a3.184,3.184,0,0,1-2.285-.918,2.759,2.759,0,0,1-.85-2.178,3.1,3.1,0,0,1,1.436-2.642,6.768,6.768,0,0,1,3.789-.923l1.074.02.117-.6.039-.518a.839.839,0,0,0-.889-.918,1.235,1.235,0,0,0-1.3,1.162l-3.223.01a3.06,3.06,0,0,1,.693-1.851,4.109,4.109,0,0,1,1.753-1.211,6.125,6.125,0,0,1,2.358-.4,4.723,4.723,0,0,1,2.1.5,3.133,3.133,0,0,1,1.353,1.318,3.368,3.368,0,0,1,.342,1.948l-.791,4.971-.049.605a2.669,2.669,0,0,0,.186,1.23L155.7,0Zm-1.836-2.129A2.072,2.072,0,0,0,152.471-3l.322-1.7-.83-.01a2.188,2.188,0,0,0-1.328.454,1.722,1.722,0,0,0-.654,1.187.865.865,0,0,0,.151.659A.773.773,0,0,0,150.742-2.129Zm12.227-.9q.127-.645-1-.967l-.693-.176a5.34,5.34,0,0,1-2.49-1.26,2.494,2.494,0,0,1-.742-1.924A3.065,3.065,0,0,1,159.4-9.829a5.148,5.148,0,0,1,3.179-.933,4.769,4.769,0,0,1,3.022.947,3.09,3.09,0,0,1,1.177,2.5l-3.2-.01q.039-1.25-1.1-1.25a1.574,1.574,0,0,0-.908.288,1.119,1.119,0,0,0-.5.767q-.166.791,1.4,1.084a8.116,8.116,0,0,1,2.1.747,3.135,3.135,0,0,1,1.133,1.05,2.611,2.611,0,0,1,.361,1.5,2.824,2.824,0,0,1-.625,1.709,4.047,4.047,0,0,1-1.724,1.2A6.174,6.174,0,0,1,161.26.2a4.965,4.965,0,0,1-2.124-.479A3.787,3.787,0,0,1,157.6-1.558a3.31,3.31,0,0,1-.571-1.851l2.988.02A1.234,1.234,0,0,0,161.426-2a1.846,1.846,0,0,0,1.016-.269A1.161,1.161,0,0,0,162.969-3.027Z" transform="translate(316.954 560.563)" fill="#12263f"/>
    <path id="Trazado_141834" data-name="Trazado 141834" d="M-24.854-3.906-20.5-14.219h3.828L-23.545,0H-27.2L-29.58-14.219h3.613ZM-12.861.2a4.912,4.912,0,0,1-2.524-.669A4.215,4.215,0,0,1-17.061-2.31,4.933,4.933,0,0,1-17.51-4.9l.029-.273A6.477,6.477,0,0,1-15.669-9.3a5.011,5.011,0,0,1,3.794-1.46,4.086,4.086,0,0,1,2.324.689A3.853,3.853,0,0,1-8.135-8.224a5.662,5.662,0,0,1,.293,2.646l-.186,1.34h-6.289a2.06,2.06,0,0,0,.469,1.348,1.722,1.722,0,0,0,1.309.547,3.325,3.325,0,0,0,2.51-1.074l1.348,1.782A3.976,3.976,0,0,1-10.347-.306a5.848,5.848,0,0,1-2.339.5Zm.781-8.418a1.653,1.653,0,0,0-1.187.427,3.588,3.588,0,0,0-.874,1.5h3.213l.059-.282a2.143,2.143,0,0,0,.02-.641A1.131,1.131,0,0,0-12.08-8.223Zm9.395-2.354-.225,1.27A3.756,3.756,0,0,1,.146-10.771,2.523,2.523,0,0,1,2.329-9.683,4.557,4.557,0,0,1,2.852-6.65L1.738,0H-1.484L-.361-6.678A3.454,3.454,0,0,0-.342-7.3q-.068-.929-1.094-.929a2.008,2.008,0,0,0-1.553.753L-4.307,0H-7.52l1.836-10.566ZM9.609-13.193,9.15-10.566H10.84l-.4,2.285H8.75L7.93-3.428a1.294,1.294,0,0,0,.063.752q.132.254.659.273a7.637,7.637,0,0,0,.84-.049L9.258-.068A5.192,5.192,0,0,1,7.529.176,2.847,2.847,0,0,1,5.293-.7a3,3,0,0,1-.605-2.334l.859-5.244H4.238l.391-2.285H5.938L6.4-13.193ZM16.3,0a2.865,2.865,0,0,1-.137-.957A3.259,3.259,0,0,1,13.574.2a3.184,3.184,0,0,1-2.285-.918,2.759,2.759,0,0,1-.85-2.178,3.1,3.1,0,0,1,1.436-2.642,6.768,6.768,0,0,1,3.789-.923l1.074.02.117-.6.039-.518a.839.839,0,0,0-.889-.918,1.235,1.235,0,0,0-1.3,1.162l-3.223.01a3.06,3.06,0,0,1,.693-1.851,4.109,4.109,0,0,1,1.753-1.211,6.125,6.125,0,0,1,2.358-.4,4.723,4.723,0,0,1,2.1.5A3.133,3.133,0,0,1,19.746-8.94a3.368,3.368,0,0,1,.342,1.948L19.3-2.021l-.049.605a2.669,2.669,0,0,0,.186,1.23L19.424,0ZM14.463-2.129A2.072,2.072,0,0,0,16.191-3l.322-1.7-.83-.01a2.188,2.188,0,0,0-1.328.454A1.722,1.722,0,0,0,13.7-3.066a.865.865,0,0,0,.151.659A.773.773,0,0,0,14.463-2.129Zm12.227-.9q.127-.645-1-.967L25-4.17a5.34,5.34,0,0,1-2.49-1.26,2.494,2.494,0,0,1-.742-1.924A3.065,3.065,0,0,1,23.12-9.829a5.148,5.148,0,0,1,3.179-.933,4.769,4.769,0,0,1,3.022.947,3.09,3.09,0,0,1,1.177,2.5l-3.2-.01q.039-1.25-1.1-1.25a1.574,1.574,0,0,0-.908.288,1.119,1.119,0,0,0-.5.767q-.166.791,1.4,1.084a8.116,8.116,0,0,1,2.1.747,3.135,3.135,0,0,1,1.133,1.05,2.611,2.611,0,0,1,.361,1.5,2.824,2.824,0,0,1-.625,1.709,4.047,4.047,0,0,1-1.724,1.2A6.174,6.174,0,0,1,24.98.2a4.965,4.965,0,0,1-2.124-.479,3.787,3.787,0,0,1-1.533-1.274,3.31,3.31,0,0,1-.571-1.851l2.988.02A1.234,1.234,0,0,0,25.146-2a1.846,1.846,0,0,0,1.016-.269A1.161,1.161,0,0,0,26.689-3.027Z" transform="translate(401 523.902)" fill="#12263f"/>
  </g>
</svg>
