<svg xmlns="http://www.w3.org/2000/svg" width="287.188" height="15.207" viewBox="0 0 287.188 15.207">
  <path id="Trazado_141832" data-name="Trazado 141832" d="M6.816-14.219,8.174-4.355l4.766-9.863h4.453L14.932,0H11.572l.605-3.486,1.445-6.426L8.643,0H6.426L4.814-10.283l-.9,7.129L3.359,0H.02L2.48-14.219ZM29.033-4.844a5.127,5.127,0,0,1-.981,2.656A5.551,5.551,0,0,1,25.806-.4a6.954,6.954,0,0,1-3.013.6A4.683,4.683,0,0,1,19.287-1.24,5.77,5.77,0,0,1,17.891-5a12.245,12.245,0,0,1,.347-3.447,9.112,9.112,0,0,1,1.416-3.247,6.506,6.506,0,0,1,2.314-2.07,6.008,6.008,0,0,1,2.915-.659,5.086,5.086,0,0,1,3.677,1.4,5.467,5.467,0,0,1,1.47,3.74L26.7-9.3a2.739,2.739,0,0,0-.469-1.855,2.058,2.058,0,0,0-1.543-.6q-2.637-.088-3.213,4.1a22.537,22.537,0,0,0-.264,2.705q-.049,2.4,1.777,2.471a2.609,2.609,0,0,0,1.885-.581,2.906,2.906,0,0,0,.9-1.753ZM42.52-11.572H38.379L36.377,0h-3.35l2.012-11.572H30.967l.469-2.646H42.979Zm14,4.521h-8.8l.449-2.539h8.789Zm-.742,4.287h-8.8L47.432-5.3h8.789ZM68.75-3.906l4.355-10.312h3.828L70.059,0H66.406L64.023-14.219h3.613ZM80.742.2a4.912,4.912,0,0,1-2.524-.669A4.215,4.215,0,0,1,76.543-2.31,4.933,4.933,0,0,1,76.094-4.9l.029-.273A6.477,6.477,0,0,1,77.935-9.3a5.011,5.011,0,0,1,3.794-1.46,4.086,4.086,0,0,1,2.324.689,3.853,3.853,0,0,1,1.416,1.848,5.662,5.662,0,0,1,.293,2.646l-.186,1.34H79.287a2.06,2.06,0,0,0,.469,1.348,1.722,1.722,0,0,0,1.309.547,3.325,3.325,0,0,0,2.51-1.074l1.348,1.782A3.976,3.976,0,0,1,83.257-.306a5.848,5.848,0,0,1-2.339.5Zm.781-8.418a1.653,1.653,0,0,0-1.187.427,3.588,3.588,0,0,0-.874,1.5h3.213l.059-.282a2.143,2.143,0,0,0,.02-.641A1.131,1.131,0,0,0,81.523-8.223Zm9.395-2.354-.225,1.27a3.756,3.756,0,0,1,3.057-1.465,2.523,2.523,0,0,1,2.183,1.089,4.557,4.557,0,0,1,.522,3.032L95.342,0H92.119l1.123-6.678a3.454,3.454,0,0,0,.02-.626q-.068-.929-1.094-.929a2.008,2.008,0,0,0-1.553.753L89.3,0H86.084L87.92-10.566Zm12.295-2.617-.459,2.627h1.689l-.4,2.285h-1.689l-.82,4.854a1.294,1.294,0,0,0,.063.752q.132.254.659.273a7.637,7.637,0,0,0,.84-.049l-.234,2.383a5.192,5.192,0,0,1-1.729.244A2.847,2.847,0,0,1,98.9-.7a3,3,0,0,1-.605-2.334l.859-5.244H97.842l.391-2.285h1.309L100-13.193ZM109.9,0a2.865,2.865,0,0,1-.137-.957A3.259,3.259,0,0,1,107.178.2a3.184,3.184,0,0,1-2.285-.918,2.759,2.759,0,0,1-.85-2.178,3.1,3.1,0,0,1,1.436-2.642,6.768,6.768,0,0,1,3.789-.923l1.074.02.117-.6.039-.518a.839.839,0,0,0-.889-.918,1.235,1.235,0,0,0-1.3,1.162l-3.223.01a3.061,3.061,0,0,1,.693-1.851,4.109,4.109,0,0,1,1.753-1.211,6.125,6.125,0,0,1,2.358-.4,4.723,4.723,0,0,1,2.1.5A3.133,3.133,0,0,1,113.35-8.94a3.368,3.368,0,0,1,.342,1.948L112.9-2.021l-.049.605a2.669,2.669,0,0,0,.186,1.23l-.01.186Zm-1.836-2.129A2.072,2.072,0,0,0,109.795-3l.322-1.7-.83-.01a2.188,2.188,0,0,0-1.328.454,1.722,1.722,0,0,0-.654,1.187.865.865,0,0,0,.151.659A.773.773,0,0,0,108.066-2.129Zm12.227-.9q.127-.645-1-.967L118.6-4.17a5.34,5.34,0,0,1-2.49-1.26,2.494,2.494,0,0,1-.742-1.924,3.065,3.065,0,0,1,1.353-2.476,5.148,5.148,0,0,1,3.179-.933,4.769,4.769,0,0,1,3.022.947,3.09,3.09,0,0,1,1.177,2.5l-3.2-.01q.039-1.25-1.1-1.25a1.574,1.574,0,0,0-.908.288,1.119,1.119,0,0,0-.5.767q-.166.791,1.4,1.084a8.116,8.116,0,0,1,2.1.747,3.135,3.135,0,0,1,1.133,1.05,2.611,2.611,0,0,1,.361,1.5,2.824,2.824,0,0,1-.625,1.709,4.047,4.047,0,0,1-1.724,1.2,6.174,6.174,0,0,1-2.446.42,4.965,4.965,0,0,1-2.124-.479,3.787,3.787,0,0,1-1.533-1.274,3.31,3.31,0,0,1-.571-1.851l2.988.02A1.234,1.234,0,0,0,118.75-2a1.846,1.846,0,0,0,1.016-.269A1.161,1.161,0,0,0,120.293-3.027Zm16.113-1.836h-5.713l.439-2.539h5.713Zm11.543,2.52a1.382,1.382,0,0,0,1.084-.383,1.907,1.907,0,0,0,.5-1.043l3.008-.01a3.954,3.954,0,0,1-.688,2.08,4.161,4.161,0,0,1-1.7,1.421,5.023,5.023,0,0,1-2.29.474,3.967,3.967,0,0,1-3.252-1.519,5.251,5.251,0,0,1-.928-3.823l.029-.234a7.079,7.079,0,0,1,.9-2.837,5.14,5.14,0,0,1,1.9-1.909,4.926,4.926,0,0,1,2.632-.635,3.929,3.929,0,0,1,2.915,1.177,4.173,4.173,0,0,1,1.03,3.071l-3.008-.01q.049-1.67-1.2-1.7-1.7-.059-1.953,2.852l-.088.993-.01.37Q146.826-2.373,147.949-2.344Zm11.445-8.418a4.438,4.438,0,0,1,2.451.708,3.989,3.989,0,0,1,1.519,1.919,5.922,5.922,0,0,1,.347,2.734l-.02.215a6.262,6.262,0,0,1-1.807,3.926A5.083,5.083,0,0,1,158.1.2a4.419,4.419,0,0,1-2.432-.7,4.014,4.014,0,0,1-1.519-1.9,5.755,5.755,0,0,1-.356-2.715,6.514,6.514,0,0,1,1.782-4.141A5.052,5.052,0,0,1,159.395-10.762ZM157-5.113l-.029.575q-.137,2.174,1.328,2.213,1.895.059,2.2-3.071l.039-.887a2.394,2.394,0,0,0-.327-1.4,1.192,1.192,0,0,0-1.021-.541,1.68,1.68,0,0,0-1.46.726A4.753,4.753,0,0,0,157-5.113Zm13.184,2.085q.127-.645-1-.967L168.5-4.17a5.34,5.34,0,0,1-2.49-1.26,2.494,2.494,0,0,1-.742-1.924,3.065,3.065,0,0,1,1.353-2.476,5.148,5.148,0,0,1,3.179-.933,4.769,4.769,0,0,1,3.022.947,3.09,3.09,0,0,1,1.177,2.5l-3.2-.01q.039-1.25-1.1-1.25a1.574,1.574,0,0,0-.908.288,1.119,1.119,0,0,0-.5.767q-.166.791,1.4,1.084a8.116,8.116,0,0,1,2.1.747,3.135,3.135,0,0,1,1.133,1.05,2.611,2.611,0,0,1,.361,1.5,2.824,2.824,0,0,1-.625,1.709,4.047,4.047,0,0,1-1.724,1.2,6.174,6.174,0,0,1-2.446.42,4.965,4.965,0,0,1-2.124-.479,3.787,3.787,0,0,1-1.533-1.274,3.31,3.31,0,0,1-.571-1.851l2.988.02A1.234,1.234,0,0,0,168.643-2a1.846,1.846,0,0,0,1.016-.269A1.161,1.161,0,0,0,170.186-3.027Zm10.107-10.166-.459,2.627h1.689l-.4,2.285h-1.689l-.82,4.854a1.294,1.294,0,0,0,.063.752q.132.254.659.273a7.637,7.637,0,0,0,.84-.049l-.234,2.383a5.192,5.192,0,0,1-1.729.244A2.847,2.847,0,0,1,175.977-.7a3,3,0,0,1-.605-2.334l.859-5.244h-1.309l.391-2.285h1.309l.459-2.627Zm6.6,2.432a4.438,4.438,0,0,1,2.451.708,3.989,3.989,0,0,1,1.519,1.919,5.922,5.922,0,0,1,.347,2.734l-.02.215a6.262,6.262,0,0,1-1.807,3.926A5.083,5.083,0,0,1,185.6.2a4.419,4.419,0,0,1-2.432-.7,4.014,4.014,0,0,1-1.519-1.9,5.755,5.755,0,0,1-.356-2.715,6.514,6.514,0,0,1,1.782-4.141A5.052,5.052,0,0,1,186.895-10.762ZM184.5-5.113l-.029.575q-.137,2.174,1.328,2.213Q187.7-2.266,188-5.4l.039-.887a2.394,2.394,0,0,0-.327-1.4,1.192,1.192,0,0,0-1.021-.541,1.68,1.68,0,0,0-1.46.726A4.753,4.753,0,0,0,184.5-5.113Zm13.184,2.085q.127-.645-1-.967L196-4.17a5.34,5.34,0,0,1-2.49-1.26,2.494,2.494,0,0,1-.742-1.924,3.065,3.065,0,0,1,1.353-2.476,5.148,5.148,0,0,1,3.179-.933,4.769,4.769,0,0,1,3.022.947,3.09,3.09,0,0,1,1.177,2.5l-3.2-.01q.039-1.25-1.1-1.25a1.574,1.574,0,0,0-.908.288,1.119,1.119,0,0,0-.5.767q-.166.791,1.4,1.084a8.116,8.116,0,0,1,2.1.747,3.135,3.135,0,0,1,1.133,1.05,2.611,2.611,0,0,1,.361,1.5,2.824,2.824,0,0,1-.625,1.709,4.047,4.047,0,0,1-1.724,1.2,6.174,6.174,0,0,1-2.446.42,4.965,4.965,0,0,1-2.124-.479,3.787,3.787,0,0,1-1.533-1.274,3.31,3.31,0,0,1-.571-1.851l2.988.02A1.234,1.234,0,0,0,196.143-2a1.846,1.846,0,0,0,1.016-.269A1.161,1.161,0,0,0,197.686-3.027Zm13.789-.928,2.646-6.611h3.467L212.588,0h-3.271l-1.689-10.566h3.3ZM222.627,0a2.865,2.865,0,0,1-.137-.957A3.259,3.259,0,0,1,219.9.2a3.184,3.184,0,0,1-2.285-.918,2.759,2.759,0,0,1-.85-2.178A3.1,3.1,0,0,1,218.2-5.542a6.768,6.768,0,0,1,3.789-.923l1.074.02.117-.6.039-.518a.839.839,0,0,0-.889-.918,1.235,1.235,0,0,0-1.3,1.162l-3.223.01a3.06,3.06,0,0,1,.693-1.851,4.109,4.109,0,0,1,1.753-1.211,6.125,6.125,0,0,1,2.358-.4,4.723,4.723,0,0,1,2.1.5,3.133,3.133,0,0,1,1.353,1.318,3.368,3.368,0,0,1,.342,1.948l-.791,4.971-.049.605a2.669,2.669,0,0,0,.186,1.23l-.01.186Zm-1.836-2.129A2.072,2.072,0,0,0,222.52-3l.322-1.7-.83-.01a2.188,2.188,0,0,0-1.328.454,1.722,1.722,0,0,0-.654,1.187.865.865,0,0,0,.151.659A.773.773,0,0,0,220.791-2.129Zm13.9-5.459a9.192,9.192,0,0,0-1-.1,2.481,2.481,0,0,0-2.207,1L230.293,0H227.08l1.836-10.566,3-.01-.244,1.387a2.933,2.933,0,0,1,2.441-1.6,4.6,4.6,0,0,1,1,.137ZM237.9,0h-3.223l1.836-10.566h3.223Zm-1.1-13.232a1.49,1.49,0,0,1,.5-1.191,1.806,1.806,0,0,1,1.265-.479,1.864,1.864,0,0,1,1.255.43,1.464,1.464,0,0,1,.522,1.123,1.493,1.493,0,0,1-.5,1.2,1.811,1.811,0,0,1-1.27.474,1.887,1.887,0,0,1-1.245-.425A1.447,1.447,0,0,1,236.8-13.232ZM245.9,0a2.865,2.865,0,0,1-.137-.957A3.259,3.259,0,0,1,243.174.2a3.184,3.184,0,0,1-2.285-.918,2.759,2.759,0,0,1-.85-2.178,3.1,3.1,0,0,1,1.436-2.642,6.768,6.768,0,0,1,3.789-.923l1.074.02.117-.6.039-.518a.839.839,0,0,0-.889-.918,1.235,1.235,0,0,0-1.3,1.162l-3.223.01a3.06,3.06,0,0,1,.693-1.851,4.109,4.109,0,0,1,1.753-1.211,6.125,6.125,0,0,1,2.358-.4,4.723,4.723,0,0,1,2.1.5,3.133,3.133,0,0,1,1.353,1.318,3.368,3.368,0,0,1,.342,1.948L248.9-2.021l-.049.605a2.669,2.669,0,0,0,.186,1.23l-.01.186Zm-1.836-2.129A2.072,2.072,0,0,0,245.791-3l.322-1.7-.83-.01a2.188,2.188,0,0,0-1.328.454,1.722,1.722,0,0,0-.654,1.187.865.865,0,0,0,.151.659A.773.773,0,0,0,244.063-2.129Zm16.7-3.135a7.657,7.657,0,0,1-1.514,4.043A3.788,3.788,0,0,1,256.064.205a2.8,2.8,0,0,1-2.4-1.309l-.4,1.1h-2.91l2.607-15h3.213l-1.045,5.3a3.189,3.189,0,0,1,2.373-1.064,2.977,2.977,0,0,1,2.422,1.108,4.834,4.834,0,0,1,.918,2.964,10.751,10.751,0,0,1-.049,1.221Zm-3.193-.19a10.11,10.11,0,0,0,.088-1.131q0-1.57-1.123-1.638a1.924,1.924,0,0,0-1.67.848L254.1-3.163a1.292,1.292,0,0,0,1.328.829q1.572.049,1.982-2.047l.137-.868ZM264.736,0h-3.223l2.6-15h3.223Zm7.295.2a4.912,4.912,0,0,1-2.524-.669,4.215,4.215,0,0,1-1.675-1.836,4.933,4.933,0,0,1-.449-2.593l.029-.273A6.477,6.477,0,0,1,269.224-9.3a5.011,5.011,0,0,1,3.794-1.46,4.086,4.086,0,0,1,2.324.689,3.853,3.853,0,0,1,1.416,1.848,5.662,5.662,0,0,1,.293,2.646l-.186,1.34h-6.289a2.06,2.06,0,0,0,.469,1.348,1.722,1.722,0,0,0,1.309.547,3.325,3.325,0,0,0,2.51-1.074l1.348,1.782a3.976,3.976,0,0,1-1.665,1.329,5.848,5.848,0,0,1-2.339.5Zm.781-8.418a1.653,1.653,0,0,0-1.187.427,3.588,3.588,0,0,0-.874,1.5h3.213l.059-.282a2.144,2.144,0,0,0,.02-.641A1.131,1.131,0,0,0,272.813-8.223Zm10.586,5.2q.127-.645-1-.967l-.693-.176a5.34,5.34,0,0,1-2.49-1.26,2.493,2.493,0,0,1-.742-1.924,3.065,3.065,0,0,1,1.353-2.476,5.148,5.148,0,0,1,3.179-.933,4.769,4.769,0,0,1,3.022.947,3.09,3.09,0,0,1,1.177,2.5l-3.2-.01q.039-1.25-1.1-1.25a1.574,1.574,0,0,0-.908.288,1.119,1.119,0,0,0-.5.767q-.166.791,1.4,1.084a8.116,8.116,0,0,1,2.1.747,3.135,3.135,0,0,1,1.133,1.05,2.611,2.611,0,0,1,.361,1.5,2.824,2.824,0,0,1-.625,1.709,4.047,4.047,0,0,1-1.724,1.2,6.174,6.174,0,0,1-2.446.42,4.965,4.965,0,0,1-2.124-.479,3.787,3.787,0,0,1-1.533-1.274,3.31,3.31,0,0,1-.571-1.851l2.988.02A1.234,1.234,0,0,0,281.855-2a1.846,1.846,0,0,0,1.016-.269A1.162,1.162,0,0,0,283.4-3.027Z" transform="translate(-0.02 15)" fill="#12263f"/>
</svg>
