<svg xmlns="http://www.w3.org/2000/svg" width="247.14" height="51.291" viewBox="0 0 247.14 51.291">
  <g id="Grupo_82930" data-name="Grupo 82930" transform="translate(-674.43 -1371.477)">
    <path id="Trazado_141832" data-name="Trazado 141832" d="M6.816-14.219,8.174-4.355l4.766-9.863h4.453L14.932,0H11.572l.605-3.486,1.445-6.426L8.643,0H6.426L4.814-10.283l-.9,7.129L3.359,0H.02L2.48-14.219ZM29.033-4.844a5.127,5.127,0,0,1-.981,2.656A5.551,5.551,0,0,1,25.806-.4a6.954,6.954,0,0,1-3.013.6A4.683,4.683,0,0,1,19.287-1.24,5.77,5.77,0,0,1,17.891-5a12.245,12.245,0,0,1,.347-3.447,9.112,9.112,0,0,1,1.416-3.247,6.506,6.506,0,0,1,2.314-2.07,6.008,6.008,0,0,1,2.915-.659,5.086,5.086,0,0,1,3.677,1.4,5.467,5.467,0,0,1,1.47,3.74L26.7-9.3a2.739,2.739,0,0,0-.469-1.855,2.058,2.058,0,0,0-1.543-.6q-2.637-.088-3.213,4.1a22.537,22.537,0,0,0-.264,2.705q-.049,2.4,1.777,2.471a2.609,2.609,0,0,0,1.885-.581,2.906,2.906,0,0,0,.9-1.753Zm6.064-9.58a2.862,2.862,0,0,1,2.1.82,2.664,2.664,0,0,1,.7,2.119l-.049.654a3.177,3.177,0,0,1-1.025,2.212,3.274,3.274,0,0,1-2.324.806,2.861,2.861,0,0,1-2.09-.825,2.677,2.677,0,0,1-.732-2.095l.059-.732a3.128,3.128,0,0,1,1.045-2.158A3.293,3.293,0,0,1,35.1-14.424ZM33.75-10.713a1.228,1.228,0,0,0,.161.825.7.7,0,0,0,.62.308,1.036,1.036,0,0,0,.776-.293,1.488,1.488,0,0,0,.435-.859l.107-.762q.1-1.123-.771-1.162a1.051,1.051,0,0,0-.791.313,1.479,1.479,0,0,0-.439.859Zm6.514,4.287a2.886,2.886,0,0,1,2.109.825,2.647,2.647,0,0,1,.713,2.114l-.059.752A3.157,3.157,0,0,1,41.958-.557a3.228,3.228,0,0,1-2.28.762A2.89,2.89,0,0,1,37.6-.61a2.683,2.683,0,0,1-.742-2.124l.059-.762a3.273,3.273,0,0,1,.532-1.558,2.936,2.936,0,0,1,1.182-1.03A3.62,3.62,0,0,1,40.264-6.426ZM38.916-2.7a1.3,1.3,0,0,0,.186.781.721.721,0,0,0,.605.335q1.055.039,1.24-1.281l.088-.641a1.252,1.252,0,0,0-.146-.805.734.734,0,0,0-.635-.33,1.056,1.056,0,0,0-.811.325,1.458,1.458,0,0,0-.43.83ZM33.8-1.084l-1.5-.85L40.869-12.92l1.494.84ZM64.492-7.051h-8.8l.449-2.539h8.789ZM63.75-2.764h-8.8L55.4-5.3h8.789ZM84.771-5.645H71.412l.719-2.578H85.49Zm14.7,0H86.109l.719-2.578h13.359Zm14.7,0H100.807l.719-2.578h13.359Zm14.7,0H115.5l.719-2.578h13.359Zm14.7,0H130.2l.719-2.578h13.359Zm14.7,0H144.9l.719-2.578h13.359Zm14.7,0H159.6l.719-2.578h13.359Zm14.7,0H174.293l.719-2.578h13.359Zm14.7,0H188.99l.719-2.578h13.359Zm14.7,0H203.687l.719-2.578h13.359Zm14.7,0H218.385l.719-2.578h13.359Zm14.7,0H233.082l.719-2.578H247.16Z" transform="translate(674.41 1403.73)" fill="#12263f"/>
    <path id="Trazado_141833" data-name="Trazado 141833" d="M-15.112-4.834-15.952,0h-3.34l2.461-14.219,5.107.01a5.148,5.148,0,0,1,3.735,1.317,4.058,4.058,0,0,1,1.2,3.414A4.642,4.642,0,0,1-7.71-6.99,5.084,5.084,0,0,1-9.824-5.38a7.484,7.484,0,0,1-2.944.556Zm.459-2.637,2.012.02A2.482,2.482,0,0,0-10.7-8.278a2.463,2.463,0,0,0,.537-1.963,1.5,1.5,0,0,0-.454-.945,1.556,1.556,0,0,0-.991-.387l-2.334-.01ZM-.542-3.906,3.813-14.219H7.642L.767,0H-2.886L-5.269-14.219h3.613ZM19.683-14.219,18.1-4.941a5.834,5.834,0,0,1-1.987,3.8A6.057,6.057,0,0,1,11.968.205a5.654,5.654,0,0,1-2.7-.669A3.919,3.919,0,0,1,7.588-2.271a4.861,4.861,0,0,1-.366-2.661L8.8-14.219h3.359l-1.572,9.3a4.472,4.472,0,0,0-.02.928,1.677,1.677,0,0,0,.454,1.124,1.661,1.661,0,0,0,1.147.43q2.148.068,2.588-2.492l1.582-9.295Z" transform="translate(826.364 1422.563)" fill="#12263f"/>
    <path id="Trazado_141834" data-name="Trazado 141834" d="M-39.873-14.219l1.357,9.863,4.766-9.863H-29.3L-31.758,0h-3.359l.605-3.486,1.445-6.426L-38.047,0h-2.217l-1.611-10.283-.9,7.129L-43.33,0h-3.34l2.461-14.219Zm22.217,9.375a5.127,5.127,0,0,1-.981,2.656A5.551,5.551,0,0,1-20.884-.4,6.954,6.954,0,0,1-23.9.2,4.683,4.683,0,0,1-27.4-1.24,5.77,5.77,0,0,1-28.8-5a12.245,12.245,0,0,1,.347-3.447,9.112,9.112,0,0,1,1.416-3.247,6.506,6.506,0,0,1,2.314-2.07,6.008,6.008,0,0,1,2.915-.659,5.086,5.086,0,0,1,3.677,1.4,5.467,5.467,0,0,1,1.47,3.74l-3.33-.01a2.739,2.739,0,0,0-.469-1.855,2.058,2.058,0,0,0-1.543-.6q-2.637-.088-3.213,4.1a22.537,22.537,0,0,0-.264,2.705q-.049,2.4,1.777,2.471a2.609,2.609,0,0,0,1.885-.581,2.906,2.906,0,0,0,.9-1.753ZM-3.4-14.219-4.98-4.941a5.834,5.834,0,0,1-1.987,3.8A6.057,6.057,0,0,1-11.113.205a5.654,5.654,0,0,1-2.7-.669,3.919,3.919,0,0,1-1.685-1.807,4.861,4.861,0,0,1-.366-2.661l1.582-9.287h3.359l-1.572,9.3a4.472,4.472,0,0,0-.02.928,1.677,1.677,0,0,0,.454,1.124,1.661,1.661,0,0,0,1.147.43q2.148.068,2.588-2.492l1.582-9.295Zm.459,15.439H-5.332L2.051-14.219h2.4ZM7.334-4.834,6.494,0H3.154L5.615-14.219l5.107.01a5.148,5.148,0,0,1,3.735,1.317,4.058,4.058,0,0,1,1.2,3.414,4.642,4.642,0,0,1-.918,2.488,5.084,5.084,0,0,1-2.114,1.61,7.484,7.484,0,0,1-2.944.556Zm.459-2.637,2.012.02a2.482,2.482,0,0,0,1.943-.827,2.463,2.463,0,0,0,.537-1.963,1.5,1.5,0,0,0-.454-.945,1.556,1.556,0,0,0-.991-.387l-2.334-.01ZM21.9-3.906,26.26-14.219h3.828L23.213,0H19.561L17.178-14.219h3.613ZM42.129-14.219,40.547-4.941a5.834,5.834,0,0,1-1.987,3.8A6.057,6.057,0,0,1,34.414.205a5.654,5.654,0,0,1-2.7-.669,3.919,3.919,0,0,1-1.685-1.807,4.861,4.861,0,0,1-.366-2.661l1.582-9.287h3.359l-1.572,9.3a4.472,4.472,0,0,0-.02.928,1.677,1.677,0,0,0,.454,1.124,1.661,1.661,0,0,0,1.147.43q2.148.068,2.588-2.492l1.582-9.295Z" transform="translate(826.365 1385.902)" fill="#12263f"/>
  </g>
</svg>
