<svg xmlns="http://www.w3.org/2000/svg" width="162.606" height="162.608" viewBox="0 0 162.606 162.608">
  <g id="media-monitor-screen-Digital_Marketing" data-name="media-monitor-screen-Digital Marketing" transform="translate(-2 -1.999)">
    <path id="Trazado_140204" data-name="Trazado 140204" d="M8.42,16H154.765a5.42,5.42,0,0,1,5.42,5.42v81.3H3V21.42A5.42,5.42,0,0,1,8.42,16Z" transform="translate(1.71 23.943)" fill="#2a94ee"/>
    <path id="Trazado_140205" data-name="Trazado 140205" d="M7,28H77.463V71.362H7Z" transform="translate(8.55 44.464)" fill="#e8e8e8"/>
    <path id="Trazado_140206" data-name="Trazado 140206" d="M76.2,57V67.84H22V57H76.2Z" transform="translate(34.202 94.057)" fill="#e8e5fb"/>
    <path id="Trazado_140207" data-name="Trazado 140207" d="M29,51H45.261V67.261H29Z" transform="translate(46.173 83.796)" fill="#8e95a3"/>
    <path id="Trazado_140208" data-name="Trazado 140208" d="M160.186,50.71v2.71a5.436,5.436,0,0,1-5.42,5.42H8.42A5.436,5.436,0,0,1,3,53.42V48H160.186Z" transform="translate(1.71 78.666)" fill="#e8e5fb"/>
    <path id="Trazado_140209" data-name="Trazado 140209" d="M32.261,19.13,16,27.261V11Z" transform="translate(23.941 15.392)" fill="#ec455a"/>
    <path id="Trazado_140210" data-name="Trazado 140210" d="M8,33.1V6H62.2V49.362H8Zm21.681,2.71,16.261-8.13L29.681,19.55Z" transform="translate(10.261 6.842)" fill="#dff7f9"/>
    <path id="Trazado_140211" data-name="Trazado 140211" d="M77.463,28,42.231,49.681,7,28Z" transform="translate(8.55 44.464)" fill="#e8e8e8"/>
    <path id="Trazado_140212" data-name="Trazado 140212" d="M36,7H54.971V28.681H36Z" transform="translate(58.143 8.552)" fill="#e8e5fb"/>
    <path id="Trazado_140213" data-name="Trazado 140213" d="M47.84,15,45.13,33.971H37V15Z" transform="translate(59.853 22.233)" fill="#c7bec5"/>
    <path id="Trazado_140214" data-name="Trazado 140214" d="M65.241,10.6a5.3,5.3,0,0,1,1.6,3.821,5.436,5.436,0,0,1-5.42,5.42H56V9h5.42a5.3,5.3,0,0,1,3.821,1.6Z" transform="translate(92.345 11.972)" fill="#d64626"/>
    <path id="Trazado_140215" data-name="Trazado 140215" d="M78.231,3V46.362L43,35.521V13.84Z" transform="translate(70.114 1.712)" fill="#fed947"/>
    <path id="Trazado_140216" data-name="Trazado 140216" d="M33,9h8.13V19.84H33Z" transform="translate(53.013 11.972)" fill="#d64626"/>
    <path id="Trazado_140217" data-name="Trazado 140217" d="M37,26H85.782V58.521H37Z" transform="translate(59.853 41.044)" fill="#b52426"/>
    <path id="Trazado_140218" data-name="Trazado 140218" d="M86.072,30V62.521H40V30H86.072Z" transform="translate(64.984 47.884)" fill="#d64626"/>
    <path id="Trazado_140219" data-name="Trazado 140219" d="M156.476,37.233h-5.42v-2.71h2.71a8.13,8.13,0,1,0,0-16.261h-2.71V4.712a2.623,2.623,0,0,0-1.111-2.168,2.686,2.686,0,0,0-2.385-.434L112.707,12.842H94.143a2.71,2.71,0,0,0-2.71,2.71v2.71h-5.42a2.71,2.71,0,0,0-2.71,2.71v10.84a2.71,2.71,0,0,0,2.71,2.71h5.42v2.71H75.173V12.842a2.71,2.71,0,0,0-2.71-2.71h-54.2a2.71,2.71,0,0,0-2.71,2.71V37.233H10.13A8.155,8.155,0,0,0,2,45.363v86.723a8.155,8.155,0,0,0,8.13,8.13H72.463v8.13H56.2a2.71,2.71,0,0,0-2.71,2.71V161.9a2.71,2.71,0,0,0,2.71,2.71h54.2a2.71,2.71,0,0,0,2.71-2.71v-10.84a2.71,2.71,0,0,0-2.71-2.71H94.143v-8.13h62.332a8.155,8.155,0,0,0,8.13-8.13V45.363a8.155,8.155,0,0,0-8.13-8.13Zm-5.42-13.55h2.71a2.71,2.71,0,1,1,0,5.42h-2.71Zm-35.231-6.125L145.635,8.37V44.415l-29.811-9.187Zm-18.971.7H110.4V34.523H96.853Zm7.724,21.681-1.951,13.55H99.563V39.943ZM88.723,29.1v-5.42h2.71V29.1ZM20.971,15.552H69.752V53.493H20.971Zm86.723,138.215v5.42H58.912v-5.42Zm-29.811-5.42v-8.13h10.84v8.13Zm81.3-16.261a2.71,2.71,0,0,1-2.71,2.71H10.13a2.71,2.71,0,0,1-2.71-2.71v-2.71H159.186Zm0-8.13H7.42V45.363a2.71,2.71,0,0,1,2.71-2.71h5.42V56.2a2.71,2.71,0,0,0,2.71,2.71h54.2a2.71,2.71,0,0,0,2.71-2.71V42.653H94.143V56.2a2.71,2.71,0,0,0,2.71,2.71h8.13a2.71,2.71,0,0,0,2.683-2.33l2.385-16.64h2.656l34.852,10.732a2.507,2.507,0,0,0,.786.108,2.751,2.751,0,0,0,2.71-2.71v-5.42h5.42a2.71,2.71,0,0,1,2.71,2.71Z" transform="translate(0 0)"/>
    <path id="Trazado_140220" data-name="Trazado 140220" d="M8.71,75.782H79.173a2.71,2.71,0,0,0,2.71-2.71V29.71A2.71,2.71,0,0,0,79.173,27H8.71A2.71,2.71,0,0,0,6,29.71V73.072A2.71,2.71,0,0,0,8.71,75.782Zm2.71-5.42v-35.8L42.521,53.7a2.71,2.71,0,0,0,2.84,0l31.1-19.141v35.8ZM18.285,32.42H69.6L43.941,48.209Z" transform="translate(6.84 42.754)"/>
    <path id="Trazado_140221" data-name="Trazado 140221" d="M38.71,62.941h5.42v8.13a2.71,2.71,0,0,0,2.71,2.71H92.912a2.71,2.71,0,0,0,2.71-2.71V38.55a2.71,2.71,0,0,0-2.71-2.71H90.2V27.71A2.71,2.71,0,0,0,87.492,25H38.71A2.71,2.71,0,0,0,36,27.71V60.231A2.71,2.71,0,0,0,38.71,62.941ZM90.2,68.362H49.55v-27.1H90.2ZM41.42,30.42H84.782v5.42H46.84a2.71,2.71,0,0,0-2.71,2.71V57.521H41.42Z" transform="translate(58.143 39.334)"/>
    <path id="Trazado_140222" data-name="Trazado 140222" d="M43,33h5.42v5.42H43Z" transform="translate(70.114 53.015)"/>
    <path id="Trazado_140223" data-name="Trazado 140223" d="M47,33H65.971v5.42H47Z" transform="translate(76.954 53.015)"/>
    <path id="Trazado_140224" data-name="Trazado 140224" d="M43,37H53.84v5.42H43Z" transform="translate(70.114 59.855)"/>
    <path id="Trazado_140225" data-name="Trazado 140225" d="M49,37H62.55v5.42H49Z" transform="translate(80.375 59.855)"/>
    <path id="Trazado_140226" data-name="Trazado 140226" d="M16.285,31.278a2.71,2.71,0,0,0,2.637.119l16.261-8.13a2.71,2.71,0,0,0,0-4.851l-16.261-8.13A2.71,2.71,0,0,0,15,12.711V28.971A2.71,2.71,0,0,0,16.285,31.278ZM20.42,17.1l7.491,3.745L20.42,24.587Z" transform="translate(22.231 13.682)"/>
  </g>
</svg>
