<svg xmlns="http://www.w3.org/2000/svg" xmlns:xlink="http://www.w3.org/1999/xlink" width="505" height="392.455" viewBox="0 0 505 392.455">
  <defs>
    <linearGradient id="linear-gradient" y1="0.5" x2="1" y2="0.5" gradientUnits="objectBoundingBox">
      <stop offset="0" stop-color="#f7941e"/>
      <stop offset="1" stop-color="#f7941e" stop-opacity="0"/>
    </linearGradient>
  </defs>
  <g id="Grupo_82993" data-name="Grupo 82993" transform="translate(-236.817 -1719.417)">
    <g id="Grupo_82930" data-name="Grupo 82930" transform="translate(384.063 2039.583)">
      <path id="Trazado_141832" data-name="Trazado 141832" d="M410.6,2003.115l-6-20.344s9.123-38.678-10.084-40.418c-18.244-1.651-13.354,33.188-12.779,36.914-.625-3.9-7.246-42.563-23.118-36.677-17.763,6.586,10.769,42.425,10.769,42.425-6.4-8.28-22.891-20.532-28.7-7.567-2.531,5.653,2.894,10.915,9.817,15.053-4.428-1.044-8.982-1.547-10.45.248-4.091,5,4.277,10.828,20.363,11.15,5.83.115,8.781-1.091,10.186-2.671l.318.1Z" transform="translate(-339.034 -1941.98)" fill="#fed947"/>
      <path id="Trazado_141834" data-name="Trazado 141834" d="M373.084,1993.723s-19.979-7.727-15.161-14.388c3.038-4.2,8.908,2.936,8.908,2.936s-7.724-10.107-1.043-13.188c6.936-3.2,10.658,8.452,10.658,8.452s-2.581-10.209,2.7-11.65,5.683,10.209,5.683,10.209,6.821-9.183,10.883-1.861c3.686,6.644-7.5,19.889-7.5,19.889" transform="translate(-331.044 -1931.503)" fill="#fff5a2" style="mix-blend-mode: multiply;isolation: isolate"/>
      <path id="Trazado_141835" data-name="Trazado 141835" d="M493.107,1995.584c.343-3.673-7.906-3.679-14.234-3.012,8.413-4.778,15.748-10.969,12.973-17.165-5.805-12.965-24.7,1.327-31.1,9.607,0,0,28.534-35.839,10.769-42.425-15.872-5.886-22.491,32.776-23.116,36.677.573-3.725,5.465-38.564-12.779-36.913-19.208,1.74-16.086,60.763-16.086,60.763S491.906,2008.413,493.107,1995.584Z" transform="translate(-303.653 -1941.98)" fill="#78e2ff"/>
      <path id="Trazado_141836" data-name="Trazado 141836" d="M493.107,1995.584c.343-3.673-7.906-3.679-14.234-3.012,8.413-4.778,15.748-10.969,12.973-17.165-5.805-12.965-24.7,1.327-31.1,9.607,0,0,28.534-35.839,10.769-42.425-15.872-5.886-22.491,32.776-23.116,36.677.573-3.725,5.465-38.564-12.779-36.913-19.208,1.74-16.086,60.763-16.086,60.763S491.906,2008.413,493.107,1995.584Z" transform="translate(-303.653 -1941.98)" fill="#fed947"/>
      <path id="Trazado_141837" data-name="Trazado 141837" d="M446.921,1994.659s19.98-7.725,15.163-14.388c-3.038-4.2-8.908,2.936-8.908,2.936s7.723-10.105,1.042-13.187c-6.936-3.2-10.657,8.45-10.657,8.45s2.58-10.207-2.7-11.648-5.683,10.207-5.683,10.207-6.821-9.183-10.883-1.86c-3.686,6.644,7.5,19.889,7.5,19.889" transform="translate(-301.804 -1931.09)" fill="#fff5a2" style="mix-blend-mode: multiply;isolation: isolate"/>
    </g>
    <g id="Grupo_82935" data-name="Grupo 82935" transform="translate(236.817 1720.417)">
      <g id="Grupo_82932" data-name="Grupo 82932" transform="translate(20.1 213.324)">
        <g id="Grupo_82931" data-name="Grupo 82931">
          <path id="Trazado_141838" data-name="Trazado 141838" d="M291.649,1876.5a23.289,23.289,0,1,0,5.235,20.182,22.878,22.878,0,0,0,.516-4.87A23.187,23.187,0,0,0,291.649,1876.5Zm1.363,19.359a19.335,19.335,0,1,1,.426-4.048A19.423,19.423,0,0,1,293.012,1895.863Z" transform="translate(-250.77 -1868.505)" fill="#fff5a2"/>
        </g>
        <path id="Trazado_141839" data-name="Trazado 141839" d="M287.113,1888.319a23.346,23.346,0,0,1-12.4,15.986l-1.766-3.534a19.423,19.423,0,0,0,10.29-13.275Z" transform="translate(-240.999 -1860.139)" fill="#18bdf7" opacity="0.2"/>
        <path id="Trazado_141840" data-name="Trazado 141840" d="M289.6,1876.5l-2.986,2.6a19.328,19.328,0,0,0-28.373-.849l-2.828-2.771A23.285,23.285,0,0,1,289.6,1876.5Z" transform="translate(-248.723 -1868.505)" fill="#fed947"/>
      </g>
      <g id="Grupo_82934" data-name="Grupo 82934" transform="translate(170.293 18.256)" opacity="0.8">
        <g id="Grupo_82933" data-name="Grupo 82933">
          <path id="Trazado_141841" data-name="Trazado 141841" d="M382.232,1738.413a15.493,15.493,0,1,0,3.483,13.429,15.21,15.21,0,0,0,.343-3.241A15.425,15.425,0,0,0,382.232,1738.413Zm.906,12.88a12.848,12.848,0,1,1,.285-2.692A12.92,12.92,0,0,1,383.138,1751.292Z" transform="translate(-355.033 -1733.09)" fill="#2a94ee"/>
        </g>
        <path id="Trazado_141842" data-name="Trazado 141842" d="M379.213,1746.275a15.53,15.53,0,0,1-8.247,10.634l-1.175-2.349a12.92,12.92,0,0,0,6.845-8.833Z" transform="translate(-348.532 -1727.524)" fill="#d64626"/>
        <path id="Trazado_141843" data-name="Trazado 141843" d="M380.869,1738.413l-1.986,1.729a12.857,12.857,0,0,0-18.877-.563l-1.881-1.845a15.49,15.49,0,0,1,22.744.68Z" transform="translate(-353.671 -1733.09)" fill="#d64626"/>
      </g>
      <path id="Trazado_141844" data-name="Trazado 141844" d="M261.369,1929.321l2.362-1.759a14.655,14.655,0,0,0-4.509-4.509l-1.759,2.363a11.579,11.579,0,0,0-3.289-1.364l.426-2.917a14.3,14.3,0,0,0-6.377,0l.426,2.917a11.571,11.571,0,0,0-3.287,1.364l-1.76-2.363a14.634,14.634,0,0,0-4.507,4.509l2.361,1.759a11.617,11.617,0,0,0-1.363,3.289l-2.919-.428a14.353,14.353,0,0,0,0,6.377l2.919-.427a11.62,11.62,0,0,0,1.363,3.289l-2.361,1.759a14.652,14.652,0,0,0,4.507,4.509l1.76-2.363a11.523,11.523,0,0,0,3.287,1.363l-.426,2.918a14.3,14.3,0,0,0,6.377,0l-.426-2.918a11.531,11.531,0,0,0,3.289-1.363l1.759,2.363a14.673,14.673,0,0,0,4.509-4.509l-2.362-1.759a11.619,11.619,0,0,0,1.363-3.289l2.919.427a14.3,14.3,0,0,0,0-6.377l-2.919.428A11.616,11.616,0,0,0,261.369,1929.321Zm-9.955,13.8a7.747,7.747,0,1,1,7.747-7.747A7.748,7.748,0,0,1,251.414,1943.118Z" transform="translate(-236.817 -1632.155)" fill="#20287a"/>
      <path id="Trazado_141845" data-name="Trazado 141845" d="M579.3,1776.739l3.542-2.637a21.963,21.963,0,0,0-6.76-6.759l-2.636,3.541a17.36,17.36,0,0,0-4.931-2.044l.641-4.373a21.425,21.425,0,0,0-9.562,0l.64,4.373a17.371,17.371,0,0,0-4.93,2.044l-2.638-3.541a21.96,21.96,0,0,0-6.759,6.759l3.541,2.637a17.365,17.365,0,0,0-2.044,4.929l-4.374-.64a21.43,21.43,0,0,0,0,9.562l4.374-.641a17.374,17.374,0,0,0,2.044,4.931l-3.541,2.636a21.968,21.968,0,0,0,6.759,6.76l2.638-3.542a17.319,17.319,0,0,0,4.93,2.044l-.64,4.375a21.434,21.434,0,0,0,9.562,0l-.641-4.375a17.326,17.326,0,0,0,4.931-2.044l2.636,3.542a21.97,21.97,0,0,0,6.76-6.76l-3.542-2.636a17.334,17.334,0,0,0,2.044-4.931l4.375.641a21.427,21.427,0,0,0,0-9.562l-4.375.64A17.325,17.325,0,0,0,579.3,1776.739Zm-14.925,20.686a11.616,11.616,0,1,1,11.615-11.615A11.617,11.617,0,0,1,564.377,1797.425Z" transform="translate(-102.159 -1701.251)" fill="#2a94ee"/>
      <path id="Trazado_141846" data-name="Trazado 141846" d="M340.01,1726.42a6,6,0,1,1-6-6A6,6,0,0,1,340.01,1726.42Z" transform="translate(-196.646 -1720.417)" fill="none" stroke="#cb3921" stroke-miterlimit="10" stroke-width="2"/>
      <path id="Trazado_141847" data-name="Trazado 141847" d="M501.348,1741.539a6,6,0,1,1-6-6A6,6,0,0,1,501.348,1741.539Z" transform="translate(-125.573 -1713.756)" fill="none" stroke="#1b236e" stroke-miterlimit="10" stroke-width="0.5"/>
      <circle id="Elipse_4794" data-name="Elipse 4794" cx="9.386" cy="9.386" r="9.386" transform="translate(207.129 62.674)" fill="none" stroke="#fdd442" stroke-miterlimit="10" stroke-width="3.127"/>
      <path id="Trazado_141848" data-name="Trazado 141848" d="M585.133,1870.548a9.386,9.386,0,1,1-9.385-9.386A9.385,9.385,0,0,1,585.133,1870.548Z" transform="translate(-91.645 -1658.416)" fill="none" stroke="#a81a21" stroke-miterlimit="10" stroke-width="3.127"/>
    </g>
    <g id="Grupo_82944" data-name="Grupo 82944" transform="translate(281.368 1811.228)">
      <g id="Grupo_82936" data-name="Grupo 82936">
        <path id="Trazado_141849" data-name="Trazado 141849" d="M659.329,1793.166V2018.45a9.714,9.714,0,0,1-9.709,9.709H277.965a9.7,9.7,0,0,1-9.709-9.709V1793.166a9.7,9.7,0,0,1,9.709-9.709H649.62A9.714,9.714,0,0,1,659.329,1793.166Z" transform="translate(-267.518 -1783.457)" fill="#2a94ee"/>
        <path id="Trazado_141850" data-name="Trazado 141850" d="M455.946,1984.356H376.372l8.643-24.918,1.959-5.651,3.8-10.943h50.764l3.8,10.943,1.959,5.651Z" transform="translate(-219.891 -1698.144)" fill="#2a94ee"/>
        <path id="Trazado_141851" data-name="Trazado 141851" d="M438.694,1960.91H382.372l1.771-7.707h52.78Z" transform="translate(-214.136 -1708.504)" fill="#20287a" opacity="0.51"/>
        <path id="Trazado_141852" data-name="Trazado 141852" d="M497.691,1992.4H357.039a6.111,6.111,0,0,1-6.111-6.111h0a6.111,6.111,0,0,1,6.111-6.111H497.691a6.11,6.11,0,0,1,6.111,6.111h0A6.11,6.11,0,0,1,497.691,1992.4Z" transform="translate(-231.099 -1696.797)" fill="#2a94ee"/>
        <rect id="Rectángulo_31805" data-name="Rectángulo 31805" width="391.803" height="170.942" transform="translate(0 34.779)" fill="#60f4df" opacity="0.2"/>
        <path id="Trazado_141853" data-name="Trazado 141853" d="M406.734,1951.132h0a9.043,9.043,0,0,1-9.016-9.016h0a9.044,9.044,0,0,1,9.016-9.016h0a9.043,9.043,0,0,1,9.016,9.016h0A9.042,9.042,0,0,1,406.734,1951.132Z" transform="translate(-210.487 -1717.536)" fill="#dff7f9"/>
      </g>
      <g id="Grupo_82943" data-name="Grupo 82943" transform="translate(10.047 39.341)">
        <g id="Grupo_82937" data-name="Grupo 82937" transform="translate(125.477)">
          <rect id="Rectángulo_31806" data-name="Rectángulo 31806" width="247.536" height="105.704" rx="3.282" fill="#fff" opacity="0.2"/>
          <path id="Trazado_141854" data-name="Trazado 141854" d="M600.967,1864.754v40.176a3.249,3.249,0,0,1-3.256,3.241H369.058a3.249,3.249,0,0,1-3.256-3.241v-88.246c21.118,0,31.634,7.894,37.8,18.266q.605.994,1.124,2.031c10.429,19.735,7.289,46.788,30.222,46.788a9.447,9.447,0,0,0,2.42-.3,6.75,6.75,0,0,0,1.412-.461c15.428-6.5,13.022-52.608,40.464-52.276a18.5,18.5,0,0,1,13.7,5.906c.331.36.663.72.98,1.109,12.288,14.42,12.46,46.558,31.331,52.392,6.8,2.1,12.806-.749,18.741-5.459.375-.3.763-.605,1.138-.936,12.547-10.415,25.022-28.22,44.383-23.855.562.13,1.124.274,1.7.432A40.476,40.476,0,0,1,600.967,1864.754Z" transform="translate(-360.071 -1808.16)" fill="#fff" opacity="0.39"/>
          <path id="Trazado_141855" data-name="Trazado 141855" d="M600.982,1852.012a14.443,14.443,0,0,0-9.767,3.673c-4.667,4.134-7.174,11.193-9.623,18.093-3.673,10.328-7.462,20.988-18.54,20.988-.591,0-1.21-.029-1.844-.087-7.217-.706-12.533-6.583-17.214-14.635-2.91-4.984-5.575-10.818-8.283-16.8-7.664-16.811-15.6-34.2-30.208-34.6-.173,0-.331-.014-.49-.014a15.949,15.949,0,0,0-11.092,4.48c-6.18,5.632-10.113,15.788-13.959,25.728-5.69,14.708-11.567,29.92-24.835,30.222-9.536.2-13.872-3.4-17.762-10.228-1.5-2.651-2.939-5.791-4.581-9.377a173.092,173.092,0,0,0-12.936-24.244,33.8,33.8,0,0,0-15.125-12.864c-15.3-6.67-33.3-1.786-38.923.043v-1.512c6.021-1.9,22.847-6.209,37.8-.562a35.311,35.311,0,0,1,17.445,14.117,173.12,173.12,0,0,1,13.051,24.417c1.7,3.717,3.155,6.9,4.682,9.522,3.659,6.324,7.678,9.45,16.321,9.248,12.3-.288,17.747-14.377,23.524-29.3,3.918-10.127,7.908-20.47,14.319-26.318a17.3,17.3,0,0,1,12.59-4.8c15.529.418,23.639,18.223,31.49,35.451,2.68,5.849,5.272,11.568,8.11,16.451,4.494,7.808,9.536,13.469,16.22,14.131,11.409,1.124,15.039-9.1,18.885-19.951,2.391-6.756,4.84-13.642,9.277-18.035a15.74,15.74,0,0,1,11.438-4.682Z" transform="translate(-360.071 -1803.529)" fill="#fff" opacity="0.8"/>
        </g>
        <g id="Grupo_82938" data-name="Grupo 82938" transform="translate(242.128 110.174)">
          <rect id="Rectángulo_31807" data-name="Rectángulo 31807" width="130.884" height="23.164" rx="2.791" fill="#9cd7ff" opacity="0.5"/>
          <rect id="Rectángulo_31808" data-name="Rectángulo 31808" width="130.884" height="23.164" rx="2.791" transform="translate(0 27.995)" fill="#fff" opacity="0.2"/>
        </g>
        <g id="Grupo_82940" data-name="Grupo 82940">
          <rect id="Rectángulo_31809" data-name="Rectángulo 31809" width="121.484" height="51.159" rx="3.282" fill="#9cd7ff" opacity="0.2"/>
          <g id="Grupo_82939" data-name="Grupo 82939" transform="translate(4.802 4.892)" opacity="0.3">
            <rect id="Rectángulo_31810" data-name="Rectángulo 31810" width="8.403" height="33.972" rx="0.825" transform="translate(92.354 7.953)" fill="#fff"/>
            <rect id="Rectángulo_31811" data-name="Rectángulo 31811" width="8.403" height="41.925" rx="0.917" transform="translate(103.898)" fill="#fff"/>
            <rect id="Rectángulo_31812" data-name="Rectángulo 31812" width="8.403" height="41.925" rx="0.917" fill="#fff"/>
            <rect id="Rectángulo_31813" data-name="Rectángulo 31813" width="8.403" height="31.992" rx="0.801" transform="translate(11.544 9.934)" fill="#fff"/>
            <rect id="Rectángulo_31814" data-name="Rectángulo 31814" width="8.403" height="41.925" rx="0.917" transform="translate(23.088)" fill="#fff"/>
            <rect id="Rectángulo_31815" data-name="Rectángulo 31815" width="8.403" height="23.147" rx="0.681" transform="translate(34.633 18.778)" fill="#fff"/>
            <rect id="Rectángulo_31816" data-name="Rectángulo 31816" width="8.403" height="41.925" rx="0.917" transform="translate(46.177)" fill="#fff"/>
            <rect id="Rectángulo_31817" data-name="Rectángulo 31817" width="8.403" height="33.972" rx="0.825" transform="translate(57.721 7.953)" fill="#fff"/>
            <rect id="Rectángulo_31818" data-name="Rectángulo 31818" width="8.403" height="41.925" rx="0.917" transform="translate(69.265)" fill="#fff"/>
            <rect id="Rectángulo_31819" data-name="Rectángulo 31819" width="8.403" height="31.992" rx="0.801" transform="translate(80.81 9.934)" fill="#fff"/>
          </g>
        </g>
        <g id="Grupo_82941" data-name="Grupo 82941" transform="translate(0 55.087)">
          <rect id="Rectángulo_31820" data-name="Rectángulo 31820" width="121.484" height="51.159" rx="3.282" fill="#fff" opacity="0.2"/>
          <rect id="Rectángulo_31821" data-name="Rectángulo 31821" width="121.484" height="51.159" rx="3.282" transform="translate(0 55.087)" fill="#fff" opacity="0.2"/>
          <path id="Trazado_141856" data-name="Trazado 141856" d="M388.832,1853.614a2.281,2.281,0,0,0-2.282,2.282,2.255,2.255,0,0,0,.314,1.135L368.3,1878a2.257,2.257,0,0,0-.861-.171,2.282,2.282,0,0,0-.931.2l-19.984-19.637a2.279,2.279,0,1,0-4.355-.939,2.247,2.247,0,0,0,.223.968l-25.7,27.742a2.237,2.237,0,0,0-2.409-.12l-14.064-18.315a2.256,2.256,0,0,0,.432-1.325,2.28,2.28,0,1,0-4.26,1.115l-15.755,20.424a2.278,2.278,0,1,0,1.122.9l15.7-20.353a2.26,2.26,0,0,0,.91.192,2.237,2.237,0,0,0,.677-.114l14.247,18.552a2.288,2.288,0,1,0,4.258.231l25.842-27.891a2.2,2.2,0,0,0,2.149-.016l19.912,19.565a2.25,2.25,0,0,0-.294,1.1,2.281,2.281,0,0,0,4.562,0,2.256,2.256,0,0,0-.331-1.167l18.551-20.949a2.281,2.281,0,1,0,.9-4.379Z" transform="translate(-273.47 -1846.979)" fill="#fff" opacity="0.5"/>
          <rect id="Rectángulo_31822" data-name="Rectángulo 31822" width="102.757" height="4.322" rx="1.429" transform="translate(4.442 58.954)" fill="#fff" opacity="0.3"/>
          <rect id="Rectángulo_31823" data-name="Rectángulo 31823" width="92.434" height="4.322" rx="1.355" transform="translate(4.442 66.669)" fill="#fff" opacity="0.3"/>
          <path id="Trazado_141857" data-name="Trazado 141857" d="M388.842,1904.967H279.963a2.161,2.161,0,0,1-2.161-2.161h0a2.161,2.161,0,0,1,2.161-2.161H388.842a2.161,2.161,0,0,1,2.161,2.161h0A2.161,2.161,0,0,1,388.842,1904.967Z" transform="translate(-273.36 -1826.261)" fill="#fff" opacity="0.3"/>
          <rect id="Rectángulo_31824" data-name="Rectángulo 31824" width="82.23" height="4.322" rx="1.278" transform="translate(4.442 82.099)" fill="#fff" opacity="0.3"/>
          <rect id="Rectángulo_31825" data-name="Rectángulo 31825" width="103.838" height="4.322" rx="1.437" transform="translate(4.442 89.814)" fill="#fff" opacity="0.3"/>
          <path id="Trazado_141858" data-name="Trazado 141858" d="M388.842,1921.033H279.963a2.16,2.16,0,0,1-2.161-2.161h0a2.16,2.16,0,0,1,2.161-2.161H388.842a2.16,2.16,0,0,1,2.161,2.161h0A2.16,2.16,0,0,1,388.842,1921.033Z" transform="translate(-273.36 -1819.183)" fill="#fff" opacity="0.3"/>
        </g>
        <g id="Grupo_82942" data-name="Grupo 82942" transform="translate(125.78 110.181)">
          <path id="Trazado_141859" data-name="Trazado 141859" d="M413.187,1912.823a25.577,25.577,0,1,1-25.569-25.569,25.005,25.005,0,0,1,5.906.691,25.571,25.571,0,0,1,19.577,22.846Q413.187,1911.808,413.187,1912.823Z" transform="translate(-362.034 -1887.254)" fill="#9cd7ff" opacity="0.5"/>
          <path id="Trazado_141860" data-name="Trazado 141860" d="M405.277,1910.581l-25.483,2.031,5.906-24.878A25.571,25.571,0,0,1,405.277,1910.581Z" transform="translate(-354.21 -1887.043)" fill="#9cd7ff"/>
          <path id="Trazado_141861" data-name="Trazado 141861" d="M452.634,1891.1h-49.21a1.686,1.686,0,0,1-1.685-1.686h0a1.684,1.684,0,0,1,1.685-1.684h49.21a1.683,1.683,0,0,1,1.684,1.684h0A1.685,1.685,0,0,1,452.634,1891.1Z" transform="translate(-344.543 -1887.043)" fill="#9cd7ff" opacity="0.5"/>
          <rect id="Rectángulo_31826" data-name="Rectángulo 31826" width="45.196" height="3.37" rx="1.084" transform="translate(57.196 7.392)" fill="#9cd7ff" opacity="0.5"/>
          <rect id="Rectángulo_31827" data-name="Rectángulo 31827" width="34.933" height="3.37" rx="0.953" transform="translate(57.196 14.092)" fill="#9cd7ff" opacity="0.5"/>
          <path id="Trazado_141862" data-name="Trazado 141862" d="M452.634,1905.058h-49.21a1.686,1.686,0,0,1-1.685-1.685h0a1.684,1.684,0,0,1,1.685-1.684h49.21a1.683,1.683,0,0,1,1.684,1.684h0A1.684,1.684,0,0,1,452.634,1905.058Z" transform="translate(-344.543 -1880.895)" fill="#9cd7ff" opacity="0.5"/>
          <rect id="Rectángulo_31828" data-name="Rectángulo 31828" width="46.817" height="3.37" rx="1.104" transform="translate(57.196 27.494)" fill="#9cd7ff" opacity="0.5"/>
          <path id="Trazado_141863" data-name="Trazado 141863" d="M452.634,1914.361h-49.21a1.685,1.685,0,0,1-1.685-1.684h0a1.686,1.686,0,0,1,1.685-1.685h49.21a1.685,1.685,0,0,1,1.684,1.685h0A1.683,1.683,0,0,1,452.634,1914.361Z" transform="translate(-344.543 -1876.797)" fill="#9cd7ff" opacity="0.5"/>
          <path id="Rectángulo_31829" data-name="Rectángulo 31829" d="M1.052,0H41.444A1.052,1.052,0,0,1,42.5,1.052V2.318A1.052,1.052,0,0,1,41.444,3.37H1.051A1.051,1.051,0,0,1,0,2.318V1.052A1.052,1.052,0,0,1,1.052,0Z" transform="translate(57.196 40.896)" fill="#9cd7ff" opacity="0.5"/>
          <path id="Trazado_141864" data-name="Trazado 141864" d="M452.634,1923.666h-49.21a1.686,1.686,0,0,1-1.685-1.686h0a1.686,1.686,0,0,1,1.685-1.685h49.21a1.685,1.685,0,0,1,1.684,1.685h0A1.685,1.685,0,0,1,452.634,1923.666Z" transform="translate(-344.543 -1872.698)" fill="#9cd7ff" opacity="0.5"/>
        </g>
      </g>
    </g>
    <g id="Grupo_82953" data-name="Grupo 82953" transform="translate(304.443 1907.695)">
      <g id="Grupo_82946" data-name="Grupo 82946" transform="translate(3.851)" opacity="0.3" style="mix-blend-mode: multiply;isolation: isolate">
        <g id="Grupo_82945" data-name="Grupo 82945">
          <path id="Trazado_141866" data-name="Trazado 141866" d="M388.785,1872.5c.13-.547-.5-.706-1.167.375a6.139,6.139,0,0,1-4.149,2.766c-.115-.288.288-.389.576-1.023.331-.706.115-1.2-.187-1.311-.245-.086-.778.72-.965.864-.706.605-1.4,1.2-2.1,1.786a4.555,4.555,0,0,0-1.527,2.074c-.014.057-.058.259-.1.519-4.682,3.573-20.153,8.038-22.242,9.306-.5.3-3.76.375-7.707.346-.014-.49-.043-.792-.043-.792s-6.4-1.066-9.45-2.867a6.917,6.917,0,0,0-4.336-.865,5.954,5.954,0,0,0-.461-.706c-.029-.043-.058-.072-.086-.115-.778-.908-1.93-1.383-2.636-2.334-.072-1.167-.115-3.774.49-4.927a20.909,20.909,0,0,1,4.235-4.077c.893-.72,1.6-2.219,1.066-4.552-.792-3.5-1.08-5.028-1.585-6.05-.36-.735-.994-1.239-1.325-1.887a2.654,2.654,0,0,1-.187-.346c.908-1.023-1.743-8.456-9.911-8.254a14.079,14.079,0,0,0-6.036,1.124c-1.829.922-3.875,2.578-3.745,4.221-2.9.562-3.3,3.5-3.529,4.61a14.711,14.711,0,0,0-.173,4.768c.3,2.348,1.181,4.6,1.642,6.914a10.155,10.155,0,0,1-.259,5.791c-.72,1.729-2.435,2.665-3.313,4.35a7.662,7.662,0,0,0,.1,6.943c.519.965,1.066,1.786,1.513,2.621a84.873,84.873,0,0,0-2.377,8.744l-21.406,3.63a1.169,1.169,0,0,0-.951,1.34l5.315,31.259a1.159,1.159,0,0,0,1.34.936l18.093-3.068a29.643,29.643,0,0,0,.029,7.4c.288,2.118,2.42,7.937,2.751,10.041.749,4.826,2.29,11.9,2.2,17.387a12.064,12.064,0,0,0,1.5.951c1.152,6.6,2.118,12.633,1.988,13.555-.288,2.06-2.564,7.851-3.342,13.916-.029.245-.058.5-.086.792h11.87c.821-4.35,1.5-8.182,1.916-11.106v-.014c.1-.735.187-1.383.259-1.988.014-.058.014-.13.029-.173.029-.332.058-.634.086-.922.043-.5.072-1.037.115-1.585.014-.158.014-.331.029-.49.029-.446.043-.907.058-1.4.014-.13.014-.259.029-.4.014-.591.029-1.2.043-1.844.014-.187.014-.389.014-.576.014-.49.014-.98.014-1.484,0-.23.014-.461.014-.692v-.576c1.988,5.762,3.529,10.213,3.529,10.213a64.966,64.966,0,0,0-2.1,13.037H343.51c.36-6.568.663-12.028.763-14.636a113.664,113.664,0,0,0-.36-13.714c0-.014,0-.014.014-.014.706-6.626.576-11.913.072-21.1a76.752,76.752,0,0,0-4.019-19.476l11.164-1.9a1.137,1.137,0,0,0,.936-1.325l-4.927-29.055a15.4,15.4,0,0,1,1.729.086,9.374,9.374,0,0,0,.245-1.34c4.033-.346,7.39-.706,8.225-.864,6.54-1.282,22.8-12.288,24.23-13.267.98.245,4-.807,4.783-2.06a2.139,2.139,0,0,0,.36-1.369c.461-.547,1.268-2.478-.13-2.074C388.036,1875.58,388.4,1874.125,388.785,1872.5Z" transform="translate(-286.436 -1850.424)" fill="#5fb0e7"/>
        </g>
      </g>
      <g id="Grupo_82952" data-name="Grupo 82952" transform="translate(0 0.003)">
        <g id="Grupo_82947" data-name="Grupo 82947" transform="translate(14.432 197.013)">
          <path id="Trazado_141867" data-name="Trazado 141867" d="M357.743,1990.771c0,1.978-14.319,3.581-31.982,3.581s-31.98-1.6-31.98-3.581,14.319-3.58,31.98-3.58S357.743,1988.794,357.743,1990.771Z" transform="translate(-293.781 -1987.191)" fill="#e8e8e8" opacity="0.5" style="mix-blend-mode: multiply;isolation: isolate"/>
        </g>
        <g id="Grupo_82951" data-name="Grupo 82951" transform="translate(0)">
          <g id="Grupo_82948" data-name="Grupo 82948" transform="translate(25.818 74.228)">
            <path id="Trazado_141868" data-name="Trazado 141868" d="M318.915,1914.192l-15.226-12.237s-3.573,8.61-.739,17.636c1.394,4.438-.088,7.594.664,9.7.7,1.966,5.866,29.9,5.579,31.962s-2.561,7.854-3.338,13.91c-.935,7.282-.183,30.919-.892,37.209s5.105,7.213,5.373,5.083c2.288-18.192,8.8-46.61,9.59-55.7S319.912,1936.085,318.915,1914.192Z" transform="translate(-301.609 -1901.955)" fill="#ffe1bd"/>
            <path id="Trazado_141869" data-name="Trazado 141869" d="M315.9,1922.855l-6.135,15.051a33.377,33.377,0,0,1,4.9,15.5c.179,2.871-.007,5.756.141,8.63a2.908,2.908,0,0,0,.1.622c.769-4.281,1.334-7.809,1.533-10.1.557-6.419.318-16.595-.22-29.728A2.986,2.986,0,0,0,315.9,1922.855Z" transform="translate(-298.125 -1892.758)" fill="#fccb95"/>
            <path id="Trazado_141870" data-name="Trazado 141870" d="M311.09,1978.451s-1.233,6.611-.84,7.44,1.8,3.233,3.2,4.081c1.468.89,4.693,1.912,4.96,2.306a.994.994,0,0,1-.153,1.347,6.628,6.628,0,0,1-4.535,1.266c-4.356-.612-4.85-2.521-7.386-2.767-.438-.043-1.232.621-2.453.033a2.87,2.87,0,0,1-1.756-2.744,12.427,12.427,0,0,1,1.809-4.691c.693-1.357,1.056-7.5,1.056-7.5" transform="translate(-301.495 -1868.798)" fill="#ffe1bd"/>
            <path id="Trazado_141871" data-name="Trazado 141871" d="M318.788,1991.312c.3-.549.364-1.37.066-1.563a25.382,25.382,0,0,0-2.74-1.562c-.851-.367-2.194-.677-1.719-.434s-.366,1.213-1.155,1.183c-2.724-.1-4.772-1.861-6.331-2.212-2.249-.506-3.248-3.123-3.356-3.548a10.422,10.422,0,0,0-1.533,3.1,5.359,5.359,0,0,0-.277,2.345,5.448,5.448,0,0,1,.3,2.224,4.276,4.276,0,0,0,1.621.54,6.342,6.342,0,0,0,1.732-.016l.158-1.409a6.4,6.4,0,0,1,1.386.1,7.565,7.565,0,0,1,2.138.935c.318.363.583,1.034,1,1.232a8.667,8.667,0,0,0,3.588.8C316.589,1993.137,318.271,1992.249,318.788,1991.312Z" transform="translate(-301.685 -1866.175)" fill="#594a5f"/>
          </g>
          <g id="Grupo_82949" data-name="Grupo 82949" transform="translate(28.697 71.646)">
            <path id="Trazado_141872" data-name="Trazado 141872" d="M340.012,2026.481c-.324-.351-3.787-.879-5.416-1.54a9.322,9.322,0,0,1-3.819-3.565c-.373-.877-.334-5.341-.307-7.216.193-12.914,2.259-44.486,2.528-52.045.468-13.139-1.374-26.676-6.639-47.706l-18.96-14.248s-5.17,9.848-3.312,19.2c1.079,5.423,5.594,6.214,6.377,8.317s12.511,36.038,12.511,36.038a64.033,64.033,0,0,0-2.187,15.448c-.04,6.886,3.292,27.619,3.95,35.525.084,1.546.387,5.244-.056,6.425-.543,1.451-1.949,3.161-1.858,4.98a2.8,2.8,0,0,0,2.162,2.456c1.337.4,2.073-.379,2.531-.4,2.651-.137,3.4,1.68,7.983,1.632a7.248,7.248,0,0,0,4.526-1.936A.967.967,0,0,0,340.012,2026.481Z" transform="translate(-303.683 -1900.162)" fill="#ffe1bd"/>
            <path id="Trazado_141873" data-name="Trazado 141873" d="M334.723,1990.737c.245-.589.2-1.412-.13-1.559a26.638,26.638,0,0,0-3.029-1.135c-.926-.236-2.354-.34-1.831-.171s-.225,1.258-1.043,1.347c-2.828.308-5.169-1.128-6.824-1.24-2.388-.163-3.289-2.612-3.456-3.016a10.929,10.929,0,0,0-1.654,3.307,5.15,5.15,0,0,0,.012,2.367,5.163,5.163,0,0,1,.594,2.158,4.531,4.531,0,0,0,1.743.292,6.961,6.961,0,0,0,1.788-.277l-.014-1.421a6.927,6.927,0,0,1,1.446-.107,4.8,4.8,0,0,1,2.341.8c.392.288.807.777,1.266.887a9.593,9.593,0,0,0,3.719.243C332.682,1992.878,334.307,1991.744,334.723,1990.737Z" transform="translate(-297.984 -1862.806)" fill="#594a5f"/>
          </g>
          <g id="Grupo_82950" data-name="Grupo 82950" transform="translate(47.066 21.647)">
            <path id="Trazado_141874" data-name="Trazado 141874" d="M350.658,1875.426c.941.272,4.019-.794,4.813-2.064a2.152,2.152,0,0,0,.36-1.366c.462-.546,1.262-2.476-.127-2.074,1.43-.958,1.794-2.411,2.182-4.041.13-.546-.5-.71-1.164.373a6.158,6.158,0,0,1-4.15,2.77c-.115-.3.285-.4.583-1.03.331-.7.114-1.193-.2-1.31-.238-.088-.778.715-.962.87q-1.048.893-2.1,1.783a4.38,4.38,0,0,0-1.523,2.073c-.058.159-.425,1.77.267,1.546" transform="translate(-302.432 -1865.454)" fill="#ffe1bd"/>
            <path id="Trazado_141875" data-name="Trazado 141875" d="M319.008,1888.391c7.063-.082,19.711-1.291,21.449-1.632,6.848-1.344,24.349-13.341,24.349-13.341a3.333,3.333,0,0,0-2.335-3.575c-4.438,3.6-20.33,8.165-22.446,9.451-1.373.835-23.59-.075-23.59-.075" transform="translate(-316.435 -1863.52)" fill="#ffe1bd"/>
          </g>
          <path id="Trazado_141876" data-name="Trazado 141876" d="M303.109,1876.694a90.189,90.189,0,0,0-3.982,14.488l7.262,1.142V1882.04" transform="translate(-276.994 -1838.854)" fill="#fed947"/>
          <rect id="Rectángulo_31830" data-name="Rectángulo 31830" width="61.183" height="34.014" rx="0.802" transform="translate(0 53.916) rotate(-9.643)" fill="#2c1e56"/>
          <path id="Trazado_141877" data-name="Trazado 141877" d="M345.96,1911.715l-54.808,9.541a1.007,1.007,0,0,1-1.163-.824l-4.63-27.248a1.009,1.009,0,0,1,.824-1.161l54.809-9.541a1,1,0,0,1,1.161.824l4.63,27.248A1,1,0,0,1,345.96,1911.715Z" transform="translate(-283.064 -1836.311)" fill="#39297f"/>
          <path id="Trazado_141878" data-name="Trazado 141878" d="M293.178,1915.334l-.916.154a.867.867,0,0,1-1-.71l-3.987-23.47a.867.867,0,0,1,.709-1l.916-.153a.865.865,0,0,1,1,.709l3.989,23.47A.866.866,0,0,1,293.178,1915.334Z" transform="translate(-282.22 -1832.93)" fill="#4c4199"/>
          <path id="Trazado_141879" data-name="Trazado 141879" d="M296.6,1914.68l-.916.153a.865.865,0,0,1-1-.709l-3.989-23.47a.867.867,0,0,1,.71-1l.916-.154a.867.867,0,0,1,1,.71l3.989,23.47A.868.868,0,0,1,296.6,1914.68Z" transform="translate(-280.715 -1833.219)" fill="#4c4199"/>
          <path id="Trazado_141880" data-name="Trazado 141880" d="M300.013,1914.026l-.916.153a.868.868,0,0,1-1-.71L294.108,1890a.867.867,0,0,1,.71-1l.915-.153a.868.868,0,0,1,1,.709l3.987,23.471A.868.868,0,0,1,300.013,1914.026Z" transform="translate(-279.21 -1833.507)" fill="#4c4199"/>
          <path id="Trazado_141881" data-name="Trazado 141881" d="M303.428,1913.371l-.916.154a.868.868,0,0,1-1-.71l-3.987-23.47a.865.865,0,0,1,.709-1l.916-.154a.867.867,0,0,1,1,.71l3.989,23.47A.867.867,0,0,1,303.428,1913.371Z" transform="translate(-277.705 -1833.795)" fill="#4c4199"/>
          <path id="Trazado_141882" data-name="Trazado 141882" d="M306.845,1912.717l-.916.153a.866.866,0,0,1-1-.71l-3.989-23.469a.869.869,0,0,1,.71-1l.916-.153a.867.867,0,0,1,1,.71l3.989,23.469A.869.869,0,0,1,306.845,1912.717Z" transform="translate(-276.2 -1834.084)" fill="#4c4199"/>
          <path id="Trazado_141883" data-name="Trazado 141883" d="M310.263,1912.062l-.916.154a.869.869,0,0,1-1-.71l-3.987-23.471a.867.867,0,0,1,.71-1l.915-.154a.869.869,0,0,1,1,.71l3.987,23.47A.866.866,0,0,1,310.263,1912.062Z" transform="translate(-274.695 -1834.372)" fill="#4c4199"/>
          <path id="Trazado_141884" data-name="Trazado 141884" d="M313.678,1911.408l-.916.153a.868.868,0,0,1-1-.709l-3.987-23.47a.867.867,0,0,1,.709-1l.916-.152a.865.865,0,0,1,1,.71l3.989,23.47A.867.867,0,0,1,313.678,1911.408Z" transform="translate(-273.19 -1834.66)" fill="#4c4199"/>
          <path id="Trazado_141885" data-name="Trazado 141885" d="M317.1,1910.753l-.916.154a.866.866,0,0,1-1-.71l-3.989-23.47a.868.868,0,0,1,.71-1l.916-.153a.866.866,0,0,1,1,.709l3.989,23.47A.867.867,0,0,1,317.1,1910.753Z" transform="translate(-271.685 -1834.948)" fill="#4c4199"/>
          <path id="Trazado_141886" data-name="Trazado 141886" d="M320.513,1910.1l-.916.152a.867.867,0,0,1-1-.709l-3.987-23.471a.866.866,0,0,1,.71-1l.915-.154a.868.868,0,0,1,1,.71l3.987,23.471A.868.868,0,0,1,320.513,1910.1Z" transform="translate(-270.18 -1835.237)" fill="#4c4199"/>
          <path id="Trazado_141887" data-name="Trazado 141887" d="M323.928,1909.445l-.916.153a.867.867,0,0,1-1-.71l-3.987-23.469a.867.867,0,0,1,.709-1l.916-.153a.866.866,0,0,1,1,.709l3.989,23.47A.868.868,0,0,1,323.928,1909.445Z" transform="translate(-268.674 -1835.525)" fill="#4c4199"/>
          <path id="Trazado_141888" data-name="Trazado 141888" d="M327.345,1908.79l-.916.154a.867.867,0,0,1-1-.71l-3.989-23.47a.867.867,0,0,1,.71-1l.916-.154a.868.868,0,0,1,1,.71l3.989,23.47A.868.868,0,0,1,327.345,1908.79Z" transform="translate(-267.169 -1835.813)" fill="#4c4199"/>
          <path id="Trazado_141889" data-name="Trazado 141889" d="M307.368,1900.354c-5.235,4.518-7.243,12.011-6.19,20.007.279,2.116,2.417,7.933,2.747,10.048.749,4.813,2.29,11.9,2.2,17.387,7.024,5.094,21.287,4.649,27.743.846.717-6.634.583-11.907.075-21.1-.766-13.871-6.953-26.8-7.079-27.959" transform="translate(-276.21 -1828.773)" fill="#d64626"/>
          <path id="Trazado_141890" data-name="Trazado 141890" d="M326.464,1900.975a65.626,65.626,0,0,0,.346,10.516,21.2,21.2,0,0,1,.344,2.773,1.581,1.581,0,0,1-.549,1.082,7.667,7.667,0,0,1-3.807,1.474c-5.2.939-13.43.313-15.751.768-2.178.438-4.418-.3-4.418-1.631,0-.923.846-1.441.923-3.258.173-3.982.047-13.04-.689-17.082-1.536-8.479-1.959-13.509-.893-22.991l15.89-4.513c1.222.2.69,3.934,1.912,4.137.893.141,5.923,4.921,7.349,10.563a21.842,21.842,0,0,1,1.834,3.666,6.467,6.467,0,0,1-.016,5.016A35.488,35.488,0,0,0,326.464,1900.975Z" transform="translate(-276.001 -1842.635)" fill="#fed947"/>
          <path id="Trazado_141891" data-name="Trazado 141891" d="M319.185,1895.358a65.618,65.618,0,0,0,.346,10.516,21.2,21.2,0,0,1,.344,2.773,1.581,1.581,0,0,1-.549,1.082v-.016c.471-1.05-.658-6.268-1.144-9.2a33.159,33.159,0,0,1,.69-12.207c1.034-3.589,1.426-5.3,1.426-5.3s.814-1.223,1.379-2.148a6.467,6.467,0,0,1-.016,5.016A35.491,35.491,0,0,0,319.185,1895.358Z" transform="translate(-268.722 -1837.018)" fill="#f29127"/>
          <path id="Trazado_141892" data-name="Trazado 141892" d="M320.61,1873.58a6.952,6.952,0,0,1,4.683.8c3.064,1.809,9.46,2.874,9.46,2.874s.491,7.308-.3,10.111c0,0-2.125-.334-8.424.35-6.513.706-15.206,5.022-15.206,5.022" transform="translate(-271.84 -1840.275)" fill="#fed947"/>
          <path id="Trazado_141893" data-name="Trazado 141893" d="M324.016,1858.438c-1.556-2.983-4.026-7.2-9.931-6.618s-10.962,4.309-10.89,8.734,3.067,9.755,4.222,12.816.664,7.613.664,7.613l13.091-.471s-.341-4,.458-5.513a21.013,21.013,0,0,1,4.234-4.074c.889-.717,1.606-2.216,1.075-4.551-.8-3.495-1.082-5.029-1.59-6.054C324.982,1859.586,324.355,1859.086,324.016,1858.438Z" transform="translate(-275.202 -1849.837)" fill="#ffe1bd"/>
          <path id="Trazado_141894" data-name="Trazado 141894" d="M325.449,1882.859c-.792-.941-2.01-1.41-2.711-2.422a5.466,5.466,0,0,1-.935-3.543,6.6,6.6,0,0,1,.782-2.005c1.425-2.869,1.515-4.725-.517-7.044a8.073,8.073,0,0,1-1.662-2.508c-.307-.86-.546-1.8.288-2.321a1.117,1.117,0,0,1,1.51.016c.323.291,1.256,3.031,1.42,1.151.157-1.8.84-2.256-.739-5.487-.187-.383-1.062-1.889-.932-2.233,2.03.387,2.724.922,3.554,2.219.909-1.017-1.743-8.454-9.909-8.251a14.016,14.016,0,0,0-6.03,1.118c-1.835.931-3.879,2.576-3.755,4.224-2.893.558-3.3,3.506-3.524,4.605a14.505,14.505,0,0,0-.173,4.78c.307,2.348,1.18,4.588,1.644,6.91a10.115,10.115,0,0,1-.266,5.783c-.717,1.73-2.432,2.672-3.3,4.359a7.6,7.6,0,0,0,.1,6.939c1.126,2.136,2.538,3.539,2.169,6.164a8.39,8.39,0,0,0,2.764,8.006,8.637,8.637,0,0,0,6.24,1.691,14.46,14.46,0,0,0,5.117-1.615c3.05-1.657,5.771-2.727,7.743-7.128,1.116-2.492-.519-2.839.477-5.395.557-1.43,1.75-2.617,1.9-4.207a5.335,5.335,0,0,0-1.161-3.7C325.51,1882.933,325.48,1882.9,325.449,1882.859Z" transform="translate(-276.874 -1850.426)" fill="#00215b"/>
        </g>
      </g>
    </g>
    <g id="Grupo_82954" data-name="Grupo 82954" transform="translate(554.554 1898.328)">
      <path id="Trazado_141895" data-name="Trazado 141895" d="M538.271,2000.947c-.432-.648-.908-1.239-1.383-1.83h.014c-.014-.014-.029-.043-.058-.072-.274-.331-.562-.663-.85-.98-5.172-6.237-5.488-11.553-5.488-11.668-.086-7.073-.173-16.912-.259-23.855-.014-1.945-.029-3.673-.058-5.042,0-.576,0-1.08-.014-1.527,0,0,.087-.562.216-1.3s.274-1.657.418-2.391c.144-.763.3-1.657.447-2.636v-.029a26.454,26.454,0,0,0-.029-7.693,8.543,8.543,0,0,1,2.593.562s-1.052-3.717-2.146-8.154c-.4-1.57-.792-3.226-1.167-4.84a63.286,63.286,0,0,1-1.412-7.952c-.245-3.7.821-9.147,1.541-15.212.173-1.455.317-2.953.418-4.466q.173-2.161.173-4.365c0-.447-.014-.893-.029-1.325a27.327,27.327,0,0,0-2.348-10.112c-.2-.447-.4-.879-.634-1.3a41.573,41.573,0,0,0-4.8-7.275,4.426,4.426,0,0,0-1.412-2.175,13.394,13.394,0,0,1-.375-4.437c2.218-.922,4.494-9.608,3.472-15.86q-.087-.562-.216-1.08c-1.282-5.474-4.811-7.62-7.4-7.159-5.618-6.857-14.117.648-16.076,1.585a23.593,23.593,0,0,1-6.9,2.19,10.025,10.025,0,0,1-1.541.087,3.13,3.13,0,0,1-.98-.144c.447,5.805,2.593,8.528,5.272,9.536a7.281,7.281,0,0,0,1.815.446,10.111,10.111,0,0,0,1.484.058,4.161,4.161,0,0,0,.85,3.155c.13.2.663.49.72.735a7.007,7.007,0,0,1,0,2.391.947.947,0,0,0-.014.2c-.13.6-.274,1.426-.375,2.2-.043.447-.086.893-.086,1.253a2.328,2.328,0,0,0,.086.72c.173.461.778.576,1.4.562.245-.014.475-.029.691-.058.1.2.187.4.288.6a17.616,17.616,0,0,0,2.924,4.336,3.983,3.983,0,0,0,1.066.274,13.806,13.806,0,0,0,6.122-1.239,12.981,12.981,0,0,1,.475,1.743c-.576.2-.936.317-.936.317a25.411,25.411,0,0,0,0,3.227,10.65,10.65,0,0,0-1.066,1.066,6.653,6.653,0,0,0-.576.72,4.97,4.97,0,0,0-.288.461,53.758,53.758,0,0,0-5.877,12.965c-.605,1.858-1.138,3.76-1.613,5.69-.014.029-.014.058-.029.087-.274.043-.576.1-.908.144-4.019.72-11.106,2.161-18.568,4.235l-2.118.605.043.346c-1.152.014-2.967-.158-4.034-.043-.691.058-2.132,1.4-3.486,2.492-1.095,1.253-2.089,2.377-1.786,2.564a.382.382,0,0,0,.173.043,2.079,2.079,0,0,0,1.023-.576.91.91,0,0,0,.591-.014c.533-.158,1.34-1.152,1.729-1.426.173-.13.605-.4,1.008-.663a2.7,2.7,0,0,1,1.311.029.629.629,0,0,1-.331.764c-.36.23-1.21.331-1.282.576s0,.692,1.224.461a6.539,6.539,0,0,0,2.535-1.037,3,3,0,0,1,1.729-.547l.072.475s9.248.086,17.949-.115l1.4-.043q-.194,1.016-.346,2.031a3.364,3.364,0,0,1-.533.057l-3.155.087a.679.679,0,0,0-.245-.058H469.068l-2.161-6.007-1.613-4.466-2.06-5.69-3.717-10.314a.916.916,0,0,0-1.152-.547l-.375.144a.9.9,0,0,0-.547,1.167l3.443,9.551,2.06,5.69,1.6,4.466,2.19,6.05c-.691-.576-1.08-.648-.98-.043a6.383,6.383,0,0,0,3.371,3.875,19.7,19.7,0,0,0,3.789,1.066,3.511,3.511,0,0,0,1.5-.043,14.693,14.693,0,0,1,2.708-.36l-.029.951s9.551,1.023,16.163,1.974c2.723.389,5.4.619,7.88.735-.072.692-.158,1.4-.23,2.089-.245,2.391-.432,4.711-.576,6.871-.13,1.714-.23,3.328-.317,4.84-.331,6.353-.389,10.732-.648,11.279,0,0,.821.836,3.688,1.008q.065.864.13,1.772v.015c-.1.893-.346,4.48-.677,9.089-.1,1.584-.23,3.284-.346,5.042-.5,7.275-1.08,15.486-1.455,19.994a5.611,5.611,0,0,0-.331,2.219c.014.5-.014,5.575,0,6.18.1,2.333.3,6.064.547,10.588H512.86c-.072-.432-.159-.864-.245-1.282-.029-.158-.058-.3-.087-.461-.014-.259-.043-.576-.1-.994-.663-5.575-.677-3.961.85-11.006.792-2.031,1.743-4.451,2.766-7.044,1.642,5.834,3.011,10.8,3.587,13.743a.627.627,0,0,0,.014.072c.029.158.058.3.086.446a3.65,3.65,0,0,0,.23.72c.029.072.072.158.1.245a7.633,7.633,0,0,0,.691,1.368c0,.029.029.043.043.072.677,1.08,1.585,2.478,2.651,4.12h15.2C538.516,2001.321,538.4,2001.134,538.271,2000.947Z" transform="translate(-457.388 -1843.922)" fill="#5fb0e7" opacity="0.3" style="mix-blend-mode: multiply;isolation: isolate"/>
    </g>
    <g id="Grupo_82961" data-name="Grupo 82961" transform="translate(550.349 1898.326)">
      <g id="Grupo_82955" data-name="Grupo 82955" transform="translate(19.947 205.227)" opacity="0.5">
        <path id="Trazado_141896" data-name="Trazado 141896" d="M468.315,1988.85c0,1.36,20.542,2.463,45.885,2.463s45.884-1.1,45.884-2.463-20.543-2.464-45.884-2.464S468.315,1987.49,468.315,1988.85Z" transform="translate(-468.315 -1986.387)" fill="#e8e8e8"/>
      </g>
      <g id="Grupo_82956" data-name="Grupo 82956" transform="translate(35.799 194.861)">
        <path id="Trazado_141897" data-name="Trazado 141897" d="M486.37,1979.191s-.251,6.491.088,7.977c.267,1.171,3.9,1.286,4.346.666s1.008-8.153,1.008-8.153" transform="translate(-476.253 -1979.191)" fill="#ffe1bd"/>
        <path id="Trazado_141898" data-name="Trazado 141898" d="M494.878,1986.786a25.484,25.484,0,0,1-.347,3.283h-4.4l-.216-.733a6.909,6.909,0,0,1-2.545.733h-3.709c-2.715,0-4.258-.346-4.327-.824-.287-2,2.959-1.906,3.8-1.906,2.426,0,5.052-1.137,5.624-2.368.416-.893.232-1.119.735-.952a1.262,1.262,0,0,1,.753.651,2.228,2.228,0,0,0,2.292,1.25,2.652,2.652,0,0,0,1.485-.718A1.6,1.6,0,0,1,494.878,1986.786Z" transform="translate(-479.32 -1977.087)" fill="#3a3a3a"/>
      </g>
      <g id="Grupo_82957" data-name="Grupo 82957" transform="translate(85.274 192.683)">
        <path id="Trazado_141899" data-name="Trazado 141899" d="M518.07,1980.658s1.2,3.234,1.727,4.313,4.1-.251,4.284-.991-2.721-6.3-2.721-6.3" transform="translate(-511.724 -1977.679)" fill="#ffe1bd"/>
        <path id="Trazado_141900" data-name="Trazado 141900" d="M527.349,1982.829c.462,1.159,1.148,3.406,1.148,3.406l-3.332,1.987-.653-.492a6.484,6.484,0,0,1-1.753,1.831,14.275,14.275,0,0,1-3.3,1.367c-3.044.694-5.395.359-5.635-.059-1.007-1.75,3.028-2.711,3.812-3.024a5.439,5.439,0,0,0,3.361-4.438c.056-.984-.2-1.125.33-1.156,0,0,1.026-.173,1.636,1.36.039-.01,2.4-.431,3.011-1.937A1.6,1.6,0,0,1,527.349,1982.829Z" transform="translate(-513.665 -1975.92)" fill="#3a3a3a"/>
      </g>
      <g id="Grupo_82959" data-name="Grupo 82959" transform="translate(43.225 87.221)">
        <path id="Trazado_141901" data-name="Trazado 141901" d="M513.594,1929.3s.346-2.228.628-3.68c.893-4.608,2.291-13.858-5.251-21.15,0,0-8.889,3.979-16.007,4.46-5.605.378-6.891,0-6.891,0s-.366,7.566,1.9,26.53Z" transform="translate(-483.781 -1904.468)" fill="#afafaf"/>
        <g id="Grupo_82958" data-name="Grupo 82958" transform="translate(6.184 7.21)">
          <path id="Trazado_141902" data-name="Trazado 141902" d="M532.244,1993.26a30.733,30.733,0,0,1-5.719,2.774l-.527-.925q-.555-1.024-1.152-2.092l-.014-.014a.73.73,0,0,0-.056-.114c-1.266-2.22-2.661-4.566-4.126-6.985l-.014-.014a.109.109,0,0,0-.029-.057c-7.91-12.96-18-27.559-21.583-33.307-.014-.027-.042-.042-.042-.07a8.771,8.771,0,0,1-.7-1.366c-.029-.085-.072-.171-.1-.242a3.635,3.635,0,0,1-.229-.726c-.027-.142-.056-.284-.085-.441a.663.663,0,0,1-.014-.071,3.036,3.036,0,0,1,.726-2.576,2.5,2.5,0,0,1,.455-.412c1.935-1.394,5.82-1.082,9.021,1.18.156.114.327.242.5.37.085.058.17.128.255.185a30.925,30.925,0,0,1,7.684,7.713C523.807,1967.111,528.147,1983.8,532.244,1993.26Z" transform="translate(-484.78 -1893.477)" fill="#636363"/>
          <path id="Trazado_141903" data-name="Trazado 141903" d="M512.828,1965.479c.128,6.075-2.106,7.469-4.566,6.857a6.783,6.783,0,0,1-1.266-.47,11.091,11.091,0,0,1-4.14-3.685c-.014-.027-.043-.042-.029-.071a7.376,7.376,0,0,1-.555-1.024c-.029-.085-.072-.172-.1-.242a3.635,3.635,0,0,1-.229-.726c-.027-.142-.056-.284-.085-.441a.659.659,0,0,1-.014-.07c-.6-3.031-2.02-8.224-3.741-14.284-.982-3.43-2.048-7.129-3.116-10.856-3.244-11.2-6.3-22.181-6.217-25.4.313-11.553,13.73-2.361,20.16,2.162,2.7,1.922,3.4,5.222,3.443,8.267.056,2.859.313,31.015.426,38.854.014.2.014.385.014.556C512.828,1965.123,512.828,1965.308,512.828,1965.479Z" transform="translate(-488.768 -1909.473)" fill="#636363"/>
          <path id="Trazado_141904" data-name="Trazado 141904" d="M507.107,1942.818s.284,5.987,6.4,12.736c0,0-8.851-2.679-9.332-3.188a31.488,31.488,0,0,1-2.678-6.808C501.576,1944.914,507.107,1942.818,507.107,1942.818Z" transform="translate(-483.159 -1894.784)" fill="#636363"/>
        </g>
        <path id="Trazado_141905" data-name="Trazado 141905" d="M525.908,2004.386c-1.266-2.22-2.661-4.566-4.126-6.985l-.014-.014a.108.108,0,0,0-.029-.058c-7.91-12.96-18-27.559-21.583-33.307-.014-.027-.042-.042-.042-.07a8.775,8.775,0,0,1-.7-1.365c-.029-.085-.072-.172-.1-.242a3.635,3.635,0,0,1-.229-.726c-.027-.142-.056-.284-.085-.441a.66.66,0,0,1-.014-.07c-.6-3.031-2.02-8.224-3.741-14.284l10.115-27.132h3.685s-4.154,12.534-5.847,18.182-2.161,14.459-2.309,17.69c-.326,7.1,8.388,19.133,10.879,23.521C514.449,1983.8,525,2002.594,525.908,2004.386Z" transform="translate(-479.729 -1897.762)" fill="#636363" opacity="0.323" style="mix-blend-mode: multiply;isolation: isolate"/>
        <path id="Trazado_141906" data-name="Trazado 141906" d="M492.681,2001.94c-.18.013-.36.011-.527.01a30.134,30.134,0,0,1-5.815-.432l.006-1.069c.3-16.37-1.524-43.141-1.861-51.6-.022-.592.009-5.674,0-6.168-.158-7.286,7.135-.792,9.791,4.912a22.787,22.787,0,0,1,1.494,4.385c.464,1.907.48,4.026.954,6.184C499.527,1970.923,493.837,1991.393,492.681,2001.94Z" transform="translate(-484.475 -1889.061)" fill="#afafaf"/>
        <path id="Trazado_141907" data-name="Trazado 141907" d="M510.03,1926.339c-.03.167-12.061,30.02-14.411,36.5v.013a3.938,3.938,0,0,1-2.87,1.988c-3.238.8-8.008-.52-8.261-6.951a15.781,15.781,0,0,1,.084-2.316c.555-5.2,2.414-33.969,2.714-36.742s.89-6.815,2.37-7.294C497.039,1909.187,512.205,1915.965,510.03,1926.339Z" transform="translate(-484.475 -1901.558)" fill="#afafaf"/>
        <path id="Trazado_141908" data-name="Trazado 141908" d="M494.347,1943.446c-1.639,7.642-1.634,5.791-.949,11.492.665,5.55-1.789-4.853-1.789-4.853l1.534-3.882Z" transform="translate(-481.332 -1887.297)" fill="#afafaf"/>
      </g>
      <path id="Trazado_141909" data-name="Trazado 141909" d="M471.911,1888.852a7.614,7.614,0,0,0-1.815-.134,5.738,5.738,0,0,1-.63.4v.32a.675.675,0,0,0-.121.019c-.076.037-1.21.764-1.325.853s-1.5,1.664-1.5,1.664.226.207.749.054,1.337-1.145,1.719-1.426c.176-.128.6-.4,1.011-.658a2,2,0,0,1,1.739.282C472.388,1890.915,471.911,1888.852,471.911,1888.852Z" transform="translate(-449.159 -1824.201)" fill="#f4d4b3"/>
      <path id="Trazado_141910" data-name="Trazado 141910" d="M479.743,1887.1s-2.942.948-3.855,1.117-3.45-.135-4.8,0c-.7.07-2.128,1.406-3.492,2.5-1.095,1.245-2.08,2.371-1.782,2.556.612.38,2.161-1.569,3.43-2.479a1.945,1.945,0,0,1,2.207-.356c.439.305.245.752-.127.99s-1.217.337-1.285.575,0,.7,1.217.465a6.467,6.467,0,0,0,2.537-1.04,3.108,3.108,0,0,1,1.724-.542c.913-.1,5.412-.9,5.412-.9" transform="translate(-449.495 -1824.899)" fill="#ffe1bd"/>
      <path id="Trazado_141911" data-name="Trazado 141911" d="M496.058,1883.947l-.925,7.767-.1.784c-.256.013-.5.013-.755.027-1.167.043-2.375.072-3.585.114-8.692.2-17.94.114-17.94.114l-.532-3.453a207.524,207.524,0,0,1,20.692-4.827C494.892,1884.131,496.058,1883.947,496.058,1883.947Z" transform="translate(-446.647 -1826.287)" fill="#b52426"/>
      <g id="Grupo_82960" data-name="Grupo 82960" transform="translate(0 41.092)">
        <rect id="Rectángulo_31831" data-name="Rectángulo 31831" width="2.213" height="30.003" rx="0.632" transform="matrix(0.941, -0.338, 0.338, 0.941, 0, 0.749)" fill="#636363"/>
        <rect id="Rectángulo_31832" data-name="Rectángulo 31832" width="32.237" height="2.284" rx="0.734" transform="translate(9.989 27.332)" fill="#636363"/>
      </g>
      <path id="Trazado_141912" data-name="Trazado 141912" d="M490.41,1883.947l-.925,7.767c-.256.242-.54.527-.854.811-1.167.043-2.375.072-3.585.114a69.977,69.977,0,0,1,2.22-8.166C489.243,1884.131,490.41,1883.947,490.41,1883.947Z" transform="translate(-440.998 -1826.287)" fill="#97181a"/>
      <path id="Trazado_141913" data-name="Trazado 141913" d="M518.225,1932.492c-3.941-1.608-9.844.17-20.957,2.888s-13.488.228-13.488.228c.4-.84.3-10.742,1.537-22.992.256-2.632.6-5.377,1-8.167,1.665-11.34,4.653-23.39,10.229-31.7,2.76-4.111,10.6-6.118,10.6-6.118,4.283,5.236,8.509,11.468,8.495,20.872s-2.491,18.61-2.135,24.029C513.886,1916.969,518.225,1932.492,518.225,1932.492Z" transform="translate(-441.555 -1833.914)" fill="#b52426"/>
      <path id="Trazado_141914" data-name="Trazado 141914" d="M494.394,1909.506a57.733,57.733,0,0,1-9.546.114c.256-2.632.6-5.377,1-8.167l.37-.014a4.63,4.63,0,0,0,4.368-3.457c.74-2.789,1.992-7.227,3.869-13.074,3.343-10.444,6.83-10.856,6.83-10.856s5.108-2.619,5.321,2.93C506.8,1882.446,500.924,1908.709,494.394,1909.506Z" transform="translate(-441.085 -1830.918)" fill="#97181a"/>
      <path id="Trazado_141915" data-name="Trazado 141915" d="M502.414,1926.43s3.787-1.366,5.951-7.865l-2.341-4.127-4.98,2.312a36.558,36.558,0,0,0-.667,4.713C500.555,1921.685,502.414,1926.43,502.414,1926.43Z" transform="translate(-434.255 -1812.855)" fill="#afafaf"/>
      <path id="Trazado_141916" data-name="Trazado 141916" d="M473.8,1895.446l-.343-2.773a21.275,21.275,0,0,1-3.673.18c-1.181-.143-2.589-.769-4.3-1.1s-2.09.37-1.821.784c.327.483,2.263.725,2.263.725s.269.242-.784.242h-1.088a4.445,4.445,0,0,1-1.288-.578c-.192-.189-.385-.382-.606-.616-1.125-1.193-1.837-1.57-1.719-.762a6.384,6.384,0,0,0,3.379,3.875,19.657,19.657,0,0,0,3.787,1.057,3.392,3.392,0,0,0,1.492-.037,14.724,14.724,0,0,1,3.237-.383c.951.04,1.541.045,1.541.045C476,1896.278,474.881,1895.807,473.8,1895.446Z" transform="translate(-451.841 -1823.126)" fill="#ffe1bd"/>
      <path id="Trazado_141917" data-name="Trazado 141917" d="M508,1872.46s-3.483.408-6.83,10.856c-1.871,5.84-3.123,10.288-3.862,13.076a4.652,4.652,0,0,1-4.376,3.459l-24.456.642-.158,4.87s9.546,1.033,16.166,1.976a71.483,71.483,0,0,0,16.628.569c6.533-.8,12.942-29.488,12.626-32.417C513.243,1870.914,508,1872.46,508,1872.46Z" transform="translate(-448.368 -1831.458)" fill="#b52426"/>
      <path id="Trazado_141918" data-name="Trazado 141918" d="M484.706,1857.7s-.627,1.245.762,3.407c.13.2.668.487.732.733a8.071,8.071,0,0,1-.026,2.589,23.262,23.262,0,0,0,4.931,9.623c2.365,1.046,6.984-.6,10.889-2.655.833-.073,5.442-2.341,4.777-8.888s-5.785-12.561-6.134-12.7-10.463,1.723-10.869,1.81S484.706,1857.7,484.706,1857.7Z" transform="translate(-441.21 -1841.33)" fill="#ffd1ab"/>
      <path id="Trazado_141919" data-name="Trazado 141919" d="M501.867,1862.783s-2.676-.592-2.789-4.073-.562-3.6-2.692-1.651-16.5,9.536-17.734-6.553c1.6.506,5.64-.315,9.425-2.135,1.968-.945,10.461-8.45,16.081-1.589,2.761-.488,6.586,1.981,7.615,8.238s-1.246,14.934-3.472,15.869c-1.432.6-2.112-.86-2.643-3.824-.226-1.544,3.8-4.536-.429-8.406A2.714,2.714,0,0,0,501.867,1862.783Z" transform="translate(-443.815 -1843.92)" fill="#12263f"/>
      <path id="Trazado_141920" data-name="Trazado 141920" d="M502.044,1863s-.395,4.506,1.275,5.916c-2.568,3.1-8.346,3.567-8.346,3.567s1.315-2.115-1.638-7.607S502.044,1863,502.044,1863Z" transform="translate(-437.558 -1836.03)" fill="#ffd1ab"/>
      <path id="Trazado_141921" data-name="Trazado 141921" d="M493.792,1871.367a24.82,24.82,0,0,1,0-3.224s5.569-1.919,8.247-2.427a4.534,4.534,0,0,1,1.412,2.178S497.838,1870.7,493.792,1871.367Z" transform="translate(-437.171 -1834.318)" fill="#97181a"/>
      <path id="Trazado_141922" data-name="Trazado 141922" d="M486.02,1859.289s-.935,4.146-.572,5.147,2.834.354,2.834.354Z" transform="translate(-440.858 -1837.149)" fill="#ffd1ab"/>
    </g>
    <g id="Grupo_82967" data-name="Grupo 82967" transform="translate(269.327 1752.263)">
      <g id="Grupo_82962" data-name="Grupo 82962" transform="translate(287.135 75.498)">
        <path id="Trazado_141998" data-name="Trazado 141998" d="M2.793,0H128.059a2.794,2.794,0,0,1,2.794,2.794V59.869s-1.251,2.793-2.793,2.793H2.793A2.793,2.793,0,0,1,0,59.869V2.793A2.793,2.793,0,0,1,2.793,0Z" transform="translate(2.885 2.881)" fill="#e8e8e8" style="mix-blend-mode: multiply;isolation: isolate"/>
        <path id="Trazado_141923" data-name="Trazado 141923" d="M589.569,1798.953v54.625a4.021,4.021,0,0,1-4.019,4.019h-122.8a4.024,4.024,0,0,1-4.033-4.019v-54.625a4.024,4.024,0,0,1,4.033-4.019h122.8A4.021,4.021,0,0,1,589.569,1798.953Z" transform="translate(-458.712 -1794.934)" fill="#fff"/>
        <path id="Trazado_141924" data-name="Trazado 141924" d="M589.569,1798.953v7.865H458.712v-7.865a4.024,4.024,0,0,1,4.033-4.019h122.8A4.021,4.021,0,0,1,589.569,1798.953Z" transform="translate(-458.712 -1794.934)" fill="#d64626"/>
        <path id="Trazado_141925" data-name="Trazado 141925" d="M582.9,1808.037v37.7H462.135v-12.043c4.873-6.684,11.533-11.127,26.769-2.123,14.641,8.652,14.6-19.207,31.331-17.766s21.182,26.415,34.159,7.328S582.9,1808.037,582.9,1808.037Z" transform="translate(-457.204 -1789.555)" fill="#d64626" opacity="0.5"/>
        <rect id="Rectángulo_31834" data-name="Rectángulo 31834" width="23.793" height="1.621" transform="translate(4.931 18.246)" fill="#636363" opacity="0.5"/>
        <rect id="Rectángulo_31835" data-name="Rectángulo 31835" width="40.215" height="1.621" transform="translate(4.931 21.127)" fill="#636363" opacity="0.5"/>
        <rect id="Rectángulo_31836" data-name="Rectángulo 31836" width="30.191" height="1.621" transform="translate(4.931 24.008)" fill="#636363" opacity="0.5"/>
        <rect id="Rectángulo_31837" data-name="Rectángulo 31837" width="36.433" height="1.621" transform="translate(4.931 26.889)" fill="#636363" opacity="0.5"/>
        <rect id="Rectángulo_31838" data-name="Rectángulo 31838" width="23.793" height="1.621" transform="translate(4.931 29.77)" fill="#636363" opacity="0.5"/>
      </g>
      <g id="Grupo_82964" data-name="Grupo 82964" transform="translate(35.555)">
        <path id="Trazado_141926" data-name="Trazado 141926" d="M361.47,1783.454a38.924,38.924,0,0,1-72.963,0Z" transform="translate(-282.111 -1724.494)" fill="#5fb0e7" style="mix-blend-mode: multiply;isolation: isolate"/>
        <g id="Grupo_82963" data-name="Grupo 82963">
          <path id="Trazado_141927" data-name="Trazado 141927" d="M291.039,1756.624a38.913,38.913,0,0,0-4.869,34.846l36.82-12.633Z" transform="translate(-284.067 -1736.313)" fill="#dff7f9"/>
          <path id="Trazado_141928" data-name="Trazado 141928" d="M314.957,1742.524v38.923l28.623,26.361a38.912,38.912,0,0,0-28.623-65.284Z" transform="translate(-270.459 -1742.524)" fill="#20287a"/>
          <path id="Trazado_141929" data-name="Trazado 141929" d="M320.858,1745.024a38.834,38.834,0,0,0-31.951,16.71l31.951,22.213Z" transform="translate(-281.935 -1741.423)" fill="#fed947"/>
          <path id="Trazado_141930" data-name="Trazado 141930" d="M306.067,1810.276a38.929,38.929,0,0,0,35.855-11.87L313.3,1772.044Z" transform="translate(-274.375 -1729.52)" fill="#d64626"/>
          <path id="Trazado_141931" data-name="Trazado 141931" d="M285.527,1784.677a38.959,38.959,0,0,0,29.588,25.6l7.231-38.232Z" transform="translate(-283.424 -1729.52)" fill="#2a94ee"/>
        </g>
      </g>
      <g id="Grupo_82965" data-name="Grupo 82965" transform="translate(0 142.538)">
        <path id="Trazado_141932" data-name="Trazado 141932" d="M314.5,1842.373h-51.87a2.581,2.581,0,0,0-2.581,2.581v16.379a2.58,2.58,0,0,0,2.581,2.58H305.64c.216,1.731,1.432,5.15,7.681,5.15,0,0-2.571-.471-3.107-5.15h4.29a2.58,2.58,0,0,0,2.581-2.58v-16.379A2.581,2.581,0,0,0,314.5,1842.373Z" transform="translate(-259.091 -1841.077)" fill="#5fb0e7" style="mix-blend-mode: multiply;isolation: isolate"/>
        <path id="Trazado_141933" data-name="Trazado 141933" d="M313.837,1841.473h-51.87a2.581,2.581,0,0,0-2.581,2.581v16.377a2.581,2.581,0,0,0,2.581,2.581h43.008c.215,1.731,1.432,5.15,7.681,5.15,0,0-2.571-.471-3.109-5.15h4.29a2.581,2.581,0,0,0,2.581-2.581v-16.377A2.581,2.581,0,0,0,313.837,1841.473Z" transform="translate(-259.385 -1841.473)" fill="#ebfaff"/>
        <rect id="Rectángulo_31839" data-name="Rectángulo 31839" width="53.212" height="2.224" rx="0.551" transform="translate(1.711 2.011)" fill="#b2ebf9"/>
        <rect id="Rectángulo_31840" data-name="Rectángulo 31840" width="53.212" height="2.224" rx="0.551" transform="translate(1.711 5.754)" fill="#b2ebf9"/>
        <rect id="Rectángulo_31841" data-name="Rectángulo 31841" width="53.212" height="2.224" rx="0.551" transform="translate(1.711 9.498)" fill="#b2ebf9"/>
        <rect id="Rectángulo_31842" data-name="Rectángulo 31842" width="53.212" height="2.224" rx="0.551" transform="translate(1.711 13.241)" fill="#b2ebf9"/>
        <rect id="Rectángulo_31843" data-name="Rectángulo 31843" width="53.212" height="2.224" rx="0.551" transform="translate(1.711 16.985)" fill="#b2ebf9"/>
      </g>
      <g id="Grupo_82966" data-name="Grupo 82966" transform="translate(354.497 150.674)">
        <path id="Trazado_141934" data-name="Trazado 141934" d="M508.054,1848.022h51.872a2.581,2.581,0,0,1,2.581,2.58v16.379a2.581,2.581,0,0,1-2.581,2.581H516.918c-.216,1.73-1.432,5.148-7.681,5.148,0,0,2.571-.469,3.109-5.148h-4.291a2.58,2.58,0,0,1-2.58-2.581V1850.6A2.58,2.58,0,0,1,508.054,1848.022Z" transform="translate(-505.474 -1846.724)" fill="#5fb0e7" style="mix-blend-mode: multiply;isolation: isolate"/>
        <path id="Trazado_141935" data-name="Trazado 141935" d="M508.721,1847.121h51.872a2.582,2.582,0,0,1,2.58,2.581v16.379a2.58,2.58,0,0,1-2.58,2.58H517.585c-.216,1.732-1.432,5.15-7.681,5.15,0,0,2.571-.471,3.107-5.15h-4.29a2.581,2.581,0,0,1-2.581-2.58V1849.7A2.583,2.583,0,0,1,508.721,1847.121Z" transform="translate(-505.181 -1847.121)" fill="#dff7f9"/>
        <path id="Trazado_141999" data-name="Trazado 141999" d="M.844,0h14.7a.844.844,0,0,1,.844.844V16.082a.844.844,0,0,1-.844.844H.844A.844.844,0,0,1,0,16.082V.844A.844.844,0,0,1,.844,0Z" transform="translate(56.282 19.208) rotate(180)" fill="#fed947"/>
        <rect id="Rectángulo_31845" data-name="Rectángulo 31845" width="34.474" height="2.13" rx="0.434" transform="translate(37.669 4.412) rotate(180)" fill="#d64626"/>
        <rect id="Rectángulo_31846" data-name="Rectángulo 31846" width="26.933" height="2.13" rx="0.384" transform="translate(37.669 8.111) rotate(180)" fill="#d64626"/>
        <rect id="Rectángulo_31847" data-name="Rectángulo 31847" width="34.474" height="2.13" rx="0.434" transform="translate(37.669 11.81) rotate(180)" fill="#d64626"/>
        <rect id="Rectángulo_31848" data-name="Rectángulo 31848" width="31.675" height="2.13" rx="0.416" transform="translate(37.669 15.509) rotate(180)" fill="#d64626"/>
        <rect id="Rectángulo_31849" data-name="Rectángulo 31849" width="13.188" height="2.13" rx="0.269" transform="translate(37.669 19.208) rotate(180)" fill="#d64626"/>
      </g>
    </g>
    <g id="Grupo_82968" data-name="Grupo 82968" transform="translate(471.594 1763.722)">
      <path id="Trazado_141936" data-name="Trazado 141936" d="M456.275,1788.332H403.912a5.857,5.857,0,0,1,.513-1.828c1.332-3.143,6.184-9.5,23.662-12.334l8.627-1.778S456.72,1772.376,456.275,1788.332Z" transform="translate(-397.984 -1740.825)" fill="#d64626"/>
      <path id="Trazado_141937" data-name="Trazado 141937" d="M438.918,1784.106H403.912a5.857,5.857,0,0,1,.513-1.828,7.961,7.961,0,0,1,4.152-.033c1.281.341,2.135.563,2.135.563h22.773C437.927,1782.808,438.918,1784.106,438.918,1784.106Z" transform="translate(-397.984 -1736.599)" fill="#97181a"/>
      <path id="Trazado_141938" data-name="Trazado 141938" d="M419.293,1775.845a8.467,8.467,0,0,1,1.21,2.968,2.914,2.914,0,0,0,2.993,2.24c7.649-.429,7.141-5.208,7.141-5.208-1.576-2.411-2.534-9.553-2.534-9.553" transform="translate(-391.209 -1743.513)" fill="#ffe1bd"/>
      <path id="Trazado_141939" data-name="Trazado 141939" d="M406.867,1758.007s-.317,9.6,3.977,9.46,0-10.586,0-10.586Z" transform="translate(-396.685 -1747.659)" fill="#12263f"/>
      <path id="Trazado_141940" data-name="Trazado 141940" d="M431.884,1768.685a18.8,18.8,0,0,1,.081,3.634,7.68,7.68,0,0,1-.151.788c-1.039,4.111-6.243,9.912-9.9,10.383a9.741,9.741,0,0,1-1.415.026c-5.091-.23-8.065-4.405-9.791-8.845-.058-.161-.115-.31-.173-.461a40.868,40.868,0,0,1-2.142-9.849c-.032-.351-.268-4.134.472-5.256.814-1.232,10.877-2.4,11.086-2.419s9.879.678,9.879.678A103.956,103.956,0,0,1,431.884,1768.685Z" transform="translate(-396.037 -1747.745)" fill="#ffe1bd"/>
      <path id="Trazado_141941" data-name="Trazado 141941" d="M432.776,1764.937a16.055,16.055,0,0,1-.124,3.564,2.731,2.731,0,0,1-.065.393c-.663,4.111-5.691,10.5-11.347,11.005a11.741,11.741,0,0,1-1.263.112c-6.122.248-8.25-4.366-9.943-8.931-.058-.161-.115-.31-.173-.461,0,0,2.129,3.4,3.191,3.5s-.256-1.226,2.626-2.351a14.241,14.241,0,0,1,5.918-.491c1.2.158,3.349.772,4.111.882a.834.834,0,0,0,.439-.04c1.017-.522,3.492-4.405,3.849-6.6C430.142,1764.672,431.978,1764.8,432.776,1764.937Z" transform="translate(-395.363 -1744.155)" fill="#12263f"/>
      <path id="Trazado_141942" data-name="Trazado 141942" d="M405.524,1757.863s.314,7.378,12.435,4.428c3.326-.811,6.262-1.567,7.911-.677,2.478,7.795,2.558,11.536,3.436,11.229,1.1-.385-1.876-6.86,1.914-6.161,2.9.536-.125,7.681-.125,7.681s3.525.462,3.627-1.174c.06-.978.17-14.941-2.23-18.257s-5.265-3.165-5.265-3.165-3.032-2.557-10.18-.465-10.912-.547-10.893-.342A14.262,14.262,0,0,0,405.524,1757.863Z" transform="translate(-397.331 -1750.479)" fill="#12263f"/>
      <path id="Trazado_141943" data-name="Trazado 141943" d="M455.391,1783.454s-.624,12.615-5.8,20.644v.017s-.052.068-.137.2a.751.751,0,0,0-.137.189c-1.554,2.341-10.182,15.12-15.752,20.193-6.115,5.6-13.155,11.942-13.155,11.942l-.256-.222a17.453,17.453,0,0,0-2.015,2.169c-.478.854-.956,4.015-1.863,4.373a2.464,2.464,0,0,1-.426.1,2.914,2.914,0,0,1-1.315.582,8.42,8.42,0,0,1-2.836-.291,5.732,5.732,0,0,1-1.3,1.009,28.255,28.255,0,0,1-3.417,1.811c-1.007.324-1.178,0-.957-.632.206-.65,2.136-1.708,2.836-2.255a10.679,10.679,0,0,0,2.289-3.025c.428-.939.428-1.452,0-1.452s-1.742.8-2.75,1.008c-1.008.222-1.5-.052-1.008-.632a7.889,7.889,0,0,1,3.537-2.733c1.658-.428,2.136-.428,3.315-1.334a10.4,10.4,0,0,0,1.863-2.254l-.411-.359s11-15.341,19.237-27.2c.189-.256.359-.478.547-.735,4.663-9.4,5.125-16.846,5.091-19.767a2.841,2.841,0,0,0-1.4-1.35Z" transform="translate(-397.091 -1735.953)" fill="#5fb0e7" style="mix-blend-mode: multiply;isolation: isolate"/>
      <path id="Trazado_141944" data-name="Trazado 141944" d="M416.392,1816.581a19.233,19.233,0,0,1-2.937,3.951c-1.174.908-1.655.908-3.31,1.335a7.925,7.925,0,0,0-3.549,2.721c-.481.588,0,.854,1.014.641s2.322-1.014,2.75-1.014.426.52,0,1.462a10.544,10.544,0,0,1-2.3,3.022c-.694.534-2.616,1.6-2.829,2.243s-.053.961.961.641a27.547,27.547,0,0,0,3.417-1.815,5.885,5.885,0,0,0,1.289-1,8.45,8.45,0,0,0,2.835.291,3.146,3.146,0,0,0,1.33-.583,2.665,2.665,0,0,0,.419-.1c.908-.369,1.387-3.519,1.868-4.373a40.735,40.735,0,0,1,3.977-4.031Z" transform="translate(-397.439 -1721.36)" fill="#ffe1bd"/>
      <path id="Trazado_141945" data-name="Trazado 141945" d="M445.809,1805.695v-.009c5.187-8.029,6.946-20.646,6.946-20.646l-6.619-4.51-3.387,1.625c-2.125-.929-5.761-2.3-5.761-2.3l-1.593,5.187a2.887,2.887,0,0,1,1.4,1.35c.033,2.92-.435,10.372-5.089,19.77-.186.252-.37.475-.556.743-8.225,11.844-19.232,27.186-19.232,27.186l4.708,4.139s7.047-6.338,13.169-11.933c5.555-5.078,14.186-17.866,15.742-20.2.045-.065.089-.131.133-.2Z" transform="translate(-394.456 -1737.539)" fill="#d64626"/>
      <path id="Trazado_141946" data-name="Trazado 141946" d="M414.329,1786.586c-.068-.017-.12-.035-.187-.052.2.222.341.393.392.461.189.206.069.343.069.343-.256.272-.478.239-.8.222a1.274,1.274,0,0,1-.6-.291.894.894,0,0,1-.752.172,2.541,2.541,0,0,1-1.178-.837.249.249,0,0,1,0,.239.918.918,0,0,1-.82.222,2.657,2.657,0,0,1-1.265-.924c-.17-.17-.409-.461-.665-.768-.239-.171-.462-.325-.65-.445a1.787,1.787,0,0,0-.991-.324h-.052v-.018c-2.476-.05-3.587-1.128-6.628-1.128h13.787c-.035.017-.052.035-.086.052a5.763,5.763,0,0,1-.837.154l.069.068c.187.206.359.411.513.6.546.667,1.281,1.538,1.417,1.675.187.222.068.359.068.359A.886.886,0,0,1,414.329,1786.586Z" transform="translate(-399.619 -1735.951)" fill="#5fb0e7" style="mix-blend-mode: multiply;isolation: isolate"/>
      <path id="Trazado_141947" data-name="Trazado 141947" d="M413.926,1787.154c-.069-.017-.12-.035-.189-.052.206.222.341.393.393.461.189.206.068.343.068.343-.255.272-.478.239-.8.222a1.268,1.268,0,0,1-.6-.291.894.894,0,0,1-.752.172,2.542,2.542,0,0,1-1.178-.837.249.249,0,0,1,0,.239.919.919,0,0,1-.82.222,2.659,2.659,0,0,1-1.265-.924c-.171-.17-.411-.461-.667-.768-.239-.172-.461-.326-.648-.445a1.787,1.787,0,0,0-.991-.324h-.052v-.017c-2.476-.05-3.587-1.128-6.628-1.128,0,0,7.106-3.417,11.395-.99a14.56,14.56,0,0,0,1.811.187c1.247.017.889.65.5.854a5.811,5.811,0,0,1-.837.154l.069.068c.187.206.359.411.511.6.547.667,1.282,1.538,1.419,1.675.187.222.068.359.068.359A.886.886,0,0,1,413.926,1787.154Z" transform="translate(-399.797 -1736.52)" fill="#ffe1bd"/>
      <path id="Trazado_141948" data-name="Trazado 141948" d="M410.013,1783.813a5.805,5.805,0,0,1-.837.154,11.824,11.824,0,0,0-1.469-1.2,14.535,14.535,0,0,0,1.811.187C410.765,1782.976,410.407,1783.608,410.013,1783.813Z" transform="translate(-396.312 -1736.254)" opacity="0.47" fill="url(#linear-gradient)" style="mix-blend-mode: multiply;isolation: isolate"/>
    </g>
    <g id="Grupo_82992" data-name="Grupo 82992" transform="translate(650.257 2015.953)">
      <g id="Grupo_82969" data-name="Grupo 82969" transform="translate(16.752 87.472)">
        <path id="Trazado_141949" data-name="Trazado 141949" d="M582.719,1988.712c0,1.468-10.579,2.645-23.633,2.645s-23.633-1.177-23.633-2.645c0-1.008,5.045-1.88,12.474-2.324l.382,1.438a1.376,1.376,0,0,0,1.331,1.024H567a1.409,1.409,0,0,0,1.345-1.024l.4-1.528C576.986,1986.71,582.719,1987.642,582.719,1988.712Z" transform="translate(-535.453 -1986.298)" fill="#e8e8e8"/>
      </g>
      <path id="Trazado_141950" data-name="Trazado 141950" d="M554.753,1972.771s-.811-8.459-11.923-12.609-19.006.779-19.006.779,1.089-10.195,9.879-9.731,10.569,6.13,10.569,6.13,4.764-4.961,8.94-1.284c3.466,3.052,2.911,9.115,2.911,9.115s3.289.4,2.812,5.642a12.656,12.656,0,0,1-.291,1.805" transform="translate(-523.824 -1914.289)" fill="#fff5a2"/>
      <g id="Grupo_82976" data-name="Grupo 82976" transform="translate(19.171 15.9)">
        <g id="Grupo_82970" data-name="Grupo 82970" transform="translate(4.418 3.756)">
          <path id="Trazado_141952" data-name="Trazado 141952" d="M553.724,1977.967c-.124-26.412-13.391-38.167-13.525-38.282l.4-.464c.137.117,13.61,12.034,13.738,38.743Z" transform="translate(-540.199 -1939.221)" fill="#20287a"/>
        </g>
        <g id="Grupo_82971" data-name="Grupo 82971">
          <path id="Trazado_141953" data-name="Trazado 141953" d="M542.306,1941.106s-2.795.279-4.431-1.011a1.95,1.95,0,1,1,2.416-3.063A6.842,6.842,0,0,1,542.306,1941.106Z" transform="translate(-537.132 -1936.613)" fill="#20287a"/>
        </g>
        <g id="Grupo_82972" data-name="Grupo 82972" transform="translate(1.202 5.553)">
          <path id="Trazado_141954" data-name="Trazado 141954" d="M543.023,1940.479s-.255,2.8-1.832,4.159a1.95,1.95,0,0,1-2.548-2.952A6.828,6.828,0,0,1,543.023,1940.479Z" transform="translate(-537.967 -1940.468)" fill="#20287a"/>
        </g>
        <g id="Grupo_82973" data-name="Grupo 82973" transform="translate(6.158 1.222)">
          <path id="Trazado_141955" data-name="Trazado 141955" d="M541.407,1941.867s.452-2.772,2.122-4.018a1.95,1.95,0,1,1,2.334,3.126A6.839,6.839,0,0,1,541.407,1941.867Z" transform="translate(-541.407 -1937.462)" fill="#20287a"/>
        </g>
        <g id="Grupo_82974" data-name="Grupo 82974" transform="translate(4.898 10.82)">
          <path id="Trazado_141956" data-name="Trazado 141956" d="M545.882,1944.239s-.58,2.748-2.306,3.915a1.95,1.95,0,1,1-2.187-3.23A6.838,6.838,0,0,1,545.882,1944.239Z" transform="translate(-540.532 -1944.124)" fill="#20287a"/>
        </g>
        <g id="Grupo_82975" data-name="Grupo 82975" transform="translate(10.139 6.982)">
          <path id="Trazado_141957" data-name="Trazado 141957" d="M544.171,1945.463s.773-2.7,2.578-3.741a1.95,1.95,0,0,1,1.95,3.378A6.832,6.832,0,0,1,544.171,1945.463Z" transform="translate(-544.171 -1941.46)" fill="#20287a"/>
        </g>
      </g>
      <g id="Grupo_82991" data-name="Grupo 82991" transform="translate(32.693)">
        <g id="Grupo_82977" data-name="Grupo 82977" transform="translate(7.546 5.342)">
          <path id="Trazado_141958" data-name="Trazado 141958" d="M552.957,1982.274c-3.057-35.045,13.106-52.254,13.27-52.425l-.586-.565c-.167.171-16.585,17.62-13.5,53.06Z" transform="translate(-551.758 -1929.284)" fill="#2a94ee"/>
        </g>
        <g id="Grupo_82978" data-name="Grupo 82978" transform="translate(21.046)">
          <path id="Trazado_141959" data-name="Trazado 141959" d="M561.129,1931.936s3.74.032,5.752-1.88a2.6,2.6,0,1,0-3.577-3.767C561.21,1928.279,561.129,1931.936,561.129,1931.936Z" transform="translate(-561.129 -1925.575)" fill="#2a94ee"/>
        </g>
        <g id="Grupo_82979" data-name="Grupo 82979" transform="translate(19.738 7.806)">
          <path id="Trazado_141960" data-name="Trazado 141960" d="M560.221,1931.1s.678,3.679,2.936,5.292a2.6,2.6,0,1,0,3.021-4.226C563.827,1930.49,560.221,1931.1,560.221,1931.1Z" transform="translate(-560.221 -1930.994)" fill="#2a94ee"/>
        </g>
        <g id="Grupo_82980" data-name="Grupo 82980" transform="translate(12.619 2.534)">
          <path id="Trazado_141961" data-name="Trazado 141961" d="M562.539,1932.788s-.938-3.621-3.3-5.071a2.6,2.6,0,0,0-2.714,4.431C558.985,1933.656,562.539,1932.788,562.539,1932.788Z" transform="translate(-555.279 -1927.334)" fill="#2a94ee"/>
        </g>
        <g id="Grupo_82981" data-name="Grupo 82981" transform="translate(15.102 15.157)">
          <path id="Trazado_141962" data-name="Trazado 141962" d="M557,1936.466s1.1,3.573,3.537,4.911a2.6,2.6,0,0,0,2.505-4.551C560.512,1935.433,557,1936.466,557,1936.466Z" transform="translate(-557.003 -1936.097)" fill="#2a94ee"/>
        </g>
        <g id="Grupo_82982" data-name="Grupo 82982" transform="translate(7.689 10.692)">
          <path id="Trazado_141963" data-name="Trazado 141963" d="M559.418,1937.884s-1.356-3.485-3.877-4.647a2.6,2.6,0,0,0-2.175,4.718C555.991,1939.165,559.418,1937.884,559.418,1937.884Z" transform="translate(-551.857 -1932.998)" fill="#2a94ee"/>
        </g>
        <g id="Grupo_82983" data-name="Grupo 82983" transform="translate(11.734 23.384)">
          <path id="Trazado_141964" data-name="Trazado 141964" d="M554.665,1942.465s1.422,3.459,3.964,4.574a2.6,2.6,0,1,0,2.086-4.758C558.069,1941.121,554.665,1942.465,554.665,1942.465Z" transform="translate(-554.665 -1941.809)" fill="#2a94ee"/>
        </g>
        <g id="Grupo_82984" data-name="Grupo 82984" transform="translate(4.14 19.65)">
          <path id="Trazado_141965" data-name="Trazado 141965" d="M557.141,1943.647s-1.664-3.349-4.278-4.28a2.6,2.6,0,1,0-1.743,4.893C553.843,1945.23,557.141,1943.647,557.141,1943.647Z" transform="translate(-549.393 -1939.216)" fill="#2a94ee"/>
        </g>
        <g id="Grupo_82985" data-name="Grupo 82985" transform="translate(9.406 30.966)">
          <path id="Trazado_141966" data-name="Trazado 141966" d="M553.049,1948.419s1.979,3.173,4.672,3.848a2.6,2.6,0,1,0,1.263-5.039C556.181,1946.526,553.049,1948.419,553.049,1948.419Z" transform="translate(-553.049 -1947.072)" fill="#2a94ee"/>
        </g>
        <g id="Grupo_82986" data-name="Grupo 82986" transform="translate(1.583 28.78)">
          <path id="Trazado_141967" data-name="Trazado 141967" d="M555.6,1949.1s-2.2-3.025-4.932-3.508a2.6,2.6,0,0,0-.9,5.117C552.611,1951.212,555.6,1949.1,555.6,1949.1Z" transform="translate(-547.618 -1945.555)" fill="#2a94ee"/>
        </g>
        <g id="Grupo_82987" data-name="Grupo 82987" transform="translate(8.258 39.067)">
          <path id="Trazado_141968" data-name="Trazado 141968" d="M552.252,1954.5s2.27,2.972,5.014,3.388a2.6,2.6,0,0,0,.779-5.136C555.189,1952.319,552.252,1954.5,552.252,1954.5Z" transform="translate(-552.252 -1952.695)" fill="#2a94ee"/>
        </g>
        <g id="Grupo_82988" data-name="Grupo 82988" transform="translate(0.37 37.838)">
          <path id="Trazado_141969" data-name="Trazado 141969" d="M554.823,1954.874s-2.475-2.8-5.242-3.024a2.6,2.6,0,0,0-.414,5.179C552.047,1957.258,554.823,1954.874,554.823,1954.874Z" transform="translate(-546.776 -1951.842)" fill="#2a94ee"/>
        </g>
        <g id="Grupo_82989" data-name="Grupo 82989" transform="translate(7.888 49.408)">
          <path id="Trazado_141970" data-name="Trazado 141970" d="M551.995,1961.679s2.27,2.973,5.015,3.39a2.6,2.6,0,1,0,.781-5.137C554.934,1959.5,551.995,1961.679,551.995,1961.679Z" transform="translate(-551.995 -1959.874)" fill="#2a94ee"/>
        </g>
        <g id="Grupo_82990" data-name="Grupo 82990" transform="translate(0 48.179)">
          <path id="Trazado_141971" data-name="Trazado 141971" d="M554.567,1962.054s-2.476-2.8-5.244-3.025a2.6,2.6,0,1,0-.413,5.178C551.791,1964.439,554.567,1962.054,554.567,1962.054Z" transform="translate(-546.519 -1959.021)" fill="#2a94ee"/>
        </g>
      </g>
      <path id="Trazado_141972" data-name="Trazado 141972" d="M554.69,1978.862s-4.869-15.622,5.195-18.042c0,0,.51-20.957,15.414-15.641,0,0,2.167-8.181,10.828-7.8s8.263,8.7,8.263,8.7,7.916,1.24,7.916,7.865c0,0-38.759-10.924-42.088,24.921" transform="translate(-510.745 -1920.38)" fill="#fed947"/>
      <path id="Trazado_141974" data-name="Trazado 141974" d="M539.407,1969.489l7.194,27.222a1.379,1.379,0,0,0,1.334,1.027h17.374a1.378,1.378,0,0,0,1.334-1.027l7.194-27.222a2.685,2.685,0,0,0-2.6-3.372H542A2.687,2.687,0,0,0,539.407,1969.489Z" transform="translate(-516.999 -1907.716)" fill="none" stroke="#1b236e" stroke-miterlimit="10" stroke-width="0.531"/>
      <line id="Línea_1682" data-name="Línea 1682" x1="4.825" y2="25.528" transform="translate(44.967 61.714)" fill="none" stroke="#1b236e" stroke-linecap="round" stroke-miterlimit="10" stroke-width="0.531"/>
    </g>
  </g>
</svg>
