<svg xmlns="http://www.w3.org/2000/svg" width="118.898" height="51.29" viewBox="0 0 118.898 51.29">
  <g id="Grupo_82877" data-name="Grupo 82877" transform="translate(-859.02 -7821.169)">
    <path id="Trazado_141726" data-name="Trazado 141726" d="M4.2-4.834,3.359,0H.02L2.48-14.219l5.107.01a5.148,5.148,0,0,1,3.735,1.317,4.058,4.058,0,0,1,1.2,3.414A4.642,4.642,0,0,1,11.6-6.99,5.084,5.084,0,0,1,9.487-5.38a7.484,7.484,0,0,1-2.944.556Zm.459-2.637,2.012.02a2.482,2.482,0,0,0,1.943-.827,2.463,2.463,0,0,0,.537-1.963,1.5,1.5,0,0,0-.454-.945,1.556,1.556,0,0,0-.991-.387l-2.334-.01ZM22.363-6.035H17.139l-.6,3.4h6.182L22.266,0H12.744l2.461-14.219h9.541l-.459,2.646H18.1l-.527,3H22.8Zm6.572-1.641,1.943-2.891h3.477l-3.6,5.293L32.686,0h-3.2L28.369-3.105,26.309,0H22.793l3.789-5.566-1.846-5h3.232Zm24.893.625h-8.8l.449-2.539h8.789Zm-.742,4.287h-8.8L44.736-5.3h8.789ZM74.107-5.645H60.748l.719-2.578H74.826Zm14.7,0H75.445l.719-2.578H89.523Zm14.7,0H90.143l.719-2.578H104.22Zm14.7,0H104.84l.719-2.578h13.359Z" transform="translate(859 7853.423)" fill="#12263f"/>
    <path id="Trazado_141727" data-name="Trazado 141727" d="M6.816-14.219,8.174-4.355l4.766-9.863h4.453L14.932,0H11.572l.605-3.486,1.445-6.426L8.643,0H6.426L4.814-10.283l-.9,7.129L3.359,0H.02L2.48-14.219ZM29.033-4.844a5.127,5.127,0,0,1-.981,2.656A5.551,5.551,0,0,1,25.806-.4a6.954,6.954,0,0,1-3.013.6A4.683,4.683,0,0,1,19.287-1.24,5.77,5.77,0,0,1,17.891-5a12.245,12.245,0,0,1,.347-3.447,9.112,9.112,0,0,1,1.416-3.247,6.506,6.506,0,0,1,2.314-2.07,6.008,6.008,0,0,1,2.915-.659,5.086,5.086,0,0,1,3.677,1.4,5.467,5.467,0,0,1,1.47,3.74L26.7-9.3a2.739,2.739,0,0,0-.469-1.855,2.058,2.058,0,0,0-1.543-.6q-2.637-.088-3.213,4.1a22.537,22.537,0,0,0-.264,2.705q-.049,2.4,1.777,2.471a2.609,2.609,0,0,0,1.885-.581,2.906,2.906,0,0,0,.9-1.753Zm14.258-9.375L41.709-4.941a5.834,5.834,0,0,1-1.987,3.8A6.057,6.057,0,0,1,35.576.205a5.654,5.654,0,0,1-2.7-.669A3.919,3.919,0,0,1,31.2-2.271a4.861,4.861,0,0,1-.366-2.661l1.582-9.287h3.359L34.2-4.914a4.472,4.472,0,0,0-.02.928,1.677,1.677,0,0,0,.454,1.124,1.661,1.661,0,0,0,1.147.43q2.148.068,2.588-2.492l1.582-9.295Z" transform="translate(926.954 7872.253)" fill="#12263f"/>
    <path id="Trazado_141728" data-name="Trazado 141728" d="M-6.094-4.844a5.127,5.127,0,0,1-.981,2.656A5.551,5.551,0,0,1-9.321-.4a6.954,6.954,0,0,1-3.013.6A4.683,4.683,0,0,1-15.84-1.24,5.77,5.77,0,0,1-17.236-5a12.245,12.245,0,0,1,.347-3.447,9.112,9.112,0,0,1,1.416-3.247,6.506,6.506,0,0,1,2.314-2.07,6.008,6.008,0,0,1,2.915-.659,5.086,5.086,0,0,1,3.677,1.4A5.467,5.467,0,0,1-5.1-9.287l-3.33-.01A2.739,2.739,0,0,0-8.9-11.152a2.058,2.058,0,0,0-1.543-.6q-2.637-.088-3.213,4.1a22.537,22.537,0,0,0-.264,2.705q-.049,2.4,1.777,2.471a2.609,2.609,0,0,0,1.885-.581,2.906,2.906,0,0,0,.9-1.753Zm10.605-.82H-.85L-1.836,0h-3.34l2.461-14.219H6.533l-.459,2.646H.176L-.391-8.3H4.971Zm14.063-5.908H14.434L12.432,0H9.082l2.012-11.572H7.021l.469-2.646H19.033Z" transform="translate(948.875 7835.594)" fill="#12263f"/>
  </g>
</svg>
