<svg xmlns="http://www.w3.org/2000/svg" width="93.008" height="92.956" viewBox="0 0 93.008 92.956">
  <g id="money-arrow-up-down-currency" transform="translate(-1.996 -2.022)">
    <path id="Trazado_140004" data-name="Trazado 140004" d="M18.5,3,34,23.149H24.7V71.2H12.3V23.149H3Z" transform="translate(0.552 0.538)" fill="#2a94ee"/>
    <path id="Trazado_140005" data-name="Trazado 140005" d="M72,66.148,56.5,86.3,41,66.148h9.3V15H62.7V66.148Z" transform="translate(21.449 7.137)" fill="#d64626"/>
    <path id="Trazado_140009" data-name="Trazado 140009" d="M23.249,0A23.249,23.249,0,1,1,0,23.249,23.249,23.249,0,0,1,23.249,0Z" transform="translate(25.251 25.236)" fill="#fed947"/>
    <path id="Trazado_140010" data-name="Trazado 140010" d="M17.049,0A17.049,17.049,0,1,1,0,17.049,17.049,17.049,0,0,1,17.049,0Z" transform="translate(31.451 31.436)" fill="#fff5a2"/>
    <path id="Trazado_140006" data-name="Trazado 140006" d="M38.6,20A18.6,18.6,0,1,0,57.2,38.6,18.6,18.6,0,0,0,38.6,20Zm0,34.1A15.5,15.5,0,1,1,54.1,38.6,15.5,15.5,0,0,1,38.6,54.1Z" transform="translate(9.901 9.886)"/>
    <path id="Trazado_140007" data-name="Trazado 140007" d="M94.843,72.6a1.569,1.569,0,0,0-1.395-.868H85.7v-49.6a1.55,1.55,0,0,0-1.55-1.55h-12.4a1.55,1.55,0,0,0-1.55,1.55V36.5a24.776,24.776,0,0,0-43.4,0V25.236h7.75a1.569,1.569,0,0,0,1.395-.868,1.517,1.517,0,0,0-.17-1.627L20.276,2.592a1.6,1.6,0,0,0-2.449,0L2.328,22.741a1.517,1.517,0,0,0-.17,1.627,1.569,1.569,0,0,0,1.395.868H11.3v46.5a1.55,1.55,0,0,0,1.55,1.55h12.4a1.55,1.55,0,0,0,1.55-1.55V60.466a24.776,24.776,0,0,0,43.4,0V71.734h-7.75a1.569,1.569,0,0,0-1.395.868,1.517,1.517,0,0,0,.17,1.627l15.5,20.149a1.55,1.55,0,0,0,2.449,0l15.5-20.149A1.517,1.517,0,0,0,94.843,72.6ZM25.251,22.137a1.55,1.55,0,0,0-1.55,1.55v46.5H14.4v-46.5a1.55,1.55,0,0,0-1.55-1.55H6.7L19.051,6.079,31.4,22.137ZM48.5,70.184a21.7,21.7,0,1,1,21.7-21.7,21.7,21.7,0,0,1-21.7,21.7ZM77.949,90.891,65.6,74.834h6.153a1.55,1.55,0,0,0,1.55-1.55v-49.6h9.3v49.6a1.55,1.55,0,0,0,1.55,1.55H90.3Z" transform="translate(0 0)"/>
    <path id="Trazado_140008" data-name="Trazado 140008" d="M38.4,35.4h-1.55V29.2H38.4a3.109,3.109,0,0,1,3.1,3.1h3.1a6.2,6.2,0,0,0-6.2-6.2h-1.55V23h-3.1v3.1H32.2a6.2,6.2,0,1,0,0,12.4h1.55v6.2H32.2a3.109,3.109,0,0,1-3.1-3.1H26a6.2,6.2,0,0,0,6.2,6.2h1.55v3.1h3.1V47.8H38.4a6.2,6.2,0,0,0,0-12.4Zm-4.65,0H32.2a3.1,3.1,0,0,1,0-6.2h1.55Zm4.65,9.3h-1.55V38.5H38.4a3.1,3.1,0,1,1,0,6.2Z" transform="translate(13.2 11.536)"/>
  </g>
</svg>
