<svg xmlns="http://www.w3.org/2000/svg" width="190" height="139.337" viewBox="0 0 190 139.337">
  <g id="naranja" transform="translate(0 -0.008)">
    <path id="Trazado_139958" data-name="Trazado 139958" d="M121.192,110.228A56.922,56.922,0,0,0,93.96,73.211a54.873,54.873,0,0,0-8.833-4.149l-50.633,5.8a56.973,56.973,0,0,0,57.98,97.974H92.5Zm0,0" transform="translate(-5.392 -43.43)" fill="#ff9801"/>
    <g id="Grupo_81999" data-name="Grupo 81999" transform="translate(62.444 48.496)">
      <path id="Trazado_139959" data-name="Trazado 139959" d="M392.535,148.418a56.536,56.536,0,0,1-2.85,17.858l-42.462-13.784c.126-.316.254-.633.348-.949a12.492,12.492,0,0,0,.633-3.959,12.767,12.767,0,0,0-.348-2.945l41.829-13.931.064-.032A57.722,57.722,0,0,1,392.535,148.418Zm0,0" transform="translate(-280.82 -130.676)" fill="#ffecb3"/>
      <path id="Trazado_139960" data-name="Trazado 139960" d="M381.634,202.9a57.316,57.316,0,0,1-20.709,28.437l-26.5-36.447c.158-.128.316-.222.475-.349a12.812,12.812,0,0,0,4.275-5.414Zm0,0" transform="translate(-272.769 -167.438)" fill="#ffecb3"/>
      <path id="Trazado_139961" data-name="Trazado 139961" d="M349.172,241.107a57,57,0,0,1-33.438,10.987V206.749a12.95,12.95,0,0,0,6.935-2.089Zm0,0" transform="translate(-261.016 -177.206)" fill="#ffecb3"/>
      <path id="Trazado_139962" data-name="Trazado 139962" d="M258.738,206.855V252.2h-.286a56.9,56.9,0,0,1-33.343-10.7l.126-.19,26.537-36.479a12.762,12.762,0,0,0,6.871,2.026Zm0,0" transform="translate(-204.02 -177.312)" fill="#ffecb3"/>
      <path id="Trazado_139963" data-name="Trazado 139963" d="M216.029,195.06l-26.536,36.479-.126.19A57.205,57.205,0,0,1,168.277,203.1L211.185,189.3a12.8,12.8,0,0,0,4.243,5.352A6.768,6.768,0,0,0,216.029,195.06Zm0,0" transform="translate(-168.277 -167.544)" fill="#ffecb3"/>
    </g>
    <path id="Trazado_139964" data-name="Trazado 139964" d="M376.383,147.906a70.13,70.13,0,0,1-61.969,64.662,69,69,0,0,1-12.762.252c1.077-.03,2.154-.126,3.261-.252a70.131,70.131,0,0,0,61.97-64.662,69.294,69.294,0,0,0-2.376-23.463c-.032-.064-.032-.158-.094-.222l5.542-1.868a3.139,3.139,0,0,1,4.053,2.09A69.3,69.3,0,0,1,376.383,147.906Zm0,0" transform="translate(-189.716 -76.834)" fill="#ff9801"/>
    <path id="Trazado_139965" data-name="Trazado 139965" d="M264.168,151.373a70.131,70.131,0,0,1-61.97,64.662c-1.107.126-2.184.222-3.261.252a69.936,69.936,0,0,1-60.418-44.869,3.167,3.167,0,0,1,2-4.086l.412-.126,8.517-2.724a57.2,57.2,0,0,0,21.089,28.627,56.542,56.542,0,0,0,28.531,10.48,48.154,48.154,0,0,0,4.812.222h.286A57.357,57.357,0,0,0,258.372,128.8l3.325-1.109c.062.064.062.158.094.222A69.293,69.293,0,0,1,264.168,151.373Zm0,0" transform="translate(-86.999 -80.3)" fill="#fec108"/>
    <path id="Trazado_139966" data-name="Trazado 139966" d="M283.906,175.881l2.311-.76.475-.158,5.573-1.837h.032l6.871-2.248,2.058-.665h.032l3.483-1.139.981-.349,2.312-.76a12.758,12.758,0,0,1,.348,2.945,12.476,12.476,0,0,1-.633,3.957c-.094.317-.222.633-.348.951a12.813,12.813,0,0,1-4.275,5.414c-.159.128-.317.222-.475.349a12.949,12.949,0,0,1-6.935,2.089h-.1a12.762,12.762,0,0,1-6.871-2.026,6.784,6.784,0,0,1-.6-.412A12.8,12.8,0,0,1,283.906,175.881Zm0,0" transform="translate(-178.555 -105.632)" fill="#fec108"/>
    <path id="Trazado_139967" data-name="Trazado 139967" d="M93.064,27.545s-.126.222-.412.633a33.034,33.034,0,0,1-5.921-.633C70.9,24.379,70.9,14.879,17.066,30.712c0,0,25.332-22.166,47.5-22.166A29.737,29.737,0,0,1,93.064,27.545Zm0,0" transform="translate(-10.734 -5.363)" fill="#4caf50"/>
    <path id="Trazado_139968" data-name="Trazado 139968" d="M92.652,50.695a34.921,34.921,0,0,1-28.087,15.2c-19,0-22.166-9.5-47.5-12.666C70.9,37.4,70.9,46.9,86.731,50.061A33.033,33.033,0,0,0,92.652,50.695Zm0,0" transform="translate(-10.734 -27.88)" fill="#8bc34a"/>
    <path id="Trazado_139969" data-name="Trazado 139969" d="M0,79.18a60.094,60.094,0,0,0,87.263,53.673A73.049,73.049,0,0,0,187.348,46.615a6.166,6.166,0,0,0-3.09-3.818,6.4,6.4,0,0,0-5.02-.412l-53.276,17.8a2.189,2.189,0,0,0-.291.035l-7.707,2.532A60.04,60.04,0,0,0,96.292,31.139a65.249,65.249,0,0,1,7.571-13.391,3.166,3.166,0,0,0-4.772-4.138,24.8,24.8,0,0,1-14.44,5.937A33.006,33.006,0,0,0,53.831.015C30.985.015,5.894,21.548,4.328,22.9l-.078.07a3.113,3.113,0,0,0-.633.8c-.045.081-.07.167-.112.249a3.181,3.181,0,0,0-.249.791c-.019.109-.035.213-.045.317A3.233,3.233,0,0,0,3.3,26.149v.1a2.9,2.9,0,0,0,.735,1.21,3.278,3.278,0,0,0,.612.51c.094.057.177.12.275.171a3.113,3.113,0,0,0,1.013.316h.051a78.431,78.431,0,0,1,16.567,3.8A59.827,59.827,0,0,0,0,79.18Zm174.14,6.269.019-.028V85.4a3.125,3.125,0,0,0,.219-.428,2.86,2.86,0,0,0,.051-.431,59.781,59.781,0,0,0,2.9-18.438,60.723,60.723,0,0,0-2.1-15.71l6.017-2.07A66.778,66.778,0,0,1,54.5,89.945L60.538,88a60.451,60.451,0,0,0,56.624,38.552h.019A59.938,59.938,0,0,0,151.7,115.469a3.181,3.181,0,0,0,.836-.425,3.081,3.081,0,0,0,.487-.532,60.864,60.864,0,0,0,21.1-29.025ZM82.865,108.2A53.97,53.97,0,0,1,66.571,86.034l37.269-12a16.216,16.216,0,0,0,2.034,2.534ZM111.19,80.019a15.894,15.894,0,0,0,2.8.829V120.1a54.053,54.053,0,0,1-25.984-8.214Zm9.138,40.05V80.826a15.818,15.818,0,0,0,2.785-.845l23,31.623A53.631,53.631,0,0,1,120.328,120.069ZM132.95,64.525l36.273-12.1a54.562,54.562,0,0,1,1.77,13.676,53.879,53.879,0,0,1-1.824,13.847L132.718,68.115a15.792,15.792,0,0,0,.275-2.85C132.994,65.028,132.963,64.774,132.95,64.525Zm-2.6,9.48,36.846,11.957a54.593,54.593,0,0,1-15.971,21.91L128.384,76.459A15.458,15.458,0,0,0,130.347,74Zm-3.8-7.416a9.854,9.854,0,0,1-.4,1.745c-.067.225-.162.449-.232.633a9.6,9.6,0,0,1-3.227,4.088l-.332.251a9.6,9.6,0,0,1-10.644-.067l-.265-.187a9.752,9.752,0,0,1-1.144-1.1ZM92.39,24.456c-.519,1.048-1,2.077-1.45,3.093-.259-.155-.5-.342-.761-.494-.861-.509-1.813-.968-2.741-1.444A32.385,32.385,0,0,0,92.39,24.456ZM53.831,6.35A26.283,26.283,0,0,1,77.365,19.2c-.251-.043-.491-.067-.748-.117a53.756,53.756,0,0,1-8.145-2.441c-8.625-3.125-16.89-6.092-46.307,1.131C31.054,12.188,42.956,6.35,53.831,6.35ZM20.038,24.833c30.531-7.917,38.22-5.156,46.282-2.24a58.974,58.974,0,0,0,9.057,2.692c.123.026.241.038.364.064a30.457,30.457,0,0,1-21.91,9.5A44.433,44.433,0,0,1,33.5,29.867,97.241,97.241,0,0,0,20.038,24.833Zm9.434,10.193,1.484.633A50.845,50.845,0,0,0,53.831,41.18,36.728,36.728,0,0,0,80.585,29.42a50.68,50.68,0,0,1,6.407,3.106c.535.317,1.022.674,1.545,1-.633,1.793-1.173,3.427-1.584,4.843a3.121,3.121,0,0,0-4.569,2.85,3.129,3.129,0,0,0-3.05,2.124,3.167,3.167,0,0,0,2,4.006l3.245,1.083,1.083,3.245a3.145,3.145,0,0,0,6.124-1h.039a3.167,3.167,0,0,0,1-6.172l-.893-.3c.275-1.178.909-3.667,1.981-6.852A53.638,53.638,0,0,1,111.95,64.737l-5.224,1.723L52.564,83.9a6.409,6.409,0,0,0-3.8,3.309,6.18,6.18,0,0,0-.216,4.921A72.888,72.888,0,0,0,80.034,129.21a52.888,52.888,0,0,1-19.87,3.8A53.786,53.786,0,0,1,29.472,35.026Zm0,0" transform="translate(0 0)"/>
    <path id="Trazado_139970" data-name="Trazado 139970" d="M36.909,221.923a3.165,3.165,0,0,0-2.748,3.534,48.335,48.335,0,0,0,30.528,37.407,3.264,3.264,0,0,0,1.112.2,3.166,3.166,0,0,0,1.11-6.133,41.967,41.967,0,0,1-26.468-32.264A3.166,3.166,0,0,0,36.909,221.923Zm0,0" transform="translate(-21.469 -139.551)"/>
    <path id="Trazado_139971" data-name="Trazado 139971" d="M40.466,190.929a3.166,3.166,0,1,1-3.166-3.167A3.166,3.166,0,0,1,40.466,190.929Zm0,0" transform="translate(-21.467 -118.082)"/>
  </g>
</svg>
