<svg xmlns="http://www.w3.org/2000/svg" width="166.403" height="163.627" viewBox="0 0 166.403 163.627">
  <g id="naturaleza" transform="translate(0 -0.004)">
    <path id="Trazado_140125" data-name="Trazado 140125" d="M92.234,274.758l-28.76,21.993H8.008l38.938-61.845L60.7,244.057l5.047-7.571,6.24,8.569,22.3-36.858,8.015,5.353L107.848,208l16.64,8.32.111-.056,44.262,80.482L122.6,268.13l-11.98-7.433Zm0,0" transform="translate(-5.232 -135.893)" fill="#4e901e"/>
    <path id="Trazado_140126" data-name="Trazado 140126" d="M273.395,410.066H168.008l28.76-21.993,12.84,2.58,5.547,2.773,11.98-11.98Zm0,0" transform="translate(-109.765 -249.208)" fill="#00665a"/>
    <path id="Trazado_140127" data-name="Trazado 140127" d="M400.968,170.839a8.32,8.32,0,1,1,0,16.64H381.554a5.547,5.547,0,0,1,0-11.093,8.32,8.32,0,0,1,15.336-4.438A8.156,8.156,0,0,1,400.968,170.839Zm0,0" transform="translate(-245.658 -109.822)" fill="#fff"/>
    <path id="Trazado_140128" data-name="Trazado 140128" d="M270.449,144,287.2,174.455l-.111.056-16.64-8.32-5.547,5.547-8.015-5.353Zm0,0" transform="translate(-167.833 -94.08)" fill="#e6e7e8"/>
    <path id="Trazado_140129" data-name="Trazado 140129" d="M269.356,360l11.98,7.433-11.98,11.98-5.547-2.773-12.84-2.58Zm0,0" transform="translate(-163.966 -235.2)" fill="#e6e7e8"/>
    <path id="Trazado_140130" data-name="Trazado 140130" d="M128.537,248l10.594,14.616-5.047,7.571-13.756-9.151Zm0,0" transform="translate(-78.615 -162.027)" fill="#e6e7e8"/>
    <path id="Trazado_140131" data-name="Trazado 140131" d="M115.741,69.871A13.867,13.867,0,1,1,101.875,56,13.867,13.867,0,0,1,115.741,69.871Zm0,0" transform="translate(-57.499 -36.587)" fill="#fed947"/>
    <g id="Grupo_82064" data-name="Grupo 82064" transform="translate(0 0.004)">
      <path id="Trazado_140132" data-name="Trazado 140132" d="M96.648,81.284a16.64,16.64,0,1,0-16.64-16.64A16.641,16.641,0,0,0,96.648,81.284Zm0-27.733A11.093,11.093,0,1,1,85.554,64.644,11.094,11.094,0,0,1,96.648,53.551Zm0,0" transform="translate(-52.272 -31.364)" fill="#231f20"/>
      <path id="Trazado_140133" data-name="Trazado 140133" d="M105.045,137.442a2.773,2.773,0,0,0-4.8-.1L66.563,193.008,52.169,173.2a2.7,2.7,0,0,0-2.339-1.146,2.8,2.8,0,0,0-2.257,1.295L.426,248.233a2.774,2.774,0,0,0,2.349,4.252H163.629a2.774,2.774,0,0,0,2.429-4.11Zm-2.543,6.883,10.228,18.582-8.875-4.438a2.771,2.771,0,0,0-3.2.521l-3.938,3.938-3.911-2.6ZM50.086,179.776l7.061,9.727L54.7,193.174l-9.2-6.118ZM42.545,191.75l11.387,7.577a2.774,2.774,0,0,0,3.844-.772l2.845-4.267,3.882,5.341a1.634,1.634,0,0,0,.142.177l10.9,12.869,4.232-3.583-9.606-11.347,19.771-32.658,5.6,3.733a2.774,2.774,0,0,0,3.5-.347l4.132-4.133,14.274,7.136,38.67,70.321L106.848,211.29a2.771,2.771,0,0,0-3.142.156L57.3,246.939H7.8Zm45.133,38.943,11.254,2.252,5.216,2.609a2.815,2.815,0,0,0,1.24.291,2.774,2.774,0,0,0,1.961-.812L117.788,224.6l36.093,22.342H66.435Zm5.869-4.488,12.009-9.183,7.388,4.576-8.11,8.1-3.761-1.88a2.776,2.776,0,0,0-.693-.236Zm0,0" transform="translate(0 -88.859)" fill="#231f20"/>
      <path id="Trazado_140134" data-name="Trazado 140134" d="M120.008,0h5.547V11.1h-5.547Zm0,0" transform="translate(-78.405 -0.004)" fill="#231f20"/>
      <path id="Trazado_140135" data-name="Trazado 140135" d="M54.469,26.387l3.922-3.922,7.843,7.845-3.922,3.922Zm0,0" transform="translate(-35.586 -14.678)" fill="#231f20"/>
      <path id="Trazado_140136" data-name="Trazado 140136" d="M32.008,88H43.1v5.547H32.008Zm0,0" transform="translate(-20.912 -57.497)" fill="#231f20"/>
      <path id="Trazado_140137" data-name="Trazado 140137" d="M54.465,143.442,62.31,135.6l3.922,3.922-7.845,7.845Zm0,0" transform="translate(-35.584 -88.592)" fill="#231f20"/>
      <path id="Trazado_140138" data-name="Trazado 140138" d="M120.008,160h5.547V171.1h-5.547Zm0,0" transform="translate(-78.405 -104.537)" fill="#231f20"/>
      <path id="Trazado_140139" data-name="Trazado 140139" d="M167.6,139.527l3.923-3.922,7.843,7.845-3.923,3.922Zm0,0" transform="translate(-109.499 -88.597)" fill="#231f20"/>
      <path id="Trazado_140140" data-name="Trazado 140140" d="M192.008,88H203.1v5.547H192.008Zm0,0" transform="translate(-125.445 -57.497)" fill="#231f20"/>
      <path id="Trazado_140141" data-name="Trazado 140141" d="M167.609,30.308l7.843-7.843,3.923,3.922-7.845,7.845Zm0,0" transform="translate(-109.505 -14.678)" fill="#231f20"/>
      <path id="Trazado_140142" data-name="Trazado 140142" d="M376.32,184.964h19.413a11.093,11.093,0,0,0,0-22.187,10.7,10.7,0,0,0-3.242.5A11,11,0,0,0,384.64,160a11.115,11.115,0,0,0-10.836,8.709,8.32,8.32,0,0,0,2.516,16.251Zm0-11.093a2.773,2.773,0,0,0,2.773-2.773,5.533,5.533,0,0,1,10.22-2.953,2.774,2.774,0,0,0,3.705.929,5.532,5.532,0,1,1,2.715,10.344H376.32a2.773,2.773,0,1,1,0-5.547Zm0,0" transform="translate(-240.424 -104.537)" fill="#231f20"/>
    </g>
  </g>
</svg>
