<svg xmlns="http://www.w3.org/2000/svg" width="88" height="86.668" viewBox="0 0 88 86.668">
  <g id="objetivo" transform="translate(-0.002 -0.5)">
    <path id="Trazado_141006" data-name="Trazado 141006" d="M150.3,247.4l11.6-11.477c4.332-4.332,12.663,1.133,8.162,6.429l-14.044,16.523a9.85,9.85,0,0,1-1.879,1.7,14.01,14.01,0,0,1-7.617,1.929H125.676a39.107,39.107,0,0,0-4.511.261l-5.994.673-12.433-12.065s7.053-13.319,20.888-9.491a29.792,29.792,0,0,0,7.95,1.057h13.7c6.448,0,6.5,10.245-.054,10.245H133.3" transform="translate(-85.079 -193.66)" fill="#ffcdac"/>
    <path id="Trazado_141007" data-name="Trazado 141007" d="M30.264,342.557l11.828-12.135a.009.009,0,0,0,0-.012l-20.07-19.476a.009.009,0,0,0-.012,0L10.07,323.33Zm0,0" transform="translate(-8.338 -257.076)" fill="#2a94ee"/>
    <path id="Trazado_141008" data-name="Trazado 141008" d="M60.448,100.317a7.389,7.389,0,0,0-6.682,7.354v7.866a2.46,2.46,0,0,0,2.46,2.46H73.094a2.46,2.46,0,0,0,2.46-2.46v-7.866a7.388,7.388,0,0,0-6.691-7.355" transform="translate(-44.523 -82.66)" fill="#20287a"/>
    <path id="Trazado_141009" data-name="Trazado 141009" d="M85.633,19.087a8.254,8.254,0,1,1-8.254-8.255A8.254,8.254,0,0,1,85.633,19.087Zm0,0" transform="translate(-57.243 -8.556)" fill="#ffcdac"/>
    <path id="Trazado_141010" data-name="Trazado 141010" d="M187.214,100.317a7.389,7.389,0,0,0-6.683,7.354v7.866a2.461,2.461,0,0,0,2.461,2.46H199.86a2.46,2.46,0,0,0,2.46-2.46v-7.866a7.388,7.388,0,0,0-6.691-7.355" transform="translate(-149.501 -82.66)" fill="#d64626"/>
    <path id="Trazado_141011" data-name="Trazado 141011" d="M212.4,19.087a8.254,8.254,0,1,1-8.254-8.255A8.254,8.254,0,0,1,212.4,19.087Zm0,0" transform="translate(-162.221 -8.556)" fill="#ffcdac"/>
    <path id="Trazado_141012" data-name="Trazado 141012" d="M313.984,100.317a7.389,7.389,0,0,0-6.683,7.354v7.866a2.46,2.46,0,0,0,2.46,2.46h16.868a2.461,2.461,0,0,0,2.461-2.46v-7.866a7.388,7.388,0,0,0-6.692-7.355" transform="translate(-254.482 -82.66)" fill="#dff7f9"/>
    <path id="Trazado_141013" data-name="Trazado 141013" d="M339.169,19.087a8.254,8.254,0,1,1-8.255-8.255A8.254,8.254,0,0,1,339.169,19.087Zm0,0" transform="translate(-267.202 -8.556)" fill="#ffcdac"/>
    <path id="Trazado_141014" data-name="Trazado 141014" d="M85.922,226.093a7.971,7.971,0,0,0-4.917-2.06,7.038,7.038,0,0,0-5.407,2.058l-9.785,9.682a6.5,6.5,0,0,0-.662-.945,6.343,6.343,0,0,0-4.956-2.216H46.5a28.094,28.094,0,0,1-7.489-.995,18.426,18.426,0,0,0-17.188,3.637,25,25,0,0,0-4.476,4.8l-2.456-2.383a1.746,1.746,0,0,0-1.211-.491h-.011a1.749,1.749,0,0,0-1.241.533L.485,250.112a1.732,1.732,0,0,0,.053,2.455l20.193,19.228a1.731,1.731,0,0,0,2.434-.045l11.828-12.135a1.741,1.741,0,0,0-.034-2.463l-1.03-1,2.357-.265a37.464,37.464,0,0,1,4.312-.25H61.439a15.646,15.646,0,0,0,8.549-2.2l.056-.038a11.537,11.537,0,0,0,2.208-2L86.3,234.872C88.7,232.044,88.55,228.516,85.922,226.093ZM21.88,268.108,4.187,251.26l9.532-9.9,17.59,17.07Zm61.779-35.479L69.615,249.152a8.092,8.092,0,0,1-1.52,1.385,12.311,12.311,0,0,1-6.656,1.639H40.6a40.876,40.876,0,0,0-4.7.273l-5.182.581L19.862,242.5a21.592,21.592,0,0,1,4.149-4.564,14.9,14.9,0,0,1,14.076-2.982,31.552,31.552,0,0,0,8.412,1.121H60.2a3.127,3.127,0,0,1,3.117,3.39,3.749,3.749,0,0,1-.81,2.4,2.942,2.942,0,0,1-2.361.99H48.217a1.731,1.731,0,0,0,0,3.462H60.141a6.42,6.42,0,0,0,5-2.212,7.11,7.11,0,0,0,1.631-4.411L78.04,228.546a4.053,4.053,0,0,1,5.535.092C84.3,229.31,85.282,230.72,83.659,232.629Zm0,0" transform="translate(0 -185.105)"/>
    <path id="Trazado_141015" data-name="Trazado 141015" d="M232.655,334.558a1.731,1.731,0,1,0-3.37.79l.016.07a1.732,1.732,0,0,0,1.684,1.336,1.754,1.754,0,0,0,.4-.046,1.731,1.731,0,0,0,1.29-2.081Zm0,0" transform="translate(-189.837 -275.535)"/>
    <path id="Trazado_141016" data-name="Trazado 141016" d="M47.883,37.024H64.751a4.166,4.166,0,0,0,2.46-.8,4.166,4.166,0,0,0,2.46.8H86.539a4.166,4.166,0,0,0,2.46-.8,4.166,4.166,0,0,0,2.46.8h16.868a4.2,4.2,0,0,0,4.191-4.191V24.966a9.077,9.077,0,0,0-4.937-8.116,9.986,9.986,0,1,0-15.376,0A9.068,9.068,0,0,0,89,19.6a9.051,9.051,0,0,0-3.207-2.749,9.986,9.986,0,1,0-15.375,0A9.051,9.051,0,0,0,67.211,19.6,9.059,9.059,0,0,0,64,16.85a9.985,9.985,0,1,0-15.375,0,9.078,9.078,0,0,0-4.937,8.116v7.865A4.2,4.2,0,0,0,47.883,37.024ZM99.894,3.962a6.523,6.523,0,1,1-6.523,6.523A6.531,6.531,0,0,1,99.894,3.962ZM95.4,19.4a9.95,9.95,0,0,0,8.994,0,5.625,5.625,0,0,1,4.666,5.569v7.866a.73.73,0,0,1-.729.729H91.459a.73.73,0,0,1-.728-.729V24.966A5.625,5.625,0,0,1,95.4,19.4ZM78.105,3.962a6.523,6.523,0,1,1-6.523,6.523A6.531,6.531,0,0,1,78.105,3.962ZM73.609,19.4a9.95,9.95,0,0,0,8.994,0,5.625,5.625,0,0,1,4.666,5.569v7.866a.73.73,0,0,1-.729.729H69.671a.73.73,0,0,1-.729-.729V24.966A5.626,5.626,0,0,1,73.609,19.4ZM56.317,3.962a6.523,6.523,0,1,1-6.523,6.523A6.531,6.531,0,0,1,56.317,3.962Zm-9.163,21A5.626,5.626,0,0,1,51.82,19.4a9.95,9.95,0,0,0,8.994,0,5.625,5.625,0,0,1,4.666,5.569v7.866a.73.73,0,0,1-.729.729H47.883a.73.73,0,0,1-.729-.729Zm0,0" transform="translate(-36.181)"/>
  </g>
</svg>
