<svg xmlns="http://www.w3.org/2000/svg" width="820" height="400" viewBox="0 0 820 400">
  <g id="Grupo_82931" data-name="Grupo 82931" transform="translate(-389.647 -5959.07)">
    <path id="Rectángulo_30804" data-name="Rectángulo 30804" d="M0,0H820V400H0Z" transform="translate(389.647 5959.07)" fill="#f6f6f6"/>
    <path id="Trazado_141838" data-name="Trazado 141838" d="M15.539-8.145a10.3,10.3,0,0,1-.891,4.418A6.707,6.707,0,0,1,12.1-.8,7.051,7.051,0,0,1,8.3.234,7.1,7.1,0,0,1,4.512-.785,6.773,6.773,0,0,1,1.934-3.7a10.005,10.005,0,0,1-.926-4.354v-.844a10.246,10.246,0,0,1,.908-4.436,6.762,6.762,0,0,1,2.566-2.941A7.059,7.059,0,0,1,8.273-17.3a7.059,7.059,0,0,1,3.791,1.025,6.762,6.762,0,0,1,2.566,2.941,10.217,10.217,0,0,1,.908,4.424Zm-3.562-.773A7.18,7.18,0,0,0,11.016-13a3.132,3.132,0,0,0-2.742-1.395,3.133,3.133,0,0,0-2.73,1.377A7.1,7.1,0,0,0,4.57-8.977v.832A7.27,7.27,0,0,0,5.531-4.09,3.123,3.123,0,0,0,8.3-2.648a3.1,3.1,0,0,0,2.719-1.389,7.228,7.228,0,0,0,.961-4.049ZM18.8,0V-10.2H16.91V-12.68H18.8v-1.078a4.377,4.377,0,0,1,1.225-3.311,4.743,4.743,0,0,1,3.428-1.178,7.982,7.982,0,0,1,1.723.232l-.035,2.6a4.318,4.318,0,0,0-1.031-.105q-1.91,0-1.91,1.808v1.028h2.52V-10.2H22.2V0Zm13.23.234a6.225,6.225,0,0,1-4.541-1.711,6.082,6.082,0,0,1-1.752-4.559v-.328a7.66,7.66,0,0,1,.738-3.416,5.418,5.418,0,0,1,2.092-2.32,5.871,5.871,0,0,1,3.088-.814,5.262,5.262,0,0,1,4.1,1.641,6.667,6.667,0,0,1,1.494,4.652v1.383H29.168a3.146,3.146,0,0,0,.99,1.992,2.993,2.993,0,0,0,2.092.75,3.656,3.656,0,0,0,3.059-1.418l1.664,1.863A5.084,5.084,0,0,1,34.91-.369,6.767,6.767,0,0,1,32.027.234Zm-.387-10.418a2.116,2.116,0,0,0-1.635.683,3.535,3.535,0,0,0-.8,1.954h4.711v-.271A2.521,2.521,0,0,0,33.3-9.566,2.183,2.183,0,0,0,31.641-10.184Zm14.648.68A9.2,9.2,0,0,0,45.07-9.6a2.481,2.481,0,0,0-2.52,1.3V0H39.164V-12.68h3.2l.094,1.512a3.138,3.138,0,0,1,2.824-1.746,3.549,3.549,0,0,1,1.055.152Zm6.27-6.293v3.117h2.168V-10.2H52.559v6.328a1.511,1.511,0,0,0,.27,1.008,1.354,1.354,0,0,0,1.031.3,5.4,5.4,0,0,0,1-.082V-.07a6.972,6.972,0,0,1-2.051.3q-3.562,0-3.633-3.6V-10.2H47.32V-12.68h1.852V-15.8ZM63.961,0a3.761,3.761,0,0,1-.34-1.137,4.1,4.1,0,0,1-3.2,1.371A4.5,4.5,0,0,1,57.334-.844a3.467,3.467,0,0,1-1.225-2.719A3.583,3.583,0,0,1,57.6-6.656a7.373,7.373,0,0,1,4.318-1.09H63.48v-.727a2.089,2.089,0,0,0-.451-1.406,1.775,1.775,0,0,0-1.424-.527,2.018,2.018,0,0,0-1.342.41,1.393,1.393,0,0,0-.486,1.125H56.391a3.4,3.4,0,0,1,.68-2.039,4.493,4.493,0,0,1,1.922-1.471,7,7,0,0,1,2.789-.533A5.534,5.534,0,0,1,65.5-11.736a4.12,4.12,0,0,1,1.377,3.311v5.5a6.062,6.062,0,0,0,.5,2.73V0Zm-2.8-2.355a2.917,2.917,0,0,0,1.383-.334,2.194,2.194,0,0,0,.938-.9v-2.18H62.215q-2.543,0-2.707,1.758l-.012.2a1.356,1.356,0,0,0,.445,1.043A1.73,1.73,0,0,0,61.16-2.355ZM79.512-15.8v3.117H81.68V-10.2H79.512v6.328a1.511,1.511,0,0,0,.27,1.008,1.354,1.354,0,0,0,1.031.3,5.4,5.4,0,0,0,1-.082V-.07a6.972,6.972,0,0,1-2.051.3q-3.562,0-3.633-3.6V-10.2H74.273V-12.68h1.852V-15.8Zm3.176,9.34a7.52,7.52,0,0,1,.727-3.363,5.319,5.319,0,0,1,2.092-2.285,6.1,6.1,0,0,1,3.17-.809,5.774,5.774,0,0,1,4.189,1.57,6.3,6.3,0,0,1,1.811,4.266l.023.867A6.627,6.627,0,0,1,93.07-1.529,5.662,5.662,0,0,1,88.7.234a5.69,5.69,0,0,1-4.377-1.758A6.744,6.744,0,0,1,82.688-6.3Zm3.387.24a4.74,4.74,0,0,0,.68,2.764A2.242,2.242,0,0,0,88.7-2.5a2.247,2.247,0,0,0,1.922-.945,5.186,5.186,0,0,0,.691-3.022,4.692,4.692,0,0,0-.691-2.746,2.248,2.248,0,0,0-1.945-.974,2.211,2.211,0,0,0-1.922.968A5.274,5.274,0,0,0,86.074-6.217ZM100.84-15.8v3.117h2.168V-10.2H100.84v6.328a1.511,1.511,0,0,0,.27,1.008,1.354,1.354,0,0,0,1.031.3,5.4,5.4,0,0,0,1-.082V-.07a6.972,6.972,0,0,1-2.051.3q-3.562,0-3.633-3.6V-10.2H95.6V-12.68h1.852V-15.8ZM112.242,0a3.761,3.761,0,0,1-.34-1.137A4.1,4.1,0,0,1,108.7.234a4.5,4.5,0,0,1-3.088-1.078,3.467,3.467,0,0,1-1.225-2.719,3.583,3.583,0,0,1,1.494-3.094,7.373,7.373,0,0,1,4.318-1.09h1.559v-.727a2.089,2.089,0,0,0-.451-1.406,1.775,1.775,0,0,0-1.424-.527,2.018,2.018,0,0,0-1.342.41,1.393,1.393,0,0,0-.486,1.125h-3.387a3.4,3.4,0,0,1,.68-2.039,4.493,4.493,0,0,1,1.922-1.471,7,7,0,0,1,2.789-.533,5.534,5.534,0,0,1,3.721,1.178,4.12,4.12,0,0,1,1.377,3.311v5.5a6.062,6.062,0,0,0,.5,2.73V0Zm-2.8-2.355a2.917,2.917,0,0,0,1.383-.334,2.194,2.194,0,0,0,.938-.9v-2.18H110.5q-2.543,0-2.707,1.758l-.012.2a1.356,1.356,0,0,0,.445,1.043A1.73,1.73,0,0,0,109.441-2.355ZM121.336,0h-3.4V-18h3.4ZM127.3-12.68l.105,1.418a4.456,4.456,0,0,1,3.645-1.652,3.382,3.382,0,0,1,3.363,1.934,4.354,4.354,0,0,1,3.809-1.934,3.782,3.782,0,0,1,3.07,1.2A5.521,5.521,0,0,1,142.3-8.1V0h-3.4V-8.1a2.424,2.424,0,0,0-.422-1.58,1.867,1.867,0,0,0-1.488-.5,2.114,2.114,0,0,0-2.109,1.456L134.895,0h-3.387V-8.093a2.394,2.394,0,0,0-.434-1.6,1.885,1.885,0,0,0-1.477-.493,2.194,2.194,0,0,0-2.086,1.2V0h-3.387V-12.68ZM150.738.234A6.225,6.225,0,0,1,146.2-1.477a6.082,6.082,0,0,1-1.752-4.559v-.328a7.66,7.66,0,0,1,.738-3.416,5.418,5.418,0,0,1,2.092-2.32,5.871,5.871,0,0,1,3.088-.814,5.262,5.262,0,0,1,4.1,1.641,6.667,6.667,0,0,1,1.494,4.652v1.383h-8.074a3.146,3.146,0,0,0,.99,1.992,2.993,2.993,0,0,0,2.092.75,3.656,3.656,0,0,0,3.059-1.418l1.664,1.863a5.084,5.084,0,0,1-2.062,1.682A6.767,6.767,0,0,1,150.738.234Zm-.387-10.418a2.116,2.116,0,0,0-1.635.683,3.535,3.535,0,0,0-.8,1.954h4.711v-.271a2.521,2.521,0,0,0-.609-1.748A2.183,2.183,0,0,0,150.352-10.184Zm10.641-2.5.105,1.465a4.427,4.427,0,0,1,3.645-1.7,3.679,3.679,0,0,1,3,1.184,5.522,5.522,0,0,1,1.008,3.539V0h-3.387V-8.128a2.206,2.206,0,0,0-.469-1.568,2.1,2.1,0,0,0-1.559-.487,2.329,2.329,0,0,0-2.145,1.221V0H157.8V-12.68ZM175.371-15.8v3.117h2.168V-10.2h-2.168v6.328a1.511,1.511,0,0,0,.27,1.008,1.354,1.354,0,0,0,1.031.3,5.4,5.4,0,0,0,1-.082V-.07a6.972,6.972,0,0,1-2.051.3q-3.562,0-3.633-3.6V-10.2h-1.852V-12.68h1.852V-15.8ZM185.262.234a6.225,6.225,0,0,1-4.541-1.711,6.082,6.082,0,0,1-1.752-4.559v-.328a7.66,7.66,0,0,1,.738-3.416A5.418,5.418,0,0,1,181.8-12.1a5.871,5.871,0,0,1,3.088-.814,5.262,5.262,0,0,1,4.1,1.641,6.667,6.667,0,0,1,1.494,4.652v1.383H182.4a3.146,3.146,0,0,0,.99,1.992,2.993,2.993,0,0,0,2.092.75,3.656,3.656,0,0,0,3.059-1.418l1.664,1.863a5.084,5.084,0,0,1-2.062,1.682A6.767,6.767,0,0,1,185.262.234Zm-.387-10.418a2.116,2.116,0,0,0-1.635.683,3.535,3.535,0,0,0-.8,1.954h4.711v-.271a2.521,2.521,0,0,0-.609-1.748A2.183,2.183,0,0,0,184.875-10.184ZM202.336,0H198.82V-17.062h3.516Zm6.152-12.68.105,1.465a4.427,4.427,0,0,1,3.645-1.7,3.679,3.679,0,0,1,3,1.184,5.522,5.522,0,0,1,1.008,3.539V0h-3.387V-8.128a2.206,2.206,0,0,0-.469-1.568,2.1,2.1,0,0,0-1.559-.487,2.329,2.329,0,0,0-2.145,1.221V0H205.3V-12.68ZM224.648.234a6.225,6.225,0,0,1-4.541-1.711,6.082,6.082,0,0,1-1.752-4.559v-.328a7.66,7.66,0,0,1,.738-3.416,5.418,5.418,0,0,1,2.092-2.32,5.871,5.871,0,0,1,3.088-.814,5.262,5.262,0,0,1,4.1,1.641,6.667,6.667,0,0,1,1.494,4.652v1.383h-8.074a3.146,3.146,0,0,0,.99,1.992,2.993,2.993,0,0,0,2.092.75,3.656,3.656,0,0,0,3.059-1.418l1.664,1.863a5.084,5.084,0,0,1-2.062,1.682A6.767,6.767,0,0,1,224.648.234Zm-.387-10.418a2.116,2.116,0,0,0-1.635.683,3.535,3.535,0,0,0-.8,1.954h4.711v-.271a2.521,2.521,0,0,0-.609-1.748A2.183,2.183,0,0,0,224.262-10.184ZM235.359,0h-3.4V-18h3.4ZM245.5,0a3.761,3.761,0,0,1-.34-1.137,4.1,4.1,0,0,1-3.2,1.371,4.5,4.5,0,0,1-3.088-1.078,3.467,3.467,0,0,1-1.225-2.719,3.583,3.583,0,0,1,1.494-3.094,7.373,7.373,0,0,1,4.318-1.09h1.559v-.727a2.089,2.089,0,0,0-.451-1.406,1.775,1.775,0,0,0-1.424-.527A2.018,2.018,0,0,0,241.8-10a1.393,1.393,0,0,0-.486,1.125h-3.387a3.4,3.4,0,0,1,.68-2.039,4.493,4.493,0,0,1,1.922-1.471,7,7,0,0,1,2.789-.533,5.534,5.534,0,0,1,3.721,1.178,4.12,4.12,0,0,1,1.377,3.311v5.5a6.062,6.062,0,0,0,.5,2.73V0Zm-2.8-2.355a2.917,2.917,0,0,0,1.383-.334,2.194,2.194,0,0,0,.938-.9v-2.18H243.75q-2.543,0-2.707,1.758l-.012.2a1.356,1.356,0,0,0,.445,1.043A1.73,1.73,0,0,0,242.7-2.355ZM243.984-18h3.691l-3.246,3.633h-2.754Zm13.9,14.5a1.091,1.091,0,0,0-.615-.979,6.989,6.989,0,0,0-1.975-.639q-4.523-.949-4.523-3.844a3.484,3.484,0,0,1,1.4-2.818,5.649,5.649,0,0,1,3.662-1.131,6.08,6.08,0,0,1,3.861,1.137,3.582,3.582,0,0,1,1.447,2.953h-3.387a1.639,1.639,0,0,0-.469-1.2,1.984,1.984,0,0,0-1.465-.475,2.027,2.027,0,0,0-1.324.387,1.221,1.221,0,0,0-.469.984,1.044,1.044,0,0,0,.533.908,5.485,5.485,0,0,0,1.8.6,14.693,14.693,0,0,1,2.133.568q2.684.984,2.684,3.41a3.307,3.307,0,0,1-1.488,2.807A6.42,6.42,0,0,1,255.844.234a6.706,6.706,0,0,1-2.83-.568,4.748,4.748,0,0,1-1.939-1.559,3.621,3.621,0,0,1-.7-2.139h3.211a1.768,1.768,0,0,0,.668,1.383,2.649,2.649,0,0,0,1.664.48,2.452,2.452,0,0,0,1.471-.369A1.149,1.149,0,0,0,257.883-3.5ZM267.41-15.8v3.117h2.168V-10.2H267.41v6.328a1.511,1.511,0,0,0,.27,1.008,1.354,1.354,0,0,0,1.031.3,5.4,5.4,0,0,0,1-.082V-.07a6.972,6.972,0,0,1-2.051.3q-3.562,0-3.633-3.6V-10.2h-1.852V-12.68h1.852V-15.8ZM275.039,0h-3.4V-12.68h3.4Zm-3.6-15.961a1.668,1.668,0,0,1,.51-1.254,1.915,1.915,0,0,1,1.389-.492,1.919,1.919,0,0,1,1.383.492,1.658,1.658,0,0,1,.516,1.254,1.663,1.663,0,0,1-.521,1.266,1.924,1.924,0,0,1-1.377.492,1.924,1.924,0,0,1-1.377-.492A1.663,1.663,0,0,1,271.441-15.961ZM283.1-2.5a2.221,2.221,0,0,0,1.523-.516,1.807,1.807,0,0,0,.609-1.371h3.176a4.344,4.344,0,0,1-.7,2.361,4.64,4.64,0,0,1-1.893,1.664,5.923,5.923,0,0,1-2.654.592,5.5,5.5,0,0,1-4.289-1.729A6.84,6.84,0,0,1,277.3-6.27v-.223a6.762,6.762,0,0,1,1.559-4.676,5.441,5.441,0,0,1,4.277-1.746,5.333,5.333,0,0,1,3.814,1.354,4.792,4.792,0,0,1,1.459,3.6h-3.176a2.327,2.327,0,0,0-.609-1.608,2.032,2.032,0,0,0-1.547-.619,2.04,2.04,0,0,0-1.787.863,5,5,0,0,0-.6,2.8v.352a5.063,5.063,0,0,0,.6,2.817A2.065,2.065,0,0,0,283.1-2.5ZM297.691,0a3.761,3.761,0,0,1-.34-1.137,4.1,4.1,0,0,1-3.2,1.371,4.5,4.5,0,0,1-3.088-1.078,3.467,3.467,0,0,1-1.225-2.719,3.583,3.583,0,0,1,1.494-3.094,7.373,7.373,0,0,1,4.318-1.09h1.559v-.727a2.089,2.089,0,0,0-.451-1.406,1.775,1.775,0,0,0-1.424-.527,2.018,2.018,0,0,0-1.342.41,1.393,1.393,0,0,0-.486,1.125h-3.387a3.4,3.4,0,0,1,.68-2.039,4.493,4.493,0,0,1,1.922-1.471,7,7,0,0,1,2.789-.533,5.534,5.534,0,0,1,3.721,1.178,4.12,4.12,0,0,1,1.377,3.311v5.5a6.062,6.062,0,0,0,.5,2.73V0Zm-2.8-2.355a2.917,2.917,0,0,0,1.383-.334,2.194,2.194,0,0,0,.938-.9v-2.18h-1.266q-2.543,0-2.707,1.758l-.012.2a1.356,1.356,0,0,0,.445,1.043A1.73,1.73,0,0,0,294.891-2.355Z" transform="translate(648.647 6005.162)" fill="#12263f"/>
    <path id="Trazado_141837" data-name="Trazado 141837" d="M4.409-5.26V0H1.333V-14.93H7.157a6.738,6.738,0,0,1,2.958.615,4.534,4.534,0,0,1,1.964,1.748,4.875,4.875,0,0,1,.687,2.579,4.287,4.287,0,0,1-1.5,3.461A6.257,6.257,0,0,1,7.106-5.26Zm0-2.492H7.157a2.7,2.7,0,0,0,1.861-.574,2.088,2.088,0,0,0,.641-1.641,2.463,2.463,0,0,0-.646-1.774,2.413,2.413,0,0,0-1.784-.7H4.409Zm16.509-.564A8.051,8.051,0,0,0,19.852-8.4a2.171,2.171,0,0,0-2.2,1.138V0H14.684V-11.095h2.8l.082,1.323A2.746,2.746,0,0,1,20.036-11.3a3.105,3.105,0,0,1,.923.133ZM27.255.205a5.447,5.447,0,0,1-3.973-1.5,5.321,5.321,0,0,1-1.533-3.989v-.287a6.7,6.7,0,0,1,.646-2.989,4.741,4.741,0,0,1,1.83-2.03,5.137,5.137,0,0,1,2.7-.713A4.6,4.6,0,0,1,30.51-9.864a5.833,5.833,0,0,1,1.307,4.071v1.21H24.753a2.753,2.753,0,0,0,.866,1.743,2.619,2.619,0,0,0,1.83.656,3.2,3.2,0,0,0,2.676-1.241l1.456,1.63a4.449,4.449,0,0,1-1.8,1.471A5.921,5.921,0,0,1,27.255.205Zm-.338-9.116a1.852,1.852,0,0,0-1.43.6,3.093,3.093,0,0,0-.7,1.71h4.122V-6.84a2.206,2.206,0,0,0-.533-1.529A1.91,1.91,0,0,0,26.917-8.911Zm11.2,6.727a1.944,1.944,0,0,0,1.333-.451,1.581,1.581,0,0,0,.533-1.2h2.779a3.8,3.8,0,0,1-.615,2.066A4.06,4.06,0,0,1,40.488-.313a5.183,5.183,0,0,1-2.323.518,4.817,4.817,0,0,1-3.753-1.512,5.985,5.985,0,0,1-1.374-4.178v-.195A5.917,5.917,0,0,1,34.4-9.772,4.761,4.761,0,0,1,38.145-11.3a4.667,4.667,0,0,1,3.338,1.184,4.193,4.193,0,0,1,1.277,3.153H39.98a2.036,2.036,0,0,0-.533-1.407,1.778,1.778,0,0,0-1.354-.541,1.785,1.785,0,0,0-1.564.755A4.374,4.374,0,0,0,36-5.707V-5.4a4.43,4.43,0,0,0,.523,2.465A1.807,1.807,0,0,0,38.114-2.184ZM47.578,0H44.6V-11.095h2.974ZM44.43-13.966a1.459,1.459,0,0,1,.446-1.1,1.676,1.676,0,0,1,1.215-.431,1.679,1.679,0,0,1,1.21.431,1.451,1.451,0,0,1,.451,1.1,1.455,1.455,0,0,1-.456,1.107,1.684,1.684,0,0,1-1.2.431,1.684,1.684,0,0,1-1.2-.431A1.455,1.455,0,0,1,44.43-13.966ZM49.557-5.65a6.58,6.58,0,0,1,.636-2.943,4.654,4.654,0,0,1,1.83-2A5.34,5.34,0,0,1,54.8-11.3a5.052,5.052,0,0,1,3.666,1.374,5.514,5.514,0,0,1,1.584,3.732l.021.759a5.8,5.8,0,0,1-1.425,4.1A4.954,4.954,0,0,1,54.817.205a4.979,4.979,0,0,1-3.83-1.538,5.9,5.9,0,0,1-1.43-4.184Zm2.963.21a4.147,4.147,0,0,0,.595,2.418,1.962,1.962,0,0,0,1.7.837A1.966,1.966,0,0,0,56.5-3.011a4.538,4.538,0,0,0,.6-2.644,4.106,4.106,0,0,0-.6-2.4,1.967,1.967,0,0,0-1.7-.852,1.934,1.934,0,0,0-1.682.847A4.614,4.614,0,0,0,52.521-5.44Z" transform="translate(453.454 6166.023) rotate(-90)" fill="#12263f"/>
    <path id="Trazado_141836" data-name="Trazado 141836" d="M13.053-4.973a5.283,5.283,0,0,1-1.779,3.794A6.248,6.248,0,0,1,7.044.205,5.618,5.618,0,0,1,2.528-1.728,7.925,7.925,0,0,1,.882-7.034v-.913a8.95,8.95,0,0,1,.759-3.794,5.686,5.686,0,0,1,2.169-2.517,6.075,6.075,0,0,1,3.276-.877,6.087,6.087,0,0,1,4.163,1.384,5.677,5.677,0,0,1,1.825,3.886H10a3.118,3.118,0,0,0-.8-2.1,2.981,2.981,0,0,0-2.107-.651,2.614,2.614,0,0,0-2.3,1.1A6.178,6.178,0,0,0,4-8.09v1.128a6.612,6.612,0,0,0,.733,3.538A2.565,2.565,0,0,0,7.044-2.307a3.037,3.037,0,0,0,2.128-.651,2.941,2.941,0,0,0,.8-2.015ZM21.308,0a3.291,3.291,0,0,1-.3-.995,3.586,3.586,0,0,1-2.8,1.2,3.939,3.939,0,0,1-2.7-.943,3.034,3.034,0,0,1-1.072-2.379,3.135,3.135,0,0,1,1.307-2.707,6.451,6.451,0,0,1,3.779-.954h1.364v-.636a1.828,1.828,0,0,0-.395-1.23,1.553,1.553,0,0,0-1.246-.461,1.766,1.766,0,0,0-1.174.359,1.219,1.219,0,0,0-.426.984H14.684a2.977,2.977,0,0,1,.595-1.784,3.931,3.931,0,0,1,1.682-1.287A6.129,6.129,0,0,1,19.4-11.3a4.842,4.842,0,0,1,3.256,1.031,3.605,3.605,0,0,1,1.2,2.9v4.809A5.3,5.3,0,0,0,24.3-.174V0ZM18.857-2.061a2.552,2.552,0,0,0,1.21-.292,1.919,1.919,0,0,0,.82-.784V-5.045H19.78q-2.225,0-2.369,1.538l-.01.174a1.186,1.186,0,0,0,.39.913A1.514,1.514,0,0,0,18.857-2.061Zm10.008-9.034.092,1.282A3.874,3.874,0,0,1,32.146-11.3a3.219,3.219,0,0,1,2.625,1.036,4.832,4.832,0,0,1,.882,3.1V0H32.689V-7.112a1.93,1.93,0,0,0-.41-1.372,1.833,1.833,0,0,0-1.364-.426,2.038,2.038,0,0,0-1.876,1.069V0H26.076V-11.095Zm12.582-2.728v2.728h1.9v2.174h-1.9v5.537a1.322,1.322,0,0,0,.236.882,1.184,1.184,0,0,0,.9.267,4.726,4.726,0,0,0,.872-.072V-.062a6.1,6.1,0,0,1-1.794.267q-3.117,0-3.179-3.148V-8.921h-1.62v-2.174h1.62v-2.728ZM48.122,0H45.148V-11.095h2.974ZM44.974-13.966a1.459,1.459,0,0,1,.446-1.1,1.676,1.676,0,0,1,1.215-.431,1.679,1.679,0,0,1,1.21.431,1.451,1.451,0,0,1,.451,1.1,1.455,1.455,0,0,1-.456,1.107,1.684,1.684,0,0,1-1.2.431,1.684,1.684,0,0,1-1.2-.431A1.455,1.455,0,0,1,44.974-13.966ZM50.1-5.629a6.686,6.686,0,0,1,1.164-4.132A3.776,3.776,0,0,1,54.448-11.3a3.4,3.4,0,0,1,2.676,1.21v-5.66H60.1V0H57.422l-.144-1.179A3.487,3.487,0,0,1,54.428.205a3.766,3.766,0,0,1-3.143-1.543A6.9,6.9,0,0,1,50.1-5.629Zm2.963.211a4.4,4.4,0,0,0,.543,2.4,1.769,1.769,0,0,0,1.579.834,1.982,1.982,0,0,0,1.938-1.164v-4.4a1.954,1.954,0,0,0-1.917-1.164Q53.064-8.911,53.064-5.419ZM68.824,0a3.291,3.291,0,0,1-.3-.995,3.586,3.586,0,0,1-2.8,1.2,3.939,3.939,0,0,1-2.7-.943,3.034,3.034,0,0,1-1.072-2.379,3.135,3.135,0,0,1,1.307-2.707,6.451,6.451,0,0,1,3.779-.954H68.4v-.636a1.828,1.828,0,0,0-.395-1.23,1.553,1.553,0,0,0-1.246-.461,1.766,1.766,0,0,0-1.174.359,1.219,1.219,0,0,0-.426.984H62.2a2.977,2.977,0,0,1,.595-1.784,3.931,3.931,0,0,1,1.682-1.287,6.129,6.129,0,0,1,2.44-.467,4.842,4.842,0,0,1,3.256,1.031,3.605,3.605,0,0,1,1.2,2.9v4.809a5.3,5.3,0,0,0,.441,2.389V0ZM66.374-2.061a2.552,2.552,0,0,0,1.21-.292,1.919,1.919,0,0,0,.82-.784V-5.045H67.3q-2.225,0-2.369,1.538l-.01.174a1.186,1.186,0,0,0,.39.913A1.514,1.514,0,0,0,66.374-2.061Zm6.819-3.568a6.686,6.686,0,0,1,1.164-4.132A3.776,3.776,0,0,1,77.54-11.3a3.4,3.4,0,0,1,2.676,1.21v-5.66H83.19V0H80.514L80.37-1.179A3.487,3.487,0,0,1,77.52.205a3.766,3.766,0,0,1-3.143-1.543A6.9,6.9,0,0,1,73.192-5.629Zm2.963.211a4.4,4.4,0,0,0,.543,2.4,1.769,1.769,0,0,0,1.579.834,1.982,1.982,0,0,0,1.938-1.164v-4.4A1.954,1.954,0,0,0,78.3-8.911Q76.156-8.911,76.156-5.419ZM90.593.205a5.447,5.447,0,0,1-3.973-1.5,5.321,5.321,0,0,1-1.533-3.989v-.287a6.7,6.7,0,0,1,.646-2.989,4.741,4.741,0,0,1,1.83-2.03,5.137,5.137,0,0,1,2.7-.713,4.6,4.6,0,0,1,3.584,1.436,5.833,5.833,0,0,1,1.307,4.071v1.21H88.091a2.753,2.753,0,0,0,.866,1.743,2.619,2.619,0,0,0,1.83.656,3.2,3.2,0,0,0,2.676-1.241l1.456,1.63a4.449,4.449,0,0,1-1.8,1.471A5.921,5.921,0,0,1,90.593.205Zm-.338-9.116a1.852,1.852,0,0,0-1.43.6,3.093,3.093,0,0,0-.7,1.71h4.122V-6.84a2.206,2.206,0,0,0-.533-1.529A1.91,1.91,0,0,0,90.255-8.911Zm12.592,5.845a.955.955,0,0,0-.538-.856,6.115,6.115,0,0,0-1.728-.559q-3.958-.831-3.958-3.363a3.049,3.049,0,0,1,1.225-2.466,4.943,4.943,0,0,1,3.2-.99,5.32,5.32,0,0,1,3.379.995A3.135,3.135,0,0,1,105.7-7.721h-2.963a1.434,1.434,0,0,0-.41-1.051,1.736,1.736,0,0,0-1.282-.415,1.774,1.774,0,0,0-1.159.338,1.068,1.068,0,0,0-.41.861.913.913,0,0,0,.467.795,4.8,4.8,0,0,0,1.574.523,12.856,12.856,0,0,1,1.866.5,3.066,3.066,0,0,1,2.348,2.984,2.894,2.894,0,0,1-1.3,2.456,5.618,5.618,0,0,1-3.363.938,5.867,5.867,0,0,1-2.476-.5,4.155,4.155,0,0,1-1.7-1.364,3.169,3.169,0,0,1-.615-1.871h2.81a1.547,1.547,0,0,0,.584,1.21,2.318,2.318,0,0,0,1.456.42,2.146,2.146,0,0,0,1.287-.323A1,1,0,0,0,102.847-3.066Z" transform="matrix(1, 0, 0, 1, 746.647, 6335.438)" fill="#12263f"/>
    <g id="Grupo_82196" data-name="Grupo 82196" transform="translate(2.408)">
      <text id="_90" data-name="90" transform="translate(666.98 6292.539)" fill="#12263f" font-size="16" font-family="Roboto-Regular, Roboto"><tspan x="0" y="0">90</tspan></text>
      <text id="_0" data-name="$0" transform="translate(528.783 6260.354)" fill="#12263f" font-size="16" font-family="Roboto-Regular, Roboto"><tspan x="0" y="0">$0</tspan></text>
      <text id="_200" data-name="$200" transform="translate(510.452 6223.311)" fill="#12263f" font-size="16" font-family="Roboto-Regular, Roboto"><tspan x="0" y="0">$200</tspan></text>
      <text id="_400" data-name="$400" transform="translate(509.009 6190.266)" fill="#12263f" font-size="16" font-family="Roboto-Regular, Roboto"><tspan x="0" y="0">$400</tspan></text>
      <text id="_600" data-name="$600" transform="translate(507.565 6157.215)" fill="#12263f" font-size="16" font-family="Roboto-Regular, Roboto"><tspan x="0" y="0">$600</tspan></text>
      <text id="_800" data-name="$800" transform="translate(506.121 6122.148)" fill="#12263f" font-size="16" font-family="Roboto-Regular, Roboto"><tspan x="0" y="0">$800</tspan></text>
      <text id="_1.000" data-name="$1.000" transform="translate(490.24 6089.098)" fill="#12263f" font-size="16" font-family="Roboto-Regular, Roboto"><tspan x="0" y="0">$1.000</tspan></text>
      <text id="_1.200" data-name="$1.200" transform="translate(490.24 6052.508)" fill="#12263f" font-size="16" font-family="Roboto-Regular, Roboto"><tspan x="0" y="0">$1.200</tspan></text>
      <line id="Línea_1618" data-name="Línea 1618" x2="544.678" transform="translate(560.322 6047.988)" fill="none" stroke="#e8e8e8" stroke-miterlimit="10" stroke-width="1"/>
      <line id="Línea_1619" data-name="Línea 1619" x2="544.678" transform="translate(560.322 6082.578)" fill="none" stroke="#e8e8e8" stroke-miterlimit="10" stroke-width="1"/>
      <line id="Línea_1620" data-name="Línea 1620" x2="544.678" transform="translate(560.322 6116.49)" fill="none" stroke="#e8e8e8" stroke-miterlimit="10" stroke-width="1"/>
      <line id="Línea_1621" data-name="Línea 1621" x2="544.678" transform="translate(560.322 6150.406)" fill="none" stroke="#e8e8e8" stroke-miterlimit="10" stroke-width="1"/>
      <line id="Línea_1622" data-name="Línea 1622" x2="544.678" transform="translate(560.322 6184.317)" fill="none" stroke="#e8e8e8" stroke-miterlimit="10" stroke-width="1"/>
      <line id="Línea_1623" data-name="Línea 1623" x2="544.678" transform="translate(560.322 6218.908)" fill="none" stroke="#e8e8e8" stroke-miterlimit="10" stroke-width="1"/>
      <line id="Línea_1624" data-name="Línea 1624" x2="544.678" transform="translate(560.322 6253.5)" fill="none" stroke="#e8e8e8" stroke-miterlimit="10" stroke-width="1"/>
      <path id="Trazado_140155" data-name="Trazado 140155" d="M0,0,1.081,203.672" transform="translate(671.134 6049.109)" fill="none" stroke="#cb3921" stroke-linecap="round" stroke-width="4"/>
    </g>
    <g id="Grupo_82089" data-name="Grupo 82089" transform="translate(437.428 6313.436)">
      <text id="totalmente_Inelástica" data-name="totalmente Inelástica" transform="matrix(1, 0, 0, 1, 72.557, 23)" fill="#12263f" font-size="16" font-family="Roboto-Regular, Roboto"><tspan x="0" y="0">totalmente Inelástica</tspan></text>
      <path id="Trazado_140156" data-name="Trazado 140156" d="M0,0H63.213" transform="translate(0 17.458)" fill="none" stroke="#cb3921" stroke-linecap="round" stroke-width="4"/>
    </g>
  </g>
</svg>
