<svg xmlns="http://www.w3.org/2000/svg" width="140.101" height="140.099" viewBox="0 0 140.101 140.099">
  <g id="performance" transform="translate(-0.999 -1)">
    <g id="Grupo_82129" data-name="Grupo 82129" transform="translate(3.259 3.26)">
      <g id="Grupo_82116" data-name="Grupo 82116" transform="translate(24.858)">
        <path id="Trazado_140364" data-name="Trazado 140364" d="M106.189,53.385,101.127,69.79,80.79,60.751l1.039-6.779A9.035,9.035,0,1,0,66.78,63.915l-.384.294A36.169,36.169,0,0,0,14.017,48.255a15.819,15.819,0,0,1,14.8-21.4,15.88,15.88,0,0,1,4.542.655,6.349,6.349,0,0,1-.023-.655,24.853,24.853,0,0,1,49.035-5.74,13.337,13.337,0,0,1,5.2-1.039A13.589,13.589,0,0,1,100.788,30.63a13.559,13.559,0,0,0,5.4,22.755Z" transform="translate(-13 -2)" fill="#e6e9ed"/>
      </g>
      <g id="Grupo_82117" data-name="Grupo 82117" transform="translate(108.466 99.425)">
        <path id="Trazado_140365" data-name="Trazado 140365" d="M50,46h9.039V82.155H50Z" transform="translate(-50 -46)" fill="#d64626"/>
      </g>
      <g id="Grupo_82118" data-name="Grupo 82118" transform="translate(90.388 81.348)">
        <path id="Trazado_140366" data-name="Trazado 140366" d="M42,38h9.039V92.232H42Z" transform="translate(-42 -38)" fill="#d64626"/>
      </g>
      <g id="Grupo_82119" data-name="Grupo 82119" transform="translate(72.311 90.387)">
        <path id="Trazado_140367" data-name="Trazado 140367" d="M43.039,42V87.193H34V42h9.039Z" transform="translate(-34 -42)" fill="#d64626"/>
      </g>
      <g id="Grupo_82120" data-name="Grupo 82120" transform="translate(126.543 67.79)">
        <path id="Trazado_140368" data-name="Trazado 140368" d="M58,32h9.039V99.79H58Z" transform="translate(-58 -32)" fill="#d64626"/>
      </g>
      <g id="Grupo_82121" data-name="Grupo 82121" transform="translate(54.234 108.464)">
        <path id="Trazado_140369" data-name="Trazado 140369" d="M35.039,50V77.116H26V50h9.039Z" transform="translate(-26 -50)" fill="#d64626"/>
      </g>
      <g id="Grupo_82122" data-name="Grupo 82122" transform="translate(0 101.775)">
        <path id="Trazado_140370" data-name="Trazado 140370" d="M32.054,54.926,14.158,78.2A6.784,6.784,0,0,1,3.4,69.93L21.027,47.04A36.2,36.2,0,0,0,32.054,54.926Z" transform="translate(-1.999 -47.04)" fill="#969faa"/>
      </g>
      <g id="Grupo_82123" data-name="Grupo 82123" transform="translate(9.04 40.674)">
        <path id="Trazado_140371" data-name="Trazado 140371" d="M75.214,41.535a36.215,36.215,0,0,1,.475,28.178H69.271V80.062a36.144,36.144,0,0,1-9.6,7.728H51.193v3.39a37.234,37.234,0,0,1-9.039,1.13,35.753,35.753,0,0,1-15.14-3.322,36.153,36.153,0,1,1,48.2-47.453Z" transform="translate(-6 -20)" fill="#fcd770"/>
      </g>
      <g id="Grupo_82124" data-name="Grupo 82124" transform="translate(18.079 49.713)">
        <path id="Trazado_140372" data-name="Trazado 140372" d="M62.7,42.1A27.12,27.12,0,1,1,37.116,24,27.077,27.077,0,0,1,62.7,42.1Z" transform="translate(-10 -24)" fill="#dff7f9"/>
      </g>
      <g id="Grupo_82125" data-name="Grupo 82125" transform="translate(108.466 24.856)">
        <path id="Trazado_140373" data-name="Trazado 140373" d="M63.558,13a13.571,13.571,0,1,1-9.378,3.774A13.372,13.372,0,0,1,63.558,13Z" transform="translate(-50 -13)" fill="#20287a"/>
      </g>
      <g id="Grupo_82126" data-name="Grupo 82126" transform="translate(108.466 63.271)">
        <path id="Trazado_140374" data-name="Trazado 140374" d="M50.339,32.779A4.564,4.564,0,0,1,54.519,30a4.227,4.227,0,0,1,1.333.2,4.5,4.5,0,1,1-5.514,2.576Z" transform="translate(-50 -30)" fill="#d64626"/>
      </g>
      <g id="Grupo_82127" data-name="Grupo 82127" transform="translate(76.83 47.453)">
        <path id="Trazado_140375" data-name="Trazado 140375" d="M54.077,32.039a8.86,8.86,0,0,1-.7,3.48,8.985,8.985,0,1,1,.7-3.48Z" transform="translate(-36 -23)" fill="#2a94ee"/>
      </g>
      <g id="Grupo_82128" data-name="Grupo 82128" transform="translate(51.974 70.05)">
        <path id="Trazado_140376" data-name="Trazado 140376" d="M37.2,35.712A6.779,6.779,0,1,1,31.779,33,6.817,6.817,0,0,1,37.2,35.712Z" transform="translate(-25 -33)" fill="#fed947"/>
      </g>
    </g>
    <g id="Grupo_82130" data-name="Grupo 82130" transform="translate(0.999 1)">
      <path id="Trazado_140377" data-name="Trazado 140377" d="M127.542,136.58h-4.519V100.425H109.465V136.58h-4.519V82.348H91.387V136.58H86.868V91.387H85.162a37.738,37.738,0,0,0,.427-20.961,11.153,11.153,0,0,0,3.539.624,11.3,11.3,0,0,0,9.344-4.958l11.029,4.6c-.007.122-.036.237-.036.362a6.779,6.779,0,1,0,10.81-5.419l2.569-8.347a15.811,15.811,0,1,0-5.864-29.048A15.776,15.776,0,0,0,99.023,19.5a27.117,27.117,0,0,0-52.747,6.5,18.345,18.345,0,0,0-2.341-.149A18.072,18.072,0,0,0,26.479,48.627a38.282,38.282,0,0,0-7.111,56.483l-16.5,21.449A9.04,9.04,0,0,0,17.2,137.572l16.846-21.9A38.164,38.164,0,0,0,48.454,118.5a38.589,38.589,0,0,0,6.779-.61V141.1H141.1V68.79H127.542Zm-13.558-31.635H118.5V136.58h-4.519ZM95.907,86.867h4.519V136.58H95.907ZM66.531,80.088a4.519,4.519,0,1,1-4.519-4.519A4.524,4.524,0,0,1,66.531,80.088Zm1.091-7.032a8.954,8.954,0,0,0-5.611-2.007,9.06,9.06,0,1,0,8.352,5.6l2.384-1.787a24.863,24.863,0,1,1-1.453-4.56Zm14.726,22.85V136.58H77.83V95.906Zm-6.786-4.519a29.108,29.108,0,0,0,1.089-19.456l3.819-2.865a33.352,33.352,0,0,1-.09,22.321ZM89.128,66.53a6.779,6.779,0,1,1,6.779-6.779A6.787,6.787,0,0,1,89.128,66.53Zm27.116,6.779a2.26,2.26,0,1,1,2.26-2.26A2.262,2.262,0,0,1,116.244,73.309Zm20.337-31.635a11.3,11.3,0,1,1-11.3-11.3A11.311,11.311,0,0,1,136.581,41.674Zm-106.2,2.26a13.588,13.588,0,0,1,17.458-13l3.218.956-.328-3.342c-.014-.151-.011-.287-.011-.436A22.594,22.594,0,0,1,95.29,22.894L95.9,25.5l2.465-1.039a11,11,0,0,1,4.318-.863,11.367,11.367,0,0,1,10.675,7.714,15.763,15.763,0,0,0,5.163,24.642L115.955,64.3a6.733,6.733,0,0,0-4.716,2.217l-11.032-4.6a11.266,11.266,0,0,0-21.742-5.746A38.272,38.272,0,0,0,30.573,46.116a13.494,13.494,0,0,1-.2-2.183ZM13.621,134.815a4.628,4.628,0,0,1-6.347.823,4.517,4.517,0,0,1-.823-6.327l16.1-20.934a38.627,38.627,0,0,0,7.317,5.308Zm34.833-20.832a33.895,33.895,0,1,1,30.2-49.2L74.976,67.54A29.382,29.382,0,1,0,73.31,95.671v7.423a33.854,33.854,0,0,1-7.972,6.37H55.233V113.3A34.173,34.173,0,0,1,48.454,113.983Zm15.818,22.6H59.752v-22.6h4.519Zm4.519-23.934a38.406,38.406,0,0,0,4.519-3.306v27.24H68.791Zm63.271-39.336h4.519V136.58h-4.519Z" transform="translate(-0.999 -1)"/>
      <path id="Trazado_140378" data-name="Trazado 140378" d="M28,15h4.519v4.519H28Z" transform="translate(33.013 16.635)"/>
      <path id="Trazado_140379" data-name="Trazado 140379" d="M32,15h4.519v4.519H32Z" transform="translate(38.051 16.635)"/>
      <path id="Trazado_140380" data-name="Trazado 140380" d="M36,15h4.519v4.519H36Z" transform="translate(43.09 16.635)"/>
    </g>
  </g>
</svg>
