<svg xmlns="http://www.w3.org/2000/svg" width="1029.999" height="995.359" viewBox="0 0 1029.999 995.359">
  <g id="Grupo_82930" data-name="Grupo 82930" transform="translate(-285.295 -8007.07)">
    <path id="Trazado_141851" data-name="Trazado 141851" d="M116,0A116,116,0,1,1,0,116,116,116,0,0,1,116,0Z" transform="translate(685.295 8043.07)" fill="#f6f6f6"/>
    <g id="Grupo_82132" data-name="Grupo 82132" transform="translate(-3107.532 7857.358)">
      <path id="Trazado_140396" data-name="Trazado 140396" d="M4695.459,451.079l0,.027a232.563,232.563,0,0,1,201.546,115.727,163.169,163.169,0,0,1,3.337-36.532,256.338,256.338,0,0,0-204.883-102.255l0-.027a127.428,127.428,0,1,1,45.576-8.355,266.29,266.29,0,0,1,34.711,8.355,150.264,150.264,0,0,0,70.4-127.625c0-83.087-67.6-150.682-150.684-150.682s-150.685,67.6-150.685,150.682S4612.372,451.079,4695.459,451.079Z" transform="translate(-787.761 0)" fill="#fed947"/>
      <path id="Trazado_140397" data-name="Trazado 140397" d="M3543.724,1280.067A150.132,150.132,0,0,0,3686.419,1177.2l.042.012a233.406,233.406,0,0,1,173.221-154.25,162.148,162.148,0,0,1-33.618-14.719,256.577,256.577,0,0,0-161,160.3l-.042-.014a127.923,127.923,0,1,1,6-44.3,266.95,266.95,0,0,1,19.012-30.318,150.723,150.723,0,1,0-157.575,185.736Q3538.124,1280.069,3543.724,1280.067Z" transform="translate(0 -566.893)" fill="#fed947"/>
      <path id="Trazado_140398" data-name="Trazado 140398" d="M4067.795,1971.267l.021-.028a235.325,235.325,0,0,1-69.763-81.133,230.589,230.589,0,0,1-26.146-107.4,236.673,236.673,0,0,1,1.55-26.831,160.079,160.079,0,0,1-24.6,27.331,255.853,255.853,0,0,0,104.776,206.214l-.018.024a127.937,127.937,0,1,1-41.166-19.777,269.9,269.9,0,0,1-23.2-27.364,150.788,150.788,0,1,0,78.547,28.963Z" transform="translate(-297.43 -1098.377)" fill="#fed947"/>
      <path id="Trazado_140399" data-name="Trazado 140399" d="M5913.226,1085.088A150.684,150.684,0,0,0,5723.376,988.3c-78.9,25.614-122.3,110.542-96.91,189.459l-.007.005a232.18,232.18,0,0,1-43.331,225.987,162.83,162.83,0,0,1,34.587-7.344,252.655,252.655,0,0,0,15.368-25.677,257.01,257.01,0,0,0,15.433-199.7l0,0a127.449,127.449,0,1,1,22.516,41.373A270.43,270.43,0,0,1,5674,1247.99a150.754,150.754,0,0,0,239.225-162.9Z" transform="translate(-1497.841 -568.382)" fill="#fed947"/>
      <path id="Trazado_140400" data-name="Trazado 140400" d="M4956.659,2367.262l-.021-.028a235.324,235.324,0,0,1-98.119,42.684,230.545,230.545,0,0,1-110.332-6.743,236.9,236.9,0,0,1-25.175-9.4,160.272,160.272,0,0,1,18.846,31.574,255.868,255.868,0,0,0,227.961-39.191l.015.024a127.923,127.923,0,1,1-31.053,33.487,269.79,269.79,0,0,1-32.994,14.083,150.789,150.789,0,1,0,50.871-66.487Z" transform="translate(-909.649 -1496.181)" fill="#fed947"/>
    </g>
    <path id="Trazado_141852" data-name="Trazado 141852" d="M-57.4,0V-14.219h4.58a6.737,6.737,0,0,1,3.389.854,6.006,6.006,0,0,1,2.349,2.412,7.283,7.283,0,0,1,.854,3.491v.654a7.325,7.325,0,0,1-.825,3.5A6.032,6.032,0,0,1-49.375-.884,6.589,6.589,0,0,1-52.72,0Zm3.428-11.572v8.936h1.191a2.666,2.666,0,0,0,2.266-1.05,5.145,5.145,0,0,0,.791-3.12v-.615a5.1,5.1,0,0,0-.791-3.105,2.713,2.713,0,0,0-2.3-1.045ZM-39.507.2a5.432,5.432,0,0,1-3.936-1.45,5.008,5.008,0,0,1-1.5-3.774V-5.3a6.489,6.489,0,0,1,.6-2.861,4.395,4.395,0,0,1,1.753-1.919,5.292,5.292,0,0,1,2.734-.679A4.574,4.574,0,0,1-36.343-9.38a5.43,5.43,0,0,1,1.289,3.853v1.279H-41.6a2.372,2.372,0,0,0,.771,1.4,2.3,2.3,0,0,0,1.543.508,2.958,2.958,0,0,0,2.441-1.094l1.5,1.777A4.2,4.2,0,0,1-37.08-.308,5.891,5.891,0,0,1-39.507.2Zm-.371-8.418q-1.445,0-1.719,1.914h3.32v-.254a1.63,1.63,0,0,0-.4-1.226A1.593,1.593,0,0,0-39.878-8.223Zm9.98-4.971v2.627h1.738v2.285H-29.9v4.834a1.234,1.234,0,0,0,.215.83,1.152,1.152,0,0,0,.85.234,4.828,4.828,0,0,0,.82-.059V-.088A6.074,6.074,0,0,1-29.868.2a3.448,3.448,0,0,1-2.51-.8,3.282,3.282,0,0,1-.811-2.432V-8.281h-1.348v-2.285h1.348v-2.627ZM-21.753.2a5.432,5.432,0,0,1-3.936-1.45,5.008,5.008,0,0,1-1.5-3.774V-5.3a6.489,6.489,0,0,1,.6-2.861,4.395,4.395,0,0,1,1.753-1.919,5.292,5.292,0,0,1,2.734-.679A4.574,4.574,0,0,1-18.589-9.38,5.43,5.43,0,0,1-17.3-5.527v1.279h-6.543a2.372,2.372,0,0,0,.771,1.4,2.3,2.3,0,0,0,1.543.508,2.958,2.958,0,0,0,2.441-1.094l1.5,1.777A4.2,4.2,0,0,1-19.326-.308,5.891,5.891,0,0,1-21.753.2Zm-.371-8.418q-1.445,0-1.719,1.914h3.32v-.254a1.63,1.63,0,0,0-.4-1.226A1.593,1.593,0,0,0-22.124-8.223Zm12.539.635-1.084-.078a1.947,1.947,0,0,0-1.992.977V0h-3.291V-10.566h3.086l.107,1.357a2.548,2.548,0,0,1,2.314-1.553,3.209,3.209,0,0,1,.918.117Zm4.3-2.979.107,1.24a3.633,3.633,0,0,1,3.018-1.436A2.675,2.675,0,0,1,.542-9.17a3.517,3.517,0,0,1,3.105-1.592q3.213,0,3.3,3.887V0h-3.3V-6.67a2.014,2.014,0,0,0-.273-1.182,1.164,1.164,0,0,0-1-.371,1.559,1.559,0,0,0-1.455.869l.01.137V0h-3.3V-6.65a2.117,2.117,0,0,0-.264-1.2,1.161,1.161,0,0,0-1.006-.371,1.578,1.578,0,0,0-1.445.869V0H-8.374V-10.566ZM12.3,0H9V-10.566h3.3ZM8.8-13.3a1.482,1.482,0,0,1,.508-1.159,1.909,1.909,0,0,1,1.318-.452,1.909,1.909,0,0,1,1.318.452,1.482,1.482,0,0,1,.508,1.159,1.482,1.482,0,0,1-.508,1.159,1.909,1.909,0,0,1-1.318.452,1.909,1.909,0,0,1-1.318-.452A1.482,1.482,0,0,1,8.8-13.3Zm8.545,2.734.107,1.24a3.583,3.583,0,0,1,3.018-1.436,3.015,3.015,0,0,1,2.466.986,4.7,4.7,0,0,1,.845,2.969V0h-3.3V-6.67a1.783,1.783,0,0,0-.322-1.177,1.491,1.491,0,0,0-1.172-.376,1.569,1.569,0,0,0-1.436.762V0H14.263V-10.566ZM31.558,0a3.716,3.716,0,0,1-.312-.947A3.06,3.06,0,0,1,28.706.2a3.749,3.749,0,0,1-2.539-.9,2.875,2.875,0,0,1-1.045-2.271,2.955,2.955,0,0,1,1.27-2.6,6.468,6.468,0,0,1,3.691-.879H31.1v-.559q0-1.462-1.26-1.462a1.03,1.03,0,0,0-1.172,1.158H25.376a2.95,2.95,0,0,1,1.3-2.487A5.479,5.479,0,0,1,30-10.762a4.8,4.8,0,0,1,3.193.986A3.429,3.429,0,0,1,34.4-7.07v4.678a4.79,4.79,0,0,0,.449,2.227V0ZM29.5-2.148a1.836,1.836,0,0,0,1.021-.264,1.653,1.653,0,0,0,.581-.6V-4.7h-.957q-1.719,0-1.719,1.543a.942.942,0,0,0,.3.728A1.1,1.1,0,0,0,29.5-2.148ZM42.612-7.588l-1.084-.078a1.947,1.947,0,0,0-1.992.977V0H36.245V-10.566h3.086l.107,1.357a2.548,2.548,0,0,1,2.314-1.553,3.209,3.209,0,0,1,.918.117ZM54.731,0a3.716,3.716,0,0,1-.312-.947A3.06,3.06,0,0,1,51.88.2a3.749,3.749,0,0,1-2.539-.9A2.875,2.875,0,0,1,48.3-2.979a2.955,2.955,0,0,1,1.27-2.6,6.468,6.468,0,0,1,3.691-.879h1.016v-.559q0-1.462-1.26-1.462a1.03,1.03,0,0,0-1.172,1.158H48.55a2.95,2.95,0,0,1,1.3-2.487,5.479,5.479,0,0,1,3.325-.956,4.8,4.8,0,0,1,3.193.986,3.429,3.429,0,0,1,1.2,2.705v4.678a4.79,4.79,0,0,0,.449,2.227V0ZM52.671-2.148a1.836,1.836,0,0,0,1.021-.264,1.653,1.653,0,0,0,.581-.6V-4.7h-.957Q51.6-4.7,51.6-3.154a.942.942,0,0,0,.3.728A1.1,1.1,0,0,0,52.671-2.148Zm-125.5,17.758a6.343,6.343,0,0,1,1.094-3.945,3.592,3.592,0,0,1,3.018-1.426,3.068,3.068,0,0,1,2.6,1.328l.234-1.133h2.852V25.063h-3.3V20.121a3.063,3.063,0,0,1-2.4,1.074,3.561,3.561,0,0,1-2.983-1.45A6.7,6.7,0,0,1-72.827,15.609Zm3.291.205q0,2.842,1.641,2.842a1.589,1.589,0,0,0,1.563-.859v-4.18a1.555,1.555,0,0,0-1.543-.84q-1.533,0-1.65,2.451Zm14.658,4.043A3.393,3.393,0,0,1-57.7,21.2a3.328,3.328,0,0,1-2.632-1.011,4.251,4.251,0,0,1-.894-2.905V10.434h3.291V17.3a1.183,1.183,0,0,0,1.318,1.357A1.72,1.72,0,0,0-55,17.846V10.434h3.311V21H-54.78Zm10.1,1.338a5.432,5.432,0,0,1-3.936-1.45,5.008,5.008,0,0,1-1.5-3.774V15.7a6.489,6.489,0,0,1,.6-2.861,4.395,4.395,0,0,1,1.753-1.919,5.292,5.292,0,0,1,2.734-.679,4.574,4.574,0,0,1,3.516,1.382,5.43,5.43,0,0,1,1.289,3.853v1.279H-46.87a2.372,2.372,0,0,0,.771,1.4,2.3,2.3,0,0,0,1.543.508,2.958,2.958,0,0,0,2.441-1.094l1.5,1.777a4.2,4.2,0,0,1-1.743,1.353A5.891,5.891,0,0,1-44.78,21.2Zm-.371-8.418q-1.445,0-1.719,1.914h3.32v-.254a1.63,1.63,0,0,0-.4-1.226A1.593,1.593,0,0,0-45.151,12.777ZM-45.19,5.99h3.477l-2.715,3.066-2.686,0Zm16.7,12.041a.76.76,0,0,0-.439-.674,6.684,6.684,0,0,0-1.67-.527,7.615,7.615,0,0,1-2.031-.718,3.4,3.4,0,0,1-1.221-1.079,2.577,2.577,0,0,1-.42-1.455,2.92,2.92,0,0,1,1.2-2.4,4.948,4.948,0,0,1,3.145-.942,5.482,5.482,0,0,1,3.359.947,2.962,2.962,0,0,1,1.27,2.49h-3.3q0-1.27-1.338-1.27a1.326,1.326,0,0,0-.869.288.892.892,0,0,0-.352.718.819.819,0,0,0,.43.713,4.06,4.06,0,0,0,1.372.449,11.857,11.857,0,0,1,1.655.42,3.007,3.007,0,0,1,2.383,2.939A2.767,2.767,0,0,1-26.6,20.287a5.631,5.631,0,0,1-3.325.908,5.747,5.747,0,0,1-2.422-.488,4.05,4.05,0,0,1-1.66-1.328,3.007,3.007,0,0,1-.6-1.768h3.076a1.272,1.272,0,0,0,.488,1.069,2.009,2.009,0,0,0,1.2.337,1.58,1.58,0,0,0,1.011-.273A.875.875,0,0,0-28.491,18.031Zm9.824,3.164a5.432,5.432,0,0,1-3.936-1.45,5.008,5.008,0,0,1-1.5-3.774V15.7a6.489,6.489,0,0,1,.6-2.861,4.395,4.395,0,0,1,1.753-1.919,5.292,5.292,0,0,1,2.734-.679A4.574,4.574,0,0,1-15.5,11.62a5.43,5.43,0,0,1,1.289,3.853v1.279h-6.543a2.372,2.372,0,0,0,.771,1.4,2.3,2.3,0,0,0,1.543.508A2.958,2.958,0,0,0-16,17.563l1.5,1.777a4.2,4.2,0,0,1-1.743,1.353A5.891,5.891,0,0,1-18.667,21.2Zm-.371-8.418q-1.445,0-1.719,1.914h3.32v-.254a1.63,1.63,0,0,0-.4-1.226A1.593,1.593,0,0,0-19.038,12.777ZM-4.438,21h-3.3V6h3.3Zm7.139.2a5.432,5.432,0,0,1-3.936-1.45,5.008,5.008,0,0,1-1.5-3.774V15.7a6.489,6.489,0,0,1,.6-2.861A4.395,4.395,0,0,1-.386,10.917a5.292,5.292,0,0,1,2.734-.679A4.574,4.574,0,0,1,5.864,11.62a5.43,5.43,0,0,1,1.289,3.853v1.279H.61a2.372,2.372,0,0,0,.771,1.4,2.3,2.3,0,0,0,1.543.508,2.958,2.958,0,0,0,2.441-1.094l1.5,1.777a4.2,4.2,0,0,1-1.743,1.353A5.891,5.891,0,0,1,2.7,21.2Zm-.371-8.418q-1.445,0-1.719,1.914h3.32v-.254a1.63,1.63,0,0,0-.4-1.226A1.593,1.593,0,0,0,2.329,12.777Zm17.52.635-1.084-.078a1.947,1.947,0,0,0-1.992.977V21H13.481V10.434h3.086l.107,1.357a2.548,2.548,0,0,1,2.314-1.553,3.209,3.209,0,0,1,.918.117ZM25.962,21.2a5.432,5.432,0,0,1-3.936-1.45,5.008,5.008,0,0,1-1.5-3.774V15.7a6.489,6.489,0,0,1,.6-2.861,4.395,4.395,0,0,1,1.753-1.919,5.292,5.292,0,0,1,2.734-.679,4.574,4.574,0,0,1,3.516,1.382,5.43,5.43,0,0,1,1.289,3.853v1.279H23.872a2.372,2.372,0,0,0,.771,1.4,2.3,2.3,0,0,0,1.543.508,2.958,2.958,0,0,0,2.441-1.094l1.5,1.777a4.2,4.2,0,0,1-1.743,1.353A5.891,5.891,0,0,1,25.962,21.2Zm-.371-8.418q-1.445,0-1.719,1.914h3.32v-.254a1.63,1.63,0,0,0-.4-1.226A1.593,1.593,0,0,0,25.591,12.777ZM37.69,21a3.716,3.716,0,0,1-.312-.947A3.06,3.06,0,0,1,34.839,21.2a3.749,3.749,0,0,1-2.539-.9,2.875,2.875,0,0,1-1.045-2.271,2.955,2.955,0,0,1,1.27-2.6,6.468,6.468,0,0,1,3.691-.879h1.016v-.559q0-1.462-1.26-1.462A1.03,1.03,0,0,0,34.8,13.681H31.509a2.95,2.95,0,0,1,1.3-2.487,5.479,5.479,0,0,1,3.325-.956,4.8,4.8,0,0,1,3.193.986,3.429,3.429,0,0,1,1.2,2.705v4.678a4.79,4.79,0,0,0,.449,2.227V21ZM35.63,18.852a1.836,1.836,0,0,0,1.021-.264,1.653,1.653,0,0,0,.581-.6V16.3h-.957q-1.719,0-1.719,1.543a.942.942,0,0,0,.3.728A1.1,1.1,0,0,0,35.63,18.852ZM45.825,21h-3.3V6h3.3Zm5.5,0h-3.3V10.434h3.3Zm-3.5-13.3a1.482,1.482,0,0,1,.508-1.159,2.149,2.149,0,0,1,2.637,0A1.482,1.482,0,0,1,51.479,7.7a1.482,1.482,0,0,1-.508,1.159,2.149,2.149,0,0,1-2.637,0A1.482,1.482,0,0,1,47.827,7.7Zm9.4,10.762h4.814V21H53.071V19.164l4.688-6.191H53.276V10.434h8.662v1.777ZM69.595,21a3.716,3.716,0,0,1-.312-.947A3.06,3.06,0,0,1,66.743,21.2a3.749,3.749,0,0,1-2.539-.9,2.875,2.875,0,0,1-1.045-2.271,2.955,2.955,0,0,1,1.27-2.6,6.468,6.468,0,0,1,3.691-.879h1.016v-.559q0-1.462-1.26-1.462A1.03,1.03,0,0,0,66.7,13.681H63.413a2.95,2.95,0,0,1,1.3-2.487,5.479,5.479,0,0,1,3.325-.956,4.8,4.8,0,0,1,3.193.986,3.429,3.429,0,0,1,1.2,2.705v4.678a4.79,4.79,0,0,0,.449,2.227V21Zm-2.061-2.148a1.836,1.836,0,0,0,1.021-.264,1.653,1.653,0,0,0,.581-.6V16.3h-.957q-1.719,0-1.719,1.543a.942.942,0,0,0,.3.728A1.1,1.1,0,0,0,67.534,18.852Z" transform="translate(800.295 8207.07)" fill="#12263f"/>
    <path id="Trazado_141856" data-name="Trazado 141856" d="M15.5,0A15.5,15.5,0,1,1,0,15.5,15.5,15.5,0,0,1,15.5,0Z" transform="translate(785.295 8057.07)" fill="#d64626"/>
    <path id="Trazado_141857" data-name="Trazado 141857" d="M2.373,0h-3.3V-10.508l-3.242.947v-2.5l6.24-2.158h.3Z" transform="translate(800.295 8080.07)" fill="#fff"/>
    <g id="preguntas" transform="translate(759.867 8058.854)">
      <g id="Grupo_82133" data-name="Grupo 82133" transform="translate(1.586 48.688)">
        <path id="Trazado_140471" data-name="Trazado 140471" d="M29.507,94.571a14.815,14.815,0,1,1,7.035-4.956l1.323,9.345Z" transform="translate(-10.043 -65.684)" fill="#d64626" fill-rule="evenodd"/>
      </g>
      <g id="Grupo_82134" data-name="Grupo 82134" transform="translate(37.162 47.093)">
        <path id="Trazado_140472" data-name="Trazado 140472" d="M243.122,67.841c4.685,3.193,10.427,4.4,19.132,4.521,2.469-1.266,6.679-3.309,5.947-16.775-13.016,5.543-24.883-4.215-28.813,4.659-4.063,2.216-4.063,6.906-4.063,12.116C238.557,71.358,240.635,70.5,243.122,67.841Z" transform="translate(-235.324 -55.587)" fill="#12263f" fill-rule="evenodd"/>
      </g>
      <g id="Grupo_82135" data-name="Grupo 82135" transform="translate(22.017 87.35)">
        <path id="Trazado_140473" data-name="Trazado 140473" d="M168.857,333.547H192.23c4.006,0,5.041-1.328,4.13-5.427-1.519-6.858-4.49-14.19-13.629-17.615l-7.6,11.659-7.088-7.741-7.088,7.741-7.6-11.659c-9.144,3.424-12.115,10.757-13.629,17.615-.91,4.1.124,5.427,4.13,5.427h25Z" transform="translate(-139.422 -310.505)" fill="#2a94ee" fill-rule="evenodd"/>
      </g>
      <g id="Grupo_82136" data-name="Grupo 82136" transform="translate(35.954 85.818)">
        <path id="Trazado_140474" data-name="Trazado 140474" d="M235.273,313.993l7.088-7.741-8.531-5.45a29.886,29.886,0,0,0-6.155,1.532Z" transform="translate(-227.675 -300.802)" fill="#e7f9e9" fill-rule="evenodd"/>
      </g>
      <g id="Grupo_82137" data-name="Grupo 82137" transform="translate(50.64 85.818)">
        <path id="Trazado_140475" data-name="Trazado 140475" d="M327.761,313.993l7.6-11.659A29.969,29.969,0,0,0,329.2,300.8l-8.531,5.45Z" transform="translate(-320.673 -300.802)" fill="#dff7f9" fill-rule="evenodd"/>
      </g>
      <g id="Grupo_82138" data-name="Grupo 82138" transform="translate(42.109 77.846)">
        <path id="Trazado_140476" data-name="Trazado 140476" d="M275.181,263.741l8.531-5.45v-7.972c-2.749,2.647-6.1,4.521-8.544,4.521s-5.773-1.865-8.518-4.495v7.946Z" transform="translate(-266.65 -250.319)" fill="#ffdcd5" fill-rule="evenodd"/>
      </g>
      <g id="Grupo_82139" data-name="Grupo 82139" transform="translate(37.162 59.347)">
        <path id="Trazado_140477" data-name="Trazado 140477" d="M257.333,151.68c2.767-2.66,4.921-6.1,4.921-9.189V137.7c-8.7-.124-14.446-1.328-19.132-4.521-2.487,2.66-4.565,3.518-7.8,4.521v4.788c0,3.1,2.167,6.551,4.947,9.216,2.744,2.629,6.084,4.495,8.518,4.495S254.584,154.327,257.333,151.68Z" transform="translate(-235.324 -133.181)" fill="#ffdcd5" fill-rule="evenodd"/>
      </g>
      <g id="Grupo_82140" data-name="Grupo 82140" transform="translate(-0.001 45.5)">
        <path id="Trazado_140478" data-name="Trazado 140478" d="M28.668,91.86a1.593,1.593,0,0,0,2.317-1.634l-1.231-8.7A16.555,16.555,0,0,0,32.8,72.5,16.412,16.412,0,0,0,19.2,55.825a16.408,16.408,0,0,0-7.84,31.782,16.57,16.57,0,0,0,9.527.17ZM5.592,79.606a13.221,13.221,0,1,1,21.237.519,1.593,1.593,0,0,0-.322,1.2l.887,6.265-5.6-2.943a1.592,1.592,0,0,0-1.24-.1A13.147,13.147,0,0,1,5.592,79.606Z" transform="translate(0.001 -53.988)"/>
        <path id="Trazado_140479" data-name="Trazado 140479" d="M75.976,95.646a4.849,4.849,0,0,0-4.843,4.844v.631a1.593,1.593,0,1,0,3.185,0v-.631a1.658,1.658,0,1,1,3.316,0v.631c0,.244-.513.858-.853,1.264a5.589,5.589,0,0,0-1.691,3.555v1.99a1.593,1.593,0,1,0,3.185,0v-1.99c0-.377.5-.98.949-1.511a5.266,5.266,0,0,0,1.6-3.308v-.631A4.849,4.849,0,0,0,75.976,95.646Z" transform="translate(-59.9 -87.727)" fill="#fff5a2"/>
        <path id="Trazado_140480" data-name="Trazado 140480" d="M97.809,201.872a1.593,1.593,0,0,0-1.593,1.593v0a1.593,1.593,0,1,0,1.593-1.6Z" transform="translate(-81.021 -177.178)" fill="#fff5a2"/>
        <path id="Trazado_140481" data-name="Trazado 140481" d="M189.428,104.621c-1.786-8.069-5.66-17.561-19.747-20.154V78.509c3.134-3.187,4.92-6.75,4.92-9.853V64.829a9.639,9.639,0,0,0,4.019-4.083c1.631-3.071,2.261-7.565,1.925-13.739a1.593,1.593,0,0,0-2.214-1.379c-5.685,2.421-11.152,1.716-15.975,1.1a26.784,26.784,0,0,0-7.79-.306,7.419,7.419,0,0,0-5.653,4.209c-4.427,2.759-4.427,8.086-4.427,13.243v4.788c0,3.111,1.8,6.686,4.947,9.88v5.93c-14.087,2.593-17.961,12.086-19.747,20.153-.4,1.8-.7,4.061.565,5.632,1.233,1.536,3.384,1.733,5.12,1.733h9.721a1.593,1.593,0,0,0,0-3.186h-9.721c-1.915,0-2.473-.339-2.636-.541s-.4-.888.061-2.949c1.367-6.175,3.88-12.623,11.462-15.982l6.877,10.551a1.592,1.592,0,0,0,1.2.718c.044,0,.087.005.13.005a1.593,1.593,0,0,0,1.175-.517l5.913-6.458,5.913,6.458a1.592,1.592,0,0,0,1.175.517c.043,0,.087,0,.13-.005a1.592,1.592,0,0,0,1.2-.718l6.877-10.551c7.582,3.359,10.1,9.807,11.462,15.983.458,2.06.234,2.731.06,2.948s-.72.541-2.636.541H160.37a1.593,1.593,0,0,0,0,3.186h23.373c1.737,0,3.888-.2,5.12-1.733,1.26-1.571.964-3.835.565-5.631ZM150.9,53.151a1.592,1.592,0,0,0,.694-.753c1.544-3.486,4.449-3.275,10.351-2.515,4.418.569,9.8,1.262,15.492-.534.065,4.411-.483,7.735-1.634,9.9a6.721,6.721,0,0,1-3.172,3.018c-8.492-.156-13.685-1.392-17.861-4.238a1.592,1.592,0,0,0-2.06.228,12.12,12.12,0,0,1-5.025,3.383C147.774,57.369,148.262,54.592,150.9,53.151Zm-3.233,15.506V65.031A15.965,15.965,0,0,0,154.1,61.38c4.308,2.592,9.512,3.8,17.318,4.046v3.231c0,2.357-1.648,5.355-4.409,8.019-2.54,2.452-5.54,4.1-7.463,4.1s-4.923-1.647-7.463-4.1C149.32,74.011,147.672,71.014,147.672,68.656Zm5.01,27.762-5.343-8.2a29.637,29.637,0,0,1,3.336-.737l6.427,4.106Zm-.063-11.473v-3.7a12.94,12.94,0,0,0,6.925,2.71A12.967,12.967,0,0,0,166.5,81.23v3.715l-6.938,4.432Zm13.814,11.473-4.421-4.829,6.427-4.106a29.631,29.631,0,0,1,3.336.737Z" transform="translate(-108.917 -45.5)"/>
        <path id="Trazado_140482" data-name="Trazado 140482" d="M268.957,446.328a1.593,1.593,0,0,0,0,3.186h.009a1.593,1.593,0,0,0-.009-3.186Z" transform="translate(-225.142 -383.029)"/>
      </g>
    </g>
    <path id="Trazado_141832" data-name="Trazado 141832" d="M211,0C327.532,0,422,94.468,422,211S327.532,422,211,422,0,327.532,0,211,94.468,0,211,0Z" transform="translate(588.295 8329.07)" fill="#dff7f9"/>
    <path id="Trazado_141839" data-name="Trazado 141839" d="M116,0A116,116,0,1,1,0,116,116,116,0,0,1,116,0Z" transform="translate(1049.295 8305.07)" fill="#f6f6f6"/>
    <path id="Trazado_141833" data-name="Trazado 141833" d="M116,0A116,116,0,1,1,0,116,116,116,0,0,1,116,0Z" transform="translate(914.295 8735.07)" fill="#f6f6f6"/>
    <path id="Trazado_141837" data-name="Trazado 141837" d="M116,0A116,116,0,1,1,0,116,116,116,0,0,1,116,0Z" transform="translate(459.295 8735.07)" fill="#f6f6f6"/>
    <path id="Trazado_141840" data-name="Trazado 141840" d="M116,0A116,116,0,1,1,0,116,116,116,0,0,1,116,0Z" transform="translate(319.295 8302.07)" fill="#f6f6f6"/>
    <path id="Trazado_141838" data-name="Trazado 141838" d="M-71.747-10.613V0h-7.541V-31.281h12.482a14.539,14.539,0,0,1,6.349,1.321,9.958,9.958,0,0,1,4.275,3.76,10.268,10.268,0,0,1,1.515,5.532,9.051,9.051,0,0,1-3.276,7.315q-3.276,2.739-8.991,2.739Zm0-5.822h4.941a4.66,4.66,0,0,0,3.341-1.1,4.071,4.071,0,0,0,1.149-3.094,5.032,5.032,0,0,0-1.182-3.5,4.184,4.184,0,0,0-3.223-1.332h-5.027Zm34.826-.258-2.385-.172q-3.416,0-4.383,2.148V0h-7.24V-23.246h6.789l.236,2.986q1.826-3.416,5.092-3.416a7.06,7.06,0,0,1,2.02.258ZM-36-11.838a13.72,13.72,0,0,1,1.354-6.2,9.679,9.679,0,0,1,3.889-4.179A11.712,11.712,0,0,1-24.8-23.676a10.689,10.689,0,0,1,8.229,3.233q3.008,3.233,3.008,8.8v.258a12.038,12.038,0,0,1-3.019,8.626A10.717,10.717,0,0,1-24.761.43a10.839,10.839,0,0,1-7.971-2.976,11.638,11.638,0,0,1-3.244-8.067Zm7.24.451a8.649,8.649,0,0,0,1.01,4.727,3.364,3.364,0,0,0,2.986,1.5q3.867,0,3.953-5.951v-.73q0-6.252-4-6.252-3.631,0-3.932,5.393ZM-.548-5.156a3.22,3.22,0,0,0,2.363-.827,3.033,3.033,0,0,0,.816-2.31H9.421A8.037,8.037,0,0,1,6.682-2.02,10.189,10.189,0,0,1-.376.43,10.316,10.316,0,0,1-8.368-2.75q-2.922-3.18-2.922-8.809v-.3a14.159,14.159,0,0,1,1.3-6.22,9.464,9.464,0,0,1,3.749-4.146,11.179,11.179,0,0,1,5.8-1.45,10.061,10.061,0,0,1,7.2,2.514,8.916,8.916,0,0,1,2.664,6.811H2.632a3.974,3.974,0,0,0-.881-2.771A3.041,3.041,0,0,0-.612-18.09q-2.814,0-3.287,3.588a25.317,25.317,0,0,0-.15,3.137q0,3.5.838,4.855A2.9,2.9,0,0,0-.548-5.156ZM23.729.43a11.95,11.95,0,0,1-8.658-3.19,11.017,11.017,0,0,1-3.309-8.3v-.6a14.276,14.276,0,0,1,1.321-6.295,9.668,9.668,0,0,1,3.856-4.222,11.642,11.642,0,0,1,6.016-1.493,10.063,10.063,0,0,1,7.734,3.04q2.836,3.04,2.836,8.476v2.814H19.132a5.218,5.218,0,0,0,1.7,3.072,5.05,5.05,0,0,0,3.395,1.117,6.507,6.507,0,0,0,5.371-2.406L32.9-3.652A9.249,9.249,0,0,1,29.068-.677,12.96,12.96,0,0,1,23.729.43Zm-.816-18.52q-3.18,0-3.781,4.211h7.3v-.559a3.586,3.586,0,0,0-.881-2.7A3.505,3.505,0,0,0,22.913-18.09Zm25.7,11.559a1.673,1.673,0,0,0-.967-1.482,14.706,14.706,0,0,0-3.674-1.16A16.753,16.753,0,0,1,39.5-10.753a7.485,7.485,0,0,1-2.686-2.374,5.669,5.669,0,0,1-.924-3.2A6.425,6.425,0,0,1,38.532-21.6a10.886,10.886,0,0,1,6.918-2.073,12.061,12.061,0,0,1,7.391,2.084,6.517,6.517,0,0,1,2.793,5.479H48.372q0-2.793-2.943-2.793a2.918,2.918,0,0,0-1.912.634,1.962,1.962,0,0,0-.773,1.579,1.8,1.8,0,0,0,.945,1.568,8.932,8.932,0,0,0,3.019.988,26.085,26.085,0,0,1,3.642.924q5.242,1.8,5.242,6.467a6.088,6.088,0,0,1-2.825,5.178,12.389,12.389,0,0,1-7.315,2A12.643,12.643,0,0,1,40.122-.645,8.91,8.91,0,0,1,36.47-3.566a6.616,6.616,0,0,1-1.311-3.889h6.768A2.8,2.8,0,0,0,43-5.1a4.419,4.419,0,0,0,2.643.741,3.476,3.476,0,0,0,2.224-.6A1.924,1.924,0,0,0,48.608-6.531Zm9.453-5.307a13.72,13.72,0,0,1,1.354-6.2A9.679,9.679,0,0,1,63.3-22.215a11.712,11.712,0,0,1,5.951-1.461,10.689,10.689,0,0,1,8.229,3.233q3.008,3.233,3.008,8.8v.258a12.038,12.038,0,0,1-3.019,8.626A10.717,10.717,0,0,1,69.3.43a10.839,10.839,0,0,1-7.971-2.976,11.638,11.638,0,0,1-3.244-8.067Zm7.24.451a8.649,8.649,0,0,0,1.01,4.727,3.364,3.364,0,0,0,2.986,1.5q3.867,0,3.953-5.951v-.73q0-6.252-4-6.252-3.631,0-3.932,5.393ZM-142.162,48V16.719h11.236q6.037,0,9.185,2.213a7.363,7.363,0,0,1,3.147,6.424,7.443,7.443,0,0,1-1.117,4.146A6.51,6.51,0,0,1-123,32.037a6.593,6.593,0,0,1,3.76,2.406,7,7,0,0,1,1.311,4.3q0,4.6-2.911,6.907T-129.465,48Zm7.541-13.3v7.5h4.941a4.7,4.7,0,0,0,3.137-.935,3.271,3.271,0,0,0,1.1-2.632q0-3.91-3.889-3.932Zm0-4.941h3.932a5.586,5.586,0,0,0,3.523-.905,3.211,3.211,0,0,0,1.053-2.607,3.372,3.372,0,0,0-1.139-2.855,6.1,6.1,0,0,0-3.674-.873h-3.7Zm31.754,18.67a11.95,11.95,0,0,1-8.658-3.19,11.017,11.017,0,0,1-3.309-8.3v-.6a14.276,14.276,0,0,1,1.321-6.295,9.668,9.668,0,0,1,3.856-4.222,11.642,11.642,0,0,1,6.016-1.493,10.063,10.063,0,0,1,7.734,3.04q2.836,3.04,2.836,8.476v2.814h-14.395a5.219,5.219,0,0,0,1.7,3.072,5.05,5.05,0,0,0,3.395,1.117A6.507,6.507,0,0,0-97,40.438l3.309,3.91a9.249,9.249,0,0,1-3.835,2.976A12.96,12.96,0,0,1-102.867,48.43Zm-.816-18.52q-3.18,0-3.781,4.211h7.3v-.559a3.586,3.586,0,0,0-.881-2.7A3.505,3.505,0,0,0-103.684,29.91Zm20.174-5.156.236,2.729a7.883,7.883,0,0,1,6.639-3.158,6.632,6.632,0,0,1,5.425,2.17q1.794,2.17,1.858,6.531V48h-7.262V33.326a3.923,3.923,0,0,0-.709-2.589A3.28,3.28,0,0,0-79.9,29.91a3.453,3.453,0,0,0-3.158,1.676V48H-90.3V24.754Zm27.994,18.09a3.22,3.22,0,0,0,2.363-.827,3.033,3.033,0,0,0,.816-2.31h6.789a8.037,8.037,0,0,1-2.739,6.273,10.189,10.189,0,0,1-7.058,2.449,10.316,10.316,0,0,1-7.992-3.18q-2.922-3.18-2.922-8.809v-.3a14.159,14.159,0,0,1,1.3-6.22,9.464,9.464,0,0,1,3.749-4.146,11.179,11.179,0,0,1,5.8-1.45,10.061,10.061,0,0,1,7.2,2.514,8.916,8.916,0,0,1,2.664,6.811h-6.789a3.974,3.974,0,0,0-.881-2.771,3.041,3.041,0,0,0-2.363-.967q-2.814,0-3.287,3.588a25.317,25.317,0,0,0-.15,3.137q0,3.5.838,4.855A2.9,2.9,0,0,0-55.516,42.844Zm20.109-15.6a7.246,7.246,0,0,1,5.93-2.922,7.225,7.225,0,0,1,5.8,2.277q1.955,2.277,2,6.725V48h-7.262V33.5a4.092,4.092,0,0,0-.752-2.718,3.231,3.231,0,0,0-2.557-.87,3.48,3.48,0,0,0-3.158,1.418V48h-7.24V15h7.24Zm24.6-2.492.236,2.729a7.993,7.993,0,0,1,6.639-3.158q4.4,0,5.951,3.5a7.736,7.736,0,0,1,6.832-3.5q7.068,0,7.262,8.551V48H8.852V33.326a4.432,4.432,0,0,0-.6-2.6,2.561,2.561,0,0,0-2.191-.816,3.43,3.43,0,0,0-3.2,1.912l.021.3V48H-4.383V33.369a4.658,4.658,0,0,0-.58-2.643,2.553,2.553,0,0,0-2.213-.816,3.472,3.472,0,0,0-3.18,1.912V48H-17.6V24.754ZM33.344,48a8.175,8.175,0,0,1-.687-2.084A6.732,6.732,0,0,1,27.07,48.43a8.248,8.248,0,0,1-5.586-1.987,6.326,6.326,0,0,1-2.3-5,6.5,6.5,0,0,1,2.793-5.715Q24.771,33.8,30.1,33.8h2.234V32.568q0-3.217-2.771-3.217A2.265,2.265,0,0,0,26.984,31.9h-7.24a6.49,6.49,0,0,1,2.868-5.472,12.053,12.053,0,0,1,7.315-2.1,10.568,10.568,0,0,1,7.025,2.17A7.544,7.544,0,0,1,39.6,32.445V42.736a10.539,10.539,0,0,0,.988,4.9V48Zm-4.533-4.727a4.039,4.039,0,0,0,2.245-.58,3.636,3.636,0,0,0,1.278-1.311V37.666H30.229q-3.781,0-3.781,3.395a2.073,2.073,0,0,0,.666,1.6A2.41,2.41,0,0,0,28.811,43.273ZM57.664,31.307l-2.385-.172q-3.416,0-4.383,2.148V48h-7.24V24.754h6.789l.236,2.986q1.826-3.416,5.092-3.416a7.06,7.06,0,0,1,2.02.258Zm11.945,8.035-2.041,2.041V48h-7.24V14.979h7.24V32.51l.73-.967,5.457-6.789h8.68l-8.143,9.561L82.973,48H74.68ZM91.975,48H84.713V24.754h7.262ZM84.283,18.738A3.26,3.26,0,0,1,85.4,16.188a4.727,4.727,0,0,1,5.8,0,3.47,3.47,0,0,1,0,5.1,4.727,4.727,0,0,1-5.8,0A3.26,3.26,0,0,1,84.283,18.738Zm18.8,6.016.236,2.729a7.883,7.883,0,0,1,6.639-3.158,6.632,6.632,0,0,1,5.425,2.17q1.794,2.17,1.858,6.531V48h-7.262V33.326a3.923,3.923,0,0,0-.709-2.589,3.28,3.28,0,0,0-2.578-.827,3.453,3.453,0,0,0-3.158,1.676V48h-7.24V24.754ZM120.4,36.205a15.7,15.7,0,0,1,1.16-6.23,9.34,9.34,0,0,1,3.33-4.179,8.778,8.778,0,0,1,5.049-1.472,6.98,6.98,0,0,1,5.672,2.449l.258-2.02h6.574V47.119a9.8,9.8,0,0,1-1.429,5.339,9.167,9.167,0,0,1-4.136,3.48,15.2,15.2,0,0,1-6.273,1.214,13.115,13.115,0,0,1-4.952-.967,8.939,8.939,0,0,1-3.663-2.514l3.029-4.254a6.639,6.639,0,0,0,5.328,2.385q4.812,0,4.813-4.941v-.73a6.8,6.8,0,0,1-5.264,2.3,8.4,8.4,0,0,1-6.875-3.255Q120.4,41.92,120.4,36.463Zm7.262.451a8.27,8.27,0,0,0,1.074,4.522,3.389,3.389,0,0,0,3.008,1.665,3.845,3.845,0,0,0,3.416-1.568V31.5a3.749,3.749,0,0,0-3.373-1.59,3.412,3.412,0,0,0-3.029,1.729A9.431,9.431,0,0,0,127.66,36.656Z" transform="translate(799.295 8601.07)" fill="#12263f"/>
    <g id="bar-chart" transform="translate(727.007 8375.782)">
      <path id="Trazado_140401" data-name="Trazado 140401" d="M130.477,269.7v32.711H110.934V273l.806-9.112.683-7.891a28.938,28.938,0,0,0,4.642,6.082,29.86,29.86,0,0,0,6.083,4.667,27.212,27.212,0,0,0,4.445,2.052,7.742,7.742,0,0,0,1.051.367C129.256,269.362,129.866,269.558,130.477,269.7Zm0,0" transform="translate(-79.175 -182.712)" fill="#fed947"/>
      <path id="Trazado_140403" data-name="Trazado 140403" d="M213.332,392.535h19.544v31.757H213.332Zm0,0" transform="translate(-152.259 -280.16)" fill="#20287a"/>
      <path id="Trazado_140404" data-name="Trazado 140404" d="M232.876,272.555V306.9H213.332V282.351a29.272,29.272,0,0,0,12.215-3.811,28.866,28.866,0,0,0,6.082-4.642C232.07,273.458,232.485,273.019,232.876,272.555Zm0,0" transform="translate(-152.259 -194.527)" fill="#20287a"/>
      <path id="Trazado_140407" data-name="Trazado 140407" d="M315.734,204.8h19.543v85.5H315.734Zm0,0" transform="translate(-225.345 -146.17)" fill="#97181a"/>
      <path id="Trazado_140408" data-name="Trazado 140408" d="M335.278,13.421v51.3H315.734v-51.3a4.9,4.9,0,0,1,4.886-4.886h9.772A4.9,4.9,0,0,1,335.278,13.421Zm0,0" transform="translate(-225.345 -6.092)" fill="#97181a"/>
      <path id="Trazado_140411" data-name="Trazado 140411" d="M294.467,280.648l4.2,4.2a4.9,4.9,0,0,1,0,6.91l-6.91,6.91a4.9,4.9,0,0,1-6.91,0l-4.2-4.2Zm0,0" transform="translate(-200.304 -200.304)" fill="#afafaf"/>
      <path id="Trazado_140412" data-name="Trazado 140412" d="M319.445,326.355l6.91-6.91,8.637,8.638-6.909,6.909Zm0,0" transform="translate(-227.994 -227.994)" fill="#707070"/>
      <path id="Trazado_140413" data-name="Trazado 140413" d="M389.238,378.879l-10.359,10.359a2.426,2.426,0,0,1-2.492.586,2.155,2.155,0,0,1-.977-.586l-6.913-6.913-3.444-3.445-17.272-17.271-1.734-1.734a4.895,4.895,0,0,1,0-6.913l6.914-6.914a4.895,4.895,0,0,1,6.913,0l1.71,1.734h.025l3.444,3.445L368.5,354.7h.025l10.358,10.358,3.445,3.444,3.444,3.444v.025l3.469,3.444A2.462,2.462,0,0,1,389.238,378.879Zm0,0" transform="translate(-245.96 -245.96)" fill="#afafaf"/>
      <path id="Trazado_140415" data-name="Trazado 140415" d="M8.535,392.535H28.078v31.757H8.535Zm0,0" transform="translate(-6.092 -280.16)" fill="#d64626"/>
      <path id="Trazado_140416" data-name="Trazado 140416" d="M28.078,346.218v9.773H8.535v-9.773a4.9,4.9,0,0,1,4.886-4.886h9.772A4.9,4.9,0,0,1,28.078,346.218Zm0,0" transform="translate(-6.092 -243.615)" fill="#d64626"/>
      <path id="Trazado_140419" data-name="Trazado 140419" d="M110.934,418.133h19.543v24.429H110.934Zm0,0" transform="translate(-79.175 -298.429)" fill="#fed947"/>
      <path id="Trazado_140420" data-name="Trazado 140420" d="M130.667,130.649a41.391,41.391,0,1,1,12.22-29.364A41.522,41.522,0,0,1,130.667,130.649Zm0,0" transform="translate(-42.672 -42.654)" fill="#707070"/>
      <path id="Trazado_140421" data-name="Trazado 140421" d="M123.3,131.055A41.215,41.215,0,0,1,97.6,143.05a41.52,41.52,0,0,1,0-82.717,41.519,41.519,0,0,1,25.7,70.723Zm0,0" transform="translate(-42.636 -43.06)" fill="#9e9e9e"/>
      <path id="Trazado_140422" data-name="Trazado 140422" d="M153.789,151.237V134.283a4.587,4.587,0,0,0-.074-.83A4.9,4.9,0,0,0,148.9,129.4H139.13a4.9,4.9,0,0,0-4.886,4.886v26.751a29.456,29.456,0,0,1-7.328-.318,21.65,21.65,0,0,1-2.443-.513v-8.819a4.9,4.9,0,0,0-4.886-4.886H106.419a28.251,28.251,0,0,1-2.785-6.645,29.291,29.291,0,1,1,50.154,11.384Zm0,0" transform="translate(-73.172 -73.21)" fill="#2a94ee"/>
      <path id="Trazado_140424" data-name="Trazado 140424" d="M134.19,260.886V269.7a29.184,29.184,0,0,1-7.328-2.956,29.86,29.86,0,0,1-6.083-4.667A28.939,28.939,0,0,1,116.137,256H129.3A4.9,4.9,0,0,1,134.19,260.886Zm0,0" transform="translate(-82.889 -182.712)" fill="#fed947"/>
      <path id="Trazado_140427" data-name="Trazado 140427" d="M232.876,201.151v16.954c-.391.464-.806.9-1.247,1.343a28.865,28.865,0,0,1-6.082,4.642,29.272,29.272,0,0,1-12.215,3.811V201.151a4.9,4.9,0,0,1,4.886-4.886h9.773A4.9,4.9,0,0,1,232.876,201.151Zm0,0" transform="translate(-152.259 -140.078)" fill="#20287a"/>
      <path id="Trazado_140428" data-name="Trazado 140428" d="M194.219,304.116a30.437,30.437,0,0,0,3.615-.757A25.55,25.55,0,0,1,194.219,304.116Zm0,0" transform="translate(-138.617 -216.513)" fill="#6a1b9a"/>
      <path id="Trazado_140430" data-name="Trazado 140430" d="M282.145,296.377a7.284,7.284,0,0,1-5.182-2.14l-4.2-4.2a2.443,2.443,0,1,1,3.454-3.454l4.2,4.2a2.516,2.516,0,0,0,3.453,0l6.912-6.91a2.448,2.448,0,0,0,0-3.455l-4.2-4.2a2.443,2.443,0,1,1,3.454-3.454l4.2,4.2a7.343,7.343,0,0,1,0,10.365l-6.911,6.91A7.278,7.278,0,0,1,282.145,296.377Zm0,0" transform="translate(-194.149 -194.146)"/>
      <path id="Trazado_140431" data-name="Trazado 140431" d="M321.991,331.346a2.436,2.436,0,0,1-1.728-.715l-8.639-8.637a2.445,2.445,0,0,1,0-3.454l6.912-6.91a2.443,2.443,0,0,1,3.454,0l8.637,8.637a2.443,2.443,0,1,1-3.456,3.454l-6.909-6.91-3.457,3.456,6.911,6.909a2.442,2.442,0,0,1-1.727,4.17Zm0,0" transform="translate(-221.902 -221.906)"/>
      <path id="Trazado_140432" data-name="Trazado 140432" d="M371.063,386.474a4.873,4.873,0,0,1-3.454-1.427L338.243,355.68a7.337,7.337,0,0,1,0-10.364l6.91-6.909a7.5,7.5,0,0,1,10.365,0l29.364,29.364a4.891,4.891,0,0,1,0,6.91l-10.365,10.364A4.871,4.871,0,0,1,371.063,386.474Zm-20.73-45.33a2.435,2.435,0,0,0-1.727.716l-6.91,6.91a2.448,2.448,0,0,0,0,3.455l29.364,29.366,10.369-10.366L352.061,341.86A2.426,2.426,0,0,0,350.333,341.145Zm0,0" transform="translate(-239.881 -240.045)"/>
      <path id="Trazado_140433" data-name="Trazado 140433" d="M355.594,393.453a2.443,2.443,0,0,1-1.728-4.17l5.182-5.182a2.443,2.443,0,0,1,3.454,3.454l-5.182,5.182A2.439,2.439,0,0,1,355.594,393.453Zm0,0" transform="translate(-252.051 -273.648)"/>
      <path id="Trazado_140434" data-name="Trazado 140434" d="M397.836,359.7a2.443,2.443,0,0,1-1.728-4.17l1.728-1.728a2.443,2.443,0,1,1,3.454,3.454l-1.728,1.728A2.434,2.434,0,0,1,397.836,359.7Zm0,0" transform="translate(-282.2 -251.983)"/>
      <path id="Trazado_140435" data-name="Trazado 140435" d="M379.727,417.468A2.443,2.443,0,0,1,378,413.3l5.183-5.183a2.443,2.443,0,1,1,3.454,3.454l-5.183,5.183A2.435,2.435,0,0,1,379.727,417.468Zm0,0" transform="translate(-269.275 -290.752)"/>
      <path id="Trazado_140436" data-name="Trazado 140436" d="M421.969,383.963a2.443,2.443,0,0,1-1.728-4.17l1.728-1.727a2.443,2.443,0,0,1,3.454,3.454l-1.728,1.727A2.43,2.43,0,0,1,421.969,383.963Zm0,0" transform="translate(-299.424 -269.34)"/>
      <path id="Trazado_140437" data-name="Trazado 140437" d="M403.87,441.724a2.443,2.443,0,0,1-1.727-4.17l5.181-5.182a2.443,2.443,0,0,1,3.454,3.454l-5.181,5.182A2.431,2.431,0,0,1,403.87,441.724Zm0,0" transform="translate(-286.506 -308.1)"/>
      <path id="Trazado_140438" data-name="Trazado 140438" d="M446.1,407.969a2.442,2.442,0,0,1-1.727-4.17l1.727-1.727a2.443,2.443,0,1,1,3.454,3.454l-1.727,1.727A2.432,2.432,0,0,1,446.1,407.969Zm0,0" transform="translate(-316.648 -286.436)"/>
      <path id="Trazado_140439" data-name="Trazado 140439" d="M428,465.732a2.442,2.442,0,0,1-1.727-4.17l5.181-5.181a2.443,2.443,0,1,1,3.454,3.454l-5.181,5.181A2.431,2.431,0,0,1,428,465.732Zm0,0" transform="translate(-303.728 -325.198)"/>
      <path id="Trazado_140440" data-name="Trazado 140440" d="M470.232,432.169A2.442,2.442,0,0,1,468.505,428l1.729-1.727a2.443,2.443,0,1,1,3.454,3.457l-1.729,1.728A2.442,2.442,0,0,1,470.232,432.169Zm0,0" transform="translate(-333.869 -303.727)"/>
      <path id="Trazado_140441" data-name="Trazado 140441" d="M95.187,139.115a43.952,43.952,0,1,1,40.634-27.13A43.962,43.962,0,0,1,95.187,139.115Zm0-83.022a39.056,39.056,0,1,0,27.638,11.43A39.055,39.055,0,0,0,95.187,56.094Zm0,0" transform="translate(-36.556 -36.533)"/>
      <path id="Trazado_140442" data-name="Trazado 140442" d="M125.7,157.4a31.744,31.744,0,1,1,22.456-9.287A31.745,31.745,0,0,1,125.7,157.4Zm0-58.6a26.859,26.859,0,1,0,19,7.858A26.859,26.859,0,0,0,125.7,98.793Zm0,0" transform="translate(-67.073 -67.022)"/>
      <path id="Trazado_140443" data-name="Trazado 140443" d="M21.987,384.1H2.443A2.443,2.443,0,0,1,0,381.659v-41.53A7.337,7.337,0,0,1,7.329,332.8H17.1a7.336,7.336,0,0,1,7.328,7.328v41.53A2.443,2.443,0,0,1,21.987,384.1Zm-17.1-4.886H19.543V340.129a2.444,2.444,0,0,0-2.442-2.442H7.329a2.445,2.445,0,0,0-2.443,2.442Zm0,0" transform="translate(0 -237.526)"/>
      <path id="Trazado_140444" data-name="Trazado 140444" d="M128.1,266.056a2.443,2.443,0,0,1-2.442-2.443v-8.819a2.445,2.445,0,0,0-2.443-2.442H110.048a2.443,2.443,0,0,1,0-4.887h13.168a7.337,7.337,0,0,1,7.329,7.329v8.819A2.443,2.443,0,0,1,128.1,266.056Zm0,0" transform="translate(-76.8 -176.62)"/>
      <path id="Trazado_140445" data-name="Trazado 140445" d="M124.385,365.587H104.842a2.443,2.443,0,0,1-2.443-2.443V309.3a2.443,2.443,0,0,1,4.886,0v51.4h14.659v-42.19a2.443,2.443,0,0,1,4.886,0v44.632A2.443,2.443,0,0,1,124.385,365.587Zm0,0" transform="translate(-73.084 -219.011)"/>
      <path id="Trazado_140446" data-name="Trazado 140446" d="M207.243,224.257a2.444,2.444,0,0,1-2.442-2.443V195.063a7.337,7.337,0,0,1,7.328-7.328H221.9a7.337,7.337,0,0,1,7.328,7.328v16.954a2.443,2.443,0,1,1-4.886,0V195.063a2.444,2.444,0,0,0-2.442-2.442h-9.773a2.444,2.444,0,0,0-2.442,2.442v26.751A2.444,2.444,0,0,1,207.243,224.257Zm0,0" transform="translate(-146.17 -133.989)"/>
      <path id="Trazado_140447" data-name="Trazado 140447" d="M226.787,374.478H207.243a2.443,2.443,0,0,1-2.442-2.443V327.989a2.443,2.443,0,0,1,4.886,0v41.6h14.657V321.76a2.443,2.443,0,1,1,4.886,0v50.275A2.443,2.443,0,0,1,226.787,374.478Zm0,0" transform="translate(-146.17 -227.902)"/>
      <path id="Trazado_140448" data-name="Trazado 140448" d="M329.186,387.7H309.643a2.443,2.443,0,0,1-2.443-2.443V340.278a2.443,2.443,0,0,1,4.886,0V382.81h14.657V364.878a2.443,2.443,0,0,1,4.887,0v20.374A2.444,2.444,0,0,1,329.186,387.7Zm0,0" transform="translate(-219.254 -241.12)"/>
      <path id="Trazado_140449" data-name="Trazado 140449" d="M329.186,101.138a2.444,2.444,0,0,1-2.443-2.443V7.329A2.445,2.445,0,0,0,324.3,4.886h-9.772a2.446,2.446,0,0,0-2.443,2.443V31.88a2.443,2.443,0,1,1-4.886,0V7.329A7.337,7.337,0,0,1,314.528,0H324.3a7.337,7.337,0,0,1,7.329,7.329V98.694A2.444,2.444,0,0,1,329.186,101.138Zm0,0" transform="translate(-219.254)"/>
      <path id="Trazado_140450" data-name="Trazado 140450" d="M144.133,499.819H2.443a2.443,2.443,0,1,1,0-4.886H144.133a2.443,2.443,0,1,1,0,4.886Zm0,0" transform="translate(0 -353.243)"/>
      <path id="Trazado_140451" data-name="Trazado 140451" d="M21.987,388.886H2.443a2.443,2.443,0,1,1,0-4.886H21.987a2.443,2.443,0,0,1,0,4.886Zm0,0" transform="translate(0 -274.068)"/>
      <path id="Trazado_140452" data-name="Trazado 140452" d="M124.385,414.487H104.842a2.443,2.443,0,1,1,0-4.886h19.543a2.443,2.443,0,1,1,0,4.886Zm0,0" transform="translate(-73.084 -292.34)"/>
      <path id="Trazado_140453" data-name="Trazado 140453" d="M226.787,388.886H207.243a2.443,2.443,0,0,1,0-4.886h19.544a2.443,2.443,0,0,1,0,4.886Zm0,0" transform="translate(-146.17 -274.068)"/>
      <path id="Trazado_140454" data-name="Trazado 140454" d="M353.547,201.151h-9.772a2.443,2.443,0,1,1,0-4.886h9.772a2.443,2.443,0,1,1,0,4.886Zm0,0" transform="translate(-243.615 -140.078)"/>
      <path id="Trazado_140455" data-name="Trazado 140455" d="M430.348,21.952h-9.772a2.443,2.443,0,1,1,0-4.886h9.772a2.443,2.443,0,0,1,0,4.886Zm0,0" transform="translate(-298.429 -12.181)"/>
      <path id="Trazado_140456" data-name="Trazado 140456" d="M491.284,21.952h-2.442a2.443,2.443,0,1,1,0-4.886h2.442a2.443,2.443,0,1,1,0,4.886Zm0,0" transform="translate(-347.151 -12.181)"/>
      <path id="Trazado_140457" data-name="Trazado 140457" d="M430.348,64.62h-9.772a2.443,2.443,0,1,1,0-4.886h9.772a2.443,2.443,0,0,1,0,4.886Zm0,0" transform="translate(-298.429 -42.634)"/>
      <path id="Trazado_140458" data-name="Trazado 140458" d="M491.284,64.62h-2.442a2.443,2.443,0,1,1,0-4.886h2.442a2.443,2.443,0,1,1,0,4.886Zm0,0" transform="translate(-347.151 -42.634)"/>
      <path id="Trazado_140459" data-name="Trazado 140459" d="M430.348,107.284h-9.772a2.443,2.443,0,1,1,0-4.886h9.772a2.443,2.443,0,0,1,0,4.886Zm0,0" transform="translate(-298.429 -73.084)"/>
      <path id="Trazado_140460" data-name="Trazado 140460" d="M491.284,107.284h-2.442a2.443,2.443,0,1,1,0-4.886h2.442a2.443,2.443,0,1,1,0,4.886Zm0,0" transform="translate(-347.151 -73.084)"/>
      <path id="Trazado_140461" data-name="Trazado 140461" d="M430.348,149.952h-9.772a2.443,2.443,0,1,1,0-4.886h9.772a2.443,2.443,0,0,1,0,4.886Zm0,0" transform="translate(-298.429 -103.537)"/>
      <path id="Trazado_140462" data-name="Trazado 140462" d="M491.284,149.952h-2.442a2.443,2.443,0,1,1,0-4.886h2.442a2.443,2.443,0,1,1,0,4.886Zm0,0" transform="translate(-347.151 -103.537)"/>
      <path id="Trazado_140463" data-name="Trazado 140463" d="M430.348,192.62h-9.772a2.443,2.443,0,1,1,0-4.886h9.772a2.443,2.443,0,0,1,0,4.886Zm0,0" transform="translate(-298.429 -133.989)"/>
      <path id="Trazado_140464" data-name="Trazado 140464" d="M491.284,192.62h-2.442a2.443,2.443,0,1,1,0-4.886h2.442a2.443,2.443,0,1,1,0,4.886Zm0,0" transform="translate(-347.151 -133.989)"/>
      <path id="Trazado_140465" data-name="Trazado 140465" d="M430.348,235.284h-9.772a2.443,2.443,0,1,1,0-4.886h9.772a2.443,2.443,0,0,1,0,4.886Zm0,0" transform="translate(-298.429 -164.44)"/>
      <path id="Trazado_140466" data-name="Trazado 140466" d="M491.284,235.284h-2.442a2.443,2.443,0,1,1,0-4.886h2.442a2.443,2.443,0,1,1,0,4.886Zm0,0" transform="translate(-347.151 -164.44)"/>
      <path id="Trazado_140467" data-name="Trazado 140467" d="M430.348,277.952h-9.772a2.443,2.443,0,1,1,0-4.886h9.772a2.443,2.443,0,0,1,0,4.886Zm0,0" transform="translate(-298.429 -194.893)"/>
      <path id="Trazado_140468" data-name="Trazado 140468" d="M491.284,277.952h-2.442a2.443,2.443,0,1,1,0-4.886h2.442a2.443,2.443,0,1,1,0,4.886Zm0,0" transform="translate(-347.151 -194.893)"/>
      <path id="Trazado_140469" data-name="Trazado 140469" d="M430.348,320.62h-9.772a2.443,2.443,0,1,1,0-4.886h9.772a2.443,2.443,0,0,1,0,4.886Zm0,0" transform="translate(-298.429 -225.345)"/>
      <path id="Trazado_140470" data-name="Trazado 140470" d="M491.284,320.62h-2.442a2.443,2.443,0,1,1,0-4.886h2.442a2.443,2.443,0,1,1,0,4.886Zm0,0" transform="translate(-347.151 -225.345)"/>
    </g>
    <path id="Trazado_141841" data-name="Trazado 141841" d="M-33.135-5.664h-5.527V0H-42.09V-14.219h9.512v2.646h-6.084V-8.3h5.527Zm1.211.283A6.236,6.236,0,0,1-31.309-8.2a4.4,4.4,0,0,1,1.768-1.9,5.323,5.323,0,0,1,2.705-.664,4.858,4.858,0,0,1,3.74,1.47,5.64,5.64,0,0,1,1.367,4v.117A5.472,5.472,0,0,1-23.1-1.255,4.871,4.871,0,0,1-26.816.2a4.927,4.927,0,0,1-3.623-1.353,5.29,5.29,0,0,1-1.475-3.667Zm3.291.205a3.932,3.932,0,0,0,.459,2.148,1.529,1.529,0,0,0,1.357.684q1.758,0,1.8-2.705v-.332q0-2.842-1.816-2.842-1.65,0-1.787,2.451Zm14.746-2.412-1.084-.078a1.947,1.947,0,0,0-1.992.977V0h-3.291V-10.566h3.086l.107,1.357a2.548,2.548,0,0,1,2.314-1.553,3.209,3.209,0,0,1,.918.117Zm4.3-2.979.107,1.24a3.633,3.633,0,0,1,3.018-1.436A2.675,2.675,0,0,1-3.76-9.17,3.517,3.517,0,0,1-.654-10.762q3.213,0,3.3,3.887V0h-3.3V-6.67A2.014,2.014,0,0,0-.928-7.852a1.164,1.164,0,0,0-1-.371,1.559,1.559,0,0,0-1.455.869l.01.137V0h-3.3V-6.65a2.117,2.117,0,0,0-.264-1.2,1.161,1.161,0,0,0-1.006-.371,1.578,1.578,0,0,0-1.445.869V0h-3.291V-10.566ZM10.479,0a3.716,3.716,0,0,1-.312-.947A3.06,3.06,0,0,1,7.627.2a3.749,3.749,0,0,1-2.539-.9A2.875,2.875,0,0,1,4.043-2.979a2.955,2.955,0,0,1,1.27-2.6A6.468,6.468,0,0,1,9-6.455H10.02v-.559q0-1.462-1.26-1.462A1.03,1.03,0,0,0,7.588-7.319H4.3A2.95,2.95,0,0,1,5.6-9.806a5.479,5.479,0,0,1,3.325-.956,4.8,4.8,0,0,1,3.193.986,3.429,3.429,0,0,1,1.2,2.705v4.678A4.79,4.79,0,0,0,13.77-.166V0ZM8.418-2.148a1.836,1.836,0,0,0,1.021-.264,1.653,1.653,0,0,0,.581-.6V-4.7H9.063q-1.719,0-1.719,1.543a.942.942,0,0,0,.3.728A1.1,1.1,0,0,0,8.418-2.148ZM21.533-7.588l-1.084-.078a1.947,1.947,0,0,0-1.992.977V0H15.166V-10.566h3.086l.107,1.357a2.548,2.548,0,0,1,2.314-1.553,3.209,3.209,0,0,1,.918.117ZM32.813.2a5.432,5.432,0,0,1-3.936-1.45,5.008,5.008,0,0,1-1.5-3.774V-5.3a6.489,6.489,0,0,1,.6-2.861,4.395,4.395,0,0,1,1.753-1.919,5.292,5.292,0,0,1,2.734-.679A4.574,4.574,0,0,1,35.977-9.38a5.43,5.43,0,0,1,1.289,3.853v1.279H30.723a2.372,2.372,0,0,0,.771,1.4,2.3,2.3,0,0,0,1.543.508,2.958,2.958,0,0,0,2.441-1.094l1.5,1.777A4.2,4.2,0,0,1,35.239-.308,5.891,5.891,0,0,1,32.813.2Zm-.371-8.418q-1.445,0-1.719,1.914h3.32v-.254a1.63,1.63,0,0,0-.4-1.226A1.593,1.593,0,0,0,32.441-8.223ZM42.061,0h-3.3V-15h3.3ZM-24.663,25.2a5.432,5.432,0,0,1-3.936-1.45,5.008,5.008,0,0,1-1.5-3.774V19.7a6.489,6.489,0,0,1,.6-2.861,4.395,4.395,0,0,1,1.753-1.919,5.292,5.292,0,0,1,2.734-.679A4.574,4.574,0,0,1-21.5,15.62a5.43,5.43,0,0,1,1.289,3.853v1.279h-6.543a2.372,2.372,0,0,0,.771,1.4,2.3,2.3,0,0,0,1.543.508A2.958,2.958,0,0,0-22,21.563l1.5,1.777a4.2,4.2,0,0,1-1.743,1.353A5.891,5.891,0,0,1-24.663,25.2Zm-.371-8.418q-1.445,0-1.719,1.914h3.32v-.254a1.63,1.63,0,0,0-.4-1.226A1.593,1.593,0,0,0-25.034,16.777Zm5.732,2.832a6.343,6.343,0,0,1,1.094-3.945,3.592,3.592,0,0,1,3.018-1.426,3.068,3.068,0,0,1,2.6,1.328l.234-1.133h2.852V29.063h-3.3V24.121a3.063,3.063,0,0,1-2.4,1.074,3.561,3.561,0,0,1-2.983-1.45A6.7,6.7,0,0,1-19.3,19.609Zm3.291.205q0,2.842,1.641,2.842a1.589,1.589,0,0,0,1.563-.859v-4.18a1.555,1.555,0,0,0-1.543-.84q-1.533,0-1.65,2.451Zm14.658,4.043A3.393,3.393,0,0,1-4.175,25.2a3.328,3.328,0,0,1-2.632-1.011A4.251,4.251,0,0,1-7.7,21.279V14.434h3.291V21.3a1.183,1.183,0,0,0,1.318,1.357,1.72,1.72,0,0,0,1.611-.811V14.434H1.831V25H-1.255ZM7.1,25H3.8V14.434H7.1Zm-3.5-13.3a1.482,1.482,0,0,1,.508-1.159,1.909,1.909,0,0,1,1.318-.452,1.909,1.909,0,0,1,1.318.452,1.577,1.577,0,0,1,0,2.319,1.909,1.909,0,0,1-1.318.452,1.909,1.909,0,0,1-1.318-.452A1.482,1.482,0,0,1,3.608,11.7Zm15.332,8.1a6.372,6.372,0,0,1-1.108,3.931,3.554,3.554,0,0,1-2.993,1.47,3.046,3.046,0,0,1-2.393-1.064v4.932H9.155V14.434h3.076l.1.977a3.046,3.046,0,0,1,2.49-1.172,3.582,3.582,0,0,1,3.037,1.44,6.45,6.45,0,0,1,1.084,3.96Zm-3.291-.205q0-2.812-1.641-2.812a1.549,1.549,0,0,0-1.562.84v4.16a1.6,1.6,0,0,0,1.582.879q1.572,0,1.621-2.715Zm4.326.029a6.236,6.236,0,0,1,.615-2.817,4.4,4.4,0,0,1,1.768-1.9,5.323,5.323,0,0,1,2.705-.664,4.858,4.858,0,0,1,3.74,1.47,5.64,5.64,0,0,1,1.367,4v.117A5.472,5.472,0,0,1,28.8,23.745a4.871,4.871,0,0,1-3.716,1.45,4.927,4.927,0,0,1-3.623-1.353,5.29,5.29,0,0,1-1.475-3.667Zm3.291.205a3.932,3.932,0,0,0,.459,2.148,1.529,1.529,0,0,0,1.357.684q1.758,0,1.8-2.705v-.332q0-2.842-1.816-2.842-1.65,0-1.787,2.451Z" transform="translate(1165.295 8471.07)" fill="#12263f"/>
    <path id="Trazado_141842" data-name="Trazado 141842" d="M15.5,0A15.5,15.5,0,1,1,0,15.5,15.5,15.5,0,0,1,15.5,0Z" transform="translate(1150.295 8323.07)" fill="#d64626"/>
    <path id="Trazado_141843" data-name="Trazado 141843" d="M5,0H-4.922V-2.148l4.57-4.8Q1.338-8.877,1.338-10.01a2.126,2.126,0,0,0-.4-1.4,1.43,1.43,0,0,0-1.162-.479,1.447,1.447,0,0,0-1.221.64,2.629,2.629,0,0,0-.469,1.6h-3.3a4.67,4.67,0,0,1,.654-2.417A4.588,4.588,0,0,1-2.744-13.8a5.4,5.4,0,0,1,2.6-.625A5.308,5.308,0,0,1,3.4-13.359,3.8,3.8,0,0,1,4.648-10.3a4.439,4.439,0,0,1-.312,1.636A7.173,7.173,0,0,1,3.364-7,24.477,24.477,0,0,1,1.24-4.658L-.6-2.539H5Z" transform="translate(1165.295 8346.07)" fill="#fff"/>
    <path id="Trazado_141844" data-name="Trazado 141844" d="M116,0A116,116,0,1,1,0,116,116,116,0,0,1,116,0Z" transform="translate(1049.295 8305.07)" fill="#f6f6f6"/>
    <path id="Trazado_141845" data-name="Trazado 141845" d="M-33.135-5.664h-5.527V0H-42.09V-14.219h9.512v2.646h-6.084V-8.3h5.527Zm1.211.283A6.236,6.236,0,0,1-31.309-8.2a4.4,4.4,0,0,1,1.768-1.9,5.323,5.323,0,0,1,2.705-.664,4.858,4.858,0,0,1,3.74,1.47,5.64,5.64,0,0,1,1.367,4v.117A5.472,5.472,0,0,1-23.1-1.255,4.871,4.871,0,0,1-26.816.2a4.927,4.927,0,0,1-3.623-1.353,5.29,5.29,0,0,1-1.475-3.667Zm3.291.205a3.932,3.932,0,0,0,.459,2.148,1.529,1.529,0,0,0,1.357.684q1.758,0,1.8-2.705v-.332q0-2.842-1.816-2.842-1.65,0-1.787,2.451Zm14.746-2.412-1.084-.078a1.947,1.947,0,0,0-1.992.977V0h-3.291V-10.566h3.086l.107,1.357a2.548,2.548,0,0,1,2.314-1.553,3.209,3.209,0,0,1,.918.117Zm4.3-2.979.107,1.24a3.633,3.633,0,0,1,3.018-1.436A2.675,2.675,0,0,1-3.76-9.17,3.517,3.517,0,0,1-.654-10.762q3.213,0,3.3,3.887V0h-3.3V-6.67A2.014,2.014,0,0,0-.928-7.852a1.164,1.164,0,0,0-1-.371,1.559,1.559,0,0,0-1.455.869l.01.137V0h-3.3V-6.65a2.117,2.117,0,0,0-.264-1.2,1.161,1.161,0,0,0-1.006-.371,1.578,1.578,0,0,0-1.445.869V0h-3.291V-10.566ZM10.479,0a3.716,3.716,0,0,1-.312-.947A3.06,3.06,0,0,1,7.627.2a3.749,3.749,0,0,1-2.539-.9A2.875,2.875,0,0,1,4.043-2.979a2.955,2.955,0,0,1,1.27-2.6A6.468,6.468,0,0,1,9-6.455H10.02v-.559q0-1.462-1.26-1.462A1.03,1.03,0,0,0,7.588-7.319H4.3A2.95,2.95,0,0,1,5.6-9.806a5.479,5.479,0,0,1,3.325-.956,4.8,4.8,0,0,1,3.193.986,3.429,3.429,0,0,1,1.2,2.705v4.678A4.79,4.79,0,0,0,13.77-.166V0ZM8.418-2.148a1.836,1.836,0,0,0,1.021-.264,1.653,1.653,0,0,0,.581-.6V-4.7H9.063q-1.719,0-1.719,1.543a.942.942,0,0,0,.3.728A1.1,1.1,0,0,0,8.418-2.148ZM21.533-7.588l-1.084-.078a1.947,1.947,0,0,0-1.992.977V0H15.166V-10.566h3.086l.107,1.357a2.548,2.548,0,0,1,2.314-1.553,3.209,3.209,0,0,1,.918.117ZM32.813.2a5.432,5.432,0,0,1-3.936-1.45,5.008,5.008,0,0,1-1.5-3.774V-5.3a6.489,6.489,0,0,1,.6-2.861,4.395,4.395,0,0,1,1.753-1.919,5.292,5.292,0,0,1,2.734-.679A4.574,4.574,0,0,1,35.977-9.38a5.43,5.43,0,0,1,1.289,3.853v1.279H30.723a2.372,2.372,0,0,0,.771,1.4,2.3,2.3,0,0,0,1.543.508,2.958,2.958,0,0,0,2.441-1.094l1.5,1.777A4.2,4.2,0,0,1,35.239-.308,5.891,5.891,0,0,1,32.813.2Zm-.371-8.418q-1.445,0-1.719,1.914h3.32v-.254a1.63,1.63,0,0,0-.4-1.226A1.593,1.593,0,0,0,32.441-8.223ZM42.061,0h-3.3V-15h3.3ZM-24.663,21.2a5.432,5.432,0,0,1-3.936-1.45,5.008,5.008,0,0,1-1.5-3.774V15.7a6.489,6.489,0,0,1,.6-2.861,4.395,4.395,0,0,1,1.753-1.919,5.292,5.292,0,0,1,2.734-.679A4.574,4.574,0,0,1-21.5,11.62a5.43,5.43,0,0,1,1.289,3.853v1.279h-6.543a2.372,2.372,0,0,0,.771,1.4,2.3,2.3,0,0,0,1.543.508A2.958,2.958,0,0,0-22,17.563l1.5,1.777a4.2,4.2,0,0,1-1.743,1.353A5.891,5.891,0,0,1-24.663,21.2Zm-.371-8.418q-1.445,0-1.719,1.914h3.32v-.254a1.63,1.63,0,0,0-.4-1.226A1.593,1.593,0,0,0-25.034,12.777Zm5.732,2.832a6.343,6.343,0,0,1,1.094-3.945,3.592,3.592,0,0,1,3.018-1.426,3.068,3.068,0,0,1,2.6,1.328l.234-1.133h2.852V25.063h-3.3V20.121a3.063,3.063,0,0,1-2.4,1.074,3.561,3.561,0,0,1-2.983-1.45A6.7,6.7,0,0,1-19.3,15.609Zm3.291.205q0,2.842,1.641,2.842a1.589,1.589,0,0,0,1.563-.859v-4.18a1.555,1.555,0,0,0-1.543-.84q-1.533,0-1.65,2.451Zm14.658,4.043A3.393,3.393,0,0,1-4.175,21.2a3.328,3.328,0,0,1-2.632-1.011A4.251,4.251,0,0,1-7.7,17.279V10.434h3.291V17.3a1.183,1.183,0,0,0,1.318,1.357,1.72,1.72,0,0,0,1.611-.811V10.434H1.831V21H-1.255ZM7.1,21H3.8V10.434H7.1ZM3.608,7.7A1.482,1.482,0,0,1,4.116,6.54a1.909,1.909,0,0,1,1.318-.452,1.909,1.909,0,0,1,1.318.452A1.482,1.482,0,0,1,7.261,7.7a1.482,1.482,0,0,1-.508,1.159,1.909,1.909,0,0,1-1.318.452,1.909,1.909,0,0,1-1.318-.452A1.482,1.482,0,0,1,3.608,7.7Zm15.332,8.1a6.372,6.372,0,0,1-1.108,3.931,3.554,3.554,0,0,1-2.993,1.47,3.046,3.046,0,0,1-2.393-1.064v4.932H9.155V10.434h3.076l.1.977a3.046,3.046,0,0,1,2.49-1.172,3.582,3.582,0,0,1,3.037,1.44,6.45,6.45,0,0,1,1.084,3.96Zm-3.291-.205q0-2.812-1.641-2.812a1.549,1.549,0,0,0-1.562.84v4.16a1.6,1.6,0,0,0,1.582.879q1.572,0,1.621-2.715Zm4.326.029a6.236,6.236,0,0,1,.615-2.817,4.4,4.4,0,0,1,1.768-1.9,5.323,5.323,0,0,1,2.705-.664,4.858,4.858,0,0,1,3.74,1.47,5.64,5.64,0,0,1,1.367,4v.117A5.472,5.472,0,0,1,28.8,19.745a4.871,4.871,0,0,1-3.716,1.45,4.927,4.927,0,0,1-3.623-1.353,5.29,5.29,0,0,1-1.475-3.667Zm3.291.205a3.932,3.932,0,0,0,.459,2.148,1.529,1.529,0,0,0,1.357.684q1.758,0,1.8-2.705v-.332q0-2.842-1.816-2.842-1.65,0-1.787,2.451Z" transform="translate(1165.295 8473.07)" fill="#12263f"/>
    <path id="Trazado_141834" data-name="Trazado 141834" d="M-41.831,0h-3.418V-14.219h3.418Zm1.816-5.361a6.455,6.455,0,0,1,1.084-3.955A3.568,3.568,0,0,1-35.9-10.762a3.035,3.035,0,0,1,2.383,1.113V-15h3.3V0h-2.959l-.166-1.133A3.116,3.116,0,0,1-35.923.2,3.562,3.562,0,0,1-38.911-1.25,6.659,6.659,0,0,1-40.015-5.361Zm3.291.205q0,2.813,1.641,2.813a1.62,1.62,0,0,0,1.563-.918V-7.285a1.576,1.576,0,0,0-1.543-.937q-1.523,0-1.65,2.461ZM-23.237.2a5.432,5.432,0,0,1-3.936-1.45,5.008,5.008,0,0,1-1.5-3.774V-5.3a6.489,6.489,0,0,1,.6-2.861,4.395,4.395,0,0,1,1.753-1.919,5.292,5.292,0,0,1,2.734-.679A4.574,4.574,0,0,1-20.073-9.38a5.43,5.43,0,0,1,1.289,3.853v1.279h-6.543a2.372,2.372,0,0,0,.771,1.4,2.3,2.3,0,0,0,1.543.508,2.958,2.958,0,0,0,2.441-1.094l1.5,1.777A4.2,4.2,0,0,1-20.811-.308,5.891,5.891,0,0,1-23.237.2Zm-.371-8.418q-1.445,0-1.719,1.914h3.32v-.254a1.63,1.63,0,0,0-.4-1.226A1.593,1.593,0,0,0-23.608-8.223Zm9.17-2.344.107,1.24a3.583,3.583,0,0,1,3.018-1.436,3.015,3.015,0,0,1,2.466.986A4.7,4.7,0,0,1-8-6.807V0h-3.3V-6.67a1.783,1.783,0,0,0-.322-1.177A1.491,1.491,0,0,0-12.8-8.223a1.569,1.569,0,0,0-1.436.762V0h-3.291V-10.566Zm12.09-2.627v2.627H-.61v2.285H-2.349v4.834a1.234,1.234,0,0,0,.215.83,1.152,1.152,0,0,0,.85.234,4.828,4.828,0,0,0,.82-.059V-.088A6.074,6.074,0,0,1-2.319.2a3.448,3.448,0,0,1-2.51-.8A3.282,3.282,0,0,1-5.64-3.037V-8.281H-6.987v-2.285H-5.64v-2.627ZM4.155,0H.854V-10.566h3.3ZM.659-13.3a1.482,1.482,0,0,1,.508-1.159,1.909,1.909,0,0,1,1.318-.452A1.909,1.909,0,0,1,3.8-14.46,1.482,1.482,0,0,1,4.312-13.3,1.482,1.482,0,0,1,3.8-12.141a1.909,1.909,0,0,1-1.318.452,1.909,1.909,0,0,1-1.318-.452A1.482,1.482,0,0,1,.659-13.3ZM6.948,0V-8.281H5.415v-2.285H6.948v-.352A4.034,4.034,0,0,1,8.335-14.15a5.541,5.541,0,0,1,3.6-1.055,12.787,12.787,0,0,1,3.438.566l-.449,2.6-.547-.146a8.7,8.7,0,0,0-2.246-.283q-1.885,0-1.885,1.719v.186h2.07v2.285h-2.07V0ZM16.89,0H13.579V-10.566H16.89Zm6.475-2.344a1.464,1.464,0,0,0,1.074-.376,1.379,1.379,0,0,0,.371-1.05H27.9A3.653,3.653,0,0,1,26.65-.918,4.631,4.631,0,0,1,23.442.2,4.689,4.689,0,0,1,19.81-1.25a5.7,5.7,0,0,1-1.328-4v-.137a6.436,6.436,0,0,1,.591-2.827,4.3,4.3,0,0,1,1.7-1.885,5.081,5.081,0,0,1,2.637-.659,4.573,4.573,0,0,1,3.271,1.143,4.053,4.053,0,0,1,1.211,3.1H24.81a1.807,1.807,0,0,0-.4-1.26,1.382,1.382,0,0,0-1.074-.439q-1.279,0-1.494,1.631a11.508,11.508,0,0,0-.068,1.426,4.52,4.52,0,0,0,.381,2.207A1.319,1.319,0,0,0,23.364-2.344ZM35.239,0a3.716,3.716,0,0,1-.312-.947A3.06,3.06,0,0,1,32.388.2a3.749,3.749,0,0,1-2.539-.9A2.875,2.875,0,0,1,28.8-2.979a2.955,2.955,0,0,1,1.27-2.6,6.468,6.468,0,0,1,3.691-.879H34.78v-.559q0-1.462-1.26-1.462a1.03,1.03,0,0,0-1.172,1.158H29.058a2.95,2.95,0,0,1,1.3-2.487,5.479,5.479,0,0,1,3.325-.956,4.8,4.8,0,0,1,3.193.986,3.429,3.429,0,0,1,1.2,2.705v4.678A4.79,4.79,0,0,0,38.53-.166V0ZM33.179-2.148A1.836,1.836,0,0,0,34.2-2.412a1.653,1.653,0,0,0,.581-.6V-4.7h-.957Q32.1-4.7,32.1-3.154a.942.942,0,0,0,.3.728A1.1,1.1,0,0,0,33.179-2.148ZM46.294-7.588,45.21-7.666a1.947,1.947,0,0,0-1.992.977V0H39.927V-10.566h3.086l.107,1.357a2.548,2.548,0,0,1,2.314-1.553,3.209,3.209,0,0,1,.918.117ZM-41,21h-3.3V6H-41Zm1.611-5.381a6.236,6.236,0,0,1,.615-2.817,4.4,4.4,0,0,1,1.768-1.9,5.323,5.323,0,0,1,2.705-.664,4.858,4.858,0,0,1,3.74,1.47,5.64,5.64,0,0,1,1.367,4v.117a5.472,5.472,0,0,1-1.372,3.921,4.871,4.871,0,0,1-3.716,1.45,4.927,4.927,0,0,1-3.623-1.353,5.29,5.29,0,0,1-1.475-3.667Zm3.291.205a3.932,3.932,0,0,0,.459,2.148,1.529,1.529,0,0,0,1.357.684q1.758,0,1.8-2.705v-.332q0-2.842-1.816-2.842-1.65,0-1.787,2.451Zm13.887,2.207a.76.76,0,0,0-.439-.674,6.684,6.684,0,0,0-1.67-.527,7.615,7.615,0,0,1-2.031-.718,3.4,3.4,0,0,1-1.221-1.079,2.577,2.577,0,0,1-.42-1.455,2.92,2.92,0,0,1,1.2-2.4,4.948,4.948,0,0,1,3.145-.942,5.482,5.482,0,0,1,3.359.947,2.962,2.962,0,0,1,1.27,2.49h-3.3q0-1.27-1.338-1.27a1.326,1.326,0,0,0-.869.288.892.892,0,0,0-.352.718.819.819,0,0,0,.43.713,4.06,4.06,0,0,0,1.372.449,11.857,11.857,0,0,1,1.655.42,3.007,3.007,0,0,1,2.383,2.939,2.767,2.767,0,0,1-1.284,2.354,5.631,5.631,0,0,1-3.325.908,5.747,5.747,0,0,1-2.422-.488,4.05,4.05,0,0,1-1.66-1.328,3.007,3.007,0,0,1-.6-1.768h3.076a1.272,1.272,0,0,0,.488,1.069,2.009,2.009,0,0,0,1.2.337,1.58,1.58,0,0,0,1.011-.273A.875.875,0,0,0-22.212,18.031Zm15.225,0a.76.76,0,0,0-.439-.674A6.684,6.684,0,0,0-9.1,16.83a7.615,7.615,0,0,1-2.031-.718,3.4,3.4,0,0,1-1.221-1.079,2.577,2.577,0,0,1-.42-1.455,2.92,2.92,0,0,1,1.2-2.4,4.948,4.948,0,0,1,3.145-.942,5.482,5.482,0,0,1,3.359.947,2.962,2.962,0,0,1,1.27,2.49h-3.3q0-1.27-1.338-1.27a1.326,1.326,0,0,0-.869.288.892.892,0,0,0-.352.718.819.819,0,0,0,.43.713,4.06,4.06,0,0,0,1.372.449,11.857,11.857,0,0,1,1.655.42,3.007,3.007,0,0,1,2.383,2.939A2.767,2.767,0,0,1-5.1,20.287a5.631,5.631,0,0,1-3.325.908,5.747,5.747,0,0,1-2.422-.488,4.05,4.05,0,0,1-1.66-1.328,3.007,3.007,0,0,1-.6-1.768h3.076a1.272,1.272,0,0,0,.488,1.069,2.009,2.009,0,0,0,1.2.337,1.58,1.58,0,0,0,1.011-.273A.875.875,0,0,0-6.987,18.031Zm4.3-2.412A6.236,6.236,0,0,1-2.075,12.8,4.4,4.4,0,0,1-.308,10.9,5.323,5.323,0,0,1,2.4,10.238a4.858,4.858,0,0,1,3.74,1.47,5.64,5.64,0,0,1,1.367,4v.117a5.472,5.472,0,0,1-1.372,3.921A4.871,4.871,0,0,1,2.417,21.2a4.927,4.927,0,0,1-3.623-1.353,5.29,5.29,0,0,1-1.475-3.667ZM.6,15.824a3.932,3.932,0,0,0,.459,2.148,1.529,1.529,0,0,0,1.357.684q1.758,0,1.8-2.705v-.332q0-2.842-1.816-2.842-1.65,0-1.787,2.451Zm12.822,2.832A1.464,1.464,0,0,0,14.5,18.28a1.379,1.379,0,0,0,.371-1.05h3.086a3.653,3.653,0,0,1-1.245,2.852A4.631,4.631,0,0,1,13.5,21.2,4.689,4.689,0,0,1,9.868,19.75a5.7,5.7,0,0,1-1.328-4v-.137a6.436,6.436,0,0,1,.591-2.827,4.3,4.3,0,0,1,1.7-1.885,5.081,5.081,0,0,1,2.637-.659,4.573,4.573,0,0,1,3.271,1.143,4.053,4.053,0,0,1,1.211,3.1H14.868a1.807,1.807,0,0,0-.4-1.26,1.382,1.382,0,0,0-1.074-.439q-1.279,0-1.494,1.631a11.508,11.508,0,0,0-.068,1.426,4.52,4.52,0,0,0,.381,2.207A1.319,1.319,0,0,0,13.423,18.656ZM22.817,21h-3.3V10.434h3.3Zm-3.5-13.3a1.482,1.482,0,0,1,.508-1.159,2.149,2.149,0,0,1,2.637,0A1.482,1.482,0,0,1,22.974,7.7a1.482,1.482,0,0,1-.508,1.159,2.149,2.149,0,0,1-2.637,0A1.482,1.482,0,0,1,19.321,7.7Zm5.107,7.92a6.236,6.236,0,0,1,.615-2.817,4.4,4.4,0,0,1,1.768-1.9,5.323,5.323,0,0,1,2.705-.664,4.858,4.858,0,0,1,3.74,1.47,5.64,5.64,0,0,1,1.367,4v.117a5.472,5.472,0,0,1-1.372,3.921,4.871,4.871,0,0,1-3.716,1.45,4.927,4.927,0,0,1-3.623-1.353,5.29,5.29,0,0,1-1.475-3.667Zm3.291.205a3.932,3.932,0,0,0,.459,2.148,1.529,1.529,0,0,0,1.357.684q1.758,0,1.8-2.705v-.332q0-2.842-1.816-2.842-1.65,0-1.787,2.451Zm13.887,2.207a.76.76,0,0,0-.439-.674,6.684,6.684,0,0,0-1.67-.527,7.615,7.615,0,0,1-2.031-.718,3.4,3.4,0,0,1-1.221-1.079,2.577,2.577,0,0,1-.42-1.455,2.92,2.92,0,0,1,1.2-2.4,4.948,4.948,0,0,1,3.145-.942,5.482,5.482,0,0,1,3.359.947,2.962,2.962,0,0,1,1.27,2.49H41.5q0-1.27-1.338-1.27a1.326,1.326,0,0,0-.869.288.892.892,0,0,0-.352.718.819.819,0,0,0,.43.713,4.06,4.06,0,0,0,1.372.449,11.857,11.857,0,0,1,1.655.42,3.007,3.007,0,0,1,2.383,2.939A2.767,2.767,0,0,1,43.5,20.287a5.632,5.632,0,0,1-3.325.908,5.747,5.747,0,0,1-2.422-.488,4.05,4.05,0,0,1-1.66-1.328,3.007,3.007,0,0,1-.6-1.768h3.076a1.272,1.272,0,0,0,.488,1.069,2.009,2.009,0,0,0,1.2.337,1.58,1.58,0,0,0,1.011-.273A.875.875,0,0,0,41.606,18.031Z" transform="translate(1030.295 8901.07)" fill="#12263f"/>
    <path id="Trazado_141846" data-name="Trazado 141846" d="M-82.8-5.029h-1.855V0h-3.428V-14.219h5.6A6.246,6.246,0,0,1-78.535-13.1a3.8,3.8,0,0,1,1.426,3.17,4.616,4.616,0,0,1-.6,2.458,4.263,4.263,0,0,1-1.88,1.58l2.969,5.741V0h-3.672Zm-1.855-2.637h2.168a1.946,1.946,0,0,0,1.47-.514,1.987,1.987,0,0,0,.493-1.434,2.01,2.01,0,0,0-.5-1.444,1.928,1.928,0,0,0-1.465-.524h-2.168ZM-70.078.2a5.432,5.432,0,0,1-3.936-1.45,5.008,5.008,0,0,1-1.5-3.774V-5.3a6.489,6.489,0,0,1,.6-2.861,4.395,4.395,0,0,1,1.753-1.919,5.292,5.292,0,0,1,2.734-.679A4.574,4.574,0,0,1-66.914-9.38a5.43,5.43,0,0,1,1.289,3.853v1.279h-6.543a2.372,2.372,0,0,0,.771,1.4,2.3,2.3,0,0,0,1.543.508,2.958,2.958,0,0,0,2.441-1.094l1.5,1.777A4.2,4.2,0,0,1-67.651-.308,5.891,5.891,0,0,1-70.078.2Zm-.371-8.418q-1.445,0-1.719,1.914h3.32v-.254a1.63,1.63,0,0,0-.4-1.226A1.593,1.593,0,0,0-70.449-8.223Zm10.615,5.879A1.464,1.464,0,0,0-58.76-2.72a1.379,1.379,0,0,0,.371-1.05H-55.3A3.653,3.653,0,0,1-56.548-.918,4.631,4.631,0,0,1-59.756.2,4.689,4.689,0,0,1-63.389-1.25a5.7,5.7,0,0,1-1.328-4v-.137a6.436,6.436,0,0,1,.591-2.827,4.3,4.3,0,0,1,1.7-1.885,5.081,5.081,0,0,1,2.637-.659,4.573,4.573,0,0,1,3.271,1.143,4.053,4.053,0,0,1,1.211,3.1h-3.086a1.807,1.807,0,0,0-.4-1.26,1.382,1.382,0,0,0-1.074-.439q-1.279,0-1.494,1.631a11.507,11.507,0,0,0-.068,1.426,4.52,4.52,0,0,0,.381,2.207A1.319,1.319,0,0,0-59.834-2.344Zm5.508-3.037A6.236,6.236,0,0,1-53.711-8.2a4.4,4.4,0,0,1,1.768-1.9,5.323,5.323,0,0,1,2.705-.664,4.858,4.858,0,0,1,3.74,1.47,5.64,5.64,0,0,1,1.367,4v.117A5.472,5.472,0,0,1-45.5-1.255,4.871,4.871,0,0,1-49.219.2a4.927,4.927,0,0,1-3.623-1.353,5.29,5.29,0,0,1-1.475-3.667Zm3.291.205a3.932,3.932,0,0,0,.459,2.148,1.529,1.529,0,0,0,1.357.684q1.758,0,1.8-2.705v-.332q0-2.842-1.816-2.842-1.65,0-1.787,2.451Zm18.164-.029a6.372,6.372,0,0,1-1.108,3.931A3.554,3.554,0,0,1-36.973.2,3.046,3.046,0,0,1-39.365-.869V4.063h-3.291V-10.566h3.076l.1.977a3.046,3.046,0,0,1,2.49-1.172,3.582,3.582,0,0,1,3.037,1.44,6.45,6.45,0,0,1,1.084,3.96Zm-3.291-.205q0-2.812-1.641-2.812a1.549,1.549,0,0,0-1.562.84v4.16a1.6,1.6,0,0,0,1.582.879q1.572,0,1.621-2.715ZM-27.949,0h-3.3V-10.566h3.3Zm-3.5-13.3a1.482,1.482,0,0,1,.508-1.159,1.909,1.909,0,0,1,1.318-.452,1.909,1.909,0,0,1,1.318.452,1.482,1.482,0,0,1,.508,1.159,1.482,1.482,0,0,1-.508,1.159,1.909,1.909,0,0,1-1.318.452,1.909,1.909,0,0,1-1.318-.452A1.482,1.482,0,0,1-31.445-13.3ZM-22.451,0h-3.3V-15h3.3Zm7.979,0a3.716,3.716,0,0,1-.312-.947A3.06,3.06,0,0,1-17.324.2a3.749,3.749,0,0,1-2.539-.9,2.875,2.875,0,0,1-1.045-2.271,2.955,2.955,0,0,1,1.27-2.6,6.468,6.468,0,0,1,3.691-.879h1.016v-.559q0-1.462-1.26-1.462a1.03,1.03,0,0,0-1.172,1.158h-3.291a2.95,2.95,0,0,1,1.3-2.487,5.479,5.479,0,0,1,3.325-.956,4.8,4.8,0,0,1,3.193.986,3.429,3.429,0,0,1,1.2,2.705v4.678a4.79,4.79,0,0,0,.449,2.227V0Zm-2.061-2.148a1.836,1.836,0,0,0,1.021-.264,1.653,1.653,0,0,0,.581-.6V-4.7h-.957q-1.719,0-1.719,1.543a.942.942,0,0,0,.3.728A1.1,1.1,0,0,0-16.533-2.148ZM-3.418-7.588-4.5-7.666a1.947,1.947,0,0,0-1.992.977V0H-9.785V-10.566H-6.7l.107,1.357a2.548,2.548,0,0,1,2.314-1.553,3.209,3.209,0,0,1,.918.117ZM6.973-4.609,8.73-10.566h3.525L7.949,1.768l-.186.449A3.272,3.272,0,0,1,4.521,4.268a5.158,5.158,0,0,1-1.357-.195V1.729h.43a2.251,2.251,0,0,0,1.06-.2A1.216,1.216,0,0,0,5.2.81l.264-.7L1.787-10.566H5.3ZM24.043,0a3.716,3.716,0,0,1-.312-.947A3.06,3.06,0,0,1,21.191.2a3.749,3.749,0,0,1-2.539-.9,2.875,2.875,0,0,1-1.045-2.271,2.955,2.955,0,0,1,1.27-2.6,6.468,6.468,0,0,1,3.691-.879h1.016v-.559q0-1.462-1.26-1.462a1.03,1.03,0,0,0-1.172,1.158H17.861a2.95,2.95,0,0,1,1.3-2.487,5.479,5.479,0,0,1,3.325-.956,4.8,4.8,0,0,1,3.193.986,3.429,3.429,0,0,1,1.2,2.705v4.678a4.79,4.79,0,0,0,.449,2.227V0ZM21.982-2.148A1.836,1.836,0,0,0,23-2.412a1.653,1.653,0,0,0,.581-.6V-4.7h-.957q-1.719,0-1.719,1.543a.942.942,0,0,0,.3.728A1.1,1.1,0,0,0,21.982-2.148Zm9.746-8.418.107,1.24a3.583,3.583,0,0,1,3.018-1.436,3.015,3.015,0,0,1,2.466.986,4.7,4.7,0,0,1,.845,2.969V0h-3.3V-6.67a1.783,1.783,0,0,0-.322-1.177,1.491,1.491,0,0,0-1.172-.376,1.569,1.569,0,0,0-1.436.762V0H28.643V-10.566ZM45.938,0a3.716,3.716,0,0,1-.312-.947A3.06,3.06,0,0,1,43.086.2a3.749,3.749,0,0,1-2.539-.9A2.875,2.875,0,0,1,39.5-2.979a2.955,2.955,0,0,1,1.27-2.6,6.468,6.468,0,0,1,3.691-.879h1.016v-.559q0-1.462-1.26-1.462a1.03,1.03,0,0,0-1.172,1.158H39.756a2.95,2.95,0,0,1,1.3-2.487,5.479,5.479,0,0,1,3.325-.956,4.8,4.8,0,0,1,3.193.986,3.429,3.429,0,0,1,1.2,2.705v4.678a4.79,4.79,0,0,0,.449,2.227V0ZM43.877-2.148A1.836,1.836,0,0,0,44.9-2.412a1.653,1.653,0,0,0,.581-.6V-4.7h-.957Q42.8-4.7,42.8-3.154a.942.942,0,0,0,.3.728A1.1,1.1,0,0,0,43.877-2.148ZM54.072,0h-3.3V-15h3.3Zm5.5,0h-3.3V-10.566h3.3Zm-3.5-13.3a1.482,1.482,0,0,1,.508-1.159,1.909,1.909,0,0,1,1.318-.452,1.909,1.909,0,0,1,1.318.452,1.482,1.482,0,0,1,.508,1.159,1.482,1.482,0,0,1-.508,1.159,1.909,1.909,0,0,1-1.318.452,1.909,1.909,0,0,1-1.318-.452A1.482,1.482,0,0,1,56.074-13.3Zm9.4,10.762h4.814V0H61.318V-1.836l4.688-6.191H61.523v-2.539h8.662v1.777ZM77.842,0a3.716,3.716,0,0,1-.312-.947A3.06,3.06,0,0,1,74.99.2a3.749,3.749,0,0,1-2.539-.9,2.875,2.875,0,0,1-1.045-2.271,2.955,2.955,0,0,1,1.27-2.6,6.468,6.468,0,0,1,3.691-.879h1.016v-.559q0-1.462-1.26-1.462a1.03,1.03,0,0,0-1.172,1.158H71.66a2.95,2.95,0,0,1,1.3-2.487,5.479,5.479,0,0,1,3.325-.956,4.8,4.8,0,0,1,3.193.986,3.429,3.429,0,0,1,1.2,2.705v4.678a4.79,4.79,0,0,0,.449,2.227V0ZM75.781-2.148A1.836,1.836,0,0,0,76.8-2.412a1.653,1.653,0,0,0,.581-.6V-4.7h-.957q-1.719,0-1.719,1.543a.942.942,0,0,0,.3.728A1.1,1.1,0,0,0,75.781-2.148ZM88.9-7.588l-1.084-.078a1.947,1.947,0,0,0-1.992.977V0H82.529V-10.566h3.086l.107,1.357a2.548,2.548,0,0,1,2.314-1.553,3.209,3.209,0,0,1,.918.117ZM-50.142,21h-3.3V10.434h3.3Zm-3.5-13.3A1.482,1.482,0,0,1-53.13,6.54a1.909,1.909,0,0,1,1.318-.452,1.909,1.909,0,0,1,1.318.452A1.482,1.482,0,0,1-49.985,7.7a1.482,1.482,0,0,1-.508,1.159,1.909,1.909,0,0,1-1.318.452,1.909,1.909,0,0,1-1.318-.452A1.482,1.482,0,0,1-53.638,7.7Zm8.545,2.734.107,1.24a3.583,3.583,0,0,1,3.018-1.436,3.015,3.015,0,0,1,2.466.986,4.7,4.7,0,0,1,.845,2.969V21h-3.3V14.33a1.783,1.783,0,0,0-.322-1.177,1.491,1.491,0,0,0-1.172-.376,1.569,1.569,0,0,0-1.436.762V21h-3.291V10.434ZM-36.108,21V12.719h-1.533V10.434h1.533v-.84a3.651,3.651,0,0,1,1.064-2.8,4.206,4.206,0,0,1,2.988-1A6.544,6.544,0,0,1-30.513,6l.01,2.422a3.007,3.007,0,0,0-.811-.088q-1.494,0-1.494,1.289v.811h2.061v2.285h-2.061V21Zm6.1-5.381A6.236,6.236,0,0,1-29.39,12.8a4.4,4.4,0,0,1,1.768-1.9,5.323,5.323,0,0,1,2.705-.664,4.858,4.858,0,0,1,3.74,1.47,5.64,5.64,0,0,1,1.367,4v.117a5.472,5.472,0,0,1-1.372,3.921A4.871,4.871,0,0,1-24.9,21.2a4.927,4.927,0,0,1-3.623-1.353A5.29,5.29,0,0,1-30,16.176Zm3.291.205a3.932,3.932,0,0,0,.459,2.148,1.529,1.529,0,0,0,1.357.684q1.758,0,1.8-2.705v-.332q0-2.842-1.816-2.842-1.65,0-1.787,2.451Zm14.746-2.412-1.084-.078a1.947,1.947,0,0,0-1.992.977V21h-3.291V10.434h3.086l.107,1.357a2.548,2.548,0,0,1,2.314-1.553,3.209,3.209,0,0,1,.918.117Zm4.3-2.979.107,1.24a3.633,3.633,0,0,1,3.018-1.436A2.675,2.675,0,0,1-1.841,11.83a3.517,3.517,0,0,1,3.105-1.592q3.213,0,3.3,3.887V21h-3.3V14.33a2.014,2.014,0,0,0-.273-1.182,1.164,1.164,0,0,0-1-.371,1.559,1.559,0,0,0-1.455.869l.01.137V21h-3.3V14.35a2.117,2.117,0,0,0-.264-1.2,1.161,1.161,0,0,0-1.006-.371,1.578,1.578,0,0,0-1.445.869V21h-3.291V10.434ZM12.4,21a3.716,3.716,0,0,1-.312-.947A3.06,3.06,0,0,1,9.546,21.2a3.749,3.749,0,0,1-2.539-.9,2.875,2.875,0,0,1-1.045-2.271,2.955,2.955,0,0,1,1.27-2.6,6.468,6.468,0,0,1,3.691-.879h1.016v-.559q0-1.462-1.26-1.462a1.03,1.03,0,0,0-1.172,1.158H6.216a2.95,2.95,0,0,1,1.3-2.487,5.479,5.479,0,0,1,3.325-.956,4.8,4.8,0,0,1,3.193.986,3.429,3.429,0,0,1,1.2,2.705v4.678a4.79,4.79,0,0,0,.449,2.227V21Zm-2.061-2.148a1.836,1.836,0,0,0,1.021-.264,1.653,1.653,0,0,0,.581-.6V16.3h-.957q-1.719,0-1.719,1.543a.942.942,0,0,0,.3.728A1.1,1.1,0,0,0,10.337,18.852Zm11.191-.2A1.464,1.464,0,0,0,22.6,18.28a1.379,1.379,0,0,0,.371-1.05H26.06a3.653,3.653,0,0,1-1.245,2.852A4.631,4.631,0,0,1,21.606,21.2a4.689,4.689,0,0,1-3.633-1.445,5.7,5.7,0,0,1-1.328-4v-.137a6.436,6.436,0,0,1,.591-2.827,4.3,4.3,0,0,1,1.7-1.885,5.081,5.081,0,0,1,2.637-.659,4.573,4.573,0,0,1,3.271,1.143,4.053,4.053,0,0,1,1.211,3.1H22.974a1.807,1.807,0,0,0-.4-1.26,1.382,1.382,0,0,0-1.074-.439q-1.279,0-1.494,1.631a11.508,11.508,0,0,0-.068,1.426,4.52,4.52,0,0,0,.381,2.207A1.319,1.319,0,0,0,21.528,18.656ZM30.923,21h-3.3V10.434h3.3Zm-3.5-13.3a1.482,1.482,0,0,1,.508-1.159,2.149,2.149,0,0,1,2.637,0A1.482,1.482,0,0,1,31.079,7.7a1.482,1.482,0,0,1-.508,1.159,2.149,2.149,0,0,1-2.637,0A1.482,1.482,0,0,1,27.427,7.7Zm5.107,7.92a6.236,6.236,0,0,1,.615-2.817,4.4,4.4,0,0,1,1.768-1.9,5.323,5.323,0,0,1,2.705-.664,4.858,4.858,0,0,1,3.74,1.47,5.64,5.64,0,0,1,1.367,4v.117a5.472,5.472,0,0,1-1.372,3.921,4.871,4.871,0,0,1-3.716,1.45,4.927,4.927,0,0,1-3.623-1.353,5.29,5.29,0,0,1-1.475-3.667Zm3.291.205a3.932,3.932,0,0,0,.459,2.148,1.529,1.529,0,0,0,1.357.684q1.758,0,1.8-2.705v-.332q0-2.842-1.816-2.842-1.65,0-1.787,2.451ZM38.071,6h3.477L38.833,9.066l-2.686,0ZM47.2,10.434l.107,1.24a3.583,3.583,0,0,1,3.018-1.436,3.015,3.015,0,0,1,2.466.986,4.7,4.7,0,0,1,.845,2.969V21h-3.3V14.33a1.783,1.783,0,0,0-.322-1.177,1.491,1.491,0,0,0-1.172-.376,1.569,1.569,0,0,0-1.436.762V21H44.116V10.434Z" transform="translate(575.295 8901.07)" fill="#12263f"/>
    <path id="Trazado_141853" data-name="Trazado 141853" d="M-21.025-2.656h-4.7L-26.543,0h-3.662l5.215-14.219h3.223L-16.514,0H-20.2ZM-24.9-5.3h3.057l-1.533-4.932Zm13.74,2.959a1.464,1.464,0,0,0,1.074-.376,1.379,1.379,0,0,0,.371-1.05h3.086A3.653,3.653,0,0,1-7.876-.918,4.631,4.631,0,0,1-11.084.2,4.689,4.689,0,0,1-14.717-1.25a5.7,5.7,0,0,1-1.328-4v-.137a6.436,6.436,0,0,1,.591-2.827,4.3,4.3,0,0,1,1.7-1.885,5.081,5.081,0,0,1,2.637-.659A4.573,4.573,0,0,1-7.842-9.619a4.053,4.053,0,0,1,1.211,3.1H-9.717a1.807,1.807,0,0,0-.4-1.26,1.382,1.382,0,0,0-1.074-.439q-1.279,0-1.494,1.631a11.508,11.508,0,0,0-.068,1.426,4.52,4.52,0,0,0,.381,2.207A1.319,1.319,0,0,0-11.162-2.344Zm9.756-10.85v2.627H.332v2.285H-1.406v4.834a1.234,1.234,0,0,0,.215.83,1.152,1.152,0,0,0,.85.234,4.828,4.828,0,0,0,.82-.059V-.088A6.074,6.074,0,0,1-1.377.2a3.448,3.448,0,0,1-2.51-.8A3.282,3.282,0,0,1-4.7-3.037V-8.281H-6.045v-2.285H-4.7v-2.627ZM7.92-1.143A3.393,3.393,0,0,1,5.1.2,3.328,3.328,0,0,1,2.466-.815a4.251,4.251,0,0,1-.894-2.905v-6.846H4.863V-3.7A1.183,1.183,0,0,0,6.182-2.344a1.72,1.72,0,0,0,1.611-.811v-7.412H11.1V0H8.018ZM18.857,0a3.716,3.716,0,0,1-.312-.947A3.06,3.06,0,0,1,16.006.2a3.749,3.749,0,0,1-2.539-.9,2.875,2.875,0,0,1-1.045-2.271,2.955,2.955,0,0,1,1.27-2.6,6.468,6.468,0,0,1,3.691-.879H18.4v-.559q0-1.462-1.26-1.462a1.03,1.03,0,0,0-1.172,1.158H12.676a2.95,2.95,0,0,1,1.3-2.487,5.479,5.479,0,0,1,3.325-.956,4.8,4.8,0,0,1,3.193.986A3.429,3.429,0,0,1,21.7-7.07v4.678a4.79,4.79,0,0,0,.449,2.227V0ZM16.8-2.148a1.836,1.836,0,0,0,1.021-.264,1.653,1.653,0,0,0,.581-.6V-4.7h-.957q-1.719,0-1.719,1.543a.942.942,0,0,0,.3.728A1.1,1.1,0,0,0,16.8-2.148ZM29.912-7.588l-1.084-.078a1.947,1.947,0,0,0-1.992.977V0H23.545V-10.566h3.086l.107,1.357a2.548,2.548,0,0,1,2.314-1.553,3.209,3.209,0,0,1,.918.117Z" transform="translate(435.295 8484.07)" fill="#12263f"/>
    <path id="Trazado_141847" data-name="Trazado 141847" d="M15.5,0A15.5,15.5,0,1,1,0,15.5,15.5,15.5,0,0,1,15.5,0Z" transform="translate(1150.295 8323.07)" fill="#d64626"/>
    <path id="Trazado_141835" data-name="Trazado 141835" d="M15.5,0A15.5,15.5,0,1,1,0,15.5,15.5,15.5,0,0,1,15.5,0Z" transform="translate(1015.295 8751.07)" fill="#d64626"/>
    <path id="Trazado_141848" data-name="Trazado 141848" d="M15.5,0A15.5,15.5,0,1,1,0,15.5,15.5,15.5,0,0,1,15.5,0Z" transform="translate(560.295 8751.07)" fill="#d64626"/>
    <path id="Trazado_141854" data-name="Trazado 141854" d="M15.5,0A15.5,15.5,0,1,1,0,15.5,15.5,15.5,0,0,1,15.5,0Z" transform="translate(420.295 8320.07)" fill="#d64626"/>
    <path id="Trazado_141849" data-name="Trazado 141849" d="M5,0H-4.922V-2.148l4.57-4.8Q1.338-8.877,1.338-10.01a2.126,2.126,0,0,0-.4-1.4,1.43,1.43,0,0,0-1.162-.479,1.447,1.447,0,0,0-1.221.64,2.629,2.629,0,0,0-.469,1.6h-3.3a4.67,4.67,0,0,1,.654-2.417A4.588,4.588,0,0,1-2.744-13.8a5.4,5.4,0,0,1,2.6-.625A5.308,5.308,0,0,1,3.4-13.359,3.8,3.8,0,0,1,4.648-10.3a4.439,4.439,0,0,1-.312,1.636A7.173,7.173,0,0,1,3.364-7,24.477,24.477,0,0,1,1.24-4.658L-.6-2.539H5Z" transform="translate(1165.295 8346.07)" fill="#fff"/>
    <path id="Trazado_141836" data-name="Trazado 141836" d="M-1.914-8.486H-.361a1.614,1.614,0,0,0,1.846-1.807,1.562,1.562,0,0,0-.439-1.147A1.666,1.666,0,0,0-.2-11.885a1.784,1.784,0,0,0-1.138.381,1.162,1.162,0,0,0-.483.947H-5.107a3.369,3.369,0,0,1,.625-2,4.127,4.127,0,0,1,1.733-1.372,5.926,5.926,0,0,1,2.437-.493,5.823,5.823,0,0,1,3.73,1.084,3.6,3.6,0,0,1,1.357,2.979,3,3,0,0,1-.562,1.733A4,4,0,0,1,2.578-7.3,3.823,3.823,0,0,1,4.355-6.06,3.279,3.279,0,0,1,5-3.994,3.669,3.669,0,0,1,3.535-.947,6.08,6.08,0,0,1-.312.2,6.306,6.306,0,0,1-2.905-.337,4.062,4.062,0,0,1-4.717-1.812a3.834,3.834,0,0,1-.615-2.144h3.311a1.482,1.482,0,0,0,.527,1.133,1.862,1.862,0,0,0,1.3.479,1.95,1.95,0,0,0,1.387-.483,1.616,1.616,0,0,0,.518-1.235,1.889,1.889,0,0,0-.537-1.523A2.245,2.245,0,0,0-.312-6.035h-1.6Z" transform="translate(1030.295 8774.07)" fill="#fff"/>
    <path id="Trazado_141850" data-name="Trazado 141850" d="M3.77-5.557H5.215v2.539H3.77V0H.479V-3.018h-5.5l-.2-2.012,5.693-9.16v-.029H3.77Zm-5.85,0H.479V-9.932L.273-9.6Z" transform="translate(575.295 8774.07)" fill="#fff"/>
    <path id="Trazado_141855" data-name="Trazado 141855" d="M-4.727-6.945l.869-7.273H4.453v2.539H-1.182L-1.5-8.836A3.882,3.882,0,0,1-.581-9.2,4.211,4.211,0,0,1,.537-9.355,4.171,4.171,0,0,1,3.794-8.1,5.055,5.055,0,0,1,4.932-4.58,5.046,5.046,0,0,1,4.321-2.1,4.2,4.2,0,0,1,2.607-.4,5.411,5.411,0,0,1,0,.2,5.822,5.822,0,0,1-2.51-.356,4.5,4.5,0,0,1-4.346-1.868,3.675,3.675,0,0,1-5-4.039h3.3A1.867,1.867,0,0,0-1.2-2.8,1.581,1.581,0,0,0-.02-2.344q1.66,0,1.66-2.456,0-2.271-2.031-2.271a2.027,2.027,0,0,0-1.719.741Z" transform="translate(435.295 8343.07)" fill="#fff"/>
    <g id="unido" transform="translate(1123.544 8366.333)">
      <path id="Trazado_140483" data-name="Trazado 140483" d="M203.147,197.78l-18.416-18.416a2.949,2.949,0,1,1,4.17-4.17l-4.742-4.742a2.942,2.942,0,0,1-.866-2.086,3.029,3.029,0,0,1,.038-.472,2.945,2.945,0,0,1,4.718-1.855l-1.8-1.8a2.95,2.95,0,0,1-.866-2.089,2.817,2.817,0,0,1,.04-.48,2.95,2.95,0,0,1,5-1.6l2.067,2.067a2.949,2.949,0,1,1,4.17-4.17l11.968,11.969.034-.048a5.392,5.392,0,0,1,7.633.006l5.581,5.581a5.727,5.727,0,0,1,1.677,4.041l0,3.491a6.162,6.162,0,0,0,1.806,4.352l1.245,1.244-14.234,14.233-1.59-1.59a6.164,6.164,0,0,0-3.956-1.792A5.72,5.72,0,0,1,203.147,197.78Zm0,0" transform="translate(-153.4 -131.472)" fill="#fecbaa"/>
      <path id="Trazado_140484" data-name="Trazado 140484" d="M353.829,358.239l16.156-16.155a1.363,1.363,0,0,1,1.928,0l5.754,5.753a1.364,1.364,0,0,1,0,1.928L361.51,365.92a1.364,1.364,0,0,1-1.928,0l-5.753-5.754A1.363,1.363,0,0,1,353.829,358.239Zm0,0" transform="translate(-295.789 -285.958)" fill="#fed947"/>
      <path id="Trazado_140485" data-name="Trazado 140485" d="M86.608,197.79l18.416-18.416a2.949,2.949,0,1,0-4.171-4.17l4.742-4.742a2.947,2.947,0,0,0-3.89-4.414l1.8-1.8a2.948,2.948,0,0,0,.866-2.088,2.813,2.813,0,0,0-.039-.48,2.938,2.938,0,0,0-2.44-2.431,2.949,2.949,0,0,0-2.558.828l-2.067,2.067a2.949,2.949,0,1,0-4.17-4.17L81.134,169.936l-.034-.047a5.392,5.392,0,0,0-7.633.006l-5.58,5.581a5.724,5.724,0,0,0-1.677,4.041l0,3.491A6.158,6.158,0,0,1,64.4,187.36L63.156,188.6,77.39,202.838l1.591-1.59a6.164,6.164,0,0,1,3.956-1.792A5.726,5.726,0,0,0,86.608,197.79Zm0,0" transform="translate(-52.856 -131.48)" fill="#fecbaa"/>
      <path id="Trazado_140486" data-name="Trazado 140486" d="M31.732,358.247,15.576,342.091a1.363,1.363,0,0,0-1.928,0l-5.754,5.754a1.364,1.364,0,0,0,0,1.928L24.05,365.928a1.363,1.363,0,0,0,1.928,0l5.754-5.753A1.364,1.364,0,0,0,31.732,358.247Zm0,0" transform="translate(-6.273 -285.965)" fill="#d64626"/>
      <path id="Trazado_140487" data-name="Trazado 140487" d="M179.314,84.193v26.045a2.949,2.949,0,1,1-5.9,0v6.706a2.947,2.947,0,0,1-5.871.37v2.553a2.948,2.948,0,0,1-.865,2.089,2.765,2.765,0,0,1-.367.312,2.95,2.95,0,0,1-4.668-2.4v-2.923a2.949,2.949,0,1,1-5.9,0V100.018l-.057.01a5.394,5.394,0,0,1-5.393-5.4V86.734a5.728,5.728,0,0,1,1.672-4.043l2.466-2.471a6.162,6.162,0,0,0,1.8-4.355v-1.76h20.13v2.249a6.169,6.169,0,0,0,1.53,4.065A5.721,5.721,0,0,1,179.314,84.193Zm0,0" transform="translate(-125.785 -62.02)" fill="#fedfc5"/>
      <path id="Trazado_140488" data-name="Trazado 140488" d="M172.049,175.2a2.951,2.951,0,0,0-4.173,0l4.742-4.742a2.947,2.947,0,0,0-3.89-4.414l1.8-1.8a2.948,2.948,0,0,0,.866-2.088,2.749,2.749,0,0,0-.04-.48,2.95,2.95,0,0,0-5-1.6l-2.067,2.067a2.949,2.949,0,1,0-4.17-4.17l-11.969,11.969-.034-.047a5.373,5.373,0,0,0-4.884-1.468,7.913,7.913,0,0,0,4.155,3.143V186.4a5.4,5.4,0,0,0,6.449,5.3,5.406,5.406,0,0,0,3.129,2.746l15.074-15.075A2.948,2.948,0,0,0,172.049,175.2Zm0,0" transform="translate(-119.878 -131.48)" fill="#ffae85"/>
      <path id="Trazado_140489" data-name="Trazado 140489" d="M209.363,179.692V169.276a5.4,5.4,0,0,0-.721.605l-.033.047L196.641,157.96a2.952,2.952,0,0,0-4.173,0,2.951,2.951,0,0,0,0,4.173l-2.067-2.067a2.947,2.947,0,0,0-5,1.6,2.811,2.811,0,0,0-.039.48,2.946,2.946,0,0,0,.866,2.088l1.8,1.8a2.947,2.947,0,0,0-3.891,4.414l4.742,4.742a2.949,2.949,0,1,0-4.17,4.17L197.057,191.7a5.416,5.416,0,0,0,1.014.095,5.347,5.347,0,0,0,3.156-1.021,5.394,5.394,0,0,0,2.239-4.379v-1.33q.249.023.5.023A5.4,5.4,0,0,0,209.363,179.692Zm0,0" transform="translate(-153.39 -131.474)" fill="#ffae85"/>
      <path id="Trazado_140490" data-name="Trazado 140490" d="M179.314,84.193v26.045a2.95,2.95,0,0,1-2.949,2.953c-.044,0-.091,0-.139,0a2.917,2.917,0,0,1-1.583-.554l0,0a2.948,2.948,0,0,1-1.223-2.394v6.706a2.947,2.947,0,0,1-5.871.37v2.553a2.948,2.948,0,0,1-.865,2.089,2.765,2.765,0,0,1-.367.312,2.95,2.95,0,0,1-4.668-2.4v-2.923a2.949,2.949,0,1,1-5.9,0V100.018l-.057.01a5.394,5.394,0,0,1-5.393-5.4V86.734a5.728,5.728,0,0,1,1.672-4.043l2.466-2.471a6.174,6.174,0,0,0,1.8-4.355v-1.76h20.13v2.249a5.556,5.556,0,0,0,.194,1.522,6.126,6.126,0,0,0,1.335,2.543A5.768,5.768,0,0,1,179.314,84.193Zm0,0" transform="translate(-125.785 -62.02)" fill="#fedfc5"/>
      <path id="Trazado_140491" data-name="Trazado 140491" d="M208.373,84.193v26.045a2.95,2.95,0,0,1-2.949,2.953c-.044,0-.091,0-.139,0a2.917,2.917,0,0,1-1.583-.554l.05-25.1a3.848,3.848,0,0,0-.1-.7,11.344,11.344,0,0,0-11.348-9.155H185.02a6.141,6.141,0,0,0,.275-1.82v-1.76h20.13v2.249a5.556,5.556,0,0,0,.194,1.522,6.126,6.126,0,0,0,1.335,2.543A5.767,5.767,0,0,1,208.373,84.193Zm0,0" transform="translate(-154.845 -62.02)" fill="#fecbaa"/>
      <path id="Trazado_140492" data-name="Trazado 140492" d="M193.91,18.363H171.062A1.363,1.363,0,0,1,169.7,17V8.863A1.363,1.363,0,0,1,171.062,7.5H193.91a1.363,1.363,0,0,1,1.363,1.363V17A1.363,1.363,0,0,1,193.91,18.363Zm0,0" transform="translate(-142.023 -6.277)" fill="#2a94ee"/>
      <path id="Trazado_140493" data-name="Trazado 140493" d="M202.822,447.761l-.245,1.2.236-1.2a1.223,1.223,0,1,0-.473,2.4l.022,0a1.247,1.247,0,0,0,.231.022,1.224,1.224,0,0,0,.228-2.425Zm0,0" transform="translate(-168.514 -374.715)"/>
      <path id="Trazado_140494" data-name="Trazado 140494" d="M262.05,450.262l.122,1.217-.125-1.216a1.223,1.223,0,0,0,.124,2.44c.042,0,.085,0,.127-.006l.034,0a1.223,1.223,0,0,0-.28-2.43Zm0,0" transform="translate(-218.39 -376.823)"/>
      <path id="Trazado_140495" data-name="Trazado 140495" d="M232.389,451.232h-.018A1.216,1.216,0,0,0,231.1,452.4a1.23,1.23,0,0,0,1.175,1.277h.057a1.223,1.223,0,0,0,.054-2.445Zm0,0" transform="translate(-193.411 -377.639)"/>
      <path id="Trazado_140496" data-name="Trazado 140496" d="M174.22,439.867l-.015-.006a1.216,1.216,0,0,0-1.557.74,1.227,1.227,0,1,0,1.572-.735Zm0,0" transform="translate(-144.431 -368.064)"/>
      <path id="Trazado_140497" data-name="Trazado 140497" d="M291.274,444.842l.3,1.186-.305-1.184a1.223,1.223,0,0,0,.3,2.408,1.211,1.211,0,0,0,.306-.039l.033-.008a1.223,1.223,0,0,0-.639-2.362Zm0,0" transform="translate(-242.998 -372.26)"/>
      <path id="Trazado_140498" data-name="Trazado 140498" d="M319.329,435.056l.485,1.123-.489-1.121a1.223,1.223,0,1,0,.977,2.243l.03-.013a1.223,1.223,0,0,0-1-2.231Zm0,0" transform="translate(-266.631 -364.016)"/>
      <path id="Trazado_140499" data-name="Trazado 140499" d="M147.706,81.137a1.224,1.224,0,1,0-.571-2.3l-.015.008a1.221,1.221,0,0,0,.586,2.3Zm0,0" transform="translate(-122.588 -65.855)"/>
      <path id="Trazado_140500" data-name="Trazado 140500" d="M63.892,165.555a1.223,1.223,0,0,0,1.652-.515l.022-.043a1.223,1.223,0,1,0-1.674.558Zm0,0" transform="translate(-52.923 -136.612)"/>
      <path id="Trazado_140501" data-name="Trazado 140501" d="M52.428,193.38a1.222,1.222,0,0,0,1.551-.766l.016-.048a1.224,1.224,0,1,0-1.567.815Zm0,0" transform="translate(-43.181 -159.835)"/>
      <path id="Trazado_140502" data-name="Trazado 140502" d="M79.466,139.821a1.222,1.222,0,0,0,1.709-.269l.016-.022a1.223,1.223,0,0,0-1.99-1.423l.986.725-.989-.72A1.223,1.223,0,0,0,79.466,139.821Zm0,0" transform="translate(-66.085 -115.156)"/>
      <path id="Trazado_140503" data-name="Trazado 140503" d="M122.268,97.28a1.228,1.228,0,1,0-.708-2.223l-.031.022a1.224,1.224,0,0,0,.739,2.2Zm0,0" transform="translate(-101.303 -79.356)"/>
      <path id="Trazado_140504" data-name="Trazado 140504" d="M49.7,311.22a1.223,1.223,0,1,0-.016-.053Zm0,0" transform="translate(-41.541 -259.124)"/>
      <path id="Trazado_140505" data-name="Trazado 140505" d="M99.613,117.063a1.227,1.227,0,1,0-.854-2.1l-.02.02a1.222,1.222,0,0,0,.875,2.077Zm0,0" transform="translate(-82.343 -95.916)"/>
      <path id="Trazado_140506" data-name="Trazado 140506" d="M45.786,281.259a1.223,1.223,0,0,0-2.428.3l.007.049a1.223,1.223,0,0,0,2.421-.352Zm0,0" transform="translate(-36.279 -234.496)"/>
      <path id="Trazado_140507" data-name="Trazado 140507" d="M42.778,252.611h.037a1.223,1.223,0,0,0,1.222-1.187v-.052a1.223,1.223,0,1,0-1.26,1.239Zm0,0" transform="translate(-34.808 -209.352)"/>
      <path id="Trazado_140508" data-name="Trazado 140508" d="M45.34,222.628a1.262,1.262,0,0,0,.217.019,1.224,1.224,0,0,0,1.2-1.008c0-.018.006-.036.008-.054a1.223,1.223,0,1,0-1.428,1.042Zm0,0" transform="translate(-37.102 -184.274)"/>
      <path id="Trazado_140509" data-name="Trazado 140509" d="M403.14,143.686a1.223,1.223,0,0,0,2.014-1.389l-1.017.68,1.013-.686a1.223,1.223,0,1,0-2.025,1.373Zm0,0" transform="translate(-337.203 -118.635)"/>
      <path id="Trazado_140510" data-name="Trazado 140510" d="M437.027,229.031a1.223,1.223,0,0,0-1.079,1.353l.006.053a1.224,1.224,0,0,0,1.21,1.05,1.25,1.25,0,0,0,.175-.012,1.232,1.232,0,0,0-.312-2.443Zm0,0" transform="translate(-364.843 -191.671)"/>
      <path id="Trazado_140511" data-name="Trazado 140511" d="M429.689,199.855l.005.016a1.223,1.223,0,0,0,1.173.879,1.2,1.2,0,0,0,.345-.05,1.223,1.223,0,0,0,.829-1.519l-.005-.016a1.223,1.223,0,1,0-2.347.691Zm0,0" transform="translate(-359.569 -165.947)"/>
      <path id="Trazado_140512" data-name="Trazado 140512" d="M418.666,170.736a1.23,1.23,0,0,0,1.1.687,1.222,1.222,0,0,0,1.1-1.759l-1.109.517,1.107-.519a1.223,1.223,0,0,0-2.215,1.038Zm0,0" transform="translate(-350.273 -141.402)"/>
      <path id="Trazado_140513" data-name="Trazado 140513" d="M383.556,119.442a1.232,1.232,0,1,0-.037-.039Zm0,0" transform="translate(-320.699 -98.212)"/>
      <path id="Trazado_140514" data-name="Trazado 140514" d="M438.576,260.385a1.231,1.231,0,0,0-.1,2.459l.069,0a1.223,1.223,0,0,0,1.22-1.156l0-.05A1.221,1.221,0,0,0,438.576,260.385Zm0,0" transform="translate(-365.994 -217.918)"/>
      <path id="Trazado_140515" data-name="Trazado 140515" d="M334.189,81.566l.029.016a1.218,1.218,0,0,0,1.647-.5,1.227,1.227,0,0,0-.5-1.656l-.592,1.07.588-1.073a1.223,1.223,0,1,0-1.176,2.145Zm0,0" transform="translate(-279.154 -66.342)"/>
      <path id="Trazado_140516" data-name="Trazado 140516" d="M360.361,98.539l.019.015a1.223,1.223,0,0,0,1.479-1.949l-.008-.006a1.223,1.223,0,1,0-1.49,1.941Zm0,0" transform="translate(-301.189 -80.633)"/>
      <path id="Trazado_140517" data-name="Trazado 140517" d="M82.747,60.984l-5.742-5.752a2.583,2.583,0,0,0-3.657,0l-.133.133-.377-.377a4.937,4.937,0,0,1-1.071-1.6,1.192,1.192,0,0,0-.087-.227,4.946,4.946,0,0,1-.285-1.661V49.871a1.232,1.232,0,1,0-.008-2.174,6.9,6.9,0,0,0-2.021-4.6L63.8,37.517a6.609,6.609,0,0,0-8.451-.759l-.591-.594V22.173a6.946,6.946,0,0,0-1.723-4.581A4.936,4.936,0,0,1,51.8,14.335V13.31h.084a2.589,2.589,0,0,0,2.586-2.587V2.587A2.589,2.589,0,0,0,51.888,0H29.039a2.589,2.589,0,0,0-2.586,2.587v8.137a2.589,2.589,0,0,0,2.586,2.587h.189v.536a4.908,4.908,0,0,1-1.444,3.491l-2.466,2.471a6.9,6.9,0,0,0-2.029,4.907v7.891A6.6,6.6,0,0,0,24,35.587a6.568,6.568,0,0,0-4.292,1.929L14.137,43.1A6.9,6.9,0,0,0,12.108,48V51.5a4.907,4.907,0,0,1-1.443,3.491l-.373.373,0,0-.133-.133a2.583,2.583,0,0,0-3.657,0L.755,60.984a2.593,2.593,0,0,0,0,3.658l1.967,1.969a1.223,1.223,0,1,0,1.731-1.728l-1.966-1.97a.142.142,0,0,1,0-.2l5.743-5.752a.137.137,0,0,1,.194,0l1,1h0L23.054,71.616l1.527,1.53a.142.142,0,0,1,0,.2L18.839,79.1a.137.137,0,0,1-.195,0L7.916,68.352A1.223,1.223,0,1,0,6.184,70.08L16.913,80.827a2.583,2.583,0,0,0,3.657,0l5.742-5.752a2.592,2.592,0,0,0,0-3.657l-.062-.062.724-.726a4.915,4.915,0,0,1,3.164-1.435,6.921,6.921,0,0,0,4.454-2.02l5.275-5.286a4.188,4.188,0,0,0,3.027-3.19,4.171,4.171,0,0,0,5.96-3.774v-2.9a4.169,4.169,0,0,0,5.9-3.8V39.632l3.763,3.781a1.223,1.223,0,0,0,1.734-1.726l-3.137-3.152a4.166,4.166,0,0,1,4.952.711l5.571,5.579A4.472,4.472,0,0,1,68.948,48V51.5a7.339,7.339,0,0,0,2.158,5.219l.38.38-1.774,1.777L58.981,69.624l-.6-.6-.018-.018-.105-.106a7.365,7.365,0,0,0-4.737-2.147,4.486,4.486,0,0,1-2.885-1.309l-4.019-4a1.223,1.223,0,1,0-1.725,1.734l4.017,3.994a6.921,6.921,0,0,0,4.454,2.02,4.917,4.917,0,0,1,3.164,1.434l.059.059a1.177,1.177,0,0,0,.1.1l.564.564-.062.063a2.592,2.592,0,0,0,0,3.657l5.742,5.752a2.584,2.584,0,0,0,3.658,0L82.747,64.642A2.592,2.592,0,0,0,82.747,60.984ZM72.215,48.821l-.023,0-.223-.045ZM32.861,65.447a4.477,4.477,0,0,1-2.88,1.307A7.365,7.365,0,0,0,25.243,68.9l-.722.723-.65-.651-.025-.025L12.016,57.1l.38-.38A7.339,7.339,0,0,0,14.554,51.5V48a4.469,4.469,0,0,1,1.314-3.179l5.571-5.579a4.165,4.165,0,0,1,4.958-.707l-3.142,3.147a1.223,1.223,0,0,0,1.732,1.728l3.753-3.76V54.924a4.171,4.171,0,0,0,5.983,3.763A4.192,4.192,0,0,0,36.8,61.5ZM52.306,48.219a1.726,1.726,0,1,1-3.452,0V34.575a1.223,1.223,0,0,0-2.446,0V54.925a1.725,1.725,0,0,1-3.426.286V34.56a1.236,1.236,0,0,0-2.472.014v20.35a4.194,4.194,0,0,0,.025.459v2.465a1.726,1.726,0,1,1-3.451,0v-23.3a1.223,1.223,0,0,0-2.447,0V54.924a1.726,1.726,0,1,1-3.451,0V32.171a1.223,1.223,0,1,0-2.446,0V36.38a1.2,1.2,0,0,0-.294.141,4.186,4.186,0,0,1-2.711-3.915V24.715a4.472,4.472,0,0,1,1.314-3.179l2.466-2.471a7.337,7.337,0,0,0,2.158-5.219V13.31h2.459a1.223,1.223,0,0,0,0-2.446H29.039a.14.14,0,0,1-.14-.14V2.587a.14.14,0,0,1,.14-.14H51.887a.14.14,0,0,1,.14.14v8.137a.14.14,0,0,1-.14.14H39.876a1.223,1.223,0,0,0,0,2.446h9.482v1.025a7.386,7.386,0,0,0,1.832,4.872,4.5,4.5,0,0,1,1.117,2.967Zm28.71,14.695L64.858,79.1a.131.131,0,0,1-.1.041.133.133,0,0,1-.1-.041l-5.742-5.752a.142.142,0,0,1,0-.2l.924-.926h0l9.38-9.4,5.853-5.863a.137.137,0,0,1,.194,0l5.743,5.752A.142.142,0,0,1,81.016,62.913Zm0,0"/>
      <path id="Trazado_140518" data-name="Trazado 140518" d="M195.119,32.8a1.3,1.3,0,1,0,1.3,1.3A1.305,1.305,0,0,0,195.119,32.8Zm0,0" transform="translate(-162.207 -27.455)"/>
      <path id="Trazado_140519" data-name="Trazado 140519" d="M456.717,374.688a1.3,1.3,0,1,0,1.3,1.3A1.305,1.305,0,0,0,456.717,374.688Zm0,0" transform="translate(-381.14 -313.58)"/>
      <path id="Trazado_140520" data-name="Trazado 140520" d="M111.617,444.508a1.3,1.3,0,1,0-1.3,1.3A1.305,1.305,0,0,0,111.617,444.508Zm0,0" transform="translate(-91.233 -370.921)"/>
    </g>
    <g id="companero" transform="translate(984.295 8796.206)">
      <path id="Trazado_140521" data-name="Trazado 140521" d="M347.494,10l20.547,20.551-9.184,9.186-20.55-21.083Zm0,0" transform="translate(-276.858 -8.184)" fill="#2a94ee"/>
      <path id="Trazado_140522" data-name="Trazado 140522" d="M42.822,32.547,19.552,55.821,10,46.276,33.276,23Zm0,0" transform="translate(-8.184 -18.823)" fill="#d64626"/>
      <path id="Trazado_140523" data-name="Trazado 140523" d="M133.221,78.724l-20.55-21.083a9.4,9.4,0,0,1-6.955,3.1,12.648,12.648,0,0,0-9.565,3.647l-.973.973-.973-.973c-2.4-2.4-4.982-3.238-8.345-3.493L62.59,84.169l6.9,6.88-1.927,1.927A4.541,4.541,0,0,0,73.986,99.4a4.541,4.541,0,0,0,6.421,6.423,4.541,4.541,0,0,0,6.423,6.421,4.541,4.541,0,0,0,6.421,6.423l1.927-1.927,1.927,1.927a4.541,4.541,0,1,0,6.421-6.423,4.541,4.541,0,1,0,6.423-6.421A4.541,4.541,0,0,0,116.37,99.4a4.541,4.541,0,0,0,6.423-6.421l-1.928-1.927Zm0,0" transform="translate(-51.221 -47.171)" fill="#ffcebf"/>
      <path id="Trazado_140524" data-name="Trazado 140524" d="M394.407,63.95a1.816,1.816,0,1,0-2.568,0A1.817,1.817,0,0,0,394.407,63.95Zm0,0" transform="translate(-320.229 -49.797)"/>
      <path id="Trazado_140525" data-name="Trazado 140525" d="M116.516,84.664a1.816,1.816,0,1,0-2.569,0A1.817,1.817,0,0,0,116.516,84.664Zm0,0" transform="translate(-92.814 -66.75)"/>
      <path id="Trazado_140526" data-name="Trazado 140526" d="M57.671,117.74l5.436-5.439a1.816,1.816,0,0,0-2.569-2.569L55.1,115.171a1.816,1.816,0,0,0,2.569,2.569Zm0,0" transform="translate(-44.658 -89.366)"/>
      <path id="Trazado_140527" data-name="Trazado 140527" d="M422.646,96.916a1.816,1.816,0,0,0,2.569-2.569l-3.624-3.624a1.816,1.816,0,1,0-2.569,2.569Zm0,0" transform="translate(-342.476 -73.809)"/>
      <path id="Trazado_140528" data-name="Trazado 140528" d="M92.468,21.083,71.921.532A1.815,1.815,0,0,0,69.391.494c-1.6,1.5-9.1,8.567-9.2,8.673l-.02.018A7.614,7.614,0,0,1,54.5,11.754a14.414,14.414,0,0,0-10.537,3.882,13.526,13.526,0,0,0-8.5-3.661L26.376,2.893a1.817,1.817,0,0,0-2.569,0L.532,26.169a1.813,1.813,0,0,0-.04,2.525c.014.015.026.03.04.044L15.7,43.88l-.641.641a6.351,6.351,0,0,0,4.562,10.846,6.35,6.35,0,0,0,6.422,6.424,6.346,6.346,0,0,0,6.422,6.42,6.356,6.356,0,0,0,10.851,4.567l.643-.643.643.643a6.357,6.357,0,0,0,10.852-4.563,6.347,6.347,0,0,0,6.418-6.421,6.354,6.354,0,0,0,6.425-6.427,6.351,6.351,0,0,0,4.562-10.846l-.641-.641c12.664-12.65-3.356,3.383,20.252-20.23A1.816,1.816,0,0,0,92.468,21.083ZM4.386,27.452,25.092,6.746l6.978,6.978-20.7,20.7ZM17.626,50.943a2.724,2.724,0,0,1,0-3.853l6.423-6.423A2.725,2.725,0,1,1,27.9,44.521l-6.421,6.421A2.732,2.732,0,0,1,17.626,50.943Zm6.423,6.423a2.723,2.723,0,0,1,0-3.854L30.47,47.09a2.725,2.725,0,0,1,3.854,3.852h0L27.9,57.365A2.727,2.727,0,0,1,24.049,57.365Zm6.421,6.421a2.723,2.723,0,0,1,0-3.852l6.423-6.423a2.725,2.725,0,0,1,3.853,3.853h0l-6.42,6.42A2.731,2.731,0,0,1,30.47,63.786Zm6.423,6.423a2.723,2.723,0,0,1,0-3.854l6.421-6.421a2.725,2.725,0,0,1,3.853,3.853l-6.422,6.423A2.729,2.729,0,0,1,36.893,70.209Zm14.128,0a2.727,2.727,0,0,1-3.852,0l-.643-.643,3.211-3.211a6.563,6.563,0,0,0,.595-.69l.688.689h0A2.722,2.722,0,0,1,51.02,70.209ZM70.288,50.942a2.73,2.73,0,0,1-3.854,0l-8.348-8.348a1.816,1.816,0,0,0-2.569,2.569l8.349,8.349a2.725,2.725,0,0,1-3.853,3.853l-8.348-8.351a1.817,1.817,0,0,0-2.569,2.569l8.348,8.35a2.724,2.724,0,0,1-1.927,4.65c-1.726,0-2.283-1.359-3.919-2.791a6.354,6.354,0,0,0-6.421-6.29,6.35,6.35,0,0,0-6.423-6.418,6.35,6.35,0,0,0-6.421-6.425A6.357,6.357,0,0,0,21.48,38.1l-3.213,3.213L13.939,37,35.318,15.614A9.808,9.808,0,0,1,41.381,18.2l-5.132,5.131A7.266,7.266,0,1,0,46.526,33.6l5.138-5.138L70.287,47.091A2.726,2.726,0,0,1,70.288,50.942Zm-.641-9.631L54.233,25.9l1.284-1.284a1.817,1.817,0,0,0-2.569-2.569l-8.991,8.992A3.633,3.633,0,0,1,38.818,25.9l7.4-7.395c2.154-2.154,4.708-3.116,8.28-3.116a10.666,10.666,0,0,0,6.865-2.407L79.447,31.536Zm12.37-12.344L64.041,10.525,70.6,4.347l18.017,18.02Zm0,0" transform="translate(0 0)"/>
    </g>
    <g id="investigacion" transform="translate(536.2 8783.909)">
      <g id="Grupo_82142" data-name="Grupo 82142" transform="translate(1.586 10.857)">
        <path id="Trazado_140529" data-name="Trazado 140529" d="M358.168,310.068l-.736.454a5.413,5.413,0,0,1-7.449-1.767l-15.106-24.5,9.951-6.136,15.106,24.5A5.413,5.413,0,0,1,358.168,310.068Z" transform="translate(-284.669 -238.121)" fill="#d64626"/>
        <path id="Trazado_140540" data-name="Trazado 140540" d="M19.057,0A19.057,19.057,0,1,1,0,19.057,19.057,19.057,0,0,1,19.057,0Z" transform="translate(21.321 0)" fill="#2a94ee"/>
        <circle id="Elipse_4602" data-name="Elipse 4602" cx="12.358" cy="12.358" r="12.358" transform="translate(28.02 6.699)" fill="#dff7f9"/>
        <g id="Grupo_82141" data-name="Grupo 82141" transform="translate(0 8.493)">
          <path id="Trazado_140530" data-name="Trazado 140530" d="M54.035,104.525v32.845H10.257V74.409H34.293s-4.831,13.153.924,21.451C39.764,102.417,44.722,104.623,54.035,104.525Z" transform="translate(-10.257 -74.409)" fill="#fff"/>
          <path id="Trazado_140531" data-name="Trazado 140531" d="M317.959,237.865l4.521,7.932,6.107-3.649L323.67,234.3Z" transform="translate(-270.367 -209.567)" fill="#fff"/>
        </g>
      </g>
      <g id="Grupo_82143" data-name="Grupo 82143" transform="translate(0 9.276)">
        <circle id="Elipse_4603" data-name="Elipse 4603" cx="1.547" cy="1.547" r="1.547" transform="translate(21.298 71.408)"/>
        <path id="Trazado_140532" data-name="Trazado 140532" d="M78.13,74.405,63.1,50.025a1.586,1.586,0,0,0-2.183-.518l-.763.47-3.454-5.6a20.644,20.644,0,1,0-31.42-26.613H1.586A1.586,1.586,0,0,0,0,19.35V82.31A1.586,1.586,0,0,0,1.586,83.9h14.16a1.586,1.586,0,0,0,0-3.173H3.173V20.936h20.21A20.632,20.632,0,0,0,42,50.554c.593,0,1.186-.028,1.779-.08v30.25H29.983a1.586,1.586,0,0,0,0,3.173H45.364a1.586,1.586,0,0,0,1.586-1.586V49.948q.664-.165,1.321-.375l3.453,5.6-.763.47a1.586,1.586,0,0,0-.518,2.183l15.033,24.38a7.143,7.143,0,0,0,9.823,2.33l.5-.308h0a7.147,7.147,0,0,0,2.33-9.823ZM27.094,39.085a17.471,17.471,0,1,1,24.041,5.7,17.491,17.491,0,0,1-24.041-5.7Zm24.152,9.268c.525-.265,1.044-.551,1.554-.866s1-.648,1.472-1l3.179,5.155-3.025,1.865Zm9.983,4.688L72.07,70.622l-7.251,4.471L53.978,57.512ZM74.135,81.528l-.5.308a3.971,3.971,0,0,1-5.457-1.294l-1.694-2.748,7.251-4.471,1.694,2.748A3.971,3.971,0,0,1,74.135,81.528Z" transform="translate(0 -9.276)"/>
        <path id="Trazado_140533" data-name="Trazado 140533" d="M208.7,69.736a13.935,13.935,0,1,0-6.249,8.652,13.852,13.852,0,0,0,6.249-8.652Zm-7.914,5.951c-5.056,3.117-13.416,1.211-15.408-4.6h10.78a1.586,1.586,0,1,0,0-3.173h-11.7a10.8,10.8,0,0,1,.061-3.173h11.642a1.586,1.586,0,1,0,0-3.173H185.565a10.77,10.77,0,1,1,15.217,14.12Z" transform="translate(-153.163 -45.88)"/>
        <path id="Trazado_140534" data-name="Trazado 140534" d="M42.966,154.393h8.566a1.586,1.586,0,1,0,0-3.173H42.966a1.586,1.586,0,1,0,0,3.173Z" transform="translate(-34.98 -129.266)"/>
        <path id="Trazado_140535" data-name="Trazado 140535" d="M42.966,195.419h8.566a1.586,1.586,0,1,0,0-3.173H42.966a1.586,1.586,0,1,0,0,3.173Z" transform="translate(-34.98 -163.946)"/>
        <path id="Trazado_140536" data-name="Trazado 140536" d="M42.966,236.444H56.556a1.586,1.586,0,0,0,0-3.173H42.966a1.586,1.586,0,0,0,0,3.173Z" transform="translate(-34.98 -198.626)"/>
        <path id="Trazado_140537" data-name="Trazado 140537" d="M42.966,277.47H65.281a1.586,1.586,0,1,0,0-3.173H42.966a1.586,1.586,0,1,0,0,3.173Z" transform="translate(-34.98 -233.307)"/>
        <path id="Trazado_140538" data-name="Trazado 140538" d="M42.966,318.495h31.04a1.586,1.586,0,1,0,0-3.173H42.966a1.586,1.586,0,1,0,0,3.173Z" transform="translate(-34.98 -267.986)"/>
        <path id="Trazado_140539" data-name="Trazado 140539" d="M42.966,359.521h31.04a1.586,1.586,0,1,0,0-3.173H42.966a1.586,1.586,0,1,0,0,3.173Z" transform="translate(-34.98 -302.667)"/>
      </g>
    </g>
    <g id="puesta-en-marcha" transform="translate(387.556 8366.333)">
      <path id="Trazado_140541" data-name="Trazado 140541" d="M405.328,10a77.385,77.385,0,0,1-4.294,20.7l-16.4-16.4A77.384,77.384,0,0,1,405.328,10Z" transform="translate(-316.663 -8.234)" fill="#d64626"/>
      <path id="Trazado_140542" data-name="Trazado 140542" d="M217.109,34.3l16.4,16.4a57.93,57.93,0,0,1-13.2,21.788A69.075,69.075,0,0,1,199.494,86.66L181.152,68.317a70.143,70.143,0,0,1,9.47-15.58,65.61,65.61,0,0,1,4.7-5.238A57.93,57.93,0,0,1,217.109,34.3Z" transform="translate(-149.14 -28.24)" fill="#fff"/>
      <path id="Trazado_140543" data-name="Trazado 140543" d="M332.394,113.5a7.069,7.069,0,1,1-10,0A7.069,7.069,0,0,1,332.394,113.5Z" transform="translate(-263.721 -91.736)" fill="#2a94ee"/>
      <g id="Grupo_82144" data-name="Grupo 82144" transform="translate(18.692 21.664)">
        <path id="Trazado_140544" data-name="Trazado 140544" d="M292.974,277.31c9.108,13.661-7.941,22.492-17.492,22.492a13.13,13.13,0,0,0,3.538-11.456l-1.864-1.864a70.142,70.142,0,0,0,15.58-9.47Z" transform="translate(-245.493 -249.724)" fill="#d64626"/>
        <path id="Trazado_140545" data-name="Trazado 140545" d="M163.266,239.743l-.286-.286a3.425,3.425,0,0,1-.963-3.232,61.576,61.576,0,0,1,3.3-9.424l18.342,18.342a61.578,61.578,0,0,1-9.424,3.3,3.426,3.426,0,0,1-3.232-.963l-.286-.286Z" transform="translate(-151.999 -208.387)" fill="#d64626"/>
        <path id="Trazado_140546" data-name="Trazado 140546" d="M128.263,125.191l.3.239a70.143,70.143,0,0,0-9.47,15.58l-1.864-1.864a13.13,13.13,0,0,0-11.456,3.538C105.772,133.132,114.6,116.083,128.263,125.191Z" transform="translate(-105.772 -122.596)" fill="#d64626"/>
      </g>
      <path id="Trazado_140547" data-name="Trazado 140547" d="M117.039,300.041l7.454,7.454a13.926,13.926,0,0,1-3.727,6.27c-4.14,4.14-14.994,5-14.994,5s.857-10.853,5-14.994A13.926,13.926,0,0,1,117.039,300.041Z" transform="translate(-87.08 -247.021)" fill="#fed947"/>
      <path id="Trazado_140548" data-name="Trazado 140548" d="M254.6,243.435a1.767,1.767,0,1,0-2.5,0A1.768,1.768,0,0,0,254.6,243.435Z" transform="translate(-207.128 -197.935)"/>
      <path id="Trazado_140549" data-name="Trazado 140549" d="M325.682,116.5a8.836,8.836,0,1,0-12.5,0A8.831,8.831,0,0,0,325.682,116.5Zm-10-10a5.3,5.3,0,1,1,0,7.5A5.3,5.3,0,0,1,315.685,106.5Z" transform="translate(-255.716 -83.494)"/>
      <path id="Trazado_140550" data-name="Trazado 140550" d="M97.109,43.384A1.767,1.767,0,0,0,99.035,43a11.249,11.249,0,0,1,9.356-3.139l.619.619a62.154,62.154,0,0,0-2.919,8.583,5,5,0,0,0,.214,3.069,16.734,16.734,0,0,0-4.772,3.365c-4.549,4.549-5.472,15.634-5.509,16.1a1.767,1.767,0,0,0,1.761,1.906q.069,0,.139-.005c.47-.037,11.556-.961,16.1-5.509a16.735,16.735,0,0,0,3.364-4.771,4.99,4.99,0,0,0,3.071.213,62.161,62.161,0,0,0,8.581-2.918l.619.619a11.25,11.25,0,0,1-3.139,9.356,1.767,1.767,0,0,0,1.25,3.016c6.994,0,16.772-4.165,20.374-10.894,1.564-2.922,2.629-7.545-.767-13.315,1.44-1.217,2.826-2.489,4.134-3.8a59.168,59.168,0,0,0,13.615-22.449A78.5,78.5,0,0,0,169.524,1.83,1.767,1.767,0,0,0,167.695,0a78.5,78.5,0,0,0-21.221,4.394A59.163,59.163,0,0,0,124.024,18.01c-1.307,1.307-2.58,2.694-3.8,4.134-5.769-3.4-10.392-2.331-13.315-.767-6.729,3.6-10.894,13.38-10.894,20.374A1.768,1.768,0,0,0,97.109,43.384Zm14.42,22.11C109.1,67.923,103.4,69.2,99.8,69.728c.523-3.6,1.805-9.3,4.235-11.732a12.735,12.735,0,0,1,4.524-2.973l5.947,5.947A12.732,12.732,0,0,1,111.53,65.493Zm8.056-5.483a1.658,1.658,0,0,1-1.544-.5l-8.025-8.025a1.659,1.659,0,0,1-.5-1.544,57.377,57.377,0,0,1,2.206-6.749L126.334,57.8A57.34,57.34,0,0,1,119.586,60.011Zm25.447.934c-2.315,4.326-8.145,7.514-13.457,8.612a15.04,15.04,0,0,0,1.448-9.705,1.845,1.845,0,0,0-.537-.893,71.475,71.475,0,0,0,12.1-7.424C146.428,54.895,146.58,58.055,145.033,60.945Zm17.656-41.757L150.338,6.837a79.446,79.446,0,0,1,15.505-3.154A79.458,79.458,0,0,1,162.689,19.188Zm-36.165,1.321a55.1,55.1,0,0,1,20.087-12.4l14.807,14.807A55.1,55.1,0,0,1,149.017,43a64.138,64.138,0,0,1-5.1,4.572,67.892,67.892,0,0,1-14.087,8.733L113.22,39.693a67.88,67.88,0,0,1,8.732-14.087A64.126,64.126,0,0,1,126.524,20.509Zm-17.943,3.984c2.891-1.547,6.051-1.4,9.41.444a71.449,71.449,0,0,0-7.424,12.1,1.863,1.863,0,0,0-.935-.549,15.1,15.1,0,0,0-9.662,1.46C101.067,32.638,104.255,26.808,108.581,24.493Z" transform="translate(-79.05 0)"/>
      <path id="Trazado_140551" data-name="Trazado 140551" d="M198.037,418.137l5-5a1.767,1.767,0,1,0-2.5-2.5l-5,5a1.767,1.767,0,0,0,2.5,2.5Z" transform="translate(-160.558 -337.649)"/>
      <path id="Trazado_140552" data-name="Trazado 140552" d="M56.608,276.715l5-5a1.767,1.767,0,1,0-2.5-2.5l-5,5a1.767,1.767,0,1,0,2.5,2.5Z" transform="translate(-44.12 -221.219)"/>
      <path id="Trazado_140553" data-name="Trazado 140553" d="M97.339,424.789l-11.97,11.969a1.767,1.767,0,0,0,2.5,2.5l11.97-11.968a1.767,1.767,0,0,0-2.5-2.5Z" transform="translate(-69.856 -349.299)"/>
      <path id="Trazado_140554" data-name="Trazado 140554" d="M17.339,424.789,5.369,436.757a1.767,1.767,0,0,0,2.5,2.5l11.97-11.968a1.767,1.767,0,0,0-2.5-2.5Z" transform="translate(-3.993 -349.299)"/>
      <path id="Trazado_140555" data-name="Trazado 140555" d="M3.018,354.4l11.968-11.97a1.767,1.767,0,1,0-2.5-2.5L.519,351.9a1.767,1.767,0,1,0,2.5,2.5Z" transform="translate(0 -279.433)"/>
      <path id="Trazado_140556" data-name="Trazado 140556" d="M282.888,203.506l2.5-2.5a1.767,1.767,0,0,0-2.5-2.5l-2.5,2.5a1.767,1.767,0,1,0,2.5,2.5Z" transform="translate(-230.414 -163.004)"/>
    </g>
  </g>
</svg>
