<svg xmlns="http://www.w3.org/2000/svg" width="820" height="400" viewBox="0 0 820 400">
  <g id="Grupo_82877" data-name="Grupo 82877" transform="translate(-403.058 -8146.07)">
    <path id="Rectángulo_30804" data-name="Rectángulo 30804" d="M0,0H820V400H0Z" transform="translate(403.058 8146.07)" fill="#f6f6f6"/>
    <path id="Trazado_141724" data-name="Trazado 141724" d="M15.023-2.156A6.1,6.1,0,0,1,12.34-.393,11.238,11.238,0,0,1,8.5.234,7.614,7.614,0,0,1,4.611-.732,6.448,6.448,0,0,1,2.033-3.539,9.878,9.878,0,0,1,1.1-7.863v-1.16a10.491,10.491,0,0,1,.861-4.424,6.372,6.372,0,0,1,2.484-2.859,7.156,7.156,0,0,1,3.8-.99A7.127,7.127,0,0,1,13-15.85a6.185,6.185,0,0,1,2.027,4.213H11.6a3.4,3.4,0,0,0-1.037-2.145,3.312,3.312,0,0,0-2.209-.68,3.117,3.117,0,0,0-2.73,1.348,7.086,7.086,0,0,0-.949,4.008v1.09A6.746,6.746,0,0,0,5.7-3.961,3.491,3.491,0,0,0,8.684-2.59a3.9,3.9,0,0,0,2.824-.844V-6.375h-3.2v-2.59h6.715ZM24.773-9.5A9.2,9.2,0,0,0,23.555-9.6a2.481,2.481,0,0,0-2.52,1.3V0H17.648V-12.68h3.2l.094,1.512a3.138,3.138,0,0,1,2.824-1.746,3.549,3.549,0,0,1,1.055.152ZM33.4,0a3.761,3.761,0,0,1-.34-1.137,4.1,4.1,0,0,1-3.2,1.371A4.5,4.5,0,0,1,26.771-.844a3.467,3.467,0,0,1-1.225-2.719,3.583,3.583,0,0,1,1.494-3.094,7.373,7.373,0,0,1,4.318-1.09h1.559v-.727a2.089,2.089,0,0,0-.451-1.406,1.775,1.775,0,0,0-1.424-.527A2.018,2.018,0,0,0,29.7-10a1.393,1.393,0,0,0-.486,1.125H25.828a3.4,3.4,0,0,1,.68-2.039,4.493,4.493,0,0,1,1.922-1.471,7,7,0,0,1,2.789-.533,5.534,5.534,0,0,1,3.721,1.178,4.12,4.12,0,0,1,1.377,3.311v5.5a6.062,6.062,0,0,0,.5,2.73V0ZM30.6-2.355a2.917,2.917,0,0,0,1.383-.334,2.194,2.194,0,0,0,.938-.9v-2.18H31.652q-2.543,0-2.707,1.758l-.012.2a1.356,1.356,0,0,0,.445,1.043A1.73,1.73,0,0,0,30.6-2.355ZM31.887-18h3.691l-3.246,3.633H29.578ZM39.738,0V-10.2H37.852V-12.68h1.887v-.586a4.755,4.755,0,0,1,1.471-3.686,5.917,5.917,0,0,1,4.084-1.295,13.546,13.546,0,0,1,3.844.691l-.492,2.8a15,15,0,0,0-1.781-.439,8.752,8.752,0,0,0-1.359-.1q-2.367,0-2.367,2.1v.516h2.5V-10.2h-2.5V0Zm10.98,0h-3.4V-12.68h3.4Zm8.074-2.5a2.221,2.221,0,0,0,1.523-.516,1.807,1.807,0,0,0,.609-1.371H64.1a4.344,4.344,0,0,1-.7,2.361A4.64,4.64,0,0,1,61.506-.357a5.923,5.923,0,0,1-2.654.592,5.5,5.5,0,0,1-4.289-1.729,6.84,6.84,0,0,1-1.57-4.775v-.223a6.762,6.762,0,0,1,1.559-4.676,5.441,5.441,0,0,1,4.277-1.746,5.333,5.333,0,0,1,3.814,1.354,4.792,4.792,0,0,1,1.459,3.6H60.926a2.327,2.327,0,0,0-.609-1.608,2.032,2.032,0,0,0-1.547-.619,2.04,2.04,0,0,0-1.787.863,5,5,0,0,0-.6,2.8v.352a5.063,5.063,0,0,0,.6,2.817A2.065,2.065,0,0,0,58.793-2.5ZM73.383,0a3.761,3.761,0,0,1-.34-1.137,4.1,4.1,0,0,1-3.2,1.371A4.5,4.5,0,0,1,66.756-.844a3.467,3.467,0,0,1-1.225-2.719,3.583,3.583,0,0,1,1.494-3.094,7.373,7.373,0,0,1,4.318-1.09H72.9v-.727a2.089,2.089,0,0,0-.451-1.406,1.775,1.775,0,0,0-1.424-.527,2.018,2.018,0,0,0-1.342.41A1.393,1.393,0,0,0,69.2-8.871H65.813a3.4,3.4,0,0,1,.68-2.039,4.493,4.493,0,0,1,1.922-1.471,7,7,0,0,1,2.789-.533,5.534,5.534,0,0,1,3.721,1.178A4.12,4.12,0,0,1,76.3-8.426v5.5A6.062,6.062,0,0,0,76.8-.2V0Zm-2.8-2.355a2.917,2.917,0,0,0,1.383-.334,2.194,2.194,0,0,0,.938-.9v-2.18H71.637q-2.543,0-2.707,1.758l-.012.2a1.356,1.356,0,0,0,.445,1.043A1.73,1.73,0,0,0,70.582-2.355Zm13.77-4.078a7.641,7.641,0,0,1,1.33-4.723,4.316,4.316,0,0,1,3.639-1.758,3.884,3.884,0,0,1,3.059,1.383V-18h3.4V0H92.719l-.164-1.348A3.985,3.985,0,0,1,89.3.234a4.3,4.3,0,0,1-3.592-1.764A7.887,7.887,0,0,1,84.352-6.434Zm3.387.241a5.033,5.033,0,0,0,.621,2.743,2.022,2.022,0,0,0,1.8.954,2.265,2.265,0,0,0,2.215-1.33V-8.853a2.233,2.233,0,0,0-2.191-1.33Q87.738-10.184,87.738-6.193Zm16.5,6.427A6.225,6.225,0,0,1,99.7-1.477a6.082,6.082,0,0,1-1.752-4.559v-.328a7.66,7.66,0,0,1,.738-3.416,5.418,5.418,0,0,1,2.092-2.32,5.871,5.871,0,0,1,3.088-.814,5.262,5.262,0,0,1,4.1,1.641,6.667,6.667,0,0,1,1.494,4.652v1.383h-8.074a3.146,3.146,0,0,0,.99,1.992,2.993,2.993,0,0,0,2.092.75,3.656,3.656,0,0,0,3.059-1.418l1.664,1.863a5.084,5.084,0,0,1-2.062,1.682A6.767,6.767,0,0,1,104.238.234Zm-.387-10.418a2.116,2.116,0,0,0-1.635.683,3.535,3.535,0,0,0-.8,1.954h4.711v-.271a2.521,2.521,0,0,0-.609-1.748A2.183,2.183,0,0,0,103.852-10.184ZM114.949,0h-3.4V-18h3.4Zm20.18-6.223a7.6,7.6,0,0,1-1.33,4.693A4.264,4.264,0,0,1,130.207.234,3.95,3.95,0,0,1,127.1-1.1V4.875h-3.387V-12.68h3.141l.117,1.242a3.98,3.98,0,0,1,3.211-1.477,4.294,4.294,0,0,1,3.645,1.734,7.811,7.811,0,0,1,1.3,4.781Zm-3.387-.258a5.018,5.018,0,0,0-.627-2.739,2.04,2.04,0,0,0-1.822-.964A2.217,2.217,0,0,0,127.1-8.961v5.207A2.254,2.254,0,0,0,129.316-2.5Q131.742-2.5,131.742-6.481ZM144.82-1.289A4.247,4.247,0,0,1,141.352.234,4.005,4.005,0,0,1,138.24-.937a5,5,0,0,1-1.1-3.434V-12.68h3.387v8.2q0,1.983,1.8,1.983a2.445,2.445,0,0,0,2.367-1.2V-12.68h3.4V0h-3.187Zm8.953-11.391.105,1.465a4.427,4.427,0,0,1,3.645-1.7,3.679,3.679,0,0,1,3,1.184,5.522,5.522,0,0,1,1.008,3.539V0h-3.387V-8.128a2.206,2.206,0,0,0-.469-1.568,2.1,2.1,0,0,0-1.559-.487,2.329,2.329,0,0,0-2.145,1.221V0h-3.387V-12.68ZM168.152-15.8v3.117h2.168V-10.2h-2.168v6.328a1.511,1.511,0,0,0,.27,1.008,1.354,1.354,0,0,0,1.031.3,5.4,5.4,0,0,0,1-.082V-.07a6.972,6.972,0,0,1-2.051.3q-3.562,0-3.633-3.6V-10.2h-1.852V-12.68h1.852V-15.8Zm3.176,9.34a7.52,7.52,0,0,1,.727-3.363,5.319,5.319,0,0,1,2.092-2.285,6.1,6.1,0,0,1,3.17-.809,5.774,5.774,0,0,1,4.189,1.57,6.3,6.3,0,0,1,1.811,4.266l.023.867a6.627,6.627,0,0,1-1.629,4.682A5.662,5.662,0,0,1,177.34.234a5.69,5.69,0,0,1-4.377-1.758A6.744,6.744,0,0,1,171.328-6.3Zm3.387.24a4.74,4.74,0,0,0,.68,2.764,2.242,2.242,0,0,0,1.945.957,2.247,2.247,0,0,0,1.922-.945,5.186,5.186,0,0,0,.691-3.022,4.692,4.692,0,0,0-.691-2.746,2.248,2.248,0,0,0-1.945-.974,2.211,2.211,0,0,0-1.922.968A5.274,5.274,0,0,0,174.715-6.217Zm16.16-.217a7.641,7.641,0,0,1,1.33-4.723,4.316,4.316,0,0,1,3.639-1.758,3.884,3.884,0,0,1,3.059,1.383V-18h3.4V0h-3.059l-.164-1.348A3.985,3.985,0,0,1,195.82.234a4.3,4.3,0,0,1-3.592-1.764A7.887,7.887,0,0,1,190.875-6.434Zm3.387.241a5.033,5.033,0,0,0,.621,2.743,2.022,2.022,0,0,0,1.8.954,2.265,2.265,0,0,0,2.215-1.33V-8.853a2.233,2.233,0,0,0-2.191-1.33Q194.262-10.184,194.262-6.193Zm16.5,6.427a6.225,6.225,0,0,1-4.541-1.711,6.082,6.082,0,0,1-1.752-4.559v-.328a7.66,7.66,0,0,1,.738-3.416A5.418,5.418,0,0,1,207.3-12.1a5.871,5.871,0,0,1,3.088-.814,5.262,5.262,0,0,1,4.1,1.641,6.667,6.667,0,0,1,1.494,4.652v1.383H207.9a3.146,3.146,0,0,0,.99,1.992,2.993,2.993,0,0,0,2.092.75,3.656,3.656,0,0,0,3.059-1.418l1.664,1.863a5.084,5.084,0,0,1-2.062,1.682A6.767,6.767,0,0,1,210.762.234Zm-.387-10.418a2.116,2.116,0,0,0-1.635.683,3.535,3.535,0,0,0-.8,1.954h4.711v-.271a2.521,2.521,0,0,0-.609-1.748A2.183,2.183,0,0,0,210.375-10.184ZM229.711.234a6.225,6.225,0,0,1-4.541-1.711,6.082,6.082,0,0,1-1.752-4.559v-.328a7.66,7.66,0,0,1,.738-3.416,5.418,5.418,0,0,1,2.092-2.32,5.871,5.871,0,0,1,3.088-.814,5.262,5.262,0,0,1,4.1,1.641,6.667,6.667,0,0,1,1.494,4.652v1.383h-8.074a3.146,3.146,0,0,0,.99,1.992,2.993,2.993,0,0,0,2.092.75,3.656,3.656,0,0,0,3.059-1.418l1.664,1.863a5.084,5.084,0,0,1-2.062,1.682A6.767,6.767,0,0,1,229.711.234Zm-.387-10.418a2.116,2.116,0,0,0-1.635.683,3.535,3.535,0,0,0-.8,1.954H231.6v-.271a2.521,2.521,0,0,0-.609-1.748A2.183,2.183,0,0,0,229.324-10.184Zm7,3.727a7.579,7.579,0,0,1,1.33-4.723,4.348,4.348,0,0,1,3.65-1.734,3.893,3.893,0,0,1,3.246,1.559l.223-1.324h2.977V4.875h-3.4V-1.09a3.9,3.9,0,0,1-3.07,1.324,4.316,4.316,0,0,1-3.609-1.758A7.951,7.951,0,0,1,236.32-6.457Zm3.387.24a4.972,4.972,0,0,0,.639,2.77,2.045,2.045,0,0,0,1.8.951,2.278,2.278,0,0,0,2.2-1.244V-8.986a2.259,2.259,0,0,0-2.18-1.2,2.069,2.069,0,0,0-1.816.951A5.491,5.491,0,0,0,239.707-6.217ZM258-1.289A4.247,4.247,0,0,1,254.531.234,4.005,4.005,0,0,1,251.42-.937a5,5,0,0,1-1.1-3.434V-12.68h3.387v8.2q0,1.983,1.8,1.983a2.445,2.445,0,0,0,2.367-1.2V-12.68h3.4V0h-3.187ZM267.41,0h-3.4V-12.68h3.4Zm-3.6-15.961a1.668,1.668,0,0,1,.51-1.254,1.915,1.915,0,0,1,1.389-.492,1.919,1.919,0,0,1,1.383.492,1.658,1.658,0,0,1,.516,1.254,1.663,1.663,0,0,1-.521,1.266,1.924,1.924,0,0,1-1.377.492,1.924,1.924,0,0,1-1.377-.492A1.663,1.663,0,0,1,263.813-15.961ZM273.773,0h-3.4V-18h3.4Zm6.363,0h-3.4V-12.68h3.4Zm-3.6-15.961a1.668,1.668,0,0,1,.51-1.254,1.915,1.915,0,0,1,1.389-.492,1.919,1.919,0,0,1,1.383.492,1.658,1.658,0,0,1,.516,1.254,1.663,1.663,0,0,1-.521,1.266,1.924,1.924,0,0,1-1.377.492,1.924,1.924,0,0,1-1.377-.492A1.663,1.663,0,0,1,276.539-15.961Zm17.813,9.738a7.678,7.678,0,0,1-1.3,4.752A4.309,4.309,0,0,1,289.418.234a3.959,3.959,0,0,1-3.293-1.582L285.973,0h-3.047V-18h3.387v6.457a3.857,3.857,0,0,1,3.082-1.371,4.344,4.344,0,0,1,3.639,1.705,7.689,7.689,0,0,1,1.318,4.8Zm-3.387-.258a5.072,5.072,0,0,0-.609-2.815,2.058,2.058,0,0,0-1.816-.888,2.233,2.233,0,0,0-2.227,1.328v5.019a2.263,2.263,0,0,0,2.25,1.34,2.092,2.092,0,0,0,2.156-1.622A8.392,8.392,0,0,0,290.965-6.481Zm12.6-3.023a9.2,9.2,0,0,0-1.219-.094,2.481,2.481,0,0,0-2.52,1.3V0h-3.387V-12.68h3.2l.094,1.512a3.138,3.138,0,0,1,2.824-1.746,3.549,3.549,0,0,1,1.055.152Zm5.2,9.5h-3.4V-12.68h3.4Zm-3.6-15.961a1.668,1.668,0,0,1,.51-1.254,1.915,1.915,0,0,1,1.389-.492,1.919,1.919,0,0,1,1.383.492,1.658,1.658,0,0,1,.516,1.254,1.663,1.663,0,0,1-.521,1.266,1.924,1.924,0,0,1-1.377.492,1.924,1.924,0,0,1-1.377-.492A1.663,1.663,0,0,1,305.168-15.961Zm5.859,9.5a7.52,7.52,0,0,1,.727-3.363,5.319,5.319,0,0,1,2.092-2.285,6.1,6.1,0,0,1,3.17-.809,5.774,5.774,0,0,1,4.189,1.57,6.3,6.3,0,0,1,1.811,4.266l.023.867a6.627,6.627,0,0,1-1.629,4.682A5.662,5.662,0,0,1,317.039.234a5.69,5.69,0,0,1-4.377-1.758A6.744,6.744,0,0,1,311.027-6.3Zm3.387.24a4.74,4.74,0,0,0,.68,2.764,2.242,2.242,0,0,0,1.945.957,2.247,2.247,0,0,0,1.922-.945,5.186,5.186,0,0,0,.691-3.022,4.692,4.692,0,0,0-.691-2.746,2.248,2.248,0,0,0-1.945-.974,2.211,2.211,0,0,0-1.922.968A5.274,5.274,0,0,0,314.414-6.217Z" transform="translate(651.058 8186.161)" fill="#12263f"/>
    <path id="Trazado_141725" data-name="Trazado 141725" d="M6.85-3.7,10.233-14.93h3.425L8.459,0H5.25L.072-14.93H3.486ZM19.523.205a5.447,5.447,0,0,1-3.973-1.5,5.321,5.321,0,0,1-1.533-3.989v-.287a6.7,6.7,0,0,1,.646-2.989,4.741,4.741,0,0,1,1.83-2.03,5.137,5.137,0,0,1,2.7-.713,4.6,4.6,0,0,1,3.584,1.436,5.833,5.833,0,0,1,1.307,4.071v1.21H17.021a2.753,2.753,0,0,0,.866,1.743,2.619,2.619,0,0,0,1.83.656,3.2,3.2,0,0,0,2.676-1.241l1.456,1.63a4.449,4.449,0,0,1-1.8,1.471A5.921,5.921,0,0,1,19.523.205Zm-.338-9.116a1.852,1.852,0,0,0-1.43.6,3.093,3.093,0,0,0-.7,1.71h4.122V-6.84a2.206,2.206,0,0,0-.533-1.529A1.91,1.91,0,0,0,19.185-8.911ZM28.5-11.095l.092,1.282A3.874,3.874,0,0,1,31.777-11.3,3.219,3.219,0,0,1,34.4-10.264a4.832,4.832,0,0,1,.882,3.1V0H32.32V-7.112a1.93,1.93,0,0,0-.41-1.372,1.833,1.833,0,0,0-1.364-.426A2.038,2.038,0,0,0,28.67-7.842V0H25.707V-11.095Zm12.582-2.728v2.728h1.9v2.174h-1.9v5.537a1.322,1.322,0,0,0,.236.882,1.184,1.184,0,0,0,.9.267,4.726,4.726,0,0,0,.872-.072V-.062a6.1,6.1,0,0,1-1.794.267q-3.117,0-3.179-3.148V-8.921h-1.62v-2.174h1.62v-2.728ZM51.054,0a3.291,3.291,0,0,1-.3-.995,3.586,3.586,0,0,1-2.8,1.2,3.939,3.939,0,0,1-2.7-.943,3.034,3.034,0,0,1-1.072-2.379,3.135,3.135,0,0,1,1.307-2.707,6.451,6.451,0,0,1,3.779-.954h1.364v-.636a1.828,1.828,0,0,0-.395-1.23,1.553,1.553,0,0,0-1.246-.461,1.766,1.766,0,0,0-1.174.359,1.219,1.219,0,0,0-.426.984H44.43a2.977,2.977,0,0,1,.595-1.784,3.931,3.931,0,0,1,1.682-1.287,6.129,6.129,0,0,1,2.44-.467A4.842,4.842,0,0,1,52.4-10.269a3.605,3.605,0,0,1,1.2,2.9v4.809a5.3,5.3,0,0,0,.441,2.389V0ZM48.6-2.061a2.552,2.552,0,0,0,1.21-.292,1.919,1.919,0,0,0,.82-.784V-5.045H49.526q-2.225,0-2.369,1.538l-.01.174a1.186,1.186,0,0,0,.39.913A1.514,1.514,0,0,0,48.6-2.061Zm13.289-1a.955.955,0,0,0-.538-.856,6.115,6.115,0,0,0-1.728-.559q-3.958-.831-3.958-3.363a3.049,3.049,0,0,1,1.225-2.466,4.943,4.943,0,0,1,3.2-.99,5.32,5.32,0,0,1,3.379.995,3.135,3.135,0,0,1,1.266,2.584H61.78a1.434,1.434,0,0,0-.41-1.051,1.736,1.736,0,0,0-1.282-.415,1.774,1.774,0,0,0-1.159.338,1.068,1.068,0,0,0-.41.861.913.913,0,0,0,.467.795,4.8,4.8,0,0,0,1.574.523,12.856,12.856,0,0,1,1.866.5,3.066,3.066,0,0,1,2.348,2.984,2.894,2.894,0,0,1-1.3,2.456,5.618,5.618,0,0,1-3.363.938,5.867,5.867,0,0,1-2.476-.5,4.155,4.155,0,0,1-1.7-1.364,3.169,3.169,0,0,1-.615-1.871h2.81a1.547,1.547,0,0,0,.584,1.21,2.318,2.318,0,0,0,1.456.42,2.146,2.146,0,0,0,1.287-.323A1,1,0,0,0,61.893-3.066Z" transform="translate(540.058 8376.551) rotate(-90)" fill="#12263f"/>
    <path id="Trazado_141726" data-name="Trazado 141726" d="M-31.479-14.93V-5.1A5.035,5.035,0,0,1-33.012-1.22,5.91,5.91,0,0,1-37.2.205a5.976,5.976,0,0,1-4.153-1.384,4.949,4.949,0,0,1-1.569-3.8V-14.93h3.076v9.854a2.845,2.845,0,0,0,.7,2.138,2.7,2.7,0,0,0,1.943.672q2.594,0,2.635-2.728V-14.93Zm5.055,3.835.092,1.282A3.874,3.874,0,0,1-23.143-11.3a3.219,3.219,0,0,1,2.625,1.036,4.832,4.832,0,0,1,.882,3.1V0H-22.6V-7.112a1.93,1.93,0,0,0-.41-1.372,1.833,1.833,0,0,0-1.364-.426A2.038,2.038,0,0,0-26.25-7.842V0h-2.963V-11.095ZM-14.263,0h-2.974V-11.095h2.974Zm-3.148-13.966a1.459,1.459,0,0,1,.446-1.1,1.676,1.676,0,0,1,1.215-.431,1.679,1.679,0,0,1,1.21.431,1.451,1.451,0,0,1,.451,1.1,1.455,1.455,0,0,1-.456,1.107,1.684,1.684,0,0,1-1.2.431,1.684,1.684,0,0,1-1.2-.431A1.455,1.455,0,0,1-17.411-13.966Zm5.127,8.336A6.686,6.686,0,0,1-11.12-9.762,3.776,3.776,0,0,1-7.937-11.3,3.4,3.4,0,0,1-5.26-10.09v-5.66h2.974V0H-4.963l-.144-1.179A3.487,3.487,0,0,1-7.957.205,3.766,3.766,0,0,1-11.1-1.338,6.9,6.9,0,0,1-12.284-5.629Zm2.963.211a4.4,4.4,0,0,0,.543,2.4A1.769,1.769,0,0,0-7.2-2.184,1.982,1.982,0,0,0-5.26-3.348v-4.4A1.954,1.954,0,0,0-7.178-8.911Q-9.321-8.911-9.321-5.419ZM6.439,0a3.291,3.291,0,0,1-.3-.995,3.586,3.586,0,0,1-2.8,1.2,3.939,3.939,0,0,1-2.7-.943A3.034,3.034,0,0,1-.431-3.117,3.135,3.135,0,0,1,.877-5.824a6.451,6.451,0,0,1,3.779-.954H6.019v-.636a1.828,1.828,0,0,0-.395-1.23,1.553,1.553,0,0,0-1.246-.461A1.766,1.766,0,0,0,3.2-8.747a1.219,1.219,0,0,0-.426.984H-.185A2.977,2.977,0,0,1,.41-9.546a3.931,3.931,0,0,1,1.682-1.287,6.129,6.129,0,0,1,2.44-.467,4.842,4.842,0,0,1,3.256,1.031,3.605,3.605,0,0,1,1.2,2.9v4.809A5.3,5.3,0,0,0,9.434-.174V0ZM3.989-2.061A2.552,2.552,0,0,0,5.2-2.353a1.919,1.919,0,0,0,.82-.784V-5.045H4.912q-2.225,0-2.369,1.538l-.01.174a1.186,1.186,0,0,0,.39.913A1.514,1.514,0,0,0,3.989-2.061Zm6.819-3.568a6.686,6.686,0,0,1,1.164-4.132A3.776,3.776,0,0,1,15.155-11.3a3.4,3.4,0,0,1,2.676,1.21v-5.66h2.974V0H18.129l-.144-1.179A3.487,3.487,0,0,1,15.135.205a3.766,3.766,0,0,1-3.143-1.543A6.9,6.9,0,0,1,10.808-5.629Zm2.963.211a4.4,4.4,0,0,0,.543,2.4,1.769,1.769,0,0,0,1.579.834,1.982,1.982,0,0,0,1.938-1.164v-4.4a1.954,1.954,0,0,0-1.917-1.164Q13.771-8.911,13.771-5.419ZM28.208.205a5.447,5.447,0,0,1-3.973-1.5A5.321,5.321,0,0,1,22.7-5.281v-.287a6.7,6.7,0,0,1,.646-2.989,4.741,4.741,0,0,1,1.83-2.03,5.137,5.137,0,0,1,2.7-.713,4.6,4.6,0,0,1,3.584,1.436,5.833,5.833,0,0,1,1.307,4.071v1.21H25.707a2.753,2.753,0,0,0,.866,1.743,2.619,2.619,0,0,0,1.83.656A3.2,3.2,0,0,0,31.08-3.425l1.456,1.63a4.449,4.449,0,0,1-1.8,1.471A5.921,5.921,0,0,1,28.208.205ZM27.87-8.911a1.852,1.852,0,0,0-1.43.6,3.093,3.093,0,0,0-.7,1.71h4.122V-6.84a2.206,2.206,0,0,0-.533-1.529A1.91,1.91,0,0,0,27.87-8.911ZM40.462-3.066a.955.955,0,0,0-.538-.856A6.115,6.115,0,0,0,38.2-4.481q-3.958-.831-3.958-3.363a3.049,3.049,0,0,1,1.225-2.466,4.943,4.943,0,0,1,3.2-.99,5.32,5.32,0,0,1,3.379.995,3.135,3.135,0,0,1,1.266,2.584H40.349a1.434,1.434,0,0,0-.41-1.051,1.736,1.736,0,0,0-1.282-.415,1.774,1.774,0,0,0-1.159.338,1.068,1.068,0,0,0-.41.861.913.913,0,0,0,.467.795,4.8,4.8,0,0,0,1.574.523,12.856,12.856,0,0,1,1.866.5,3.066,3.066,0,0,1,2.348,2.984,2.894,2.894,0,0,1-1.3,2.456,5.618,5.618,0,0,1-3.363.938,5.867,5.867,0,0,1-2.476-.5,4.155,4.155,0,0,1-1.7-1.364,3.169,3.169,0,0,1-.615-1.871H36.7a1.547,1.547,0,0,0,.584,1.21,2.318,2.318,0,0,0,1.456.42,2.146,2.146,0,0,0,1.287-.323A1,1,0,0,0,40.462-3.066Z" transform="matrix(1, 0, 0, 1, 813.059, 8513.574)" fill="#12263f"/>
    <path id="Trazado_141727" data-name="Trazado 141727" d="M-28.691-4.008V0h-2.344V-11.375H-26.6a5.134,5.134,0,0,1,2.254.469,3.454,3.454,0,0,1,1.5,1.332,3.714,3.714,0,0,1,.523,1.965,3.266,3.266,0,0,1-1.145,2.637,4.767,4.767,0,0,1-3.168.965Zm0-1.9H-26.6a2.059,2.059,0,0,0,1.418-.437,1.591,1.591,0,0,0,.488-1.25,1.876,1.876,0,0,0-.492-1.352,1.839,1.839,0,0,0-1.359-.531h-2.148ZM-15.8-.859A2.831,2.831,0,0,1-18.113.156a2.67,2.67,0,0,1-2.074-.781,3.335,3.335,0,0,1-.73-2.289V-8.453h2.258v5.467q0,1.322,1.2,1.322a1.63,1.63,0,0,0,1.578-.8V-8.453h2.266V0h-2.125Zm5.969-7.594.07.977a2.951,2.951,0,0,1,2.43-1.133,2.453,2.453,0,0,1,2,.789A3.682,3.682,0,0,1-4.66-5.461V0H-6.918V-5.419A1.47,1.47,0,0,0-7.23-6.464,1.4,1.4,0,0,0-8.27-6.789a1.553,1.553,0,0,0-1.43.814V0h-2.258V-8.453Zm9.586-2.078v2.078H1.2V-6.8H-.246v4.219a1.007,1.007,0,0,0,.18.672.9.9,0,0,0,.688.2,3.6,3.6,0,0,0,.664-.055V-.047a4.648,4.648,0,0,1-1.367.2A2.156,2.156,0,0,1-2.5-2.242V-6.8H-3.738V-8.453H-2.5v-2.078ZM1.871-4.3a5.013,5.013,0,0,1,.484-2.242A3.546,3.546,0,0,1,3.75-8.07a4.069,4.069,0,0,1,2.113-.539A3.849,3.849,0,0,1,8.656-7.562,4.2,4.2,0,0,1,9.863-4.719l.016.578A4.418,4.418,0,0,1,8.793-1.02,3.775,3.775,0,0,1,5.879.156,3.793,3.793,0,0,1,2.961-1.016,4.5,4.5,0,0,1,1.871-4.2Zm2.258.16A3.16,3.16,0,0,0,4.582-2.3a1.5,1.5,0,0,0,1.3.638,1.5,1.5,0,0,0,1.281-.63,3.457,3.457,0,0,0,.461-2.015A3.128,3.128,0,0,0,7.16-6.14a1.5,1.5,0,0,0-1.3-.649,1.474,1.474,0,0,0-1.281.646A3.516,3.516,0,0,0,4.129-4.144ZM14.9-4.289a5.094,5.094,0,0,1,.887-3.148,2.877,2.877,0,0,1,2.426-1.172,2.589,2.589,0,0,1,2.039.922V-12H22.52V0H20.48l-.109-.9A2.657,2.657,0,0,1,18.2.156,2.869,2.869,0,0,1,15.8-1.02,5.258,5.258,0,0,1,14.9-4.289Zm2.258.161A3.355,3.355,0,0,0,17.574-2.3a1.348,1.348,0,0,0,1.2.636,1.51,1.51,0,0,0,1.477-.887V-5.9a1.489,1.489,0,0,0-1.461-.887Q17.16-6.789,17.16-4.128Zm11,4.285A4.15,4.15,0,0,1,25.133-.984a4.054,4.054,0,0,1-1.168-3.039v-.219a5.106,5.106,0,0,1,.492-2.277,3.612,3.612,0,0,1,1.395-1.547,3.914,3.914,0,0,1,2.059-.543,3.508,3.508,0,0,1,2.73,1.094,4.444,4.444,0,0,1,1,3.1v.922H26.254a2.1,2.1,0,0,0,.66,1.328,2,2,0,0,0,1.395.5,2.437,2.437,0,0,0,2.039-.945l1.109,1.242A3.389,3.389,0,0,1,30.082-.246,4.511,4.511,0,0,1,28.16.156ZM27.9-6.789a1.411,1.411,0,0,0-1.09.455,2.357,2.357,0,0,0-.535,1.3h3.141v-.181a1.681,1.681,0,0,0-.406-1.165A1.456,1.456,0,0,0,27.9-6.789ZM-28.992,22.156a4.15,4.15,0,0,1-3.027-1.141,4.054,4.054,0,0,1-1.168-3.039v-.219A5.106,5.106,0,0,1-32.7,15.48,3.612,3.612,0,0,1-31.3,13.934a3.914,3.914,0,0,1,2.059-.543,3.508,3.508,0,0,1,2.73,1.094,4.444,4.444,0,0,1,1,3.1v.922H-30.9a2.1,2.1,0,0,0,.66,1.328,2,2,0,0,0,1.395.5,2.437,2.437,0,0,0,2.039-.945l1.109,1.242a3.389,3.389,0,0,1-1.375,1.121A4.511,4.511,0,0,1-28.992,22.156Zm-.258-6.945a1.411,1.411,0,0,0-1.09.455,2.357,2.357,0,0,0-.535,1.3h3.141v-.181a1.681,1.681,0,0,0-.406-1.165A1.456,1.456,0,0,0-29.25,15.211Zm4.664,2.484a5.053,5.053,0,0,1,.887-3.148,2.9,2.9,0,0,1,2.434-1.156A2.6,2.6,0,0,1-19.1,14.43l.148-.883h1.984v11.7h-2.266V21.273a2.6,2.6,0,0,1-2.047.883,2.878,2.878,0,0,1-2.406-1.172A5.3,5.3,0,0,1-24.586,17.7Zm2.258.16A3.315,3.315,0,0,0-21.9,19.7a1.363,1.363,0,0,0,1.2.634,1.518,1.518,0,0,0,1.469-.829v-3.5a1.506,1.506,0,0,0-1.453-.8,1.38,1.38,0,0,0-1.211.634A3.661,3.661,0,0,0-22.328,17.856Zm12.2,3.285a2.831,2.831,0,0,1-2.312,1.016,2.67,2.67,0,0,1-2.074-.781,3.335,3.335,0,0,1-.73-2.289V13.547h2.258v5.467q0,1.322,1.2,1.322a1.63,1.63,0,0,0,1.578-.8V13.547h2.266V22H-10.07ZM-3.859,22H-6.125V13.547h2.266Zm-2.4-10.641a1.112,1.112,0,0,1,.34-.836,1.277,1.277,0,0,1,.926-.328,1.28,1.28,0,0,1,.922.328,1.105,1.105,0,0,1,.344.836,1.108,1.108,0,0,1-.348.844,1.283,1.283,0,0,1-.918.328A1.283,1.283,0,0,1-5.91,12.2,1.108,1.108,0,0,1-6.258,11.359ZM.383,22H-1.883V10H.383Zm4.242,0H2.359V13.547H4.625Zm-2.4-10.641a1.112,1.112,0,0,1,.34-.836,1.277,1.277,0,0,1,.926-.328,1.28,1.28,0,0,1,.922.328,1.193,1.193,0,0,1,0,1.68,1.283,1.283,0,0,1-.918.328,1.283,1.283,0,0,1-.918-.328A1.108,1.108,0,0,1,2.227,11.359ZM14.1,17.852a5.119,5.119,0,0,1-.867,3.168,2.872,2.872,0,0,1-2.422,1.137,2.639,2.639,0,0,1-2.2-1.055l-.1.9H6.484V10H8.742v4.3a2.571,2.571,0,0,1,2.055-.914,2.9,2.9,0,0,1,2.426,1.137,5.126,5.126,0,0,1,.879,3.2Zm-2.258-.172a3.381,3.381,0,0,0-.406-1.877,1.372,1.372,0,0,0-1.211-.592,1.489,1.489,0,0,0-1.484.885v3.346a1.509,1.509,0,0,0,1.5.893,1.4,1.4,0,0,0,1.438-1.081A5.6,5.6,0,0,0,11.844,17.679Zm8.4-2.015a6.134,6.134,0,0,0-.812-.062,1.654,1.654,0,0,0-1.68.867V22H15.492V13.547h2.133l.063,1.008a2.092,2.092,0,0,1,1.883-1.164,2.366,2.366,0,0,1,.7.1ZM23.711,22H21.445V13.547h2.266Zm-2.4-10.641a1.112,1.112,0,0,1,.34-.836,1.465,1.465,0,0,1,1.848,0,1.193,1.193,0,0,1,0,1.68,1.448,1.448,0,0,1-1.836,0A1.108,1.108,0,0,1,21.313,11.359ZM25.219,17.7a5.013,5.013,0,0,1,.484-2.242A3.546,3.546,0,0,1,27.1,13.93a4.069,4.069,0,0,1,2.113-.539A3.849,3.849,0,0,1,32,14.438a4.2,4.2,0,0,1,1.207,2.844l.016.578a4.418,4.418,0,0,1-1.086,3.121,3.775,3.775,0,0,1-2.914,1.176,3.793,3.793,0,0,1-2.918-1.172,4.5,4.5,0,0,1-1.09-3.187Zm2.258.16A3.16,3.16,0,0,0,27.93,19.7a1.628,1.628,0,0,0,2.578.008,3.457,3.457,0,0,0,.461-2.015,3.128,3.128,0,0,0-.461-1.831,1.5,1.5,0,0,0-1.3-.649,1.474,1.474,0,0,0-1.281.646A3.516,3.516,0,0,0,27.477,17.856Z" transform="matrix(1, 0, 0, 1, 893.999, 8343.432)" fill="#12263f"/>
    <path id="Trazado_141728" data-name="Trazado 141728" d="M-7.178-4.973A5.283,5.283,0,0,1-8.957-1.179,6.248,6.248,0,0,1-13.187.205,5.618,5.618,0,0,1-17.7-1.728a7.925,7.925,0,0,1-1.646-5.306v-.913a8.95,8.95,0,0,1,.759-3.794,5.686,5.686,0,0,1,2.169-2.517,6.075,6.075,0,0,1,3.276-.877A6.087,6.087,0,0,1-8.982-13.75,5.677,5.677,0,0,1-7.157-9.864h-3.076a3.118,3.118,0,0,0-.8-2.1,2.981,2.981,0,0,0-2.107-.651,2.614,2.614,0,0,0-2.3,1.1,6.178,6.178,0,0,0-.784,3.42v1.128A6.612,6.612,0,0,0-15.5-3.425a2.565,2.565,0,0,0,2.312,1.118,3.037,3.037,0,0,0,2.128-.651,2.941,2.941,0,0,0,.8-2.015ZM.359-3.7,3.743-14.93H7.167L1.969,0H-1.241L-6.419-14.93H-3Zm19.452-8.736H15.237V0H12.161V-12.438H7.649V-14.93H19.811Z" transform="matrix(1, 0, 0, 1, 1033.001, 8293.572)" fill="#12263f"/>
    <path id="Trazado_141729" data-name="Trazado 141729" d="M-6.168-4.973A5.283,5.283,0,0,1-7.947-1.179,6.248,6.248,0,0,1-12.177.205a5.618,5.618,0,0,1-4.517-1.933,7.925,7.925,0,0,1-1.646-5.306v-.913a8.95,8.95,0,0,1,.759-3.794,5.686,5.686,0,0,1,2.169-2.517,6.075,6.075,0,0,1,3.276-.877A6.087,6.087,0,0,1-7.972-13.75,5.677,5.677,0,0,1-6.147-9.864H-9.223a3.118,3.118,0,0,0-.8-2.1,2.981,2.981,0,0,0-2.107-.651,2.614,2.614,0,0,0-2.3,1.1,6.178,6.178,0,0,0-.784,3.42v1.128a6.612,6.612,0,0,0,.733,3.538,2.565,2.565,0,0,0,2.312,1.118,3.037,3.037,0,0,0,2.128-.651,2.941,2.941,0,0,0,.8-2.015Zm11-1.128H-1.072V0H-4.148V-14.93H5.573v2.492H-1.072v3.855H4.835ZM18.8-12.438H14.227V0H11.151V-12.438H6.639V-14.93H18.8Z" transform="matrix(1, 0, 0, 1, 1033.001, 8427.341)" fill="#12263f"/>
    <path id="Trazado_140012" data-name="Trazado 140012" d="M-3.737,36.261l252.4-135.855" transform="translate(679.334 8388.364)" fill="none" stroke="#cb3921" stroke-linecap="round" stroke-width="4"/>
    <path id="Trazado_141730" data-name="Trazado 141730" d="M261,0,0,206" transform="translate(656.558 8274.57)" fill="none" stroke="#2989ea" stroke-linecap="round" stroke-width="4"/>
    <path id="Trazado_141731" data-name="Trazado 141731" d="M0,0,316,1" transform="translate(672.558 8286.711)" fill="none" stroke="#fdd442" stroke-linecap="round" stroke-width="4"/>
    <path id="Trazado_141732" data-name="Trazado 141732" d="M0,0,316,1" transform="translate(672.558 8424.568)" fill="none" stroke="#585858" stroke-linecap="round" stroke-width="4"/>
    <path id="Trazado_141733" data-name="Trazado 141733" d="M0,0H482" transform="translate(580.558 8217.57)" fill="none" stroke="#e5e5e5" stroke-width="1"/>
    <path id="Trazado_141734" data-name="Trazado 141734" d="M0,0H482" transform="translate(580.558 8261.302)" fill="none" stroke="#e5e5e5" stroke-width="1"/>
    <path id="Trazado_141735" data-name="Trazado 141735" d="M0,0H482" transform="translate(580.558 8306.07)" fill="none" stroke="#e5e5e5" stroke-width="1"/>
    <path id="Trazado_141736" data-name="Trazado 141736" d="M0,0H482" transform="translate(580.558 8350.07)" fill="none" stroke="#e5e5e5" stroke-width="1"/>
    <path id="Trazado_141737" data-name="Trazado 141737" d="M0,0H482" transform="translate(580.558 8395.07)" fill="none" stroke="#e5e5e5" stroke-width="1"/>
    <path id="Trazado_141738" data-name="Trazado 141738" d="M0,0H482" transform="translate(580.558 8440.07)" fill="none" stroke="#e5e5e5" stroke-width="1"/>
    <path id="Trazado_141739" data-name="Trazado 141739" d="M0,0H482" transform="translate(581.714 8480.07)" fill="none" stroke="#e5e5e5" stroke-width="1"/>
  </g>
</svg>
