<svg xmlns="http://www.w3.org/2000/svg" width="505.36" height="270.513" viewBox="0 0 505.36 270.513">
  <g id="Grupo_81991" data-name="Grupo 81991" transform="translate(3928.544 1319.849)">
    <path id="Trazado_139836" data-name="Trazado 139836" d="M-3827.075-906.821s-54.137-56.589-9.156-117.855c39.911-54.359,86.443-50.643,120.583-28.584,14.541,9.395,68.858,1.7,116.357-44.432,50.569-49.108,185.831-24.985,162.363,76.648-13.066,56.588,45.294,58.2,14.632,114.341Z" transform="translate(-62.689 -166.406)" fill="#d64626" opacity="0.247"/>
    <path id="Rectángulo_30982" data-name="Rectángulo 30982" d="M.67,0H504.69a.67.67,0,0,1,.67.67v0a.67.67,0,0,1-.67.67H.67A.67.67,0,0,1,0,.67v0A.67.67,0,0,1,.67,0Z" transform="translate(-3928.544 -1073.946)" fill="#263252"/>
    <path id="Trazado_139837" data-name="Trazado 139837" d="M-3086.308-1292.995l-74.73,24.715,15,12.5h0l-64.664,67.692-56.681-48.668-226.255,185.387,1.992.031h56.363l167.344-137.115,59.756,51.307,90.638-94.886h0l16.193,13.5Z" transform="translate(-366.219 -22.612)" fill="#d64626"/>
    <g id="Grupo_81953" data-name="Grupo 81953" transform="translate(-3810.369 -1249.33)">
      <g id="Grupo_81951" data-name="Grupo 81951" transform="translate(0 0)">
        <path id="Trazado_139838" data-name="Trazado 139838" d="M-3087.473-601.841l-17.167-1.477a90.16,90.16,0,0,0-2.028-24.7,86.892,86.892,0,0,0-15.267-34.224c-14.7-19.512-58.371-30.428-58.371-30.428V-695.2l1.57-.17a6.255,6.255,0,0,0-1.57-.745v-5.971a21.093,21.093,0,0,1,4.963.486,33.9,33.9,0,0,0-4.963-.891v-3.14c63.259,1.691,83.89,39.9,90.355,69.473A118.411,118.411,0,0,1-3087.473-601.841Z" transform="translate(3180.306 732.118)" fill="#67b375"/>
        <path id="Trazado_139839" data-name="Trazado 139839" d="M-3012.342-748.631l-75.131,5.554c-.389-11.572-3.409-23.539-6.33-32.612a153.889,153.889,0,0,0-5.746-15.253c-22.476-49.248-80.756-55.922-80.756-55.922l64.685-26.49c31.249,2.352,53.172,17.359,68.505,36.2C-3017.084-800.245-3012.342-748.631-3012.342-748.631Z" transform="translate(3180.306 873.354)" fill="#94d29d"/>
      </g>
      <path id="Trazado_139840" data-name="Trazado 139840" d="M-2619.733-555.612l-75.131,5.554-17.167-1.477a90.148,90.148,0,0,0-2.028-24.7,101.918,101.918,0,0,1,12.865-6.435q1.981-.838,3.852-1.7c47.836-22.079,43.38-56.471,42.835-59.761C-2624.476-607.226-2619.733-555.612-2619.733-555.612Z" transform="translate(2787.697 680.335)" fill="#67b375" opacity="0.5"/>
      <g id="Grupo_81952" data-name="Grupo 81952" transform="translate(12.863 3.828)">
        <path id="Trazado_139841" data-name="Trazado 139841" d="M-2949.673-722.434l-66.955-1.3.236-1.289a90.289,90.289,0,0,0-4.553-42.147,84.03,84.03,0,0,0-22.788-34c-13.052-11.883-30.494-20.727-51.843-26.287l-3.289-.856,52.259-20.8.2,0c.565-.013,14.025-.216,31.326,7.967a97.155,97.155,0,0,1,27.75,19.919c10.321,10.506,19,23.731,25.805,39.308.537,1.2,13.255,29.749,12.583,46.893V-735ZM-3014-725.907l62.231,1.2.606-10.419c.266-6.849-1.786-16.944-5.937-29.2-3.153-9.308-6.425-16.626-6.458-16.7-6.684-15.307-15.194-28.286-25.3-38.588a94.977,94.977,0,0,0-27.062-19.475,81.942,81.942,0,0,0-25.492-7.48,17.351,17.351,0,0,0-8.377,1.117l-36.218,14.414a2.166,2.166,0,0,0,.142,4.076c17.613,5.671,32.276,13.785,43.683,24.185a86.234,86.234,0,0,1,23.369,34.945,95.185,95.185,0,0,1,5.419,30.242A80.239,80.239,0,0,1-3014-725.907Z" transform="translate(3098.865 849.114)" fill="#67b375"/>
      </g>
      <path id="Trazado_139842" data-name="Trazado 139842" d="M-2595.311-628.114c0,11.03-6.462,17.7-17.492,17.7s-22.452-6.665-22.452-17.7,6.109-17.627,17.139-17.627S-2595.311-639.144-2595.311-628.114Z" transform="translate(2721.339 681.69)" fill="#67b375"/>
    </g>
    <g id="Grupo_81976" data-name="Grupo 81976" transform="translate(-3705.34 -1201.373)">
      <g id="Grupo_81955" data-name="Grupo 81955" transform="translate(11.225 115.726)">
        <path id="Trazado_139843" data-name="Trazado 139843" d="M-2334.175,165.563v6.591a2.518,2.518,0,0,1-.435,1.418,2.559,2.559,0,0,1-1.192.95,2.366,2.366,0,0,1-.465.13,2.467,2.467,0,0,1-.448.041H-2441.7a2.549,2.549,0,0,1-2.537-2.41c0-.043,0-.087,0-.13v-6.591c0-.043,0-.087,0-.131a2.548,2.548,0,0,1,2.537-2.409h104.982a2.48,2.48,0,0,1,.448.041,2.364,2.364,0,0,1,.465.131,2.559,2.559,0,0,1,1.192.95A2.518,2.518,0,0,1-2334.175,165.563Z" transform="translate(2444.236 -163.023)" fill="#fed947"/>
        <path id="Trazado_139844" data-name="Trazado 139844" d="M-2385.726,174.694h-56.243a2.408,2.408,0,0,1-2.265-2.41c0-.043,0-.087,0-.13v-6.591c0-.043,0-.087,0-.131a2.408,2.408,0,0,1,2.265-2.409h49.336A20.911,20.911,0,0,0-2385.726,174.694Z" transform="translate(2444.236 -163.023)" fill="#ffa400"/>
        <g id="Grupo_81954" data-name="Grupo 81954" transform="translate(38.572)">
          <rect id="Rectángulo_30983" data-name="Rectángulo 30983" width="1.193" height="11.671" transform="translate(57.522 0)" fill="#ffa400"/>
          <rect id="Rectángulo_30984" data-name="Rectángulo 30984" width="1.193" height="11.671" transform="translate(53.483 0)" fill="#ffa400"/>
          <rect id="Rectángulo_30985" data-name="Rectángulo 30985" width="1.193" height="11.671" transform="translate(48.64 0)" fill="#ffa400"/>
          <rect id="Rectángulo_30986" data-name="Rectángulo 30986" width="1.193" height="11.671" transform="translate(41.216 0)" fill="#ffa400"/>
          <rect id="Rectángulo_30987" data-name="Rectángulo 30987" width="1.193" height="11.671" transform="translate(33.366 0)" fill="#ffa400"/>
          <rect id="Rectángulo_30988" data-name="Rectángulo 30988" width="1.193" height="11.671" transform="translate(21.33 0)" fill="#ffa400"/>
          <rect id="Rectángulo_30989" data-name="Rectángulo 30989" width="1.193" height="11.671" transform="translate(10.062 0)" fill="#ffa400"/>
          <rect id="Rectángulo_30990" data-name="Rectángulo 30990" width="1.193" height="11.671" transform="translate(0 0)" fill="#ffa400"/>
          <rect id="Rectángulo_30991" data-name="Rectángulo 30991" width="1.193" height="11.671" transform="translate(61.367 0)" fill="#ffa400"/>
          <rect id="Rectángulo_30992" data-name="Rectángulo 30992" width="1.193" height="11.671" transform="translate(63.907 0)" fill="#ffa400"/>
          <rect id="Rectángulo_30993" data-name="Rectángulo 30993" width="1.193" height="11.671" transform="translate(66.359 0)" fill="#ffa400"/>
          <path id="Trazado_139845" data-name="Trazado 139845" d="M-1766.982,163.064v11.589a2.465,2.465,0,0,1-.448.041h-.746V163.023h.746A2.477,2.477,0,0,1-1766.982,163.064Z" transform="translate(1836.379 -163.023)" fill="#ffa400"/>
          <path id="Trazado_139846" data-name="Trazado 139846" d="M-1756.484,165.057v9.427a2.557,2.557,0,0,1-1.192.95V164.107A2.557,2.557,0,0,1-1756.484,165.057Z" transform="translate(1827.538 -163.936)" fill="#ffa400"/>
        </g>
      </g>
      <g id="Grupo_81957" data-name="Grupo 81957" transform="translate(0 104.055)">
        <path id="Trazado_139847" data-name="Trazado 139847" d="M-2405.245,91.667v6.591a2.515,2.515,0,0,1-.435,1.418,2.556,2.556,0,0,1-1.192.951,2.375,2.375,0,0,1-.465.131,2.48,2.48,0,0,1-.448.041h-104.981a2.549,2.549,0,0,1-2.537-2.41c0-.044,0-.087,0-.13V91.667c0-.043,0-.087,0-.13a2.549,2.549,0,0,1,2.537-2.409h104.981c.068,0,.135,0,.2.008.028,0,.058,0,.086.009s.063.007.094.012l.067.011a2.364,2.364,0,0,1,.465.131l.066.027.065.028.128.062.073.041c.022.013.043.024.064.038.041.024.08.049.119.076s.089.063.131.1.066.052.1.08a.02.02,0,0,1,.006.005l.065.058a2.318,2.318,0,0,1,.184.19c.018.02.035.039.051.059s.032.041.049.061c.032.042.065.086.094.13A2.515,2.515,0,0,1-2405.245,91.667Z" transform="translate(2515.307 -89.127)" fill="#fed947"/>
        <path id="Trazado_139848" data-name="Trazado 139848" d="M-2456.8,100.8h-56.243a2.407,2.407,0,0,1-2.265-2.41c0-.044,0-.087,0-.13V91.667c0-.043,0-.087,0-.13a2.407,2.407,0,0,1,2.265-2.409h49.334c.022.1.045.191.068.288A20.8,20.8,0,0,0-2456.8,100.8Z" transform="translate(2515.307 -89.127)" fill="#ffa400"/>
        <g id="Grupo_81956" data-name="Grupo 81956" transform="translate(38.572 0)">
          <rect id="Rectángulo_30994" data-name="Rectángulo 30994" width="1.193" height="11.671" transform="translate(57.522 0)" fill="#ffa400"/>
          <rect id="Rectángulo_30995" data-name="Rectángulo 30995" width="1.193" height="11.671" transform="translate(53.484 0)" fill="#ffa400"/>
          <rect id="Rectángulo_30996" data-name="Rectángulo 30996" width="1.193" height="11.671" transform="translate(48.64 0)" fill="#ffa400"/>
          <rect id="Rectángulo_30997" data-name="Rectángulo 30997" width="1.193" height="11.671" transform="translate(41.216 0)" fill="#ffa400"/>
          <rect id="Rectángulo_30998" data-name="Rectángulo 30998" width="1.193" height="11.671" transform="translate(33.366 0)" fill="#ffa400"/>
          <rect id="Rectángulo_30999" data-name="Rectángulo 30999" width="1.193" height="11.671" transform="translate(21.331 0)" fill="#ffa400"/>
          <rect id="Rectángulo_31000" data-name="Rectángulo 31000" width="1.193" height="11.671" transform="translate(10.062 0)" fill="#ffa400"/>
          <rect id="Rectángulo_31001" data-name="Rectángulo 31001" width="1.193" height="11.671" transform="translate(0 0)" fill="#ffa400"/>
          <rect id="Rectángulo_31002" data-name="Rectángulo 31002" width="1.193" height="11.671" transform="translate(61.367 0)" fill="#ffa400"/>
          <rect id="Rectángulo_31003" data-name="Rectángulo 31003" width="1.193" height="11.671" transform="translate(63.907 0)" fill="#ffa400"/>
          <rect id="Rectángulo_31004" data-name="Rectángulo 31004" width="1.193" height="11.671" transform="translate(66.359 0)" fill="#ffa400"/>
          <path id="Trazado_139849" data-name="Trazado 139849" d="M-1838.05,89.166v11.59a2.494,2.494,0,0,1-.448.041h-.746V89.126h.746A2.48,2.48,0,0,1-1838.05,89.166Z" transform="translate(1907.448 -89.126)" fill="#ffa400"/>
          <path id="Trazado_139850" data-name="Trazado 139850" d="M-1827.552,91.16v9.427a2.556,2.556,0,0,1-1.192.95V90.21A2.556,2.556,0,0,1-1827.552,91.16Z" transform="translate(1898.607 -90.039)" fill="#ffa400"/>
        </g>
      </g>
      <g id="Grupo_81959" data-name="Grupo 81959" transform="translate(5.424 92.672)">
        <path id="Trazado_139851" data-name="Trazado 139851" d="M-2370.9,19.593v6.591a2.515,2.515,0,0,1-.435,1.418,2.555,2.555,0,0,1-1.192.951,2.365,2.365,0,0,1-.465.131,2.5,2.5,0,0,1-.448.041h-104.982a2.516,2.516,0,0,1-1.171-.288,2.553,2.553,0,0,1-1.358-2.008c0-.038-.007-.075-.008-.114s0-.087,0-.131V19.593c0-.043,0-.087,0-.13a2.549,2.549,0,0,1,2.537-2.41h104.982a2.482,2.482,0,0,1,.448.041,2.385,2.385,0,0,1,.465.13,2.559,2.559,0,0,1,1.192.951A2.516,2.516,0,0,1-2370.9,19.593Z" transform="translate(2480.963 -17.053)" fill="#fed947"/>
        <path id="Trazado_139852" data-name="Trazado 139852" d="M-2422.453,28.724H-2478.7a2.052,2.052,0,0,1-1.045-.288,2.569,2.569,0,0,1-1.212-2.008c0-.038-.007-.075-.008-.114s0-.087,0-.131V19.593c0-.043,0-.087,0-.13a2.408,2.408,0,0,1,2.265-2.41h49.336a21.052,21.052,0,0,0,6.562,11.383C-2422.685,28.533-2422.569,28.628-2422.453,28.724Z" transform="translate(2480.963 -17.053)" fill="#ffa400"/>
        <g id="Grupo_81958" data-name="Grupo 81958" transform="translate(38.572 0)">
          <rect id="Rectángulo_31005" data-name="Rectángulo 31005" width="1.193" height="11.671" transform="translate(57.522 0)" fill="#ffa400"/>
          <rect id="Rectángulo_31006" data-name="Rectángulo 31006" width="1.193" height="11.671" transform="translate(53.483 0)" fill="#ffa400"/>
          <rect id="Rectángulo_31007" data-name="Rectángulo 31007" width="1.193" height="11.671" transform="translate(48.64 0)" fill="#ffa400"/>
          <rect id="Rectángulo_31008" data-name="Rectángulo 31008" width="1.193" height="11.671" transform="translate(41.216 0)" fill="#ffa400"/>
          <rect id="Rectángulo_31009" data-name="Rectángulo 31009" width="1.193" height="11.671" transform="translate(33.366 0)" fill="#ffa400"/>
          <rect id="Rectángulo_31010" data-name="Rectángulo 31010" width="1.193" height="11.671" transform="translate(21.33 0)" fill="#fed947"/>
          <rect id="Rectángulo_31011" data-name="Rectángulo 31011" width="1.193" height="11.671" transform="translate(10.062 0)" fill="#ffa400"/>
          <rect id="Rectángulo_31012" data-name="Rectángulo 31012" width="1.193" height="11.671" transform="translate(0 0)" fill="#ffa400"/>
          <rect id="Rectángulo_31013" data-name="Rectángulo 31013" width="1.193" height="11.671" transform="translate(61.367 0)" fill="#ffa400"/>
          <rect id="Rectángulo_31014" data-name="Rectángulo 31014" width="1.193" height="11.671" transform="translate(63.907 0)" fill="#ffa400"/>
          <rect id="Rectángulo_31015" data-name="Rectángulo 31015" width="1.193" height="11.671" transform="translate(66.359 0)" fill="#ffa400"/>
          <path id="Trazado_139853" data-name="Trazado 139853" d="M-1803.706,17.094v11.59a2.5,2.5,0,0,1-.448.041h-.746V17.053h.746A2.5,2.5,0,0,1-1803.706,17.094Z" transform="translate(1873.104 -17.053)" fill="#ffa400"/>
          <path id="Trazado_139854" data-name="Trazado 139854" d="M-1793.207,19.088v9.427a2.559,2.559,0,0,1-1.192.951V18.137A2.555,2.555,0,0,1-1793.207,19.088Z" transform="translate(1864.261 -17.966)" fill="#ffa400"/>
        </g>
      </g>
      <g id="Grupo_81961" data-name="Grupo 81961" transform="translate(7.939 81.001)">
        <path id="Trazado_139855" data-name="Trazado 139855" d="M-2354.979-54.3v6.591a2.517,2.517,0,0,1-.435,1.418,2.555,2.555,0,0,1-1.192.951,2.384,2.384,0,0,1-.465.131,2.5,2.5,0,0,1-.448.04H-2462.5a2.549,2.549,0,0,1-2.537-2.409c0-.044,0-.087,0-.131V-54.3c0-.044,0-.087,0-.131a2.549,2.549,0,0,1,2.237-2.391,2.316,2.316,0,0,1,.3-.019h104.982a2.482,2.482,0,0,1,.448.041,2.393,2.393,0,0,1,.465.13,2.558,2.558,0,0,1,1.192.951A2.518,2.518,0,0,1-2354.979-54.3Z" transform="translate(2465.041 56.842)" fill="#fed947"/>
        <path id="Trazado_139856" data-name="Trazado 139856" d="M-2406.531-45.171h-56.242a2.407,2.407,0,0,1-2.265-2.409c0-.044,0-.087,0-.131V-54.3c0-.044,0-.087,0-.131a2.449,2.449,0,0,1,2-2.391,1.842,1.842,0,0,1,.268-.019h49.336l0,.019A20.909,20.909,0,0,0-2406.531-45.171Z" transform="translate(2465.041 56.842)" fill="#ffa400"/>
        <g id="Grupo_81960" data-name="Grupo 81960" transform="translate(38.572 0)">
          <rect id="Rectángulo_31016" data-name="Rectángulo 31016" width="1.193" height="11.671" transform="translate(57.522 0)" fill="#ffa400"/>
          <rect id="Rectángulo_31017" data-name="Rectángulo 31017" width="1.193" height="11.671" transform="translate(53.484 0)" fill="#ffa400"/>
          <rect id="Rectángulo_31018" data-name="Rectángulo 31018" width="1.193" height="11.671" transform="translate(48.64 0)" fill="#ffa400"/>
          <rect id="Rectángulo_31019" data-name="Rectángulo 31019" width="1.193" height="11.671" transform="translate(41.216 0)" fill="#ffa400"/>
          <rect id="Rectángulo_31020" data-name="Rectángulo 31020" width="1.193" height="11.671" transform="translate(33.366 0)" fill="#ffa400"/>
          <rect id="Rectángulo_31021" data-name="Rectángulo 31021" width="1.193" height="11.671" transform="translate(21.331 0)" fill="#ffa400"/>
          <rect id="Rectángulo_31022" data-name="Rectángulo 31022" width="1.193" height="11.671" transform="translate(10.063 0)" fill="#ffa400"/>
          <rect id="Rectángulo_31023" data-name="Rectángulo 31023" width="1.193" height="11.671" transform="translate(0 0)" fill="#ffa400"/>
          <rect id="Rectángulo_31024" data-name="Rectángulo 31024" width="1.193" height="11.671" transform="translate(61.367 0)" fill="#ffa400"/>
          <rect id="Rectángulo_31025" data-name="Rectángulo 31025" width="1.193" height="11.671" transform="translate(63.907 0)" fill="#ffa400"/>
          <rect id="Rectángulo_31026" data-name="Rectángulo 31026" width="1.193" height="11.671" transform="translate(66.359 0)" fill="#ffa400"/>
          <path id="Trazado_139857" data-name="Trazado 139857" d="M-1787.785-56.8v11.59a2.5,2.5,0,0,1-.448.041h-.745V-56.844h.745A2.5,2.5,0,0,1-1787.785-56.8Z" transform="translate(1857.182 56.844)" fill="#ffa400"/>
          <path id="Trazado_139858" data-name="Trazado 139858" d="M-1777.286-54.809v9.427a2.559,2.559,0,0,1-1.192.951V-55.76A2.558,2.558,0,0,1-1777.286-54.809Z" transform="translate(1848.341 55.931)" fill="#ffa400"/>
        </g>
      </g>
      <g id="Grupo_81963" data-name="Grupo 81963" transform="translate(0.221 69.348)">
        <path id="Trazado_139859" data-name="Trazado 139859" d="M-2403.848-128.082v6.591a2.517,2.517,0,0,1-.435,1.418,2.555,2.555,0,0,1-1.192.951,2.365,2.365,0,0,1-.465.131c-.049.008-.1.017-.148.022l-.083.009c-.027,0-.055,0-.083.006-.045,0-.09,0-.135,0H-2511.37a2.549,2.549,0,0,1-2.538-2.41c0-.044,0-.087,0-.13v-6.591c0-.043,0-.087,0-.13s0-.072.007-.107a2.554,2.554,0,0,1,1.9-2.224c.025-.007.052-.013.077-.018a2.536,2.536,0,0,1,.549-.06h104.982c.077,0,.153,0,.227.01l.1.011h0c.039.006.078.013.118.02a2.365,2.365,0,0,1,.465.131,2.555,2.555,0,0,1,1.192.951A2.517,2.517,0,0,1-2403.848-128.082Z" transform="translate(2513.91 130.622)" fill="#fed947"/>
        <path id="Trazado_139860" data-name="Trazado 139860" d="M-2455.4-118.951h-56.243a2.408,2.408,0,0,1-2.265-2.41c0-.044,0-.087,0-.13v-6.591c0-.043,0-.087,0-.13s0-.072.007-.107a2.473,2.473,0,0,1,1.759-2.239.716.716,0,0,1,.1-.023,1.992,1.992,0,0,1,.4-.041h49.336c.006.028.013.055.02.083a20.887,20.887,0,0,0,6.865,11.569Z" transform="translate(2513.91 130.622)" fill="#ffa400"/>
        <g id="Grupo_81962" data-name="Grupo 81962" transform="translate(38.572 0)">
          <rect id="Rectángulo_31027" data-name="Rectángulo 31027" width="1.193" height="11.671" transform="translate(57.522 0)" fill="#ffa400"/>
          <rect id="Rectángulo_31028" data-name="Rectángulo 31028" width="1.193" height="11.671" transform="translate(53.483 0)" fill="#ffa400"/>
          <rect id="Rectángulo_31029" data-name="Rectángulo 31029" width="1.193" height="11.671" transform="translate(48.64 0)" fill="#ffa400"/>
          <rect id="Rectángulo_31030" data-name="Rectángulo 31030" width="1.193" height="11.671" transform="translate(41.216 0)" fill="#ffa400"/>
          <rect id="Rectángulo_31031" data-name="Rectángulo 31031" width="1.193" height="11.671" transform="translate(33.366 0)" fill="#ffa400"/>
          <rect id="Rectángulo_31032" data-name="Rectángulo 31032" width="1.193" height="11.671" transform="translate(21.33 0)" fill="#ffa400"/>
          <rect id="Rectángulo_31033" data-name="Rectángulo 31033" width="1.193" height="11.671" transform="translate(10.062 0)" fill="#ffa400"/>
          <rect id="Rectángulo_31034" data-name="Rectángulo 31034" width="1.193" height="11.671" transform="translate(0 0)" fill="#ffa400"/>
          <rect id="Rectángulo_31035" data-name="Rectángulo 31035" width="1.193" height="11.671" transform="translate(61.367 0)" fill="#ffa400"/>
          <rect id="Rectángulo_31036" data-name="Rectángulo 31036" width="1.193" height="11.671" transform="translate(63.907 0)" fill="#ffa400"/>
          <rect id="Rectángulo_31037" data-name="Rectángulo 31037" width="1.193" height="11.671" transform="translate(66.359 0)" fill="#ffa400"/>
          <path id="Trazado_139861" data-name="Trazado 139861" d="M-1836.654-130.583v11.59a2.466,2.466,0,0,1-.448.041h-.746v-11.671h.746A2.479,2.479,0,0,1-1836.654-130.583Z" transform="translate(1906.051 130.624)" fill="#ffa400"/>
          <path id="Trazado_139862" data-name="Trazado 139862" d="M-1826.155-128.588v9.427a2.559,2.559,0,0,1-1.192.951v-11.328A2.557,2.557,0,0,1-1826.155-128.588Z" transform="translate(1897.209 129.71)" fill="#ffa400"/>
        </g>
      </g>
      <g id="Grupo_81965" data-name="Grupo 81965" transform="translate(0 57.761)">
        <path id="Trazado_139863" data-name="Trazado 139863" d="M-2405.245-201.452v6.591a2.517,2.517,0,0,1-.435,1.418,2.557,2.557,0,0,1-1.192.951,2.328,2.328,0,0,1-.362.109h0c-.034.008-.066.015-.1.021a2.479,2.479,0,0,1-.448.041h-104.981a2.3,2.3,0,0,1-.329-.023,1.146,1.146,0,0,1-.125-.02,2.549,2.549,0,0,1-2.084-2.367c0-.043,0-.087,0-.13v-6.591c0-.043,0-.087,0-.131a2.549,2.549,0,0,1,2.537-2.41h104.981c.068,0,.135,0,.2.009l.086.008c.031,0,.063.007.094.013s.045.007.067.011a2.363,2.363,0,0,1,.465.131l.066.027.065.028c.043.02.085.041.128.062s.092.051.137.079.08.049.119.076.089.063.131.1.066.052.1.08a.024.024,0,0,1,.006.006l.065.057a2.325,2.325,0,0,1,.184.19c.018.02.035.039.051.059l.049.062c.032.042.065.086.094.129A2.515,2.515,0,0,1-2405.245-201.452Z" transform="translate(2515.307 203.992)" fill="#fed947"/>
        <path id="Trazado_139864" data-name="Trazado 139864" d="M-2456.8-192.321h-56.243c-.045,0-.09,0-.134,0s-.1-.009-.145-.015a2.449,2.449,0,0,1-1.987-2.39c0-.043,0-.087,0-.13v-6.591c0-.043,0-.087,0-.131a2.407,2.407,0,0,1,2.265-2.41h49.334c.022.1.045.191.068.288a20.846,20.846,0,0,0,6.739,11.3Z" transform="translate(2515.307 203.992)" fill="#ffa400"/>
        <g id="Grupo_81964" data-name="Grupo 81964" transform="translate(38.572 0)">
          <rect id="Rectángulo_31038" data-name="Rectángulo 31038" width="1.193" height="11.671" transform="translate(57.522 0)" fill="#ffa400"/>
          <rect id="Rectángulo_31039" data-name="Rectángulo 31039" width="1.193" height="11.671" transform="translate(53.484 0)" fill="#ffa400"/>
          <rect id="Rectángulo_31040" data-name="Rectángulo 31040" width="1.193" height="11.671" transform="translate(48.64 0)" fill="#ffa400"/>
          <rect id="Rectángulo_31041" data-name="Rectángulo 31041" width="1.193" height="11.671" transform="translate(41.216 0)" fill="#ffa400"/>
          <rect id="Rectángulo_31042" data-name="Rectángulo 31042" width="1.193" height="11.671" transform="translate(33.366 0)" fill="#ffa400"/>
          <rect id="Rectángulo_31043" data-name="Rectángulo 31043" width="1.193" height="11.671" transform="translate(21.331 0)" fill="#ffa400"/>
          <rect id="Rectángulo_31044" data-name="Rectángulo 31044" width="1.193" height="11.671" transform="translate(10.062 0)" fill="#ffa400"/>
          <rect id="Rectángulo_31045" data-name="Rectángulo 31045" width="1.193" height="11.671" transform="translate(0 0)" fill="#ffa400"/>
          <rect id="Rectángulo_31046" data-name="Rectángulo 31046" width="1.193" height="11.671" transform="translate(61.367 0)" fill="#ffa400"/>
          <rect id="Rectángulo_31047" data-name="Rectángulo 31047" width="1.193" height="11.671" transform="translate(63.907 0)" fill="#ffa400"/>
          <rect id="Rectángulo_31048" data-name="Rectángulo 31048" width="1.193" height="11.671" transform="translate(66.359 0)" fill="#ffa400"/>
          <path id="Trazado_139865" data-name="Trazado 139865" d="M-1838.05-203.95v11.59a2.48,2.48,0,0,1-.448.041h-.746v-11.671h.746A2.5,2.5,0,0,1-1838.05-203.95Z" transform="translate(1907.448 203.991)" fill="#ffa400"/>
          <path id="Trazado_139866" data-name="Trazado 139866" d="M-1827.552-201.954v9.427a2.557,2.557,0,0,1-1.192.951v-11.328A2.552,2.552,0,0,1-1827.552-201.954Z" transform="translate(1898.607 203.077)" fill="#ffa400"/>
        </g>
      </g>
      <g id="Grupo_81967" data-name="Grupo 81967" transform="translate(5.424 46.378)">
        <path id="Trazado_139867" data-name="Trazado 139867" d="M-2370.9-273.524v6.591a2.517,2.517,0,0,1-.435,1.418,2.558,2.558,0,0,1-1.192.95,2.373,2.373,0,0,1-.465.131,2.478,2.478,0,0,1-.448.041h-104.982a2.516,2.516,0,0,1-1.171-.288,2.552,2.552,0,0,1-1.358-2.008c0-.038-.007-.076-.008-.114s0-.087,0-.131v-6.591c0-.043,0-.087,0-.13a2.549,2.549,0,0,1,2.537-2.409h104.982a2.465,2.465,0,0,1,.448.041,2.376,2.376,0,0,1,.465.131,2.557,2.557,0,0,1,1.192.95A2.516,2.516,0,0,1-2370.9-273.524Z" transform="translate(2480.963 276.064)" fill="#fed947"/>
        <path id="Trazado_139868" data-name="Trazado 139868" d="M-2422.453-264.393H-2478.7a2.053,2.053,0,0,1-1.045-.288,2.568,2.568,0,0,1-1.212-2.008c0-.038-.007-.076-.008-.114s0-.087,0-.131v-6.591c0-.043,0-.087,0-.13a2.408,2.408,0,0,1,2.265-2.409h49.336a21.051,21.051,0,0,0,6.562,11.383C-2422.685-264.584-2422.569-264.489-2422.453-264.393Z" transform="translate(2480.963 276.064)" fill="#ffa400"/>
        <g id="Grupo_81966" data-name="Grupo 81966" transform="translate(38.572 0)">
          <rect id="Rectángulo_31049" data-name="Rectángulo 31049" width="1.193" height="11.671" transform="translate(57.522 0)" fill="#ffa400"/>
          <rect id="Rectángulo_31050" data-name="Rectángulo 31050" width="1.193" height="11.671" transform="translate(53.483 0)" fill="#ffa400"/>
          <rect id="Rectángulo_31051" data-name="Rectángulo 31051" width="1.193" height="11.671" transform="translate(48.64 0)" fill="#ffa400"/>
          <rect id="Rectángulo_31052" data-name="Rectángulo 31052" width="1.193" height="11.671" transform="translate(41.216 0)" fill="#ffa400"/>
          <rect id="Rectángulo_31053" data-name="Rectángulo 31053" width="1.193" height="11.671" transform="translate(33.366 0)" fill="#ffa400"/>
          <rect id="Rectángulo_31054" data-name="Rectángulo 31054" width="1.193" height="11.671" transform="translate(21.33 0)" fill="#ffa400"/>
          <rect id="Rectángulo_31055" data-name="Rectángulo 31055" width="1.193" height="11.671" transform="translate(10.062 0)" fill="#ffa400"/>
          <rect id="Rectángulo_31056" data-name="Rectángulo 31056" width="1.193" height="11.671" transform="translate(0 0)" fill="#ffa400"/>
          <rect id="Rectángulo_31057" data-name="Rectángulo 31057" width="1.193" height="11.671" transform="translate(61.367 0)" fill="#ffa400"/>
          <rect id="Rectángulo_31058" data-name="Rectángulo 31058" width="1.193" height="11.671" transform="translate(63.907 0)" fill="#ffa400"/>
          <rect id="Rectángulo_31059" data-name="Rectángulo 31059" width="1.193" height="11.671" transform="translate(66.359 0)" fill="#ffa400"/>
          <path id="Trazado_139869" data-name="Trazado 139869" d="M-1803.706-276.022v11.589a2.483,2.483,0,0,1-.448.041h-.746v-11.671h.746A2.5,2.5,0,0,1-1803.706-276.022Z" transform="translate(1873.104 276.063)" fill="#ffa400"/>
          <path id="Trazado_139870" data-name="Trazado 139870" d="M-1793.207-274.028v9.427a2.554,2.554,0,0,1-1.192.95v-11.328A2.553,2.553,0,0,1-1793.207-274.028Z" transform="translate(1864.261 275.149)" fill="#ffa400"/>
        </g>
      </g>
      <g id="Grupo_81969" data-name="Grupo 81969" transform="translate(14.003 34.707)">
        <path id="Trazado_139871" data-name="Trazado 139871" d="M-2316.582-347.42v6.591a2.515,2.515,0,0,1-.435,1.418,2.556,2.556,0,0,1-1.192.951,2.364,2.364,0,0,1-.465.131,2.469,2.469,0,0,1-.448.041H-2424.1a2.549,2.549,0,0,1-2.537-2.409c0-.044,0-.087,0-.131v-6.591c0-.043,0-.087,0-.131a2.551,2.551,0,0,1,2.237-2.391,2.334,2.334,0,0,1,.3-.018h104.982a2.469,2.469,0,0,1,.448.041,2.374,2.374,0,0,1,.465.13,2.557,2.557,0,0,1,1.192.951A2.515,2.515,0,0,1-2316.582-347.42Z" transform="translate(2426.643 349.96)" fill="#fed947"/>
        <path id="Trazado_139872" data-name="Trazado 139872" d="M-2368.133-338.289h-56.242a2.408,2.408,0,0,1-2.265-2.409c0-.044,0-.087,0-.131v-6.591c0-.043,0-.087,0-.131a2.45,2.45,0,0,1,2-2.391,1.849,1.849,0,0,1,.268-.018h49.336l0,.018A20.909,20.909,0,0,0-2368.133-338.289Z" transform="translate(2426.643 349.96)" fill="#ffa400"/>
        <g id="Grupo_81968" data-name="Grupo 81968" transform="translate(38.573)">
          <rect id="Rectángulo_31060" data-name="Rectángulo 31060" width="1.193" height="11.671" transform="translate(57.522 0)" fill="#ffa400"/>
          <rect id="Rectángulo_31061" data-name="Rectángulo 31061" width="1.193" height="11.671" transform="translate(53.483 0)" fill="#ffa400"/>
          <rect id="Rectángulo_31062" data-name="Rectángulo 31062" width="1.193" height="11.671" transform="translate(48.64 0)" fill="#ffa400"/>
          <rect id="Rectángulo_31063" data-name="Rectángulo 31063" width="1.193" height="11.671" transform="translate(41.216 0)" fill="#ffa400"/>
          <rect id="Rectángulo_31064" data-name="Rectángulo 31064" width="1.193" height="11.671" transform="translate(33.366 0)" fill="#ffa400"/>
          <rect id="Rectángulo_31065" data-name="Rectángulo 31065" width="1.193" height="11.671" transform="translate(21.33 0)" fill="#ffa400"/>
          <rect id="Rectángulo_31066" data-name="Rectángulo 31066" width="1.193" height="11.671" transform="translate(10.062 0)" fill="#ffa400"/>
          <rect id="Rectángulo_31067" data-name="Rectángulo 31067" width="1.193" height="11.671" transform="translate(0 0)" fill="#ffa400"/>
          <rect id="Rectángulo_31068" data-name="Rectángulo 31068" width="1.193" height="11.671" transform="translate(61.366 0)" fill="#ffa400"/>
          <rect id="Rectángulo_31069" data-name="Rectángulo 31069" width="1.193" height="11.671" transform="translate(63.906 0)" fill="#ffa400"/>
          <rect id="Rectángulo_31070" data-name="Rectángulo 31070" width="1.193" height="11.671" transform="translate(66.359 0)" fill="#ffa400"/>
          <path id="Trazado_139873" data-name="Trazado 139873" d="M-1749.385-349.919v11.589a2.482,2.482,0,0,1-.448.041h-.746V-349.96h.746A2.485,2.485,0,0,1-1749.385-349.919Z" transform="translate(1818.782 349.96)" fill="#ffa400"/>
          <path id="Trazado_139874" data-name="Trazado 139874" d="M-1738.886-347.924v9.427a2.557,2.557,0,0,1-1.192.951v-11.328A2.556,2.556,0,0,1-1738.886-347.924Z" transform="translate(1809.94 349.046)" fill="#ffa400"/>
        </g>
      </g>
      <g id="Grupo_81971" data-name="Grupo 81971" transform="translate(0.221 23.054)">
        <path id="Trazado_139875" data-name="Trazado 139875" d="M-2403.848-421.2v6.591a2.518,2.518,0,0,1-.435,1.418,2.559,2.559,0,0,1-1.192.951,2.384,2.384,0,0,1-.465.13c-.049.008-.1.017-.148.022s-.079.009-.118.011l-.059,0-.124,0H-2511.37a2.549,2.549,0,0,1-2.538-2.409c0-.044,0-.087,0-.131V-421.2c0-.043,0-.087,0-.13a2.549,2.549,0,0,1,2.538-2.41h104.982c.045,0,.09,0,.135,0a2.558,2.558,0,0,1,.313.037,2.376,2.376,0,0,1,.465.131,2.249,2.249,0,0,1,.22.1c.045.023.088.045.131.07a.04.04,0,0,1,.014.009c.043.025.086.052.128.08a.123.123,0,0,1,.021.014,1.318,1.318,0,0,1,.114.083,2.259,2.259,0,0,1,.253.22c.025.024.049.049.071.075l.013.014c.015.015.03.031.044.048s.005.007.009.01c.025.03.05.06.074.093s.069.09.1.138A2.518,2.518,0,0,1-2403.848-421.2Z" transform="translate(2513.91 423.739)" fill="#fed947"/>
        <path id="Trazado_139876" data-name="Trazado 139876" d="M-2455.4-412.068h-56.243a2.408,2.408,0,0,1-2.265-2.409c0-.044,0-.087,0-.131V-421.2c0-.043,0-.087,0-.13a2.408,2.408,0,0,1,2.265-2.41h49.336c.02.089.041.178.065.27a20.813,20.813,0,0,0,6.82,11.383Z" transform="translate(2513.91 423.739)" fill="#ffa400"/>
        <g id="Grupo_81970" data-name="Grupo 81970" transform="translate(38.572)">
          <rect id="Rectángulo_31071" data-name="Rectángulo 31071" width="1.193" height="11.671" transform="translate(57.522 0)" fill="#ffa400"/>
          <rect id="Rectángulo_31072" data-name="Rectángulo 31072" width="1.193" height="11.671" transform="translate(53.483 0)" fill="#ffa400"/>
          <rect id="Rectángulo_31073" data-name="Rectángulo 31073" width="1.193" height="11.671" transform="translate(48.64 0)" fill="#ffa400"/>
          <rect id="Rectángulo_31074" data-name="Rectángulo 31074" width="1.193" height="11.671" transform="translate(41.216 0)" fill="#ffa400"/>
          <rect id="Rectángulo_31075" data-name="Rectángulo 31075" width="1.193" height="11.671" transform="translate(33.366 0)" fill="#ffa400"/>
          <rect id="Rectángulo_31076" data-name="Rectángulo 31076" width="1.193" height="11.671" transform="translate(21.33 0)" fill="#ffa400"/>
          <rect id="Rectángulo_31077" data-name="Rectángulo 31077" width="1.193" height="11.671" transform="translate(10.062 0)" fill="#ffa400"/>
          <rect id="Rectángulo_31078" data-name="Rectángulo 31078" width="1.193" height="11.671" transform="translate(0 0)" fill="#ffa400"/>
          <rect id="Rectángulo_31079" data-name="Rectángulo 31079" width="1.193" height="11.671" transform="translate(61.367 0)" fill="#ffa400"/>
          <rect id="Rectángulo_31080" data-name="Rectángulo 31080" width="1.193" height="11.671" transform="translate(63.907 0)" fill="#ffa400"/>
          <rect id="Rectángulo_31081" data-name="Rectángulo 31081" width="1.193" height="11.671" transform="translate(66.359 0)" fill="#ffa400"/>
          <path id="Trazado_139877" data-name="Trazado 139877" d="M-1836.654-423.7v11.589a2.466,2.466,0,0,1-.448.041h-.746v-11.671h.746A2.466,2.466,0,0,1-1836.654-423.7Z" transform="translate(1906.051 423.739)" fill="#ffa400"/>
          <path id="Trazado_139878" data-name="Trazado 139878" d="M-1826.155-421.7v9.427a2.557,2.557,0,0,1-1.192.951v-11.328A2.554,2.554,0,0,1-1826.155-421.7Z" transform="translate(1897.209 422.825)" fill="#ffa400"/>
        </g>
      </g>
      <g id="Grupo_81973" data-name="Grupo 81973" transform="translate(7.939 11.653)">
        <path id="Trazado_139879" data-name="Trazado 139879" d="M-2354.979-493.387v6.591a2.518,2.518,0,0,1-.435,1.418,2.555,2.555,0,0,1-1.192.951,2.4,2.4,0,0,1-.465.131,2.5,2.5,0,0,1-.448.041H-2462.5a2.507,2.507,0,0,1-1.135-.27,2.55,2.55,0,0,1-1.4-2.036c0-.033-.005-.069-.007-.1s0-.087,0-.13v-6.591c0-.044,0-.087,0-.131a2.55,2.55,0,0,1,2.237-2.391,2.35,2.35,0,0,1,.3-.018h104.982a2.484,2.484,0,0,1,.448.041,2.4,2.4,0,0,1,.465.13,2.559,2.559,0,0,1,1.192.951A2.519,2.519,0,0,1-2354.979-493.387Z" transform="translate(2465.041 495.927)" fill="#fed947"/>
        <path id="Trazado_139880" data-name="Trazado 139880" d="M-2406.531-484.256h-56.242a2.042,2.042,0,0,1-1.012-.27,2.564,2.564,0,0,1-1.246-2.036c0-.033-.005-.069-.007-.1s0-.087,0-.13v-6.591c0-.044,0-.087,0-.131a2.449,2.449,0,0,1,2-2.391,1.869,1.869,0,0,1,.268-.018h49.336l0,.018a21.028,21.028,0,0,0,6.579,11.383C-2406.749-484.434-2406.64-484.345-2406.531-484.256Z" transform="translate(2465.041 495.927)" fill="#ffa400"/>
        <g id="Grupo_81972" data-name="Grupo 81972" transform="translate(38.572)">
          <rect id="Rectángulo_31082" data-name="Rectángulo 31082" width="1.193" height="11.671" transform="translate(57.522 0.001)" fill="#ffa400"/>
          <rect id="Rectángulo_31083" data-name="Rectángulo 31083" width="1.193" height="11.671" transform="translate(53.484 0.001)" fill="#ffa400"/>
          <rect id="Rectángulo_31084" data-name="Rectángulo 31084" width="1.193" height="11.671" transform="translate(48.64 0.001)" fill="#ffa400"/>
          <rect id="Rectángulo_31085" data-name="Rectángulo 31085" width="1.193" height="11.671" transform="translate(41.216 0.001)" fill="#ffa400"/>
          <rect id="Rectángulo_31086" data-name="Rectángulo 31086" width="1.193" height="11.671" transform="translate(33.366 0.001)" fill="#ffa400"/>
          <rect id="Rectángulo_31087" data-name="Rectángulo 31087" width="1.193" height="11.671" transform="translate(21.331 0.001)" fill="#ffa400"/>
          <rect id="Rectángulo_31088" data-name="Rectángulo 31088" width="1.193" height="11.671" transform="translate(10.063 0.001)" fill="#ffa400"/>
          <rect id="Rectángulo_31089" data-name="Rectángulo 31089" width="1.193" height="11.671" transform="translate(0 0.001)" fill="#ffa400"/>
          <rect id="Rectángulo_31090" data-name="Rectángulo 31090" width="1.193" height="11.671" transform="translate(61.367 0.001)" fill="#ffa400"/>
          <rect id="Rectángulo_31091" data-name="Rectángulo 31091" width="1.193" height="11.671" transform="translate(63.907 0.001)" fill="#ffa400"/>
          <rect id="Rectángulo_31092" data-name="Rectángulo 31092" width="1.193" height="11.671" transform="translate(66.359 0.001)" fill="#ffa400"/>
          <path id="Trazado_139881" data-name="Trazado 139881" d="M-1787.785-495.888V-484.3a2.467,2.467,0,0,1-.448.041h-.745v-11.671h.745A2.467,2.467,0,0,1-1787.785-495.888Z" transform="translate(1857.182 495.929)" fill="#ffa400"/>
          <path id="Trazado_139882" data-name="Trazado 139882" d="M-1777.286-493.894v9.427a2.556,2.556,0,0,1-1.192.95v-11.328A2.556,2.556,0,0,1-1777.286-493.894Z" transform="translate(1848.341 495.015)" fill="#ffa400"/>
        </g>
      </g>
      <g id="Grupo_81975" data-name="Grupo 81975" transform="translate(0.221 0)">
        <path id="Trazado_139883" data-name="Trazado 139883" d="M-2403.848-567.168v6.591a2.517,2.517,0,0,1-.435,1.418,2.558,2.558,0,0,1-1.192.951,2.384,2.384,0,0,1-.465.131c-.049.008-.1.017-.148.022l-.083.008c-.027,0-.055,0-.083.005-.045,0-.09,0-.135,0H-2511.37a2.549,2.549,0,0,1-2.538-2.409c0-.044,0-.087,0-.131v-6.591c0-.044,0-.087,0-.131a2.549,2.549,0,0,1,2.538-2.41h104.982a2.487,2.487,0,0,1,.448.041,2.384,2.384,0,0,1,.465.131,2.557,2.557,0,0,1,1.192.951A2.517,2.517,0,0,1-2403.848-567.168Z" transform="translate(2513.91 569.708)" fill="#fed947"/>
        <path id="Trazado_139884" data-name="Trazado 139884" d="M-2455.4-558.037h-56.243a2.408,2.408,0,0,1-2.265-2.409c0-.044,0-.087,0-.131v-6.591c0-.044,0-.087,0-.131a2.408,2.408,0,0,1,2.265-2.41h49.336a20.916,20.916,0,0,0,6.884,11.653Z" transform="translate(2513.91 569.708)" fill="#ffa400"/>
        <g id="Grupo_81974" data-name="Grupo 81974" transform="translate(38.572)">
          <rect id="Rectángulo_31093" data-name="Rectángulo 31093" width="1.193" height="11.671" transform="translate(57.522 0.001)" fill="#ffa400"/>
          <rect id="Rectángulo_31094" data-name="Rectángulo 31094" width="1.193" height="11.671" transform="translate(53.483 0.001)" fill="#ffa400"/>
          <rect id="Rectángulo_31095" data-name="Rectángulo 31095" width="1.193" height="11.671" transform="translate(48.64 0.001)" fill="#ffa400"/>
          <rect id="Rectángulo_31096" data-name="Rectángulo 31096" width="1.193" height="11.671" transform="translate(41.216 0.001)" fill="#ffa400"/>
          <rect id="Rectángulo_31097" data-name="Rectángulo 31097" width="1.193" height="11.671" transform="translate(33.366 0.001)" fill="#ffa400"/>
          <rect id="Rectángulo_31098" data-name="Rectángulo 31098" width="1.193" height="11.671" transform="translate(21.33 0.001)" fill="#ffa400"/>
          <rect id="Rectángulo_31099" data-name="Rectángulo 31099" width="1.193" height="11.671" transform="translate(10.062 0.001)" fill="#ffa400"/>
          <rect id="Rectángulo_31100" data-name="Rectángulo 31100" width="1.193" height="11.671" transform="translate(0 0)" fill="#ffa400"/>
          <rect id="Rectángulo_31101" data-name="Rectángulo 31101" width="1.193" height="11.671" transform="translate(61.367 0.001)" fill="#ffa400"/>
          <rect id="Rectángulo_31102" data-name="Rectángulo 31102" width="1.193" height="11.671" transform="translate(63.907 0.001)" fill="#ffa400"/>
          <rect id="Rectángulo_31103" data-name="Rectángulo 31103" width="1.193" height="11.671" transform="translate(66.359 0.001)" fill="#ffa400"/>
          <path id="Trazado_139885" data-name="Trazado 139885" d="M-1836.654-569.668v11.59a2.482,2.482,0,0,1-.448.041h-.746v-11.671h.746A2.488,2.488,0,0,1-1836.654-569.668Z" transform="translate(1906.051 569.709)" fill="#ffa400"/>
          <path id="Trazado_139886" data-name="Trazado 139886" d="M-1826.155-567.673v9.427a2.557,2.557,0,0,1-1.192.951v-11.328A2.556,2.556,0,0,1-1826.155-567.673Z" transform="translate(1897.209 568.795)" fill="#ffa400"/>
        </g>
      </g>
    </g>
    <g id="Grupo_81979" data-name="Grupo 81979" transform="translate(-3780.732 -1217.386)">
      <circle id="Elipse_4562" data-name="Elipse 4562" cx="59.415" cy="59.415" r="59.415" transform="translate(5.183 84.025) rotate(-45)" fill="#fc8100"/>
      <circle id="Elipse_4563" data-name="Elipse 4563" cx="59.415" cy="59.415" r="59.415" transform="translate(0 84.025) rotate(-45)" fill="#fed947"/>
      <g id="Grupo_81977" data-name="Grupo 81977" transform="translate(29.892 30.594)">
        <path id="Trazado_139887" data-name="Trazado 139887" d="M-2749.263-369.122a53.779,53.779,0,0,1-38.278-15.855,53.78,53.78,0,0,1-15.855-38.278,53.78,53.78,0,0,1,15.855-38.278,53.779,53.779,0,0,1,38.278-15.855,53.778,53.778,0,0,1,38.278,15.855,53.779,53.779,0,0,1,15.855,38.278,53.779,53.779,0,0,1-15.855,38.278A53.778,53.778,0,0,1-2749.263-369.122Zm0-105.037a50.571,50.571,0,0,0-35.994,14.909,50.57,50.57,0,0,0-14.909,35.995,50.569,50.569,0,0,0,14.909,35.994,50.571,50.571,0,0,0,35.994,14.909,50.57,50.57,0,0,0,35.995-14.909,50.57,50.57,0,0,0,14.909-35.994,50.571,50.571,0,0,0-14.909-35.995A50.57,50.57,0,0,0-2749.263-474.159Z" transform="translate(2803.396 477.388)" fill="#ffa400"/>
      </g>
      <g id="Grupo_81978" data-name="Grupo 81978" transform="translate(60.316 44.749)">
        <path id="Trazado_139888" data-name="Trazado 139888" d="M-2579.6-332.076a8.926,8.926,0,0,0-.128-3.143,6.529,6.529,0,0,0-1.329-2.61,12.344,12.344,0,0,0-2.658-2.345,32.545,32.545,0,0,0-4.119-2.306,85.341,85.341,0,0,1-7.606-4.18,26.939,26.939,0,0,1-5.687-4.628,15.849,15.849,0,0,1-3.359-5.641,16.332,16.332,0,0,1-.578-7.214,16.3,16.3,0,0,1,2.024-6.314,15.051,15.051,0,0,1,4.194-4.66,18.779,18.779,0,0,1,6.007-2.86,25.049,25.049,0,0,1,7.5-.865l1.059-8.923,7.181.852-1.073,9.048a22.463,22.463,0,0,1,6.759,2.874,17.441,17.441,0,0,1,4.866,4.636,17.423,17.423,0,0,1,2.7,6.219,22.6,22.6,0,0,1,.3,7.667l-12.972-1.539q.593-5-1.333-7.748a7.648,7.648,0,0,0-5.653-3.186,9.718,9.718,0,0,0-3.545.151,6.581,6.581,0,0,0-2.584,1.257,6.137,6.137,0,0,0-1.666,2.15,9.013,9.013,0,0,0-.79,2.824,8.262,8.262,0,0,0,.117,2.846,6.114,6.114,0,0,0,1.274,2.5,12.363,12.363,0,0,0,2.68,2.347,41.782,41.782,0,0,0,4.281,2.474q4.159,2.142,7.526,4.275a27.259,27.259,0,0,1,5.659,4.667,16.087,16.087,0,0,1,3.356,5.662,16.232,16.232,0,0,1,.582,7.173,16.362,16.362,0,0,1-2.061,6.435,14.862,14.862,0,0,1-4.212,4.616,18.145,18.145,0,0,1-6.039,2.751,27.046,27.046,0,0,1-7.536.8l-.985,8.3-7.136-.847.979-8.255a30.329,30.329,0,0,1-7.011-2.48,19.22,19.22,0,0,1-5.744-4.339,17.194,17.194,0,0,1-3.6-6.453,20.937,20.937,0,0,1-.6-8.78l12.972,1.539a12.9,12.9,0,0,0,.244,5.039,8.35,8.35,0,0,0,1.845,3.432,8.1,8.1,0,0,0,2.967,2.043,13.867,13.867,0,0,0,3.556.908,11.582,11.582,0,0,0,3.767-.1,7.726,7.726,0,0,0,2.849-1.185,6.151,6.151,0,0,0,1.885-2.081A7.494,7.494,0,0,0-2579.6-332.076Z" transform="translate(2610.76 387.766)" fill="#ffa400"/>
      </g>
    </g>
    <g id="Grupo_81986" data-name="Grupo 81986" transform="translate(-3579.455 -1166.495)">
      <g id="Grupo_81981" data-name="Grupo 81981" transform="translate(49.251 36.784)">
        <path id="Trazado_139889" data-name="Trazado 139889" d="M-1353.363-100.383s-6.445-7.519-.4-12.3c0,0,4.418-2.675,8.02-2.458,0,0-5.1,8.559-3.453,9.411s5-9.948,5-9.948,10.053-.975,13.287.58c0,0-8.594,7.033-6.784,7.452s11.093-6.484,11.093-6.484,9.357,1.592,8.858,7.3-3.723,7.471-5.14,7.319-9.706-3.316-9.887-2.155,4.809,4.956,8.3,5.133c0,0-6.6,7.275-10.981,5.175s-4.759-5.428-7.491-6.676-5.066-1.245-3.938.028,6.075,2.51,7.638,5.275,2.965,4.629-1.571,3.947-11.909-4-12.233-7.8Z" transform="translate(1364.257 115.975)" fill="#67b375"/>
        <g id="Grupo_81980" data-name="Grupo 81980" transform="translate(0 9.259)">
          <path id="Trazado_139890" data-name="Trazado 139890" d="M-1336.57-57.305s-25.414-.979-31.027,6.289a18.378,18.378,0,0,1-5.061,7.1l-.6,1.622s4.4-4.643,5.979-4.924C-1367.273-47.215-1369.737-56.22-1336.57-57.305Z" transform="translate(1378.491 57.349)" fill="#67b375"/>
          <path id="Trazado_139891" data-name="Trazado 139891" d="M-1400.587,24.308a15.958,15.958,0,0,0-5.834,11.243l.99.089s1.742-7.453,4.891-10.368S-1400.587,24.308-1400.587,24.308Z" transform="translate(1406.421 -10.873)" fill="#67b375"/>
        </g>
      </g>
      <g id="Grupo_81983" data-name="Grupo 81983" transform="translate(0 16.367)">
        <path id="Trazado_139892" data-name="Trazado 139892" d="M-1680.65-218.692s10.254-5.742,5.469-13.534c0,0-3.828-4.785-7.929-6.015,0,0,2.187,11.62,0,11.894s-1.5-13.125-1.5-13.125-10.8-5.195-15.038-4.785c0,0,6.7,11.347,4.511,11.074s-9.707-11.757-9.707-11.757-11.074-2.051-12.851,4.511,1.094,9.843,2.734,10.253,12.167.274,11.894,1.641-7.382,3.555-11.347,2.324c0,0,4.375,10.8,10.117,10.253s7.519-4.1,11.073-4.375,6.152.683,4.375,1.64-7.792.314-10.663,2.754-5.2,3.945.136,5.038,14.9.41,16.816-3.691Z" transform="translate(1718.259 245.244)" fill="#94d29d"/>
        <g id="Grupo_81982" data-name="Grupo 81982" transform="translate(5.619 6.865)">
          <path id="Trazado_139893" data-name="Trazado 139893" d="M-1682.682-201.775s28.709,9.3,31.99,19.686a21.811,21.811,0,0,0,2.735,9.98v2.051s-3.008-6.972-4.648-7.929C-1652.605-177.987-1646.18-187.01-1682.682-201.775Z" transform="translate(1682.682 201.775)" fill="#67b375"/>
          <path id="Trazado_139894" data-name="Trazado 139894" d="M-1470.133-20.744a18.935,18.935,0,0,1,1.9,14.907l-1.139-.306s1.106-9.014-1.211-13.548S-1470.133-20.744-1470.133-20.744Z" transform="translate(1504.858 50.41)" fill="#67b375"/>
        </g>
      </g>
      <g id="Grupo_81985" data-name="Grupo 81985" transform="translate(45.036 0)">
        <path id="Trazado_139895" data-name="Trazado 139895" d="M-1424.223-313.875s-13.516-7.569-7.208-17.841c0,0,5.046-6.307,10.452-7.929,0,0-2.883,15.318,0,15.678s1.982-17.3,1.982-17.3,14.237-6.848,19.823-6.307c0,0-8.83,14.958-5.947,14.6s12.795-15.5,12.795-15.5,14.6-2.7,16.94,5.947-1.442,12.975-3.6,13.516-16.039.36-15.679,2.162,9.731,4.685,14.958,3.064c0,0-5.767,14.237-13.335,13.516s-9.911-5.406-14.6-5.767-8.11.9-5.767,2.163,10.272.413,14.056,3.631,6.849,5.2-.18,6.641-19.643.541-22.166-4.866Z" transform="translate(1433.109 348.876)" fill="#94d29d"/>
        <g id="Grupo_81984" data-name="Grupo 81984" transform="translate(1.747 9.05)">
          <path id="Trazado_139896" data-name="Trazado 139896" d="M-1353.9-291.574s-37.844,12.254-42.169,25.95a28.745,28.745,0,0,1-3.6,13.155v2.7s3.965-9.191,6.127-10.452C-1393.543-260.217-1402.013-272.111-1353.9-291.574Z" transform="translate(1403.204 291.574)" fill="#67b375"/>
          <path id="Trazado_139897" data-name="Trazado 139897" d="M-1418.512-52.942a24.961,24.961,0,0,0-2.509,19.651l1.5-.4s-1.457-11.883,1.6-17.859S-1418.512-52.942-1418.512-52.942Z" transform="translate(1422.046 92.048)" fill="#67b375"/>
        </g>
      </g>
      <path id="Trazado_139898" data-name="Trazado 139898" d="M-1520.887,87.418a26.475,26.475,0,0,0,26.475-26.475h-52.95A26.475,26.475,0,0,0-1520.887,87.418Z" transform="translate(1574.353 3.783)" fill="#751318"/>
      <path id="Trazado_139899" data-name="Trazado 139899" d="M-1497.17,87.215a26.5,26.5,0,0,1-3.29.2,26.475,26.475,0,0,1-26.474-26.475h6.577A26.48,26.48,0,0,0-1497.17,87.215Z" transform="translate(1557.151 3.784)" fill="#97181a"/>
      <path id="Trazado_139900" data-name="Trazado 139900" d="M-1496,219.689h-53.682a3.266,3.266,0,0,1,3.266-3.266h47.15a3.266,3.266,0,0,1,3.266,3.266Z" transform="translate(1576.303 -127.141)" fill="#97181a"/>
      <rect id="Rectángulo_31104" data-name="Rectángulo 31104" width="54.423" height="0.812" transform="translate(26.12 64.726)" fill="#97181a"/>
    </g>
    <g id="Grupo_81989" data-name="Grupo 81989" transform="translate(-3803.669 -1319.848)">
      <path id="Trazado_139901" data-name="Trazado 139901" d="M-2852.886-1145.3l.009,1.605s-.437,5.02,5.745,5.753,11.251.639,11.084-3.236c-.557-3-1.555-7.655-1.6-10.137a17.456,17.456,0,0,1,.22-3.006l-11.979-.239-3.528.577Z" transform="translate(2897.938 1180.667)" fill="#ffb27b"/>
      <path id="Trazado_139902" data-name="Trazado 139902" d="M-2852.932-1153.986l.046,8.683a10.131,10.131,0,0,0,4.318.953c5.505,0,9.064-4.037,10.924-6.967a17.456,17.456,0,0,1,.22-3.006l-11.979-.239Z" transform="translate(2897.938 1180.667)" fill="#f99156"/>
      <path id="Trazado_139903" data-name="Trazado 139903" d="M-2854.367-1265.691c-1.389,7.48-11.042,7.234-15.212,6.764-1.174-.131-1.912-.28-1.912-.28-1.323-.354-2.062-2.438-2.405-5.169-.681-5.4.179-13.337,1.092-15.366,1.374-3.053,3.962-6.355,13.681-3.973S-2852.584-1275.275-2854.367-1265.691Z" transform="translate(2915.797 1290.108)" fill="#ffb27b"/>
      <path id="Trazado_139904" data-name="Trazado 139904" d="M-2771.849,192.3h-13.677a33.049,33.049,0,0,1,1.091-4.909,13.924,13.924,0,0,1,.775-1.97c1.33-2.655,9.779-.966,9.779-.966s.785.672,1.4,3.24A27.194,27.194,0,0,1-2771.849,192.3Z" transform="translate(2841.177 53.582)" fill="#1a1a1a"/>
      <path id="Trazado_139905" data-name="Trazado 139905" d="M-3109.888,158.3c-.037,1.861-.272,3.622-.947,4.317h-27.052c.344-.979,1.318-2.451,4.095-2.9,3.156-.511,8.075-2.03,10.947-5.066a8.15,8.15,0,0,0,2.12-3.838c1.273-5.667,10.523,1.736,10.523,1.736A45.8,45.8,0,0,1-3109.888,158.3Z" transform="translate(3137.887 83.261)" fill="#1a1a1a"/>
      <path id="Trazado_139906" data-name="Trazado 139906" d="M-3014.722-546.1a42.681,42.681,0,0,0-.679,5c-.86,16.775-14.121,55.13-16.492,56.024-3.67,1.385-9.45-1.559-12.473-2.522a2.593,2.593,0,0,1-1.82-2.946c6.567-30.189,8.98-73.661,9.858-99.4a116.786,116.786,0,0,1,2.669-21.918s32.342-8.629,32.534,2.286C-3000.954-599.913-3011.838-562.031-3014.722-546.1Z" transform="translate(3060.713 726.404)" fill="#20287a"/>
      <path id="Trazado_139907" data-name="Trazado 139907" d="M-2961.876-546.1l-21.605-43.844a116.8,116.8,0,0,1,2.669-21.918s32.342-8.629,32.534,2.286C-2948.109-599.913-2958.992-562.031-2961.876-546.1Z" transform="translate(3007.868 726.404)" fill="#0f1542"/>
      <path id="Trazado_139908" data-name="Trazado 139908" d="M-2892.247-600.894l17.1,123.916s7.508,1.81,13.348.362c0,0,5.006-65.9,4.588-81.837s3.592-42.633-.915-45.578S-2892.247-600.894-2892.247-600.894Z" transform="translate(2931.043 717.764)" fill="#20287a"/>
      <path id="Trazado_139909" data-name="Trazado 139909" d="M-2885.08-1316.6a32.154,32.154,0,0,0,9.324-2.523c4.1-1.781,9.263.18,10.94,1.064a2.5,2.5,0,0,0-.409-1.009,2.252,2.252,0,0,1,.864,1.281c.078.057.112.1.092.11a2.887,2.887,0,0,1,1.4.091s-.384-.055-.521.192a.24.24,0,0,1-.062.068c6.389,3.087,6.979,13.184,4.923,15.52-2.474,2.811-5.439,9.141-5.439,9.141a5.425,5.425,0,0,1-.631-3.969c.449-2.474-1.687-2.474-4.385-3.6s-.45-4.272-2.811-6.184-11.019-.787-10.906-2.249C-2885.912-1309.839-2885.08-1316.273-2885.08-1316.6Z" transform="translate(2925.089 1319.848)" fill="#1a1a1a"/>
      <path id="Trazado_139910" data-name="Trazado 139910" d="M-2928.059-1056.2-2932-971.735s-32.854.537-31.916-6.9,11.842-74.977,11.842-74.977l24.01-2.586Z" transform="translate(2991.406 1097.837)" fill="#e5f2fd"/>
      <path id="Trazado_139911" data-name="Trazado 139911" d="M-2782.813-1025.068c-1.955,5.863,1.731,25.539,3.044,32.2.289,1.41.481,2.243.481,2.243-4.55,7.4-21.214,7.306-21.214,7.306-3.2-14.164-4.871-36.723-4.871-36.723l12.786-56.047,16.086,14.869s-1.217,9.069-2.724,18.3C-2780.41-1035.611-2781.755-1028.177-2782.813-1025.068Z" transform="translate(2857.889 1114.584)" fill="#20287a"/>
      <path id="Trazado_139912" data-name="Trazado 139912" d="M-3099.11-1070.827s0,.014-.008.035c-.777.753-22.709,22.047-26.958,30.388-4.326,8.46,19.771,25.315,19.771,25.315a5.608,5.608,0,0,0,2.626.373c-1.136,9.355-2.412,17.986-1.656,21.67,1.366,6.659,7.525,8.895,7.525,8.383,0-.163,1.587-24.281,3.477-36.739,4.193-27.65,9.194-53.6,9.194-53.6A46.238,46.238,0,0,0-3099.11-1070.827Zm-13.059,34.077a.2.2,0,0,1-.032-.128c0-1.218,4.646-3.91,9.678-7.082l.1-.1.009-.006c-.089,2.591-.079,5.134.075,7.5a96.022,96.022,0,0,1-.564,14.981C-3105.3-1025.321-3111.7-1035.372-3112.169-1036.75Z" transform="translate(3128.379 1113.672)" fill="#20287a"/>
      <g id="Grupo_81988" data-name="Grupo 81988" transform="translate(38.507 35.516)">
        <path id="Trazado_139913" data-name="Trazado 139913" d="M-2812.732-1086.957c.04-.806-3.778-1.92-3.778-1.92s-4.37,6.059-11.57,6.164c0,0,2.052,3.993,4.47,5.027C-2823.61-1077.686-2812.97-1082.17-2812.732-1086.957Z" transform="translate(2838.503 1089.84)" fill="#d2e9f9"/>
        <g id="Grupo_81987" data-name="Grupo 81987" transform="translate(0 8.241)">
          <path id="Trazado_139914" data-name="Trazado 139914" d="M-2893.762-986.829a7.971,7.971,0,0,0,2.539,5.153l2.291,2.111a1.341,1.341,0,0,0,1.963-.158l2.838-3.6a4.785,4.785,0,0,0,1-3.414c-.265-2.727-.76-7.981-1.156-13.052-.322-4.109-.581-8.1-.6-10.529-.062-7.753,1.476-32.478,1.476-32.478l-1.859.1a99.541,99.541,0,0,0-7.034,22.656,86.436,86.436,0,0,0-1.285,10.18S-2894.555-995.745-2893.762-986.829Z" transform="translate(2894.074 1042.799)" fill="#e25345"/>
          <path id="Trazado_139915" data-name="Trazado 139915" d="M-2893.762-865.521a7.971,7.971,0,0,0,2.539,5.153l2.291,2.111a1.341,1.341,0,0,0,1.963-.158l2.838-3.6a4.785,4.785,0,0,0,1-3.414c-.265-2.727-.76-7.981-1.156-13.052-5.137-5.771-7.218-13.746-8.017-20.254a86.437,86.437,0,0,0-1.285,10.18S-2894.555-874.438-2893.762-865.521Z" transform="translate(2894.074 921.492)" fill="#d54b41"/>
        </g>
        <path id="Trazado_139916" data-name="Trazado 139916" d="M-2869.1-1076.063s-3.814-2.261-3.827-4.712c0,0-2.463-.309-3.539.886,0,0-.9,4.2.295,6.641C-2876.169-1073.248-2870.677-1074.084-2869.1-1076.063Z" transform="translate(2879.521 1083.048)" fill="#d2e9f9"/>
        <path id="Trazado_139917" data-name="Trazado 139917" d="M-2842.767-1059.66l-5.172-1.24a.784.784,0,0,0-.657.9c.019.842,1.457,3.3,2.094,3.5S-2841.543-1057.955-2842.767-1059.66Z" transform="translate(2855.778 1066.281)" fill="#d54b41"/>
        <path id="Trazado_139918" data-name="Trazado 139918" d="M-2813.335-1092.508c.04-.806-2.544-2.467-2.544-2.467s-5,5.845-12.2,5.95c0,0,2.052,3.993,4.47,5.027C-2823.61-1084-2813.573-1087.722-2813.335-1092.508Z" transform="translate(2838.503 1094.975)" fill="#e5f2fd"/>
        <path id="Trazado_139919" data-name="Trazado 139919" d="M-2868.936-1081.272s-3.858-2.044-3.871-4.5a12.32,12.32,0,0,0-3.4,2.219,7.078,7.078,0,0,0,.2,5.092S-2870.514-1079.294-2868.936-1081.272Z" transform="translate(2879.359 1087.222)" fill="#e5f2fd"/>
      </g>
      <path id="Trazado_139920" data-name="Trazado 139920" d="M-3007.849-706.149a3.556,3.556,0,0,1,4.021-3.558,2.2,2.2,0,0,1,1.494.825c1.465,1.95,2.858,7.623.263,7.888a5.7,5.7,0,0,1-3.459-1.427c-1.062-.807-2.319-2.07-2.319-3.4Z" transform="translate(3028.387 806.105)" fill="#ffb27b"/>
      <path id="Trazado_139921" data-name="Trazado 139921" d="M-2710.273-816.033c-4.71-4.9-12.85-14.548-12.561-22.464.384-11.087,13.106-27.59,13.106-27.59-1.186,7.306-2.532,14.741-3.589,17.849C-2715.272-842.375-2711.587-822.7-2710.273-816.033Z" transform="translate(2788.394 937.753)" fill="#0f1542"/>
      <path id="Trazado_139922" data-name="Trazado 139922" d="M-2722.479-671.274s-3.386,1.693-5.442.847-4.475-1.483-6.773,1.133-2.781,4.43-2.3,5.4,5.841.6,6.73,0,2.295-2.093,3.187-1.834c2.461.715,4.533-1.162,5.693-2.657C-2720.681-669.29-2722.57-669.727-2722.479-671.274Z" transform="translate(2800.451 773.709)" fill="#ffb27b"/>
      <path id="Trazado_139923" data-name="Trazado 139923" d="M-2724.418-1076.084s13.488,1.493,16.669,7.367,19.721,29.678,19.179,39.57-22.563,20.985-22.563,20.985-4.877-2.061-4.95-4.278,15.224-15.47,14.3-17.944-17.772-22.034-19.4-28.484S-2724.418-1076.084-2724.418-1076.084Z" transform="translate(2789.721 1114.584)" fill="#20287a"/>
      <path id="Trazado_139924" data-name="Trazado 139924" d="M-3025.938-911.381l-.1.1c-5.031,3.172-9.678,5.864-9.678,7.082-.673-2.148,5.865-11.12,7.98-12.946C-3025.586-919.008-3025.938-911.381-3025.938-911.381Z" transform="translate(3051.89 980.996)" fill="#0f1542"/>
      <path id="Trazado_139925" data-name="Trazado 139925" d="M-2797.67-1094.975s-10.24,42.887-8.61,59.042c0,0,3.765-17.264,12.824-31.4,0,0-3.306-2.907-3.127-3.98a11.317,11.317,0,0,1,4.835-.238s-.263-18.487-1.748-20.44A10.822,10.822,0,0,0-2797.67-1094.975Z" transform="translate(2858.802 1130.491)" fill="#0f1542"/>
      <path id="Trazado_139926" data-name="Trazado 139926" d="M-2911.3-1085.768c.139.065-10.147,41.908-11.013,55.3,0,0,1.026-23.9.925-30.788,0,0,4.253-2.252,4.253-3.042s-4.537-2.926-4.537-2.926,2.873-14.718,4.441-16.34S-2911.3-1085.768-2911.3-1085.768Z" transform="translate(2956.363 1122.738)" fill="#0f1542"/>
    </g>
    <g id="Grupo_81990" data-name="Grupo 81990" transform="translate(-3650.502 -1231.816)">
      <path id="Trazado_139927" data-name="Trazado 139927" d="M-2138.034-705.357l28.04-.033a6.655,6.655,0,0,0,6.627-6.643l-.014-12.151a6.655,6.655,0,0,0-6.643-6.627l-28.04.033a6.654,6.654,0,0,0-6.627,6.643l.014,12.151A6.655,6.655,0,0,0-2138.034-705.357Z" transform="translate(2148.388 735.81)" fill="#0c3563"/>
      <path id="Trazado_139928" data-name="Trazado 139928" d="M-2127.675-754.3v0a6.684,6.684,0,0,0-5.123-3.322h-.007c-.214-.02-.431-.032-.652-.032l-5.583.008,0-2.623a2.181,2.181,0,0,0-.646-1.552,2.187,2.187,0,0,0-1.554-.642h-1.456l-5.863.007h-1.056a2.2,2.2,0,0,0-2.195,2.2l0,2.622-9.637.01a6.681,6.681,0,0,0-6.653,6.667l.016,12.293a6.679,6.679,0,0,0,6.667,6.651l27.989-.031a6.523,6.523,0,0,0,1.437-.16h0a6.553,6.553,0,0,0,2.063-.848,6.673,6.673,0,0,0,3.147-5.66L-2126.79-751A6.6,6.6,0,0,0-2127.675-754.3Zm-22.762-5.957a.823.823,0,0,1,.576-.783.844.844,0,0,1,.244-.038l1.245,0,4.614,0,2.515,0a.821.821,0,0,1,.821.818l0,2.622-10.016.01Z" transform="translate(2168.101 762.464)" fill="#0d458d"/>
    </g>
  </g>
</svg>
